%FSTAX23Y23*%
%MOIN*%
%SFA1B1*%

%IPPOS*%
%ADD11C,0.009840*%
%ADD13C,0.010000*%
%ADD14C,0.007870*%
%ADD15C,0.005910*%
%ADD55C,0.019680*%
%ADD116C,0.023620*%
%ADD117C,0.011810*%
%ADD118C,0.003940*%
%ADD119C,0.008000*%
%ADD120R,0.008860X0.012800*%
%ADD121R,0.008860X0.012800*%
%ADD122R,0.012800X0.008860*%
%LNpcb1-1*%
%LPD*%
G54D11*
X03889Y02319D02*
X03882Y02323D01*
Y02315*
X03889Y02319*
X02736Y02273D02*
X02728Y02277D01*
Y02268*
X02736Y02273*
X02589Y01764D02*
X02582Y01769D01*
Y0176*
X02589Y01764*
X02471Y02032D02*
X02464Y02036D01*
Y02028*
X02471Y02032*
X01941Y02054D02*
X01934Y02058D01*
Y02049*
X01941Y02054*
X01802Y01845D02*
X01794Y01849D01*
Y01841*
X01802Y01845*
X05585Y01546D02*
X05578Y0155D01*
Y01542*
X05585Y01546*
G54D13*
X03783Y05059D02*
X03744D01*
Y05039*
X0375Y05033*
X03764*
X0377Y05039*
Y05059*
Y05046D02*
X03783Y05033D01*
X03744Y04993D02*
Y0502D01*
X03783*
Y04993*
X03764Y0502D02*
Y05007D01*
X0375Y04954D02*
X03744Y04961D01*
Y04974*
X0375Y0498*
X03757*
X03764Y04974*
Y04961*
X0377Y04954*
X03777*
X03783Y04961*
Y04974*
X03777Y0498*
X03744Y04915D02*
Y04941D01*
X03783*
Y04915*
X03764Y04941D02*
Y04928D01*
X03744Y04902D02*
Y04875D01*
Y04888*
X03783*
X03815Y05059D02*
X03854D01*
Y05039*
X03848Y05033*
X03841*
X03835Y05039*
Y05059*
Y05039*
X03828Y05033*
X03822*
X03815Y05039*
Y05059*
Y0502D02*
X03822D01*
X03835Y05007*
X03822Y04993*
X03815*
X03835Y05007D02*
X03854D01*
X03815Y04941D02*
X03854D01*
Y04921*
X03848Y04915*
X03841*
X03835Y04921*
Y04941*
Y04921*
X03828Y04915*
X03822*
X03815Y04921*
Y04941*
X03854Y04902D02*
X03815D01*
X03828Y04888*
X03815Y04875*
X03854*
X03822Y04836D02*
X03815Y04843D01*
Y04856*
X03822Y04862*
X03828*
X03835Y04856*
Y04843*
X03841Y04836*
X03848*
X03854Y04843*
Y04856*
X03848Y04862*
X04238Y01915D02*
X04245Y01921D01*
X04258*
X04265Y01915*
Y01888*
X04258Y01882*
X04245*
X04238Y01888*
X04225Y01921D02*
Y01882D01*
Y01901*
X04199*
Y01921*
Y01882*
X04186D02*
Y01908D01*
X04173Y01921*
X0416Y01908*
Y01882*
Y01901*
X04186*
X04146Y01882D02*
Y01921D01*
X04127*
X0412Y01915*
Y01901*
X04127Y01895*
X04146*
X04133D02*
X0412Y01882D01*
X04081Y01915D02*
X04087Y01921D01*
X04101*
X04107Y01915*
Y01888*
X04101Y01882*
X04087*
X04081Y01888*
Y01901*
X04094*
X04042Y01921D02*
X04068D01*
Y01882*
X04042*
X04068Y01901D02*
X04055D01*
X04225Y01811D02*
Y0185D01*
X04212Y01837*
X04199Y0185*
Y01811*
X04166Y0185D02*
X04179D01*
X04186Y01843*
Y01817*
X04179Y01811*
X04166*
X0416Y01817*
Y01843*
X04166Y0185*
X04146D02*
Y01811D01*
X04127*
X0412Y01817*
Y01843*
X04127Y0185*
X04146*
X04081D02*
X04107D01*
Y01811*
X04081*
X04107Y0183D02*
X04094D01*
X04238Y01772D02*
X04245Y01779D01*
X04258*
X04265Y01772*
Y01766*
X04258Y01759*
X04245*
X04238Y01752*
Y01746*
X04245Y01739*
X04258*
X04265Y01746*
X04199Y01779D02*
X04225D01*
Y01739*
X04199*
X04225Y01759D02*
X04212D01*
X04186Y01779D02*
Y01739D01*
X0416*
X0412Y01779D02*
X04146D01*
Y01739*
X0412*
X04146Y01759D02*
X04133D01*
X04081Y01772D02*
X04087Y01779D01*
X04101*
X04107Y01772*
Y01746*
X04101Y01739*
X04087*
X04081Y01746*
X04068Y01779D02*
X04042D01*
X04055*
Y01739*
X04081Y0347D02*
X04087Y03476D01*
X04101*
X04107Y0347*
Y03443*
X04101Y03437*
X04087*
X04081Y03443*
Y03457*
X04094*
X04068Y03437D02*
Y03476D01*
X04048*
X04041Y0347*
Y03457*
X04048Y0345*
X04068*
X04055D02*
X04041Y03437D01*
X04009Y03476D02*
X04022D01*
X04028Y0347*
Y03443*
X04022Y03437*
X04009*
X04002Y03443*
Y0347*
X04009Y03476*
X03989D02*
Y03443D01*
X03982Y03437*
X03969*
X03963Y03443*
Y03476*
X0395Y03437D02*
Y03476D01*
X03923Y03437*
Y03476*
X0391D02*
Y03437D01*
X03891*
X03884Y03443*
Y0347*
X03891Y03476*
X0391*
X04166Y03366D02*
Y03405D01*
X04146*
X0414Y03398*
Y03385*
X04146Y03379*
X04166*
X04153D02*
X0414Y03366D01*
X04101Y03405D02*
X04127D01*
Y03366*
X04101*
X04127Y03385D02*
X04114D01*
X04061Y03405D02*
X04087D01*
Y03385*
X04074*
X04087*
Y03366*
X04022Y03405D02*
X04048D01*
Y03366*
X04022*
X04048Y03385D02*
X04035D01*
X04009Y03366D02*
Y03405D01*
X03989*
X03982Y03398*
Y03385*
X03989Y03379*
X04009*
X03996D02*
X03982Y03366D01*
X03943Y03405D02*
X03969D01*
Y03366*
X03943*
X03969Y03385D02*
X03956D01*
X0393Y03366D02*
Y03405D01*
X03904Y03366*
Y03405*
X03864Y03398D02*
X03871Y03405D01*
X03884*
X03891Y03398*
Y03372*
X03884Y03366*
X03871*
X03864Y03372*
X03825Y03405D02*
X03851D01*
Y03366*
X03825*
X03851Y03385D02*
X03838D01*
X04137Y03327D02*
X04143Y03334D01*
X04156*
X04163Y03327*
Y03321*
X04156Y03314*
X04143*
X04137Y03308*
Y03301*
X04143Y03294*
X04156*
X04163Y03301*
X04097Y03334D02*
X04123D01*
Y03294*
X04097*
X04123Y03314D02*
X0411D01*
X04084Y03334D02*
Y03294D01*
X04058*
X04019Y03334D02*
X04045D01*
Y03294*
X04019*
X04045Y03314D02*
X04032D01*
X03979Y03327D02*
X03986Y03334D01*
X03999*
X04005Y03327*
Y03301*
X03999Y03294*
X03986*
X03979Y03301*
X03966Y03334D02*
X0394D01*
X03953*
Y03294*
X03927Y03334D02*
X03914D01*
X0392*
Y03294*
X03927*
X03914*
X03874Y03334D02*
X03887D01*
X03894Y03327*
Y03301*
X03887Y03294*
X03874*
X03868Y03301*
Y03327*
X03874Y03334*
X03855Y03294D02*
Y03334D01*
X03828Y03294*
Y03334*
X02185Y02569D02*
Y02559D01*
X02165Y02539*
X02145Y02559*
Y02569*
X02165Y02539D02*
Y02509D01*
X02085D02*
X02125D01*
X02085Y02549*
Y02559*
X02095Y02569*
X02115*
X02125Y02559*
X01959Y02657D02*
Y02647D01*
X01939Y02627*
X01919Y02647*
Y02657*
X01939Y02627D02*
Y02597D01*
X01899D02*
X01879D01*
X01889*
Y02657*
X01899Y02647*
X02648Y02342D02*
Y02293D01*
X02638Y02283*
X02618*
X02608Y02293*
Y02342*
X02588Y02332D02*
X02578Y02342D01*
X02558*
X02548Y02332*
Y02322*
X02558Y02312*
X02568*
X02558*
X02548Y02302*
Y02293*
X02558Y02283*
X02578*
X02588Y02293*
X01875Y02081D02*
X01899D01*
X01904Y02076*
Y02066*
X01899Y02062*
X01875*
X01904Y02032D02*
Y02052D01*
X01884Y02032*
X01879*
X01875Y02037*
Y02047*
X01879Y02052*
X03861Y02237D02*
Y02287D01*
X03871Y02297*
X03891*
X03901Y02287*
Y02237*
X03921Y02297D02*
X03941D01*
X03931*
Y02237*
X03921Y02247*
X01664Y01633D02*
Y01693D01*
X01634*
X01624Y01683*
Y01663*
X01634Y01653*
X01664*
X01644D02*
X01624Y01633D01*
X01564Y01693D02*
X01604D01*
Y01663*
X01584Y01673*
X01574*
X01564Y01663*
Y01643*
X01574Y01633*
X01594*
X01604Y01643*
X01544Y01683D02*
X01534Y01693D01*
X01514*
X01504Y01683*
Y01643*
X01514Y01633*
X01534*
X01544Y01643*
Y01683*
X01664Y01869D02*
Y01929D01*
X01634*
X01624Y01919*
Y01899*
X01634Y01889*
X01664*
X01644D02*
X01624Y01869D01*
X01574D02*
Y01929D01*
X01604Y01899*
X01564*
X01544Y01879D02*
X01534Y01869D01*
X01514*
X01504Y01879*
Y01919*
X01514Y01929*
X01534*
X01544Y01919*
Y01909*
X01534Y01899*
X01504*
X02317Y0182D02*
X02347D01*
Y01835*
X02342Y0184*
X02332*
X02327Y01835*
Y0182*
Y0183D02*
X02317Y0184D01*
Y01865D02*
X02347D01*
X02332Y0185*
Y0187*
X02342Y01879D02*
X02347Y01884D01*
Y01894*
X02342Y01899*
X02337*
X02332Y01894*
X02327Y01899*
X02322*
X02317Y01894*
Y01884*
X02322Y01879*
X02327*
X02332Y01884*
X02337Y01879*
X02342*
X02332Y01884D02*
Y01894D01*
X02529Y01615D02*
X0247D01*
Y01585*
X0248Y01575*
X025*
X0251Y01585*
Y01615*
Y01595D02*
X02529Y01575D01*
Y01525D02*
X0247D01*
X025Y01555*
Y01515*
X0247Y01495D02*
Y01455D01*
X0248*
X02519Y01495*
X02529*
X02457Y02299D02*
X02487D01*
Y02313*
X02482Y02318*
X02472*
X02467Y02313*
Y02299*
Y02309D02*
X02457Y02318D01*
Y02343D02*
X02487D01*
X02472Y02328*
Y02348*
X02487Y02377D02*
X02482Y02368D01*
X02472Y02358*
X02462*
X02457Y02363*
Y02373*
X02462Y02377*
X02467*
X02472Y02373*
Y02358*
X02406Y02299D02*
X02436D01*
Y02313*
X02431Y02318*
X02421*
X02416Y02313*
Y02299*
Y02309D02*
X02406Y02318D01*
Y02343D02*
X02436D01*
X02421Y02328*
Y02348*
X02436Y02377D02*
Y02358D01*
X02421*
X02426Y02368*
Y02373*
X02421Y02377*
X02411*
X02406Y02373*
Y02363*
X02411Y02358*
X02441Y01615D02*
X02381D01*
Y01585*
X02391Y01575*
X02411*
X02421Y01585*
Y01615*
Y01595D02*
X02441Y01575D01*
Y01525D02*
X02381D01*
X02411Y01555*
Y01515*
X02441Y01465D02*
X02381D01*
X02411Y01495*
Y01455*
X03717Y05091D02*
Y05151D01*
X03687*
X03677Y05141*
Y05121*
X03687Y05111*
X03717*
X03697D02*
X03677Y05091D01*
X03627D02*
Y05151D01*
X03657Y05121*
X03617*
X03597Y05141D02*
X03587Y05151D01*
X03567*
X03557Y05141*
Y05131*
X03567Y05121*
X03577*
X03567*
X03557Y05111*
Y05101*
X03567Y05091*
X03587*
X03597Y05101*
X03947Y05314D02*
Y05285D01*
X03962*
X03967Y0529*
Y05299*
X03962Y05304*
X03947*
X03957D02*
X03967Y05314D01*
X03977Y0529D02*
X03982Y05285D01*
X03992*
X03997Y0529*
Y05295*
X03992Y05299*
X03987*
X03992*
X03997Y05304*
Y05309*
X03992Y05314*
X03982*
X03977Y05309*
X04006Y0529D02*
X04011Y05285D01*
X04021*
X04026Y0529*
Y05295*
X04021Y05299*
X04026Y05304*
Y05309*
X04021Y05314*
X04011*
X04006Y05309*
Y05304*
X04011Y05299*
X04006Y05295*
Y0529*
X04011Y05299D02*
X04021D01*
X0379Y05314D02*
Y05285D01*
X03805*
X0381Y0529*
Y05299*
X03805Y05304*
X0379*
X038D02*
X0381Y05314D01*
X03819Y0529D02*
X03824Y05285D01*
X03834*
X03839Y0529*
Y05295*
X03834Y05299*
X03829*
X03834*
X03839Y05304*
Y05309*
X03834Y05314*
X03824*
X03819Y05309*
X03849Y05285D02*
X03869D01*
Y0529*
X03849Y05309*
Y05314*
X03632D02*
Y05285D01*
X03647*
X03652Y0529*
Y05299*
X03647Y05304*
X03632*
X03642D02*
X03652Y05314D01*
X03662Y0529D02*
X03667Y05285D01*
X03677*
X03682Y0529*
Y05295*
X03677Y05299*
X03672*
X03677*
X03682Y05304*
Y05309*
X03677Y05314*
X03667*
X03662Y05309*
X03711Y05285D02*
X03701Y0529D01*
X03692Y05299*
Y05309*
X03696Y05314*
X03706*
X03711Y05309*
Y05304*
X03706Y05299*
X03692*
X03475Y05314D02*
Y05285D01*
X0349*
X03495Y0529*
Y05299*
X0349Y05304*
X03475*
X03485D02*
X03495Y05314D01*
X03505Y0529D02*
X03509Y05285D01*
X03519*
X03524Y0529*
Y05295*
X03519Y05299*
X03514*
X03519*
X03524Y05304*
Y05309*
X03519Y05314*
X03509*
X03505Y05309*
X03554Y05285D02*
X03534D01*
Y05299*
X03544Y05295*
X03549*
X03554Y05299*
Y05309*
X03549Y05314*
X03539*
X03534Y05309*
X02253Y02547D02*
X02313D01*
Y02577*
X02303Y02587*
X02283*
X02273Y02577*
Y02547*
Y02567D02*
X02253Y02587D01*
X02303Y02607D02*
X02313Y02617D01*
Y02637*
X02303Y02647*
X02293*
X02283Y02637*
Y02627*
Y02637*
X02273Y02647*
X02263*
X02253Y02637*
Y02617*
X02263Y02607*
X02253Y02697D02*
X02313D01*
X02283Y02667*
Y02707*
X03882Y0519D02*
Y0525D01*
X03852*
X03842Y0524*
Y0522*
X03852Y0521*
X03882*
X03862D02*
X03842Y0519D01*
X03822Y0524D02*
X03812Y0525D01*
X03792*
X03782Y0524*
Y0523*
X03792Y0522*
X03802*
X03792*
X03782Y0521*
Y052*
X03792Y0519*
X03812*
X03822Y052*
X03762Y0519D02*
X03742D01*
X03752*
Y0525*
X03762Y0524*
X01664Y01948D02*
Y02008D01*
X01634*
X01624Y01998*
Y01978*
X01634Y01968*
X01664*
X01644D02*
X01624Y01948D01*
X01604Y01998D02*
X01594Y02008D01*
X01574*
X01564Y01998*
Y01988*
X01574Y01978*
X01584*
X01574*
X01564Y01968*
Y01958*
X01574Y01948*
X01594*
X01604Y01958*
X01544Y01998D02*
X01534Y02008D01*
X01514*
X01504Y01998*
Y01958*
X01514Y01948*
X01534*
X01544Y01958*
Y01998*
X04808Y02529D02*
Y02589D01*
X04778*
X04768Y02579*
Y02559*
X04778Y02549*
X04808*
X04788D02*
X04768Y02529D01*
X04708D02*
X04748D01*
X04708Y02569*
Y02579*
X04718Y02589*
X04738*
X04748Y02579*
X04688Y02539D02*
X04678Y02529D01*
X04658*
X04648Y02539*
Y02579*
X04658Y02589*
X04678*
X04688Y02579*
Y02569*
X04678Y02559*
X04648*
X04452Y02689D02*
Y02719D01*
X04437*
X04433Y02714*
Y02704*
X04437Y02699*
X04452*
X04442D02*
X04433Y02689D01*
X04403D02*
X04423D01*
X04403Y02709*
Y02714*
X04408Y02719*
X04418*
X04423Y02714*
X04393D02*
X04388Y02719D01*
X04378*
X04374Y02714*
Y02709*
X04378Y02704*
X04374Y02699*
Y02694*
X04378Y02689*
X04388*
X04393Y02694*
Y02699*
X04388Y02704*
X04393Y02709*
Y02714*
X04388Y02704D02*
X04378D01*
X03695Y02854D02*
X03725D01*
Y02869*
X0372Y02874*
X0371*
X03705Y02869*
Y02854*
Y02864D02*
X03695Y02874D01*
Y02903D02*
Y02883D01*
X03715Y02903*
X0372*
X03725Y02898*
Y02888*
X0372Y02883*
X03725Y02913D02*
Y02933D01*
X0372*
X037Y02913*
X03695*
X04887Y02721D02*
Y02781D01*
X04857*
X04847Y02771*
Y02751*
X04857Y02741*
X04887*
X04867D02*
X04847Y02721D01*
X04787D02*
X04827D01*
X04787Y02761*
Y02771*
X04797Y02781*
X04817*
X04827Y02771*
X04727Y02781D02*
X04747Y02771D01*
X04767Y02751*
Y02731*
X04757Y02721*
X04737*
X04727Y02731*
Y02741*
X04737Y02751*
X04767*
X0382Y03188D02*
Y03248D01*
X0379*
X0378Y03238*
Y03218*
X0379Y03208*
X0382*
X038D02*
X0378Y03188D01*
X0372D02*
X0376D01*
X0372Y03228*
Y03238*
X0373Y03248*
X0375*
X0376Y03238*
X0366Y03248D02*
X037D01*
Y03218*
X0368Y03228*
X0367*
X0366Y03218*
Y03198*
X0367Y03188*
X0369*
X037Y03198*
X0382Y0305D02*
Y0311D01*
X0379*
X0378Y031*
Y0308*
X0379Y0307*
X0382*
X038D02*
X0378Y0305D01*
X0372D02*
X0376D01*
X0372Y0309*
Y031*
X0373Y0311*
X0375*
X0376Y031*
X0367Y0305D02*
Y0311D01*
X037Y0308*
X0366*
X04322Y03188D02*
Y03248D01*
X04292*
X04282Y03238*
Y03218*
X04292Y03208*
X04322*
X04302D02*
X04282Y03188D01*
X04222D02*
X04262D01*
X04222Y03228*
Y03238*
X04232Y03248*
X04252*
X04262Y03238*
X04162Y03188D02*
X04202D01*
X04162Y03228*
Y03238*
X04172Y03248*
X04192*
X04202Y03238*
X04312Y0305D02*
Y0311D01*
X04282*
X04272Y031*
Y0308*
X04282Y0307*
X04312*
X04292D02*
X04272Y0305D01*
X04212D02*
X04252D01*
X04212Y0309*
Y031*
X04222Y0311*
X04242*
X04252Y031*
X04192Y0305D02*
X04172D01*
X04182*
Y0311*
X04192Y031*
X041Y023D02*
X0404D01*
Y0227*
X0405Y0226*
X0407*
X0408Y0227*
Y023*
Y0228D02*
X041Y0226D01*
Y022D02*
Y0224D01*
X0406Y022*
X0405*
X0404Y0221*
Y0223*
X0405Y0224*
Y0218D02*
X0404Y0217D01*
Y0215*
X0405Y0214*
X0409*
X041Y0215*
Y0217*
X0409Y0218*
X0405*
X04301Y01988D02*
Y02027D01*
X04281*
X04274Y0202*
Y02007*
X04281Y02001*
X04301*
X04288D02*
X04274Y01988D01*
X04261D02*
X04248D01*
X04255*
Y02027*
X04261Y0202*
X04229Y01994D02*
X04222Y01988D01*
X04209*
X04202Y01994*
Y0202*
X04209Y02027*
X04222*
X04229Y0202*
Y02014*
X04222Y02007*
X04202*
X04104Y01988D02*
Y02027D01*
X04084*
X04078Y0202*
Y02007*
X04084Y02001*
X04104*
X04091D02*
X04078Y01988D01*
X04064D02*
X04051D01*
X04058*
Y02027*
X04064Y0202*
X04032D02*
X04025Y02027D01*
X04012*
X04005Y0202*
Y02014*
X04012Y02007*
X04005Y02001*
Y01994*
X04012Y01988*
X04025*
X04032Y01994*
Y02001*
X04025Y02007*
X04032Y02014*
Y0202*
X04025Y02007D02*
X04012D01*
X05689Y01344D02*
X05629D01*
Y01314*
X05639Y01304*
X05659*
X05669Y01314*
Y01344*
Y01324D02*
X05689Y01304D01*
Y01284D02*
Y01264D01*
Y01274*
X05629*
X05639Y01284*
X05629Y01234D02*
Y01194D01*
X05639*
X05679Y01234*
X05689*
X04234Y02306D02*
Y02276D01*
X04249*
X04254Y02281*
Y02291*
X04249Y02296*
X04234*
X04244D02*
X04254Y02306D01*
X04264D02*
X04274D01*
X04269*
Y02276*
X04264Y02281*
X04308Y02276D02*
X04298Y02281D01*
X04288Y02291*
Y02301*
X04293Y02306*
X04303*
X04308Y02301*
Y02296*
X04303Y02291*
X04288*
X04636Y02275D02*
X04576D01*
Y02245*
X04586Y02235*
X04606*
X04616Y02245*
Y02275*
Y02255D02*
X04636Y02235D01*
Y02215D02*
Y02195D01*
Y02205*
X04576*
X04586Y02215*
X04576Y02125D02*
Y02165D01*
X04606*
X04596Y02145*
Y02135*
X04606Y02125*
X04626*
X04636Y02135*
Y02155*
X04626Y02165*
X06452Y00265D02*
Y00325D01*
X06422*
X06412Y00315*
Y00295*
X06422Y00285*
X06452*
X06432D02*
X06412Y00265D01*
X06392D02*
X06372D01*
X06382*
Y00325*
X06392Y00315*
X06312Y00265D02*
Y00325D01*
X06342Y00295*
X06302*
X05665Y01407D02*
Y01467D01*
X05635*
X05625Y01457*
Y01437*
X05635Y01427*
X05665*
X05645D02*
X05625Y01407D01*
X05605D02*
X05585D01*
X05595*
Y01467*
X05605Y01457*
X05555D02*
X05545Y01467D01*
X05525*
X05515Y01457*
Y01447*
X05525Y01437*
X05535*
X05525*
X05515Y01427*
Y01417*
X05525Y01407*
X05545*
X05555Y01417*
X06137Y01092D02*
Y01152D01*
X06107*
X06097Y01142*
Y01122*
X06107Y01112*
X06137*
X06117D02*
X06097Y01092D01*
X06077D02*
X06057D01*
X06067*
Y01152*
X06077Y01142*
X05988Y01092D02*
X06028D01*
X05988Y01132*
Y01142*
X05998Y01152*
X06018*
X06028Y01142*
X05611Y02257D02*
Y02317D01*
X05581*
X05571Y02307*
Y02287*
X05581Y02277*
X05611*
X05591D02*
X05571Y02257D01*
X05551D02*
X05531D01*
X05541*
Y02317*
X05551Y02307*
X05501Y02257D02*
X05481D01*
X05491*
Y02317*
X05501Y02307*
X06137Y02922D02*
Y02982D01*
X06107*
X06097Y02972*
Y02952*
X06107Y02942*
X06137*
X06117D02*
X06097Y02922D01*
X06077D02*
X06057D01*
X06067*
Y02982*
X06077Y02972*
X06028D02*
X06018Y02982D01*
X05998*
X05988Y02972*
Y02932*
X05998Y02922*
X06018*
X06028Y02932*
Y02972*
X0375Y02607D02*
Y02667D01*
X0372*
X0371Y02657*
Y02637*
X0372Y02627*
X0375*
X0373D02*
X0371Y02607D01*
X0369Y02617D02*
X0368Y02607D01*
X0366*
X0365Y02617*
Y02657*
X0366Y02667*
X0368*
X0369Y02657*
Y02647*
X0368Y02637*
X0365*
X06181Y03366D02*
X06121D01*
Y03336*
X06131Y03326*
X06151*
X06161Y03336*
Y03366*
Y03346D02*
X06181Y03326D01*
X06131Y03306D02*
X06121Y03296D01*
Y03276*
X06131Y03266*
X06141*
X06151Y03276*
X06161Y03266*
X06171*
X06181Y03276*
Y03296*
X06171Y03306*
X06161*
X06151Y03296*
X06141Y03306*
X06131*
X06151Y03296D02*
Y03276D01*
X036Y04516D02*
X0354D01*
Y04486*
X0355Y04476*
X0357*
X0358Y04486*
Y04516*
Y04496D02*
X036Y04476D01*
Y04456D02*
Y04436D01*
Y04446*
X0354*
X0355Y04456*
X06959Y01894D02*
Y01934D01*
X06969Y01944*
X06989*
X06999Y01934*
Y01894*
X06989Y01884*
X06969*
X06979Y01904D02*
X06959Y01884D01*
X06969D02*
X06959Y01894D01*
X06899Y01944D02*
X06939D01*
Y01914*
X06919Y01924*
X06909*
X06899Y01914*
Y01894*
X06909Y01884*
X06929*
X06939Y01894*
X06074Y01895D02*
Y01935D01*
X06084Y01945*
X06104*
X06114Y01935*
Y01895*
X06104Y01885*
X06084*
X06094Y01905D02*
X06074Y01885D01*
X06084D02*
X06074Y01895D01*
X06024Y01885D02*
Y01945D01*
X06054Y01915*
X06014*
X05334Y01653D02*
X05294D01*
X05284Y01663*
Y01683*
X05294Y01693*
X05334*
X05344Y01683*
Y01663*
X05324Y01673D02*
X05344Y01653D01*
Y01663D02*
X05334Y01653D01*
X05294Y01633D02*
X05284Y01623D01*
Y01603*
X05294Y01593*
X05304*
X05314Y01603*
Y01613*
Y01603*
X05324Y01593*
X05334*
X05344Y01603*
Y01623*
X05334Y01633*
X06641Y02877D02*
Y02917D01*
X06651Y02927*
X06671*
X06681Y02917*
Y02877*
X06671Y02867*
X06651*
X06661Y02887D02*
X06641Y02867D01*
X06651D02*
X06641Y02877D01*
X06581Y02867D02*
X06621D01*
X06581Y02907*
Y02917*
X06591Y02927*
X06611*
X06621Y02917*
X05736Y02877D02*
Y02917D01*
X05746Y02927*
X05766*
X05776Y02917*
Y02877*
X05766Y02867*
X05746*
X05756Y02887D02*
X05736Y02867D01*
X05746D02*
X05736Y02877D01*
X05716Y02867D02*
X05696D01*
X05706*
Y02927*
X05716Y02917*
X0395Y05363D02*
Y05393D01*
X03965*
X0397Y05388*
Y05368*
X03965Y05363*
X0395*
X03979Y05393D02*
X03989D01*
X03984*
Y05363*
X03979Y05368*
X04024Y05363D02*
X04004D01*
Y05378*
X04014Y05373*
X04019*
X04024Y05378*
Y05388*
X04019Y05393*
X04009*
X04004Y05388*
X03792Y05363D02*
Y05393D01*
X03807*
X03812Y05388*
Y05368*
X03807Y05363*
X03792*
X03822Y05393D02*
X03832D01*
X03827*
Y05363*
X03822Y05368*
X03861Y05393D02*
Y05363D01*
X03847Y05378*
X03866*
X03635Y05363D02*
Y05393D01*
X0365*
X03655Y05388*
Y05368*
X0365Y05363*
X03635*
X03664Y05393D02*
X03674D01*
X03669*
Y05363*
X03664Y05368*
X03689D02*
X03694Y05363D01*
X03704*
X03709Y05368*
Y05373*
X03704Y05378*
X03699*
X03704*
X03709Y05383*
Y05388*
X03704Y05393*
X03694*
X03689Y05388*
X02655Y01953D02*
Y01924D01*
X0264*
X02635Y01929*
Y01948*
X0264Y01953*
X02655*
X02625Y01924D02*
X02615D01*
X0262*
Y01953*
X02625Y01948*
X02581Y01924D02*
X026D01*
X02581Y01943*
Y01948*
X02586Y01953*
X02595*
X026Y01948*
X03482Y05363D02*
Y05393D01*
X03497*
X03502Y05388*
Y05368*
X03497Y05363*
X03482*
X03512Y05393D02*
X03522D01*
X03517*
Y05363*
X03512Y05368*
X03536Y05393D02*
X03546D01*
X03541*
Y05363*
X03536Y05368*
X02576Y02032D02*
Y02002D01*
X02561*
X02556Y02007*
Y02027*
X02561Y02032*
X02576*
X02546Y02002D02*
X02536D01*
X02541*
Y02032*
X02546Y02027*
X02522D02*
X02517Y02032D01*
X02507*
X02502Y02027*
Y02007*
X02507Y02002*
X02517*
X02522Y02007*
Y02027*
X01664Y01801D02*
Y01741D01*
X01634*
X01624Y01751*
Y01791*
X01634Y01801*
X01664*
X01604Y01751D02*
X01594Y01741D01*
X01574*
X01564Y01751*
Y01791*
X01574Y01801*
X01594*
X01604Y01791*
Y01781*
X01594Y01771*
X01564*
X05344Y01319D02*
X05404D01*
Y01289*
X05394Y01279*
X05354*
X05344Y01289*
Y01319*
X05354Y01259D02*
X05344Y01249D01*
Y01229*
X05354Y01219*
X05364*
X05374Y01229*
X05384Y01219*
X05394*
X05404Y01229*
Y01249*
X05394Y01259*
X05384*
X05374Y01249*
X05364Y01259*
X05354*
X05374Y01249D02*
Y01229D01*
X05679Y01053D02*
Y00993D01*
X05649*
X05639Y01003*
Y01043*
X05649Y01053*
X05679*
X05579D02*
X05619D01*
Y01023*
X05599Y01033*
X05589*
X05579Y01023*
Y01003*
X05589Y00993*
X05609*
X05619Y01003*
X05679Y01132D02*
Y01072D01*
X05649*
X05639Y01082*
Y01122*
X05649Y01132*
X05679*
X05589Y01072D02*
Y01132D01*
X05619Y01102*
X05579*
X06309Y03199D02*
Y03139D01*
X06279*
X06269Y03149*
Y03189*
X06279Y03199*
X06309*
X06249Y03189D02*
X06239Y03199D01*
X06219*
X06209Y03189*
Y03179*
X06219Y03169*
X06229*
X06219*
X06209Y03159*
Y03149*
X06219Y03139*
X06239*
X06249Y03149*
X06211Y031D02*
Y0304D01*
X06181*
X06171Y0305*
Y0309*
X06181Y031*
X06211*
X06111Y0304D02*
X06151D01*
X06111Y0308*
Y0309*
X06121Y031*
X06141*
X06151Y0309*
X05826Y03307D02*
X05886D01*
Y03277*
X05876Y03267*
X05836*
X05826Y03277*
Y03307*
X05886Y03247D02*
Y03227D01*
Y03237*
X05826*
X05836Y03247*
X02267Y02078D02*
X02262Y02083D01*
Y02093*
X02267Y02098*
X02287*
X02292Y02093*
Y02083*
X02287Y02078*
X02292Y02054D02*
X02262D01*
X02277Y02068*
Y02049*
X02267Y02039D02*
X02262Y02034D01*
Y02024*
X02267Y02019*
X02272*
X02277Y02024*
X02282Y02019*
X02287*
X02292Y02024*
Y02034*
X02287Y02039*
X02282*
X02277Y02034*
X02272Y02039*
X02267*
X02277Y02034D02*
Y02024D01*
X02352Y02037D02*
X02357Y02032D01*
Y02022*
X02352Y02017*
X02332*
X02327Y02022*
Y02032*
X02332Y02037*
X02327Y02062D02*
X02357D01*
X02342Y02047*
Y02066*
X02357Y02076D02*
Y02096D01*
X02352*
X02332Y02076*
X02327*
X041Y05063D02*
X0411Y05073D01*
X0413*
X0414Y05063*
Y05023*
X0413Y05013*
X0411*
X041Y05023*
X0405Y05013D02*
Y05073D01*
X0408Y05043*
X0404*
X0398Y05073D02*
X04Y05063D01*
X0402Y05043*
Y05023*
X0401Y05013*
X0399*
X0398Y05023*
Y05033*
X0399Y05043*
X0402*
X02177Y02104D02*
X02172Y02099D01*
X02162*
X02157Y02104*
Y02124*
X02162Y02128*
X02172*
X02177Y02124*
X02201Y02128D02*
Y02099D01*
X02187Y02114*
X02206*
X02236Y02099D02*
X02216D01*
Y02114*
X02226Y02109*
X02231*
X02236Y02114*
Y02124*
X02231Y02128*
X02221*
X02216Y02124*
X01969Y01565D02*
X01979Y01575D01*
X01999*
X02009Y01565*
Y01525*
X01999Y01515*
X01979*
X01969Y01525*
X01919Y01515D02*
Y01575D01*
X01949Y01545*
X01909*
X01889Y01565D02*
X01879Y01575D01*
X01859*
X01849Y01565*
Y01555*
X01859Y01545*
X01869*
X01859*
X01849Y01535*
Y01525*
X01859Y01515*
X01879*
X01889Y01525*
X02302Y01575D02*
X02292Y01585D01*
Y01605*
X02302Y01615*
X02342*
X02352Y01605*
Y01585*
X02342Y01575*
X02352Y01525D02*
X02292D01*
X02322Y01555*
Y01515*
X02352Y01455D02*
Y01495D01*
X02312Y01455*
X02302*
X02292Y01465*
Y01485*
X02302Y01495*
X02401Y02066D02*
X02396Y02062D01*
X02386*
X02381Y02066*
Y02086*
X02386Y02091*
X02396*
X02401Y02086*
X02426Y02091D02*
Y02062D01*
X02411Y02076*
X02431*
X0244Y02066D02*
X02445Y02062D01*
X02455*
X0246Y02066*
Y02086*
X02455Y02091*
X02445*
X0244Y02086*
Y02066*
X01624Y02155D02*
X01634Y02165D01*
X01654*
X01664Y02155*
Y02115*
X01654Y02105*
X01634*
X01624Y02115*
X01604Y02155D02*
X01594Y02165D01*
X01574*
X01564Y02155*
Y02145*
X01574Y02135*
X01584*
X01574*
X01564Y02125*
Y02115*
X01574Y02105*
X01594*
X01604Y02115*
X01544D02*
X01534Y02105D01*
X01514*
X01504Y02115*
Y02155*
X01514Y02165*
X01534*
X01544Y02155*
Y02145*
X01534Y02135*
X01504*
X02893Y02175D02*
X02883Y02185D01*
Y02205*
X02893Y02215*
X02933*
X02943Y02205*
Y02185*
X02933Y02175*
X02893Y02155D02*
X02883Y02145D01*
Y02125*
X02893Y02115*
X02903*
X02913Y02125*
Y02135*
Y02125*
X02923Y02115*
X02933*
X02943Y02125*
Y02145*
X02933Y02155*
X02893Y02095D02*
X02883Y02085D01*
Y02065*
X02893Y02055*
X02903*
X02913Y02065*
X02923Y02055*
X02933*
X02943Y02065*
Y02085*
X02933Y02095*
X02923*
X02913Y02085*
X02903Y02095*
X02893*
X02913Y02085D02*
Y02065D01*
X01682Y02293D02*
X01672Y02303D01*
Y02323*
X01682Y02333*
X01722*
X01732Y02323*
Y02303*
X01722Y02293*
X01682Y02273D02*
X01672Y02263D01*
Y02243*
X01682Y02233*
X01692*
X01702Y02243*
Y02253*
Y02243*
X01712Y02233*
X01722*
X01732Y02243*
Y02263*
X01722Y02273*
X01672Y02213D02*
Y02173D01*
X01682*
X01722Y02213*
X01732*
X01624Y02077D02*
X01634Y02087D01*
X01654*
X01664Y02077*
Y02037*
X01654Y02027*
X01634*
X01624Y02037*
X01604Y02077D02*
X01594Y02087D01*
X01574*
X01564Y02077*
Y02067*
X01574Y02057*
X01584*
X01574*
X01564Y02047*
Y02037*
X01574Y02027*
X01594*
X01604Y02037*
X01504Y02087D02*
X01524Y02077D01*
X01544Y02057*
Y02037*
X01534Y02027*
X01514*
X01504Y02037*
Y02047*
X01514Y02057*
X01544*
X04724Y02425D02*
X04714Y02435D01*
Y02455*
X04724Y02465*
X04764*
X04774Y02455*
Y02435*
X04764Y02425*
X04724Y02405D02*
X04714Y02395D01*
Y02375*
X04724Y02365*
X04734*
X04744Y02375*
Y02385*
Y02375*
X04754Y02365*
X04764*
X04774Y02375*
Y02395*
X04764Y02405*
X04714Y02305D02*
Y02345D01*
X04744*
X04734Y02325*
Y02315*
X04744Y02305*
X04764*
X04774Y02315*
Y02335*
X04764Y02345*
X04768Y02685D02*
X04778Y02695D01*
X04798*
X04808Y02685*
Y02645*
X04798Y02635*
X04778*
X04768Y02645*
X04748Y02685D02*
X04738Y02695D01*
X04718*
X04708Y02685*
Y02675*
X04718Y02665*
X04728*
X04718*
X04708Y02655*
Y02645*
X04718Y02635*
X04738*
X04748Y02645*
X04658Y02635D02*
Y02695D01*
X04688Y02665*
X04648*
X04641Y02425D02*
X04631Y02435D01*
Y02455*
X04641Y02465*
X04681*
X04691Y02455*
Y02435*
X04681Y02425*
X04641Y02405D02*
X04631Y02395D01*
Y02375*
X04641Y02365*
X04651*
X04661Y02375*
Y02385*
Y02375*
X04671Y02365*
X04681*
X04691Y02375*
Y02395*
X04681Y02405*
X04641Y02345D02*
X04631Y02335D01*
Y02315*
X04641Y02305*
X04651*
X04661Y02315*
Y02325*
Y02315*
X04671Y02305*
X04681*
X04691Y02315*
Y02335*
X04681Y02345*
X0378Y02224D02*
X0379Y02234D01*
X0381*
X0382Y02224*
Y02184*
X0381Y02174*
X0379*
X0378Y02184*
X0376Y02224D02*
X0375Y02234D01*
X0373*
X0372Y02224*
Y02214*
X0373Y02204*
X0374*
X0373*
X0372Y02194*
Y02184*
X0373Y02174*
X0375*
X0376Y02184*
X0366Y02174D02*
X037D01*
X0366Y02214*
Y02224*
X0367Y02234*
X0369*
X037Y02224*
X03583Y0246D02*
X03593Y0247D01*
X03613*
X03623Y0246*
Y0242*
X03613Y0241*
X03593*
X03583Y0242*
X03563Y0246D02*
X03553Y0247D01*
X03533*
X03523Y0246*
Y0245*
X03533Y0244*
X03543*
X03533*
X03523Y0243*
Y0242*
X03533Y0241*
X03553*
X03563Y0242*
X03503Y0241D02*
X03483D01*
X03493*
Y0247*
X03503Y0246*
X03622Y02372D02*
X03632Y02382D01*
X03652*
X03662Y02372*
Y02332*
X03652Y02322*
X03632*
X03622Y02332*
X03602Y02372D02*
X03592Y02382D01*
X03572*
X03562Y02372*
Y02362*
X03572Y02352*
X03582*
X03572*
X03562Y02342*
Y02332*
X03572Y02322*
X03592*
X03602Y02332*
X03542Y02372D02*
X03532Y02382D01*
X03512*
X03502Y02372*
Y02332*
X03512Y02322*
X03532*
X03542Y02332*
Y02372*
X04377Y02789D02*
X04382Y02794D01*
X04392*
X04397Y02789*
Y02769*
X04392Y02764*
X04382*
X04377Y02769*
X04348Y02764D02*
X04368D01*
X04348Y02784*
Y02789*
X04353Y02794*
X04363*
X04368Y02789*
X04338Y02769D02*
X04333Y02764D01*
X04323*
X04318Y02769*
Y02789*
X04323Y02794*
X04333*
X04338Y02789*
Y02784*
X04333Y02779*
X04318*
X04377Y0286D02*
X04382Y02865D01*
X04392*
X04397Y0286*
Y0284*
X04392Y02835*
X04382*
X04377Y0284*
X04348Y02835D02*
X04368D01*
X04348Y02855*
Y0286*
X04353Y02865*
X04363*
X04368Y0286*
X04338D02*
X04333Y02865D01*
X04323*
X04318Y0286*
Y02855*
X04323Y0285*
X04318Y02845*
Y0284*
X04323Y02835*
X04333*
X04338Y0284*
Y02845*
X04333Y0285*
X04338Y02855*
Y0286*
X04333Y0285D02*
X04323D01*
X04023Y03097D02*
X04033Y03087D01*
Y03067*
X04023Y03057*
X03983*
X03973Y03067*
Y03087*
X03983Y03097*
X03973Y03157D02*
Y03117D01*
X04013Y03157*
X04023*
X04033Y03147*
Y03127*
X04023Y03117*
X04033Y03177D02*
Y03217D01*
X04023*
X03983Y03177*
X03973*
X04365Y02047D02*
X04355Y02057D01*
Y02077*
X04365Y02087*
X04405*
X04415Y02077*
Y02057*
X04405Y02047*
X04415Y01987D02*
Y02027D01*
X04375Y01987*
X04365*
X04355Y01997*
Y02017*
X04365Y02027*
X04355Y01927D02*
X04365Y01947D01*
X04385Y01967*
X04405*
X04415Y01957*
Y01937*
X04405Y01927*
X04395*
X04385Y01937*
Y01967*
X06436Y01122D02*
X06426Y01132D01*
Y01152*
X06436Y01162*
X06476*
X06486Y01152*
Y01132*
X06476Y01122*
X06486Y01062D02*
Y01102D01*
X06446Y01062*
X06436*
X06426Y01072*
Y01092*
X06436Y01102*
X06426Y01002D02*
Y01042D01*
X06456*
X06446Y01022*
Y01012*
X06456Y01002*
X06476*
X06486Y01012*
Y01032*
X06476Y01042*
X06279Y01122D02*
X06269Y01132D01*
Y01152*
X06279Y01162*
X06319*
X06329Y01152*
Y01132*
X06319Y01122*
X06329Y01062D02*
Y01102D01*
X06289Y01062*
X06279*
X06269Y01072*
Y01092*
X06279Y01102*
X06329Y01012D02*
X06269D01*
X06299Y01042*
Y01002*
X06121Y00689D02*
X06111Y00699D01*
Y00719*
X06121Y00729*
X06161*
X06171Y00719*
Y00699*
X06161Y00689*
X06171Y00629D02*
Y00669D01*
X06131Y00629*
X06121*
X06111Y00639*
Y00659*
X06121Y00669*
Y00609D02*
X06111Y00599D01*
Y00579*
X06121Y00569*
X06131*
X06141Y00579*
Y00589*
Y00579*
X06151Y00569*
X06161*
X06171Y00579*
Y00599*
X06161Y00609*
X05964Y00689D02*
X05954Y00699D01*
Y00719*
X05964Y00729*
X06004*
X06014Y00719*
Y00699*
X06004Y00689*
X06014Y00629D02*
Y00669D01*
X05974Y00629*
X05964*
X05954Y00639*
Y00659*
X05964Y00669*
X06014Y00569D02*
Y00609D01*
X05974Y00569*
X05964*
X05954Y00579*
Y00599*
X05964Y00609*
X06092Y01043D02*
X06102Y01053D01*
X06122*
X06132Y01043*
Y01003*
X06122Y00993*
X06102*
X06092Y01003*
X06033Y00993D02*
X06072D01*
X06033Y01033*
Y01043*
X06043Y01053*
X06062*
X06072Y01043*
X06013Y00993D02*
X05993D01*
X06003*
Y01053*
X06013Y01043*
X05806Y00689D02*
X05796Y00699D01*
Y00719*
X05806Y00729*
X05846*
X05856Y00719*
Y00699*
X05846Y00689*
X05856Y00629D02*
Y00669D01*
X05816Y00629*
X05806*
X05796Y00639*
Y00659*
X05806Y00669*
Y00609D02*
X05796Y00599D01*
Y00579*
X05806Y00569*
X05846*
X05856Y00579*
Y00599*
X05846Y00609*
X05806*
X05649Y00684D02*
X05639Y00694D01*
Y00714*
X05649Y00724*
X05689*
X05699Y00714*
Y00694*
X05689Y00684*
X05699Y00664D02*
Y00644D01*
Y00654*
X05639*
X05649Y00664*
X05689Y00614D02*
X05699Y00604D01*
Y00584*
X05689Y00574*
X05649*
X05639Y00584*
Y00604*
X05649Y00614*
X05659*
X05669Y00604*
Y00574*
X05491Y00684D02*
X05481Y00694D01*
Y00714*
X05491Y00724*
X05531*
X05541Y00714*
Y00694*
X05531Y00684*
X05541Y00664D02*
Y00644D01*
Y00654*
X05481*
X05491Y00664*
Y00614D02*
X05481Y00604D01*
Y00584*
X05491Y00574*
X05501*
X05511Y00584*
X05521Y00574*
X05531*
X05541Y00584*
Y00604*
X05531Y00614*
X05521*
X05511Y00604*
X05501Y00614*
X05491*
X05511Y00604D02*
Y00584D01*
X05334Y00684D02*
X05324Y00694D01*
Y00714*
X05334Y00724*
X05374*
X05384Y00714*
Y00694*
X05374Y00684*
X05384Y00664D02*
Y00644D01*
Y00654*
X05324*
X05334Y00664*
X05324Y00614D02*
Y00574D01*
X05334*
X05374Y00614*
X05384*
X06507Y00669D02*
X06517Y00679D01*
X06537*
X06547Y00669*
Y00629*
X06537Y00619*
X06517*
X06507Y00629*
X06487Y00619D02*
X06467D01*
X06477*
Y00679*
X06487Y00669*
X06397Y00679D02*
X06417Y00669D01*
X06437Y00649*
Y00629*
X06427Y00619*
X06407*
X06397Y00629*
Y00639*
X06407Y00649*
X06437*
X05176Y00684D02*
X05166Y00694D01*
Y00714*
X05176Y00724*
X05216*
X05226Y00714*
Y00694*
X05216Y00684*
X05226Y00664D02*
Y00644D01*
Y00654*
X05166*
X05176Y00664*
X05166Y00574D02*
Y00614D01*
X05196*
X05186Y00594*
Y00584*
X05196Y00574*
X05216*
X05226Y00584*
Y00604*
X05216Y00614*
X05019Y00684D02*
X05009Y00694D01*
Y00714*
X05019Y00724*
X05059*
X05069Y00714*
Y00694*
X05059Y00684*
X05069Y00664D02*
Y00644D01*
Y00654*
X05009*
X05019Y00664*
X05069Y00584D02*
X05009D01*
X05039Y00614*
Y00574*
X06318Y00669D02*
X06328Y00679D01*
X06348*
X06358Y00669*
Y00629*
X06348Y00619*
X06328*
X06318Y00629*
X06298Y00619D02*
X06278D01*
X06288*
Y00679*
X06298Y00669*
X06248D02*
X06238Y00679D01*
X06218*
X06208Y00669*
Y00659*
X06218Y00649*
X06228*
X06218*
X06208Y00639*
Y00629*
X06218Y00619*
X06238*
X06248Y00629*
X04861Y00684D02*
X04851Y00694D01*
Y00714*
X04861Y00724*
X04901*
X04911Y00714*
Y00694*
X04901Y00684*
X04911Y00664D02*
Y00644D01*
Y00654*
X04851*
X04861Y00664*
X04911Y00574D02*
Y00614D01*
X04871Y00574*
X04861*
X04851Y00584*
Y00604*
X04861Y00614*
X04704Y00674D02*
X04694Y00684D01*
Y00704*
X04704Y00714*
X04744*
X04754Y00704*
Y00684*
X04744Y00674*
X04754Y00654D02*
Y00634D01*
Y00644*
X04694*
X04704Y00654*
X04754Y00604D02*
Y00584D01*
Y00594*
X04694*
X04704Y00604*
X07115Y01718D02*
X07105Y01728D01*
Y01748*
X07115Y01758*
X07155*
X07165Y01748*
Y01728*
X07155Y01718*
X07165Y01698D02*
Y01678D01*
Y01688*
X07105*
X07115Y01698*
Y01648D02*
X07105Y01638D01*
Y01618*
X07115Y01608*
X07155*
X07165Y01618*
Y01638*
X07155Y01648*
X07115*
Y02372D02*
X07105Y02382D01*
Y02402*
X07115Y02412*
X07155*
X07165Y02402*
Y02382*
X07155Y02372*
Y02352D02*
X07165Y02342D01*
Y02322*
X07155Y02312*
X07115*
X07105Y02322*
Y02342*
X07115Y02352*
X07125*
X07135Y02342*
Y02312*
X05777Y0309D02*
X05787Y031D01*
X05807*
X05817Y0309*
Y0305*
X05807Y0304*
X05787*
X05777Y0305*
X05757Y0309D02*
X05747Y031D01*
X05727*
X05717Y0309*
Y0308*
X05727Y0307*
X05717Y0306*
Y0305*
X05727Y0304*
X05747*
X05757Y0305*
Y0306*
X05747Y0307*
X05757Y0308*
Y0309*
X05747Y0307D02*
X05727D01*
X06013Y03592D02*
X06023Y03602D01*
X06043*
X06053Y03592*
Y03552*
X06043Y03542*
X06023*
X06013Y03552*
X05993Y03602D02*
X05953D01*
Y03592*
X05993Y03552*
Y03542*
X03373Y02939D02*
X03363Y02949D01*
Y02969*
X03373Y02979*
X03413*
X03423Y02969*
Y02949*
X03413Y02939*
X03363Y02879D02*
X03373Y02899D01*
X03393Y02919*
X03413*
X03423Y02909*
Y02889*
X03413Y02879*
X03403*
X03393Y02889*
Y02919*
X03613Y0286D02*
X03603Y0287D01*
Y0289*
X03613Y029*
X03653*
X03663Y0289*
Y0287*
X03653Y0286*
X03603Y028D02*
Y0284D01*
X03633*
X03623Y0282*
Y0281*
X03633Y028*
X03653*
X03663Y0281*
Y0283*
X03653Y0284*
X03374Y02791D02*
X03364Y02801D01*
Y02821*
X03374Y02831*
X03414*
X03424Y02821*
Y02801*
X03414Y02791*
X03424Y02741D02*
X03364D01*
X03394Y02771*
Y02731*
X03639Y02708D02*
X03629Y02698D01*
X03609*
X03599Y02708*
Y02748*
X03609Y02758*
X03629*
X03639Y02748*
X03659Y02708D02*
X03669Y02698D01*
X03689*
X03699Y02708*
Y02718*
X03689Y02728*
X03679*
X03689*
X03699Y02738*
Y02748*
X03689Y02758*
X03669*
X03659Y02748*
X03365Y02637D02*
X03355Y02647D01*
Y02667*
X03365Y02677*
X03405*
X03415Y02667*
Y02647*
X03405Y02637*
X03415Y02577D02*
Y02617D01*
X03375Y02577*
X03365*
X03355Y02587*
Y02607*
X03365Y02617*
X03464Y02543D02*
X03474Y02553D01*
X03494*
X03504Y02543*
Y02503*
X03494Y02493*
X03474*
X03464Y02503*
X03444Y02493D02*
X03424D01*
X03434*
Y02553*
X03444Y02543*
X02116Y02194D02*
X02111Y02199D01*
Y02209*
X02116Y02214*
X02135*
X0214Y02209*
Y02199*
X02135Y02194*
X0214Y0217D02*
X02111D01*
X02125Y02185*
Y02165*
X0214Y0214D02*
X02111D01*
X02125Y02155*
Y02135*
X01938Y02189D02*
X01934Y02194D01*
Y02204*
X01938Y02209*
X01958*
X01963Y02204*
Y02194*
X01958Y02189*
X01963Y02165D02*
X01934D01*
X01948Y0218*
Y0216*
X01963Y0215D02*
Y0214D01*
Y02145*
X01934*
X01938Y0215*
G54D14*
X04094Y02323D02*
X04091Y02333D01*
X04084Y0234*
X04074Y02342*
X04064Y0234*
X04057Y02333*
X04055Y02323*
X05908Y03347D02*
X059D01*
X05908*
X06191Y03124D02*
X06184D01*
X06191*
X06092Y03097D02*
X06084D01*
X06092*
X05506Y01189D02*
X05498D01*
X05506*
X05706Y01075D02*
X05698D01*
X05706*
Y00997D02*
X05698D01*
X05706*
X03851Y03187D02*
Y03197D01*
X03903Y03187D02*
Y03197D01*
X03527Y02846D02*
Y02856D01*
X03579Y02846D02*
Y02856D01*
X03527Y02691D02*
Y02701D01*
X03579Y02691D02*
Y02701D01*
X03695Y02585D02*
X03705D01*
X03695Y02533D02*
X03705D01*
X03527Y02537D02*
Y02547D01*
X03579Y02537D02*
Y02547D01*
X03695Y02486D02*
X03705D01*
X03695Y02434D02*
X03705D01*
X03738Y02388D02*
X03748D01*
X03738Y02336D02*
X03748D01*
X03738Y02309D02*
X03748D01*
X03738Y02257D02*
X03748D01*
X03448Y02616D02*
Y02626D01*
X035Y02616D02*
Y02626D01*
X03448Y0277D02*
Y0278D01*
X035Y0277D02*
Y0278D01*
X03448Y02928D02*
Y02938D01*
X035Y02928D02*
Y02938D01*
X03851Y03046D02*
Y03056D01*
X03903Y03046D02*
Y03056D01*
X04088Y03187D02*
Y03197D01*
X0414Y03187D02*
Y03197D01*
X03925Y02323D02*
X04055D01*
X04094D02*
X04224D01*
Y02945*
X03925D02*
X04224D01*
X03925Y02323D02*
Y02945D01*
X04088Y03046D02*
Y03056D01*
X0414Y03046D02*
Y03056D01*
X03991Y02985D02*
X04001D01*
X03991Y03037D02*
X04001D01*
X0464Y02781D02*
X0465D01*
X0464Y02729D02*
X0465D01*
X04463Y0288D02*
X04473D01*
X04463Y02828D02*
X04473D01*
X04463Y02801D02*
X04473D01*
X04463Y02749D02*
X04473D01*
X04416Y02594D02*
Y02602D01*
X04363Y02594D02*
Y02602D01*
X04542Y02683D02*
X04552D01*
X04542Y02631D02*
X04552D01*
X04356Y0236D02*
Y02403D01*
X04462Y0236D02*
Y02403D01*
X04494Y0236D02*
Y02403D01*
X046Y0236D02*
Y02403D01*
X04501Y02199D02*
Y02209D01*
X04553Y02199D02*
Y02209D01*
X04356Y02163D02*
Y02206D01*
X04462Y02163D02*
Y02206D01*
X04245Y02199D02*
Y02209D01*
X04297Y02199D02*
Y02209D01*
X04127Y02199D02*
Y02209D01*
X04179Y02199D02*
Y02209D01*
X04246Y02112D02*
X04256D01*
X04246Y0206D02*
X04256D01*
X0405Y02112D02*
X0406D01*
X0405Y0206D02*
X0406D01*
X02305Y02317D02*
Y02327D01*
X02253Y02317D02*
Y02327D01*
Y02169D02*
Y02179D01*
X02305Y02169D02*
Y02179D01*
X02561Y02066D02*
X02687D01*
X02561Y02262D02*
X02687D01*
X02561Y02066D02*
Y02262D01*
X02687Y02066D02*
Y02262D01*
X02846Y02133D02*
Y02143D01*
X02794Y02133D02*
Y02143D01*
X0247Y01687D02*
Y01697D01*
X02522Y01687D02*
Y01697D01*
X02381Y01687D02*
Y01697D01*
X02433Y01687D02*
Y01697D01*
X02292Y01687D02*
Y01697D01*
X02344Y01687D02*
Y01697D01*
X02422Y01865D02*
X02432D01*
X02422Y01813D02*
X02432D01*
X02649Y01871D02*
Y01897D01*
X02617D02*
X02649D01*
Y01782D02*
Y01808D01*
X02617Y01782D02*
X02649D01*
X02401Y019D02*
Y01926D01*
Y019D02*
X02433D01*
X02401Y01989D02*
Y02015D01*
X02433*
X02384Y02169D02*
Y02179D01*
X02332Y02169D02*
Y02179D01*
X02411Y02169D02*
Y02179D01*
X02463Y02169D02*
Y02179D01*
X02332Y02317D02*
Y02327D01*
X02384Y02317D02*
Y02327D01*
X02253Y02464D02*
Y02474D01*
X02305Y02464D02*
Y02474D01*
X02057Y0242D02*
Y02481D01*
X02118*
X02214Y0242D02*
Y02481D01*
X02153D02*
X02214D01*
Y02249D02*
Y0231D01*
X02153Y02249D02*
X02214D01*
X02057D02*
Y0231D01*
Y02249D02*
X02118D01*
X02194Y01765D02*
Y02009D01*
X0195Y01765D02*
Y02009D01*
Y01765D02*
X02194D01*
X0195Y02009D02*
X02194D01*
X01831Y02109D02*
X01841D01*
X01831Y02161D02*
X01841D01*
X01752Y02082D02*
X01762D01*
X01752Y0203D02*
X01762D01*
X01752Y01951D02*
X01762D01*
X01752Y02003D02*
X01762D01*
X01752Y01872D02*
X01762D01*
X01752Y01924D02*
X01762D01*
X01732Y01713D02*
Y01739D01*
Y01713D02*
X01764D01*
X01732Y01802D02*
Y01828D01*
X01764*
X01752Y01636D02*
X01762D01*
X01752Y01688D02*
X01762D01*
X0192Y01659D02*
X0193D01*
X0192Y01607D02*
X0193D01*
X07198Y02357D02*
Y02367D01*
X0725Y02357D02*
Y02367D01*
X07198Y01668D02*
Y01678D01*
X0725Y01668D02*
Y01678D01*
X05982Y03517D02*
X06025D01*
X05982Y03411D02*
X06025D01*
X05909Y03218D02*
Y03316D01*
Y03285D02*
X0598D01*
Y03218D02*
Y03316D01*
X06088Y03262D02*
Y03272D01*
X06036Y03262D02*
Y03272D01*
X059Y03096D02*
X0591D01*
X059Y03044D02*
X0591D01*
X059Y02978D02*
X0591D01*
X059Y02926D02*
X0591D01*
X05374Y0159D02*
X0557D01*
X05374Y01716D02*
X0557D01*
Y0159D02*
Y01716D01*
X05374Y0159D02*
Y01716D01*
X05425Y01463D02*
X05435D01*
X05425Y01411D02*
X05435D01*
X05498Y0122D02*
Y01318D01*
X05427Y01251D02*
X05498D01*
X05427Y0122D02*
Y01318D01*
X05554Y01264D02*
Y01274D01*
X05606Y01264D02*
Y01274D01*
X059Y00997D02*
X0591D01*
X059Y01049D02*
X0591D01*
X059Y01076D02*
X0591D01*
X059Y01128D02*
X0591D01*
X04671Y00805D02*
Y00848D01*
X04777Y00805D02*
Y00848D01*
X04935Y00805D02*
Y00848D01*
X04828Y00805D02*
Y00848D01*
X05092Y00805D02*
Y00848D01*
X04986Y00805D02*
Y00848D01*
X0525Y00805D02*
Y00848D01*
X05143Y00805D02*
Y00848D01*
X05407Y00805D02*
Y00848D01*
X05301Y00805D02*
Y00848D01*
X05564Y00805D02*
Y00848D01*
X05458Y00805D02*
Y00848D01*
X05722Y00805D02*
Y00848D01*
X05616Y00805D02*
Y00848D01*
X05879Y00805D02*
Y00848D01*
X05773Y00805D02*
Y00848D01*
X06037Y00805D02*
Y00848D01*
X05931Y00805D02*
Y00848D01*
X06194Y00805D02*
Y00848D01*
X06088Y00805D02*
Y00848D01*
X06352Y00805D02*
Y00848D01*
X06246Y00805D02*
Y00848D01*
X06509Y00805D02*
Y00848D01*
X06403Y00805D02*
Y00848D01*
X06294Y00596D02*
X06304D01*
X06294Y00544D02*
X06304D01*
X06451Y00596D02*
X06461D01*
X06451Y00544D02*
X06461D01*
X06356Y00486D02*
X06399D01*
X06356Y00379D02*
X06399D01*
X03462Y04471D02*
Y04481D01*
X03514Y04471D02*
Y04481D01*
X03956Y05095D02*
X03966D01*
X03956Y05147D02*
X03966D01*
X03954Y05194D02*
X03964D01*
X03954Y05246D02*
X03964D01*
X03794Y05095D02*
X03804D01*
X03794Y05147D02*
X03804D01*
X03753Y02888D02*
Y02898D01*
X03805Y02888D02*
Y02898D01*
X05611Y02007D02*
Y02165D01*
X05491Y02007D02*
Y02165D01*
X05708Y01433D02*
Y01482D01*
Y01433D02*
X06101D01*
Y01482*
X06102Y02553D02*
Y02602D01*
X05709D02*
X06102D01*
X05709Y02553D02*
Y02602D01*
X06594Y01433D02*
Y01482D01*
Y01433D02*
X06987D01*
Y01482*
X06595Y02553D02*
Y02602D01*
X06988*
Y02553D02*
Y02602D01*
G54D15*
X06134Y03137D02*
Y03194D01*
X06187Y03137D02*
Y03194D01*
X06017Y03044D02*
X06074D01*
X06017Y03097D02*
X06074D01*
X05716Y01128D02*
X05773D01*
X05716Y01075D02*
X05773D01*
X05716Y0105D02*
X05773D01*
X05716Y00997D02*
X05773D01*
G54D55*
X03973Y02362D02*
X03968Y02371D01*
X03958*
X03953Y02362*
X03958Y02354*
X03968*
X03973Y02362*
G54D116*
X02659Y02223D02*
X02655Y02232D01*
X02645Y02235*
X02637Y02228*
Y02218*
X02645Y02212*
X02655Y02214*
X02659Y02223*
X02001Y0197D02*
X01997Y01979D01*
X01987Y01981*
X01979Y01975*
Y01965*
X01987Y01958*
X01997Y01961*
X02001Y0197*
X05543Y01629D02*
X05538Y01639D01*
X05528Y01641*
X0552Y01635*
Y01624*
X05528Y01618*
X05538Y0162*
X05543Y01629*
G54D117*
X02078Y02227D02*
X02072Y02233D01*
X02066Y02227*
X02072Y02221*
X02078Y02227*
G54D118*
X04281Y01919D02*
Y01938D01*
X04025D02*
X04281D01*
X04025Y01919D02*
Y01938D01*
X04153D02*
Y01968D01*
X0432D02*
Y02007D01*
X03986Y01968D02*
X0432D01*
X03986D02*
Y02007D01*
X03996Y03267D02*
Y03277D01*
X04173D02*
Y03287D01*
X03818Y03277D02*
X04173D01*
X03818D02*
Y03287D01*
X03996Y03258D02*
Y03267D01*
X03927Y03258D02*
X04064D01*
X04065Y03119D02*
X04094D01*
X04064Y0312D02*
X04065Y0312D01*
X04064Y0312D02*
Y03267D01*
X04094*
X03898Y0312D02*
X03927D01*
X03927Y0312*
Y03267*
X03897D02*
X03927D01*
G54D119*
X01925Y02577D02*
X01984D01*
X01866D02*
X01925D01*
X01984Y02558D02*
Y02577D01*
X01866Y02558D02*
Y02577D01*
Y02341D02*
Y02479D01*
X01984Y02341D02*
Y02479D01*
Y02243D02*
Y02262D01*
X01866Y02243D02*
X01984D01*
X01866D02*
Y02262D01*
G54D120*
X06139Y03141D03*
G54D121*
X06183Y03141D03*
G54D122*
X06071Y03048D03*
Y03093D03*
X05719Y01124D03*
Y0108D03*
Y01045D03*
Y01001D03*
M02*