%FSTAX23Y23*%
%MOIN*%
%SFA1B1*%

%IPPOS*%
%ADD10C,0.015000*%
%ADD11C,0.009840*%
%ADD12C,0.015750*%
%ADD13C,0.010000*%
%ADD14C,0.007870*%
%ADD15C,0.005910*%
%ADD16R,0.691930X0.078740*%
%LNpcb1-1*%
%LPD*%
G54D10*
X03747Y04265D02*
X03742Y04272D01*
X03734Y0427*
Y04261*
X03742Y04258*
X03747Y04265*
G54D11*
X04296Y00787D02*
X04289Y00791D01*
Y00783*
X04296Y00787*
X04338Y0065D02*
X0433Y00654D01*
Y00646*
X04338Y0065*
X03021Y05D02*
X0312D01*
X0307Y0495D02*
Y05049D01*
X02893Y04592D02*
X03405D01*
X00372D02*
X00885D01*
X00372D02*
Y04832D01*
X03405Y04592D02*
Y04832D01*
X02893Y05407D02*
X03405D01*
X00372D02*
X00885D01*
X00372Y05167D02*
Y05407D01*
X03405Y05167D02*
Y05407D01*
X00659Y04094D02*
X00757D01*
X00708Y04045D02*
Y04143D01*
X00374Y04501D02*
X00885D01*
X02893D02*
X03407D01*
Y04261D02*
Y04501D01*
X00374Y04261D02*
Y04501D01*
Y03687D02*
X00885D01*
X02893D02*
X03407D01*
Y03927*
X00374Y03687D02*
Y03927D01*
X00659Y00472D02*
X00757D01*
X00708Y00423D02*
Y00521D01*
X00374Y00879D02*
X00885D01*
X02893D02*
X03407D01*
Y00639D02*
Y00879D01*
X00374Y00639D02*
Y00879D01*
Y00064D02*
X00885D01*
X02893D02*
X03407D01*
Y00305*
X00374Y00064D02*
Y00305D01*
X05131Y05039D02*
X05229D01*
X0518Y0499D02*
Y05088D01*
X04845Y05446D02*
X05357D01*
X07365D02*
X07879D01*
Y05206D02*
Y05446D01*
X04845Y05206D02*
Y05446D01*
Y04631D02*
X05357D01*
X07365D02*
X07879D01*
Y04872*
X04845Y04631D02*
Y04872D01*
X04133Y03783D02*
Y03881D01*
X04084Y03832D02*
X04183D01*
X04541Y03655D02*
Y04167D01*
Y01133D02*
Y01647D01*
X04301Y01133D02*
X04541D01*
X04301Y04167D02*
X04541D01*
X03726Y03655D02*
Y04167D01*
Y01133D02*
Y01647D01*
Y01133D02*
X03966D01*
X03726Y04167D02*
X03966D01*
X07877Y0249D02*
Y0273D01*
X04844Y0249D02*
Y0273D01*
X05358*
X07366D02*
X07877D01*
Y01915D02*
Y02155D01*
X04844Y01915D02*
Y02155D01*
Y01915D02*
X05358D01*
X07366D02*
X07877D01*
X07543Y02273D02*
Y02372D01*
X07494Y02322D02*
X07592D01*
X03405Y01565D02*
Y01805D01*
X00372Y01565D02*
Y01805D01*
X00885*
X02893D02*
X03405D01*
Y0099D02*
Y0123D01*
X00372Y0099D02*
Y0123D01*
Y0099D02*
X00885D01*
X02893D02*
X03405D01*
X0307Y01348D02*
Y01447D01*
X03021Y01397D02*
X0312D01*
X00659Y02283D02*
X00757D01*
X00708Y02234D02*
Y02332D01*
X00374Y0269D02*
X00885D01*
X02893D02*
X03407D01*
Y0245D02*
Y0269D01*
X00374Y0245D02*
Y0269D01*
Y01875D02*
X00885D01*
X02893D02*
X03407D01*
Y02116*
X00374Y01875D02*
Y02116D01*
X04845Y01009D02*
Y0125D01*
X07879Y01009D02*
Y0125D01*
X07365Y01009D02*
X07879D01*
X04845D02*
X05357D01*
X04845Y01584D02*
Y01824D01*
X07879Y01584D02*
Y01824D01*
X07365D02*
X07879D01*
X04845D02*
X05357D01*
X0518Y01368D02*
Y01466D01*
X05131Y01417D02*
X05229D01*
X05127Y03228D02*
X05226D01*
X05177Y03179D02*
Y03277D01*
X04842Y03635D02*
X05354D01*
X07362D02*
X07875D01*
Y03395D02*
Y03635D01*
X04842Y03395D02*
Y03635D01*
Y0282D02*
X05354D01*
X07362D02*
X07875D01*
Y03061*
X04842Y0282D02*
Y03061D01*
X07493Y04133D02*
X07591D01*
X07542Y04084D02*
Y04183D01*
X07365Y03726D02*
X07877D01*
X04843D02*
X05357D01*
X04843D02*
Y03966D01*
X07877Y03726D02*
Y03966D01*
X07365Y04541D02*
X07877D01*
X04843D02*
X05357D01*
X04843Y04301D02*
Y04541D01*
X07877Y04301D02*
Y04541D01*
X03021Y03188D02*
X0312D01*
X0307Y03139D02*
Y03238D01*
X02893Y02781D02*
X03405D01*
X00372D02*
X00885D01*
X00372D02*
Y03021D01*
X03405Y02781D02*
Y03021D01*
X02893Y03596D02*
X03405D01*
X00372D02*
X00885D01*
X00372Y03356D02*
Y03596D01*
X03405Y03356D02*
Y03596D01*
G54D12*
X0452Y05413D02*
X04514Y05419D01*
X04509Y05413*
X04514Y05407*
X0452Y05413*
X07881Y00097D02*
X07876Y00105D01*
X07867Y00102*
Y00093*
X07876Y0009*
X07881Y00097*
G54D13*
X04301Y04734D02*
X0434Y04694D01*
X04488Y0499D02*
X04517Y05019D01*
X04301Y04734D02*
Y0499D01*
X04488*
X04114D02*
X04301D01*
X04084Y05019D02*
X04114Y0499D01*
X04342Y04694D02*
X04631D01*
Y04339D02*
Y04694D01*
X04344Y04339D02*
X04631D01*
X04342Y04574D02*
Y04694D01*
X04344Y04339D02*
Y04469D01*
X04488Y04359D02*
Y04676D01*
X06651Y00787D02*
Y00912D01*
X06716*
X0685D02*
X06916D01*
Y00787D02*
Y00912D01*
Y00132D02*
Y00257D01*
X0685Y00132D02*
X06916D01*
X06651D02*
X06716D01*
X06651D02*
Y00257D01*
X0375Y04872D02*
Y04931D01*
X03779*
X03789Y04921*
Y04901*
X03779Y04891*
X0375*
X03769D02*
X03789Y04872D01*
X03848Y04931D02*
X03809D01*
Y04872*
X03848*
X03809Y04901D02*
X03828D01*
X03907Y04921D02*
X03897Y04931D01*
X03877*
X03868Y04921*
Y04911*
X03877Y04901*
X03897*
X03907Y04891*
Y04881*
X03897Y04872*
X03877*
X03868Y04881*
X03966Y04931D02*
X03927D01*
Y04872*
X03966*
X03927Y04901D02*
X03946D01*
X03986Y04931D02*
X04025D01*
X04005*
Y04872*
X07985Y00753D02*
Y00792D01*
X08005*
X08011Y00786*
Y00772*
X08005Y00766*
X07985*
X08024Y00792D02*
Y00753D01*
X08051*
X08064Y00792D02*
Y00759D01*
X0807Y00753*
X08083*
X0809Y00759*
Y00792*
X08129Y00786D02*
X08123Y00792D01*
X0811*
X08103Y00786*
Y00779*
X0811Y00772*
X08123*
X08129Y00766*
Y00759*
X08123Y00753*
X0811*
X08103Y00759*
X07513Y00552D02*
X07408D01*
X0746Y005D02*
Y00605D01*
X07995Y00583D02*
X07988Y0059D01*
X07975*
X07969Y00583*
Y00557*
X07975Y00551*
X07988*
X07995Y00557*
X08034Y0059D02*
X08008D01*
Y00551*
X08034*
X08008Y0057D02*
X08021D01*
X08047Y0059D02*
Y00551D01*
X08074*
X08087Y0059D02*
Y00551D01*
X08113*
X08146D02*
Y0059D01*
X08126Y0057*
X08152*
X07631Y00218D02*
X07623Y0021D01*
Y00193*
X07631Y00185*
X07664*
X07672Y00193*
Y0021*
X07664Y00218*
X07623Y00234D02*
X07672D01*
X07647*
Y00267*
X07623*
X07672*
Y00283D02*
X07639D01*
X07623Y003*
X07639Y00316*
X07672*
X07647*
Y00283*
X07672Y00333D02*
X07623D01*
Y00357*
X07631Y00365*
X07647*
X07655Y00357*
Y00333*
Y00349D02*
X07672Y00365D01*
X07631Y00415D02*
X07623Y00406D01*
Y0039*
X07631Y00382*
X07664*
X07672Y0039*
Y00406*
X07664Y00415*
X07647*
Y00398*
X07623Y00464D02*
Y00431D01*
X07672*
Y00464*
X07647Y00431D02*
Y00447D01*
X07316Y00551D02*
X07211D01*
X03674Y04641D02*
X03687D01*
X03681*
Y04681*
X03674Y04674*
X03707D02*
X03713Y04681D01*
X03727*
X03733Y04674*
Y04648*
X03727Y04641*
X03713*
X03707Y04648*
Y04674*
X03746Y04641D02*
Y04681D01*
Y04655D02*
X03766Y04668D01*
X03746Y04655D02*
X03766Y04641D01*
X0354Y0461D02*
X03566D01*
X03553*
Y0457*
X03579Y0461D02*
Y0457D01*
Y0459*
X03586Y04596*
X03599*
X03605Y0459*
Y0457*
X03638D02*
X03625D01*
X03618Y04577*
Y0459*
X03625Y04596*
X03638*
X03645Y0459*
Y04583*
X03618*
X03658Y04596D02*
Y0457D01*
Y04583*
X03664Y0459*
X03671Y04596*
X03677*
X03697Y0457D02*
Y04596D01*
X03704*
X0371Y0459*
Y0457*
Y0459*
X03717Y04596*
X03723Y0459*
Y0457*
X03736D02*
X03749D01*
X03743*
Y04596*
X03736*
X03769Y0457D02*
X03789D01*
X03795Y04577*
X03789Y04583*
X03776*
X03769Y0459*
X03776Y04596*
X03795*
X03815Y04603D02*
Y04596D01*
X03809*
X03822*
X03815*
Y04577*
X03822Y0457*
X03848D02*
X03861D01*
X03868Y04577*
Y0459*
X03861Y04596*
X03848*
X03841Y0459*
Y04577*
X03848Y0457*
X03881Y04596D02*
Y0457D01*
Y04583*
X03887Y0459*
X03894Y04596*
X039*
X08001Y00278D02*
X07995Y00285D01*
X07982*
X07975Y00278*
Y00252*
X07982Y00246*
X07995*
X08001Y00252*
X08041Y00285D02*
X08015D01*
Y00246*
X08041*
X08015Y00265D02*
X08028D01*
X08054Y00285D02*
Y00246D01*
X0808*
X08093Y00285D02*
Y00246D01*
X0812*
X08133D02*
X08146D01*
X08139*
Y00285*
X08133Y00278*
X07972Y00147D02*
Y00187D01*
X07985Y00173*
X07998Y00187*
Y00147*
X08011Y00187D02*
X08024D01*
X08018*
Y00147*
X08011*
X08024*
X08044D02*
Y00187D01*
X0807Y00147*
Y00187*
X08083D02*
Y00154D01*
X0809Y00147*
X08103*
X0811Y00154*
Y00187*
X08149Y0018D02*
X08143Y00187D01*
X08129*
X08123Y0018*
Y00173*
X08129Y00167*
X08143*
X08149Y0016*
Y00154*
X08143Y00147*
X08129*
X08123Y00154*
X07995Y00682D02*
X07988Y00688D01*
X07975*
X07969Y00682*
Y00656*
X07975Y00649*
X07988*
X07995Y00656*
X08034Y00688D02*
X08008D01*
Y00649*
X08034*
X08008Y00669D02*
X08021D01*
X08047Y00688D02*
Y00649D01*
X08074*
X08087Y00688D02*
Y00649D01*
X08113*
X08152Y00688D02*
X08126D01*
Y00669*
X08139Y00675*
X08146*
X08152Y00669*
Y00656*
X08146Y00649*
X08133*
X08126Y00656*
X07995Y00387D02*
X07988Y00393D01*
X07975*
X07969Y00387*
Y0036*
X07975Y00354*
X07988*
X07995Y0036*
X08034Y00393D02*
X08008D01*
Y00354*
X08034*
X08008Y00374D02*
X08021D01*
X08047Y00393D02*
Y00354D01*
X08074*
X08087Y00393D02*
Y00354D01*
X08113*
X08152D02*
X08126D01*
X08152Y0038*
Y00387*
X08146Y00393*
X08133*
X08126Y00387*
X07995Y00485D02*
X07988Y00492D01*
X07975*
X07969Y00485*
Y00459*
X07975Y00452*
X07988*
X07995Y00459*
X08034Y00492D02*
X08008D01*
Y00452*
X08034*
X08008Y00472D02*
X08021D01*
X08047Y00492D02*
Y00452D01*
X08074*
X08087Y00492D02*
Y00452D01*
X08113*
X08126Y00485D02*
X08133Y00492D01*
X08146*
X08152Y00485*
Y00479*
X08146Y00472*
X08139*
X08146*
X08152Y00465*
Y00459*
X08146Y00452*
X08133*
X08126Y00459*
X04507Y0436D02*
Y04399D01*
X04534Y0436*
Y04399*
X04573Y04393D02*
X04566Y04399D01*
X04553*
X04547Y04393*
Y04366*
X04553Y0436*
X04566*
X04573Y04366*
X04507Y04468D02*
Y04442D01*
X0452Y04429*
X04534Y04442*
Y04468*
X04573Y04461D02*
X04566Y04468D01*
X04553*
X04547Y04461*
Y04435*
X04553Y04429*
X04566*
X04573Y04435*
X04612Y04461D02*
X04606Y04468D01*
X04593*
X04586Y04461*
Y04435*
X04593Y04429*
X04606*
X04612Y04435*
X04507Y04498D02*
Y04537D01*
X04527*
X04534Y0453*
Y04517*
X04527Y04511*
X04507*
X0452D02*
X04534Y04498D01*
X04573Y0453D02*
X04566Y04537D01*
X04553*
X04547Y0453*
Y04524*
X04553Y04517*
X04566*
X04573Y04511*
Y04504*
X04566Y04498*
X04553*
X04547Y04504*
X04586Y04537D02*
X04612D01*
X04599*
Y04498*
X04507Y04566D02*
Y04606D01*
X04534Y04566*
Y04606*
X04573Y04599D02*
X04566Y04606D01*
X04553*
X04547Y04599*
Y04573*
X04553Y04566*
X04566*
X04573Y04573*
X04534Y04668D02*
X04527Y04675D01*
X04514*
X04507Y04668*
Y04642*
X04514Y04635*
X04527*
X04534Y04642*
Y04655*
X0452*
X04547Y04635D02*
Y04675D01*
X04573Y04635*
Y04675*
X04586D02*
Y04635D01*
X04606*
X04612Y04642*
Y04668*
X04606Y04675*
X04586*
X0436D02*
X04386D01*
X04373*
Y04635*
X04399Y04675D02*
Y04635D01*
X04419*
X04425Y04642*
Y04668*
X04419Y04675*
X04399*
X04438D02*
X04452D01*
X04445*
Y04635*
X04438*
X04452*
X0437Y04566D02*
Y04606D01*
X04396Y04566*
Y04606*
X04435Y04599D02*
X04429Y04606D01*
X04416*
X04409Y04599*
Y04573*
X04416Y04566*
X04429*
X04435Y04573*
X0436Y04537D02*
X04386D01*
X04373*
Y04498*
X04399D02*
Y04537D01*
X04412Y04524*
X04425Y04537*
Y04498*
X04465Y0453D02*
X04458Y04537D01*
X04445*
X04438Y0453*
Y04524*
X04445Y04517*
X04458*
X04465Y04511*
Y04504*
X04458Y04498*
X04445*
X04438Y04504*
X0436Y04468D02*
X04386D01*
X04373*
Y04429*
X04399Y04468D02*
Y04429D01*
X04419*
X04425Y04435*
Y04461*
X04419Y04468*
X04399*
X04458D02*
X04445D01*
X04438Y04461*
Y04435*
X04445Y04429*
X04458*
X04465Y04435*
Y04461*
X04458Y04468*
X04396Y04393D02*
X04389Y04399D01*
X04376*
X0437Y04393*
Y04366*
X04376Y0436*
X04389*
X04396Y04366*
X04409Y04399D02*
Y0436D01*
X04435*
X04448Y04399D02*
Y0436D01*
Y04373*
X04475Y04399*
X04455Y04379*
X04475Y0436*
X00265Y04605D02*
X00325D01*
Y04635*
X00315Y04645*
X00305*
X00295Y04635*
Y04605*
Y04635*
X00285Y04645*
X00275*
X00265Y04635*
Y04605*
Y04665D02*
Y04705D01*
Y04685*
X00325*
X00265Y04725D02*
Y04765D01*
X00275*
X00315Y04725*
X00325*
X00265Y0429D02*
X00325D01*
Y0432*
X00315Y0433*
X00305*
X00295Y0432*
Y0429*
Y0432*
X00285Y0433*
X00275*
X00265Y0432*
Y0429*
Y0435D02*
Y0439D01*
Y0437*
X00325*
X00275Y0441D02*
X00265Y0442D01*
Y0444*
X00275Y0445*
X00285*
X00295Y0444*
X00305Y0445*
X00315*
X00325Y0444*
Y0442*
X00315Y0441*
X00305*
X00295Y0442*
X00285Y0441*
X00275*
X00295Y0442D02*
Y0444D01*
X03857Y04842D02*
X03847Y04852D01*
X03827*
X03817Y04842*
Y04832*
X03827Y04822*
X03847*
X03857Y04812*
Y04802*
X03847Y04792*
X03827*
X03817Y04802*
X03877Y04852D02*
Y04792D01*
X03897Y04812*
X03917Y04792*
Y04852*
X03937Y04792D02*
X03957D01*
X03947*
Y04852*
X03937Y04842*
X00226Y03364D02*
X00166D01*
Y03394*
X00176Y03404*
X00196*
X00206Y03394*
Y03364*
Y03384D02*
X00226Y03404D01*
Y03454D02*
X00166D01*
X00196Y03424*
Y03464*
X00176Y03484D02*
X00166Y03494D01*
Y03514*
X00176Y03524*
X00216*
X00226Y03514*
Y03494*
X00216Y03484*
X00176*
X07907Y05372D02*
Y05431D01*
X07936*
X07946Y05421*
Y05401*
X07936Y05391*
X07907*
X07926D02*
X07946Y05372D01*
X07966Y05421D02*
X07976Y05431D01*
X07996*
X08006Y05421*
Y05411*
X07996Y05401*
X07986*
X07996*
X08006Y05391*
Y05382*
X07996Y05372*
X07976*
X07966Y05382*
X08026Y05421D02*
X08036Y05431D01*
X08056*
X08066Y05421*
Y05411*
X08056Y05401*
X08046*
X08056*
X08066Y05391*
Y05382*
X08056Y05372*
X08036*
X08026Y05382*
X03801Y00578D02*
Y00638D01*
X03831*
X03841Y00628*
Y00608*
X03831Y00598*
X03801*
X03821D02*
X03841Y00578D01*
X03901D02*
X03861D01*
X03901Y00618*
Y00628*
X03891Y00638*
X03871*
X03861Y00628*
X03921D02*
X03931Y00638D01*
X03951*
X03961Y00628*
Y00618*
X03951Y00608*
X03941*
X03951*
X03961Y00598*
Y00588*
X03951Y00578*
X03931*
X03921Y00588*
X03563Y01062D02*
X03503D01*
Y01092*
X03513Y01102*
X03533*
X03543Y01092*
Y01062*
Y01082D02*
X03563Y01102D01*
X03503Y01122D02*
Y01162D01*
X03513*
X03553Y01122*
X03563*
X00187Y01859D02*
X00127D01*
Y01889*
X00137Y01899*
X00157*
X00167Y01889*
Y01859*
Y01879D02*
X00187Y01899D01*
X00127Y01959D02*
X00137Y01939D01*
X00157Y01919*
X00177*
X00187Y01929*
Y01949*
X00177Y01959*
X00167*
X00157Y01949*
Y01919*
X03622Y02725D02*
X03562D01*
Y02755*
X03572Y02765*
X03592*
X03602Y02755*
Y02725*
Y02745D02*
X03622Y02765D01*
X03562Y02825D02*
Y02785D01*
X03592*
X03582Y02805*
Y02815*
X03592Y02825*
X03612*
X03622Y02815*
Y02795*
X03612Y02785*
X00187Y02016D02*
X00127D01*
Y02046*
X00137Y02056*
X00157*
X00167Y02046*
Y02016*
Y02036D02*
X00187Y02056D01*
Y02106D02*
X00127D01*
X00157Y02076*
Y02116*
X03517Y02865D02*
X03457D01*
Y02895*
X03467Y02905*
X03487*
X03497Y02895*
Y02865*
Y02885D02*
X03517Y02905D01*
X03467Y02925D02*
X03457Y02935D01*
Y02955*
X03467Y02965*
X03477*
X03487Y02955*
Y02945*
Y02955*
X03497Y02965*
X03507*
X03517Y02955*
Y02935*
X03507Y02925*
X00226Y03749D02*
X00166D01*
Y03779*
X00176Y03789*
X00196*
X00206Y03779*
Y03749*
Y03769D02*
X00226Y03789D01*
Y03849D02*
Y03809D01*
X00186Y03849*
X00176*
X00166Y03839*
Y03819*
X00176Y03809*
X04152Y0491D02*
Y0497D01*
X04182*
X04192Y0496*
Y0494*
X04182Y0493*
X04152*
X04212Y0496D02*
X04222Y0497D01*
X04242*
X04252Y0496*
Y0495*
X04242Y0494*
X04232*
X04242*
X04252Y0493*
Y0492*
X04242Y0491*
X04222*
X04212Y0492*
X07831Y00857D02*
Y00916D01*
X0786*
X0787Y00906*
Y00886*
X0786Y00876*
X07831*
X0793Y00857D02*
X0789D01*
X0793Y00896*
Y00906*
X0792Y00916*
X079*
X0789Y00906*
X06645Y00958D02*
Y01018D01*
X06675*
X06685Y01008*
Y00988*
X06675Y00978*
X06645*
X06705Y00958D02*
X06725D01*
X06715*
Y01018*
X06705Y01008*
X04755Y05403D02*
Y05383D01*
Y05393*
X04805*
X04815Y05383*
Y05373*
X04805Y05363*
X04815Y05453D02*
X04755D01*
X04785Y05423*
Y05463*
X03552Y04438D02*
Y04418D01*
Y04428*
X03602*
X03612Y04418*
Y04408*
X03602Y04398*
X03562Y04458D02*
X03552Y04468D01*
Y04488*
X03562Y04498*
X03572*
X03582Y04488*
Y04478*
Y04488*
X03592Y04498*
X03602*
X03612Y04488*
Y04468*
X03602Y04458*
X03798Y00737D02*
X03858D01*
Y00767*
X03848Y00777*
X03808*
X03798Y00767*
Y00737*
Y00797D02*
Y00837D01*
X03808*
X03848Y00797*
X03858*
X04635Y00944D02*
X04695D01*
Y00974*
X04685Y00984*
X04645*
X04635Y00974*
Y00944*
Y01044D02*
X04645Y01024D01*
X04665Y01004*
X04685*
X04695Y01014*
Y01034*
X04685Y01044*
X04675*
X04665Y01034*
Y01004*
X00187Y01573D02*
X00127D01*
Y01603*
X00137Y01613*
X00157*
X00167Y01603*
Y01573*
Y01593D02*
X00187Y01613D01*
Y01663D02*
X00127D01*
X00157Y01633*
Y01673*
X00187Y01733D02*
Y01693D01*
X00147Y01733*
X00137*
X00127Y01723*
Y01703*
X00137Y01693*
X03483Y02553D02*
Y02613D01*
X03513*
X03523Y02603*
Y02583*
X03513Y02573*
X03483*
X03503D02*
X03523Y02553D01*
X03573D02*
Y02613D01*
X03543Y02583*
X03583*
X03603Y02553D02*
X03623D01*
X03613*
Y02613*
X03603Y02603*
X04667Y02853D02*
X04607D01*
Y02883*
X04617Y02893*
X04637*
X04647Y02883*
Y02853*
Y02873D02*
X04667Y02893D01*
X04617Y02913D02*
X04607Y02923D01*
Y02943*
X04617Y02953*
X04627*
X04637Y02943*
Y02933*
Y02943*
X04647Y02953*
X04657*
X04667Y02943*
Y02923*
X04657Y02913*
Y02973D02*
X04667Y02983D01*
Y03003*
X04657Y03013*
X04617*
X04607Y03003*
Y02983*
X04617Y02973*
X04627*
X04637Y02983*
Y03013*
X07046Y00383D02*
Y00363D01*
Y00373*
X07096*
X07106Y00363*
Y00353*
X07096Y00343*
X07106Y00443D02*
Y00403D01*
X07066Y00443*
X07056*
X07046Y00433*
Y00413*
X07056Y00403*
X04144Y00602D02*
X04124D01*
X04134*
Y00553*
X04124Y00543*
X04115*
X04105Y00553*
X04164Y00543D02*
X04184D01*
X04174*
Y00602*
X04164Y00592*
X00265Y00662D02*
X00325D01*
Y00692*
X00315Y00702*
X00305*
X00295Y00692*
Y00662*
Y00692*
X00285Y00702*
X00275*
X00265Y00692*
Y00662*
Y00722D02*
Y00762D01*
Y00742*
X00325*
Y00782D02*
Y00802D01*
Y00792*
X00265*
X00275Y00782*
X00325Y00872D02*
Y00832D01*
X00285Y00872*
X00275*
X00265Y00862*
Y00842*
X00275Y00832*
X00265Y01027D02*
X00325D01*
Y01057*
X00315Y01067*
X00305*
X00295Y01057*
Y01027*
Y01057*
X00285Y01067*
X00275*
X00265Y01057*
Y01027*
Y01087D02*
Y01127D01*
Y01107*
X00325*
Y01147D02*
Y01167D01*
Y01157*
X00265*
X00275Y01147*
X00325Y01197D02*
Y01217D01*
Y01207*
X00265*
X00275Y01197*
X00265Y02473D02*
X00325D01*
Y02503*
X00315Y02513*
X00305*
X00295Y02503*
Y02473*
Y02503*
X00285Y02513*
X00275*
X00265Y02503*
Y02473*
Y02533D02*
Y02573D01*
Y02553*
X00325*
Y02593D02*
Y02613D01*
Y02603*
X00265*
X00275Y02593*
Y02643D02*
X00265Y02653D01*
Y02673*
X00275Y02683*
X00315*
X00325Y02673*
Y02653*
X00315Y02643*
X00275*
X00265Y02813D02*
X00325D01*
Y02843*
X00315Y02853*
X00305*
X00295Y02843*
Y02813*
Y02843*
X00285Y02853*
X00275*
X00265Y02843*
Y02813*
Y02873D02*
Y02913D01*
Y02893*
X00325*
X00315Y02933D02*
X00325Y02943D01*
Y02963*
X00315Y02973*
X00275*
X00265Y02963*
Y02943*
X00275Y02933*
X00285*
X00295Y02943*
Y02973*
X03729Y04242D02*
Y04182D01*
X03759*
X03769Y04192*
Y04202*
X03759Y04212*
X03729*
X03759*
X03769Y04222*
Y04232*
X03759Y04242*
X03729*
X03789D02*
X03829D01*
X03809*
Y04182*
X03889Y04242D02*
X03869Y04232D01*
X03849Y04212*
Y04192*
X03859Y04182*
X03879*
X03889Y04192*
Y04202*
X03879Y04212*
X03849*
X04743Y01622D02*
X04803D01*
Y01652*
X04793Y01662*
X04783*
X04773Y01652*
Y01622*
Y01652*
X04763Y01662*
X04753*
X04743Y01652*
Y01622*
Y01682D02*
Y01722D01*
Y01702*
X04803*
X04743Y01782D02*
Y01742D01*
X04773*
X04763Y01762*
Y01772*
X04773Y01782*
X04793*
X04803Y01772*
Y01752*
X04793Y01742*
X04733Y01947D02*
X04793D01*
Y01977*
X04783Y01987*
X04773*
X04763Y01977*
Y01947*
Y01977*
X04753Y01987*
X04743*
X04733Y01977*
Y01947*
Y02007D02*
Y02047D01*
Y02027*
X04793*
Y02097D02*
X04733D01*
X04763Y02067*
Y02107*
X04743Y03433D02*
X04803D01*
Y03463*
X04793Y03473*
X04783*
X04773Y03463*
Y03433*
Y03463*
X04763Y03473*
X04753*
X04743Y03463*
Y03433*
Y03493D02*
Y03533D01*
Y03513*
X04803*
X04753Y03553D02*
X04743Y03563D01*
Y03583*
X04753Y03593*
X04763*
X04773Y03583*
Y03573*
Y03583*
X04783Y03593*
X04793*
X04803Y03583*
Y03563*
X04793Y03553*
X04735Y04342D02*
X04795D01*
Y04372*
X04785Y04382*
X04775*
X04765Y04372*
Y04342*
Y04372*
X04755Y04382*
X04745*
X04735Y04372*
Y04342*
Y04402D02*
Y04442D01*
Y04422*
X04795*
Y04502D02*
Y04462D01*
X04755Y04502*
X04745*
X04735Y04492*
Y04472*
X04745Y04462*
X07922Y04674D02*
X07982D01*
Y04704*
X07972Y04714*
X07962*
X07952Y04704*
Y04674*
Y04704*
X07942Y04714*
X07932*
X07922Y04704*
Y04674*
Y04734D02*
Y04774D01*
Y04754*
X07982*
Y04794D02*
Y04814D01*
Y04804*
X07922*
X07932Y04794*
G54D14*
X07124Y0D02*
Y00472D01*
Y0D02*
X07602D01*
Y00472*
X07124D02*
X07602D01*
X03629Y04525D02*
X0371D01*
X03809Y04438D02*
Y04525D01*
X03629Y04291D02*
X0371D01*
X03759D02*
X03809D01*
Y04379*
X03759Y04525D02*
X03809D01*
X03629Y04291D02*
Y04525D01*
X03828Y05321D02*
X03838D01*
X03828Y05269D02*
X03838D01*
X03671D02*
X03681D01*
X03671Y05321D02*
X03681D01*
X03513D02*
X03523D01*
X03513Y05269D02*
X03523D01*
X03986Y05321D02*
X03996D01*
X03986Y05269D02*
X03996D01*
X03589Y02882D02*
X03599D01*
X03589Y02934D02*
X03599D01*
X03526Y0277D02*
Y0278D01*
X03474Y0277D02*
Y0278D01*
X03548Y02629D02*
X03558D01*
X03548Y02681D02*
X03558D01*
X03648Y01097D02*
Y01107D01*
X03596Y01097D02*
Y01107D01*
X03939Y00878D02*
Y00902D01*
X04209Y00878D02*
Y00902D01*
X03939D02*
X04209D01*
Y00672D02*
Y00696D01*
X03939Y00672D02*
Y00696D01*
Y00672D02*
X04209D01*
X04353Y0074D02*
Y0077D01*
X04603Y0074D02*
Y0077D01*
X04353Y0074D02*
X04603D01*
X04698Y02928D02*
Y02938D01*
X0475Y02928D02*
Y02938D01*
X04536Y05463D02*
X04737D01*
Y05362D02*
Y05463D01*
X04536Y05362D02*
X04737D01*
X04536D02*
Y05463D01*
X00249Y03794D02*
Y03804D01*
X00301Y03794D02*
Y03804D01*
Y03432D02*
Y03442D01*
X00249Y03432D02*
Y03442D01*
X0026Y02021D02*
X0027D01*
X0026Y02073D02*
X0027D01*
X00256Y01648D02*
Y01658D01*
X00308Y01648D02*
Y01658D01*
X0026Y01974D02*
X0027D01*
X0026Y01922D02*
X0027D01*
X03736Y00411D02*
X03901D01*
X03736Y00533D02*
X03901D01*
X04099Y00508D02*
X043D01*
X05936D02*
X06136D01*
X04099Y0D02*
X06136D01*
Y00508*
X04099Y0D02*
Y00508D01*
X07824Y00822D02*
X07923D01*
X07824Y00123D02*
X07923D01*
Y00822*
X07824Y00123D02*
Y00822D01*
X07957Y05279D02*
X07967D01*
X07957Y05331D02*
X07967D01*
G54D15*
X03656Y05364D02*
X03695D01*
X03664Y05403D02*
X03687D01*
X03813Y05364D02*
X03853D01*
X03821Y05403D02*
X03845D01*
X03498Y05364D02*
X03538D01*
X03506Y05403D02*
X0353D01*
X03971Y05364D02*
X0401D01*
X03979Y05403D02*
X04002D01*
G54D16*
X03756Y05452D03*
M02*