G04*
G04 #@! TF.GenerationSoftware,Altium Limited,Altium Designer,21.0.8 (223)*
G04*
G04 Layer_Physical_Order=4*
G04 Layer_Color=16711680*
%FSLAX25Y25*%
%MOIN*%
G70*
G04*
G04 #@! TF.SameCoordinates,A19D7D31-63B9-40C3-BA03-758776B81FF0*
G04*
G04*
G04 #@! TF.FilePolarity,Positive*
G04*
G01*
G75*
%ADD10C,0.01500*%
%ADD13C,0.01000*%
%ADD21R,0.03740X0.05118*%
%ADD22R,0.05118X0.03740*%
%ADD55C,0.01968*%
%ADD56C,0.03937*%
%ADD58C,0.02953*%
%ADD59C,0.15748*%
%ADD60C,0.10630*%
%ADD61R,0.10433X0.10433*%
%ADD62C,0.10433*%
%ADD63R,0.05000X0.05000*%
%ADD64C,0.05000*%
%ADD65C,0.06000*%
%ADD66R,0.06000X0.06000*%
%ADD67C,0.05512*%
%ADD68R,0.07087X0.06299*%
%ADD69O,0.10000X0.13000*%
%ADD70C,0.06299*%
%ADD71R,0.06299X0.06299*%
%ADD72C,0.05906*%
%ADD73C,0.03150*%
%ADD74R,0.05906X0.01181*%
%ADD75O,0.05906X0.01181*%
%ADD76R,0.06102X0.04921*%
%ADD77R,0.05315X0.06102*%
%ADD78R,0.10236X0.04134*%
%ADD79O,0.05709X0.02362*%
%ADD80R,0.03543X0.03150*%
%ADD81R,0.04921X0.06299*%
%ADD82O,0.05709X0.01181*%
%ADD83O,0.01181X0.05709*%
%ADD84R,0.03543X0.02756*%
%ADD85R,0.07500X0.05000*%
%ADD86R,0.04134X0.10236*%
%ADD87R,0.03937X0.05315*%
%ADD88R,0.02362X0.02953*%
%ADD89R,0.02953X0.02362*%
%ADD90O,0.02362X0.05709*%
%ADD91R,0.12795X0.04134*%
%ADD92R,0.42992X0.35512*%
%ADD93R,0.07008X0.13795*%
%ADD94C,0.02756*%
%ADD95C,0.09843*%
G36*
X430099Y458661D02*
X430175Y458277D01*
X430393Y457952D01*
X430718Y457734D01*
X431102Y457658D01*
X493679Y457658D01*
X577737Y373600D01*
Y329272D01*
X577813Y328888D01*
X578031Y328563D01*
X532942Y283475D01*
X531328D01*
X531361Y283488D01*
X532812Y284458D01*
X534046Y285692D01*
X535015Y287143D01*
X535683Y288755D01*
X536024Y290466D01*
Y292211D01*
X535683Y293922D01*
X535015Y295534D01*
X534046Y296985D01*
X532812Y298219D01*
X531361Y299189D01*
X529749Y299856D01*
X528038Y300197D01*
X526293D01*
X524581Y299856D01*
X522969Y299189D01*
X521519Y298219D01*
X520285Y296985D01*
X519315Y295534D01*
X518647Y293922D01*
X518307Y292211D01*
Y290466D01*
X518647Y288755D01*
X519315Y287143D01*
X520285Y285692D01*
X521519Y284458D01*
X522969Y283488D01*
X523003Y283475D01*
X506116D01*
X506116Y283475D01*
X505439Y283340D01*
X504866Y282957D01*
X503205Y281296D01*
X477110D01*
X469754Y288652D01*
X469181Y289035D01*
X468504Y289170D01*
X461362D01*
X457859Y292674D01*
X457285Y293057D01*
X456608Y293192D01*
X446514D01*
X432871Y306835D01*
Y312992D01*
X432736Y313669D01*
X432583Y313899D01*
X432353Y314243D01*
X432353Y314243D01*
X430384Y316211D01*
X429811Y316594D01*
X429134Y316729D01*
X425011D01*
X424334Y316594D01*
X423761Y316211D01*
X422056Y314506D01*
X416048Y320514D01*
X415397Y320949D01*
X414961Y321036D01*
Y325787D01*
X407874D01*
Y324701D01*
X401457D01*
X401178Y324981D01*
X400594Y325318D01*
X399943Y325492D01*
X399269D01*
X398619Y325318D01*
X398035Y324981D01*
X397756Y324701D01*
X391339D01*
Y325787D01*
X385668D01*
Y340397D01*
X392758Y347486D01*
X393193Y348138D01*
X393346Y348906D01*
Y382284D01*
X393218Y382924D01*
X393193Y383052D01*
X392758Y383703D01*
X381928Y394532D01*
Y412894D01*
X381776Y413662D01*
X381341Y414313D01*
X352362Y443291D01*
Y446850D01*
X348425D01*
Y447021D01*
Y448353D01*
X348819Y448301D01*
X349590Y448403D01*
X349644Y448425D01*
X352362D01*
Y454134D01*
X351797D01*
Y458661D01*
X366155D01*
X382345D01*
Y402132D01*
X382345Y402132D01*
X382441Y401649D01*
X382460Y401553D01*
X382788Y401062D01*
X389191Y394659D01*
X389173Y394595D01*
Y393921D01*
X389348Y393270D01*
X389685Y392687D01*
X390161Y392210D01*
X390744Y391873D01*
X391395Y391699D01*
X392069D01*
X392720Y391873D01*
X393304Y392210D01*
X393780Y392687D01*
X394117Y393270D01*
X394291Y393921D01*
Y394595D01*
X394117Y395246D01*
X393780Y395829D01*
X393304Y396305D01*
X392720Y396642D01*
X392069Y396817D01*
X391395D01*
X391331Y396799D01*
X385372Y402759D01*
Y458661D01*
X396197D01*
X395938Y458213D01*
X395669Y457211D01*
Y456175D01*
X395938Y455173D01*
X396456Y454276D01*
X397189Y453543D01*
X398087Y453024D01*
X399088Y452756D01*
X400125D01*
X401126Y453024D01*
X402024Y453543D01*
X402757Y454276D01*
X403275Y455173D01*
X403543Y456175D01*
Y457211D01*
X403275Y458213D01*
X403016Y458661D01*
X403338D01*
X404071D01*
X403812Y458213D01*
X403543Y457211D01*
Y456175D01*
X403812Y455173D01*
X404330Y454276D01*
X405063Y453543D01*
X405961Y453024D01*
X406962Y452756D01*
X407999D01*
X409000Y453024D01*
X409898Y453543D01*
X410631Y454276D01*
X411149Y455173D01*
X411417Y456175D01*
Y457211D01*
X411149Y458213D01*
X410890Y458661D01*
X411945D01*
X411686Y458213D01*
X411417Y457211D01*
Y456175D01*
X411686Y455173D01*
X412204Y454276D01*
X412937Y453543D01*
X413835Y453024D01*
X414836Y452756D01*
X415873D01*
X416874Y453024D01*
X417772Y453543D01*
X418505Y454276D01*
X419023Y455173D01*
X419291Y456175D01*
Y457211D01*
X419023Y458213D01*
X418764Y458661D01*
X418903D01*
X419819D01*
X419560Y458213D01*
X419291Y457211D01*
Y456175D01*
X419560Y455173D01*
X420078Y454276D01*
X420811Y453543D01*
X421709Y453024D01*
X422710Y452756D01*
X423747D01*
X424748Y453024D01*
X425646Y453543D01*
X426379Y454276D01*
X426897Y455173D01*
X427165Y456175D01*
Y457211D01*
X426897Y458213D01*
X426638Y458661D01*
X429470D01*
X430099D01*
D01*
D02*
G37*
G36*
X345841Y454134D02*
X345276D01*
Y453048D01*
X338133D01*
X338133Y453048D01*
X337456Y452913D01*
X336883Y452530D01*
X315098Y430746D01*
X314715Y430172D01*
X314580Y429495D01*
Y428832D01*
X296562Y410814D01*
X296167D01*
X295516Y410639D01*
X294933Y410303D01*
X294456Y409826D01*
X294119Y409243D01*
X293945Y408592D01*
Y407918D01*
X294119Y407267D01*
X294456Y406684D01*
X294933Y406207D01*
X295516Y405870D01*
X296167Y405696D01*
X296841D01*
X297492Y405870D01*
X298075Y406207D01*
X298552Y406684D01*
X298888Y407267D01*
X299063Y407918D01*
Y408313D01*
X317599Y426849D01*
X317982Y427423D01*
X318117Y428100D01*
Y428763D01*
X338865Y449511D01*
X345276D01*
Y448425D01*
X347434D01*
X347435Y448418D01*
X347422Y448353D01*
Y447021D01*
Y446850D01*
X345276D01*
Y441142D01*
X348835D01*
X377914Y412062D01*
Y393701D01*
X378067Y392933D01*
X378502Y392282D01*
X389332Y381452D01*
Y378626D01*
X388770Y379466D01*
X387537Y380700D01*
X386086Y381669D01*
X384474Y382337D01*
X382762Y382677D01*
X381017D01*
X379306Y382337D01*
X377694Y381669D01*
X376243Y380700D01*
X375009Y379466D01*
X374040Y378015D01*
X373372Y376403D01*
X373031Y374691D01*
Y372946D01*
X373372Y371235D01*
X374040Y369623D01*
X375009Y368172D01*
X376243Y366938D01*
X377694Y365969D01*
X379306Y365301D01*
X381017Y364961D01*
X382762D01*
X384474Y365301D01*
X386086Y365969D01*
X387537Y366938D01*
X388770Y368172D01*
X389332Y369012D01*
Y349737D01*
X382242Y342648D01*
X381807Y341997D01*
X381654Y341229D01*
Y306238D01*
X381807Y305469D01*
X382242Y304818D01*
X383165Y303896D01*
X383816Y303461D01*
X384252Y303374D01*
Y298622D01*
X391339D01*
Y299708D01*
X393110D01*
Y297638D01*
X394196D01*
Y295414D01*
X391617Y292835D01*
X391293Y293320D01*
X390772Y293669D01*
X390158Y293791D01*
X388593D01*
X388313Y293978D01*
X387636Y294113D01*
X384162D01*
X384012Y294262D01*
X383438Y294645D01*
X382762Y294780D01*
X381496D01*
Y295866D01*
X374410D01*
Y290158D01*
X381496D01*
Y291244D01*
X382029D01*
X382179Y291094D01*
X382752Y290711D01*
X383429Y290576D01*
X384135D01*
X383950Y290300D01*
X383827Y289685D01*
X383950Y289071D01*
X384298Y288550D01*
X384469Y288435D01*
X384298Y288320D01*
X383950Y287800D01*
X383827Y287185D01*
X383941Y286613D01*
X381496D01*
Y288583D01*
X374410D01*
Y282874D01*
X376185D01*
Y282559D01*
X375905Y282280D01*
X375568Y281696D01*
X375394Y281046D01*
Y280372D01*
X375568Y279721D01*
X375905Y279137D01*
X376381Y278661D01*
X376965Y278324D01*
X377616Y278150D01*
X378290D01*
X378941Y278324D01*
X379524Y278661D01*
X380000Y279137D01*
X380337Y279721D01*
X380512Y280372D01*
Y281046D01*
X380337Y281696D01*
X380000Y282280D01*
X379721Y282559D01*
Y282874D01*
X381496D01*
Y283076D01*
X384135D01*
X383950Y282800D01*
X383827Y282185D01*
X383950Y281571D01*
X384298Y281050D01*
X384469Y280935D01*
X384298Y280820D01*
X383950Y280299D01*
X383827Y279685D01*
X383950Y279071D01*
X384298Y278550D01*
X384469Y278435D01*
X384298Y278320D01*
X383950Y277800D01*
X383827Y277185D01*
X383950Y276571D01*
X384072Y276388D01*
X378182Y276387D01*
X359490Y295079D01*
X359786D01*
X360437Y295253D01*
X361020Y295590D01*
X361497Y296066D01*
X361834Y296650D01*
X362008Y297301D01*
Y297975D01*
X361834Y298626D01*
X361497Y299209D01*
X361020Y299686D01*
X360437Y300022D01*
X359786Y300197D01*
X359112D01*
X358461Y300022D01*
X357877Y299686D01*
X357401Y299209D01*
X357064Y298626D01*
X356908Y298044D01*
X356716Y297852D01*
X356369Y298199D01*
X355796Y298583D01*
X355119Y298717D01*
X350984D01*
Y299803D01*
X343898D01*
Y294094D01*
X350984D01*
Y295181D01*
X354387D01*
X355418Y294149D01*
X357933Y291634D01*
X351772D01*
Y290991D01*
X350984D01*
Y292520D01*
X343898D01*
Y291672D01*
X341831D01*
X341063Y291520D01*
X340411Y291085D01*
X334922Y285595D01*
X335582Y286583D01*
X336057Y287730D01*
X336299Y288947D01*
Y290187D01*
X336057Y291404D01*
X335582Y292551D01*
X334893Y293582D01*
X334015Y294460D01*
X332984Y295149D01*
X331837Y295624D01*
X330620Y295866D01*
X329380D01*
X328163Y295624D01*
X327016Y295149D01*
X325985Y294460D01*
X325107Y293582D01*
X324418Y292551D01*
X323943Y291404D01*
X323701Y290187D01*
Y288947D01*
X323943Y287730D01*
X324418Y286583D01*
X325107Y285551D01*
X325985Y284674D01*
X327016Y283985D01*
X328163Y283510D01*
X329380Y283268D01*
X330620D01*
X331837Y283510D01*
X332984Y283985D01*
X333972Y284645D01*
X330271Y280944D01*
X209449D01*
Y281046D01*
Y281696D01*
Y282480D01*
X209786D01*
X210437Y282655D01*
X211020Y282992D01*
X211497Y283468D01*
X211834Y284052D01*
X212008Y284702D01*
Y285376D01*
X211834Y286027D01*
X211497Y286611D01*
X211020Y287087D01*
X210962Y287121D01*
Y321027D01*
X273708Y383772D01*
X273708Y383772D01*
X274036Y384263D01*
X274151Y384842D01*
Y462598D01*
X284317D01*
X276453Y454183D01*
X276311Y453953D01*
X276161Y453729D01*
X276156Y453703D01*
X276142Y453681D01*
X276098Y453414D01*
X276046Y453150D01*
X276046Y452735D01*
Y452735D01*
Y452735D01*
Y400493D01*
X275685Y400285D01*
X275208Y399808D01*
X274871Y399225D01*
X274697Y398574D01*
Y397900D01*
X274871Y397249D01*
X275208Y396666D01*
X275685Y396189D01*
X276268Y395852D01*
X276919Y395678D01*
X277593D01*
X278244Y395852D01*
X278827Y396189D01*
X279304Y396666D01*
X279641Y397249D01*
X279815Y397900D01*
Y398574D01*
X279641Y399225D01*
X279304Y399808D01*
X279072Y400039D01*
Y452553D01*
X288460Y462598D01*
X309510D01*
Y439603D01*
X300760Y430853D01*
X299418D01*
X299418Y430853D01*
X298839Y430738D01*
X298676Y430629D01*
X298348Y430410D01*
X298348Y430410D01*
X289772Y421833D01*
X289707Y421850D01*
X289033D01*
X288382Y421676D01*
X287799Y421339D01*
X287322Y420863D01*
X286985Y420279D01*
X286811Y419628D01*
Y418954D01*
X286985Y418304D01*
X287322Y417720D01*
X287799Y417244D01*
X288382Y416907D01*
X289033Y416732D01*
X289262D01*
X289048Y416589D01*
X289048Y416589D01*
X288852Y416394D01*
X288329Y416534D01*
X287655D01*
X287004Y416359D01*
X286421Y416022D01*
X285944Y415546D01*
X285607Y414962D01*
X285433Y414312D01*
Y413638D01*
X285607Y412987D01*
X285944Y412403D01*
X286421Y411927D01*
X287004Y411590D01*
X287655Y411416D01*
X288329D01*
X288980Y411590D01*
X289563Y411927D01*
X290040Y412403D01*
X290377Y412987D01*
X290551Y413638D01*
Y413812D01*
X290745Y414006D01*
X291503D01*
X291503Y414006D01*
X291986Y414102D01*
X292082Y414121D01*
X292573Y414449D01*
X294282Y416157D01*
X294212Y415897D01*
Y415223D01*
X294386Y414572D01*
X294723Y413989D01*
X295200Y413512D01*
X295783Y413175D01*
X296434Y413001D01*
X297108D01*
X297759Y413175D01*
X298342Y413512D01*
X298819Y413989D01*
X299155Y414572D01*
X299330Y415223D01*
Y415308D01*
X299355Y415325D01*
X341621Y457591D01*
X341621Y457591D01*
X341949Y458082D01*
X342064Y458661D01*
Y462598D01*
X345841D01*
Y454134D01*
D02*
G37*
G36*
X825166Y377953D02*
X778779D01*
X779006Y377998D01*
X780153Y378473D01*
X781184Y379162D01*
X782062Y380040D01*
X782751Y381071D01*
X783226Y382218D01*
X783468Y383435D01*
Y384676D01*
X783226Y385893D01*
X782751Y387039D01*
X782062Y388071D01*
X781184Y388948D01*
X780153Y389637D01*
X779006Y390112D01*
X777789Y390354D01*
X776548D01*
X775331Y390112D01*
X774185Y389637D01*
X773153Y388948D01*
X772276Y388071D01*
X771586Y387039D01*
X771112Y385893D01*
X770869Y384676D01*
Y383435D01*
X771112Y382218D01*
X771586Y381071D01*
X772276Y380040D01*
X773153Y379162D01*
X774185Y378473D01*
X775331Y377998D01*
X775559Y377953D01*
X726870D01*
X727151Y464588D01*
X727426Y549213D01*
X825166D01*
Y377953D01*
D02*
G37*
G36*
X776548Y377756D02*
X777789D01*
X777795Y377757D01*
D01*
X777833Y377666D01*
X777852Y377569D01*
X777907Y377487D01*
X777945Y377395D01*
X778014Y377325D01*
X778069Y377243D01*
X778152Y377188D01*
X778221Y377118D01*
X778313Y377081D01*
X778395Y377026D01*
X778492Y377006D01*
X778583Y376969D01*
X778682D01*
X778779Y376949D01*
X825166D01*
Y196850D01*
X778854D01*
X779081Y196896D01*
X780228Y197371D01*
X781260Y198060D01*
X782137Y198937D01*
X782826Y199969D01*
X783301Y201115D01*
X783543Y202332D01*
Y203573D01*
X783301Y204790D01*
X782826Y205937D01*
X782137Y206968D01*
X781260Y207846D01*
X780228Y208535D01*
X779081Y209010D01*
X777865Y209252D01*
X776624D01*
X775407Y209010D01*
X774260Y208535D01*
X773229Y207846D01*
X772351Y206968D01*
X771662Y205937D01*
X771187Y204790D01*
X770945Y203573D01*
Y202332D01*
X771187Y201115D01*
X771662Y199969D01*
X772351Y198937D01*
X773229Y198060D01*
X774260Y197371D01*
X775407Y196896D01*
X775634Y196850D01*
X730537D01*
Y235509D01*
X730537Y235509D01*
X730448Y236190D01*
X730436Y236280D01*
X730138Y236998D01*
X729665Y237615D01*
X729665Y237615D01*
X728166Y239114D01*
X727549Y239587D01*
X727339Y239674D01*
X727329Y239678D01*
X726424Y240584D01*
X726867Y376949D01*
D01*
X726868Y376950D01*
X726870Y376949D01*
X775559D01*
X775655Y376969D01*
X775754D01*
X775846Y377006D01*
X775943Y377026D01*
X776025Y377081D01*
X776116Y377118D01*
X776186Y377188D01*
X776268Y377243D01*
X776323Y377325D01*
X776393Y377395D01*
X776431Y377487D01*
X776486Y377569D01*
X776505Y377666D01*
X776543Y377757D01*
D01*
X776548Y377756D01*
D02*
G37*
G36*
X145669Y436942D02*
Y434764D01*
D01*
Y433887D01*
Y433197D01*
D01*
Y386471D01*
Y384833D01*
D01*
Y378825D01*
Y377080D01*
D01*
Y367145D01*
D01*
X2007D01*
Y549174D01*
X145669D01*
X145669Y436942D01*
D02*
G37*
G36*
X726148Y464591D02*
X725413Y238367D01*
X725403Y235433D01*
X722441D01*
X719507Y238367D01*
Y240986D01*
X719499Y241029D01*
X719504Y241072D01*
X719461Y241220D01*
X719431Y241370D01*
X719407Y241406D01*
X719395Y241448D01*
X719299Y241568D01*
X719213Y241696D01*
X719177Y241720D01*
X719150Y241754D01*
X699959Y257915D01*
X692126Y265748D01*
X690657D01*
X686422Y269315D01*
X686287Y269389D01*
X686159Y269474D01*
X686117Y269483D01*
X686079Y269504D01*
X685926Y269521D01*
X685775Y269551D01*
X685642D01*
X685645Y269584D01*
X685603Y269732D01*
X685573Y269882D01*
X685549Y269919D01*
X685537Y269960D01*
X685441Y270080D01*
X685355Y270208D01*
X685319Y270232D01*
X685292Y270266D01*
X677656Y276697D01*
X677521Y276771D01*
X677393Y276856D01*
X677351Y276865D01*
X677313Y276886D01*
X677160Y276903D01*
X677009Y276933D01*
X673622D01*
Y284311D01*
X664646D01*
Y276263D01*
X664259D01*
X663582Y276129D01*
X663008Y275745D01*
X653011Y265748D01*
X593733D01*
X586677Y272804D01*
X586103Y273187D01*
X585426Y273322D01*
X585039D01*
Y281810D01*
X588160Y284931D01*
X588543Y285504D01*
X588678Y286181D01*
Y291732D01*
X589764D01*
Y298819D01*
X588678D01*
Y303543D01*
X589764D01*
Y310630D01*
X588678D01*
Y319372D01*
X593878Y324572D01*
X608681D01*
X609294Y323960D01*
Y321334D01*
X609428Y320657D01*
X609812Y320083D01*
X611460Y318435D01*
X612034Y318051D01*
X612711Y317917D01*
X613976D01*
Y317224D01*
X618307D01*
Y322146D01*
X613976D01*
Y321453D01*
X613443D01*
X612830Y322066D01*
Y324692D01*
X612830Y324692D01*
X612696Y325369D01*
X612312Y325942D01*
X610664Y327591D01*
X610090Y327974D01*
X609842Y328024D01*
Y333268D01*
X605257D01*
X604892Y333632D01*
X604318Y334015D01*
X603642Y334150D01*
X597441D01*
Y336024D01*
X596306D01*
Y340354D01*
X597638D01*
Y352559D01*
X591535D01*
Y340354D01*
X592769D01*
Y336024D01*
X591535D01*
Y334150D01*
X584350D01*
X583674Y334015D01*
X583100Y333632D01*
X578740Y329272D01*
Y374016D01*
X494095Y458661D01*
X431102Y458661D01*
X431102Y512286D01*
X435322Y516506D01*
X435322Y516506D01*
X435650Y516997D01*
X435765Y517576D01*
Y540945D01*
X435765Y540945D01*
X435669Y541428D01*
X435650Y541524D01*
X435322Y542015D01*
X431102Y546235D01*
Y549576D01*
X726424Y549576D01*
X726148Y464591D01*
D02*
G37*
G36*
X684646Y269498D02*
Y268547D01*
X685775D01*
X693377Y262146D01*
X718504Y240986D01*
X718504Y142717D01*
X569119D01*
X557253Y154583D01*
Y154626D01*
X557062Y155586D01*
X556952Y155751D01*
Y156299D01*
X556784Y157144D01*
X556305Y157860D01*
X555589Y158339D01*
X554744Y158507D01*
X553899Y158339D01*
X553183Y157860D01*
X552704Y157144D01*
X552703Y157135D01*
X551786D01*
X551784Y157144D01*
X551305Y157860D01*
X550589Y158339D01*
X549744Y158507D01*
X548899Y158339D01*
X548183Y157860D01*
X547704Y157144D01*
X547703Y157135D01*
X546786D01*
X546784Y157144D01*
X546305Y157860D01*
X545589Y158339D01*
X544744Y158507D01*
X543899Y158339D01*
X543183Y157860D01*
X542704Y157144D01*
X542536Y156299D01*
Y155751D01*
X542426Y155586D01*
X542235Y154626D01*
Y148957D01*
X542426Y147997D01*
X542970Y147183D01*
X543751Y146402D01*
Y144095D01*
X543799Y143852D01*
Y142717D01*
X542224D01*
Y147244D01*
X542066D01*
Y154439D01*
X541952Y155012D01*
Y156299D01*
X541784Y157144D01*
X541305Y157860D01*
X540589Y158339D01*
X539744Y158507D01*
X539688Y158496D01*
X527559Y170624D01*
X527559Y191886D01*
X527559D01*
X529296Y192057D01*
X530965Y192564D01*
X532504Y193386D01*
X533853Y194493D01*
X534960Y195842D01*
X535783Y197381D01*
X536289Y199051D01*
X536460Y200787D01*
X536289Y202524D01*
X535783Y204194D01*
X534960Y205733D01*
X533853Y207081D01*
X532504Y208188D01*
X530965Y209011D01*
X529296Y209518D01*
X527559Y209688D01*
X527559D01*
X527559Y273238D01*
X576063D01*
Y268547D01*
X585039D01*
Y269440D01*
X591951Y262529D01*
X592524Y262146D01*
X593201Y262011D01*
X653543D01*
X654220Y262146D01*
X654794Y262529D01*
X664646Y272381D01*
Y268547D01*
X673622D01*
Y275929D01*
X677009D01*
X684646Y269498D01*
D02*
G37*
G36*
X145669Y296260D02*
D01*
Y295252D01*
Y294282D01*
D01*
Y288274D01*
Y284818D01*
D01*
X145669Y280944D01*
X127362D01*
X126722Y280817D01*
X126594Y280791D01*
X125943Y280356D01*
X59169Y213583D01*
X59112D01*
X58461Y213408D01*
X57877Y213071D01*
X57401Y212595D01*
X57064Y212011D01*
X56890Y211361D01*
Y210687D01*
X57064Y210036D01*
X57401Y209452D01*
X57877Y208976D01*
X58461Y208639D01*
X58982Y208499D01*
X57214Y206732D01*
X42557D01*
X42516Y206772D01*
X41933Y207109D01*
X41282Y207283D01*
X40608D01*
X39957Y207109D01*
X39374Y206772D01*
X38897Y206296D01*
X38560Y205712D01*
X38386Y205061D01*
Y204387D01*
X38560Y203737D01*
X38897Y203153D01*
X39374Y202677D01*
X39957Y202340D01*
X40608Y202165D01*
X41282D01*
X41933Y202340D01*
X42516Y202677D01*
X42557Y202717D01*
X53260D01*
X51330Y200787D01*
X1606D01*
X1606Y366142D01*
X145669D01*
Y296260D01*
D02*
G37*
G36*
X393701Y146321D02*
X393675Y146127D01*
Y131864D01*
X362205Y100394D01*
X358439D01*
X309584Y149249D01*
Y177165D01*
X309584Y177165D01*
X309469Y177744D01*
X309360Y177907D01*
X309141Y178235D01*
X309141Y178235D01*
X305118Y182258D01*
Y204195D01*
X379218D01*
X379218Y204195D01*
X379701Y204291D01*
X379797Y204310D01*
X380288Y204639D01*
X382342Y206693D01*
X393701D01*
Y146321D01*
D02*
G37*
G36*
X145383Y1606D02*
X1606D01*
Y199784D01*
D01*
X50327D01*
X40700Y190157D01*
X40642D01*
X39992Y189983D01*
X39408Y189646D01*
X38932Y189170D01*
X38595Y188586D01*
X38420Y187935D01*
Y187261D01*
X38595Y186611D01*
X38932Y186027D01*
X39408Y185551D01*
X39992Y185214D01*
X40642Y185039D01*
X41316D01*
X41967Y185214D01*
X42551Y185551D01*
X43027Y186027D01*
X43364Y186611D01*
X43538Y187261D01*
Y187319D01*
X56378Y200158D01*
X72097D01*
X71797Y199434D01*
X71457Y197723D01*
Y195978D01*
X71797Y194266D01*
X72465Y192654D01*
X73434Y191204D01*
X74668Y189970D01*
X76119Y189000D01*
X77731Y188332D01*
X79443Y187992D01*
X81187D01*
X82899Y188332D01*
X84511Y189000D01*
X85962Y189970D01*
X87196Y191204D01*
X88165Y192654D01*
X88833Y194266D01*
X89173Y195978D01*
Y197723D01*
X88833Y199434D01*
X88391Y200501D01*
X145383D01*
Y1606D01*
D02*
G37*
G36*
X568409Y142007D02*
X568735Y141789D01*
X569119Y141713D01*
X716555D01*
X724581Y133687D01*
Y124803D01*
X724682Y124032D01*
X724980Y123314D01*
X725453Y122697D01*
X751831Y96319D01*
X751831Y96319D01*
X752180Y96052D01*
X752448Y95846D01*
X752745Y95723D01*
X753166Y95548D01*
X753937Y95447D01*
X757874D01*
Y41339D01*
X757874Y20222D01*
X749738D01*
X739199Y30761D01*
Y52165D01*
X739199Y52165D01*
X739097Y52936D01*
X738800Y53654D01*
X738326Y54271D01*
X723563Y69035D01*
X722946Y69508D01*
X722735Y69595D01*
X722227Y69806D01*
X721457Y69907D01*
X660682D01*
X656634Y73956D01*
X656017Y74430D01*
X655298Y74727D01*
X654528Y74829D01*
X653757Y74727D01*
X653038Y74430D01*
X652422Y73956D01*
X651772Y74606D01*
Y79921D01*
X646457D01*
X643701Y82677D01*
X410433D01*
Y100394D01*
Y142717D01*
X416672D01*
X416483Y142572D01*
X415852Y141749D01*
X415456Y140791D01*
X415320Y139764D01*
X415456Y138736D01*
X415852Y137778D01*
X416483Y136956D01*
X417306Y136325D01*
X418264Y135928D01*
X419291Y135793D01*
X420319Y135928D01*
X421277Y136325D01*
X422099Y136956D01*
X422730Y137778D01*
X423127Y138736D01*
X423228Y139506D01*
X423330Y138736D01*
X423726Y137778D01*
X424357Y136956D01*
X425180Y136325D01*
X426138Y135928D01*
X426907Y135827D01*
X426138Y135725D01*
X425180Y135329D01*
X424357Y134698D01*
X423726Y133875D01*
X423330Y132917D01*
X423194Y131890D01*
X423330Y130862D01*
X423726Y129904D01*
X424357Y129082D01*
X425180Y128451D01*
X426138Y128054D01*
X427165Y127919D01*
X428193Y128054D01*
X429151Y128451D01*
X429973Y129082D01*
X430604Y129904D01*
X431001Y130862D01*
X431136Y131890D01*
X431001Y132917D01*
X430604Y133875D01*
X429973Y134698D01*
X429151Y135329D01*
X428193Y135725D01*
X427423Y135827D01*
X428193Y135928D01*
X429151Y136325D01*
X429973Y136956D01*
X430604Y137778D01*
X431001Y138736D01*
X431102Y139506D01*
X431204Y138736D01*
X431600Y137778D01*
X432232Y136956D01*
X433054Y136325D01*
X434012Y135928D01*
X435039Y135793D01*
X436067Y135928D01*
X437025Y136325D01*
X437847Y136956D01*
X438478Y137778D01*
X438875Y138736D01*
X438976Y139506D01*
X439078Y138736D01*
X439474Y137778D01*
X440105Y136956D01*
X440928Y136325D01*
X441886Y135928D01*
X442913Y135793D01*
X443941Y135928D01*
X444899Y136325D01*
X445721Y136956D01*
X446352Y137778D01*
X446749Y138736D01*
X446850Y139506D01*
X446952Y138736D01*
X447348Y137778D01*
X447979Y136956D01*
X448802Y136325D01*
X449760Y135928D01*
X450787Y135793D01*
X451815Y135928D01*
X452773Y136325D01*
X453595Y136956D01*
X454226Y137778D01*
X454623Y138736D01*
X454724Y139506D01*
X454826Y138736D01*
X455223Y137778D01*
X455854Y136956D01*
X456676Y136325D01*
X457634Y135928D01*
X458661Y135793D01*
X459689Y135928D01*
X460647Y136325D01*
X461469Y136956D01*
X462100Y137778D01*
X462497Y138736D01*
X462632Y139764D01*
X462497Y140791D01*
X462100Y141749D01*
X461469Y142572D01*
X461280Y142717D01*
X499828D01*
X500455Y142090D01*
Y138875D01*
X500143Y138636D01*
X499733Y138102D01*
X499475Y137479D01*
X499387Y136811D01*
X499475Y136143D01*
X499733Y135521D01*
X500143Y134986D01*
X500678Y134576D01*
X501300Y134318D01*
X501968Y134230D01*
X502636Y134318D01*
X503259Y134576D01*
X503794Y134986D01*
X504204Y135521D01*
X504462Y136143D01*
X504550Y136811D01*
X504462Y137479D01*
X504204Y138102D01*
X503794Y138636D01*
X503482Y138875D01*
Y142717D01*
X503482Y142717D01*
X504033D01*
X504038Y142673D01*
X504435Y141715D01*
X505066Y140893D01*
X505889Y140262D01*
X506846Y139865D01*
X507874Y139730D01*
X508902Y139865D01*
X509860Y140262D01*
X510682Y140893D01*
X511313Y141715D01*
X511710Y142673D01*
X511715Y142717D01*
X512547D01*
X532818Y122446D01*
X533309Y122118D01*
X533405Y122099D01*
X533888Y122002D01*
X533888Y122002D01*
X543307D01*
Y117717D01*
X549213D01*
Y121813D01*
X554528D01*
Y120472D01*
X561614D01*
Y126181D01*
X554528D01*
Y124840D01*
X549213D01*
Y125000D01*
X544938D01*
X544791Y125029D01*
X544791Y125029D01*
X534515D01*
X521774Y137770D01*
X522735Y137897D01*
X523693Y138293D01*
X524515Y138924D01*
X525147Y139747D01*
X525543Y140705D01*
X525679Y141732D01*
X525549Y142717D01*
X536516D01*
Y140157D01*
X542224D01*
Y141713D01*
X543799D01*
X544183Y141789D01*
X544509Y142007D01*
X544726Y142332D01*
X544803Y142717D01*
X567700D01*
X568409Y142007D01*
D02*
G37*
G36*
X330905Y116707D02*
X330620Y116764D01*
X329380D01*
X328163Y116522D01*
X327016Y116047D01*
X325985Y115357D01*
X325107Y114480D01*
X324418Y113448D01*
X323943Y112302D01*
X323701Y111085D01*
Y109844D01*
X323943Y108627D01*
X324418Y107481D01*
X325107Y106449D01*
X325985Y105572D01*
X327016Y104882D01*
X328163Y104407D01*
X329380Y104165D01*
X330620D01*
X331837Y104407D01*
X332984Y104882D01*
X334015Y105572D01*
X334893Y106449D01*
X335582Y107481D01*
X336057Y108627D01*
X336299Y109844D01*
Y111085D01*
X336243Y111370D01*
X347219Y100394D01*
X305118Y100394D01*
Y142494D01*
X330905Y116707D01*
D02*
G37*
G36*
X600668Y31771D02*
X600994Y31553D01*
X601378Y31477D01*
X667354D01*
X666626Y30590D01*
X666069Y29547D01*
X665726Y28416D01*
X665610Y27240D01*
Y26740D01*
X671639D01*
Y24740D01*
X665610D01*
Y24240D01*
X665726Y23064D01*
X666069Y21933D01*
X666626Y20891D01*
X667376Y19977D01*
X668290Y19227D01*
X669332Y18670D01*
X670463Y18327D01*
X671639Y18211D01*
X671898Y18237D01*
X684781D01*
X685039Y18211D01*
X686216Y18327D01*
X687347Y18670D01*
X688389Y19227D01*
X689302Y19977D01*
X690052Y20891D01*
X690610Y21933D01*
X690952Y23064D01*
X691068Y24240D01*
Y24740D01*
X685039D01*
Y19240D01*
X671639D01*
Y19340D01*
Y32240D01*
X685039D01*
Y26740D01*
X691068D01*
Y27240D01*
X690952Y28416D01*
X690610Y29547D01*
X690052Y30590D01*
X689324Y31477D01*
X712579D01*
Y16209D01*
X712655Y15825D01*
X712873Y15500D01*
X713199Y15282D01*
X713583Y15206D01*
X713595D01*
X713760Y1606D01*
X538405D01*
Y1854D01*
X541815D01*
Y6004D01*
X542815D01*
Y7004D01*
X547358D01*
Y7760D01*
Y10909D01*
X542815D01*
Y12910D01*
X547358D01*
Y13665D01*
Y16815D01*
X542815D01*
Y18815D01*
X547358D01*
Y19571D01*
Y22720D01*
X542815D01*
Y24721D01*
X547358D01*
Y25476D01*
Y28626D01*
X542815D01*
Y30626D01*
X547358D01*
Y31382D01*
Y34532D01*
X542815D01*
Y36531D01*
X547358D01*
Y39351D01*
X549098D01*
Y36531D01*
X553642D01*
X558185D01*
Y39351D01*
X559925D01*
Y36531D01*
X564468D01*
X569012D01*
Y39351D01*
X570752D01*
Y36531D01*
X575295D01*
X579839D01*
Y39351D01*
X581579D01*
Y36531D01*
X586122D01*
X590665D01*
Y39351D01*
X593088D01*
X600668Y31771D01*
D02*
G37*
G36*
X409430Y82677D02*
X409506Y82293D01*
X409724Y81968D01*
X410049Y81750D01*
X410433Y81674D01*
X643285D01*
X645747Y79212D01*
X646073Y78994D01*
X646457Y78918D01*
X647460D01*
X650768Y75610D01*
Y74606D01*
X650844Y74222D01*
X650917Y74114D01*
X651062Y73897D01*
X651712Y73247D01*
X651821Y73174D01*
X651864Y73136D01*
X651651Y72621D01*
X651549Y71850D01*
X651651Y71080D01*
X651948Y70361D01*
X652422Y69744D01*
X657343Y64823D01*
X657343Y64823D01*
X657960Y64350D01*
X658678Y64052D01*
X659449Y63951D01*
X720223D01*
X733242Y50932D01*
Y29528D01*
X733344Y28757D01*
X733554Y28249D01*
X733641Y28038D01*
X734115Y27422D01*
X745327Y16209D01*
X713583D01*
Y32283D01*
X713386Y32480D01*
X687930D01*
X687340Y32796D01*
X686212Y33138D01*
X685039Y33253D01*
X684941Y33244D01*
X671738D01*
X671639Y33253D01*
X670466Y33138D01*
X669338Y32796D01*
X668748Y32480D01*
X601378D01*
X593504Y40354D01*
X537402D01*
Y1606D01*
X469199D01*
X470091Y2498D01*
X470964Y2264D01*
X471949D01*
X472900Y2519D01*
X473753Y3011D01*
X474449Y3707D01*
X474942Y4560D01*
X475197Y5511D01*
Y6496D01*
X474942Y7448D01*
X474449Y8300D01*
X473753Y8997D01*
X472900Y9489D01*
X471949Y9744D01*
X470964D01*
X470013Y9489D01*
X469160Y8997D01*
X468464Y8300D01*
X467971Y7448D01*
X467717Y6496D01*
Y5511D01*
X467951Y4638D01*
X466983Y3671D01*
X466561D01*
X466588Y3698D01*
X467083Y4554D01*
X467203Y5004D01*
X463583D01*
X459962D01*
X460083Y4554D01*
X460577Y3698D01*
X460604Y3671D01*
X458665D01*
X458702Y3707D01*
X459194Y4560D01*
X459449Y5511D01*
Y6496D01*
X459215Y7370D01*
X460625Y8780D01*
X460625Y8780D01*
X460844Y9108D01*
X460953Y9271D01*
X461068Y9850D01*
X461068Y9850D01*
Y11080D01*
X461276Y10872D01*
X462133Y10378D01*
X462583Y10257D01*
Y13878D01*
Y17498D01*
X462133Y17378D01*
X461276Y16883D01*
X460749Y16356D01*
X460625Y16541D01*
X458372Y18794D01*
X458173Y18927D01*
X458702Y19455D01*
X459194Y20308D01*
X459449Y21260D01*
Y22244D01*
X459194Y23196D01*
X458702Y24048D01*
X458005Y24745D01*
X457152Y25237D01*
X456201Y25492D01*
X455216D01*
X454265Y25237D01*
X453412Y24745D01*
X452716Y24048D01*
X452223Y23196D01*
X451968Y22244D01*
Y21260D01*
X452223Y20308D01*
X452716Y19455D01*
X452934Y19238D01*
X450632D01*
X450840Y19446D01*
X451335Y20302D01*
X451455Y20752D01*
X447835D01*
Y21752D01*
X446835D01*
Y25372D01*
X446385Y25252D01*
X445528Y24757D01*
X445019Y24248D01*
X444968Y24325D01*
X444968Y24325D01*
X442579Y26714D01*
X442448Y26801D01*
X442966Y27320D01*
X443461Y28176D01*
X443581Y28626D01*
X439961D01*
Y29626D01*
X438961D01*
Y33246D01*
X438511Y33126D01*
X437654Y32631D01*
X436955Y31932D01*
X436461Y31076D01*
X436205Y30120D01*
Y30082D01*
X428841Y37446D01*
Y44462D01*
X428841Y44462D01*
X428726Y45041D01*
X428617Y45204D01*
X428398Y45532D01*
X428398Y45532D01*
X422293Y51636D01*
X435193D01*
X435261Y51518D01*
X435994Y50785D01*
X436891Y50267D01*
X437893Y49999D01*
X438635D01*
X447378Y41256D01*
X447340D01*
X446385Y41000D01*
X445528Y40505D01*
X444829Y39806D01*
X444335Y38950D01*
X444214Y38500D01*
X447835D01*
Y37500D01*
X448835D01*
Y33880D01*
X449284Y34000D01*
X450141Y34495D01*
X450657Y35011D01*
X450736Y34893D01*
X453113Y32515D01*
X453217Y32446D01*
X452703Y31932D01*
X452209Y31076D01*
X452088Y30626D01*
X455709D01*
Y29626D01*
X456709D01*
Y26006D01*
X457158Y26126D01*
X458015Y26621D01*
X458533Y27139D01*
X458621Y27008D01*
X461010Y24619D01*
X461010Y24619D01*
X461087Y24568D01*
X460577Y24058D01*
X460083Y23202D01*
X459962Y22752D01*
X463583D01*
Y21752D01*
X464583D01*
Y18132D01*
X465032Y18252D01*
X465889Y18746D01*
X466097Y18955D01*
Y17725D01*
X466097Y17724D01*
X466193Y17241D01*
X466212Y17145D01*
X466540Y16654D01*
X467951Y15244D01*
X467717Y14370D01*
Y13386D01*
X467971Y12434D01*
X468464Y11581D01*
X469160Y10885D01*
X470013Y10393D01*
X470964Y10138D01*
X471949D01*
X472900Y10393D01*
X473753Y10885D01*
X474449Y11581D01*
X474942Y12434D01*
X475197Y13386D01*
Y14370D01*
X474942Y15322D01*
X474449Y16174D01*
X473753Y16871D01*
X472900Y17363D01*
X471949Y17618D01*
X470964D01*
X470091Y17384D01*
X469124Y18351D01*
Y18796D01*
X469160Y18759D01*
X470013Y18267D01*
X470964Y18012D01*
X471949D01*
X472900Y18267D01*
X473753Y18759D01*
X474449Y19455D01*
X474942Y20308D01*
X475197Y21260D01*
Y22244D01*
X474942Y23196D01*
X474449Y24048D01*
X473753Y24745D01*
X472900Y25237D01*
X471949Y25492D01*
X470964D01*
X470013Y25237D01*
X469160Y24745D01*
X468665Y24250D01*
X466155Y26759D01*
X466079Y26810D01*
X466588Y27320D01*
X467083Y28176D01*
X467203Y28626D01*
X463583D01*
Y29626D01*
X462583D01*
Y33246D01*
X462133Y33126D01*
X461276Y32631D01*
X460776Y32131D01*
X460761Y32153D01*
X460761Y32153D01*
X458259Y34656D01*
X458209Y34689D01*
X458714Y35194D01*
X459209Y36050D01*
X459329Y36500D01*
X455709D01*
Y37500D01*
X454709D01*
Y41120D01*
X454259Y41000D01*
X453403Y40505D01*
X452900Y40003D01*
X452876Y40039D01*
X452876Y40039D01*
X441479Y51436D01*
X441561Y51518D01*
X442080Y52416D01*
X442348Y53417D01*
Y54454D01*
X442080Y55455D01*
X441561Y56353D01*
X440828Y57086D01*
X439931Y57605D01*
X438929Y57873D01*
X437893D01*
X436891Y57605D01*
X435994Y57086D01*
X435261Y56353D01*
X434742Y55455D01*
X434530Y54663D01*
X404170D01*
X383858Y74975D01*
Y93504D01*
X409430D01*
Y82677D01*
D02*
G37*
G36*
X413076Y34536D02*
X413076Y34536D01*
X413404Y34317D01*
X413567Y34208D01*
X414146Y34093D01*
X414146Y34093D01*
X417605D01*
X436454Y15244D01*
X436221Y14370D01*
Y13386D01*
X436475Y12434D01*
X436968Y11581D01*
X437193Y11356D01*
X406951D01*
X383858Y34449D01*
Y63754D01*
X413076Y34536D01*
D02*
G37*
%LPC*%
G36*
X392251Y456693D02*
X391214D01*
X390213Y456425D01*
X389315Y455906D01*
X388582Y455173D01*
X388064Y454276D01*
X387795Y453274D01*
Y452238D01*
X388064Y451236D01*
X388582Y450339D01*
X389315Y449606D01*
X390213Y449087D01*
X391214Y448819D01*
X392251D01*
X393252Y449087D01*
X394150Y449606D01*
X394883Y450339D01*
X395401Y451236D01*
X395669Y452238D01*
Y453274D01*
X395401Y454276D01*
X394883Y455173D01*
X394150Y455906D01*
X393252Y456425D01*
X392251Y456693D01*
D02*
G37*
G36*
X423747Y452756D02*
X422710D01*
X421709Y452488D01*
X420811Y451969D01*
X420078Y451236D01*
X419560Y450339D01*
X419291Y449337D01*
Y448301D01*
X419560Y447299D01*
X420078Y446402D01*
X420253Y446226D01*
X420220Y446245D01*
X419219Y446514D01*
X418569D01*
X419023Y447299D01*
X419291Y448301D01*
Y449337D01*
X419023Y450339D01*
X418505Y451236D01*
X417772Y451969D01*
X416874Y452488D01*
X415873Y452756D01*
X414836D01*
X413835Y452488D01*
X412937Y451969D01*
X412204Y451236D01*
X411686Y450339D01*
X411417Y449337D01*
Y448301D01*
X411686Y447299D01*
X411946Y446847D01*
X411936Y446850D01*
X410899D01*
X410888Y446847D01*
X411149Y447299D01*
X411417Y448301D01*
Y449337D01*
X411149Y450339D01*
X410631Y451236D01*
X409898Y451969D01*
X409000Y452488D01*
X407999Y452756D01*
X406962D01*
X405961Y452488D01*
X405063Y451969D01*
X404330Y451236D01*
X403812Y450339D01*
X403543Y449337D01*
Y448301D01*
X403812Y447299D01*
X404072Y446847D01*
X404062Y446850D01*
X403025D01*
X403014Y446847D01*
X403275Y447299D01*
X403543Y448301D01*
Y449337D01*
X403275Y450339D01*
X402757Y451236D01*
X402024Y451969D01*
X401126Y452488D01*
X400125Y452756D01*
X399088D01*
X398087Y452488D01*
X397189Y451969D01*
X396456Y451236D01*
X395938Y450339D01*
X395669Y449337D01*
Y448301D01*
X395938Y447299D01*
X396456Y446402D01*
X397189Y445669D01*
X398087Y445150D01*
X399088Y444882D01*
X400125D01*
X400135Y444885D01*
X399875Y444433D01*
X399606Y443432D01*
Y442395D01*
X399875Y441394D01*
X400393Y440496D01*
X401126Y439763D01*
X402024Y439245D01*
X403025Y438976D01*
X404062D01*
X405063Y439245D01*
X405961Y439763D01*
X406694Y440496D01*
X407212Y441394D01*
X407480Y442395D01*
Y443432D01*
X407212Y444433D01*
X406951Y444885D01*
X406962Y444882D01*
X407999D01*
X408009Y444885D01*
X407749Y444433D01*
X407480Y443432D01*
Y442395D01*
X407749Y441394D01*
X408267Y440496D01*
X409000Y439763D01*
X409898Y439245D01*
X410899Y438976D01*
X411936D01*
X412937Y439245D01*
X413835Y439763D01*
X414568Y440496D01*
X414988Y441223D01*
X415032Y441057D01*
X415550Y440159D01*
X416283Y439426D01*
X417181Y438908D01*
X418183Y438639D01*
X419219D01*
X420220Y438908D01*
X421118Y439426D01*
X421851Y440159D01*
X422369Y441057D01*
X422638Y442058D01*
Y443095D01*
X422369Y444096D01*
X421851Y444994D01*
X421676Y445169D01*
X421709Y445150D01*
X422710Y444882D01*
X423747D01*
X424748Y445150D01*
X425646Y445669D01*
X426379Y446402D01*
X426897Y447299D01*
X427165Y448301D01*
Y449337D01*
X426897Y450339D01*
X426379Y451236D01*
X425646Y451969D01*
X424748Y452488D01*
X423747Y452756D01*
D02*
G37*
G36*
X374475Y448366D02*
X373557D01*
X372671Y448129D01*
X371876Y447670D01*
X371228Y447021D01*
X370769Y446227D01*
X370532Y445341D01*
Y444423D01*
X370769Y443537D01*
X371228Y442742D01*
X371876Y442094D01*
X372671Y441635D01*
X373557Y441398D01*
X374475D01*
X375361Y441635D01*
X376155Y442094D01*
X376804Y442742D01*
X377263Y443537D01*
X377500Y444423D01*
Y445341D01*
X377263Y446227D01*
X376804Y447021D01*
X376155Y447670D01*
X375361Y448129D01*
X374475Y448366D01*
D02*
G37*
G36*
X392251Y448819D02*
X391214D01*
X390213Y448551D01*
X389315Y448032D01*
X388582Y447299D01*
X388064Y446402D01*
X387795Y445400D01*
Y444364D01*
X388064Y443362D01*
X388582Y442464D01*
X389315Y441732D01*
X390213Y441213D01*
X391214Y440945D01*
X392251D01*
X393252Y441213D01*
X394150Y441732D01*
X394883Y442464D01*
X395401Y443362D01*
X395669Y444364D01*
Y445400D01*
X395401Y446402D01*
X394883Y447299D01*
X394150Y448032D01*
X393252Y448551D01*
X392251Y448819D01*
D02*
G37*
G36*
X377500Y440492D02*
X370532D01*
Y433524D01*
X377500D01*
Y440492D01*
D02*
G37*
G36*
X392251Y440945D02*
X391214D01*
X390213Y440677D01*
X389315Y440158D01*
X388582Y439425D01*
X388064Y438527D01*
X387795Y437526D01*
Y436489D01*
X388064Y435488D01*
X388582Y434590D01*
X389315Y433857D01*
X390213Y433339D01*
X391214Y433071D01*
X392251D01*
X393252Y433339D01*
X394150Y433857D01*
X394883Y434590D01*
X395401Y435488D01*
X395669Y436489D01*
Y437526D01*
X395401Y438527D01*
X394883Y439425D01*
X394150Y440158D01*
X393252Y440677D01*
X392251Y440945D01*
D02*
G37*
G36*
Y433071D02*
X391214D01*
X390213Y432803D01*
X389315Y432284D01*
X388582Y431551D01*
X388064Y430653D01*
X387795Y429652D01*
Y428616D01*
X388064Y427614D01*
X388582Y426717D01*
X389315Y425983D01*
X390213Y425465D01*
X391214Y425197D01*
X392251D01*
X393252Y425465D01*
X394150Y425983D01*
X394883Y426717D01*
X395401Y427614D01*
X395669Y428616D01*
Y429652D01*
X395401Y430653D01*
X394883Y431551D01*
X394150Y432284D01*
X393252Y432803D01*
X392251Y433071D01*
D02*
G37*
G36*
X449337Y431102D02*
X448301D01*
X447299Y430834D01*
X446402Y430316D01*
X445669Y429583D01*
X445150Y428685D01*
X444882Y427684D01*
Y426647D01*
X445150Y425646D01*
X445669Y424748D01*
X446402Y424015D01*
X447299Y423497D01*
X448301Y423228D01*
X449337D01*
X450339Y423497D01*
X451236Y424015D01*
X451969Y424748D01*
X452488Y425646D01*
X452756Y426647D01*
Y427684D01*
X452488Y428685D01*
X451969Y429583D01*
X451236Y430316D01*
X450339Y430834D01*
X449337Y431102D01*
D02*
G37*
G36*
X441463D02*
X440427D01*
X439425Y430834D01*
X438527Y430316D01*
X437794Y429583D01*
X437276Y428685D01*
X437008Y427684D01*
Y426647D01*
X437276Y425646D01*
X437794Y424748D01*
X438527Y424015D01*
X439425Y423497D01*
X440427Y423228D01*
X441463D01*
X442464Y423497D01*
X443362Y424015D01*
X444095Y424748D01*
X444614Y425646D01*
X444882Y426647D01*
Y427684D01*
X444614Y428685D01*
X444095Y429583D01*
X443362Y430316D01*
X442464Y430834D01*
X441463Y431102D01*
D02*
G37*
G36*
X392251Y425197D02*
X391214D01*
X390213Y424929D01*
X389315Y424410D01*
X388582Y423677D01*
X388064Y422780D01*
X387795Y421778D01*
Y420742D01*
X388064Y419740D01*
X388582Y418843D01*
X389315Y418110D01*
X390213Y417591D01*
X391214Y417323D01*
X392251D01*
X393252Y417591D01*
X394150Y418110D01*
X394883Y418843D01*
X395401Y419740D01*
X395669Y420742D01*
Y421778D01*
X395401Y422780D01*
X394883Y423677D01*
X394150Y424410D01*
X393252Y424929D01*
X392251Y425197D01*
D02*
G37*
G36*
X441463Y423228D02*
X440427D01*
X439425Y422960D01*
X438527Y422442D01*
X437794Y421709D01*
X437276Y420811D01*
X437008Y419810D01*
Y418773D01*
X437276Y417772D01*
X437794Y416874D01*
X438527Y416141D01*
X439425Y415623D01*
X440427Y415354D01*
X441463D01*
X442464Y415623D01*
X443362Y416141D01*
X444095Y416874D01*
X444614Y417772D01*
X444882Y418773D01*
Y419810D01*
X444614Y420811D01*
X444095Y421709D01*
X443362Y422442D01*
X442464Y422960D01*
X441463Y423228D01*
D02*
G37*
G36*
X433589D02*
X432552D01*
X431551Y422960D01*
X430653Y422442D01*
X429920Y421709D01*
X429402Y420811D01*
X429134Y419810D01*
Y418773D01*
X429402Y417772D01*
X429920Y416874D01*
X430653Y416141D01*
X431551Y415623D01*
X432552Y415354D01*
X433589D01*
X434590Y415623D01*
X435488Y416141D01*
X436221Y416874D01*
X436740Y417772D01*
X437008Y418773D01*
Y419810D01*
X436740Y420811D01*
X436221Y421709D01*
X435488Y422442D01*
X434590Y422960D01*
X433589Y423228D01*
D02*
G37*
G36*
X392251Y415639D02*
X391214D01*
X390213Y415371D01*
X389315Y414853D01*
X388582Y414120D01*
X388064Y413222D01*
X387795Y412221D01*
Y411184D01*
X388064Y410183D01*
X388582Y409285D01*
X389315Y408552D01*
X390213Y408034D01*
X391214Y407765D01*
X392251D01*
X393252Y408034D01*
X394150Y408552D01*
X394883Y409285D01*
X395401Y410183D01*
X395669Y411184D01*
Y412221D01*
X395401Y413222D01*
X394883Y414120D01*
X394150Y414853D01*
X393252Y415371D01*
X392251Y415639D01*
D02*
G37*
G36*
X433589Y415354D02*
X432552D01*
X431551Y415086D01*
X430653Y414568D01*
X429920Y413835D01*
X429402Y412937D01*
X429134Y411936D01*
Y410899D01*
X429402Y409898D01*
X429920Y409000D01*
X430653Y408267D01*
X431551Y407749D01*
X432552Y407480D01*
X433589D01*
X434590Y407749D01*
X435488Y408267D01*
X436221Y409000D01*
X436740Y409898D01*
X437008Y410899D01*
Y411936D01*
X436740Y412937D01*
X436221Y413835D01*
X435488Y414568D01*
X434590Y415086D01*
X433589Y415354D01*
D02*
G37*
G36*
X443337Y412480D02*
X442096D01*
X440879Y412238D01*
X439733Y411763D01*
X438701Y411074D01*
X437824Y410197D01*
X437134Y409165D01*
X436659Y408018D01*
X436417Y406802D01*
Y405561D01*
X436659Y404344D01*
X437134Y403197D01*
X437824Y402166D01*
X438701Y401288D01*
X439733Y400599D01*
X440879Y400124D01*
X442096Y399882D01*
X443337D01*
X444554Y400124D01*
X445700Y400599D01*
X446732Y401288D01*
X447610Y402166D01*
X448299Y403197D01*
X448774Y404344D01*
X449016Y405561D01*
Y406802D01*
X448774Y408018D01*
X448299Y409165D01*
X447610Y410197D01*
X446732Y411074D01*
X445700Y411763D01*
X444554Y412238D01*
X443337Y412480D01*
D02*
G37*
G36*
X392251Y407281D02*
X391214D01*
X390213Y407013D01*
X389315Y406495D01*
X388582Y405762D01*
X388064Y404864D01*
X387795Y403863D01*
Y402826D01*
X388064Y401825D01*
X388582Y400927D01*
X389315Y400194D01*
X390213Y399675D01*
X391214Y399407D01*
X392251D01*
X393252Y399675D01*
X394150Y400194D01*
X394883Y400927D01*
X395401Y401825D01*
X395669Y402826D01*
Y403863D01*
X395401Y404864D01*
X394883Y405762D01*
X394150Y406495D01*
X393252Y407013D01*
X392251Y407281D01*
D02*
G37*
G36*
X528356Y390748D02*
X526611D01*
X524900Y390408D01*
X523288Y389740D01*
X521837Y388770D01*
X520603Y387537D01*
X519634Y386086D01*
X518966Y384474D01*
X518625Y382762D01*
Y381017D01*
X518966Y379306D01*
X519634Y377694D01*
X520603Y376243D01*
X521837Y375009D01*
X523288Y374040D01*
X524900Y373372D01*
X526611Y373031D01*
X528356D01*
X530067Y373372D01*
X531680Y374040D01*
X533131Y375009D01*
X534364Y376243D01*
X535334Y377694D01*
X536001Y379306D01*
X536342Y381017D01*
Y382762D01*
X536001Y384474D01*
X535334Y386086D01*
X534364Y387537D01*
X533131Y388770D01*
X531680Y389740D01*
X530067Y390408D01*
X528356Y390748D01*
D02*
G37*
G36*
X495424Y358465D02*
X494183D01*
X492966Y358223D01*
X491819Y357748D01*
X490788Y357058D01*
X489910Y356181D01*
X489221Y355149D01*
X488746Y354003D01*
X488504Y352786D01*
Y351545D01*
X488746Y350328D01*
X489221Y349182D01*
X489910Y348150D01*
X490788Y347272D01*
X491819Y346583D01*
X492966Y346108D01*
X494183Y345866D01*
X495424D01*
X496641Y346108D01*
X497787Y346583D01*
X498819Y347272D01*
X499696Y348150D01*
X500385Y349182D01*
X500860Y350328D01*
X501102Y351545D01*
Y352786D01*
X500860Y354003D01*
X500385Y355149D01*
X499696Y356181D01*
X498819Y357058D01*
X497787Y357748D01*
X496641Y358223D01*
X495424Y358465D01*
D02*
G37*
G36*
X298510Y449803D02*
X296765D01*
X295054Y449463D01*
X293442Y448795D01*
X291991Y447825D01*
X290757Y446592D01*
X289788Y445141D01*
X289120Y443529D01*
X288779Y441817D01*
Y440072D01*
X289120Y438361D01*
X289788Y436749D01*
X290757Y435298D01*
X291991Y434064D01*
X293442Y433095D01*
X295054Y432427D01*
X296765Y432087D01*
X298510D01*
X300222Y432427D01*
X301834Y433095D01*
X303285Y434064D01*
X304519Y435298D01*
X305488Y436749D01*
X306156Y438361D01*
X306496Y440072D01*
Y441817D01*
X306156Y443529D01*
X305488Y445141D01*
X304519Y446592D01*
X303285Y447825D01*
X301834Y448795D01*
X300222Y449463D01*
X298510Y449803D01*
D02*
G37*
G36*
Y359252D02*
X296765D01*
X295054Y358911D01*
X293442Y358244D01*
X291991Y357274D01*
X290757Y356041D01*
X289788Y354590D01*
X289120Y352977D01*
X288779Y351266D01*
Y349521D01*
X289120Y347810D01*
X289788Y346198D01*
X290757Y344747D01*
X291991Y343513D01*
X293442Y342544D01*
X295054Y341876D01*
X296765Y341535D01*
X298510D01*
X300222Y341876D01*
X301834Y342544D01*
X303285Y343513D01*
X304519Y344747D01*
X305488Y346198D01*
X306156Y347810D01*
X306496Y349521D01*
Y351266D01*
X306156Y352977D01*
X305488Y354590D01*
X304519Y356041D01*
X303285Y357274D01*
X301834Y358244D01*
X300222Y358911D01*
X298510Y359252D01*
D02*
G37*
G36*
X745679Y544291D02*
X743934D01*
X742223Y543951D01*
X740611Y543283D01*
X739160Y542314D01*
X737926Y541080D01*
X736956Y539629D01*
X736289Y538017D01*
X735948Y536306D01*
Y534561D01*
X736289Y532849D01*
X736956Y531237D01*
X737926Y529786D01*
X739160Y528552D01*
X740611Y527583D01*
X742223Y526915D01*
X743934Y526575D01*
X745679D01*
X747390Y526915D01*
X749003Y527583D01*
X750453Y528552D01*
X751687Y529786D01*
X752657Y531237D01*
X753324Y532849D01*
X753665Y534561D01*
Y536306D01*
X753324Y538017D01*
X752657Y539629D01*
X751687Y541080D01*
X750453Y542314D01*
X749003Y543283D01*
X747390Y543951D01*
X745679Y544291D01*
D02*
G37*
G36*
Y453740D02*
X743934D01*
X742223Y453400D01*
X740611Y452732D01*
X739160Y451763D01*
X737926Y450529D01*
X736956Y449078D01*
X736289Y447466D01*
X735948Y445754D01*
Y444009D01*
X736289Y442298D01*
X736956Y440686D01*
X737926Y439235D01*
X739160Y438001D01*
X740611Y437032D01*
X742223Y436364D01*
X743934Y436024D01*
X745679D01*
X747390Y436364D01*
X749003Y437032D01*
X750453Y438001D01*
X751687Y439235D01*
X752657Y440686D01*
X753324Y442298D01*
X753665Y444009D01*
Y445754D01*
X753324Y447466D01*
X752657Y449078D01*
X751687Y450529D01*
X750453Y451763D01*
X749003Y452732D01*
X747390Y453400D01*
X745679Y453740D01*
D02*
G37*
G36*
X745361Y363189D02*
X743616D01*
X741904Y362848D01*
X740292Y362181D01*
X738841Y361211D01*
X737607Y359978D01*
X736638Y358527D01*
X735970Y356915D01*
X735630Y355203D01*
Y353458D01*
X735970Y351747D01*
X736638Y350135D01*
X737607Y348684D01*
X738841Y347450D01*
X740292Y346481D01*
X741904Y345813D01*
X743616Y345472D01*
X745361D01*
X747072Y345813D01*
X748684Y346481D01*
X750135Y347450D01*
X751369Y348684D01*
X752338Y350135D01*
X753006Y351747D01*
X753346Y353458D01*
Y355203D01*
X753006Y356915D01*
X752338Y358527D01*
X751369Y359978D01*
X750135Y361211D01*
X748684Y362181D01*
X747072Y362848D01*
X745361Y363189D01*
D02*
G37*
G36*
X745754Y272638D02*
X744009D01*
X742298Y272297D01*
X740686Y271630D01*
X739235Y270660D01*
X738001Y269426D01*
X737032Y267975D01*
X736364Y266363D01*
X736024Y264652D01*
Y262907D01*
X736364Y261196D01*
X737032Y259584D01*
X738001Y258133D01*
X739235Y256899D01*
X740686Y255929D01*
X742298Y255262D01*
X744009Y254921D01*
X745754D01*
X747466Y255262D01*
X749078Y255929D01*
X750529Y256899D01*
X751763Y258133D01*
X752732Y259584D01*
X753400Y261196D01*
X753740Y262907D01*
Y264652D01*
X753400Y266363D01*
X752732Y267975D01*
X751763Y269426D01*
X750529Y270660D01*
X749078Y271630D01*
X747466Y272297D01*
X745754Y272638D01*
D02*
G37*
G36*
X81187Y477362D02*
X79443D01*
X77731Y477022D01*
X76119Y476354D01*
X74668Y475385D01*
X73434Y474151D01*
X72465Y472700D01*
X71797Y471088D01*
X71457Y469376D01*
Y467631D01*
X71797Y465920D01*
X72465Y464308D01*
X73434Y462857D01*
X74668Y461623D01*
X76119Y460654D01*
X77731Y459986D01*
X79443Y459646D01*
X81187D01*
X82899Y459986D01*
X84511Y460654D01*
X85962Y461623D01*
X87196Y462857D01*
X88165Y464308D01*
X88833Y465920D01*
X89173Y467631D01*
Y469376D01*
X88833Y471088D01*
X88165Y472700D01*
X87196Y474151D01*
X85962Y475385D01*
X84511Y476354D01*
X82899Y477022D01*
X81187Y477362D01*
D02*
G37*
G36*
X48573Y445079D02*
X47332D01*
X46115Y444837D01*
X44969Y444362D01*
X43937Y443672D01*
X43060Y442795D01*
X42371Y441763D01*
X41896Y440617D01*
X41654Y439400D01*
Y438159D01*
X41896Y436942D01*
X42371Y435796D01*
X43060Y434764D01*
X43937Y433887D01*
X44969Y433197D01*
X46115Y432722D01*
X47332Y432480D01*
X48573D01*
X49790Y432722D01*
X50937Y433197D01*
X51968Y433887D01*
X52846Y434764D01*
X53535Y435796D01*
X54010Y436942D01*
X54252Y438159D01*
Y439400D01*
X54010Y440617D01*
X53535Y441763D01*
X52846Y442795D01*
X51968Y443672D01*
X50937Y444362D01*
X49790Y444837D01*
X48573Y445079D01*
D02*
G37*
G36*
X81187Y386811D02*
X79443D01*
X77731Y386471D01*
X76119Y385803D01*
X74668Y384833D01*
X73434Y383599D01*
X72465Y382149D01*
X71797Y380537D01*
X71457Y378825D01*
Y377080D01*
X71797Y375369D01*
X72465Y373757D01*
X73434Y372306D01*
X74668Y371072D01*
X76119Y370103D01*
X77731Y369435D01*
X79443Y369094D01*
X81187D01*
X82899Y369435D01*
X84511Y370103D01*
X85962Y371072D01*
X87196Y372306D01*
X88165Y373757D01*
X88833Y375369D01*
X89173Y377080D01*
Y378825D01*
X88833Y380537D01*
X88165Y382149D01*
X87196Y383599D01*
X85962Y384833D01*
X84511Y385803D01*
X82899Y386471D01*
X81187Y386811D01*
D02*
G37*
G36*
X469186Y545323D02*
X468137D01*
X467124Y545051D01*
X466215Y544527D01*
X465473Y543785D01*
X464949Y542876D01*
X464677Y541863D01*
Y540814D01*
X464949Y539801D01*
X465473Y538892D01*
X466215Y538150D01*
X467124Y537626D01*
X468137Y537354D01*
X469186D01*
X470199Y537626D01*
X471108Y538150D01*
X471850Y538892D01*
X472374Y539801D01*
X472646Y540814D01*
Y541863D01*
X472374Y542876D01*
X471850Y543785D01*
X471108Y544527D01*
X470199Y545051D01*
X469186Y545323D01*
D02*
G37*
G36*
X462646D02*
X454677D01*
Y537354D01*
X462646D01*
Y545323D01*
D02*
G37*
G36*
X441282Y541929D02*
X440608D01*
X439957Y541755D01*
X439374Y541418D01*
X438897Y540941D01*
X438560Y540358D01*
X438386Y539707D01*
Y539033D01*
X438560Y538382D01*
X438897Y537799D01*
X439374Y537322D01*
X439957Y536985D01*
X440608Y536811D01*
X441282D01*
X441933Y536985D01*
X442516Y537322D01*
X442993Y537799D01*
X443329Y538382D01*
X443504Y539033D01*
Y539707D01*
X443329Y540358D01*
X442993Y540941D01*
X442516Y541418D01*
X441933Y541755D01*
X441282Y541929D01*
D02*
G37*
G36*
X495742Y539567D02*
X494501D01*
X493284Y539325D01*
X492138Y538850D01*
X491106Y538161D01*
X490229Y537283D01*
X489539Y536251D01*
X489064Y535105D01*
X488822Y533888D01*
Y532647D01*
X489064Y531430D01*
X489539Y530284D01*
X490229Y529252D01*
X491106Y528375D01*
X492138Y527685D01*
X493284Y527211D01*
X494501Y526968D01*
X495742D01*
X496959Y527211D01*
X498105Y527685D01*
X499137Y528375D01*
X500014Y529252D01*
X500704Y530284D01*
X501179Y531430D01*
X501421Y532647D01*
Y533888D01*
X501179Y535105D01*
X500704Y536251D01*
X500014Y537283D01*
X499137Y538161D01*
X498105Y538850D01*
X496959Y539325D01*
X495742Y539567D01*
D02*
G37*
G36*
X441282Y522244D02*
X440608D01*
X439957Y522070D01*
X439374Y521733D01*
X438897Y521256D01*
X438560Y520673D01*
X438386Y520022D01*
Y519348D01*
X438560Y518697D01*
X438897Y518114D01*
X439374Y517637D01*
X439957Y517300D01*
X440608Y517126D01*
X441282D01*
X441933Y517300D01*
X442516Y517637D01*
X442993Y518114D01*
X443329Y518697D01*
X443504Y519348D01*
Y520022D01*
X443329Y520673D01*
X442993Y521256D01*
X442516Y521733D01*
X441933Y522070D01*
X441282Y522244D01*
D02*
G37*
G36*
X528356Y481299D02*
X526611D01*
X524900Y480959D01*
X523288Y480291D01*
X521837Y479322D01*
X520603Y478088D01*
X519634Y476637D01*
X518966Y475025D01*
X518625Y473313D01*
Y471568D01*
X518966Y469857D01*
X519634Y468245D01*
X520603Y466794D01*
X521837Y465560D01*
X523288Y464591D01*
X524900Y463923D01*
X526611Y463583D01*
X528356D01*
X530067Y463923D01*
X531680Y464591D01*
X533131Y465560D01*
X534364Y466794D01*
X535334Y468245D01*
X536001Y469857D01*
X536342Y471568D01*
Y473313D01*
X536001Y475025D01*
X535334Y476637D01*
X534364Y478088D01*
X533131Y479322D01*
X531680Y480291D01*
X530067Y480959D01*
X528356Y481299D01*
D02*
G37*
G36*
X609252Y352559D02*
X603150D01*
Y340354D01*
X604482D01*
Y338416D01*
X604251Y338186D01*
X603915Y337602D01*
X603740Y336951D01*
Y336277D01*
X603915Y335626D01*
X604251Y335043D01*
X604728Y334566D01*
X605311Y334229D01*
X605962Y334055D01*
X606636D01*
X607287Y334229D01*
X607870Y334566D01*
X608347Y335043D01*
X608684Y335626D01*
X608858Y336277D01*
Y336951D01*
X608684Y337602D01*
X608347Y338186D01*
X608018Y338514D01*
Y340354D01*
X609252D01*
Y352559D01*
D02*
G37*
G36*
X618307Y316634D02*
X613976D01*
Y315215D01*
X613742D01*
X613065Y315080D01*
X612836Y314927D01*
X612492Y314697D01*
X612492Y314697D01*
X607047Y309252D01*
X604626D01*
Y304921D01*
X609547D01*
Y306751D01*
X614474Y311679D01*
X615711D01*
X615881Y311713D01*
X618307D01*
Y316634D01*
D02*
G37*
G36*
X590551Y242155D02*
X589394Y242040D01*
X588280Y241703D01*
X587254Y241155D01*
X586355Y240417D01*
X573521Y227582D01*
X572783Y226683D01*
X572234Y225657D01*
X571897Y224543D01*
X571782Y223386D01*
X571897Y222228D01*
X572234Y221115D01*
X572783Y220089D01*
X573521Y219190D01*
X574420Y218452D01*
X575446Y217903D01*
X576559Y217566D01*
X577716Y217452D01*
X578874Y217566D01*
X579987Y217903D01*
X581013Y218452D01*
X581913Y219190D01*
X594747Y232024D01*
X595485Y232924D01*
X596034Y233950D01*
X596371Y235063D01*
X596485Y236221D01*
X596371Y237378D01*
X596034Y238491D01*
X595485Y239517D01*
X594747Y240417D01*
X593848Y241155D01*
X592822Y241703D01*
X591709Y242040D01*
X590551Y242155D01*
D02*
G37*
G36*
X554744Y200324D02*
X554454Y200295D01*
X547736D01*
Y194193D01*
X548810D01*
Y182017D01*
X539744D01*
X538586Y181903D01*
X537473Y181565D01*
X536447Y181017D01*
X535548Y180279D01*
X534810Y179379D01*
X534262Y178354D01*
X533924Y177240D01*
X533810Y176083D01*
X533924Y174925D01*
X534262Y173812D01*
X534810Y172786D01*
X535548Y171887D01*
X536447Y171149D01*
X537473Y170600D01*
X538586Y170263D01*
X539744Y170149D01*
X554744D01*
X555902Y170263D01*
X557015Y170600D01*
X558041Y171149D01*
X558940Y171887D01*
X559678Y172786D01*
X560226Y173812D01*
X560564Y174925D01*
X560678Y176083D01*
Y194193D01*
X562500D01*
Y200295D01*
X555034D01*
X554744Y200324D01*
D02*
G37*
G36*
X81187Y296260D02*
X79443D01*
X77731Y295919D01*
X76119Y295252D01*
X74668Y294282D01*
X73434Y293048D01*
X72465Y291598D01*
X71797Y289985D01*
X71457Y288274D01*
Y286529D01*
X71797Y284818D01*
X72465Y283206D01*
X73434Y281755D01*
X74668Y280521D01*
X76119Y279552D01*
X77731Y278884D01*
X79443Y278543D01*
X81187D01*
X82899Y278884D01*
X84511Y279552D01*
X85962Y280521D01*
X87196Y281755D01*
X88165Y283206D01*
X88833Y284818D01*
X89173Y286529D01*
Y288274D01*
X88833Y289985D01*
X88165Y291598D01*
X87196Y293048D01*
X85962Y294282D01*
X84511Y295252D01*
X82899Y295919D01*
X81187Y296260D01*
D02*
G37*
G36*
X48573Y263976D02*
X47332D01*
X46115Y263734D01*
X44969Y263259D01*
X43937Y262570D01*
X43060Y261693D01*
X42371Y260661D01*
X41896Y259515D01*
X41654Y258298D01*
Y257057D01*
X41896Y255840D01*
X42371Y254693D01*
X43060Y253662D01*
X43937Y252784D01*
X44969Y252095D01*
X46115Y251620D01*
X47332Y251378D01*
X48573D01*
X49790Y251620D01*
X50937Y252095D01*
X51968Y252784D01*
X52846Y253662D01*
X53535Y254693D01*
X54010Y255840D01*
X54252Y257057D01*
Y258298D01*
X54010Y259515D01*
X53535Y260661D01*
X52846Y261693D01*
X51968Y262570D01*
X50937Y263259D01*
X49790Y263734D01*
X48573Y263976D01*
D02*
G37*
G36*
X81187Y117157D02*
X79443D01*
X77731Y116817D01*
X76119Y116149D01*
X74668Y115180D01*
X73434Y113946D01*
X72465Y112495D01*
X71797Y110883D01*
X71457Y109172D01*
Y107427D01*
X71797Y105715D01*
X72465Y104103D01*
X73434Y102652D01*
X74668Y101418D01*
X76119Y100449D01*
X77731Y99781D01*
X79443Y99441D01*
X81187D01*
X82899Y99781D01*
X84511Y100449D01*
X85962Y101418D01*
X87196Y102652D01*
X88165Y104103D01*
X88833Y105715D01*
X89173Y107427D01*
Y109172D01*
X88833Y110883D01*
X88165Y112495D01*
X87196Y113946D01*
X85962Y115180D01*
X84511Y116149D01*
X82899Y116817D01*
X81187Y117157D01*
D02*
G37*
G36*
X48573Y82874D02*
X47332D01*
X46115Y82632D01*
X44969Y82157D01*
X43937Y81468D01*
X43060Y80590D01*
X42371Y79559D01*
X41896Y78412D01*
X41654Y77195D01*
Y75954D01*
X41896Y74737D01*
X42371Y73591D01*
X43060Y72559D01*
X43937Y71682D01*
X44969Y70992D01*
X46115Y70518D01*
X47332Y70276D01*
X48573D01*
X49790Y70518D01*
X50937Y70992D01*
X51968Y71682D01*
X52846Y72559D01*
X53535Y73591D01*
X54010Y74737D01*
X54252Y75954D01*
Y77195D01*
X54010Y78412D01*
X53535Y79559D01*
X52846Y80590D01*
X51968Y81468D01*
X50937Y82157D01*
X49790Y82632D01*
X48573Y82874D01*
D02*
G37*
G36*
X81187Y24606D02*
X79443D01*
X77731Y24266D01*
X76119Y23598D01*
X74668Y22629D01*
X73434Y21395D01*
X72465Y19944D01*
X71797Y18332D01*
X71457Y16621D01*
Y14876D01*
X71797Y13164D01*
X72465Y11552D01*
X73434Y10101D01*
X74668Y8867D01*
X76119Y7898D01*
X77731Y7230D01*
X79443Y6890D01*
X81187D01*
X82899Y7230D01*
X84511Y7898D01*
X85962Y8867D01*
X87196Y10101D01*
X88165Y11552D01*
X88833Y13164D01*
X89173Y14876D01*
Y16621D01*
X88833Y18332D01*
X88165Y19944D01*
X87196Y21395D01*
X85962Y22629D01*
X84511Y23598D01*
X82899Y24266D01*
X81187Y24606D01*
D02*
G37*
G36*
X693622Y134996D02*
X684646D01*
Y125529D01*
X684151D01*
X683912Y125841D01*
X683377Y126251D01*
X682755Y126509D01*
X682087Y126597D01*
X681419Y126509D01*
X680796Y126251D01*
X680262Y125841D01*
X679851Y125306D01*
X679593Y124684D01*
X679505Y124016D01*
X679593Y123348D01*
X679851Y122725D01*
X680262Y122191D01*
X680796Y121780D01*
X681419Y121523D01*
X682087Y121435D01*
X682755Y121523D01*
X683377Y121780D01*
X683912Y122191D01*
X684151Y122502D01*
X684646D01*
Y119232D01*
X693622D01*
Y134996D01*
D02*
G37*
G36*
X605039D02*
X596063D01*
Y119232D01*
X599038D01*
Y117910D01*
X594907Y113779D01*
X591339D01*
Y106693D01*
X592680D01*
Y105905D01*
X591339D01*
Y103876D01*
X590823D01*
X590244Y103760D01*
X589753Y103432D01*
X589753Y103432D01*
X588800Y102480D01*
X588472Y101989D01*
X588453Y101892D01*
X588357Y101409D01*
X588357Y101409D01*
Y100226D01*
X585215D01*
X582008Y103432D01*
X581517Y103760D01*
X581421Y103779D01*
X580938Y103876D01*
X580938Y103876D01*
X580020D01*
Y104527D01*
X575098D01*
Y102337D01*
X574508Y101746D01*
Y104527D01*
X573561D01*
Y108071D01*
X574508D01*
Y112402D01*
X569587D01*
Y108071D01*
X570534D01*
Y104527D01*
X569587D01*
Y101604D01*
X568843D01*
X568475Y101972D01*
X568526Y102362D01*
X568438Y103030D01*
X568180Y103653D01*
X567770Y104187D01*
X567235Y104597D01*
X566613Y104855D01*
X565945Y104943D01*
X565277Y104855D01*
X564654Y104597D01*
X564120Y104187D01*
X563710Y103653D01*
X563452Y103030D01*
X563364Y102362D01*
X563452Y101694D01*
X563710Y101072D01*
X564120Y100537D01*
X564654Y100127D01*
X565277Y99869D01*
X565945Y99781D01*
X566334Y99832D01*
X567146Y99020D01*
X567146Y99020D01*
X567475Y98801D01*
X567637Y98692D01*
X568217Y98577D01*
X568217Y98577D01*
X574992D01*
X574992Y98577D01*
X575475Y98673D01*
X575571Y98692D01*
X576062Y99020D01*
X577239Y100197D01*
X580020D01*
Y100849D01*
X580311D01*
X583518Y97642D01*
X583518Y97642D01*
X583846Y97423D01*
X584009Y97314D01*
X584588Y97199D01*
X584588Y97199D01*
X589231D01*
X589231Y97199D01*
X589714Y97295D01*
X589810Y97315D01*
X590301Y97642D01*
X590940Y98281D01*
X590940Y98281D01*
X591268Y98772D01*
X591339Y99126D01*
Y98819D01*
X597047D01*
Y105905D01*
X595706D01*
Y106693D01*
X597047D01*
Y111639D01*
X601621Y116213D01*
X601621Y116213D01*
X601949Y116704D01*
X602065Y117283D01*
Y119232D01*
X605039D01*
Y125601D01*
X605527D01*
X606722Y124405D01*
X606671Y124016D01*
X606759Y123348D01*
X607017Y122725D01*
X607427Y122191D01*
X607961Y121780D01*
X608584Y121523D01*
X609252Y121435D01*
X609920Y121523D01*
X610542Y121780D01*
X611077Y122191D01*
X611487Y122725D01*
X611745Y123348D01*
X611833Y124016D01*
X611745Y124684D01*
X611487Y125306D01*
X611077Y125841D01*
X610542Y126251D01*
X609920Y126509D01*
X609252Y126597D01*
X608862Y126546D01*
X607224Y128184D01*
X606733Y128512D01*
X606637Y128531D01*
X606153Y128628D01*
X606153Y128628D01*
X605039D01*
Y134996D01*
D02*
G37*
G36*
X527484Y119137D02*
X525747Y118966D01*
X524077Y118460D01*
X522539Y117637D01*
X521190Y116530D01*
X520083Y115181D01*
X519260Y113643D01*
X518754Y111973D01*
X518582Y110236D01*
X518754Y108500D01*
X519260Y106830D01*
X520083Y105291D01*
X521190Y103942D01*
X522539Y102835D01*
X524077Y102013D01*
X525747Y101506D01*
X527484Y101335D01*
X529220Y101506D01*
X530890Y102013D01*
X532429Y102835D01*
X533778Y103942D01*
X534885Y105291D01*
X535707Y106830D01*
X536214Y108500D01*
X536385Y110236D01*
X536214Y111973D01*
X535707Y113643D01*
X534885Y115181D01*
X533778Y116530D01*
X532429Y117637D01*
X530890Y118460D01*
X529220Y118966D01*
X527484Y119137D01*
D02*
G37*
G36*
X684039Y86171D02*
X683863Y86153D01*
X682732Y85810D01*
X681690Y85253D01*
X681674Y85240D01*
X684039D01*
Y86171D01*
D02*
G37*
G36*
X672639Y86171D02*
Y85240D01*
X675005D01*
X674989Y85253D01*
X673947Y85810D01*
X672816Y86153D01*
X672639Y86171D01*
D02*
G37*
G36*
X686039D02*
Y79740D01*
X691068D01*
Y80240D01*
X690952Y81416D01*
X690610Y82547D01*
X690052Y83590D01*
X689302Y84503D01*
X688389Y85253D01*
X687347Y85810D01*
X686216Y86153D01*
X686039Y86171D01*
D02*
G37*
G36*
X670639Y86171D02*
X670463Y86153D01*
X669332Y85810D01*
X668290Y85253D01*
X667376Y84503D01*
X666626Y83590D01*
X666069Y82547D01*
X665726Y81416D01*
X665610Y80240D01*
Y79740D01*
X670639D01*
Y86171D01*
D02*
G37*
G36*
X684039Y72240D02*
X681674D01*
X681690Y72227D01*
X682732Y71670D01*
X683863Y71327D01*
X684039Y71310D01*
Y72240D01*
D02*
G37*
G36*
X670639Y77740D02*
X665610D01*
Y77240D01*
X665726Y76064D01*
X666069Y74933D01*
X666626Y73891D01*
X667376Y72977D01*
X668290Y72227D01*
X669332Y71670D01*
X670463Y71327D01*
X670639Y71310D01*
Y77740D01*
D02*
G37*
G36*
X691068D02*
X686039D01*
Y71310D01*
X686216Y71327D01*
X687347Y71670D01*
X688389Y72227D01*
X689302Y72977D01*
X690052Y73891D01*
X690610Y74933D01*
X690952Y76064D01*
X691068Y77240D01*
Y77740D01*
D02*
G37*
G36*
X675005Y72240D02*
X672639D01*
Y71310D01*
X672816Y71327D01*
X673947Y71670D01*
X674989Y72227D01*
X675005Y72240D01*
D02*
G37*
G36*
X747221Y45518D02*
Y40370D01*
X752369D01*
X752347Y40589D01*
X751992Y41761D01*
X751414Y42840D01*
X750637Y43787D01*
X749691Y44564D01*
X748611Y45141D01*
X747439Y45497D01*
X747221Y45518D01*
D02*
G37*
G36*
X745221D02*
X745002Y45497D01*
X743830Y45141D01*
X742750Y44564D01*
X741804Y43787D01*
X741027Y42840D01*
X740449Y41761D01*
X740094Y40589D01*
X740072Y40370D01*
X745221D01*
Y45518D01*
D02*
G37*
G36*
X752369Y38370D02*
X747221D01*
Y33222D01*
X747439Y33244D01*
X748611Y33599D01*
X749691Y34176D01*
X750637Y34953D01*
X751414Y35900D01*
X751992Y36980D01*
X752347Y38151D01*
X752369Y38370D01*
D02*
G37*
G36*
X745221D02*
X740072D01*
X740094Y38151D01*
X740449Y36980D01*
X741027Y35900D01*
X741804Y34953D01*
X742750Y34176D01*
X743830Y33599D01*
X745002Y33244D01*
X745221Y33222D01*
Y38370D01*
D02*
G37*
G36*
X569012Y34532D02*
X564468D01*
X559925D01*
Y31382D01*
Y30626D01*
X564468D01*
X569012D01*
Y31382D01*
Y34532D01*
D02*
G37*
G36*
X558185D02*
X553642D01*
X549098D01*
Y31382D01*
Y30626D01*
X553642D01*
X558185D01*
Y31382D01*
Y34532D01*
D02*
G37*
G36*
X579839D02*
X575295D01*
X570752D01*
Y31382D01*
Y30626D01*
X575295D01*
X579839D01*
Y31382D01*
Y34532D01*
D02*
G37*
G36*
X590665D02*
X586122D01*
X581579D01*
Y31382D01*
Y30626D01*
X586122D01*
X590665D01*
Y31382D01*
Y34532D01*
D02*
G37*
G36*
X569012Y28626D02*
X564468D01*
X559925D01*
Y25476D01*
Y24721D01*
X564468D01*
X569012D01*
Y25476D01*
Y28626D01*
D02*
G37*
G36*
X558185D02*
X553642D01*
X549098D01*
Y25476D01*
Y24721D01*
X553642D01*
X558185D01*
Y25476D01*
Y28626D01*
D02*
G37*
G36*
X579839D02*
X575295D01*
X570752D01*
Y25476D01*
Y24721D01*
X575295D01*
X579839D01*
Y25476D01*
Y28626D01*
D02*
G37*
G36*
X590665D02*
X586122D01*
X581579D01*
Y25476D01*
Y24721D01*
X586122D01*
X590665D01*
Y25476D01*
Y28626D01*
D02*
G37*
G36*
X569012Y22720D02*
X564468D01*
X559925D01*
Y19571D01*
Y18815D01*
X564468D01*
X569012D01*
Y19571D01*
Y22720D01*
D02*
G37*
G36*
X558185D02*
X553642D01*
X549098D01*
Y19571D01*
Y18815D01*
X553642D01*
X558185D01*
Y19571D01*
Y22720D01*
D02*
G37*
G36*
X579839D02*
X575295D01*
X570752D01*
Y19571D01*
Y18815D01*
X575295D01*
X579839D01*
Y19571D01*
Y22720D01*
D02*
G37*
G36*
X590665D02*
X586122D01*
X581579D01*
Y19571D01*
Y18815D01*
X586122D01*
X590665D01*
Y19571D01*
Y22720D01*
D02*
G37*
G36*
X569012Y16815D02*
X564468D01*
X559925D01*
Y13665D01*
Y12910D01*
X564468D01*
X569012D01*
Y13665D01*
Y16815D01*
D02*
G37*
G36*
X558185D02*
X553642D01*
X549098D01*
Y13665D01*
Y12910D01*
X553642D01*
X558185D01*
Y13665D01*
Y16815D01*
D02*
G37*
G36*
X579839D02*
X575295D01*
X570752D01*
Y13665D01*
Y12910D01*
X575295D01*
X579839D01*
Y13665D01*
Y16815D01*
D02*
G37*
G36*
X590665D02*
X586122D01*
X581579D01*
Y13665D01*
Y12910D01*
X586122D01*
X590665D01*
Y13665D01*
Y16815D01*
D02*
G37*
G36*
X569012Y10909D02*
X564468D01*
X559925D01*
Y7760D01*
Y7004D01*
X564468D01*
X569012D01*
Y7760D01*
Y10909D01*
D02*
G37*
G36*
X558185D02*
X553642D01*
X549098D01*
Y7760D01*
Y7004D01*
X553642D01*
X558185D01*
Y7760D01*
Y10909D01*
D02*
G37*
G36*
X579839D02*
X575295D01*
X570752D01*
Y7760D01*
Y7004D01*
X575295D01*
X579839D01*
Y7760D01*
Y10909D01*
D02*
G37*
G36*
X590665D02*
X586122D01*
X581579D01*
Y7760D01*
Y7004D01*
X586122D01*
X590665D01*
Y7760D01*
Y10909D01*
D02*
G37*
G36*
Y5004D02*
X587122D01*
Y1854D01*
X590665D01*
Y5004D01*
D02*
G37*
G36*
X585122D02*
X581579D01*
Y1854D01*
X585122D01*
Y5004D01*
D02*
G37*
G36*
X579839D02*
X576295D01*
Y1854D01*
X579839D01*
Y5004D01*
D02*
G37*
G36*
X574295D02*
X570752D01*
Y1854D01*
X574295D01*
Y5004D01*
D02*
G37*
G36*
X569012D02*
X565469D01*
Y1854D01*
X569012D01*
Y5004D01*
D02*
G37*
G36*
X563469D02*
X559925D01*
Y1854D01*
X563469D01*
Y5004D01*
D02*
G37*
G36*
X558185D02*
X554642D01*
Y1854D01*
X558185D01*
Y5004D01*
D02*
G37*
G36*
X552642D02*
X549098D01*
Y1854D01*
X552642D01*
Y5004D01*
D02*
G37*
G36*
X547358D02*
X543815D01*
Y1854D01*
X547358D01*
Y5004D01*
D02*
G37*
G36*
X644882Y60630D02*
X639173D01*
Y59495D01*
X636417D01*
Y60630D01*
X630709D01*
Y53543D01*
X636417D01*
Y54678D01*
X639173D01*
Y53543D01*
X644882D01*
Y60630D01*
D02*
G37*
G36*
X652165D02*
X646457D01*
Y53543D01*
X646802D01*
Y51138D01*
X646542Y50878D01*
X645613D01*
X645613Y50878D01*
X644653Y50687D01*
X643839Y50143D01*
X643839Y50143D01*
X643106Y49409D01*
X640551D01*
Y37205D01*
X646654D01*
Y45860D01*
X647581D01*
X648541Y46051D01*
X649355Y46595D01*
X650714Y47954D01*
X650882Y48051D01*
X651359Y48527D01*
X651696Y49111D01*
X651870Y49762D01*
Y50435D01*
X651820Y50623D01*
Y53543D01*
X652165D01*
Y60630D01*
D02*
G37*
G36*
X732437Y45587D02*
X727220D01*
Y40370D01*
X732437D01*
Y45587D01*
D02*
G37*
G36*
X725220D02*
X720004D01*
Y40370D01*
X725220D01*
Y45587D01*
D02*
G37*
G36*
X464583Y41120D02*
Y38500D01*
X467203D01*
X467083Y38950D01*
X466588Y39806D01*
X465889Y40505D01*
X465032Y41000D01*
X464583Y41120D01*
D02*
G37*
G36*
X456709Y41120D02*
Y38500D01*
X459329D01*
X459209Y38950D01*
X458714Y39806D01*
X458015Y40505D01*
X457158Y41000D01*
X456709Y41120D01*
D02*
G37*
G36*
X440961D02*
Y38500D01*
X443581D01*
X443461Y38950D01*
X442966Y39806D01*
X442267Y40505D01*
X441410Y41000D01*
X440961Y41120D01*
D02*
G37*
G36*
X472457D02*
Y38500D01*
X475077D01*
X474957Y38950D01*
X474462Y39806D01*
X473763Y40505D01*
X472906Y41000D01*
X472457Y41120D01*
D02*
G37*
G36*
X438961Y41120D02*
X438511Y41000D01*
X437654Y40505D01*
X436955Y39806D01*
X436461Y38950D01*
X436340Y38500D01*
X438961D01*
Y41120D01*
D02*
G37*
G36*
X470457D02*
X470007Y41000D01*
X469150Y40505D01*
X468451Y39806D01*
X467957Y38950D01*
X467836Y38500D01*
X470457D01*
Y41120D01*
D02*
G37*
G36*
X462583Y41120D02*
X462133Y41000D01*
X461276Y40505D01*
X460577Y39806D01*
X460083Y38950D01*
X459962Y38500D01*
X462583D01*
Y41120D01*
D02*
G37*
G36*
X604125Y49114D02*
X602962D01*
X601821Y48887D01*
X600746Y48442D01*
X599779Y47796D01*
X598956Y46973D01*
X598310Y46006D01*
X597865Y44931D01*
X597638Y43790D01*
Y42627D01*
X597865Y41486D01*
X598310Y40411D01*
X598956Y39444D01*
X599779Y38622D01*
X600746Y37975D01*
X601821Y37530D01*
X602962Y37303D01*
X604125D01*
X605266Y37530D01*
X606341Y37975D01*
X607308Y38622D01*
X608130Y39444D01*
X608777Y40411D01*
X609222Y41486D01*
X609449Y42627D01*
Y43790D01*
X609222Y44931D01*
X608777Y46006D01*
X608130Y46973D01*
X607308Y47796D01*
X606341Y48442D01*
X605266Y48887D01*
X604125Y49114D01*
D02*
G37*
G36*
X493224Y39681D02*
X489681D01*
Y36531D01*
X493224D01*
Y39681D01*
D02*
G37*
G36*
X536531D02*
X532988D01*
Y36531D01*
X536531D01*
Y39681D01*
D02*
G37*
G36*
X504051D02*
X500508D01*
Y36531D01*
X504051D01*
Y39681D01*
D02*
G37*
G36*
X514878D02*
X511335D01*
Y36531D01*
X514878D01*
Y39681D01*
D02*
G37*
G36*
X525705D02*
X522161D01*
Y36531D01*
X525705D01*
Y39681D01*
D02*
G37*
G36*
X520161D02*
X516618D01*
Y36531D01*
X520161D01*
Y39681D01*
D02*
G37*
G36*
X509335D02*
X505791D01*
Y36531D01*
X509335D01*
Y39681D01*
D02*
G37*
G36*
X530988D02*
X527445D01*
Y36531D01*
X530988D01*
Y39681D01*
D02*
G37*
G36*
X498508D02*
X494965D01*
Y36531D01*
X498508D01*
Y39681D01*
D02*
G37*
G36*
X487681D02*
X484138D01*
Y36531D01*
X487681D01*
Y39681D01*
D02*
G37*
G36*
X467203Y36500D02*
X464583D01*
Y33880D01*
X465032Y34000D01*
X465889Y34495D01*
X466588Y35194D01*
X467083Y36050D01*
X467203Y36500D01*
D02*
G37*
G36*
X470457D02*
X467836D01*
X467957Y36050D01*
X468451Y35194D01*
X469150Y34495D01*
X470007Y34000D01*
X470457Y33880D01*
Y36500D01*
D02*
G37*
G36*
X438961D02*
X436340D01*
X436461Y36050D01*
X436955Y35194D01*
X437654Y34495D01*
X438511Y34000D01*
X438961Y33880D01*
Y36500D01*
D02*
G37*
G36*
X475077D02*
X472457D01*
Y33880D01*
X472906Y34000D01*
X473763Y34495D01*
X474462Y35194D01*
X474957Y36050D01*
X475077Y36500D01*
D02*
G37*
G36*
X443581D02*
X440961D01*
Y33880D01*
X441410Y34000D01*
X442267Y34495D01*
X442966Y35194D01*
X443461Y36050D01*
X443581Y36500D01*
D02*
G37*
G36*
X462583D02*
X459962D01*
X460083Y36050D01*
X460577Y35194D01*
X461276Y34495D01*
X462133Y34000D01*
X462583Y33880D01*
Y36500D01*
D02*
G37*
G36*
X446835D02*
X444214D01*
X444335Y36050D01*
X444829Y35194D01*
X445528Y34495D01*
X446385Y34000D01*
X446835Y33880D01*
Y36500D01*
D02*
G37*
G36*
X732437Y38370D02*
X727220D01*
Y33154D01*
X732437D01*
Y38370D01*
D02*
G37*
G36*
X725220D02*
X720004D01*
Y33154D01*
X725220D01*
Y38370D01*
D02*
G37*
G36*
X525705Y34532D02*
X521161D01*
X516618D01*
Y31382D01*
Y30626D01*
X521161D01*
X525705D01*
Y31382D01*
Y34532D01*
D02*
G37*
G36*
X514878D02*
X510335D01*
X505791D01*
Y31382D01*
Y30626D01*
X510335D01*
X514878D01*
Y31382D01*
Y34532D01*
D02*
G37*
G36*
X536531D02*
X531988D01*
X527445D01*
Y31382D01*
Y30626D01*
X531988D01*
X536531D01*
Y31382D01*
Y34532D01*
D02*
G37*
G36*
X504051D02*
X499508D01*
X494965D01*
Y31382D01*
Y30626D01*
X499508D01*
X504051D01*
Y31382D01*
Y34532D01*
D02*
G37*
G36*
X493224D02*
X488681D01*
X484138D01*
Y31382D01*
Y30626D01*
X488681D01*
X493224D01*
Y31382D01*
Y34532D01*
D02*
G37*
G36*
X464583Y33246D02*
Y30626D01*
X467203D01*
X467083Y31076D01*
X466588Y31932D01*
X465889Y32631D01*
X465032Y33126D01*
X464583Y33246D01*
D02*
G37*
G36*
X448835D02*
Y30626D01*
X451455D01*
X451335Y31076D01*
X450840Y31932D01*
X450141Y32631D01*
X449284Y33126D01*
X448835Y33246D01*
D02*
G37*
G36*
X440961Y33246D02*
Y30626D01*
X443581D01*
X443461Y31076D01*
X442966Y31932D01*
X442267Y32631D01*
X441410Y33126D01*
X440961Y33246D01*
D02*
G37*
G36*
X472457D02*
Y30626D01*
X475077D01*
X474957Y31076D01*
X474462Y31932D01*
X473763Y32631D01*
X472906Y33126D01*
X472457Y33246D01*
D02*
G37*
G36*
X470457Y33246D02*
X470007Y33126D01*
X469150Y32631D01*
X468451Y31932D01*
X467957Y31076D01*
X467836Y30626D01*
X470457D01*
Y33246D01*
D02*
G37*
G36*
X446835Y33246D02*
X446385Y33126D01*
X445528Y32631D01*
X444829Y31932D01*
X444335Y31076D01*
X444214Y30626D01*
X446835D01*
Y33246D01*
D02*
G37*
G36*
X451455Y28626D02*
X448835D01*
Y26006D01*
X449284Y26126D01*
X450141Y26621D01*
X450840Y27320D01*
X451335Y28176D01*
X451455Y28626D01*
D02*
G37*
G36*
X470457D02*
X467836D01*
X467957Y28176D01*
X468451Y27320D01*
X469150Y26621D01*
X470007Y26126D01*
X470457Y26006D01*
Y28626D01*
D02*
G37*
G36*
X454709D02*
X452088D01*
X452209Y28176D01*
X452703Y27320D01*
X453403Y26621D01*
X454259Y26126D01*
X454709Y26006D01*
Y28626D01*
D02*
G37*
G36*
X475077D02*
X472457D01*
Y26006D01*
X472906Y26126D01*
X473763Y26621D01*
X474462Y27320D01*
X474957Y28176D01*
X475077Y28626D01*
D02*
G37*
G36*
X446835D02*
X444214D01*
X444335Y28176D01*
X444829Y27320D01*
X445528Y26621D01*
X446385Y26126D01*
X446835Y26006D01*
Y28626D01*
D02*
G37*
G36*
X525705Y28626D02*
X521161D01*
X516618D01*
Y25476D01*
Y24721D01*
X521161D01*
X525705D01*
Y25476D01*
Y28626D01*
D02*
G37*
G36*
X514878D02*
X510335D01*
X505791D01*
Y25476D01*
Y24721D01*
X510335D01*
X514878D01*
Y25476D01*
Y28626D01*
D02*
G37*
G36*
X536531D02*
X531988D01*
X527445D01*
Y25476D01*
Y24721D01*
X531988D01*
X536531D01*
Y25476D01*
Y28626D01*
D02*
G37*
G36*
X504051D02*
X499508D01*
X494965D01*
Y25476D01*
Y24721D01*
X499508D01*
X504051D01*
Y25476D01*
Y28626D01*
D02*
G37*
G36*
X493224D02*
X488681D01*
X484138D01*
Y25476D01*
Y24721D01*
X488681D01*
X493224D01*
Y25476D01*
Y28626D01*
D02*
G37*
G36*
X448835Y25372D02*
Y22752D01*
X451455D01*
X451335Y23202D01*
X450840Y24058D01*
X450141Y24757D01*
X449284Y25252D01*
X448835Y25372D01*
D02*
G37*
G36*
X525705Y22720D02*
X521161D01*
X516618D01*
Y19571D01*
Y18815D01*
X521161D01*
X525705D01*
Y19571D01*
Y22720D01*
D02*
G37*
G36*
X514878D02*
X510335D01*
X505791D01*
Y19571D01*
Y18815D01*
X510335D01*
X514878D01*
Y19571D01*
Y22720D01*
D02*
G37*
G36*
X536531D02*
X531988D01*
X527445D01*
Y19571D01*
Y18815D01*
X531988D01*
X536531D01*
Y19571D01*
Y22720D01*
D02*
G37*
G36*
X504051D02*
X499508D01*
X494965D01*
Y19571D01*
Y18815D01*
X499508D01*
X504051D01*
Y19571D01*
Y22720D01*
D02*
G37*
G36*
X493224D02*
X488681D01*
X484138D01*
Y19571D01*
Y18815D01*
X488681D01*
X493224D01*
Y19571D01*
Y22720D01*
D02*
G37*
G36*
X462583Y20752D02*
X459962D01*
X460083Y20302D01*
X460577Y19446D01*
X461276Y18746D01*
X462133Y18252D01*
X462583Y18132D01*
Y20752D01*
D02*
G37*
G36*
X464583Y17498D02*
Y14878D01*
X467203D01*
X467083Y15328D01*
X466588Y16184D01*
X465889Y16883D01*
X465032Y17378D01*
X464583Y17498D01*
D02*
G37*
G36*
X525705Y16815D02*
X521161D01*
X516618D01*
Y13665D01*
Y12910D01*
X521161D01*
X525705D01*
Y13665D01*
Y16815D01*
D02*
G37*
G36*
X514878D02*
X510335D01*
X505791D01*
Y13665D01*
Y12910D01*
X510335D01*
X514878D01*
Y13665D01*
Y16815D01*
D02*
G37*
G36*
X536531D02*
X531988D01*
X527445D01*
Y13665D01*
Y12910D01*
X531988D01*
X536531D01*
Y13665D01*
Y16815D01*
D02*
G37*
G36*
X504051D02*
X499508D01*
X494965D01*
Y13665D01*
Y12910D01*
X499508D01*
X504051D01*
Y13665D01*
Y16815D01*
D02*
G37*
G36*
X493224D02*
X488681D01*
X484138D01*
Y13665D01*
Y12910D01*
X488681D01*
X493224D01*
Y13665D01*
Y16815D01*
D02*
G37*
G36*
X467203Y12878D02*
X464583D01*
Y10257D01*
X465032Y10378D01*
X465889Y10872D01*
X466588Y11572D01*
X467083Y12428D01*
X467203Y12878D01*
D02*
G37*
G36*
X464583Y9624D02*
Y7004D01*
X467203D01*
X467083Y7454D01*
X466588Y8310D01*
X465889Y9009D01*
X465032Y9504D01*
X464583Y9624D01*
D02*
G37*
G36*
X462583Y9624D02*
X462133Y9504D01*
X461276Y9009D01*
X460577Y8310D01*
X460083Y7454D01*
X459962Y7004D01*
X462583D01*
Y9624D01*
D02*
G37*
G36*
X525705Y10909D02*
X521161D01*
X516618D01*
Y7760D01*
Y7004D01*
X521161D01*
X525705D01*
Y7760D01*
Y10909D01*
D02*
G37*
G36*
X514878D02*
X510335D01*
X505791D01*
Y7760D01*
Y7004D01*
X510335D01*
X514878D01*
Y7760D01*
Y10909D01*
D02*
G37*
G36*
X536531D02*
X531988D01*
X527445D01*
Y7760D01*
Y7004D01*
X531988D01*
X536531D01*
Y7760D01*
Y10909D01*
D02*
G37*
G36*
X493224D02*
X488681D01*
X484138D01*
Y7760D01*
Y7004D01*
X488681D01*
Y6004D01*
D01*
Y7004D01*
X493224D01*
Y7760D01*
Y10909D01*
D02*
G37*
G36*
X504051D02*
X499508D01*
X494965D01*
Y7760D01*
Y7004D01*
X499508D01*
Y6004D01*
D01*
Y7004D01*
X504051D01*
Y7760D01*
Y10909D01*
D02*
G37*
G36*
X536531Y5004D02*
X532988D01*
Y1854D01*
X536531D01*
Y5004D01*
D02*
G37*
G36*
X530988D02*
X527445D01*
Y1854D01*
X530988D01*
Y5004D01*
D02*
G37*
G36*
X525705D02*
X522161D01*
Y1854D01*
X525705D01*
Y5004D01*
D02*
G37*
G36*
X520161D02*
X516618D01*
Y1854D01*
X520161D01*
Y5004D01*
D02*
G37*
G36*
X514878D02*
X511335D01*
Y1854D01*
X514878D01*
Y5004D01*
D02*
G37*
G36*
X509335D02*
X505791D01*
Y1854D01*
X509335D01*
Y5004D01*
D02*
G37*
G36*
X504051D02*
X500508D01*
Y1854D01*
X504051D01*
Y5004D01*
D02*
G37*
G36*
X498508D02*
X494965D01*
Y1854D01*
X498508D01*
Y5004D01*
D02*
G37*
G36*
X493224D02*
X489681D01*
Y1854D01*
X493224D01*
Y5004D01*
D02*
G37*
G36*
X487681D02*
X484138D01*
Y1854D01*
X487681D01*
Y5004D01*
D02*
G37*
%LPD*%
D10*
X383726Y518385D02*
X388110Y514001D01*
X383097Y518385D02*
X383726D01*
X382781Y518701D02*
X383097Y518385D01*
X172097Y159498D02*
Y166208D01*
X172047Y159449D02*
X172097Y159498D01*
Y166208D02*
X172146Y166257D01*
X388110Y514001D02*
X391431D01*
X392551Y512881D01*
Y512192D02*
Y512881D01*
X468159Y281447D02*
X468426Y281180D01*
X468110Y281496D02*
X468159Y281447D01*
X506657Y277921D02*
X537764D01*
X475512Y277437D02*
X506173D01*
X468426Y281180D02*
X471769D01*
X537764Y277921D02*
X581693Y321850D01*
X506173Y277437D02*
X506657Y277921D01*
X471769Y281180D02*
X475512Y277437D01*
X476378Y279528D02*
X503937D01*
X468504Y287402D02*
X476378Y279528D01*
X503937D02*
X506116Y281706D01*
X579128Y275006D02*
X580551Y276429D01*
X578740Y277559D02*
X579421D01*
X511978Y275006D02*
X579128D01*
X347281Y281188D02*
X347441Y281348D01*
X347274Y281194D02*
X347281Y281188D01*
X338902D02*
X338909Y281194D01*
X347274D01*
X347441Y281348D02*
X355167D01*
X431102Y306102D02*
Y312992D01*
Y306102D02*
X445782Y291423D01*
X456608D01*
X403821Y257572D02*
Y273934D01*
X392684Y252302D02*
Y252390D01*
X390957Y254116D02*
X392684Y252390D01*
X396825Y250576D02*
X403821Y257572D01*
X392684Y252302D02*
X394410Y250576D01*
X390407Y254116D02*
X390957D01*
X389998Y254526D02*
X390407Y254116D01*
X394410Y250576D02*
X396825D01*
X296504Y408255D02*
X316349Y428100D01*
Y429495D01*
X338133Y451279D02*
X348819D01*
X316349Y429495D02*
X338133Y451279D01*
X425011Y314961D02*
X429134D01*
X431102Y312992D01*
X423228Y313178D02*
X425011Y314961D01*
X430465Y301497D02*
X431672Y300374D01*
X443550Y289333D02*
X454762D01*
X429831Y301181D02*
X430146Y301497D01*
X443118Y289734D02*
X443550Y289333D01*
X430146Y301497D02*
X430465D01*
X431672Y300374D02*
X443118Y289734D01*
X443550Y289333D02*
X443550Y289333D01*
X443118Y289734D02*
X443118D01*
X456608Y291423D02*
X460630Y287402D01*
X423228Y293341D02*
Y313178D01*
X403821Y273934D02*
X423228Y293341D01*
X506116Y281706D02*
X533675D01*
X460630Y287402D02*
X468504D01*
X454762Y289333D02*
X464136Y279959D01*
X450492Y281890D02*
X456545D01*
X450136Y281459D02*
X450492Y281102D01*
X464136Y272476D02*
Y279959D01*
X533675Y281706D02*
X584350Y332382D01*
X594488D01*
X606201Y346457D02*
X606250Y346408D01*
Y336663D02*
X606299Y336614D01*
X606250Y336663D02*
Y346408D01*
X664259Y274495D02*
X667200D01*
X593201Y263779D02*
X653543D01*
X667200Y274495D02*
X669134Y276429D01*
X653543Y263779D02*
X664259Y274495D01*
X585426Y271554D02*
X593201Y263779D01*
X580551Y274308D02*
Y276429D01*
X583305Y271554D02*
X585426D01*
X580551Y274308D02*
X583305Y271554D01*
X579421Y277559D02*
X580551Y276429D01*
X423602Y262185D02*
X427165D01*
X422872Y262915D02*
X423602Y262185D01*
X422872Y262915D02*
Y267985D01*
X419291Y257874D02*
X423602Y262185D01*
X419291Y257466D02*
X424413Y252344D01*
X419291Y257466D02*
Y257874D01*
Y273622D02*
X419738D01*
X420801Y274685D01*
X427165D01*
Y269685D02*
Y272185D01*
X429918Y274526D02*
X431459Y272985D01*
Y268885D02*
Y272985D01*
X430328Y267754D02*
X431459Y268885D01*
X427165Y274685D02*
X427325Y274526D01*
X429778Y267754D02*
X430328D01*
X427325Y274526D02*
X429918D01*
X429209Y267185D02*
X429778Y267754D01*
X427165Y267185D02*
X429209D01*
X370571Y228248D02*
X370669Y228346D01*
X365256Y228248D02*
X370571D01*
X237950Y266929D02*
X275590D01*
X224053Y253033D02*
X237950Y266929D01*
X224053Y246534D02*
Y253033D01*
Y246534D02*
X227264Y243324D01*
X227953D01*
X179429Y205627D02*
X186811D01*
X188658D02*
X190650Y203636D01*
X171752Y177182D02*
Y184153D01*
X171653Y184252D02*
X171752Y184153D01*
X192520Y206299D02*
Y210630D01*
X399606Y322933D02*
X411417D01*
X387795D02*
X399606D01*
X454724Y239170D02*
Y243996D01*
X427185Y254705D02*
X433051D01*
X427165Y259685D02*
X427211Y259730D01*
X438386Y255807D02*
X438976D01*
X436553Y257640D02*
X438386Y255807D01*
X431863Y257640D02*
X436553D01*
X431568Y257345D02*
X431863Y257640D01*
X432839Y251809D02*
X435152Y249496D01*
X427165Y254685D02*
X427185Y254705D01*
X427211Y259730D02*
X434238D01*
X433051Y254705D02*
X433071Y254724D01*
X431647Y252026D02*
X431863Y251809D01*
X427165Y257185D02*
X427325Y257345D01*
X431863Y251809D02*
X432839D01*
X427325Y252026D02*
X431647D01*
X427006Y252344D02*
X427325Y252026D01*
X434238Y259730D02*
X438386Y263878D01*
X427325Y257345D02*
X431568D01*
X427325Y249526D02*
X430497D01*
X427165Y249685D02*
X427325Y249526D01*
X430497D02*
X432037Y247986D01*
X438693Y249496D02*
X438976Y249213D01*
X435152Y249496D02*
X438693D01*
X438386Y263878D02*
X438976D01*
X439567D01*
X438976Y249213D02*
X452264D01*
X432037Y245536D02*
Y247986D01*
X266395Y217323D02*
X268026Y218954D01*
X266142Y217323D02*
X266395D01*
X268026Y218954D02*
X273130D01*
X246473Y183858D02*
X252362D01*
X246358Y183973D02*
X246473Y183858D01*
X191634Y205413D02*
X192520Y206299D01*
X192641Y167757D02*
X194926Y170041D01*
X188878Y163993D02*
X192641Y167757D01*
X403248Y301181D02*
X403543Y301476D01*
X411417D01*
X402128Y300061D02*
X403248Y301181D01*
X391862Y287345D02*
X402128Y297611D01*
Y300061D01*
X395965Y294682D02*
Y301181D01*
X387795Y289685D02*
X387955Y289844D01*
X391127D01*
X387955Y287345D02*
X391862D01*
X391127Y289844D02*
X395965Y294682D01*
X387795Y287185D02*
X387955Y287345D01*
X387106Y308760D02*
X387795D01*
X355020Y258169D02*
X355315Y257874D01*
X347736Y258169D02*
X355020D01*
X355315Y257874D02*
X356004D01*
X360632Y262502D01*
X377263D01*
X359002Y297638D02*
X359449D01*
X356764Y295399D02*
X359002Y297638D01*
X356668Y295399D02*
X356764D01*
X356668D02*
X378129Y273939D01*
X355119Y296949D02*
X356668Y295399D01*
X722441Y170965D02*
Y232579D01*
X463351Y271691D02*
X464136Y272476D01*
X456337Y271691D02*
X463351D01*
X451083Y266437D02*
X456337Y271691D01*
X451083Y265748D02*
Y266437D01*
X458366D02*
X461529Y269600D01*
X458366Y256102D02*
Y266437D01*
X461529Y269600D02*
X464217D01*
X467089Y272473D01*
Y274470D02*
X468209Y275591D01*
X467089Y272473D02*
Y274470D01*
X450492Y281890D02*
Y285433D01*
Y281102D02*
Y281890D01*
X438388Y281459D02*
X450136D01*
X450492Y277559D02*
Y281102D01*
X468159Y275640D02*
X468209Y275591D01*
X468159Y275640D02*
Y281447D01*
X427165Y279685D02*
X436614D01*
X438388Y281459D01*
X355315Y266043D02*
X369509D01*
X578740Y278240D02*
X579421Y277559D01*
X361811Y250787D02*
X362008D01*
X366437Y255217D02*
Y255906D01*
X362008Y250787D02*
X366437Y255217D01*
X360483Y256856D02*
X363842Y260215D01*
X370057Y250372D02*
X378533D01*
X363842Y260215D02*
X376315D01*
X360483Y255070D02*
Y256856D01*
X376315Y260215D02*
X379345Y257185D01*
X366437Y246752D02*
X370057Y250372D01*
X370763Y264789D02*
X378210D01*
X355315Y273327D02*
X367117D01*
X369509Y266043D02*
X370763Y264789D01*
X363059Y281496D02*
X375191Y269364D01*
X367117Y273327D02*
X373367Y267077D01*
X375191Y269364D02*
X380105D01*
X355315Y281496D02*
X363059D01*
X373367Y267077D02*
X379158D01*
X377953Y280709D02*
Y285728D01*
X378837Y284844D02*
X387636D01*
X387795Y284685D01*
X377953Y285728D02*
X378837Y284844D01*
X424413Y252344D02*
X427006D01*
X424413Y269526D02*
X427006D01*
X422872Y267985D02*
X424413Y269526D01*
X458563Y255512D02*
Y255906D01*
X452264Y249213D02*
X458563Y255512D01*
X458366Y256102D02*
X458563Y255906D01*
X423834Y237026D02*
X429368D01*
X432470Y229526D02*
Y234473D01*
X430328Y236616D02*
X432470Y234473D01*
X429368Y237026D02*
X429778Y236616D01*
X434821Y227384D02*
X437894Y224311D01*
X429778Y236616D02*
X430328D01*
X434613Y227384D02*
X434821D01*
X432470Y229526D02*
X434613Y227384D01*
X440945Y237743D02*
X441698Y238495D01*
X440945Y232382D02*
Y237743D01*
X441698Y238495D02*
Y238942D01*
X432037Y245536D02*
X433577Y243996D01*
X440945D01*
Y232382D02*
X454724D01*
X428839Y208661D02*
X428986Y208514D01*
Y201722D02*
Y208514D01*
Y201722D02*
X429134Y201575D01*
X440945Y212697D02*
X443565D01*
X444882Y211380D01*
Y205512D02*
Y211380D01*
X172146Y189190D02*
Y190568D01*
X171752Y177182D02*
X171850Y177084D01*
X168738Y185783D02*
X172146Y189190D01*
X168738Y179808D02*
Y185783D01*
X168738Y179808D02*
X168738Y179808D01*
X168738Y174954D02*
Y179808D01*
X196297Y170041D02*
X196457Y170201D01*
Y172146D01*
X279980Y218954D02*
X281398Y217536D01*
X273130Y218954D02*
X279980D01*
X281398Y217536D02*
X282087D01*
X172146Y190568D02*
X175787Y194210D01*
Y201296D02*
X179429Y204938D01*
X175787Y194210D02*
Y201296D01*
X179429Y204938D02*
Y205627D01*
X186811D02*
X188658D01*
X186811D02*
X187303Y206119D01*
Y213501D01*
X190650Y203636D02*
Y204429D01*
Y199606D02*
Y203636D01*
Y204429D02*
X191634Y205413D01*
X196457D01*
X168738Y174954D02*
X172146Y171546D01*
Y166257D02*
Y171546D01*
X188878Y163304D02*
Y163993D01*
X194926Y170041D02*
X196297D01*
X231751Y172990D02*
Y178961D01*
Y172990D02*
X231890Y172851D01*
X231201Y165568D02*
X231890D01*
X223917Y172851D02*
Y177953D01*
Y172851D02*
X231201Y165568D01*
X231890D02*
X240748D01*
X249606D01*
X381457Y228346D02*
X385593Y232482D01*
X377953Y228346D02*
X381457D01*
X385593Y234526D02*
X385752Y234685D01*
X385593Y232482D02*
Y234526D01*
X385752Y234685D02*
X387795D01*
X402397Y220041D02*
X408626D01*
X401612Y208919D02*
Y219256D01*
X402397Y220041D01*
X387795Y279685D02*
Y282185D01*
Y277185D02*
Y279685D01*
Y274685D02*
Y277185D01*
X408626Y220041D02*
X409522Y219145D01*
X410765D01*
X401612Y208919D02*
X401870Y208661D01*
X410765Y219145D02*
X412070Y220451D01*
X418595D01*
X227953Y235843D02*
Y243324D01*
X382073Y236221D02*
X383092Y237240D01*
Y238155D02*
X384464Y239526D01*
X377953Y236221D02*
X382073D01*
X384464Y239526D02*
X387636D01*
X383092Y237240D02*
Y238155D01*
X434025Y282185D02*
X437273Y285433D01*
X443209D01*
X437894Y224311D02*
X438976D01*
X578740Y279528D02*
X580709Y277559D01*
Y279528D01*
X578740Y278240D02*
Y279528D01*
X611062Y321334D02*
X612711Y319685D01*
X616142D01*
X586909Y307087D02*
Y320105D01*
X611062Y321334D02*
Y324692D01*
X593146Y326341D02*
X609413D01*
X611062Y324692D01*
X586909Y320105D02*
X593146Y326341D01*
X607087Y307087D02*
X607382D01*
X613742Y313447D01*
X615711D01*
X616142Y313878D01*
Y314173D01*
X586909Y286181D02*
Y294587D01*
X580551Y279823D02*
X586909Y286181D01*
Y295276D02*
Y307087D01*
X594193D02*
X594341Y307234D01*
X594488Y332382D02*
X603642D01*
X605610Y330413D01*
X606299D01*
X594537Y346408D02*
X594587Y346457D01*
X594537Y332431D02*
Y346408D01*
X594488Y332382D02*
X594537Y332431D01*
X381720Y247185D02*
X387795D01*
X366437Y246063D02*
Y246752D01*
X378533Y250372D02*
X381720Y247185D01*
X381110Y252185D02*
X387795D01*
X377390Y255906D02*
X381110Y252185D01*
X373721Y246063D02*
X379607D01*
X380985Y244685D01*
X387795D01*
X379345Y257185D02*
X387795D01*
X373721Y255906D02*
X377390D01*
X381550Y264685D02*
X387795D01*
X383019Y269685D02*
X387795D01*
X387636Y272344D02*
X387795Y272185D01*
X380105Y269364D02*
X382284Y267185D01*
X380080Y259685D02*
X387795D01*
X379158Y267077D02*
X381550Y264685D01*
X381053Y271652D02*
X383019Y269685D01*
X378129Y273939D02*
X382000D01*
X383595Y272344D02*
X387636D01*
X380815Y262185D02*
X387795D01*
X377182Y271652D02*
X381053D01*
X382000Y273939D02*
X383595Y272344D01*
X378210Y264789D02*
X380815Y262185D01*
X360053Y288779D02*
X377182Y271652D01*
X382284Y267185D02*
X387795D01*
X377263Y262502D02*
X380080Y259685D01*
X355315Y288779D02*
X360053D01*
X347441Y296949D02*
X355119D01*
X356004Y250591D02*
X360483Y255070D01*
X355315Y250591D02*
X356004D01*
X347441Y265748D02*
X347589Y265896D01*
X355167D01*
X355315Y266043D01*
X347441Y273917D02*
X347736Y273622D01*
X355020D01*
X355315Y273327D01*
X355167Y281348D02*
X355315Y281496D01*
X347884Y289222D02*
X354872D01*
X355315Y288779D01*
X395669Y301476D02*
X395965Y301181D01*
X387795Y301476D02*
X395669D01*
X387636Y292344D02*
X387795Y292185D01*
X383429Y292344D02*
X387636D01*
X382762Y293012D02*
X383429Y292344D01*
X377953Y293012D02*
X382762D01*
X427165Y282185D02*
X434025D01*
X435836Y277559D02*
X443209D01*
X435462Y277185D02*
X435836Y277559D01*
X427165Y277185D02*
X435462D01*
X431956Y264844D02*
X437169Y270057D01*
X449894D01*
X455428Y275591D01*
X427165Y264685D02*
X427325Y264844D01*
X455428Y275591D02*
X460925D01*
X427325Y264844D02*
X431956D01*
X441437Y265748D02*
X451083D01*
X439567Y263878D02*
X441437Y265748D01*
X446358Y255906D02*
X450886D01*
X443818Y258446D02*
X446358Y255906D01*
X443818Y258446D02*
Y259627D01*
X439567Y263878D02*
X443818Y259627D01*
X421881Y223737D02*
Y235073D01*
X419594Y236021D02*
X423099Y239526D01*
X419594Y234273D02*
Y236021D01*
X418595Y220451D02*
X421881Y223737D01*
X423099Y239526D02*
X427006D01*
X421881Y235073D02*
X423834Y237026D01*
X427006Y239526D02*
X427165Y239685D01*
X421555Y208661D02*
Y209350D01*
X417163Y213742D02*
X421555Y209350D01*
X417163Y213742D02*
Y215711D01*
X416043Y216831D02*
X417163Y215711D01*
X415354Y216831D02*
X416043D01*
X409154Y208661D02*
Y209350D01*
X413545Y213742D01*
Y215711D01*
X414665Y216831D01*
X415354D01*
Y230033D02*
X419594Y234273D01*
X415354Y224114D02*
Y230033D01*
X427165Y224114D02*
Y234685D01*
X370669Y236221D02*
Y236910D01*
X375514Y241754D01*
X380548D01*
X380979Y242185D01*
X387795D01*
X387636Y239526D02*
X387795Y239685D01*
D13*
X308750Y486525D02*
X308655Y486427D01*
X310039Y530512D02*
X352802D01*
X359252Y524062D01*
X419291Y514764D02*
Y539797D01*
X395850Y491322D02*
X419291Y514764D01*
X253120Y411584D02*
Y499656D01*
X293925Y540461D01*
X256448Y407836D02*
Y476920D01*
X310039Y530512D01*
X314925Y540461D02*
X320937Y534449D01*
X342520D01*
X293925Y540461D02*
X314925D01*
X263779Y405512D02*
Y480596D01*
X297569Y514386D01*
X272638Y484955D02*
X297637Y509955D01*
X272638Y384842D02*
Y484955D01*
X267717Y482283D02*
X298228Y512795D01*
X359252D01*
X297569Y514386D02*
X354937D01*
X267717Y401575D02*
Y482283D01*
X297637Y509955D02*
X372515D01*
X354937Y514386D02*
X359252Y518701D01*
Y512795D02*
X365158Y518701D01*
X372515Y509955D02*
X373928Y508542D01*
X382224Y510133D02*
X383594Y511503D01*
X366837Y506952D02*
X401637D01*
X373928Y508542D02*
X378632D01*
X380223Y510133D02*
X382224D01*
X401637Y506952D02*
X407480Y512795D01*
X378632Y508542D02*
X380223Y510133D01*
X366085Y507704D02*
X366837Y506952D01*
X308750Y486525D02*
X329976Y507751D01*
X330258Y507997D02*
X365792D01*
X329976Y507751D02*
X330258Y507997D01*
X365792D02*
X366085Y507704D01*
X209449Y321654D02*
X272638Y384842D01*
X209449Y285039D02*
Y321654D01*
X277559Y398540D02*
Y452735D01*
X277559Y453150D01*
X308655Y486427D01*
X277256Y398237D02*
X277559Y398540D01*
X399410Y498819D02*
X413386Y512795D01*
X325871Y476462D02*
Y482958D01*
X301387Y429340D02*
X311024Y438976D01*
Y477362D01*
X320588Y471178D02*
X325871Y476462D01*
X320588Y445279D02*
Y471178D01*
X332480Y498819D02*
X399410D01*
X326094Y483181D02*
X333650Y490736D01*
X334236Y491322D02*
X395850D01*
X311024Y477362D02*
X332480Y498819D01*
X333650Y490736D02*
X334236Y491322D01*
X320442Y444458D02*
X320588Y445279D01*
X325871Y482958D02*
X326094Y483181D01*
X409037Y526163D02*
X409449Y526575D01*
X403003Y526163D02*
X409037D01*
X399563Y522723D02*
X403003Y526163D01*
X208661Y142717D02*
X218110Y152165D01*
Y172146D01*
X216142Y156102D02*
Y172146D01*
X208661Y148622D02*
X216142Y156102D01*
X214173Y160039D02*
Y172146D01*
X208661Y154528D02*
X214173Y160039D01*
X208661Y160433D02*
X212205Y163976D01*
Y172146D01*
X199097Y166257D02*
X201969Y163386D01*
X399563Y522035D02*
Y522723D01*
X426772Y548425D02*
X434252Y540945D01*
X383858Y467182D02*
X434252Y517576D01*
Y540945D01*
X395511Y511239D02*
X396464Y512192D01*
X395511Y509181D02*
Y511239D01*
X394872Y508542D02*
X395511Y509181D01*
X390229Y508542D02*
X394872D01*
X388597Y510175D02*
Y510560D01*
X386964Y512192D02*
X388597Y510560D01*
X383594Y512192D02*
X386964D01*
X388597Y510175D02*
X390229Y508542D01*
X396464Y512192D02*
X399834D01*
X376310Y516000D02*
X408736Y548425D01*
X376310Y512192D02*
Y516000D01*
X408736Y548425D02*
X426772D01*
X383594Y511503D02*
Y512192D01*
X392279Y521346D02*
X398464Y515161D01*
X392279Y521346D02*
Y522035D01*
X398464Y513562D02*
Y515161D01*
Y513562D02*
X399834Y512192D01*
X413386Y512795D02*
Y519685D01*
X346752Y485532D02*
X393996D01*
X423228Y514764D02*
Y519538D01*
X393996Y485532D02*
X423228Y514764D01*
X208268Y198819D02*
Y205413D01*
X221604Y236221D02*
X224942Y232883D01*
X218110Y236221D02*
X221604D01*
X224942Y232883D02*
X230963D01*
X176484Y222662D02*
X177362Y223540D01*
X176484Y222269D02*
Y222662D01*
X172244Y218029D02*
X176484Y222269D01*
X177362Y223540D02*
X177756D01*
X172244Y213583D02*
Y218029D01*
X686130Y124016D02*
X689134Y127020D01*
Y127114D01*
X682087Y124016D02*
X686130D01*
X600551Y127114D02*
X606153D01*
X609252Y124016D01*
X427854Y216831D02*
X501968Y142717D01*
X427165Y216831D02*
X427854D01*
X501968Y136811D02*
Y142717D01*
X565945Y102362D02*
X568217Y100091D01*
X574992D01*
X496971Y160433D02*
X533888Y123516D01*
X491142Y160433D02*
X496971D01*
X533888Y123516D02*
X544791D01*
X546260Y121358D02*
Y122047D01*
X544791Y123516D02*
X546260Y122047D01*
X340551Y479331D02*
X346752Y485532D01*
X340551Y458661D02*
Y479331D01*
X310039Y218504D02*
X318898Y209646D01*
X301181Y218504D02*
X310039D01*
X318898Y209646D02*
X380906D01*
X299213Y207435D02*
X300939Y205709D01*
X379218D02*
X413514Y240005D01*
X300939Y205709D02*
X379218D01*
X449106Y202468D02*
X491142Y160433D01*
X449106Y202468D02*
Y219201D01*
X298285Y416395D02*
X340551Y458661D01*
X291503Y415519D02*
X320442Y444458D01*
X299418Y429340D02*
X301387D01*
X441554Y9850D02*
X443898Y7507D01*
X438367Y9850D02*
X441554D01*
X438359Y9843D02*
X438367Y9850D01*
X335155Y9843D02*
X438359D01*
X311344Y229331D02*
X317249Y223425D01*
X381621D02*
X395818Y237622D01*
X317249Y223425D02*
X381621D01*
X301969Y183071D02*
X302165D01*
X308071Y177165D01*
X426219Y300354D02*
Y312045D01*
Y300354D02*
X431209Y295364D01*
X383858Y402132D02*
Y467182D01*
Y402132D02*
X391732Y394258D01*
X296157Y191688D02*
Y217249D01*
X300077Y221169D01*
X305717Y221828D02*
X388589D01*
X292668Y191457D02*
Y216009D01*
X305059Y220237D02*
X389248D01*
X300077Y221169D02*
X304127D01*
X292668Y216009D02*
X299418Y222760D01*
X304785D01*
X389248Y220237D02*
X392207Y223197D01*
X304127Y221169D02*
X305059Y220237D01*
X304785Y222760D02*
X305717Y221828D01*
X295524Y227740D02*
X297639Y225626D01*
X297758D01*
X268111Y227740D02*
X295524D01*
X288574Y413975D02*
X290118Y415519D01*
X291503D01*
X287992Y413975D02*
X288574D01*
X297353Y415560D02*
X298187Y416395D01*
X296771Y415560D02*
X297353D01*
X298187Y416395D02*
X298285D01*
X289370Y419291D02*
X299418Y429340D01*
X431209Y286366D02*
Y295364D01*
X427224Y284744D02*
X429587D01*
X427165Y284685D02*
X427224Y284744D01*
X429587D02*
X431209Y286366D01*
X246596Y169891D02*
X271101D01*
X292668Y191457D01*
X419085Y277185D02*
X427165D01*
X413514Y240005D02*
Y271614D01*
X419085Y277185D01*
X410433Y239173D02*
Y270782D01*
X421836Y282185D02*
X427165D01*
X408843Y239832D02*
Y271441D01*
X421177Y283776D02*
X421394D01*
X410433Y270782D02*
X421836Y282185D01*
X408843Y271441D02*
X421177Y283776D01*
X424803Y289685D02*
X427165D01*
X405661Y273043D02*
X424803Y292185D01*
X407252Y272134D02*
X424803Y289685D01*
Y292185D02*
X427165D01*
X227953Y250607D02*
X239550D01*
X247047Y233268D02*
X262795D01*
X262852Y233324D01*
X200428Y169438D02*
X203331Y166535D01*
X209055D01*
X200394Y172146D02*
X200428Y172111D01*
Y169438D02*
Y172111D01*
X239550Y250607D02*
X251462Y238696D01*
X190650Y181890D02*
X198425D01*
X198425Y181890D01*
X176469Y163246D02*
Y180914D01*
X186705Y186523D02*
Y186523D01*
X179429Y181119D02*
Y189879D01*
X182587Y176009D02*
Y182405D01*
X186705Y186523D01*
Y186523D02*
X187942Y187761D01*
X190615D01*
X179921Y173344D02*
X182587Y176009D01*
X184366Y197638D02*
X190650D01*
X184646Y174016D02*
Y174597D01*
X186500Y176451D01*
Y178444D01*
X187942Y179887D02*
X190615D01*
X190650Y179921D01*
X186500Y178444D02*
X187942Y179887D01*
X190551Y174016D02*
Y177869D01*
X190635Y177953D02*
X190650D01*
X190551Y177869D02*
X190635Y177953D01*
X407252Y240491D02*
Y272134D01*
X395818Y243117D02*
X405661Y252961D01*
Y273043D01*
X380906Y209646D02*
X410433Y239173D01*
X392207Y223197D02*
X408843Y239832D01*
X391548Y224787D02*
X407252Y240491D01*
X390158Y257185D02*
X392520Y259547D01*
X387795Y257185D02*
X390158D01*
X392520Y259547D02*
Y261043D01*
X421394Y283776D02*
X424744Y287126D01*
X178650Y211442D02*
X180020Y212812D01*
Y213501D01*
X172244Y205725D02*
Y213583D01*
X452067Y224114D02*
X452756D01*
X446957Y229224D02*
X452067Y224114D01*
X435375Y229224D02*
X446957D01*
X434311Y230289D02*
X435375Y229224D01*
X429528Y244685D02*
X434311Y239902D01*
X427165Y244685D02*
X429528D01*
X434311Y230289D02*
Y239902D01*
X210236Y205413D02*
X210271Y205448D01*
Y208288D01*
X212802Y210820D01*
X198425Y166257D02*
X199097D01*
X196161Y163993D02*
X198425Y166257D01*
Y172146D01*
X196161Y163304D02*
Y163993D01*
X268504Y191321D02*
Y191339D01*
X266339Y189155D02*
X268504Y191321D01*
X266339Y183973D02*
Y189155D01*
X272638Y186024D02*
Y190974D01*
X269608Y194004D02*
X272638Y190974D01*
X259746Y194004D02*
X269608D01*
X257787Y192044D02*
X259746Y194004D01*
X246654Y192044D02*
X257787D01*
X231677Y193701D02*
X233761Y195784D01*
X231496Y193701D02*
X231677D01*
X233761Y195784D02*
X238779D01*
X266929Y204378D02*
X271504Y208954D01*
X266929Y204331D02*
Y204378D01*
X271504Y208954D02*
X273130D01*
X246735Y199803D02*
X279528D01*
X280787Y208954D02*
X282087Y210253D01*
X273130Y208954D02*
X280787D01*
X227953Y221080D02*
X243701D01*
X244882Y226190D02*
Y226772D01*
X243701Y221080D02*
Y225009D01*
X244882Y226190D01*
X227953Y221080D02*
X227953Y221080D01*
X231602Y233522D02*
Y235258D01*
X230963Y232883D02*
X231602Y233522D01*
X232188Y235843D02*
X235827D01*
X231602Y235258D02*
X232188Y235843D01*
X218110Y229446D02*
Y236221D01*
X217913Y229249D02*
X218110Y229446D01*
X217520Y221260D02*
X217913Y221654D01*
Y229249D01*
X204331Y231480D02*
X209252Y236402D01*
Y243816D01*
X204331Y224803D02*
Y231480D01*
X204134Y220194D02*
X207283D01*
X201378D02*
X204134D01*
Y224606D01*
X204331Y224803D01*
X201378Y220194D02*
X201378Y220194D01*
X207283D02*
X207283Y220194D01*
X172244Y213583D02*
X179938D01*
X180020Y213501D01*
X172146Y205627D02*
X172244Y205725D01*
X172146Y205627D02*
X172146Y205627D01*
Y197753D02*
Y205627D01*
X231170Y178961D02*
X231751D01*
X223917Y179921D02*
X230210D01*
X231170Y178961D01*
X223917Y183858D02*
X232873D01*
X235539Y174001D02*
X236689Y172851D01*
X235539Y174001D02*
Y178943D01*
X232592Y181890D02*
X235539Y178943D01*
X232873Y183858D02*
X237195Y179536D01*
X223917Y181890D02*
X232592D01*
X237195Y179536D02*
X242232D01*
X308071Y148622D02*
X403543Y53150D01*
X308071Y148622D02*
Y177165D01*
X403543Y53150D02*
X437625D01*
X451806Y38969D01*
X414805Y37197D02*
X419076D01*
X414146Y35606D02*
X418232D01*
X287402Y166850D02*
Y179134D01*
X275303Y161705D02*
X288048D01*
X279528Y164370D02*
X287632D01*
X414805Y37197D01*
X288048Y161705D02*
X414146Y35606D01*
X287402Y166850D02*
X403070Y51181D01*
X420608D02*
X427328Y44462D01*
X403070Y51181D02*
X420608D01*
X427328Y36819D02*
Y44462D01*
X242913Y195981D02*
X246735Y199803D01*
X283177Y185732D02*
Y185736D01*
X280853Y183407D02*
X283177Y185732D01*
X280853Y182428D02*
Y183407D01*
X271277Y172851D02*
X280853Y182428D01*
X265305Y180118D02*
X272638D01*
X261926Y183498D02*
X265305Y180118D01*
X441509Y25644D02*
X443898Y23255D01*
X438503Y25644D02*
X441509D01*
X443898Y20249D02*
Y23255D01*
Y20249D02*
X446422Y17724D01*
X427328Y36819D02*
X438503Y25644D01*
X438367Y17906D02*
X441373D01*
X443807Y15471D01*
X419076Y37197D02*
X438367Y17906D01*
X459555Y9850D02*
Y15471D01*
X446422Y17724D02*
X457302D01*
X455709Y6004D02*
X459555Y9850D01*
X457302Y17724D02*
X459555Y15471D01*
X446241Y10031D02*
X451862D01*
X443807Y12466D02*
X446241Y10031D01*
X451862D02*
X455709Y13878D01*
X443807Y12466D02*
Y15471D01*
X418232Y35606D02*
X439961Y13878D01*
X443898Y4501D02*
X446241Y2158D01*
X467610D01*
X471457Y6004D01*
X272638Y164370D02*
X275303Y161705D01*
X261926Y183498D02*
Y184449D01*
X258465Y187714D02*
X258661D01*
X261926Y184449D01*
X333711Y6004D02*
X439961D01*
X176469Y163246D02*
X333711Y6004D01*
X179429Y165568D02*
X335155Y9843D01*
X179429Y165568D02*
Y166257D01*
X177539Y181984D02*
X178367D01*
X178453Y181899D01*
X178650D02*
X179429Y181119D01*
X178453Y181899D02*
X178650D01*
X179429Y181119D02*
X179724Y180824D01*
X176469Y180914D02*
X177539Y181984D01*
X443898Y4501D02*
Y7507D01*
X451806Y35963D02*
Y38969D01*
X454183Y33586D02*
X457189D01*
X451806Y35963D02*
X454183Y33586D01*
X457189D02*
X459691Y31083D01*
Y28078D02*
X462080Y25689D01*
X459691Y28078D02*
Y31083D01*
X462080Y25689D02*
X465085D01*
X467610Y17724D02*
Y23164D01*
X465085Y25689D02*
X467610Y23164D01*
Y17724D02*
X471457Y13878D01*
X245005Y171481D02*
X246596Y169891D01*
X249606Y172851D02*
X271277D01*
X248917D02*
X249606D01*
X242118Y171481D02*
X245005D01*
X240748Y172851D02*
X242118Y171481D01*
X236689Y172851D02*
X240748D01*
X179724Y173344D02*
X179921D01*
X179724Y166552D02*
Y173344D01*
X179429Y166257D02*
X179724Y166552D01*
X223917Y199606D02*
X235463D01*
X427106Y287126D02*
X427165Y287185D01*
X424744Y287126D02*
X427106D01*
X395818Y237622D02*
Y243117D01*
X388589Y221828D02*
X391548Y224787D01*
X266081Y225711D02*
X268111Y227740D01*
X266081Y223476D02*
Y225711D01*
X253831Y211225D02*
X266081Y223476D01*
X249059Y211225D02*
X253831D01*
X248669Y210836D02*
X249059Y211225D01*
X246693Y210836D02*
X248669D01*
X235463Y199606D02*
X246693Y210836D01*
X263168Y205665D02*
X271457Y213954D01*
X243772Y205665D02*
X263168D01*
X251969Y229331D02*
X311344D01*
X235744Y197638D02*
X243772Y205665D01*
X243701Y213796D02*
X243858Y213954D01*
X251673D01*
X243701Y213796D02*
X243701Y213796D01*
X271457Y213954D02*
X273130D01*
X218110Y207628D02*
Y207677D01*
Y205413D02*
Y207628D01*
X237820Y224040D02*
X247047Y233268D01*
X224942Y224040D02*
X237820D01*
X218807Y201468D02*
X223563Y206225D01*
X227264Y228560D02*
X235827D01*
X221972Y221071D02*
X224942Y224040D01*
X219743Y213280D02*
X220382Y213918D01*
Y221730D01*
X224283Y225631D01*
X224335D01*
X227264Y228560D01*
X218110Y207677D02*
X221972Y211539D01*
X223563Y215378D02*
X225245Y217060D01*
X223563Y206225D02*
Y215378D01*
X221972Y211539D02*
Y221071D01*
X225245Y217060D02*
X245653D01*
X216142Y209768D02*
X219654Y213280D01*
X219743D01*
X216142Y205413D02*
Y209768D01*
X247728Y225091D02*
X251969Y229331D01*
X245653Y217060D02*
X247728Y219136D01*
Y225091D01*
X213683Y215470D02*
X217241D01*
X217520Y215748D01*
X240444Y192560D02*
X242913Y195029D01*
Y195981D01*
X223917Y197638D02*
X235744D01*
X242232Y179536D02*
X248917Y172851D01*
X242815Y187714D02*
X258465D01*
X215445Y201468D02*
X218807D01*
X214208Y202706D02*
X215445Y201468D01*
X214208Y202706D02*
Y205379D01*
X214173Y205413D02*
X214208Y205379D01*
X219465Y199878D02*
X225894Y206306D01*
X212239Y202425D02*
Y205379D01*
Y202425D02*
X214787Y199878D01*
X225894Y206306D02*
Y212426D01*
X214787Y199878D02*
X219465D01*
X227264Y213796D02*
X227953D01*
X225894Y212426D02*
X227264Y213796D01*
X227953D02*
X235827D01*
X452756Y216831D02*
X479213D01*
X539744Y156299D01*
Y154626D02*
Y156299D01*
X574992Y100091D02*
X577264Y102362D01*
X577559D01*
X440945Y224311D02*
X443996D01*
X449106Y219201D01*
X572047Y102362D02*
Y110236D01*
X547728Y123327D02*
X558071D01*
X233955Y189764D02*
X236752Y192560D01*
X223917Y189764D02*
X233955D01*
X236752Y192560D02*
X240444D01*
X234236Y187795D02*
X237410Y190970D01*
X223917Y187795D02*
X234236D01*
X237410Y190970D02*
X245579D01*
X239075Y184457D02*
Y184662D01*
X240445Y186032D01*
X241134D01*
X242815Y187714D01*
X245579Y190970D02*
X246654Y192044D01*
X239075Y183973D02*
Y184457D01*
X223917Y185827D02*
X237705D01*
X239075Y184457D01*
X190615Y187761D02*
X190650Y187795D01*
X577559Y102362D02*
X580938D01*
X584588Y98713D01*
X589231D01*
X589870Y99351D01*
Y101409D01*
X590823Y102362D01*
X594193D01*
Y110236D01*
X600551Y117283D02*
Y127114D01*
X594193Y110925D02*
X600551Y117283D01*
X594193Y110236D02*
Y110925D01*
X586909Y102362D02*
Y110236D01*
X577559D02*
X586909D01*
X438976Y224311D02*
X440945D01*
X547728Y130610D02*
X558071D01*
X212205Y205413D02*
X212239Y205379D01*
X235827Y213796D02*
X243701D01*
X217913Y243127D02*
Y243816D01*
X213683Y238896D02*
X217913Y243127D01*
X213683Y215470D02*
Y238896D01*
X206334Y208121D02*
X213683Y215470D01*
X206334Y205448D02*
Y208121D01*
X206299Y205413D02*
X206334Y205448D01*
X204365D02*
Y208886D01*
X207283Y211804D01*
Y214682D01*
X209252Y229249D02*
X211213Y227288D01*
Y219414D02*
Y227288D01*
Y219414D02*
X211220Y219407D01*
X207283Y214682D02*
X207677D01*
X211220Y218225D01*
Y219407D01*
X200984Y214682D02*
X201378D01*
X198425Y217241D02*
X200984Y214682D01*
X198425Y217241D02*
Y230233D01*
X185925Y224461D02*
Y229249D01*
X177756Y229052D02*
X185728D01*
X185925Y229249D01*
Y224461D02*
X200394Y209992D01*
Y205413D02*
Y209992D01*
X202362Y205413D02*
Y210273D01*
X201378Y211257D02*
X202362Y210273D01*
X201378Y211257D02*
Y214682D01*
X204331Y205413D02*
X204365Y205448D01*
X184761Y191732D02*
X190650D01*
X179429Y197064D02*
X184761Y191732D01*
X179429Y197064D02*
Y197753D01*
Y189879D02*
X188222D01*
X188337Y189764D01*
X190650D01*
D21*
X373721Y255906D02*
D03*
X366437D02*
D03*
X373721Y246063D02*
D03*
X366437D02*
D03*
X377953Y236221D02*
D03*
X370669D02*
D03*
X377953Y228346D02*
D03*
X370669D02*
D03*
X395965Y301181D02*
D03*
X403248D02*
D03*
X468209Y275591D02*
D03*
X460925D02*
D03*
X450492Y285433D02*
D03*
X443209D02*
D03*
X450492Y277559D02*
D03*
X443209D02*
D03*
X458366Y265748D02*
D03*
X451083D02*
D03*
X428839Y208661D02*
D03*
X421555D02*
D03*
X409154D02*
D03*
X401870D02*
D03*
X246358Y183973D02*
D03*
X239075D02*
D03*
X180020Y213501D02*
D03*
X187303D02*
D03*
X179429Y205627D02*
D03*
X172146D02*
D03*
X172146Y197753D02*
D03*
X179429D02*
D03*
X172146Y189879D02*
D03*
X179429D02*
D03*
X172146Y166257D02*
D03*
X179429D02*
D03*
X196161Y163304D02*
D03*
X188878D02*
D03*
X594193Y307087D02*
D03*
X586909D02*
D03*
X594193Y295276D02*
D03*
X586909D02*
D03*
X546654Y143701D02*
D03*
X539370D02*
D03*
X586909Y102362D02*
D03*
X594193D02*
D03*
X586909Y110236D02*
D03*
X594193D02*
D03*
X633563Y57087D02*
D03*
X626279D02*
D03*
X649311D02*
D03*
X642028D02*
D03*
X392551Y512192D02*
D03*
X399834D02*
D03*
X392279Y522035D02*
D03*
X399563D02*
D03*
X376310Y512192D02*
D03*
X383594D02*
D03*
D22*
X387795Y322933D02*
D03*
Y315650D02*
D03*
X355315Y288779D02*
D03*
Y281496D02*
D03*
Y273327D02*
D03*
Y266043D02*
D03*
Y257874D02*
D03*
Y250591D02*
D03*
X347441Y265748D02*
D03*
Y258465D02*
D03*
Y281201D02*
D03*
Y273917D02*
D03*
Y296949D02*
D03*
Y289665D02*
D03*
X387795Y308760D02*
D03*
Y301476D02*
D03*
X411417Y322933D02*
D03*
Y315650D02*
D03*
Y308760D02*
D03*
Y301476D02*
D03*
X452756Y224114D02*
D03*
Y216831D02*
D03*
X427165Y224114D02*
D03*
Y216831D02*
D03*
X415354Y224114D02*
D03*
Y216831D02*
D03*
X227953Y228560D02*
D03*
Y235843D02*
D03*
Y221080D02*
D03*
Y213796D02*
D03*
X282087Y210253D02*
D03*
Y217536D02*
D03*
X249606Y172851D02*
D03*
Y165568D02*
D03*
X240748Y172851D02*
D03*
Y165568D02*
D03*
X231890Y172851D02*
D03*
Y165568D02*
D03*
X235827Y213796D02*
D03*
Y221080D02*
D03*
X243701Y221080D02*
D03*
Y213796D02*
D03*
X235827Y235843D02*
D03*
Y228560D02*
D03*
X227953Y250607D02*
D03*
Y243324D02*
D03*
X722441Y239862D02*
D03*
Y232579D02*
D03*
Y170965D02*
D03*
Y163681D02*
D03*
X606299Y323130D02*
D03*
Y330413D02*
D03*
X558071Y130610D02*
D03*
Y123327D02*
D03*
X348819Y451279D02*
D03*
Y443996D02*
D03*
X377953Y293012D02*
D03*
Y285728D02*
D03*
D55*
X40979Y187598D02*
X55546Y202165D01*
X59449Y211024D02*
X127362Y278937D01*
X347047Y258169D02*
X347736D01*
X55546Y202165D02*
X72267D01*
X40945Y204724D02*
X58045D01*
X129699Y276378D02*
X332972D01*
X58045Y204724D02*
X129699Y276378D01*
X127362Y278937D02*
X331102D01*
X341831Y289665D02*
X347441D01*
X331102Y278937D02*
X341831Y289665D01*
X395617Y253491D02*
X400512Y258386D01*
X405967Y305118D02*
X414432D01*
X392520Y273158D02*
X415551Y296190D01*
Y303999D01*
X414432Y305118D02*
X415551Y303999D01*
X418110Y295130D02*
Y305059D01*
X415295Y307874D02*
X418110Y305059D01*
X411417Y308760D02*
X412303Y307874D01*
X415295D01*
X395669Y259842D02*
Y272689D01*
X418110Y295130D01*
X392520Y261043D02*
Y273158D01*
X405770Y305315D02*
X405967Y305118D01*
X393442Y305315D02*
X405770D01*
X349705Y443110D02*
X379921Y412894D01*
Y393701D02*
X391339Y382284D01*
X379921Y393701D02*
Y412894D01*
X391339Y348906D02*
Y382284D01*
X383661Y341229D02*
X391339Y348906D01*
X384584Y305315D02*
X393442D01*
X383661Y306238D02*
Y341229D01*
Y306238D02*
X384584Y305315D01*
X348819Y443996D02*
X349705Y443110D01*
X420669Y294070D02*
Y313054D01*
X400512Y258386D02*
Y273913D01*
X420669Y294070D01*
X414629Y319094D02*
X420669Y313054D01*
X411614Y319094D02*
X414629D01*
X411417Y319291D02*
X411614Y319094D01*
X402215Y319291D02*
X411417D01*
X398573Y315650D02*
X402215Y319291D01*
X387795Y315650D02*
X398573D01*
X411417Y308760D02*
Y315650D01*
X387795Y308760D02*
Y315650D01*
X393442Y305315D02*
X393442Y305315D01*
X335060Y265748D02*
X347441D01*
X330729Y270079D02*
X335060Y265748D01*
X142149Y272047D02*
X298796D01*
X307654Y263189D01*
X342028D01*
X332972Y276378D02*
X335433Y273917D01*
X346752Y258465D02*
X347441D01*
X335433Y273917D02*
X347441D01*
X342028Y263189D02*
X346752Y258465D01*
X72267Y202165D02*
X142149Y272047D01*
X347441Y289665D02*
X347884Y289222D01*
D56*
X396654Y92520D02*
X403543Y85630D01*
X396654Y92520D02*
Y146127D01*
X736221Y29528D02*
Y52165D01*
X721457Y66929D02*
X736221Y52165D01*
X659449Y66929D02*
X721457D01*
X654528Y71850D02*
X659449Y66929D01*
X736221Y29528D02*
X748504Y17244D01*
X787402D01*
X796575Y67244D02*
X801181Y71850D01*
X787402Y67244D02*
X796575D01*
X727559Y124803D02*
X753937Y98425D01*
X727559Y124803D02*
Y235509D01*
X725787Y237008D02*
X726060D01*
X722933Y239862D02*
X725787Y237008D01*
X722441Y239862D02*
X722933D01*
X726060Y237008D02*
X727559Y235509D01*
X753937Y98425D02*
X766221D01*
X787402Y77244D01*
X349213Y472835D02*
Y473228D01*
X348819Y451279D02*
Y472441D01*
X349213Y472835D01*
X777559Y37087D02*
Y77756D01*
Y37087D02*
X787402Y27244D01*
D58*
X716676Y136388D02*
X722441Y142153D01*
Y163681D01*
X685083Y136388D02*
X716676D01*
X647581Y48369D02*
X649311Y50098D01*
X643602Y43307D02*
Y46358D01*
X645613Y48369D01*
X647581D01*
X649311Y50098D02*
Y57087D01*
X677067Y127114D02*
X680920Y130968D01*
Y132225D02*
X685083Y136388D01*
X669134Y127114D02*
X677067D01*
X680920Y130968D02*
Y132225D01*
X546457Y143504D02*
X546654Y143701D01*
X546457Y132776D02*
Y143504D01*
X546260Y132579D02*
X546457Y132776D01*
X554744Y153543D02*
Y154626D01*
Y153543D02*
X575752Y132535D01*
X578524D01*
X580551Y130508D01*
Y127114D02*
Y130508D01*
X546260Y144095D02*
X546654Y143701D01*
X546260Y144095D02*
Y147441D01*
X544744Y148957D02*
Y154626D01*
Y148957D02*
X546260Y147441D01*
X544744Y154626D02*
X549744D01*
X554744D01*
X539557Y143888D02*
Y154439D01*
X539370Y143701D02*
X539557Y143888D01*
D59*
X80315Y468504D02*
D03*
X297638Y531496D02*
D03*
Y440945D02*
D03*
X80315Y377953D02*
D03*
X297638Y78740D02*
D03*
X80315Y15748D02*
D03*
X744806Y535433D02*
D03*
X527484Y472441D02*
D03*
X444882Y156496D02*
D03*
X381890Y373819D02*
D03*
X744882Y263779D02*
D03*
X527559Y200787D02*
D03*
X297638Y171291D02*
D03*
X80315Y108299D02*
D03*
Y196850D02*
D03*
X297638Y259842D02*
D03*
X527484Y110236D02*
D03*
X744806Y173228D02*
D03*
X744488Y354331D02*
D03*
X527165Y291339D02*
D03*
X527484Y381890D02*
D03*
X744806Y444882D02*
D03*
X80315Y287402D02*
D03*
X297638Y350394D02*
D03*
D60*
X330000Y470669D02*
D03*
X47953Y438779D02*
D03*
Y76575D02*
D03*
X495121Y533268D02*
D03*
X442717Y406181D02*
D03*
X777244Y202953D02*
D03*
X330000Y110465D02*
D03*
X47953Y257677D02*
D03*
X495121Y171063D02*
D03*
X494803Y352165D02*
D03*
X777169Y384055D02*
D03*
X330000Y289567D02*
D03*
D61*
X726221Y39370D02*
D03*
D62*
X746220D02*
D03*
D63*
X374016Y437008D02*
D03*
D64*
Y444882D02*
D03*
D65*
X468661Y541339D02*
D03*
D66*
X458661D02*
D03*
D67*
X439961Y37500D02*
D03*
Y29626D02*
D03*
Y21752D02*
D03*
Y13878D02*
D03*
Y6004D02*
D03*
X447835Y37500D02*
D03*
Y29626D02*
D03*
Y21752D02*
D03*
Y13878D02*
D03*
Y6004D02*
D03*
X455709Y37500D02*
D03*
Y29626D02*
D03*
Y21752D02*
D03*
Y13878D02*
D03*
Y6004D02*
D03*
X463583Y37500D02*
D03*
Y29626D02*
D03*
Y21752D02*
D03*
Y13878D02*
D03*
Y6004D02*
D03*
X471457Y37500D02*
D03*
Y29626D02*
D03*
Y21752D02*
D03*
Y13878D02*
D03*
Y6004D02*
D03*
D68*
X564468D02*
D03*
X575295D02*
D03*
X564468Y11909D02*
D03*
X575295D02*
D03*
X564468Y17815D02*
D03*
X575295D02*
D03*
X564468Y23720D02*
D03*
X575295D02*
D03*
X564468Y29626D02*
D03*
X575295D02*
D03*
X531988Y6004D02*
D03*
X542815D02*
D03*
X531988Y11909D02*
D03*
X542815D02*
D03*
X531988Y17815D02*
D03*
X542815D02*
D03*
X531988Y23720D02*
D03*
X542815D02*
D03*
X531988Y29626D02*
D03*
X542815D02*
D03*
X499508Y6004D02*
D03*
X510335D02*
D03*
X499508Y11909D02*
D03*
X510335D02*
D03*
X499508Y17815D02*
D03*
X510335D02*
D03*
X499508Y23720D02*
D03*
X510335D02*
D03*
X499508Y29626D02*
D03*
X488681Y6004D02*
D03*
Y11909D02*
D03*
Y17815D02*
D03*
Y23720D02*
D03*
Y29626D02*
D03*
X564468Y35531D02*
D03*
X575295D02*
D03*
X531988D02*
D03*
X542815D02*
D03*
X499508D02*
D03*
X510335D02*
D03*
X488681D02*
D03*
X521161Y6004D02*
D03*
X553642D02*
D03*
X586122D02*
D03*
X521161Y11909D02*
D03*
X553642D02*
D03*
X586122D02*
D03*
X521161Y17815D02*
D03*
X553642D02*
D03*
X586122D02*
D03*
X521161Y23720D02*
D03*
X553642D02*
D03*
X586122D02*
D03*
X521161Y29626D02*
D03*
X553642D02*
D03*
X586122D02*
D03*
X521161Y35531D02*
D03*
X553642D02*
D03*
X586122D02*
D03*
X510335Y29626D02*
D03*
D69*
X671639Y78740D02*
D03*
X685039D02*
D03*
X671639Y25740D02*
D03*
X685039D02*
D03*
D70*
X787402Y77244D02*
D03*
Y57244D02*
D03*
Y67244D02*
D03*
Y47244D02*
D03*
Y27244D02*
D03*
Y37244D02*
D03*
D71*
Y17244D02*
D03*
D72*
X321850Y55118D02*
D03*
Y47244D02*
D03*
X455755Y530465D02*
D03*
X305118Y518429D02*
D03*
X350394Y521654D02*
D03*
X334646D02*
D03*
X342520D02*
D03*
X312992Y518429D02*
D03*
X320866D02*
D03*
X312992Y498032D02*
D03*
X320866Y505905D02*
D03*
X305118Y505911D02*
D03*
X317515Y489572D02*
D03*
X305118Y498032D02*
D03*
X312992Y505911D02*
D03*
X320866Y480315D02*
D03*
X315945Y474409D02*
D03*
X305118D02*
D03*
Y489173D02*
D03*
X311610Y483666D02*
D03*
X322835Y425197D02*
D03*
X391732Y452756D02*
D03*
X21654Y179134D02*
D03*
X29528D02*
D03*
X82677Y250000D02*
D03*
X74803Y242126D02*
D03*
X59055Y226378D02*
D03*
X90551Y257874D02*
D03*
X66929Y234252D02*
D03*
X59055Y218504D02*
D03*
X90551Y250000D02*
D03*
X98425Y257874D02*
D03*
X82677Y242126D02*
D03*
X74803Y234252D02*
D03*
X82677Y257874D02*
D03*
X59055Y234252D02*
D03*
X74803Y250000D02*
D03*
X66929Y242126D02*
D03*
X454724Y523622D02*
D03*
X462598Y531496D02*
D03*
X521708Y141732D02*
D03*
X507874Y143701D02*
D03*
X521654Y149606D02*
D03*
X440945Y125984D02*
D03*
X427165Y139764D02*
D03*
X448819Y118110D02*
D03*
X456693Y110236D02*
D03*
X440945Y118110D02*
D03*
X448819Y110236D02*
D03*
X433071Y125984D02*
D03*
X448819D02*
D03*
X456693Y118110D02*
D03*
X464567Y110236D02*
D03*
X472441Y118110D02*
D03*
X456693Y125984D02*
D03*
X464567Y118110D02*
D03*
X480315D02*
D03*
X348425Y479815D02*
D03*
X356299D02*
D03*
X311024Y210630D02*
D03*
X498032Y523622D02*
D03*
X425197Y13886D02*
D03*
X413386D02*
D03*
X448819Y295717D02*
D03*
X456703Y295715D02*
D03*
X440945Y303150D02*
D03*
X311024Y192913D02*
D03*
X320866Y215551D02*
D03*
X311024Y200787D02*
D03*
X494095Y476378D02*
D03*
X486221D02*
D03*
X478346D02*
D03*
X470472D02*
D03*
X462598D02*
D03*
X446850D02*
D03*
X433812Y110977D02*
D03*
X757874Y104331D02*
D03*
X765748D02*
D03*
X773622D02*
D03*
X765748Y112205D02*
D03*
X789370Y104331D02*
D03*
X781496Y112205D02*
D03*
X773622Y120079D02*
D03*
X789370Y112205D02*
D03*
X781496Y120079D02*
D03*
X789370D02*
D03*
X773622Y161417D02*
D03*
Y169291D02*
D03*
X781496Y161417D02*
D03*
X751968Y212598D02*
D03*
X773622Y185039D02*
D03*
X736221Y220472D02*
D03*
X789370Y161417D02*
D03*
X781496Y177165D02*
D03*
X789370Y169291D02*
D03*
X744095Y212598D02*
D03*
X736221Y228346D02*
D03*
X759842Y204724D02*
D03*
X751968D02*
D03*
X744095Y220472D02*
D03*
X781496Y169291D02*
D03*
X773622Y177165D02*
D03*
X736221Y212598D02*
D03*
X744095Y204724D02*
D03*
X773622Y112205D02*
D03*
X781496Y104331D02*
D03*
X773622Y192913D02*
D03*
X781496Y185039D02*
D03*
X789370Y177165D02*
D03*
X797244Y169291D02*
D03*
Y161417D02*
D03*
X805118D02*
D03*
Y112205D02*
D03*
Y120079D02*
D03*
Y104331D02*
D03*
X687008Y303150D02*
D03*
Y295276D02*
D03*
X694882D02*
D03*
Y303150D02*
D03*
X718504D02*
D03*
X710630D02*
D03*
X702756D02*
D03*
Y295276D02*
D03*
X710630D02*
D03*
X718504D02*
D03*
Y287402D02*
D03*
X710630D02*
D03*
X702756D02*
D03*
Y279528D02*
D03*
X710630D02*
D03*
X718504D02*
D03*
Y271654D02*
D03*
X710630D02*
D03*
X702756D02*
D03*
X653543Y287402D02*
D03*
X645669D02*
D03*
X637795D02*
D03*
X629921D02*
D03*
X622047D02*
D03*
X653543Y279528D02*
D03*
Y271654D02*
D03*
X645669D02*
D03*
Y279528D02*
D03*
X637795D02*
D03*
Y271654D02*
D03*
X629921D02*
D03*
Y279528D02*
D03*
X622047D02*
D03*
Y271654D02*
D03*
X614173Y279528D02*
D03*
Y271654D02*
D03*
X15748Y379921D02*
D03*
Y387795D02*
D03*
Y372047D02*
D03*
X7874Y427165D02*
D03*
Y419291D02*
D03*
Y411417D02*
D03*
Y403543D02*
D03*
Y395669D02*
D03*
Y387795D02*
D03*
Y379921D02*
D03*
Y372047D02*
D03*
X96457Y427165D02*
D03*
X88583D02*
D03*
X80709D02*
D03*
X72835D02*
D03*
X88583Y419291D02*
D03*
X80709D02*
D03*
X72835D02*
D03*
X64961D02*
D03*
X80709Y411417D02*
D03*
X72835D02*
D03*
X64961D02*
D03*
X57087D02*
D03*
X72835Y403543D02*
D03*
X64961D02*
D03*
X57087D02*
D03*
X64961Y395669D02*
D03*
X57087D02*
D03*
X49213Y379921D02*
D03*
X41339Y372047D02*
D03*
Y379921D02*
D03*
X57087Y387795D02*
D03*
X49213D02*
D03*
X41339D02*
D03*
X64961Y511811D02*
D03*
X72835D02*
D03*
X80709D02*
D03*
Y519685D02*
D03*
X72835D02*
D03*
X64961D02*
D03*
X80709Y527559D02*
D03*
X72835D02*
D03*
X64961D02*
D03*
X33465D02*
D03*
X57087D02*
D03*
X49213D02*
D03*
X41339D02*
D03*
Y535433D02*
D03*
X49213D02*
D03*
X57087D02*
D03*
X64961D02*
D03*
X72835D02*
D03*
X80709D02*
D03*
Y543307D02*
D03*
X72835D02*
D03*
X64961D02*
D03*
X57087D02*
D03*
X49213D02*
D03*
X41339D02*
D03*
X33465Y535433D02*
D03*
Y543307D02*
D03*
X25591D02*
D03*
Y535433D02*
D03*
Y527559D02*
D03*
X17717Y519685D02*
D03*
Y527559D02*
D03*
Y535433D02*
D03*
Y543307D02*
D03*
X7874Y503937D02*
D03*
Y511811D02*
D03*
Y519685D02*
D03*
Y527559D02*
D03*
Y535433D02*
D03*
Y543307D02*
D03*
X82677Y309055D02*
D03*
X74803D02*
D03*
X66929D02*
D03*
Y316929D02*
D03*
X74803D02*
D03*
X82677D02*
D03*
Y324803D02*
D03*
X74803D02*
D03*
X66929D02*
D03*
Y332677D02*
D03*
X74803D02*
D03*
X82677D02*
D03*
Y340551D02*
D03*
Y348425D02*
D03*
Y356299D02*
D03*
X74803D02*
D03*
Y348425D02*
D03*
Y340551D02*
D03*
X66929D02*
D03*
Y348425D02*
D03*
Y356299D02*
D03*
X59055D02*
D03*
Y348425D02*
D03*
Y340551D02*
D03*
X51181D02*
D03*
Y348425D02*
D03*
Y356299D02*
D03*
X43307Y348425D02*
D03*
Y340551D02*
D03*
X74803Y257874D02*
D03*
X66929Y250000D02*
D03*
X59055Y242126D02*
D03*
X13780Y255906D02*
D03*
Y263779D02*
D03*
Y271654D02*
D03*
Y279528D02*
D03*
Y287402D02*
D03*
Y295276D02*
D03*
X88583Y169291D02*
D03*
X80709D02*
D03*
X72835D02*
D03*
X64961Y161417D02*
D03*
Y169291D02*
D03*
X57087D02*
D03*
Y161417D02*
D03*
X49213D02*
D03*
Y169291D02*
D03*
X41339D02*
D03*
Y161417D02*
D03*
X72835Y161449D02*
D03*
X80709D02*
D03*
X88583D02*
D03*
Y153575D02*
D03*
X80709D02*
D03*
X72835D02*
D03*
Y145701D02*
D03*
X80709D02*
D03*
X88583D02*
D03*
Y137827D02*
D03*
X80709D02*
D03*
X72835D02*
D03*
Y129953D02*
D03*
X80709D02*
D03*
X88583D02*
D03*
Y122079D02*
D03*
X80709D02*
D03*
X72835D02*
D03*
X88583Y64961D02*
D03*
X80709D02*
D03*
X72835D02*
D03*
Y57087D02*
D03*
X80709D02*
D03*
X88583D02*
D03*
Y49213D02*
D03*
X80709D02*
D03*
X72835D02*
D03*
Y41339D02*
D03*
X80709D02*
D03*
X88583D02*
D03*
Y33465D02*
D03*
X80709D02*
D03*
X72835D02*
D03*
X64961Y23622D02*
D03*
Y15748D02*
D03*
Y7874D02*
D03*
X57087D02*
D03*
Y15748D02*
D03*
Y23622D02*
D03*
X49213Y7874D02*
D03*
X41339D02*
D03*
Y15748D02*
D03*
X49213D02*
D03*
Y23622D02*
D03*
X41339D02*
D03*
X33465Y7874D02*
D03*
X25591D02*
D03*
X17717D02*
D03*
Y15748D02*
D03*
X25591D02*
D03*
X33465D02*
D03*
Y23622D02*
D03*
X25591D02*
D03*
X17717D02*
D03*
X5906Y155512D02*
D03*
Y163386D02*
D03*
Y171260D02*
D03*
X13780Y179134D02*
D03*
X5906D02*
D03*
X377953Y98425D02*
D03*
X368110D02*
D03*
X389764Y104331D02*
D03*
X381890D02*
D03*
X374016D02*
D03*
X381890Y112205D02*
D03*
X389764D02*
D03*
Y120079D02*
D03*
X375984Y61024D02*
D03*
X368110D02*
D03*
Y35433D02*
D03*
X298228Y94488D02*
D03*
X306102D02*
D03*
X313976D02*
D03*
X321850D02*
D03*
X313976Y86614D02*
D03*
X321850Y78740D02*
D03*
Y70866D02*
D03*
Y62992D02*
D03*
Y86614D02*
D03*
X313976Y78740D02*
D03*
X321850Y32480D02*
D03*
Y39370D02*
D03*
X313976Y70866D02*
D03*
Y62992D02*
D03*
X306102D02*
D03*
X298228D02*
D03*
Y55118D02*
D03*
X306102Y47244D02*
D03*
Y55118D02*
D03*
X313976D02*
D03*
Y47244D02*
D03*
Y39370D02*
D03*
X298228Y32480D02*
D03*
X433071Y118110D02*
D03*
X440945Y110236D02*
D03*
X447638Y69291D02*
D03*
X456693Y53937D02*
D03*
X438411Y53936D02*
D03*
X429134Y59055D02*
D03*
Y66929D02*
D03*
X447638Y61024D02*
D03*
X425197Y21654D02*
D03*
X419291Y17717D02*
D03*
Y25591D02*
D03*
X413386Y21654D02*
D03*
Y29528D02*
D03*
X401575Y35433D02*
D03*
X393701D02*
D03*
X385827D02*
D03*
X797244Y120079D02*
D03*
Y112205D02*
D03*
Y104331D02*
D03*
X448819Y427165D02*
D03*
X440945D02*
D03*
Y419291D02*
D03*
X433071D02*
D03*
Y411417D02*
D03*
X418701Y442577D02*
D03*
X423228Y456693D02*
D03*
Y448819D02*
D03*
X415354Y456693D02*
D03*
Y448819D02*
D03*
X411417Y442913D02*
D03*
X403543D02*
D03*
X407480Y456693D02*
D03*
Y448819D02*
D03*
X399606D02*
D03*
Y456693D02*
D03*
X391732Y444882D02*
D03*
Y437008D02*
D03*
Y429134D02*
D03*
X368110Y417323D02*
D03*
X391732Y421260D02*
D03*
Y403344D02*
D03*
Y411702D02*
D03*
X505905Y157480D02*
D03*
X513779D02*
D03*
X521654D02*
D03*
X513779Y149606D02*
D03*
X501968D02*
D03*
X458661Y155512D02*
D03*
Y147638D02*
D03*
Y139764D02*
D03*
X450787D02*
D03*
X442913D02*
D03*
X435039D02*
D03*
Y147638D02*
D03*
X427165Y165354D02*
D03*
X419291D02*
D03*
Y155512D02*
D03*
X427165D02*
D03*
Y147638D02*
D03*
X419291D02*
D03*
Y139764D02*
D03*
X427165Y131890D02*
D03*
X513779Y202756D02*
D03*
X505905D02*
D03*
X521654Y212598D02*
D03*
X513779D02*
D03*
X505905D02*
D03*
Y220472D02*
D03*
X513779D02*
D03*
X521654D02*
D03*
Y228346D02*
D03*
X513779D02*
D03*
X505905D02*
D03*
Y236221D02*
D03*
X513779D02*
D03*
X521654D02*
D03*
Y244094D02*
D03*
X513779D02*
D03*
X505905D02*
D03*
X521654Y259842D02*
D03*
Y251969D02*
D03*
X513779D02*
D03*
Y259842D02*
D03*
X505905D02*
D03*
Y251969D02*
D03*
X498032D02*
D03*
Y259842D02*
D03*
X490158D02*
D03*
Y251969D02*
D03*
X482283Y259842D02*
D03*
Y251969D02*
D03*
X474409Y259842D02*
D03*
Y251969D02*
D03*
X466535Y259842D02*
D03*
Y251969D02*
D03*
X379921Y476378D02*
D03*
X372047D02*
D03*
X364173D02*
D03*
X328740Y525591D02*
D03*
X312992D02*
D03*
X320866D02*
D03*
X383858Y143701D02*
D03*
Y135827D02*
D03*
X375984Y127953D02*
D03*
Y135827D02*
D03*
Y143701D02*
D03*
X383858Y151575D02*
D03*
X375984D02*
D03*
X368110D02*
D03*
Y143701D02*
D03*
Y135827D02*
D03*
Y127953D02*
D03*
Y120079D02*
D03*
X352362Y118110D02*
D03*
X344488D02*
D03*
X320866Y106299D02*
D03*
Y122047D02*
D03*
Y114173D02*
D03*
X312992D02*
D03*
Y122047D02*
D03*
Y129921D02*
D03*
X320866Y143701D02*
D03*
Y151575D02*
D03*
X312992D02*
D03*
X334646Y192913D02*
D03*
X326772D02*
D03*
X318898D02*
D03*
X334646Y200787D02*
D03*
X326772D02*
D03*
X318898D02*
D03*
X366142D02*
D03*
X374016D02*
D03*
X381890D02*
D03*
X366142Y214567D02*
D03*
X320866Y228346D02*
D03*
Y236221D02*
D03*
X312992D02*
D03*
X375984Y362205D02*
D03*
X381890Y358268D02*
D03*
Y350394D02*
D03*
X375984Y354331D02*
D03*
Y346457D02*
D03*
Y338583D02*
D03*
X368110D02*
D03*
Y330709D02*
D03*
X374016Y314961D02*
D03*
X368110D02*
D03*
X375984Y301181D02*
D03*
X368110D02*
D03*
X338583Y299213D02*
D03*
X330709D02*
D03*
X322835D02*
D03*
X314961D02*
D03*
Y291339D02*
D03*
X307087D02*
D03*
Y299213D02*
D03*
Y307087D02*
D03*
X314961D02*
D03*
X322835D02*
D03*
X307087Y315024D02*
D03*
X314961Y314961D02*
D03*
X322835D02*
D03*
X307087Y322886D02*
D03*
X314961Y322835D02*
D03*
X322835D02*
D03*
X307087Y330709D02*
D03*
X314961D02*
D03*
X322835D02*
D03*
X368110Y393701D02*
D03*
Y401575D02*
D03*
Y409449D02*
D03*
X322835Y393701D02*
D03*
X314961D02*
D03*
X307087D02*
D03*
Y401575D02*
D03*
X314961D02*
D03*
X322835D02*
D03*
X350394Y431102D02*
D03*
X342520D02*
D03*
X334646D02*
D03*
X326772D02*
D03*
X314961Y417323D02*
D03*
X322835D02*
D03*
Y409449D02*
D03*
X314961D02*
D03*
X307087D02*
D03*
X529528Y523622D02*
D03*
Y531496D02*
D03*
X521654D02*
D03*
Y523622D02*
D03*
X513779D02*
D03*
Y531496D02*
D03*
X505905D02*
D03*
Y523622D02*
D03*
X488189D02*
D03*
X478346Y531496D02*
D03*
Y523622D02*
D03*
X470472Y531496D02*
D03*
Y523622D02*
D03*
X462598D02*
D03*
X454724Y515748D02*
D03*
Y507874D02*
D03*
Y500000D02*
D03*
Y492126D02*
D03*
X446850D02*
D03*
X438976D02*
D03*
Y476378D02*
D03*
Y484252D02*
D03*
X446850D02*
D03*
X454724Y476378D02*
D03*
Y484252D02*
D03*
X527559Y417323D02*
D03*
Y409449D02*
D03*
Y401575D02*
D03*
X519685Y334646D02*
D03*
X527559D02*
D03*
Y326772D02*
D03*
X519685D02*
D03*
Y318898D02*
D03*
X527559D02*
D03*
Y303150D02*
D03*
Y311024D02*
D03*
X519685D02*
D03*
Y303150D02*
D03*
X511811D02*
D03*
Y311024D02*
D03*
Y318898D02*
D03*
Y326772D02*
D03*
Y334646D02*
D03*
X503937D02*
D03*
Y326772D02*
D03*
Y318898D02*
D03*
Y311024D02*
D03*
X511811Y287402D02*
D03*
Y295276D02*
D03*
X503937Y287402D02*
D03*
Y295276D02*
D03*
Y303150D02*
D03*
X496063D02*
D03*
Y295276D02*
D03*
Y287402D02*
D03*
X480315D02*
D03*
X488189D02*
D03*
Y295276D02*
D03*
Y303150D02*
D03*
X480315D02*
D03*
X464567D02*
D03*
X448819D02*
D03*
X456693D02*
D03*
Y311024D02*
D03*
X448819D02*
D03*
X440945D02*
D03*
Y318898D02*
D03*
X448819D02*
D03*
X456693D02*
D03*
Y326772D02*
D03*
X448819D02*
D03*
X440945D02*
D03*
Y334646D02*
D03*
X448819D02*
D03*
X456693D02*
D03*
X450787Y411417D02*
D03*
Y401575D02*
D03*
X458661D02*
D03*
Y411417D02*
D03*
X519685Y401575D02*
D03*
X511811D02*
D03*
X503937D02*
D03*
Y409449D02*
D03*
X511811D02*
D03*
X519685D02*
D03*
Y417323D02*
D03*
X511811D02*
D03*
X503937D02*
D03*
X519685Y425197D02*
D03*
X511811D02*
D03*
X503937D02*
D03*
X457161Y420760D02*
D03*
X767717Y305118D02*
D03*
Y312992D02*
D03*
Y320866D02*
D03*
Y328740D02*
D03*
X751968Y344488D02*
D03*
X744095Y236221D02*
D03*
Y244094D02*
D03*
X751968Y228346D02*
D03*
X744095D02*
D03*
X759842Y212598D02*
D03*
Y220472D02*
D03*
X751968D02*
D03*
X736221Y236221D02*
D03*
X751968D02*
D03*
X736221Y244094D02*
D03*
X814961D02*
D03*
Y236221D02*
D03*
Y228346D02*
D03*
Y220472D02*
D03*
Y212598D02*
D03*
Y204724D02*
D03*
X807087D02*
D03*
Y212598D02*
D03*
X799213D02*
D03*
Y204724D02*
D03*
X791339D02*
D03*
Y212598D02*
D03*
X783465D02*
D03*
X775591D02*
D03*
X767717Y204724D02*
D03*
Y212598D02*
D03*
Y220472D02*
D03*
X759842Y228346D02*
D03*
X767717D02*
D03*
Y236221D02*
D03*
X759842D02*
D03*
X751968Y244094D02*
D03*
X759842D02*
D03*
X767717D02*
D03*
Y336614D02*
D03*
X759842D02*
D03*
X751968D02*
D03*
X744095D02*
D03*
X736221Y344488D02*
D03*
Y336614D02*
D03*
X759842Y344488D02*
D03*
X759687Y352222D02*
D03*
X759842Y360236D02*
D03*
Y368110D02*
D03*
X751968D02*
D03*
X744095D02*
D03*
X736221D02*
D03*
X767717D02*
D03*
Y360236D02*
D03*
Y352362D02*
D03*
Y344488D02*
D03*
X775591D02*
D03*
Y352362D02*
D03*
Y360236D02*
D03*
Y368110D02*
D03*
X814961Y305118D02*
D03*
Y312992D02*
D03*
Y320866D02*
D03*
Y328740D02*
D03*
Y336614D02*
D03*
X783465Y344488D02*
D03*
X791339D02*
D03*
X799213D02*
D03*
X807087D02*
D03*
X814961D02*
D03*
Y352362D02*
D03*
X807087D02*
D03*
X799213D02*
D03*
X791339D02*
D03*
X783465D02*
D03*
Y360236D02*
D03*
X791339D02*
D03*
X799213D02*
D03*
X807087D02*
D03*
X814961D02*
D03*
Y368110D02*
D03*
X807087D02*
D03*
X799213D02*
D03*
X791339D02*
D03*
X783465D02*
D03*
X736221Y484252D02*
D03*
Y476378D02*
D03*
X744095D02*
D03*
X751968D02*
D03*
X759842D02*
D03*
X767717D02*
D03*
Y484252D02*
D03*
X759842D02*
D03*
X751968D02*
D03*
X744095D02*
D03*
Y492126D02*
D03*
X751968Y500000D02*
D03*
Y492126D02*
D03*
X759842D02*
D03*
Y500000D02*
D03*
Y507874D02*
D03*
X736221Y425197D02*
D03*
Y417323D02*
D03*
Y409449D02*
D03*
Y401575D02*
D03*
Y393701D02*
D03*
X744095D02*
D03*
Y401575D02*
D03*
Y409449D02*
D03*
Y417323D02*
D03*
Y425197D02*
D03*
X751968D02*
D03*
Y417323D02*
D03*
Y409449D02*
D03*
Y401575D02*
D03*
Y393701D02*
D03*
X759842D02*
D03*
Y401575D02*
D03*
Y409449D02*
D03*
Y417323D02*
D03*
Y425197D02*
D03*
X816929Y492126D02*
D03*
Y500000D02*
D03*
Y507874D02*
D03*
Y515748D02*
D03*
Y523622D02*
D03*
Y531496D02*
D03*
X809055D02*
D03*
Y523622D02*
D03*
X801181D02*
D03*
X793307D02*
D03*
X785433D02*
D03*
X777559D02*
D03*
X767717Y515748D02*
D03*
Y507874D02*
D03*
Y500000D02*
D03*
Y492126D02*
D03*
X816929Y422244D02*
D03*
Y414370D02*
D03*
Y406496D02*
D03*
Y398622D02*
D03*
Y382874D02*
D03*
Y390748D02*
D03*
X809055D02*
D03*
Y382874D02*
D03*
X793307D02*
D03*
X801181D02*
D03*
Y390748D02*
D03*
X793307D02*
D03*
X785433D02*
D03*
X767717Y425197D02*
D03*
Y417323D02*
D03*
Y409449D02*
D03*
Y401575D02*
D03*
Y393701D02*
D03*
X462598Y484252D02*
D03*
X470472D02*
D03*
X478346D02*
D03*
X486221D02*
D03*
X494095D02*
D03*
X529528Y515748D02*
D03*
Y507874D02*
D03*
Y500000D02*
D03*
X521654D02*
D03*
Y507874D02*
D03*
Y515748D02*
D03*
X513779Y492126D02*
D03*
Y500000D02*
D03*
Y507874D02*
D03*
Y515748D02*
D03*
X505905Y492126D02*
D03*
Y500000D02*
D03*
Y507874D02*
D03*
Y515748D02*
D03*
X645669Y95276D02*
D03*
X629921Y95669D02*
D03*
X614173D02*
D03*
X598425Y96063D02*
D03*
X551181Y97638D02*
D03*
X535433D02*
D03*
X519685D02*
D03*
X503937D02*
D03*
X488189D02*
D03*
X472835D02*
D03*
X403543Y71850D02*
D03*
Y78740D02*
D03*
Y85630D02*
D03*
X598425Y64961D02*
D03*
X582677D02*
D03*
X566929D02*
D03*
X551181D02*
D03*
X535433D02*
D03*
X519685D02*
D03*
X503937D02*
D03*
X488189D02*
D03*
X472441D02*
D03*
D73*
X359252Y524062D02*
D03*
X256448Y407836D02*
D03*
X253120Y411584D02*
D03*
X342520Y534449D02*
D03*
X359252Y518701D02*
D03*
X263779Y405512D02*
D03*
X365158Y518701D02*
D03*
X382781D02*
D03*
X371934Y509955D02*
D03*
X267717Y401575D02*
D03*
X409449Y526575D02*
D03*
X172047Y159449D02*
D03*
X208661Y142717D02*
D03*
Y148622D02*
D03*
Y154528D02*
D03*
X40979Y187598D02*
D03*
X59449Y211024D02*
D03*
X40945Y204724D02*
D03*
X201969Y163386D02*
D03*
X208661Y160433D02*
D03*
X407480Y512795D02*
D03*
X413386Y519685D02*
D03*
X208268Y198819D02*
D03*
X209449Y285039D02*
D03*
X440945Y539370D02*
D03*
X396654Y146127D02*
D03*
X421529Y89679D02*
D03*
X511978Y275006D02*
D03*
X581693Y321850D02*
D03*
X682087Y124016D02*
D03*
X609252D02*
D03*
X501968Y136811D02*
D03*
X565945Y102362D02*
D03*
X338902Y281188D02*
D03*
X301969Y183071D02*
D03*
X301181Y218504D02*
D03*
X426219Y312045D02*
D03*
X440945Y519685D02*
D03*
X423228Y519538D02*
D03*
X419291Y539797D02*
D03*
X801181Y71850D02*
D03*
X654528D02*
D03*
X395617Y253491D02*
D03*
X395669Y259842D02*
D03*
X299213Y207435D02*
D03*
X296157Y191688D02*
D03*
X297758Y225626D02*
D03*
X349213Y473228D02*
D03*
X391732Y394258D02*
D03*
X296504Y408255D02*
D03*
X277256Y398237D02*
D03*
X287992Y413975D02*
D03*
X296771Y415560D02*
D03*
X289370Y419291D02*
D03*
X429831Y301181D02*
D03*
X456545Y281890D02*
D03*
X606299Y336614D02*
D03*
X419291Y257874D02*
D03*
Y273622D02*
D03*
X365256Y228248D02*
D03*
X275590Y266929D02*
D03*
X262852Y233324D02*
D03*
X209055Y166535D02*
D03*
X251462Y238696D02*
D03*
X198425Y181890D02*
D03*
X171653Y184252D02*
D03*
X184366Y197638D02*
D03*
X192520Y210630D02*
D03*
X184646Y174016D02*
D03*
X190551D02*
D03*
X399606Y322933D02*
D03*
X454724Y239170D02*
D03*
X433071Y254724D02*
D03*
X266142Y217323D02*
D03*
X252362Y183858D02*
D03*
X223917Y172851D02*
D03*
X192641Y167757D02*
D03*
X330729Y270079D02*
D03*
X172244Y213583D02*
D03*
X359449Y297638D02*
D03*
X649311Y50098D02*
D03*
X468110Y281496D02*
D03*
X361811Y250787D02*
D03*
X377953Y280709D02*
D03*
X438976Y249213D02*
D03*
X441698Y238942D02*
D03*
X429134Y201575D02*
D03*
X444882Y205512D02*
D03*
X212802Y210820D02*
D03*
X268504Y191339D02*
D03*
X231496Y193701D02*
D03*
X266929Y204331D02*
D03*
X244882Y226772D02*
D03*
X209252Y236402D02*
D03*
X218110Y236221D02*
D03*
X231751Y178961D02*
D03*
X777559Y77756D02*
D03*
X279528Y199803D02*
D03*
X283177Y185736D02*
D03*
X287402Y179134D02*
D03*
X272638Y186024D02*
D03*
Y180118D02*
D03*
X279528Y164370D02*
D03*
X272638D02*
D03*
D74*
X387795Y234685D02*
D03*
D75*
Y237185D02*
D03*
Y239685D02*
D03*
Y242185D02*
D03*
Y244685D02*
D03*
Y247185D02*
D03*
Y249685D02*
D03*
Y252185D02*
D03*
Y254685D02*
D03*
Y257185D02*
D03*
Y259685D02*
D03*
Y262185D02*
D03*
Y264685D02*
D03*
Y267185D02*
D03*
Y269685D02*
D03*
Y272185D02*
D03*
Y274685D02*
D03*
Y277185D02*
D03*
Y279685D02*
D03*
Y282185D02*
D03*
Y284685D02*
D03*
Y287185D02*
D03*
Y289685D02*
D03*
Y292185D02*
D03*
X427165Y234685D02*
D03*
Y237185D02*
D03*
Y239685D02*
D03*
Y242185D02*
D03*
Y244685D02*
D03*
Y247185D02*
D03*
Y249685D02*
D03*
Y252185D02*
D03*
Y254685D02*
D03*
Y257185D02*
D03*
Y259685D02*
D03*
Y262185D02*
D03*
Y264685D02*
D03*
Y267185D02*
D03*
Y269685D02*
D03*
Y272185D02*
D03*
Y274685D02*
D03*
Y277185D02*
D03*
Y279685D02*
D03*
Y282185D02*
D03*
Y284685D02*
D03*
Y287185D02*
D03*
Y289685D02*
D03*
Y292185D02*
D03*
D76*
X438976Y255807D02*
D03*
Y263878D02*
D03*
D77*
X450886Y255906D02*
D03*
X458563D02*
D03*
D78*
X440945Y243996D02*
D03*
Y232382D02*
D03*
X454724Y243996D02*
D03*
Y232382D02*
D03*
X440945Y224311D02*
D03*
Y212697D02*
D03*
X472441Y88484D02*
D03*
Y76870D02*
D03*
X488189D02*
D03*
Y88484D02*
D03*
X503937Y76870D02*
D03*
Y88484D02*
D03*
X519685Y76870D02*
D03*
Y88484D02*
D03*
X535433Y76870D02*
D03*
Y88484D02*
D03*
X551181Y76870D02*
D03*
Y88484D02*
D03*
X566929Y76870D02*
D03*
Y88484D02*
D03*
X582677Y76870D02*
D03*
Y88484D02*
D03*
X598425Y76870D02*
D03*
Y88484D02*
D03*
X614173Y76870D02*
D03*
Y88484D02*
D03*
X629921Y76870D02*
D03*
Y88484D02*
D03*
X645669Y76870D02*
D03*
Y88484D02*
D03*
D79*
X251673Y208954D02*
D03*
Y213954D02*
D03*
Y218954D02*
D03*
Y223954D02*
D03*
X273130Y208954D02*
D03*
Y213954D02*
D03*
Y218954D02*
D03*
Y223954D02*
D03*
D80*
X266339Y183973D02*
D03*
X258465Y187714D02*
D03*
Y180233D02*
D03*
X238779Y195784D02*
D03*
X246654Y192044D02*
D03*
Y199525D02*
D03*
X171850Y177084D02*
D03*
X179724Y173344D02*
D03*
Y180824D02*
D03*
D81*
X209252Y243816D02*
D03*
X217913D02*
D03*
Y229249D02*
D03*
X209252D02*
D03*
D82*
X190650Y199606D02*
D03*
Y197638D02*
D03*
Y195669D02*
D03*
Y193701D02*
D03*
Y191732D02*
D03*
Y189764D02*
D03*
Y187795D02*
D03*
Y185827D02*
D03*
Y183858D02*
D03*
Y181890D02*
D03*
Y179921D02*
D03*
Y177953D02*
D03*
X223917D02*
D03*
Y179921D02*
D03*
Y181890D02*
D03*
Y183858D02*
D03*
Y185827D02*
D03*
Y187795D02*
D03*
Y189764D02*
D03*
Y191732D02*
D03*
Y193701D02*
D03*
Y195669D02*
D03*
Y197638D02*
D03*
Y199606D02*
D03*
D83*
X196457Y172146D02*
D03*
X198425D02*
D03*
X200394D02*
D03*
X202362D02*
D03*
X204331D02*
D03*
X206299D02*
D03*
X208268D02*
D03*
X210236D02*
D03*
X212205D02*
D03*
X214173D02*
D03*
X216142D02*
D03*
X218110D02*
D03*
Y205413D02*
D03*
X216142D02*
D03*
X214173D02*
D03*
X212205D02*
D03*
X210236D02*
D03*
X208268D02*
D03*
X206299D02*
D03*
X204331D02*
D03*
X202362D02*
D03*
X200394D02*
D03*
X198425D02*
D03*
X196457D02*
D03*
D84*
X217520Y221260D02*
D03*
Y215748D02*
D03*
X201378Y214682D02*
D03*
Y220194D02*
D03*
X207283Y220194D02*
D03*
Y214682D02*
D03*
X177756Y223540D02*
D03*
Y229052D02*
D03*
D85*
X185925Y230233D02*
D03*
Y252233D02*
D03*
X198425D02*
D03*
Y230233D02*
D03*
D86*
X606201Y346457D02*
D03*
X594587D02*
D03*
X643602Y43307D02*
D03*
X631988D02*
D03*
D87*
X594488Y321161D02*
D03*
Y332382D02*
D03*
X546260Y132579D02*
D03*
Y121358D02*
D03*
D88*
X616142Y314173D02*
D03*
Y319685D02*
D03*
D89*
X607087Y307087D02*
D03*
X601575D02*
D03*
X572047Y110236D02*
D03*
X577559D02*
D03*
X572047Y102362D02*
D03*
X577559D02*
D03*
D90*
X554744Y154626D02*
D03*
X549744D02*
D03*
X544744D02*
D03*
X539744D02*
D03*
X554744Y176083D02*
D03*
X549744D02*
D03*
X544744D02*
D03*
X539744D02*
D03*
D91*
X555118Y197244D02*
D03*
Y220079D02*
D03*
D92*
X590551Y167323D02*
D03*
Y236221D02*
D03*
X679134Y167323D02*
D03*
Y236221D02*
D03*
D93*
X580551Y127114D02*
D03*
X600551D02*
D03*
Y276429D02*
D03*
X580551D02*
D03*
X669134Y127114D02*
D03*
X689134D02*
D03*
X669134Y276429D02*
D03*
X689134D02*
D03*
D94*
X633563Y57087D02*
X642028D01*
D95*
X577716Y223386D02*
X590551Y236221D01*
X554744Y176083D02*
Y194390D01*
X549744Y176083D02*
X554744D01*
X544744D02*
X549744D01*
X539744D02*
X544744D01*
M02*
