%FSTAX23Y23*%
%MOIN*%
%SFA1B1*%

%IPPOS*%
%ADD13C,0.010000*%
%ADD61R,0.104330X0.104330*%
%ADD62C,0.104330*%
%ADD64C,0.050000*%
%ADD67C,0.055120*%
%ADD68R,0.070870X0.062990*%
%ADD69O,0.100000X0.130000*%
%ADD72C,0.031500*%
%ADD73C,0.059060*%
%LNpcb1-1*%
%LPD*%
G36*
X07204Y05492D02*
Y02185D01*
X06397*
X05708Y02874*
Y04606*
X04237*
X04227*
X04173*
X04158*
X04148*
X04147*
X04079*
X04069*
X04001*
X0399*
X03846*
X03845Y04607*
X03842Y04609*
X03838Y0461*
X03021*
Y05233*
X03021Y05237*
X0302Y05238*
X03032Y05246*
X03045Y05258*
X0305Y05267*
X03052Y05266*
X03055Y05265*
X03095*
X03097Y05265*
X03098Y05265*
X03099Y05266*
X03099Y05266*
X031Y05267*
X03101Y05267*
X03102Y05268*
X03102Y05268*
X03103Y05269*
X03104Y0527*
X03106Y05273*
X03111Y05279*
X03118Y05283*
X03126Y05285*
X03133*
X03141Y05283*
X03147Y05279*
X03153Y05273*
X03155Y0527*
X03156Y05269*
X03156Y05268*
X03157Y05268*
X03157Y05267*
X03159Y05267*
X0316Y05266*
X0316Y05266*
X03161Y05265*
X03162Y05265*
X03164Y05265*
X03174*
X03175Y05265*
X03177Y05265*
X03177Y05266*
X03178Y05266*
X03179Y05267*
X0318Y05267*
X03181Y05268*
X03181Y05268*
X03182Y05269*
X03183Y0527*
X03185Y05273*
X0319Y05279*
X03197Y05283*
X03204Y05285*
X03212*
X03219Y05283*
X03226Y05279*
X03232Y05273*
X03234Y0527*
X03234Y05269*
X03235Y05268*
X03236Y05268*
X03236Y05267*
X03237Y05267*
X03238Y05266*
X03239Y05266*
X0324Y05265*
X03241Y05265*
X03242Y05265*
X03253*
X03254Y05265*
X03255Y05265*
X03256Y05266*
X03257Y05266*
X03258Y05267*
X03259Y05267*
X03259Y05268*
X0326Y05268*
X03261Y05269*
X03262Y0527*
X03263Y05273*
X03269Y05279*
X03276Y05283*
X03283Y05285*
X03291*
X03298Y05283*
X03305Y05279*
X0331Y05273*
X03312Y0527*
X03313Y05269*
X03314Y05268*
X03314Y05268*
X03315Y05267*
X03316Y05267*
X03317Y05266*
X03318Y05266*
X03318Y05265*
X0332Y05265*
X03321Y05265*
X03539*
X03561Y05243*
X03561Y05243*
X03562Y05242*
X03562Y05242*
X03563Y05241*
X03564Y05241*
X03565Y0524*
X03566Y0524*
X03566Y0524*
Y05237*
X03568Y0523*
X03572Y05224*
X03576Y0522*
X03582Y05216*
X03589Y05215*
X03592*
X03592Y05214*
X03592Y05213*
X03592Y05212*
X03593Y05212*
X03589*
X03582Y0521*
X03576Y05207*
X03572Y05202*
X03568Y05196*
X03566Y0519*
Y05183*
X03568Y05177*
X03572Y05171*
X03576Y05166*
X03582Y05163*
X03589Y05161*
X03595*
X03602Y05163*
X03608Y05166*
X03613Y05171*
X03616Y05177*
X03618Y05183*
Y05186*
X03619Y05185*
X03619Y05184*
X0362Y05184*
X03621Y05183*
X03622Y05183*
X03623Y05182*
X03623Y05182*
X03625Y05182*
X03626Y05182*
X03627Y05177*
X03631Y05171*
X03635Y05166*
X03641Y05163*
X03648Y05161*
X03654*
X03656Y05161*
X03657Y05161*
X03657Y0516*
X03658Y05159*
X03658Y05158*
X03659Y05158*
X03659Y05157*
X03661Y05157*
X03662Y05156*
X03662Y05156*
X03663Y05156*
X03664Y05155*
X03665Y05155*
X03978*
X04055Y05078*
X04486*
Y0516*
X04487Y05161*
X04488Y05165*
Y0532*
X04546Y05379*
Y05373*
X04626*
Y05453*
X04616*
Y05492*
X07204*
G37*
G36*
X04606Y05453D02*
X04546D01*
Y05393*
X04478Y05324*
Y05165*
X03665*
X03667Y05166*
X03672Y05171*
X03675Y05177*
X03677Y05183*
Y0519*
X03675Y05196*
X03672Y05202*
X03667Y05207*
X03661Y0521*
X03654Y05212*
X03648*
X03641Y0521*
X03635Y05207*
X03631Y05202*
X03627Y05196*
X03626Y05192*
X03602Y05216*
X03602Y05216*
X03608Y0522*
X03613Y05224*
X03616Y0523*
X03618Y05237*
Y05243*
X03616Y0525*
X03613Y05256*
X03608Y05261*
X03602Y05264*
X03595Y05266*
X03589*
X03582Y05264*
X03576Y05261*
X03572Y05256*
X03568Y0525*
X03568Y0525*
X03568Y0525*
X03543Y05275*
X03321*
X03318Y0528*
X03311Y05287*
X03302Y05292*
X03292Y05295*
X03282*
X03272Y05292*
X03263Y05287*
X03255Y0528*
X03253Y05275*
X03242*
X0324Y0528*
X03232Y05287*
X03223Y05292*
X03213Y05295*
X03203*
X03193Y05292*
X03184Y05287*
X03177Y0528*
X03174Y05275*
X03164*
X03161Y0528*
X03154Y05287*
X03145Y05292*
X03135Y05295*
X03124*
X03114Y05292*
X03105Y05287*
X03098Y0528*
X03095Y05275*
X03055*
X03061Y05289*
X03064Y05306*
Y05323*
X03061Y0534*
X03054Y05356*
X03045Y05371*
X03032Y05383*
X03018Y05393*
X03002Y054*
X02985Y05403*
X02967*
X0295Y054*
X02934Y05393*
X02919Y05383*
X02907Y05371*
X02897Y05356*
X02891Y0534*
X02887Y05323*
Y05306*
X02891Y05289*
X02897Y05273*
X02907Y05258*
X02919Y05246*
X02934Y05236*
X0295Y05229*
X02967Y05226*
X02985*
X03002Y05229*
X03011Y05233*
Y0449*
X03002Y04494*
X02985Y04498*
X02967*
X0295Y04494*
X02934Y04487*
X02919Y04478*
X02907Y04465*
X02897Y04451*
X02891Y04435*
X02887Y04418*
Y044*
X02891Y04383*
X02897Y04367*
X02907Y04352*
X02919Y0434*
X02934Y0433*
X0295Y04324*
X02967Y0432*
X02985*
X03002Y04324*
X03011Y04328*
Y03585*
X03002Y03589*
X02985Y03592*
X02967*
X0295Y03589*
X02934Y03582*
X02919Y03572*
X02907Y0356*
X02897Y03545*
X02891Y03529*
X02887Y03512*
Y03495*
X02891Y03478*
X02897Y03461*
X02907Y03447*
X02919Y03435*
X02934Y03425*
X0295Y03418*
X02967Y03415*
X02985*
X03002Y03418*
X03011Y03422*
Y02854*
X03252*
X03259Y02846*
X0327Y02839*
X03281Y02835*
X03293Y02832*
X03306*
X03318Y02835*
X03329Y02839*
X0334Y02846*
X03347Y02854*
X03661*
X03838Y03031*
Y03385*
X04212*
X04381Y03216*
X04377Y03213*
X04372Y03204*
X0437Y03194*
Y03183*
X04372Y03173*
X04377Y03164*
X04385Y03157*
X04394Y03152*
X04404Y03149*
X04414*
X04424Y03152*
X04433Y03157*
X04437Y03161*
X0446Y03138*
X04456Y03134*
X04451Y03125*
X04448Y03115*
Y03105*
X04451Y03095*
X04456Y03086*
X04464Y03078*
X04472Y03073*
X04483Y0307*
X04493*
X04503Y03073*
X04512Y03078*
X04516Y03082*
X04539Y03059*
X04535Y03055*
X0453Y03046*
X04527Y03036*
Y03026*
X0453Y03016*
X04535Y03007*
X04542Y02999*
X04551Y02994*
X04553Y02994*
X04551Y02993*
X04542Y02988*
X04535Y02981*
X0453Y02972*
X04527Y02962*
Y02951*
X0453Y02941*
X04535Y02932*
X04542Y02925*
X04551Y0292*
X04561Y02917*
X04572*
X04582Y0292*
X04591Y02925*
X04598Y02932*
X04603Y02941*
X04606Y02951*
Y02962*
X04603Y02972*
X04598Y02981*
X04591Y02988*
X04582Y02993*
X0458Y02994*
X04582Y02994*
X04591Y02999*
X04594Y03003*
X04763Y02834*
Y02755*
X04625Y02618*
Y01968*
X03897*
X03858Y02007*
Y02013*
X03855Y02023*
X0385Y02032*
X03843Y02039*
X03834Y02044*
X03824Y02047*
X03818*
X03622Y02244*
Y02421*
X02933*
Y02176*
Y02169*
Y02096*
Y0209*
Y02013*
Y02013*
Y01877*
Y01875*
Y01841*
Y01841*
Y01839*
Y01839*
Y01831*
Y01828*
Y01826*
Y01825*
Y01812*
Y01811*
Y01803*
Y01798*
Y0179*
X02919Y01781*
X02907Y01769*
X02897Y01754*
X02891Y01738*
X02887Y01721*
Y01704*
X02891Y01687*
X02897Y0167*
X02907Y01656*
X02919Y01644*
X02933Y01635*
Y01629*
Y01628*
Y0162*
Y01619*
Y01618*
Y01614*
Y01607*
Y01604*
Y01588*
Y01584*
Y01583*
Y0158*
Y01578*
Y01574*
Y01524*
Y01521*
Y01465*
Y01462*
Y01417*
Y01411*
Y01406*
Y01401*
Y00865*
X02919Y00856*
X02907Y00843*
X02897Y00829*
X02891Y00813*
X02887Y00796*
Y00778*
X02891Y00761*
X02897Y00745*
X02907Y0073*
X02919Y00718*
X02933Y00709*
Y00275*
Y00019*
X01456*
Y02854*
X0145Y05495*
X04606*
Y05453*
G37*
G36*
X04237Y04596D02*
X05698D01*
Y02874*
X05699Y0287*
X05701Y02866*
X0639Y02177*
X06393Y02175*
X06397Y02175*
X07185*
Y01968*
X07191*
X07191Y01968*
X07193Y01965*
X07197Y01962*
X07201Y01962*
X07746*
X0775Y01962*
X07753Y01965*
X07755Y01968*
X07755Y01968*
X07756*
X07766Y01966*
X07778*
X07788Y01968*
X07789*
X07789Y01968*
X07791Y01965*
X07794Y01962*
X07798Y01962*
X08244*
X08246Y01962*
X08248Y01962*
X08248Y01962*
X08248Y01962*
X08249Y01963*
X08251Y01965*
X08251Y01965*
X08251Y01965*
X08251Y01965*
Y01003*
X0746*
X07224Y0124*
X06846*
Y01243*
X06844Y0125*
X06841Y01255*
X06836Y0126*
X0683Y01264*
X06824Y01265*
X06817*
X0681Y01264*
X06805Y0126*
X068Y01255*
X068Y01255*
X06113*
X06113Y01255*
X06108Y0126*
X06102Y01264*
X06095Y01265*
X06089*
X06082Y01264*
X06076Y0126*
X06072Y01255*
X06068Y0125*
X06066Y01243*
Y0124*
X05314*
Y01328*
X05374*
X05377Y01329*
X05381Y01331*
X05383Y01334*
X05384Y01338*
Y02732*
X05383Y02736*
X05381Y02739*
X05377Y02742*
X05374Y02742*
X05364*
Y02881*
X05363Y02885*
X05361Y02888*
X05358Y0289*
X05357Y0289*
X0536Y02904*
Y02922*
X05357Y02935*
X05358Y02935*
X05361Y02938*
X05363Y02941*
X05364Y02945*
Y03779*
X05363Y03783*
X05361Y03786*
X05358Y03788*
X0536Y03793*
X05363Y0381*
Y03827*
X0536Y03844*
X05358Y03849*
X05361Y03851*
X05363Y03854*
X05364Y03858*
Y04173*
X05363Y04177*
X05362Y04178*
X05361Y0418*
X05223Y04318*
X0522Y0432*
X05216Y04321*
X04606*
X04602Y0432*
X04599Y04318*
X04412Y04131*
X04412Y0413*
X04411Y0413*
X04411Y04129*
X0441Y04128*
X0441Y04127*
X0441Y04126*
Y04125*
X04409Y04124*
X0441Y04123*
Y04122*
X04408Y04122*
X04397Y04117*
X04387Y0411*
X04378Y04101*
X04371Y04091*
X04366Y0408*
X04366Y04078*
X04365*
X04364Y04079*
X04363Y04078*
X04362*
X04361Y04078*
X0436Y04078*
X04359Y04077*
X04358Y04077*
X04358Y04076*
X04357Y04076*
X04303Y04022*
X04301Y04019*
X043Y04015*
Y03976*
X03867*
X03858Y03985*
Y04596*
X0399*
X04001*
X04069*
X04079*
X04148*
X04158*
X04173*
X04227*
X04237*
G37*
G36*
X03838Y046D02*
Y04371D01*
X03773Y04437*
X03775Y04444*
Y04453*
X03772Y04462*
X03768Y0447*
X03761Y04476*
X03753Y04481*
X03744Y04483*
X03735*
X03726Y04481*
X03718Y04476*
X03712Y0447*
X03707Y04462*
X03705Y04453*
Y04444*
X03707Y04435*
X03712Y04427*
X03718Y0442*
X03726Y04416*
X03735Y04413*
X03744*
X03751Y04415*
X03762Y04404*
X03705*
Y04335*
X03775*
Y04392*
X03823Y04344*
Y03983*
X03824Y03978*
X03824Y03977*
X03827Y03972*
X04197Y03603*
Y03395*
X03838*
X03834Y03395*
X03831Y03392*
X03829Y03389*
X03828Y03385*
Y03035*
X03657Y02864*
X03354*
X03355Y02865*
X0336Y02877*
X03362Y02889*
Y02901*
X0336Y02914*
X03355Y02925*
X03348Y02935*
X0334Y02944*
X03329Y02951*
X03318Y02956*
X03306Y02958*
X03293*
X03281Y02956*
X0327Y02951*
X03259Y02944*
X03251Y02935*
X03244Y02925*
X03239Y02914*
X03237Y02901*
Y02889*
X03239Y02877*
X03244Y02865*
X03245Y02864*
X03021*
Y03422*
X03021Y03426*
X0302Y03427*
X03032Y03435*
X03045Y03447*
X03054Y03461*
X03061Y03478*
X03064Y03495*
Y03512*
X03061Y03529*
X03054Y03545*
X03045Y0356*
X03032Y03572*
X0302Y0358*
X03021Y03581*
X03021Y03585*
Y04328*
X03021Y04332*
X0302Y04332*
X03032Y0434*
X03045Y04352*
X03054Y04367*
X03061Y04383*
X03064Y044*
Y04418*
X03061Y04435*
X03054Y04451*
X03045Y04465*
X03032Y04478*
X0302Y04486*
X03021Y04486*
X03021Y0449*
Y046*
X03838*
G37*
G36*
X05354Y04173D02*
Y03858D01*
X05353Y0386*
X05343Y03875*
X05331Y03887*
X05316Y03897*
X053Y03904*
X05283Y03907*
X05266*
X05249Y03904*
X05232Y03897*
X05218Y03887*
X05206Y03875*
X05196Y0386*
X05189Y03844*
X05186Y03827*
Y0381*
X05189Y03793*
X05196Y03776*
X05206Y03762*
X05218Y0375*
X05232Y0374*
X05249Y03733*
X05266Y0373*
X05283*
X053Y03733*
X05316Y0374*
X05331Y0375*
X05343Y03762*
X05353Y03776*
X05354Y03779*
Y02945*
X0535Y02955*
X0534Y02969*
X05328Y02982*
X05313Y02991*
X05297Y02998*
X0528Y03001*
X05262*
X05245Y02998*
X05229Y02991*
X05215Y02982*
X05202Y02969*
X05193Y02955*
X05186Y02939*
X05183Y02922*
Y02904*
X05186Y02887*
X05193Y02871*
X05202Y02856*
X05215Y02844*
X05229Y02834*
X05245Y02828*
X05262Y02824*
X0528*
X05297Y02828*
X05313Y02834*
X05328Y02844*
X0534Y02856*
X0535Y02871*
X05354Y02881*
Y02742*
X05144*
X05145Y02746*
Y02753*
X05143Y02759*
X0514Y02765*
X05135Y0277*
X05129Y02773*
X05123Y02775*
X05116*
X05109Y02773*
X05104Y0277*
X05099Y02765*
X05095Y02759*
X05094Y02753*
Y02746*
X05095Y02742*
X04764*
X0477Y02748*
X04773Y02752*
X04773Y02755*
Y02834*
X04773Y02838*
X04772Y02839*
X0477Y02841*
X04601Y0301*
X04598Y03012*
X04594Y03013*
X0459Y03012*
X04588Y03011*
X04587Y0301*
X04584Y03008*
X04578Y03004*
X04577Y03004*
X04576Y03003*
X04575Y03003*
X04574Y03002*
X04574Y03002*
X04573Y03001*
X04572Y03*
X04572Y02999*
X04571Y02999*
X04571Y02998*
X0457Y02996*
X0457Y02996*
X0457Y02995*
X0457Y02994*
X0457Y02993*
X0457Y02992*
X0457Y02991*
X04571Y0299*
X04571Y02989*
X04572Y02988*
X04572Y02988*
X04573Y02987*
X04574Y02986*
X04574Y02986*
X04575Y02985*
X04576Y02985*
X04577Y02984*
X04578Y02984*
X04585Y0298*
X0459Y02975*
X04594Y02968*
X04596Y02961*
Y02953*
X04594Y02945*
X0459Y02939*
X04585Y02933*
X04578Y02929*
X0457Y02927*
X04563*
X04555Y02929*
X04549Y02933*
X04543Y02939*
X04539Y02945*
X04537Y02953*
Y02961*
X04539Y02968*
X04543Y02975*
X04549Y0298*
X04555Y02984*
X04556Y02984*
X04557Y02985*
X04558Y02985*
X04559Y02986*
X04559Y02986*
X0456Y02987*
X04561Y02988*
X04561Y02988*
X04562Y02989*
X04562Y0299*
X04563Y02991*
X04563Y02992*
X04563Y02993*
X04563Y02994*
X04563Y02995*
X04563Y02996*
X04563Y02996*
X04562Y02998*
X04562Y02999*
X04561Y02999*
X04561Y03*
X0456Y03001*
X04559Y03002*
X04559Y03002*
X04558Y03003*
X04557Y03003*
X04556Y03004*
X04555Y03004*
X04548Y03008*
X04543Y03013*
X04539Y0302*
X04537Y03027*
Y03035*
X04539Y03042*
X04543Y03049*
X04546Y03052*
X04548Y03055*
X04549Y03059*
X04548Y03063*
X04547Y03065*
X04546Y03066*
X04523Y03089*
X04519Y03091*
X04516Y03092*
X04512Y03091*
X0451Y0309*
X04508Y03089*
X04506Y03086*
X04499Y03082*
X04492Y0308*
X04484*
X04476Y03082*
X0447Y03086*
X04464Y03092*
X0446Y03098*
X04458Y03106*
Y03114*
X0446Y03121*
X04464Y03128*
X04467Y0313*
X04469Y03134*
X0447Y03138*
X04469Y03141*
X04467Y03145*
X04444Y03168*
X04441Y0317*
X04437Y03171*
X04433Y0317*
X04431Y03169*
X0443Y03168*
X04427Y03165*
X0442Y03161*
X04413Y03159*
X04405*
X04398Y03161*
X04391Y03165*
X04385Y0317*
X04382Y03177*
X0438Y03185*
Y03192*
X04382Y032*
X04385Y03206*
X04388Y03209*
X0439Y03212*
X04391Y03216*
X0439Y0322*
X04388Y03223*
X04311Y03301*
Y04015*
X04364Y04069*
X04364Y04068*
Y04055*
X04366Y04043*
X04371Y04031*
X04378Y04021*
X04387Y04012*
X04397Y04005*
X04408Y04001*
X0442Y03998*
X04433*
X04445Y04001*
X04457Y04005*
X04467Y04012*
X04476Y04021*
X04482Y04031*
X04487Y04043*
X0449Y04055*
Y04068*
X04487Y0408*
X04482Y04091*
X04476Y04101*
X04467Y0411*
X04457Y04117*
X04445Y04122*
X04433Y04124*
X0442*
X04419Y04124*
X04606Y04311*
X05216*
X05354Y04173*
G37*
G36*
X08251Y03802D02*
X07822D01*
X07827Y0381*
X07832Y03822*
X07834Y03834*
Y03846*
X07832Y03858*
X07827Y0387*
X0782Y0388*
X07811Y03889*
X07801Y03896*
X0779Y03901*
X07777Y03903*
X07765*
X07753Y03901*
X07741Y03896*
X07731Y03889*
X07722Y0388*
X07715Y0387*
X07711Y03858*
X07708Y03846*
Y03834*
X07711Y03822*
X07715Y0381*
X07721Y03802*
X07214*
Y05492*
X08251*
Y03802*
G37*
G36*
X07816Y03795D02*
X07816Y03794D01*
X07817Y03794*
X07818Y03793*
X07819Y03793*
X0782Y03793*
X07821*
X07822Y03792*
X07916*
X07917Y03792*
X07927Y03789*
X07938*
X07948Y03792*
X07949Y03792*
X07995*
X07996Y03792*
X08006Y03789*
X08016*
X08027Y03792*
X08028Y03792*
X08073*
X08075Y03792*
X08085Y03789*
X08095*
X08105Y03792*
X08107Y03792*
X08152*
X08154Y03792*
X08164Y03789*
X08174*
X08184Y03792*
X08185Y03792*
X08251*
Y02651*
X08244Y01972*
X07798*
X07802Y01973*
X07812Y0198*
X07821Y01989*
X07828Y01999*
X07833Y02011*
X07835Y02023*
Y02035*
X07833Y02047*
X07828Y02059*
X07821Y02069*
X07812Y02078*
X07802Y02085*
X0779Y0209*
X07778Y02092*
X07766*
X07754Y0209*
X07742Y02085*
X07732Y02078*
X07723Y02069*
X07716Y02059*
X07711Y02047*
X07709Y02035*
Y02023*
X07711Y02011*
X07716Y01999*
X07723Y01989*
X07732Y0198*
X07742Y01973*
X07746Y01972*
X07201*
Y02175*
X07204*
X07208Y02175*
X07211Y02177*
X07214Y02181*
X07214Y02185*
Y0269*
X07216Y02692*
X07221Y02701*
X07224Y02711*
Y02721*
X07221Y02731*
X07216Y0274*
X07214Y02742*
Y02769*
X07216Y02771*
X07221Y0278*
X07224Y0279*
Y028*
X07221Y0281*
X07216Y02819*
X07214Y02821*
Y02848*
X07216Y02849*
X07221Y02858*
X07224Y02868*
Y02879*
X07221Y02889*
X07216Y02898*
X07214Y02899*
Y02926*
X07216Y02928*
X07221Y02937*
X07224Y02947*
Y02957*
X07221Y02967*
X07216Y02976*
X07214Y02978*
Y03005*
X07216Y03007*
X07221Y03016*
X07224Y03026*
Y03036*
X07221Y03046*
X07216Y03055*
X07214Y03057*
Y03792*
X07721*
X07722Y03793*
X07723*
X07723Y03793*
X07724Y03793*
X07725Y03794*
X07726Y03794*
X07727Y03795*
X07727Y03795*
X07731Y03791*
X07741Y03784*
X07753Y03779*
X07765Y03777*
X07777*
X0779Y03779*
X07801Y03784*
X07811Y03791*
X07815Y03795*
X07816Y03795*
G37*
G36*
X0144Y05495D02*
X0144Y05495D01*
X0144Y05495*
X01444Y03669*
X00016*
Y05495*
X0144*
G37*
G36*
X01446Y02854D02*
D01*
Y02015*
X00883*
X0088Y02014*
X00879Y02013*
X00871Y02024*
X00859Y02037*
X00845Y02047*
X00828Y02053*
X00811Y02057*
X00794*
X00777Y02053*
X00761Y02047*
X00746Y02037*
X00734Y02024*
X00726Y02013*
X00726Y02014*
X00722Y02015*
X00016*
Y03659*
X01444*
X01446Y02854*
G37*
G36*
X03612Y02244D02*
X03612Y0224D01*
X03613Y02239*
X03614Y02237*
X03811Y0204*
X03815Y02037*
X03818Y02037*
X03822*
X0383Y02035*
X03836Y02031*
X03842Y02025*
X03846Y02019*
X03848Y02011*
Y02007*
X03849Y02004*
X03851Y02*
X0389Y01961*
X03893Y01959*
X03897Y01958*
X04055*
Y01437*
X03622Y01003*
X02943*
Y01401*
Y01406*
Y01411*
Y01417*
Y01462*
Y01465*
Y01521*
Y01524*
Y01574*
Y01578*
Y0158*
Y01583*
Y01584*
Y01588*
Y01604*
Y01607*
Y01614*
Y01618*
Y01619*
Y0162*
Y01628*
Y01629*
Y0163*
X0295Y01627*
X02967Y01624*
X02985*
X03002Y01627*
X03018Y01634*
X03032Y01644*
X03045Y01656*
X03054Y0167*
X03061Y01687*
X03064Y01704*
Y01721*
X03061Y01738*
X03054Y01754*
X03045Y01769*
X03032Y01781*
X03018Y01791*
X03002Y01798*
X02985Y01801*
X02967*
X0295Y01798*
X02943Y01795*
Y01798*
Y01803*
Y01811*
Y01812*
Y01825*
Y01826*
Y01828*
Y01831*
Y01839*
Y01839*
Y01841*
Y01841*
Y01875*
Y01877*
Y01899*
X02945Y01896*
X02951Y01893*
X02958Y01891*
X02964*
X02971Y01893*
X02977Y01896*
X02982Y01901*
X02985Y01907*
X02987Y01913*
Y0192*
X02985Y01926*
X02982Y01932*
X02977Y01937*
X02971Y0194*
X02964Y01942*
X02958*
X02951Y0194*
X02945Y01937*
X02943Y01934*
Y02013*
Y02013*
Y0209*
Y02096*
Y02169*
Y02176*
Y02411*
X03612*
Y02244*
G37*
G36*
X01446Y00019D02*
X01447Y00016D01*
X00016*
Y02005*
X00722*
X00717Y01994*
X00714Y01977*
Y01959*
X00717Y01942*
X00724Y01926*
X00734Y01912*
X00746Y01899*
X00761Y0189*
X00777Y01883*
X00794Y01879*
X00811*
X00828Y01883*
X00845Y0189*
X00859Y01899*
X00871Y01912*
X00881Y01926*
X00888Y01942*
X00891Y01959*
Y01977*
X00888Y01994*
X00883Y02005*
X01446*
Y00019*
G37*
G36*
X051Y02732D02*
X05104Y02729D01*
X05109Y02726*
X05116Y02724*
X05123*
X05129Y02726*
X05135Y02729*
X05138Y02732*
X05374*
Y01338*
X0437*
X0433Y01299*
X04325*
X04315Y01296*
X04306Y01291*
X04299Y01284*
X04294Y01275*
X04291Y01265*
Y01259*
X0427Y01238*
X04062Y0143*
X04064Y01433*
X04065Y01437*
Y01958*
X04625*
X04629Y01959*
X04633Y01961*
X04635Y01964*
X04636Y01968*
Y02613*
X04754Y02732*
X051*
G37*
G36*
X05304Y0124D02*
X05305Y01236D01*
X05307Y01233*
X05311Y0123*
X05314Y0123*
X06066*
X06068Y0123*
X06068Y0123*
X06072Y01224*
X06076Y01219*
X06082Y01216*
X06089Y01214*
X06095*
X06102Y01216*
X06108Y01219*
X06113Y01224*
X06113Y01225*
X068*
X068Y01224*
X06805Y01219*
X0681Y01216*
X06817Y01214*
X06824*
X0683Y01216*
X06836Y01219*
X06841Y01224*
X06844Y0123*
X06844Y0123*
X06846Y0123*
X0722*
X07453Y00996*
X07456Y00994*
X0746Y00993*
X07578*
Y00167*
X07391*
Y00531*
X07391Y00535*
X0739Y00536*
X07388Y00538*
X07249Y00677*
X07246Y0068*
X07242Y0068*
X06598*
X06571Y00708*
X06569Y00709*
X0657Y00715*
Y00721*
X06569Y00728*
X06565Y00734*
X0656Y00738*
X06555Y00742*
X06548Y00744*
X06541*
X06536Y00742*
X06535Y00744*
X06444Y00835*
X0644Y00837*
X06437Y00838*
X0427*
Y00862*
Y00996*
Y01228*
X0427Y01228*
X0427Y01228*
X04272Y01229*
X04274Y01229*
X04274Y01229*
X04274Y01229*
X04276Y0123*
X04277Y01231*
X04298Y01252*
X043Y01256*
X04301Y01259*
Y01263*
X04303Y01271*
X04307Y01277*
X04312Y01283*
X04319Y01287*
X04326Y01289*
X0433*
X04334Y01289*
X04337Y01292*
X04374Y01328*
X05304*
Y0124*
G37*
G36*
X04055Y01423D02*
X04261Y01233D01*
X04261Y01232*
X04261Y01231*
X0426Y0123*
Y01229*
X0426Y01228*
Y00996*
Y00945*
X04259Y00943*
X04255Y00945*
X04251Y00946*
X04015*
X04015*
X04015*
X04013Y00946*
X04011Y00945*
X04011Y00945*
X04011Y00945*
X0401Y00944*
X04008Y00943*
X04008Y00943*
X04008Y00943*
X03793Y00726*
X03792Y00725*
X03791Y00723*
Y00723*
X0379Y00723*
X0379Y00721*
X0379Y00719*
Y00016*
X02942*
X02943Y00019*
Y00275*
Y00705*
X0295Y00702*
X02967Y00698*
X02985*
X03002Y00702*
X03018Y00708*
X03032Y00718*
X03045Y0073*
X03054Y00745*
X03061Y00761*
X03064Y00778*
Y00796*
X03061Y00813*
X03054Y00829*
X03045Y00843*
X03032Y00856*
X03018Y00865*
X03002Y00872*
X02985Y00875*
X02967*
X0295Y00872*
X02943Y00869*
Y00993*
X03622*
X03625Y00994*
X03629Y00996*
X04055Y01423*
X04055Y01423*
G37*
G36*
X04251Y00828D02*
X06437D01*
X06527Y00737*
X06524Y00734*
X06521Y00728*
X06519Y00721*
Y00715*
X06521Y00708*
X06524Y00702*
X06529Y00698*
X06535Y00694*
X06541Y00692*
X06548*
X06555Y00694*
X0656Y00698*
X06564Y00701*
X06594Y0067*
X07242*
X07381Y00531*
Y00167*
X0715*
X07148Y00354*
X07147Y00356*
X07147Y00358*
X07147Y00358*
X07147Y00358*
X07146Y00359*
X07145Y00361*
X07145Y00361*
X07145Y00361*
X07143Y00362*
X07141Y00363*
X07141Y00363*
X07141Y00363*
X07139Y00364*
X07138Y00364*
X05992*
X05932Y00423*
X05929Y00426*
X05925Y00426*
X05378*
X05374Y00426*
X05371Y00423*
X05369Y0042*
X05368Y00416*
Y0002*
X05369Y00016*
X05369Y00016*
X038*
Y00719*
X04015Y00936*
X04251*
Y00828*
G37*
G36*
X05988Y00354D02*
X07138D01*
X07142Y0002*
X05906*
Y0005*
X05861*
X05815*
Y0002*
X05798*
Y0005*
X05752*
X05707*
Y0002*
X0569*
Y0005*
X05644*
X05599*
Y0002*
X05581*
Y0005*
X05536*
X0549*
Y0002*
X05473*
Y0005*
X05428*
X05382*
Y0002*
X05378*
Y00416*
X05925*
X05988Y00354*
G37*
%LNpcb1-2*%
%LPC*%
G36*
X04691Y05453D02*
X04681D01*
X04671Y0545*
X04662Y05445*
X04654Y05437*
X04649Y05428*
X04646Y05418*
Y05408*
X04649Y05398*
X04654Y05388*
X04662Y05381*
X04671Y05376*
X04681Y05373*
X04691*
X04701Y05376*
X04711Y05381*
X04718Y05388*
X04723Y05398*
X04726Y05408*
Y05418*
X04723Y05428*
X04718Y05437*
X04711Y05445*
X04701Y0545*
X04691Y05453*
G37*
G36*
X04957Y05395D02*
X04945D01*
X04932Y05393*
X04921Y05388*
X04911Y05381*
X04902Y05372*
X04895Y05362*
X0489Y05351*
X04888Y05338*
Y05326*
X0489Y05314*
X04895Y05302*
X04902Y05292*
X04911Y05283*
X04921Y05276*
X04932Y05272*
X04945Y05269*
X04957*
X04969Y05272*
X04981Y05276*
X04991Y05283*
X05Y05292*
X05007Y05302*
X05011Y05314*
X05014Y05326*
Y05338*
X05011Y05351*
X05007Y05362*
X05Y05372*
X04991Y05381*
X04981Y05388*
X04969Y05393*
X04957Y05395*
G37*
G36*
X03722Y05125D02*
X03715D01*
X03709Y05123*
X03703Y0512*
X03698Y05115*
X03695Y05109*
X03693Y05102*
Y05096*
X03695Y05089*
X03698Y05083*
X03703Y05079*
X03709Y05075*
X03715Y05073*
X03722*
X03729Y05075*
X03735Y05079*
X03739Y05083*
X03743Y05089*
X03744Y05096*
Y05102*
X03743Y05109*
X03739Y05115*
X03735Y0512*
X03729Y05123*
X03722Y05125*
G37*
G36*
X03306Y04769D02*
X03293D01*
X03281Y04767*
X0327Y04762*
X03259Y04755*
X03251Y04746*
X03244Y04736*
X03239Y04725*
X03237Y04712*
Y047*
X03239Y04688*
X03244Y04676*
X03251Y04666*
X03259Y04657*
X0327Y0465*
X03281Y04646*
X03293Y04643*
X03306*
X03318Y04646*
X03329Y0465*
X0334Y04657*
X03348Y04666*
X03355Y04676*
X0336Y04688*
X03362Y047*
Y04712*
X0336Y04725*
X03355Y04736*
X03348Y04746*
X0334Y04755*
X03329Y04762*
X03318Y04767*
X03306Y04769*
G37*
G36*
X05283Y04812D02*
X05266D01*
X05249Y04809*
X05232Y04802*
X05218Y04793*
X05206Y0478*
X05196Y04766*
X05189Y0475*
X05186Y04733*
Y04715*
X05189Y04698*
X05196Y04682*
X05206Y04667*
X05218Y04655*
X05232Y04645*
X05249Y04639*
X05266Y04635*
X05283*
X053Y04639*
X05316Y04645*
X05331Y04655*
X05343Y04667*
X05353Y04682*
X0536Y04698*
X05363Y04715*
Y04733*
X0536Y0475*
X05353Y04766*
X05343Y0478*
X05331Y04793*
X05316Y04802*
X053Y04809*
X05283Y04812*
G37*
G36*
X06066Y03391D02*
X06059D01*
X06053Y03389*
X06047Y03386*
X06042Y03381*
X06039Y03376*
X06037Y03369*
Y03362*
X06039Y03356*
X06042Y0335*
X06047Y03345*
X06053Y03342*
X06059Y0334*
X06066*
X06072Y03342*
X06078Y03345*
X06083Y0335*
X06086Y03356*
X06088Y03362*
Y03369*
X06086Y03376*
X06083Y03381*
X06078Y03386*
X06072Y03389*
X06066Y03391*
G37*
G36*
X0582Y03244D02*
X05813D01*
X05807Y03242*
X05801Y03238*
X05796Y03234*
X05793Y03228*
X05791Y03221*
Y03215*
X05793Y03208*
X05796Y03202*
X05801Y03198*
X05807Y03194*
X05813Y03192*
X0582*
X05826Y03194*
X05832Y03198*
X05837Y03202*
X0584Y03208*
X05842Y03215*
Y03221*
X0584Y03228*
X05837Y03234*
X05832Y03238*
X05826Y03242*
X0582Y03244*
G37*
G36*
X04196Y05423D02*
X04189D01*
X04183Y05421*
X04177Y05418*
X04172Y05413*
X04169Y05407*
X04167Y05401*
Y05394*
X04169Y05388*
X04172Y05382*
X04177Y05377*
X04183Y05374*
X04189Y05372*
X04196*
X04202Y05374*
X04208Y05377*
X04213Y05382*
X04216Y05388*
X04218Y05394*
Y05401*
X04216Y05407*
X04213Y05413*
X04208Y05418*
X04202Y05421*
X04196Y05423*
G37*
G36*
X03428Y0537D02*
X03421D01*
X03415Y05368*
X03409Y05364*
X03404Y0536*
X03401Y05354*
X03399Y05347*
Y05341*
X03401Y05334*
X03404Y05328*
X03409Y05324*
X03415Y0532*
X03421Y05318*
X03428*
X03435Y0532*
X0344Y05324*
X03445Y05328*
X03449Y05334*
X0345Y05341*
Y05347*
X03449Y05354*
X03445Y0536*
X0344Y05364*
X03435Y05368*
X03428Y0537*
G37*
G36*
X04097Y05291D02*
X04091D01*
X04084Y05289*
X04078Y05286*
X04074Y05281*
X0407Y05275*
X04068Y05269*
Y05262*
X0407Y05255*
X04074Y0525*
X04078Y05245*
X04084Y05241*
X04091Y0524*
X04097*
X04104Y05241*
X0411Y05245*
X04114Y0525*
X04118Y05255*
X0412Y05262*
Y05269*
X04118Y05275*
X04114Y05281*
X0411Y05286*
X04104Y05289*
X04097Y05291*
G37*
G36*
X04412Y05222D02*
X04406D01*
X04399Y0522*
X04393Y05217*
X04388Y05212*
X04385Y05206*
X04383Y052*
Y05193*
X04385Y05186*
X04388Y05181*
X04393Y05176*
X04399Y05173*
X04406Y05171*
X04412*
X04419Y05173*
X04425Y05176*
X04429Y05181*
X04433Y05186*
X04435Y05193*
Y052*
X04433Y05206*
X04429Y05212*
X04425Y05217*
X04419Y0522*
X04412Y05222*
G37*
G36*
X04137D02*
X0413D01*
X04123Y0522*
X04118Y05217*
X04113Y05212*
X0411Y05206*
X04108Y052*
Y05193*
X0411Y05186*
X04113Y05181*
X04118Y05176*
X04123Y05173*
X0413Y05171*
X04137*
X04143Y05173*
X04149Y05176*
X04154Y05181*
X04157Y05186*
X04159Y05193*
Y052*
X04157Y05206*
X04154Y05212*
X04149Y05217*
X04143Y0522*
X04137Y05222*
G37*
G36*
X04235Y0522D02*
X04228D01*
X04222Y05219*
X04216Y05215*
X04211Y05211*
X04208Y05205*
X04206Y05198*
Y05192*
X04208Y05185*
X04211Y05179*
X04216Y05174*
X04222Y05171*
X04228Y05169*
X04235*
X04242Y05171*
X04248Y05174*
X04252Y05179*
X04256Y05185*
X04257Y05192*
Y05198*
X04256Y05205*
X04252Y05211*
X04248Y05215*
X04242Y05219*
X04235Y0522*
G37*
G36*
X02897Y04218D02*
X0289D01*
X02883Y04216*
X02877Y04213*
X02873Y04208*
X02869Y04202*
X02868Y04196*
Y04189*
X02869Y04183*
X02873Y04177*
X02877Y04172*
X02883Y04169*
X0289Y04167*
X02897*
X02903Y04169*
X02909Y04172*
X02914Y04177*
X02917Y04183*
X02919Y04189*
Y04196*
X02917Y04202*
X02914Y04208*
X02909Y04213*
X02903Y04216*
X02897Y04218*
G37*
G36*
X02971Y04181D02*
X02964D01*
X02957Y04179*
X02952Y04176*
X02947Y04171*
X02943Y04165*
X02942Y04158*
Y04152*
X02943Y04145*
X02947Y04139*
X02952Y04135*
X02957Y04131*
X02964Y0413*
X02971*
X02977Y04131*
X02983Y04135*
X02988Y04139*
X02991Y04145*
X02993Y04152*
Y04158*
X02991Y04165*
X02988Y04171*
X02983Y04176*
X02977Y04179*
X02971Y04181*
G37*
G36*
X02883Y04165D02*
X02876D01*
X0287Y04163*
X02864Y0416*
X02859Y04155*
X02856Y04149*
X02854Y04143*
Y04136*
X02856Y04129*
X02859Y04124*
X02864Y04119*
X0287Y04115*
X02876Y04114*
X02883*
X02889Y04115*
X02895Y04119*
X029Y04124*
X02903Y04129*
X02905Y04136*
Y04143*
X02903Y04149*
X029Y04155*
X02895Y0416*
X02889Y04163*
X02883Y04165*
G37*
G36*
X02968Y04108D02*
X02961D01*
X02955Y04106*
X02949Y04103*
X02944Y04098*
X02941Y04092*
X02939Y04085*
Y04079*
X02941Y04072*
X02944Y04066*
X02949Y04062*
X02955Y04058*
X02961Y04056*
X02968*
X02974Y04058*
X0298Y04062*
X02985Y04066*
X02988Y04072*
X0299Y04079*
Y04085*
X02988Y04092*
X02985Y04098*
X0298Y04103*
X02974Y04106*
X02968Y04108*
G37*
G36*
X02534Y04141D02*
X02527D01*
X02521Y04139*
X02515Y04136*
X0251Y04131*
X02507Y04125*
X02505Y04119*
Y04112*
X02507Y04105*
X0251Y041*
X02515Y04095*
X02521Y04092*
X02527Y0409*
X02534*
X02541Y04092*
X02543Y04093*
X0254Y04088*
X02538Y04081*
Y04074*
X0254Y04068*
X02544Y04062*
X02548Y04057*
X02554Y04054*
X02561Y04052*
X02567*
X02574Y04054*
X0258Y04057*
X02584Y04062*
X02588Y04068*
X0259Y04074*
Y04081*
X02588Y04088*
X02584Y04094*
X0258Y04098*
X02574Y04102*
X02567Y04103*
X02561*
X02554Y04102*
X02552Y041*
X02555Y04105*
X02556Y04112*
Y04119*
X02555Y04125*
X02551Y04131*
X02546Y04136*
X02541Y04139*
X02534Y04141*
G37*
G36*
X02641Y0408D02*
X02634D01*
X02627Y04078*
X02622Y04075*
X02617Y0407*
X02613Y04065*
X02612Y04058*
Y04051*
X02613Y04045*
X02617Y04039*
X02622Y04034*
X02627Y04031*
X02634Y04029*
X02641*
X02647Y04031*
X02653Y04034*
X02658Y04039*
X02661Y04045*
X02663Y04051*
Y04058*
X02661Y04065*
X02658Y0407*
X02653Y04075*
X02647Y04078*
X02641Y0408*
G37*
G36*
X0268Y04041D02*
X02673D01*
X02667Y04039*
X02661Y04036*
X02656Y04031*
X02653Y04025*
X02651Y04019*
Y04012*
X02653Y04005*
X02656Y04*
X02661Y03995*
X02667Y03991*
X02673Y0399*
X0268*
X02687Y03991*
X02692Y03995*
X02697Y04*
X02701Y04005*
X02702Y04012*
Y04019*
X02701Y04025*
X02697Y04031*
X02692Y04036*
X02687Y04039*
X0268Y04041*
G37*
G36*
X02775Y04007D02*
X02769D01*
X02762Y04006*
X02756Y04002*
X02752Y03998*
X02748Y03992*
X02746Y03985*
Y03979*
X02748Y03972*
X02752Y03966*
X02756Y03961*
X02762Y03958*
X02769Y03956*
X02775*
X02782Y03958*
X02788Y03961*
X02793Y03966*
X02796Y03972*
X02798Y03979*
Y03985*
X02796Y03992*
X02793Y03998*
X02788Y04002*
X02782Y04006*
X02775Y04007*
G37*
G36*
X04265Y03146D02*
X04258D01*
X04252Y03144*
X04246Y0314*
X04241Y03136*
X04238Y0313*
X04236Y03123*
Y03117*
X04238Y0311*
X04241Y03104*
X04246Y03099*
X04252Y03096*
X04258Y03094*
X04265*
X04272Y03096*
X04277Y03099*
X04282Y03104*
X04286Y0311*
X04287Y03117*
Y03123*
X04286Y0313*
X04282Y03136*
X04277Y0314*
X04272Y03144*
X04265Y03146*
G37*
G36*
X04414Y03149D02*
X04404D01*
X04394Y03146*
X04385Y03141*
X04377Y03134*
X04372Y03125*
X0437Y03115*
Y03105*
X04372Y03095*
X04377Y03086*
X04385Y03078*
X04394Y03073*
X04404Y0307*
X04414*
X04424Y03073*
X04433Y03078*
X0444Y03086*
X04446Y03095*
X04448Y03105*
Y03115*
X04446Y03125*
X0444Y03134*
X04433Y03141*
X04424Y03146*
X04414Y03149*
G37*
G36*
Y0307D02*
X04404D01*
X04394Y03068*
X04385Y03063*
X04377Y03055*
X04372Y03046*
X0437Y03036*
Y03026*
X04372Y03016*
X04377Y03007*
X04385Y02999*
X04394Y02994*
X04404Y02992*
X04414*
X04424Y02994*
X04433Y02999*
X0444Y03007*
X04446Y03016*
X04448Y03026*
Y03036*
X04446Y03046*
X0444Y03055*
X04433Y03063*
X04424Y03068*
X04414Y0307*
G37*
G36*
X04301Y03037D02*
X04294D01*
X04288Y03035*
X04282Y03032*
X04277Y03027*
X04274Y03021*
X04272Y03015*
Y03008*
X04274Y03001*
X04277Y02996*
X04282Y02991*
X04288Y02987*
X04294Y02986*
X04301*
X04308Y02987*
X04314Y02991*
X04318Y02996*
X04322Y03001*
X04323Y03008*
Y03015*
X04322Y03021*
X04318Y03027*
X04314Y03032*
X04308Y03035*
X04301Y03037*
G37*
G36*
X04493Y0307D02*
X04483D01*
X04472Y03068*
X04464Y03063*
X04456Y03055*
X04451Y03046*
X04448Y03036*
Y03026*
X04451Y03016*
X04456Y03007*
X04464Y02999*
X04472Y02994*
X04474Y02994*
X04472Y02993*
X04464Y02988*
X04456Y02981*
X04451Y02972*
X04448Y02962*
Y02951*
X04451Y02941*
X04456Y02932*
X04464Y02925*
X04472Y0292*
X04483Y02917*
X04493*
X04503Y0292*
X04512Y02925*
X04519Y02932*
X04524Y02941*
X04527Y02951*
Y02962*
X04524Y02972*
X04519Y02981*
X04512Y02988*
X04503Y02993*
X04501Y02994*
X04503Y02994*
X04512Y02999*
X04519Y03007*
X04524Y03016*
X04527Y03026*
Y03036*
X04524Y03046*
X04519Y03055*
X04512Y03063*
X04503Y03068*
X04493Y0307*
G37*
G36*
X02097Y02875D02*
X02091D01*
X02084Y02874*
X02078Y0287*
X02074Y02866*
X0207Y0286*
X02069Y02854*
X02068Y02853*
Y02847*
X0207Y0284*
X02074Y02834*
X02078Y02829*
X02084Y02826*
X02091Y02824*
X02097*
X02104Y02826*
X0211Y02829*
X02114Y02834*
X02118Y0284*
X0212Y02847*
Y02853*
X02119Y02854*
X02118Y0286*
X02114Y02866*
X0211Y0287*
X02104Y02874*
X02097Y02875*
G37*
G36*
X03392Y02837D02*
X03385D01*
X03379Y02835*
X03373Y02832*
X03368Y02827*
X03365Y02821*
X03363Y02815*
Y02808*
X03365Y02802*
X03368Y02796*
X03373Y02791*
X03379Y02788*
X03385Y02786*
X03392*
X03398Y02788*
X03404Y02791*
X03409Y02796*
X03412Y02802*
X03414Y02808*
Y02815*
X03412Y02821*
X03409Y02827*
X03404Y02832*
X03398Y02835*
X03392Y02837*
G37*
G36*
X04196Y02761D02*
X04189D01*
X04183Y0276*
X04177Y02756*
X04172Y02751*
X04169Y02746*
X04167Y02739*
Y02732*
X04169Y02726*
X04172Y0272*
X04177Y02715*
X04183Y02712*
X04189Y0271*
X04196*
X04202Y02712*
X04208Y02715*
X04213Y0272*
X04216Y02726*
X04218Y02732*
Y02739*
X04216Y02746*
X04213Y02751*
X04208Y02756*
X04202Y0276*
X04196Y02761*
G37*
G36*
X0331Y02726D02*
X03303D01*
X03297Y02724*
X03291Y02721*
X03286Y02716*
X03283Y0271*
X03281Y02704*
Y02697*
X03283Y0269*
X03286Y02685*
X03291Y0268*
X03297Y02676*
X03303Y02675*
X0331*
X03317Y02676*
X03323Y0268*
X03327Y02685*
X03331Y0269*
X03332Y02697*
Y02704*
X03331Y0271*
X03327Y02716*
X03323Y02721*
X03317Y02724*
X0331Y02726*
G37*
G36*
X02759Y02694D02*
X02752D01*
X02746Y02693*
X0274Y02689*
X02735Y02685*
X02732Y02679*
X0273Y02672*
Y02665*
X02732Y02659*
X02735Y02653*
X0274Y02648*
X02746Y02645*
X02752Y02643*
X02759*
X02765Y02645*
X02771Y02648*
X02776Y02653*
X02779Y02659*
X02781Y02665*
Y02672*
X02779Y02679*
X02776Y02685*
X02771Y02689*
X02765Y02693*
X02759Y02694*
G37*
G36*
X0396Y02624D02*
X03953D01*
X03946Y02622*
X0394Y02618*
X03936Y02614*
X03932Y02608*
X03931Y02601*
Y02595*
X03932Y02588*
X03936Y02582*
X0394Y02577*
X03946Y02574*
X03953Y02572*
X0396*
X03966Y02574*
X03972Y02577*
X03977Y02582*
X0398Y02588*
X03982Y02595*
Y02601*
X0398Y02608*
X03977Y02614*
X03972Y02618*
X03966Y02622*
X0396Y02624*
G37*
G36*
X04334Y02572D02*
X04327D01*
X0432Y02571*
X04315Y02567*
X0431Y02562*
X04306Y02557*
X04305Y0255*
Y02543*
X04306Y02537*
X0431Y02531*
X04315Y02526*
X0432Y02523*
X04327Y02521*
X04334*
X0434Y02523*
X04346Y02526*
X04351Y02531*
X04354Y02537*
X04356Y02543*
Y0255*
X04354Y02557*
X04351Y02562*
X04346Y02567*
X0434Y02571*
X04334Y02572*
G37*
G36*
X02985Y02687D02*
X02967D01*
X0295Y02683*
X02934Y02676*
X02919Y02667*
X02907Y02654*
X02897Y0264*
X02891Y02624*
X02887Y02607*
Y02589*
X02891Y02572*
X02897Y02556*
X02907Y02541*
X02919Y02529*
X02934Y02519*
X0295Y02513*
X02967Y02509*
X02985*
X03002Y02513*
X03018Y02519*
X03032Y02529*
X03045Y02541*
X03054Y02556*
X03061Y02572*
X03064Y02589*
Y02607*
X03061Y02624*
X03054Y0264*
X03045Y02654*
X03032Y02667*
X03018Y02676*
X03002Y02683*
X02985Y02687*
G37*
G36*
X03959Y0256D02*
X03952D01*
X03946Y02558*
X0394Y02555*
X03935Y0255*
X03932Y02544*
X0393Y02538*
Y02531*
X03932Y02525*
X03935Y02519*
X0394Y02514*
X03946Y02511*
X03952Y02509*
X03959*
X03966Y02511*
X03971Y02514*
X03976Y02519*
X0398Y02525*
X03981Y02531*
Y02538*
X0398Y02544*
X03976Y0255*
X03971Y02555*
X03966Y02558*
X03959Y0256*
G37*
G36*
X03621Y02533D02*
X03614D01*
X03608Y02531*
X03602Y02528*
X03597Y02523*
X03594Y02517*
X03592Y02511*
Y02504*
X03594Y02498*
X03597Y02492*
X03602Y02487*
X03608Y02484*
X03614Y02482*
X03621*
X03627Y02484*
X03633Y02487*
X03638Y02492*
X03641Y02498*
X03643Y02504*
Y02511*
X03641Y02517*
X03638Y02523*
X03633Y02528*
X03627Y02531*
X03621Y02533*
G37*
G36*
X0455Y02417D02*
X04543D01*
X04537Y02415*
X04531Y02412*
X04526Y02407*
X04523Y02401*
X04521Y02395*
Y02388*
X04523Y02381*
X04526Y02375*
X04531Y02371*
X04537Y02367*
X04543Y02366*
X0455*
X04557Y02367*
X04562Y02371*
X04567Y02375*
X04571Y02381*
X04572Y02388*
Y02395*
X04571Y02401*
X04567Y02407*
X04562Y02412*
X04557Y02415*
X0455Y02417*
G37*
G36*
X02517Y02412D02*
X02511D01*
X02504Y0241*
X02498Y02407*
X02494Y02402*
X0249Y02396*
X02489Y0239*
Y02383*
X0249Y02377*
X02494Y02371*
X02498Y02366*
X02504Y02363*
X02511Y02361*
X02517*
X02524Y02363*
X0253Y02366*
X02535Y02371*
X02538Y02377*
X0254Y02383*
Y0239*
X02538Y02396*
X02535Y02402*
X0253Y02407*
X02524Y0241*
X02517Y02412*
G37*
G36*
X02631Y02358D02*
X02625D01*
X02618Y02357*
X02612Y02353*
X02608Y02348*
X02604Y02343*
X02602Y02336*
Y02329*
X02604Y02323*
X02608Y02317*
X02612Y02312*
X02618Y02309*
X02625Y02307*
X02631*
X02638Y02309*
X02644Y02312*
X02649Y02317*
X02652Y02323*
X02654Y02329*
Y02336*
X02652Y02343*
X02649Y02348*
X02644Y02353*
X02638Y02357*
X02631Y02358*
G37*
G36*
X02664Y02198D02*
X02658D01*
X02651Y02197*
X02645Y02193*
X0264Y02188*
X02637Y02183*
X02635Y02176*
Y02169*
X02637Y02163*
X0264Y02157*
X02645Y02152*
X02651Y02149*
X02658Y02147*
X02664*
X02671Y02149*
X02677Y02152*
X02681Y02157*
X02685Y02163*
X02687Y02169*
Y02176*
X02685Y02183*
X02681Y02188*
X02677Y02193*
X02671Y02197*
X02664Y02198*
G37*
G36*
X01928Y02131D02*
X01921D01*
X01915Y0213*
X01909Y02126*
X01904Y02122*
X01901Y02116*
X01899Y02109*
Y02102*
X01901Y02096*
X01904Y0209*
X01909Y02085*
X01915Y02082*
X01921Y0208*
X01928*
X01935Y02082*
X0194Y02085*
X01945Y0209*
X01949Y02096*
X0195Y02102*
Y02109*
X01949Y02116*
X01945Y02122*
X0194Y02126*
X01935Y0213*
X01928Y02131*
G37*
G36*
X02798Y02023D02*
X02791D01*
X02785Y02021*
X02779Y02018*
X02774Y02013*
X02771Y02007*
X02769Y02001*
Y01994*
X02771Y01988*
X02774Y01982*
X02779Y01977*
X02785Y01974*
X02791Y01972*
X02798*
X02805Y01974*
X0281Y01977*
X02815Y01982*
X02819Y01988*
X0282Y01994*
Y02001*
X02819Y02007*
X02815Y02013*
X0281Y02018*
X02805Y02021*
X02798Y02023*
G37*
G36*
X02086Y02013D02*
X02079D01*
X02072Y02012*
X02066Y02008*
X02062Y02003*
X02058Y01998*
X02057Y01991*
Y01984*
X02058Y01978*
X02062Y01972*
X02066Y01967*
X02072Y01964*
X02079Y01962*
X02086*
X02092Y01964*
X02098Y01967*
X02103Y01972*
X02106Y01978*
X02108Y01984*
Y01991*
X02106Y01998*
X02103Y02003*
X02098Y02008*
X02092Y02012*
X02086Y02013*
G37*
G36*
X02729Y01885D02*
X02723D01*
X02716Y01884*
X0271Y0188*
X02705Y01875*
X02702Y0187*
X027Y01863*
Y01856*
X02702Y0185*
X02705Y01844*
X0271Y01839*
X02716Y01836*
X02723Y01834*
X02729*
X02736Y01836*
X02742Y01839*
X02746Y01844*
X0275Y0185*
X02751Y01856*
Y01863*
X0275Y0187*
X02746Y01875*
X02742Y0188*
X02736Y01884*
X02729Y01885*
G37*
G36*
X02835Y01882D02*
X02828D01*
X02821Y01881*
X02816Y01877*
X02811Y01873*
X02807Y01867*
X02806Y0186*
Y01853*
X02807Y01847*
X02811Y01841*
X02816Y01836*
X02821Y01833*
X02828Y01831*
X02835*
X02841Y01833*
X02847Y01836*
X02852Y01841*
X02855Y01847*
X02857Y01853*
Y0186*
X02855Y01867*
X02852Y01873*
X02847Y01877*
X02841Y01881*
X02835Y01882*
G37*
G36*
X02526Y01864D02*
X0252D01*
X02513Y01862*
X02507Y01859*
X02503Y01854*
X02499Y01848*
X02498Y01841*
Y01835*
X02499Y01828*
X02503Y01822*
X02507Y01818*
X02513Y01814*
X0252Y01812*
X02526*
X02533Y01814*
X02539Y01818*
X02544Y01822*
X02547Y01828*
X02549Y01835*
Y01841*
X02547Y01848*
X02544Y01854*
X02539Y01859*
X02533Y01862*
X02526Y01864*
G37*
G36*
X01987Y01844D02*
X0198D01*
X01974Y01842*
X01968Y01839*
X01963Y01834*
X0196Y01828*
X01958Y01822*
Y01815*
X0196Y01809*
X01963Y01803*
X01968Y01798*
X01974Y01795*
X0198Y01793*
X01987*
X01994Y01795*
X01999Y01798*
X02004Y01803*
X02008Y01809*
X02009Y01815*
Y01822*
X02008Y01828*
X02004Y01834*
X01999Y01839*
X01994Y01842*
X01987Y01844*
G37*
G36*
X02729Y01826D02*
X02723D01*
X02716Y01825*
X0271Y01821*
X02705Y01816*
X02702Y01811*
X027Y01804*
Y01797*
X02702Y01791*
X02705Y01785*
X0271Y0178*
X02716Y01777*
X02723Y01775*
X02729*
X02736Y01777*
X02742Y0178*
X02746Y01785*
X0275Y01791*
X02751Y01797*
Y01804*
X0275Y01811*
X02746Y01816*
X02742Y01821*
X02736Y01825*
X02729Y01826*
G37*
G36*
X02877Y01816D02*
X0287D01*
X02864Y01815*
X02858Y01811*
X02853Y01807*
X0285Y01801*
X02848Y01794*
Y01787*
X0285Y01781*
X02853Y01775*
X02858Y0177*
X02864Y01767*
X0287Y01765*
X02877*
X02883Y01767*
X02889Y0177*
X02894Y01775*
X02897Y01781*
X02899Y01787*
Y01794*
X02897Y01801*
X02894Y01807*
X02889Y01811*
X02883Y01815*
X02877Y01816*
G37*
G36*
X01908Y01765D02*
X01902D01*
X01895Y01764*
X01889Y0176*
X01885Y01755*
X01881Y0175*
X01879Y01743*
Y01736*
X01881Y0173*
X01885Y01724*
X01889Y01719*
X01895Y01716*
X01902Y01714*
X01908*
X01915Y01716*
X01921Y01719*
X01925Y01724*
X01929Y0173*
X01931Y01736*
Y01743*
X01929Y0175*
X01925Y01755*
X01921Y0176*
X01915Y01764*
X01908Y01765*
G37*
G36*
X01849D02*
X01843D01*
X01836Y01764*
X0183Y0176*
X01825Y01755*
X01822Y0175*
X0182Y01743*
Y01736*
X01822Y0173*
X01825Y01724*
X0183Y01719*
X01836Y01716*
X01843Y01714*
X01849*
X01856Y01716*
X01862Y01719*
X01866Y01724*
X0187Y0173*
X01872Y01736*
Y01743*
X0187Y0175*
X01866Y01755*
X01862Y0176*
X01856Y01764*
X01849Y01765*
G37*
G36*
X02242Y01754D02*
X02235D01*
X02229Y01752*
X02223Y01748*
X02218Y01744*
X02215Y01738*
X02213Y01731*
Y01725*
X02215Y01718*
X02218Y01712*
X02223Y01708*
X02229Y01704*
X02235Y01702*
X02242*
X02249Y01704*
X02254Y01708*
X02259Y01712*
X02263Y01718*
X02264Y01725*
Y01731*
X02263Y01738*
X02259Y01744*
X02254Y01748*
X02249Y01752*
X02242Y01754*
G37*
G36*
X01929Y01703D02*
X01923D01*
X01916Y01701*
X0191Y01698*
X01905Y01693*
X01902Y01687*
X019Y0168*
Y01674*
X01902Y01667*
X01905Y01661*
X0191Y01657*
X01916Y01653*
X01923Y01651*
X01929*
X01936Y01653*
X01942Y01657*
X01946Y01661*
X0195Y01667*
X01952Y01674*
Y0168*
X0195Y01687*
X01946Y01693*
X01942Y01698*
X01936Y01701*
X01929Y01703*
G37*
G36*
X02093Y0169D02*
X02087D01*
X0208Y01689*
X02074Y01685*
X0207Y01681*
X02066Y01675*
X02064Y01668*
Y01661*
X02066Y01655*
X0207Y01649*
X02074Y01644*
X0208Y01641*
X02087Y01639*
X02093*
X021Y01641*
X02106Y01644*
X02111Y01649*
X02114Y01655*
X02116Y01661*
Y01668*
X02114Y01675*
X02111Y01681*
X02106Y01685*
X021Y01689*
X02093Y0169*
G37*
G36*
X02798Y01669D02*
X02791D01*
X02785Y01667*
X02779Y01664*
X02774Y01659*
X02771Y01653*
X02769Y01647*
Y0164*
X02771Y01633*
X02774Y01627*
X02779Y01623*
X02785Y01619*
X02791Y01618*
X02798*
X02805Y01619*
X0281Y01623*
X02815Y01627*
X02819Y01633*
X0282Y0164*
Y01647*
X02819Y01653*
X02815Y01659*
X0281Y01664*
X02805Y01667*
X02798Y01669*
G37*
G36*
X02729D02*
X02723D01*
X02716Y01667*
X0271Y01664*
X02705Y01659*
X02702Y01653*
X027Y01647*
Y0164*
X02702Y01633*
X02705Y01627*
X0271Y01623*
X02716Y01619*
X02723Y01618*
X02729*
X02736Y01619*
X02742Y01623*
X02746Y01627*
X0275Y01633*
X02751Y0164*
Y01647*
X0275Y01653*
X02746Y01659*
X02742Y01664*
X02736Y01667*
X02729Y01669*
G37*
G36*
X02089Y01629D02*
X02083D01*
X02076Y01628*
X0207Y01624*
X02066Y0162*
X02062Y01614*
X02061Y01607*
Y016*
X02062Y01594*
X02066Y01588*
X0207Y01583*
X02076Y0158*
X02083Y01578*
X02089*
X02096Y0158*
X02102Y01583*
X02107Y01588*
X0211Y01594*
X02112Y016*
Y01607*
X0211Y01614*
X02107Y0162*
X02102Y01624*
X02096Y01628*
X02089Y01629*
G37*
G36*
X01723Y0162D02*
X01717D01*
X0171Y01618*
X01704Y01614*
X017Y0161*
X01696Y01604*
X01694Y01597*
Y01591*
X01696Y01584*
X017Y01578*
X01704Y01574*
X0171Y0157*
X01717Y01568*
X01723*
X0173Y0157*
X01736Y01574*
X0174Y01578*
X01744Y01584*
X01746Y01591*
Y01597*
X01744Y01604*
X0174Y0161*
X01736Y01614*
X0173Y01618*
X01723Y0162*
G37*
G36*
X02089Y0157D02*
X02083D01*
X02076Y01569*
X0207Y01565*
X02066Y0156*
X02062Y01555*
X02061Y01548*
Y01541*
X02062Y01535*
X02066Y01529*
X0207Y01524*
X02076Y01521*
X02083Y01519*
X02089*
X02096Y01521*
X02102Y01524*
X02107Y01529*
X0211Y01535*
X02112Y01541*
Y01548*
X0211Y01555*
X02107Y0156*
X02102Y01565*
X02096Y01569*
X02089Y0157*
G37*
G36*
Y01511D02*
X02083D01*
X02076Y0151*
X0207Y01506*
X02066Y01501*
X02062Y01496*
X02061Y01489*
Y01482*
X02062Y01476*
X02066Y0147*
X0207Y01465*
X02076Y01462*
X02083Y0146*
X02089*
X02096Y01462*
X02102Y01465*
X02107Y0147*
X0211Y01476*
X02112Y01482*
Y01489*
X0211Y01496*
X02107Y01501*
X02102Y01506*
X02096Y0151*
X02089Y01511*
G37*
G36*
Y01452D02*
X02083D01*
X02076Y01451*
X0207Y01447*
X02066Y01442*
X02062Y01437*
X02061Y0143*
Y01423*
X02062Y01417*
X02066Y01411*
X0207Y01406*
X02076Y01403*
X02083Y01401*
X02089*
X02096Y01403*
X02102Y01406*
X02107Y01411*
X0211Y01417*
X02112Y01423*
Y0143*
X0211Y01437*
X02107Y01442*
X02102Y01447*
X02096Y01451*
X02089Y01452*
G37*
G36*
X07456Y0182D02*
X07439D01*
X07422Y01817*
X07406Y0181*
X07391Y01801*
X07379Y01788*
X07369Y01774*
X07362Y01758*
X07359Y01741*
Y01723*
X07362Y01706*
X07369Y0169*
X07379Y01675*
X07391Y01663*
X07406Y01653*
X07422Y01647*
X07439Y01643*
X07456*
X07473Y01647*
X0749Y01653*
X07504Y01663*
X07516Y01675*
X07526Y0169*
X07533Y01706*
X07536Y01723*
Y01741*
X07533Y01758*
X07526Y01774*
X07516Y01788*
X07504Y01801*
X0749Y0181*
X07473Y01817*
X07456Y0182*
G37*
G36*
X03827Y03826D02*
X0381D01*
X03793Y03823*
X03776Y03816*
X03762Y03807*
X0375Y03794*
X0374Y0378*
X03733Y03764*
X0373Y03746*
Y03729*
X03733Y03712*
X0374Y03696*
X0375Y03681*
X03762Y03669*
X03776Y03659*
X03793Y03653*
X0381Y03649*
X03827*
X03844Y03653*
X0386Y03659*
X03875Y03669*
X03887Y03681*
X03897Y03696*
X03904Y03712*
X03907Y03729*
Y03746*
X03904Y03764*
X03897Y0378*
X03887Y03794*
X03875Y03807*
X0386Y03816*
X03844Y03823*
X03827Y03826*
G37*
G36*
X03597Y03001D02*
X03591D01*
X03584Y03*
X03578Y02996*
X03574Y02992*
X0357Y02986*
X03568Y02979*
Y02973*
X0357Y02966*
X03574Y0296*
X03578Y02955*
X03584Y02952*
X03591Y0295*
X03597*
X03604Y02952*
X0361Y02955*
X03614Y0296*
X03618Y02966*
X0362Y02973*
Y02979*
X03618Y02986*
X03614Y02992*
X0361Y02996*
X03604Y03*
X03597Y03001*
G37*
G36*
X04954Y03584D02*
X04941D01*
X04929Y03582*
X04918Y03577*
X04907Y0357*
X04899Y03561*
X04892Y03551*
X04887Y0354*
X04885Y03527*
Y03515*
X04887Y03503*
X04892Y03491*
X04899Y03481*
X04907Y03472*
X04918Y03465*
X04929Y03461*
X04941Y03458*
X04954*
X04966Y03461*
X04977Y03465*
X04988Y03472*
X04996Y03481*
X05003Y03491*
X05008Y03503*
X05011Y03515*
Y03527*
X05008Y0354*
X05003Y03551*
X04996Y03561*
X04988Y0357*
X04977Y03577*
X04966Y03582*
X04954Y03584*
G37*
G36*
X07456Y05442D02*
X07439D01*
X07422Y05439*
X07406Y05432*
X07391Y05423*
X07379Y0541*
X07369Y05396*
X07362Y0538*
X07359Y05363*
Y05345*
X07362Y05328*
X07369Y05312*
X07379Y05297*
X07391Y05285*
X07406Y05275*
X07422Y05269*
X07439Y05265*
X07456*
X07473Y05269*
X0749Y05275*
X07504Y05285*
X07516Y05297*
X07526Y05312*
X07533Y05328*
X07536Y05345*
Y05363*
X07533Y0538*
X07526Y05396*
X07516Y0541*
X07504Y05423*
X0749Y05432*
X07473Y05439*
X07456Y05442*
G37*
G36*
Y04537D02*
X07439D01*
X07422Y04534*
X07406Y04527*
X07391Y04517*
X07379Y04505*
X07369Y0449*
X07362Y04474*
X07359Y04457*
Y0444*
X07362Y04422*
X07369Y04406*
X07379Y04392*
X07391Y0438*
X07406Y0437*
X07422Y04363*
X07439Y0436*
X07456*
X07473Y04363*
X0749Y0437*
X07504Y0438*
X07516Y04392*
X07526Y04406*
X07533Y04422*
X07536Y0444*
Y04457*
X07533Y04474*
X07526Y0449*
X07516Y04505*
X07504Y04517*
X0749Y04527*
X07473Y04534*
X07456Y04537*
G37*
G36*
X07453Y03631D02*
X07436D01*
X07419Y03628*
X07402Y03621*
X07388Y03612*
X07376Y03599*
X07366Y03585*
X07359Y03569*
X07356Y03552*
Y03534*
X07359Y03517*
X07366Y03501*
X07376Y03486*
X07388Y03474*
X07402Y03464*
X07419Y03458*
X07436Y03454*
X07453*
X0747Y03458*
X07486Y03464*
X07501Y03474*
X07513Y03486*
X07523Y03501*
X0753Y03517*
X07533Y03534*
Y03552*
X0753Y03569*
X07523Y03585*
X07513Y03599*
X07501Y03612*
X07486Y03621*
X0747Y03628*
X07453Y03631*
G37*
G36*
X07457Y02726D02*
X0744D01*
X07422Y02722*
X07406Y02716*
X07392Y02706*
X0738Y02694*
X0737Y02679*
X07363Y02663*
X0736Y02646*
Y02629*
X07363Y02611*
X0737Y02595*
X0738Y02581*
X07392Y02568*
X07406Y02559*
X07422Y02552*
X0744Y02549*
X07457*
X07474Y02552*
X0749Y02559*
X07505Y02568*
X07517Y02581*
X07527Y02595*
X07534Y02611*
X07537Y02629*
Y02646*
X07534Y02663*
X07527Y02679*
X07517Y02694*
X07505Y02706*
X0749Y02716*
X07474Y02722*
X07457Y02726*
G37*
G36*
X00811Y04773D02*
X00794D01*
X00777Y0477*
X00761Y04763*
X00746Y04753*
X00734Y04741*
X00724Y04727*
X00717Y0471*
X00714Y04693*
Y04676*
X00717Y04659*
X00724Y04643*
X00734Y04628*
X00746Y04616*
X00761Y04606*
X00777Y04599*
X00794Y04596*
X00811*
X00828Y04599*
X00845Y04606*
X00859Y04616*
X00871Y04628*
X00881Y04643*
X00888Y04659*
X00891Y04676*
Y04693*
X00888Y0471*
X00881Y04727*
X00871Y04741*
X00859Y04753*
X00845Y04763*
X00828Y0477*
X00811Y04773*
G37*
G36*
X00485Y0445D02*
X00473D01*
X00461Y04448*
X00449Y04443*
X00439Y04436*
X0043Y04427*
X00423Y04417*
X00418Y04406*
X00416Y04394*
Y04381*
X00418Y04369*
X00423Y04357*
X0043Y04347*
X00439Y04338*
X00449Y04331*
X00461Y04327*
X00473Y04324*
X00485*
X00497Y04327*
X00509Y04331*
X00519Y04338*
X00528Y04347*
X00535Y04357*
X0054Y04369*
X00542Y04381*
Y04394*
X0054Y04406*
X00535Y04417*
X00528Y04427*
X00519Y04436*
X00509Y04443*
X00497Y04448*
X00485Y0445*
G37*
G36*
X00811Y03868D02*
X00794D01*
X00777Y03864*
X00761Y03858*
X00746Y03848*
X00734Y03835*
X00724Y03821*
X00717Y03805*
X00714Y03788*
Y0377*
X00717Y03753*
X00724Y03737*
X00734Y03723*
X00746Y0371*
X00761Y03701*
X00777Y03694*
X00794Y0369*
X00811*
X00828Y03694*
X00845Y03701*
X00859Y0371*
X00871Y03723*
X00881Y03737*
X00888Y03753*
X00891Y0377*
Y03788*
X00888Y03805*
X00881Y03821*
X00871Y03835*
X00859Y03848*
X00845Y03858*
X00828Y03864*
X00811Y03868*
G37*
G36*
Y02962D02*
X00794D01*
X00777Y02959*
X00761Y02952*
X00746Y02942*
X00734Y0293*
X00724Y02915*
X00717Y02899*
X00714Y02882*
Y02865*
X00717Y02848*
X00724Y02832*
X00734Y02817*
X00746Y02805*
X00761Y02795*
X00777Y02788*
X00794Y02785*
X00811*
X00828Y02788*
X00845Y02795*
X00859Y02805*
X00871Y02817*
X00881Y02832*
X00888Y02848*
X00891Y02865*
Y02882*
X00888Y02899*
X00881Y02915*
X00871Y0293*
X00859Y02942*
X00845Y02952*
X00828Y02959*
X00811Y02962*
G37*
G36*
X00485Y02639D02*
X00473D01*
X00461Y02637*
X00449Y02632*
X00439Y02625*
X0043Y02616*
X00423Y02606*
X00418Y02595*
X00416Y02582*
Y0257*
X00418Y02558*
X00423Y02546*
X0043Y02536*
X00439Y02527*
X00449Y0252*
X00461Y02516*
X00473Y02513*
X00485*
X00497Y02516*
X00509Y0252*
X00519Y02527*
X00528Y02536*
X00535Y02546*
X0054Y02558*
X00542Y0257*
Y02582*
X0054Y02595*
X00535Y02606*
X00528Y02616*
X00519Y02625*
X00509Y02632*
X00497Y02637*
X00485Y02639*
G37*
G36*
X00597Y02135D02*
X00591D01*
X00584Y02134*
X00578Y0213*
X00574Y02125*
X0057Y0212*
X00568Y02113*
Y02106*
X0057Y021*
X00574Y02094*
X00578Y02089*
X00584Y02086*
X00591Y02084*
X00597*
X00604Y02086*
X0061Y02089*
X00614Y02094*
X00618Y021*
X0062Y02106*
Y02113*
X00618Y0212*
X00614Y02125*
X0061Y0213*
X00604Y02134*
X00597Y02135*
G37*
G36*
X00412Y02072D02*
X00406D01*
X00399Y02071*
X00393Y02067*
X00388Y02062*
X00385Y02057*
X00383Y0205*
Y02043*
X00385Y02037*
X00388Y02031*
X00393Y02026*
X00399Y02023*
X00406Y02021*
X00412*
X00419Y02023*
X00425Y02026*
X00429Y02031*
X00433Y02037*
X00435Y02043*
Y0205*
X00433Y02057*
X00429Y02062*
X00425Y02067*
X00419Y02071*
X00412Y02072*
G37*
G36*
X0298Y02281D02*
X02974D01*
X02967Y0228*
X02961Y02276*
X02957Y02271*
X02953Y02266*
X02951Y02259*
Y02252*
X02953Y02246*
X02957Y0224*
X02961Y02235*
X02967Y02232*
X02974Y0223*
X0298*
X02987Y02232*
X02993Y02235*
X02998Y0224*
X03001Y02246*
X03003Y02252*
Y02259*
X03001Y02266*
X02998Y02271*
X02993Y02276*
X02987Y0228*
X0298Y02281*
G37*
G36*
X03015Y0221D02*
X03008D01*
X03001Y02208*
X02996Y02205*
X02991Y022*
X02987Y02194*
X02986Y02188*
Y02181*
X02987Y02175*
X02991Y02169*
X02996Y02164*
X03001Y02161*
X03008Y02159*
X03015*
X03021Y02161*
X03027Y02164*
X03032Y02169*
X03035Y02175*
X03037Y02181*
Y02188*
X03035Y02194*
X03032Y022*
X03027Y02205*
X03021Y02208*
X03015Y0221*
G37*
G36*
X02995Y02099D02*
X02988D01*
X02982Y02098*
X02976Y02094*
X02971Y0209*
X02968Y02084*
X02966Y02077*
Y0207*
X02968Y02064*
X02971Y02058*
X02976Y02053*
X02982Y0205*
X02988Y02048*
X02995*
X03002Y0205*
X03007Y02053*
X03012Y02058*
X03015Y02064*
X03017Y0207*
Y02077*
X03015Y02084*
X03012Y0209*
X03007Y02094*
X03002Y02098*
X02995Y02099*
G37*
G36*
X03023Y01856D02*
X03016D01*
X03009Y01854*
X03003Y01851*
X02999Y01846*
X02995Y0184*
X02994Y01834*
Y01827*
X02995Y0182*
X02999Y01815*
X03003Y0181*
X03009Y01806*
X03016Y01805*
X03023*
X03029Y01806*
X03035Y0181*
X0304Y01815*
X03043Y0182*
X03045Y01827*
Y01834*
X03043Y0184*
X0304Y01846*
X03035Y01851*
X03029Y01854*
X03023Y01856*
G37*
G36*
X03969Y01486D02*
X03963D01*
X03956Y01485*
X0395Y01481*
X03946Y01476*
X03942Y01471*
X0394Y01464*
Y01457*
X03942Y01451*
X03946Y01445*
X0395Y0144*
X03956Y01437*
X03963Y01435*
X03969*
X03976Y01437*
X03982Y0144*
X03987Y01445*
X0399Y01451*
X03992Y01457*
Y01464*
X0399Y01471*
X03987Y01476*
X03982Y01481*
X03976Y01485*
X03969Y01486*
G37*
G36*
X03306Y01167D02*
X03293D01*
X03281Y01165*
X0327Y0116*
X03259Y01153*
X03251Y01144*
X03244Y01134*
X03239Y01123*
X03237Y0111*
Y01098*
X03239Y01086*
X03244Y01074*
X03251Y01064*
X03259Y01055*
X0327Y01048*
X03281Y01044*
X03293Y01041*
X03306*
X03318Y01044*
X03329Y01048*
X0334Y01055*
X03348Y01064*
X03355Y01074*
X0336Y01086*
X03362Y01098*
Y0111*
X0336Y01123*
X03355Y01134*
X03348Y01144*
X0334Y01153*
X03329Y0116*
X03318Y01165*
X03306Y01167*
G37*
G36*
X00413Y01901D02*
X00406D01*
X00399Y01899*
X00394Y01896*
X00389Y01891*
X00385Y01885*
X00384Y01879*
Y01872*
X00385Y01866*
X00389Y0186*
X00394Y01855*
X00399Y01852*
X00406Y0185*
X00413*
X00419Y01852*
X00425Y01855*
X0043Y0186*
X00433Y01866*
X00435Y01872*
Y01879*
X00433Y01885*
X0043Y01891*
X00425Y01896*
X00419Y01899*
X00413Y01901*
G37*
G36*
X00811Y01171D02*
X00794D01*
X00777Y01168*
X00761Y01161*
X00746Y01151*
X00734Y01139*
X00724Y01124*
X00717Y01108*
X00714Y01091*
Y01074*
X00717Y01057*
X00724Y01041*
X00734Y01026*
X00746Y01014*
X00761Y01004*
X00777Y00997*
X00794Y00994*
X00811*
X00828Y00997*
X00845Y01004*
X00859Y01014*
X00871Y01026*
X00881Y01041*
X00888Y01057*
X00891Y01074*
Y01091*
X00888Y01108*
X00881Y01124*
X00871Y01139*
X00859Y01151*
X00845Y01161*
X00828Y01168*
X00811Y01171*
G37*
G36*
X00485Y00828D02*
X00473D01*
X00461Y00826*
X00449Y00821*
X00439Y00814*
X0043Y00805*
X00423Y00795*
X00418Y00784*
X00416Y00771*
Y00759*
X00418Y00747*
X00423Y00735*
X0043Y00725*
X00439Y00716*
X00449Y00709*
X00461Y00705*
X00473Y00702*
X00485*
X00497Y00705*
X00509Y00709*
X00519Y00716*
X00528Y00725*
X00535Y00735*
X0054Y00747*
X00542Y00759*
Y00771*
X0054Y00784*
X00535Y00795*
X00528Y00805*
X00519Y00814*
X00509Y00821*
X00497Y00826*
X00485Y00828*
G37*
G36*
X00811Y00246D02*
X00794D01*
X00777Y00242*
X00761Y00235*
X00746Y00226*
X00734Y00213*
X00724Y00199*
X00717Y00183*
X00714Y00166*
Y00148*
X00717Y00131*
X00724Y00115*
X00734Y00101*
X00746Y00088*
X00761Y00078*
X00777Y00072*
X00794Y00068*
X00811*
X00828Y00072*
X00845Y00078*
X00859Y00088*
X00871Y00101*
X00881Y00115*
X00888Y00131*
X00891Y00148*
Y00166*
X00888Y00183*
X00881Y00199*
X00871Y00213*
X00859Y00226*
X00845Y00235*
X00828Y00242*
X00811Y00246*
G37*
G36*
X05284Y02096D02*
X05266D01*
X05249Y02093*
X05233Y02086*
X05219Y02076*
X05206Y02064*
X05197Y02049*
X0519Y02033*
X05187Y02016*
Y01999*
X0519Y01982*
X05197Y01965*
X05206Y01951*
X05219Y01939*
X05233Y01929*
X05249Y01922*
X05266Y01919*
X05284*
X05301Y01922*
X05317Y01929*
X05332Y01939*
X05344Y01951*
X05354Y01965*
X0536Y01982*
X05364Y01999*
Y02016*
X0536Y02033*
X05354Y02049*
X05344Y02064*
X05332Y02076*
X05317Y02086*
X05301Y02093*
X05284Y02096*
G37*
G36*
X04957Y01773D02*
X04945D01*
X04932Y01771*
X04921Y01766*
X04911Y01759*
X04902Y0175*
X04895Y0174*
X0489Y01729*
X04888Y01716*
Y01704*
X0489Y01692*
X04895Y0168*
X04902Y0167*
X04911Y01661*
X04921Y01654*
X04932Y0165*
X04945Y01647*
X04957*
X04969Y0165*
X04981Y01654*
X04991Y01661*
X05Y0167*
X05007Y0168*
X05011Y01692*
X05014Y01704*
Y01716*
X05011Y01729*
X05007Y0174*
X05Y0175*
X04991Y01759*
X04981Y01766*
X04969Y01771*
X04957Y01773*
G37*
G36*
X04457Y01653D02*
X0444D01*
X04422Y0165*
X04406Y01643*
X04392Y01633*
X0438Y01621*
X0437Y01606*
X04363Y0159*
X0436Y01573*
Y01556*
X04363Y01539*
X0437Y01523*
X0438Y01508*
X04392Y01496*
X04406Y01486*
X04422Y01479*
X0444Y01476*
X04457*
X04474Y01479*
X0449Y01486*
X04505Y01496*
X04517Y01508*
X04527Y01523*
X04534Y01539*
X04537Y01556*
Y01573*
X04534Y0159*
X04527Y01606*
X04517Y01621*
X04505Y01633*
X0449Y01643*
X04474Y0165*
X04457Y01653*
G37*
G36*
X05023Y01393D02*
X05016D01*
X05009Y01391*
X05003Y01388*
X04999Y01383*
X04995Y01377*
X04994Y01371*
Y01364*
X04995Y01358*
X04999Y01352*
X05003Y01347*
X05009Y01344*
X05016Y01342*
X05023*
X05029Y01344*
X05035Y01347*
X0504Y01352*
X05043Y01358*
X05045Y01364*
Y01371*
X05043Y01377*
X0504Y01383*
X05035Y01388*
X05029Y01391*
X05023Y01393*
G37*
G36*
X05283Y0119D02*
X05266D01*
X05249Y01187*
X05232Y0118*
X05218Y01171*
X05206Y01158*
X05196Y01144*
X05189Y01128*
X05186Y01111*
Y01093*
X05189Y01076*
X05196Y0106*
X05206Y01045*
X05218Y01033*
X05232Y01023*
X05249Y01017*
X05266Y01013*
X05283*
X053Y01017*
X05316Y01023*
X05331Y01033*
X05343Y01045*
X05353Y0106*
X0536Y01076*
X05363Y01093*
Y01111*
X0536Y01128*
X05353Y01144*
X05343Y01158*
X05331Y01171*
X05316Y0118*
X053Y01187*
X05283Y0119*
G37*
G36*
X05662Y01049D02*
X05656D01*
X05649Y01047*
X05643Y01044*
X05638Y01039*
X05635Y01033*
X05633Y01026*
Y0102*
X05635Y01013*
X05638Y01007*
X05643Y01003*
X05649Y00999*
X05656Y00998*
X05662*
X05669Y00999*
X05675Y01003*
X05679Y01007*
X05683Y01013*
X05685Y0102*
Y01026*
X05683Y01033*
X05679Y01039*
X05675Y01044*
X05669Y01047*
X05662Y01049*
G37*
G36*
X0685Y00862D02*
X06847Y00862D01*
X06718*
X06716Y00862*
X06704Y00861*
X06693Y00858*
X06682Y00852*
X06673Y00845*
X06666Y00835*
X0666Y00825*
X06657Y00814*
X06656Y00802*
Y00797*
X06716*
Y00777*
X06656*
Y00772*
X06657Y0076*
X0666Y00749*
X06666Y00738*
X06673Y00729*
X06682Y00722*
X06693Y00716*
X06704Y00713*
X06716Y00712*
X06718Y00712*
X06847*
X0685Y00712*
X06862Y00713*
X06873Y00716*
X06883Y00722*
X06893Y00729*
X069Y00738*
X06906Y00749*
X06909Y0076*
X0691Y00772*
Y00777*
X0685*
Y00722*
X06716*
Y00723*
Y00852*
X0685*
Y00797*
X0691*
Y00802*
X06909Y00814*
X06906Y00825*
X069Y00835*
X06893Y00845*
X06883Y00852*
X06873Y00858*
X06862Y00861*
X0685Y00862*
G37*
G36*
X07472Y00455D02*
Y00403D01*
X07523*
X07521Y00411*
X07517Y00423*
X0751Y00433*
X07501Y00441*
X07491Y00448*
X0748Y00453*
X07472Y00455*
G37*
G36*
X07452D02*
X07444Y00453D01*
X07432Y00448*
X07422Y00441*
X07413Y00433*
X07407Y00423*
X07402Y00411*
X074Y00403*
X07452*
Y00455*
G37*
G36*
X07523Y00383D02*
X07472D01*
Y00332*
X0748Y00333*
X07491Y00338*
X07501Y00345*
X0751Y00354*
X07517Y00364*
X07521Y00375*
X07523Y00383*
G37*
G36*
X07452D02*
X074D01*
X07402Y00375*
X07407Y00364*
X07413Y00354*
X07422Y00345*
X07432Y00338*
X07444Y00333*
X07452Y00332*
Y00383*
G37*
G36*
X04218Y00922D02*
X04211D01*
X04205Y0092*
X04199Y00917*
X04194Y00912*
X04191Y00906*
X04189Y009*
Y00893*
X04191Y00886*
X04194Y00881*
X04199Y00876*
X04205Y00872*
X04211Y00871*
X04218*
X04225Y00872*
X04231Y00876*
X04235Y00881*
X04239Y00886*
X0424Y00893*
Y009*
X04239Y00906*
X04235Y00912*
X04231Y00917*
X04225Y0092*
X04218Y00922*
G37*
G36*
X04389Y00578D02*
X04378D01*
X04368Y00576*
X04359Y0057*
X04352Y00563*
X04347Y00554*
X04344Y00544*
Y00534*
X04347Y00524*
X04352Y00515*
X04359Y00507*
X04368Y00502*
X04378Y00499*
X04389*
X04399Y00502*
X04408Y00507*
X04415Y00515*
X0442Y00524*
X04423Y00534*
Y00544*
X0442Y00554*
X04415Y00563*
X04408Y0057*
X04399Y00576*
X04389Y00578*
G37*
G36*
X06496Y00526D02*
X06489D01*
X06483Y00524*
X06477Y00521*
X06472Y00516*
X06469Y0051*
X06467Y00504*
Y00497*
X06469Y00491*
X06472Y00485*
X06477Y0048*
X06483Y00477*
X06489Y00475*
X06496*
X06502Y00477*
X06508Y0048*
X06513Y00485*
X06516Y00491*
X06518Y00497*
Y00504*
X06516Y0051*
X06513Y00516*
X06508Y00521*
X06502Y00524*
X06496Y00526*
G37*
G36*
X07324Y00455D02*
X07272D01*
Y00403*
X07324*
Y00455*
G37*
G36*
X07252D02*
X072D01*
Y00403*
X07252*
Y00455*
G37*
G36*
X04645Y00411D02*
Y00385D01*
X04672*
X0467Y00389*
X04665Y00398*
X04658Y00405*
X0465Y0041*
X04645Y00411*
G37*
G36*
X04488D02*
Y00385D01*
X04514*
X04513Y00389*
X04508Y00398*
X04501Y00405*
X04492Y0041*
X04488Y00411*
G37*
G36*
X04567D02*
Y00385D01*
X04593*
X04592Y00389*
X04587Y00398*
X0458Y00405*
X04571Y0041*
X04567Y00411*
G37*
G36*
X04409D02*
Y00385D01*
X04435*
X04434Y00389*
X04429Y00398*
X04422Y00405*
X04414Y0041*
X04409Y00411*
G37*
G36*
X04724D02*
Y00385D01*
X0475*
X04749Y00389*
X04744Y00398*
X04737Y00405*
X04729Y0041*
X04724Y00411*
G37*
G36*
X04547D02*
X04542Y0041D01*
X04534Y00405*
X04527Y00398*
X04522Y00389*
X0452Y00385*
X04547*
Y00411*
G37*
G36*
X04389D02*
X04385Y0041D01*
X04376Y00405*
X04369Y00398*
X04364Y00389*
X04363Y00385*
X04389*
Y00411*
G37*
G36*
X04704D02*
X047Y0041D01*
X04691Y00405*
X04684Y00398*
X04679Y00389*
X04678Y00385*
X04704*
Y00411*
G37*
G36*
X04625D02*
X04621Y0041D01*
X04612Y00405*
X04605Y00398*
X046Y00389*
X04599Y00385*
X04625*
Y00411*
G37*
G36*
X04468D02*
X04463Y0041D01*
X04455Y00405*
X04448Y00398*
X04443Y00389*
X04442Y00385*
X04468*
Y00411*
G37*
G36*
X06041Y00491D02*
X06029D01*
X06018Y00488*
X06007Y00484*
X05997Y00477*
X05989Y00469*
X05983Y0046*
X05978Y00449*
X05976Y00437*
Y00426*
X05978Y00414*
X05983Y00404*
X05989Y00394*
X05997Y00386*
X06007Y00379*
X06018Y00375*
X06029Y00373*
X06041*
X06052Y00375*
X06063Y00379*
X06073Y00386*
X06081Y00394*
X06087Y00404*
X06092Y00414*
X06094Y00426*
Y00437*
X06092Y00449*
X06087Y0046*
X06081Y00469*
X06073Y00477*
X06063Y00484*
X06052Y00488*
X06041Y00491*
G37*
G36*
X04206D02*
X04194D01*
X04183Y00488*
X04172Y00484*
X04163Y00477*
X04154Y00469*
X04148Y0046*
X04144Y00449*
X04141Y00437*
Y00426*
X04144Y00414*
X04148Y00404*
X04154Y00394*
X04163Y00386*
X04172Y00379*
X04183Y00375*
X04194Y00373*
X04206*
X04218Y00375*
X04228Y00379*
X04238Y00386*
X04246Y00394*
X04253Y00404*
X04257Y00414*
X04259Y00426*
Y00437*
X04257Y00449*
X04253Y0046*
X04246Y00469*
X04238Y00477*
X04228Y00484*
X04218Y00488*
X04206Y00491*
G37*
G36*
X04932Y00396D02*
X04896D01*
Y00365*
X04932*
Y00396*
G37*
G36*
X05365D02*
X05329D01*
Y00365*
X05365*
Y00396*
G37*
G36*
X0504D02*
X05005D01*
Y00365*
X0504*
Y00396*
G37*
G36*
X05148D02*
X05113D01*
Y00365*
X05148*
Y00396*
G37*
G36*
X05257D02*
X05221D01*
Y00365*
X05257*
Y00396*
G37*
G36*
X05201D02*
X05166D01*
Y00365*
X05201*
Y00396*
G37*
G36*
X05093D02*
X05057D01*
Y00365*
X05093*
Y00396*
G37*
G36*
X05309D02*
X05274D01*
Y00365*
X05309*
Y00396*
G37*
G36*
X04985D02*
X04949D01*
Y00365*
X04985*
Y00396*
G37*
G36*
X04876D02*
X04841D01*
Y00365*
X04876*
Y00396*
G37*
G36*
X04672Y00365D02*
X04645D01*
Y00338*
X0465Y0034*
X04658Y00344*
X04665Y00351*
X0467Y0036*
X04672Y00365*
G37*
G36*
X04514D02*
X04488D01*
Y00338*
X04492Y0034*
X04501Y00344*
X04508Y00351*
X04513Y0036*
X04514Y00365*
G37*
G36*
X04704D02*
X04678D01*
X04679Y0036*
X04684Y00351*
X04691Y00344*
X047Y0034*
X04704Y00338*
Y00365*
G37*
G36*
X04547D02*
X0452D01*
X04522Y0036*
X04527Y00351*
X04534Y00344*
X04542Y0034*
X04547Y00338*
Y00365*
G37*
G36*
X04389D02*
X04363D01*
X04364Y0036*
X04369Y00351*
X04376Y00344*
X04385Y0034*
X04389Y00338*
Y00365*
G37*
G36*
X0475D02*
X04724D01*
Y00338*
X04729Y0034*
X04737Y00344*
X04744Y00351*
X04749Y0036*
X0475Y00365*
G37*
G36*
X04593D02*
X04567D01*
Y00338*
X04571Y0034*
X0458Y00344*
X04587Y00351*
X04592Y0036*
X04593Y00365*
G37*
G36*
X04435D02*
X04409D01*
Y00338*
X04414Y0034*
X04422Y00344*
X04429Y00351*
X04434Y0036*
X04435Y00365*
G37*
G36*
X04625D02*
X04599D01*
X046Y0036*
X04605Y00351*
X04612Y00344*
X04621Y0034*
X04625Y00338*
Y00365*
G37*
G36*
X04468D02*
X04442D01*
X04443Y0036*
X04448Y00351*
X04455Y00344*
X04463Y0034*
X04468Y00338*
Y00365*
G37*
G36*
X07324Y00383D02*
X07272D01*
Y00331*
X07324*
Y00383*
G37*
G36*
X07252D02*
X072D01*
Y00331*
X07252*
Y00383*
G37*
G36*
X05257Y00345D02*
X05211D01*
X05166*
Y00313*
Y00306*
X05211*
X05257*
Y00313*
Y00345*
G37*
G36*
X05148D02*
X05103D01*
X05057*
Y00313*
Y00306*
X05103*
X05148*
Y00313*
Y00345*
G37*
G36*
X05365D02*
X05319D01*
X05274*
Y00313*
Y00306*
X05319*
X05365*
Y00313*
Y00345*
G37*
G36*
X0504D02*
X04995D01*
X04949*
Y00313*
Y00306*
X04995*
X0504*
Y00313*
Y00345*
G37*
G36*
X04932D02*
X04886D01*
X04841*
Y00313*
Y00306*
X04886*
X04932*
Y00313*
Y00345*
G37*
G36*
X04645Y00332D02*
Y00306D01*
X04672*
X0467Y0031*
X04665Y00319*
X04658Y00326*
X0465Y00331*
X04645Y00332*
G37*
G36*
X04488D02*
Y00306D01*
X04514*
X04513Y0031*
X04508Y00319*
X04501Y00326*
X04492Y00331*
X04488Y00332*
G37*
G36*
X04567D02*
Y00306D01*
X04593*
X04592Y0031*
X04587Y00319*
X0458Y00326*
X04571Y00331*
X04567Y00332*
G37*
G36*
X04409D02*
Y00306D01*
X04435*
X04434Y0031*
X04429Y00319*
X04422Y00326*
X04414Y00331*
X04409Y00332*
G37*
G36*
X04724D02*
Y00306D01*
X0475*
X04749Y0031*
X04744Y00319*
X04737Y00326*
X04729Y00331*
X04724Y00332*
G37*
G36*
X04547D02*
X04542Y00331D01*
X04534Y00326*
X04527Y00319*
X04522Y0031*
X0452Y00306*
X04547*
Y00332*
G37*
G36*
X04389D02*
X04385Y00331D01*
X04376Y00326*
X04369Y00319*
X04364Y0031*
X04363Y00306*
X04389*
Y00332*
G37*
G36*
X04704D02*
X047Y00331D01*
X04691Y00326*
X04684Y00319*
X04679Y0031*
X04678Y00306*
X04704*
Y00332*
G37*
G36*
X04625D02*
X04621Y00331D01*
X04612Y00326*
X04605Y00319*
X046Y0031*
X04599Y00306*
X04625*
Y00332*
G37*
G36*
X04468D02*
X04463Y00331D01*
X04455Y00326*
X04448Y00319*
X04443Y0031*
X04442Y00306*
X04468*
Y00332*
G37*
G36*
X04672Y00286D02*
X04645D01*
Y0026*
X0465Y00261*
X04658Y00266*
X04665Y00273*
X0467Y00281*
X04672Y00286*
G37*
G36*
X04514D02*
X04488D01*
Y0026*
X04492Y00261*
X04501Y00266*
X04508Y00273*
X04513Y00281*
X04514Y00286*
G37*
G36*
X04704D02*
X04678D01*
X04679Y00281*
X04684Y00273*
X04691Y00266*
X047Y00261*
X04704Y0026*
Y00286*
G37*
G36*
X04547D02*
X0452D01*
X04522Y00281*
X04527Y00273*
X04534Y00266*
X04542Y00261*
X04547Y0026*
Y00286*
G37*
G36*
X04389D02*
X04363D01*
X04364Y00281*
X04369Y00273*
X04376Y00266*
X04385Y00261*
X04389Y0026*
Y00286*
G37*
G36*
X0475D02*
X04724D01*
Y0026*
X04729Y00261*
X04737Y00266*
X04744Y00273*
X04749Y00281*
X0475Y00286*
G37*
G36*
X04593D02*
X04567D01*
Y0026*
X04571Y00261*
X0458Y00266*
X04587Y00273*
X04592Y00281*
X04593Y00286*
G37*
G36*
X04435D02*
X04409D01*
Y0026*
X04414Y00261*
X04422Y00266*
X04429Y00273*
X04434Y00281*
X04435Y00286*
G37*
G36*
X04625D02*
X04599D01*
X046Y00281*
X04605Y00273*
X04612Y00266*
X04621Y00261*
X04625Y0026*
Y00286*
G37*
G36*
X04468D02*
X04442D01*
X04443Y00281*
X04448Y00273*
X04455Y00266*
X04463Y00261*
X04468Y0026*
Y00286*
G37*
G36*
X05257D02*
X05211D01*
X05166*
Y00254*
Y00247*
X05211*
X05257*
Y00254*
Y00286*
G37*
G36*
X05148D02*
X05103D01*
X05057*
Y00254*
Y00247*
X05103*
X05148*
Y00254*
Y00286*
G37*
G36*
X05365D02*
X05319D01*
X05274*
Y00254*
Y00247*
X05319*
X05365*
Y00254*
Y00286*
G37*
G36*
X0504D02*
X04995D01*
X04949*
Y00254*
Y00247*
X04995*
X0504*
Y00254*
Y00286*
G37*
G36*
X04932D02*
X04886D01*
X04841*
Y00254*
Y00247*
X04886*
X04932*
Y00254*
Y00286*
G37*
G36*
X04645Y00253D02*
Y00227D01*
X04672*
X0467Y00232*
X04665Y0024*
X04658Y00247*
X0465Y00252*
X04645Y00253*
G37*
G36*
X04488D02*
Y00227D01*
X04514*
X04513Y00232*
X04508Y0024*
X04501Y00247*
X04492Y00252*
X04488Y00253*
G37*
G36*
X04409D02*
Y00227D01*
X04435*
X04434Y00232*
X04429Y0024*
X04422Y00247*
X04414Y00252*
X04409Y00253*
G37*
G36*
X04389D02*
X04385Y00252D01*
X04376Y00247*
X04369Y0024*
X04364Y00232*
X04363Y00227*
X04389*
Y00253*
G37*
G36*
X04625D02*
X04621Y00252D01*
X04612Y00247*
X04605Y0024*
X046Y00232*
X04599Y00227*
X04625*
Y00253*
G37*
G36*
X04468D02*
X04463Y00252D01*
X04455Y00247*
X04448Y0024*
X04443Y00232*
X04442Y00227*
X04468*
Y00253*
G37*
G36*
X05257Y00227D02*
X05211D01*
X05166*
Y00195*
Y00188*
X05211*
X05257*
Y00195*
Y00227*
G37*
G36*
X05148D02*
X05103D01*
X05057*
Y00195*
Y00188*
X05103*
X05148*
Y00195*
Y00227*
G37*
G36*
X05365D02*
X05319D01*
X05274*
Y00195*
Y00188*
X05319*
X05365*
Y00195*
Y00227*
G37*
G36*
X0504D02*
X04995D01*
X04949*
Y00195*
Y00188*
X04995*
X0504*
Y00195*
Y00227*
G37*
G36*
X04932D02*
X04886D01*
X04841*
Y00195*
Y00188*
X04886*
X04932*
Y00195*
Y00227*
G37*
G36*
X04672Y00207D02*
X04645D01*
Y00181*
X0465Y00182*
X04658Y00187*
X04665Y00194*
X0467Y00203*
X04672Y00207*
G37*
G36*
X04514D02*
X04488D01*
Y00181*
X04492Y00182*
X04501Y00187*
X04508Y00194*
X04513Y00203*
X04514Y00207*
G37*
G36*
X04389D02*
X04363D01*
X04364Y00203*
X04369Y00194*
X04376Y00187*
X04385Y00182*
X04389Y00181*
Y00207*
G37*
G36*
X04435D02*
X04409D01*
Y00181*
X04414Y00182*
X04422Y00187*
X04429Y00194*
X04434Y00203*
X04435Y00207*
G37*
G36*
X04625D02*
X04599D01*
X046Y00203*
X04605Y00194*
X04612Y00187*
X04621Y00182*
X04625Y00181*
Y00207*
G37*
G36*
X04468D02*
X04442D01*
X04443Y00203*
X04448Y00194*
X04455Y00187*
X04463Y00182*
X04468Y00181*
Y00207*
G37*
G36*
X04719Y00254D02*
X04709D01*
X047Y00252*
X04691Y00247*
X04684Y0024*
X04679Y00231*
X04677Y00222*
Y00212*
X04679Y00203*
X04684Y00194*
X04691Y00187*
X047Y00182*
X04709Y0018*
X04719*
X04729Y00182*
X04737Y00187*
X04744Y00194*
X04749Y00203*
X04751Y00212*
Y00222*
X04749Y00231*
X04744Y0024*
X04737Y00247*
X04729Y00252*
X04719Y00254*
G37*
G36*
X04562D02*
X04552D01*
X04542Y00252*
X04534Y00247*
X04527Y0024*
X04522Y00231*
X04519Y00222*
Y00212*
X04522Y00203*
X04527Y00194*
X04534Y00187*
X04542Y00182*
X04552Y0018*
X04562*
X04571Y00182*
X0458Y00187*
X04587Y00194*
X04591Y00203*
X04594Y00212*
Y00222*
X04591Y00231*
X04587Y0024*
X0458Y00247*
X04571Y00252*
X04562Y00254*
G37*
G36*
X04645Y00174D02*
Y00148D01*
X04672*
X0467Y00153*
X04665Y00161*
X04658Y00168*
X0465Y00173*
X04645Y00174*
G37*
G36*
X04488D02*
Y00148D01*
X04514*
X04513Y00153*
X04508Y00161*
X04501Y00168*
X04492Y00173*
X04488Y00174*
G37*
G36*
X04625D02*
X04621Y00173D01*
X04612Y00168*
X04605Y00161*
X046Y00153*
X04599Y00148*
X04625*
Y00174*
G37*
G36*
X04468D02*
X04463Y00173D01*
X04455Y00168*
X04448Y00161*
X04443Y00153*
X04442Y00148*
X04468*
Y00174*
G37*
G36*
X05257Y00168D02*
X05211D01*
X05166*
Y00136*
Y00129*
X05211*
X05257*
Y00136*
Y00168*
G37*
G36*
X05148D02*
X05103D01*
X05057*
Y00136*
Y00129*
X05103*
X05148*
Y00136*
Y00168*
G37*
G36*
X05365D02*
X05319D01*
X05274*
Y00136*
Y00129*
X05319*
X05365*
Y00136*
Y00168*
G37*
G36*
X0504D02*
X04995D01*
X04949*
Y00136*
Y00129*
X04995*
X0504*
Y00136*
Y00168*
G37*
G36*
X04932D02*
X04886D01*
X04841*
Y00136*
Y00129*
X04886*
X04932*
Y00136*
Y00168*
G37*
G36*
X04672Y00128D02*
X04645D01*
Y00102*
X0465Y00103*
X04658Y00108*
X04665Y00115*
X0467Y00124*
X04672Y00128*
G37*
G36*
X04514D02*
X04488D01*
Y00102*
X04492Y00103*
X04501Y00108*
X04508Y00115*
X04513Y00124*
X04514Y00128*
G37*
G36*
X04625D02*
X04599D01*
X046Y00124*
X04605Y00115*
X04612Y00108*
X04621Y00103*
X04625Y00102*
Y00128*
G37*
G36*
X04468D02*
X04442D01*
X04443Y00124*
X04448Y00115*
X04455Y00108*
X04463Y00103*
X04468Y00102*
Y00128*
G37*
G36*
X04719Y00176D02*
X04709D01*
X047Y00173*
X04691Y00168*
X04684Y00161*
X04679Y00153*
X04677Y00143*
Y00133*
X04679Y00124*
X04684Y00115*
X04691Y00108*
X047Y00103*
X04709Y00101*
X04719*
X04729Y00103*
X04737Y00108*
X04744Y00115*
X04749Y00124*
X04751Y00133*
Y00143*
X04749Y00153*
X04744Y00161*
X04737Y00168*
X04729Y00173*
X04719Y00176*
G37*
G36*
X04562D02*
X04552D01*
X04542Y00173*
X04534Y00168*
X04527Y00161*
X04522Y00153*
X04519Y00143*
Y00133*
X04522Y00124*
X04527Y00115*
X04534Y00108*
X04542Y00103*
X04552Y00101*
X04562*
X04571Y00103*
X0458Y00108*
X04587Y00115*
X04591Y00124*
X04594Y00133*
Y00143*
X04591Y00153*
X04587Y00161*
X0458Y00168*
X04571Y00173*
X04562Y00176*
G37*
G36*
X04404D02*
X04394D01*
X04385Y00173*
X04376Y00168*
X04369Y00161*
X04364Y00153*
X04362Y00143*
Y00133*
X04364Y00124*
X04369Y00115*
X04376Y00108*
X04385Y00103*
X04394Y00101*
X04404*
X04414Y00103*
X04422Y00108*
X04429Y00115*
X04434Y00124*
X04437Y00133*
Y00143*
X04434Y00153*
X04429Y00161*
X04422Y00168*
X04414Y00173*
X04404Y00176*
G37*
G36*
X04645Y00096D02*
Y0007D01*
X04672*
X0467Y00074*
X04665Y00083*
X04658Y0009*
X0465Y00095*
X04645Y00096*
G37*
G36*
X04488D02*
Y0007D01*
X04514*
X04513Y00074*
X04508Y00083*
X04501Y0009*
X04492Y00095*
X04488Y00096*
G37*
G36*
X04625D02*
X04621Y00095D01*
X04612Y0009*
X04605Y00083*
X046Y00074*
X04599Y0007*
X04625*
Y00096*
G37*
G36*
X04468D02*
X04463Y00095D01*
X04455Y0009*
X04448Y00083*
X04443Y00074*
X04442Y0007*
X04468*
Y00096*
G37*
G36*
X05257Y00109D02*
X05211D01*
X05166*
Y00077*
Y0007*
X05211*
X05257*
Y00077*
Y00109*
G37*
G36*
X05148D02*
X05103D01*
X05057*
Y00077*
Y0007*
X05103*
X05148*
Y00077*
Y00109*
G37*
G36*
X05365D02*
X05319D01*
X05274*
Y00077*
Y0007*
X05319*
X05365*
Y00077*
Y00109*
G37*
G36*
X0504D02*
X04995D01*
X04949*
Y00077*
Y0007*
X04995*
X0504*
Y00077*
Y00109*
G37*
G36*
X04932D02*
X04886D01*
X04841*
Y00077*
Y0007*
X04886*
Y0006*
Y0007*
X04932*
Y00077*
Y00109*
G37*
G36*
X04672Y0005D02*
X04645D01*
Y00023*
X0465Y00025*
X04658Y00029*
X04665Y00036*
X0467Y00045*
X04672Y0005*
G37*
G36*
X04514D02*
X04488D01*
Y00023*
X04492Y00025*
X04501Y00029*
X04508Y00036*
X04513Y00045*
X04514Y0005*
G37*
G36*
X04625D02*
X04599D01*
X046Y00045*
X04605Y00036*
X04612Y00029*
X04621Y00025*
X04625Y00023*
Y0005*
G37*
G36*
X04468D02*
X04442D01*
X04443Y00045*
X04448Y00036*
X04455Y00029*
X04463Y00025*
X04468Y00023*
Y0005*
G37*
G36*
X04719Y00097D02*
X04709D01*
X047Y00094*
X04691Y00089*
X04684Y00083*
X04679Y00074*
X04677Y00064*
Y00055*
X04679Y00045*
X04684Y00037*
X04691Y0003*
X047Y00025*
X04709Y00022*
X04719*
X04729Y00025*
X04737Y0003*
X04744Y00037*
X04749Y00045*
X04751Y00055*
Y00064*
X04749Y00074*
X04744Y00083*
X04737Y00089*
X04729Y00094*
X04719Y00097*
G37*
G36*
X04562D02*
X04552D01*
X04542Y00094*
X04534Y00089*
X04527Y00083*
X04522Y00074*
X04519Y00064*
Y00055*
X04522Y00045*
X04527Y00037*
X04534Y0003*
X04542Y00025*
X04552Y00022*
X04562*
X04571Y00025*
X0458Y0003*
X04587Y00037*
X04591Y00045*
X04594Y00055*
Y00064*
X04591Y00074*
X04587Y00083*
X0458Y00089*
X04571Y00094*
X04562Y00097*
G37*
G36*
X04404D02*
X04394D01*
X04385Y00094*
X04376Y00089*
X04369Y00083*
X04364Y00074*
X04362Y00064*
Y00055*
X04364Y00045*
X04369Y00037*
X04376Y0003*
X04385Y00025*
X04394Y00022*
X04404*
X04414Y00025*
X04422Y0003*
X04429Y00037*
X04434Y00045*
X04437Y00055*
Y00064*
X04434Y00074*
X04429Y00083*
X04422Y00089*
X04414Y00094*
X04404Y00097*
G37*
G36*
X05365Y0005D02*
X05329D01*
Y00018*
X05365*
Y0005*
G37*
G36*
X05309D02*
X05274D01*
Y00018*
X05309*
Y0005*
G37*
G36*
X05257D02*
X05221D01*
Y00018*
X05257*
Y0005*
G37*
G36*
X05201D02*
X05166D01*
Y00018*
X05201*
Y0005*
G37*
G36*
X05148D02*
X05113D01*
Y00018*
X05148*
Y0005*
G37*
G36*
X05093D02*
X05057D01*
Y00018*
X05093*
Y0005*
G37*
G36*
X0504D02*
X05005D01*
Y00018*
X0504*
Y0005*
G37*
G36*
X04985D02*
X04949D01*
Y00018*
X04985*
Y0005*
G37*
G36*
X04932D02*
X04896D01*
Y00018*
X04932*
Y0005*
G37*
G36*
X04876D02*
X04841D01*
Y00018*
X04876*
Y0005*
G37*
G36*
X05906Y00396D02*
X05871D01*
Y00365*
X05906*
Y00396*
G37*
G36*
X05798D02*
X05762D01*
Y00365*
X05798*
Y00396*
G37*
G36*
X05473D02*
X05438D01*
Y00365*
X05473*
Y00396*
G37*
G36*
X05581D02*
X05546D01*
Y00365*
X05581*
Y00396*
G37*
G36*
X0569D02*
X05654D01*
Y00365*
X0569*
Y00396*
G37*
G36*
X05634D02*
X05599D01*
Y00365*
X05634*
Y00396*
G37*
G36*
X05526D02*
X0549D01*
Y00365*
X05526*
Y00396*
G37*
G36*
X05418D02*
X05382D01*
Y00365*
X05418*
Y00396*
G37*
G36*
X05742D02*
X05707D01*
Y00365*
X05742*
Y00396*
G37*
G36*
X05851D02*
X05815D01*
Y00365*
X05851*
Y00396*
G37*
G36*
X0685Y00332D02*
X06847Y00332D01*
X06718*
X06716Y00332*
X06704Y00331*
X06693Y00328*
X06682Y00322*
X06673Y00315*
X06666Y00305*
X0666Y00295*
X06657Y00284*
X06656Y00272*
Y00267*
X06716*
Y00247*
X06656*
Y00242*
X06657Y0023*
X0666Y00219*
X06666Y00208*
X06673Y00199*
X06682Y00192*
X06693Y00186*
X06704Y00183*
X06716Y00182*
X06718Y00182*
X06847*
X0685Y00182*
X06862Y00183*
X06873Y00186*
X06883Y00192*
X06893Y00199*
X069Y00208*
X06906Y00219*
X06909Y0023*
X0691Y00242*
Y00247*
X0685*
Y00192*
X06716*
Y00193*
Y00322*
X0685*
Y00267*
X0691*
Y00272*
X06909Y00284*
X06906Y00295*
X069Y00305*
X06893Y00315*
X06883Y00322*
X06873Y00328*
X06862Y00331*
X0685Y00332*
G37*
G36*
X0569Y00345D02*
X05644D01*
X05599*
Y00313*
Y00306*
X05644*
X0569*
Y00313*
Y00345*
G37*
G36*
X05581D02*
X05536D01*
X0549*
Y00313*
Y00306*
X05536*
X05581*
Y00313*
Y00345*
G37*
G36*
X05473D02*
X05428D01*
X05382*
Y00313*
Y00306*
X05428*
X05473*
Y00313*
Y00345*
G37*
G36*
X05752Y00355D02*
D01*
Y00345*
X05707*
Y00313*
Y00306*
X05752*
X05798*
Y00313*
Y00345*
X05752*
Y00355*
G37*
G36*
X05906Y00345D02*
X05861D01*
X05815*
Y00313*
Y00306*
X05861*
X05906*
Y00313*
Y00345*
G37*
G36*
X0569Y00286D02*
X05644D01*
X05599*
Y00254*
Y00247*
X05644*
X0569*
Y00254*
Y00286*
G37*
G36*
X05581D02*
X05536D01*
X0549*
Y00254*
Y00247*
X05536*
X05581*
Y00254*
Y00286*
G37*
G36*
X05473D02*
X05428D01*
X05382*
Y00254*
Y00247*
X05428*
X05473*
Y00254*
Y00286*
G37*
G36*
X05798D02*
X05752D01*
X05707*
Y00254*
Y00247*
X05752*
X05798*
Y00254*
Y00286*
G37*
G36*
X05906D02*
X05861D01*
X05815*
Y00254*
Y00247*
X05861*
X05906*
Y00254*
Y00286*
G37*
G36*
X0569Y00227D02*
X05644D01*
X05599*
Y00195*
Y00188*
X05644*
X0569*
Y00195*
Y00227*
G37*
G36*
X05581D02*
X05536D01*
X0549*
Y00195*
Y00188*
X05536*
X05581*
Y00195*
Y00227*
G37*
G36*
X05473D02*
X05428D01*
X05382*
Y00195*
Y00188*
X05428*
X05473*
Y00195*
Y00227*
G37*
G36*
X05798D02*
X05752D01*
X05707*
Y00195*
Y00188*
X05752*
X05798*
Y00195*
Y00227*
G37*
G36*
X05906D02*
X05861D01*
X05815*
Y00195*
Y00188*
X05861*
X05906*
Y00195*
Y00227*
G37*
G36*
X0569Y00168D02*
X05644D01*
X05599*
Y00136*
Y00129*
X05644*
X0569*
Y00136*
Y00168*
G37*
G36*
X05581D02*
X05536D01*
X0549*
Y00136*
Y00129*
X05536*
X05581*
Y00136*
Y00168*
G37*
G36*
X05473D02*
X05428D01*
X05382*
Y00136*
Y00129*
X05428*
X05473*
Y00136*
Y00168*
G37*
G36*
X05798D02*
X05752D01*
X05707*
Y00136*
Y00129*
X05752*
X05798*
Y00136*
Y00168*
G37*
G36*
X05906D02*
X05861D01*
X05815*
Y00136*
Y00129*
X05861*
X05906*
Y00136*
Y00168*
G37*
G36*
X0569Y00109D02*
X05644D01*
X05599*
Y00077*
Y0007*
X05644*
X0569*
Y00077*
Y00109*
G37*
G36*
X05581D02*
X05536D01*
X0549*
Y00077*
Y0007*
X05536*
X05581*
Y00077*
Y00109*
G37*
G36*
X05473D02*
X05428D01*
X05382*
Y00077*
Y0007*
X05428*
X05473*
Y00077*
Y00109*
G37*
G36*
X05798D02*
X05752D01*
X05707*
Y00077*
Y0007*
X05752*
X05798*
Y00077*
Y00109*
G37*
G36*
X05906D02*
X05861D01*
X05815*
Y00077*
Y0007*
X05861*
X05906*
Y00077*
Y00109*
G37*
%LNpcb1-3*%
%LPD*%
G36*
X0442Y03137D02*
X04427Y03133D01*
X04432Y03128*
X04436Y03121*
X04438Y03114*
Y03106*
X04436Y03098*
X04432Y03092*
X04427Y03086*
X0442Y03082*
X04413Y0308*
X04405*
X04398Y03082*
X04391Y03086*
X04385Y03092*
X04382Y03098*
X0438Y03106*
Y03114*
X04382Y03121*
X04385Y03128*
X04391Y03133*
X04398Y03137*
X04405Y03139*
X04413*
X0442Y03137*
G37*
G36*
Y03058D02*
X04427Y03054D01*
X04432Y03049*
X04436Y03042*
X04438Y03035*
Y03027*
X04436Y0302*
X04432Y03013*
X04427Y03008*
X0442Y03004*
X04413Y03002*
X04405*
X04398Y03004*
X04391Y03008*
X04385Y03013*
X04382Y0302*
X0438Y03027*
Y03035*
X04382Y03042*
X04385Y03049*
X04391Y03054*
X04398Y03058*
X04405Y0306*
X04413*
X0442Y03058*
G37*
G36*
X04499D02*
X04506Y03054D01*
X04511Y03049*
X04515Y03042*
X04517Y03035*
Y03027*
X04515Y0302*
X04511Y03013*
X04506Y03008*
X04499Y03004*
X04499Y03004*
X04497Y03003*
X04496Y03003*
X04496Y03002*
X04495Y03002*
X04494Y03001*
X04493Y03*
X04493Y02999*
X04492Y02999*
X04492Y02998*
X04491Y02996*
X04491Y02996*
X04491Y02995*
X04491Y02994*
X04491Y02993*
X04491Y02992*
X04491Y02991*
X04492Y0299*
X04492Y02989*
X04493Y02988*
X04493Y02988*
X04494Y02987*
X04495Y02986*
X04496Y02986*
X04496Y02985*
X04497Y02985*
X04499Y02984*
X04499Y02984*
X04506Y0298*
X04511Y02975*
X04515Y02968*
X04517Y02961*
Y02953*
X04515Y02945*
X04511Y02939*
X04506Y02933*
X04499Y02929*
X04492Y02927*
X04484*
X04476Y02929*
X0447Y02933*
X04464Y02939*
X0446Y02945*
X04458Y02953*
Y02961*
X0446Y02968*
X04464Y02975*
X0447Y0298*
X04476Y02984*
X04477Y02984*
X04478Y02985*
X04479Y02985*
X0448Y02986*
X0448Y02986*
X04481Y02987*
X04482Y02988*
X04483Y02988*
X04483Y02989*
X04483Y0299*
X04484Y02991*
X04484Y02992*
X04484Y02993*
X04484Y02994*
X04484Y02995*
X04484Y02996*
X04484Y02996*
X04483Y02998*
X04483Y02999*
X04483Y02999*
X04482Y03*
X04481Y03001*
X0448Y03002*
X0448Y03002*
X04479Y03003*
X04478Y03003*
X04477Y03004*
X04476Y03004*
X0447Y03008*
X04464Y03013*
X0446Y0302*
X04458Y03027*
Y03035*
X0446Y03042*
X04464Y03049*
X0447Y03054*
X04476Y03058*
X04484Y0306*
X04492*
X04499Y03058*
G37*
G54D13*
X06092Y0124D02*
X0682D01*
X04192Y03346D02*
X04212Y03366D01*
X04192Y03346D02*
D01*
X04212Y03366D02*
Y03609D01*
X03838Y03983D02*
X04212Y03609D01*
X03838Y03983D02*
Y0435D01*
X0374Y04448D02*
X03838Y0435D01*
G54D61*
X07262Y00393D03*
G54D62*
X07462Y00393D03*
G54D64*
X0374Y04448D03*
G54D67*
X04399Y00375D03*
Y00296D03*
Y00217D03*
X04478Y00375D03*
Y00296D03*
Y00217D03*
Y00138D03*
Y0006D03*
X04557Y00375D03*
Y00296D03*
X04635Y00375D03*
Y00296D03*
Y00217D03*
Y00138D03*
Y0006D03*
X04714Y00375D03*
Y00296D03*
G54D68*
X05644Y0006D03*
X05752D03*
X05644Y00119D03*
X05752D03*
X05644Y00178D03*
X05752D03*
X05644Y00237D03*
X05752D03*
X05644Y00296D03*
X05752D03*
X05319Y0006D03*
X05428D03*
X05319Y00119D03*
X05428D03*
X05319Y00178D03*
X05428D03*
X05319Y00237D03*
X05428D03*
X05319Y00296D03*
X05428D03*
X04995Y0006D03*
X05103D03*
X04995Y00119D03*
X05103D03*
X04995Y00178D03*
X05103D03*
X04995Y00237D03*
X05103D03*
X04995Y00296D03*
X04886Y0006D03*
Y00119D03*
Y00178D03*
Y00237D03*
Y00296D03*
X05644Y00355D03*
X05752D03*
X05319D03*
X05428D03*
X04995D03*
X05103D03*
X04886D03*
X05211Y0006D03*
X05536D03*
X05861D03*
X05211Y00119D03*
X05536D03*
X05861D03*
X05211Y00178D03*
X05536D03*
X05861D03*
X05211Y00237D03*
X05536D03*
X05861D03*
X05211Y00296D03*
X05536D03*
X05861D03*
X05211Y00355D03*
X05536D03*
X05861D03*
X05103Y00296D03*
G54D69*
X06716Y00787D03*
X0685D03*
X06716Y00257D03*
X0685D03*
G54D72*
X03827Y05187D03*
X02019Y01633D03*
X04409Y05393D03*
X0682Y0124D03*
X06092D03*
X03492Y04732D03*
X04565Y02818D03*
X04192Y02578D03*
X03652Y02282D03*
X01716Y01842D03*
X01843Y01976D03*
X03996Y03229D03*
X01722Y02135D03*
X04681Y02814D03*
X03779Y02807D03*
X04389Y02492D03*
X04416Y02389D03*
X04291Y02015D03*
X04448Y02055D03*
X02128Y02108D03*
X02685Y01913D03*
X02314Y01937D03*
X02669Y02043D03*
X02448Y02267D03*
X02092Y02364D03*
X02181Y02362D03*
X02317Y01789D03*
G54D73*
X03218Y00551D03*
Y00472D03*
X04557Y05304D03*
X03051Y05184D03*
X03503Y05216D03*
X03346D03*
X03425D03*
X03129Y05184D03*
X03208D03*
X03129Y0498D03*
X03208Y05059D03*
X03051Y05059D03*
X03175Y04895D03*
X03051Y0498D03*
X03129Y05059D03*
X03208Y04803D03*
X03159Y04744D03*
X03051D03*
Y04891D03*
X03116Y04836D03*
X03228Y04251D03*
X03917Y04527D03*
X00216Y01791D03*
X00295D03*
X00826Y025D03*
X00748Y02421D03*
X0059Y02263D03*
X00905Y02578D03*
X00669Y02342D03*
X0059Y02185D03*
X00905Y025D03*
X00984Y02578D03*
X00826Y02421D03*
X00748Y02342D03*
X00826Y02578D03*
X0059Y02342D03*
X00748Y025D03*
X00669Y02421D03*
X04547Y05236D03*
X04625Y05314D03*
X05217Y01417D03*
X05078Y01437D03*
X05216Y01496D03*
X04409Y01259D03*
X04271Y01397D03*
X04488Y01181D03*
X04566Y01102D03*
X04409Y01181D03*
X04488Y01102D03*
X0433Y01259D03*
X04488D03*
X04566Y01181D03*
X04645Y01102D03*
X04724Y01181D03*
X04566Y01259D03*
X04645Y01181D03*
X04803D03*
X03484Y04798D03*
X03562D03*
X0311Y02106D03*
X0498Y05236D03*
X04251Y00138D03*
X04133D03*
X04488Y02957D03*
X04567Y02957D03*
X04409Y03031D03*
X0311Y01929D03*
X03208Y02155D03*
X0311Y02007D03*
X0494Y04763D03*
X04862D03*
X04783D03*
X04704D03*
X04625D03*
X04468D03*
X04338Y01109D03*
X07578Y01043D03*
X07657D03*
X07736D03*
X07657Y01122D03*
X07893Y01043D03*
X07814Y01122D03*
X07736Y012D03*
X07893Y01122D03*
X07814Y012D03*
X07893D03*
X07736Y01614D03*
Y01692D03*
X07814Y01614D03*
X07519Y02125D03*
X07736Y0185D03*
X07362Y02204D03*
X07893Y01614D03*
X07814Y01771D03*
X07893Y01692D03*
X0744Y02125D03*
X07362Y02283D03*
X07598Y02047D03*
X07519D03*
X0744Y02204D03*
X07814Y01692D03*
X07736Y01771D03*
X07362Y02125D03*
X0744Y02047D03*
X07736Y01122D03*
X07814Y01043D03*
X07736Y01929D03*
X07814Y0185D03*
X07893Y01771D03*
X07972Y01692D03*
Y01614D03*
X08051D03*
Y01122D03*
Y012D03*
Y01043D03*
X0687Y03031D03*
Y02952D03*
X06948D03*
Y03031D03*
X07185D03*
X07106D03*
X07027D03*
Y02952D03*
X07106D03*
X07185D03*
Y02874D03*
X07106D03*
X07027D03*
Y02795D03*
X07106D03*
X07185D03*
Y02716D03*
X07106D03*
X07027D03*
X06535Y02874D03*
X06456D03*
X06377D03*
X06299D03*
X0622D03*
X06535Y02795D03*
Y02716D03*
X06456D03*
Y02795D03*
X06377D03*
Y02716D03*
X06299D03*
Y02795D03*
X0622D03*
Y02716D03*
X06141Y02795D03*
Y02716D03*
X00157Y03799D03*
Y03877D03*
Y0372D03*
X00078Y04271D03*
Y04192D03*
Y04114D03*
Y04035D03*
Y03956D03*
Y03877D03*
Y03799D03*
Y0372D03*
X00964Y04271D03*
X00885D03*
X00807D03*
X00728D03*
X00885Y04192D03*
X00807D03*
X00728D03*
X00649D03*
X00807Y04114D03*
X00728D03*
X00649D03*
X0057D03*
X00728Y04035D03*
X00649D03*
X0057D03*
X00649Y03956D03*
X0057D03*
X00492Y03799D03*
X00413Y0372D03*
Y03799D03*
X0057Y03877D03*
X00492D03*
X00413D03*
X00649Y05118D03*
X00728D03*
X00807D03*
Y05196D03*
X00728D03*
X00649D03*
X00807Y05275D03*
X00728D03*
X00649D03*
X00334D03*
X0057D03*
X00492D03*
X00413D03*
Y05354D03*
X00492D03*
X0057D03*
X00649D03*
X00728D03*
X00807D03*
Y05433D03*
X00728D03*
X00649D03*
X0057D03*
X00492D03*
X00413D03*
X00334Y05354D03*
Y05433D03*
X00255D03*
Y05354D03*
Y05275D03*
X00177Y05196D03*
Y05275D03*
Y05354D03*
Y05433D03*
X00078Y05039D03*
Y05118D03*
Y05196D03*
Y05275D03*
Y05354D03*
Y05433D03*
X00826Y0309D03*
X00748D03*
X00669D03*
Y03169D03*
X00748D03*
X00826D03*
Y03248D03*
X00748D03*
X00669D03*
Y03326D03*
X00748D03*
X00826D03*
Y03405D03*
Y03484D03*
Y03562D03*
X00748D03*
Y03484D03*
Y03405D03*
X00669D03*
Y03484D03*
Y03562D03*
X0059D03*
Y03484D03*
Y03405D03*
X00511D03*
Y03484D03*
Y03562D03*
X00433Y03484D03*
Y03405D03*
X00748Y02578D03*
X00669Y025D03*
X0059Y02421D03*
X00137Y02559D03*
Y02637D03*
Y02716D03*
Y02795D03*
Y02874D03*
Y02952D03*
X00885Y01692D03*
X00807D03*
X00728D03*
X00649Y01614D03*
Y01692D03*
X0057D03*
Y01614D03*
X00492D03*
Y01692D03*
X00413D03*
Y01614D03*
X00728Y01614D03*
X00807D03*
X00885D03*
Y01535D03*
X00807D03*
X00728D03*
Y01457D03*
X00807D03*
X00885D03*
Y01378D03*
X00807D03*
X00728D03*
Y01299D03*
X00807D03*
X00885D03*
Y0122D03*
X00807D03*
X00728D03*
X00885Y00649D03*
X00807D03*
X00728D03*
Y0057D03*
X00807D03*
X00885D03*
Y00492D03*
X00807D03*
X00728D03*
Y00413D03*
X00807D03*
X00885D03*
Y00334D03*
X00807D03*
X00728D03*
X00649Y00236D03*
Y00157D03*
Y00078D03*
X0057D03*
Y00157D03*
Y00236D03*
X00492Y00078D03*
X00413D03*
Y00157D03*
X00492D03*
Y00236D03*
X00413D03*
X00334Y00078D03*
X00255D03*
X00177D03*
Y00157D03*
X00255D03*
X00334D03*
Y00236D03*
X00255D03*
X00177D03*
X00059Y01555D03*
Y01633D03*
Y01712D03*
X00137Y01791D03*
X00059D03*
X03779Y00984D03*
X03681D03*
X03897Y01043D03*
X03818D03*
X0374D03*
X03818Y01122D03*
X03897D03*
Y012D03*
X03759Y0061D03*
X03681D03*
Y00354D03*
X02982Y00944D03*
X03061D03*
X03139D03*
X03218D03*
X03139Y00866D03*
X03218Y00787D03*
Y00708D03*
Y00629D03*
Y00866D03*
X03139Y00787D03*
X03218Y00324D03*
Y00393D03*
X03139Y00708D03*
Y00629D03*
X03061D03*
X02982D03*
Y00551D03*
X03061Y00472D03*
Y00551D03*
X03139D03*
Y00472D03*
Y00393D03*
X02982Y00324D03*
X0433Y01181D03*
X04409Y01102D03*
X04476Y00692D03*
X04566Y00539D03*
X04291Y0059D03*
Y00669D03*
X04476Y0061D03*
X04251Y00216D03*
X04192Y00177D03*
Y00255D03*
X04133Y00216D03*
Y00295D03*
X04015Y00354D03*
X03937D03*
X03858D03*
X07972Y012D03*
Y01122D03*
Y01043D03*
X04488Y04271D03*
X04409D03*
Y04192D03*
X0433D03*
Y04114D03*
X04187Y04425D03*
X04232Y04566D03*
Y04488D03*
X04153Y04566D03*
Y04488D03*
X04114Y04429D03*
X04035D03*
X04074Y04566D03*
Y04488D03*
X03996D03*
Y04566D03*
X03917Y04448D03*
Y0437D03*
Y04291D03*
X03681Y04173D03*
X03917Y04212D03*
Y04033D03*
Y04117D03*
X05059Y01574D03*
X05137D03*
X05216D03*
X05137Y01496D03*
X05019D03*
X04586Y01555D03*
Y01476D03*
Y01397D03*
X04507D03*
X04429D03*
X0435D03*
Y01476D03*
X04271Y01653D03*
X04192D03*
Y01555D03*
X04271D03*
Y01476D03*
X04192D03*
Y01397D03*
X04271Y01318D03*
X05137Y02027D03*
X05059D03*
X05216Y02125D03*
X05137D03*
X05059D03*
Y02204D03*
X05137D03*
X05216D03*
Y02283D03*
X05137D03*
X05059D03*
Y02362D03*
X05137D03*
X05216D03*
Y0244D03*
X05137D03*
X05059D03*
X05216Y02598D03*
Y02519D03*
X05137D03*
Y02598D03*
X05059D03*
Y02519D03*
X0498D03*
Y02598D03*
X04901D03*
Y02519D03*
X04822Y02598D03*
Y02519D03*
X04744Y02598D03*
Y02519D03*
X04665Y02598D03*
Y02519D03*
X03799Y04763D03*
X0372D03*
X03641D03*
X03287Y05255D03*
X03129D03*
X03208D03*
X03838Y01437D03*
Y01358D03*
X03759Y01279D03*
Y01358D03*
Y01437D03*
X03838Y01515D03*
X03759D03*
X03681D03*
Y01437D03*
Y01358D03*
Y01279D03*
Y012D03*
X03523Y01181D03*
X03444D03*
X03208Y01062D03*
Y0122D03*
Y01141D03*
X03129D03*
Y0122D03*
Y01299D03*
X03208Y01437D03*
Y01515D03*
X03129D03*
X03346Y01929D03*
X03267D03*
X03188D03*
X03346Y02007D03*
X03267D03*
X03188D03*
X03661D03*
X0374D03*
X03818D03*
X03661Y02145D03*
X03208Y02283D03*
Y02362D03*
X03129D03*
X03759Y03622D03*
X03818Y03582D03*
Y03503D03*
X03759Y03543D03*
Y03464D03*
Y03385D03*
X03681D03*
Y03307D03*
X0374Y03149D03*
X03681D03*
X03759Y03011D03*
X03681D03*
X03385Y02992D03*
X03307D03*
X03228D03*
X03149D03*
Y02913D03*
X0307D03*
Y02992D03*
Y0307D03*
X03149D03*
X03228D03*
X0307Y0315D03*
X03149Y03149D03*
X03228D03*
X0307Y03228D03*
X03149Y03228D03*
X03228D03*
X0307Y03307D03*
X03149D03*
X03228D03*
X03681Y03937D03*
Y04015D03*
Y04094D03*
X03228Y03937D03*
X03149D03*
X0307D03*
Y04015D03*
X03149D03*
X03228D03*
X03503Y04311D03*
X03425D03*
X03346D03*
X03267D03*
X03149Y04173D03*
X03228D03*
Y04094D03*
X03149D03*
X0307D03*
X05295Y05236D03*
Y05314D03*
X05216D03*
Y05236D03*
X05137D03*
Y05314D03*
X05059D03*
Y05236D03*
X04881D03*
X04783Y05314D03*
Y05236D03*
X04704Y05314D03*
Y05236D03*
X04625D03*
X04547Y05157D03*
Y05078D03*
Y05D03*
Y04921D03*
X04468D03*
X04389D03*
Y04763D03*
Y04842D03*
X04468D03*
X04547Y04763D03*
Y04842D03*
X05275Y04173D03*
Y04094D03*
Y04015D03*
X05196Y03346D03*
X05275D03*
Y03267D03*
X05196D03*
Y03188D03*
X05275D03*
Y03031D03*
Y0311D03*
X05196D03*
Y03031D03*
X05118D03*
Y0311D03*
Y03188D03*
Y03267D03*
Y03346D03*
X05039D03*
Y03267D03*
Y03188D03*
Y0311D03*
X05118Y02874D03*
Y02952D03*
X05039Y02874D03*
Y02952D03*
Y03031D03*
X0496D03*
Y02952D03*
Y02874D03*
X04803D03*
X04881D03*
Y02952D03*
Y03031D03*
X04803D03*
X04645D03*
X04488D03*
X04566D03*
Y0311D03*
X04488D03*
X04409D03*
Y03188D03*
X04488D03*
X04566D03*
Y03267D03*
X04488D03*
X04409D03*
Y03346D03*
X04488D03*
X04566D03*
X04507Y04114D03*
Y04015D03*
X04586D03*
Y04114D03*
X05196Y04015D03*
X05118D03*
X05039D03*
Y04094D03*
X05118D03*
X05196D03*
Y04173D03*
X05118D03*
X05039D03*
X05196Y04251D03*
X05118D03*
X05039D03*
X04571Y04207D03*
X07677Y03051D03*
Y03129D03*
Y03208D03*
Y03287D03*
X07519Y03444D03*
X0744Y02362D03*
Y0244D03*
X07519Y02283D03*
X0744D03*
X07598Y02125D03*
Y02204D03*
X07519D03*
X07362Y02362D03*
X07519D03*
X07362Y0244D03*
X08149D03*
Y02362D03*
Y02283D03*
Y02204D03*
Y02125D03*
Y02047D03*
X0807D03*
Y02125D03*
X07992D03*
Y02047D03*
X07913D03*
Y02125D03*
X07834D03*
X07755D03*
X07677Y02047D03*
Y02125D03*
Y02204D03*
X07598Y02283D03*
X07677D03*
Y02362D03*
X07598D03*
X07519Y0244D03*
X07598D03*
X07677D03*
Y03366D03*
X07598D03*
X07519D03*
X0744D03*
X07362Y03444D03*
Y03366D03*
X07598Y03444D03*
X07596Y03522D03*
X07598Y03602D03*
Y03681D03*
X07519D03*
X0744D03*
X07362D03*
X07677D03*
Y03602D03*
Y03523D03*
Y03444D03*
X07755D03*
Y03523D03*
Y03602D03*
Y03681D03*
X08149Y03051D03*
Y03129D03*
Y03208D03*
Y03287D03*
Y03366D03*
X07834Y03444D03*
X07913D03*
X07992D03*
X0807D03*
X08149D03*
Y03523D03*
X0807D03*
X07992D03*
X07913D03*
X07834D03*
Y03602D03*
X07913D03*
X07992D03*
X0807D03*
X08149D03*
Y03681D03*
X0807D03*
X07992D03*
X07913D03*
X07834D03*
X07362Y04842D03*
Y04763D03*
X0744D03*
X07519D03*
X07598D03*
X07677D03*
Y04842D03*
X07598D03*
X07519D03*
X0744D03*
Y04921D03*
X07519Y05D03*
Y04921D03*
X07598D03*
Y05D03*
Y05078D03*
X07362Y04251D03*
Y04173D03*
Y04094D03*
Y04015D03*
Y03937D03*
X0744D03*
Y04015D03*
Y04094D03*
Y04173D03*
Y04251D03*
X07519D03*
Y04173D03*
Y04094D03*
Y04015D03*
Y03937D03*
X07598D03*
Y04015D03*
Y04094D03*
Y04173D03*
Y04251D03*
X08169Y04921D03*
Y05D03*
Y05078D03*
Y05157D03*
Y05236D03*
Y05314D03*
X0809D03*
Y05236D03*
X08011D03*
X07933D03*
X07854D03*
X07775D03*
X07677Y05157D03*
Y05078D03*
Y05D03*
Y04921D03*
X08169Y04222D03*
Y04143D03*
Y04064D03*
Y03986D03*
Y03828D03*
Y03907D03*
X0809D03*
Y03828D03*
X07933D03*
X08011D03*
Y03907D03*
X07933D03*
X07854D03*
X07677Y04251D03*
Y04173D03*
Y04094D03*
Y04015D03*
Y03937D03*
X04625Y04842D03*
X04704D03*
X04783D03*
X04862D03*
X0494D03*
X05295Y05157D03*
Y05078D03*
Y05D03*
X05216D03*
Y05078D03*
Y05157D03*
X05137Y04921D03*
Y05D03*
Y05078D03*
Y05157D03*
X05059Y04921D03*
Y05D03*
Y05078D03*
Y05157D03*
X06456Y00952D03*
X06299Y00956D03*
X06141D03*
X05984Y0096D03*
X05511Y00976D03*
X05354D03*
X05196D03*
X05039D03*
X04881D03*
X04728D03*
X04035Y00718D03*
Y00787D03*
Y00856D03*
X05984Y00649D03*
X05826D03*
X05669D03*
X05511D03*
X05354D03*
X05196D03*
X05039D03*
X04881D03*
X04724D03*
M02*