G04*
G04 #@! TF.GenerationSoftware,Altium Limited,Altium Designer,21.0.8 (223)*
G04*
G04 Layer_Color=65535*
%FSLAX25Y25*%
%MOIN*%
G70*
G04*
G04 #@! TF.SameCoordinates,A19D7D31-63B9-40C3-BA03-758776B81FF0*
G04*
G04*
G04 #@! TF.FilePolarity,Positive*
G04*
G01*
G75*
%ADD10C,0.01500*%
%ADD11C,0.00984*%
%ADD12C,0.01575*%
%ADD13C,0.01000*%
%ADD14C,0.00787*%
%ADD15C,0.00591*%
%ADD16R,0.69193X0.07874*%
D10*
X374766Y426575D02*
X374248Y427288D01*
X373409Y427016D01*
Y426134D01*
X374248Y425862D01*
X374766Y426575D01*
D11*
X429687Y78740D02*
X428949Y79166D01*
Y78314D01*
X429687Y78740D01*
X433827Y65035D02*
X433089Y65462D01*
Y64609D01*
X433827Y65035D01*
X302165Y500000D02*
X312008D01*
X307087Y495079D02*
Y504921D01*
X289370Y459252D02*
X340551D01*
X37205D02*
X88583D01*
X37205D02*
Y483268D01*
X340551Y459252D02*
Y483268D01*
X289370Y540748D02*
X340551D01*
X37205D02*
X88583D01*
X37205Y516732D02*
Y540748D01*
X340551Y516732D02*
Y540748D01*
X65945Y409449D02*
X75787D01*
X70866Y404528D02*
Y414370D01*
X37402Y450197D02*
X88583D01*
X289370D02*
X340748D01*
Y426181D02*
Y450197D01*
X37402Y426181D02*
Y450197D01*
Y368701D02*
X88583D01*
X289370D02*
X340748D01*
Y392717D01*
X37402Y368701D02*
Y392717D01*
X65945Y47244D02*
X75787D01*
X70866Y42323D02*
Y52165D01*
X37402Y87992D02*
X88583D01*
X289370D02*
X340748D01*
Y63976D02*
Y87992D01*
X37402Y63976D02*
Y87992D01*
Y6496D02*
X88583D01*
X289370D02*
X340748D01*
Y30512D01*
X37402Y6496D02*
Y30512D01*
X513114Y503937D02*
X522956D01*
X518035Y499016D02*
Y508858D01*
X484570Y544685D02*
X535751D01*
X736539D02*
X787917D01*
Y520669D02*
Y544685D01*
X484570Y520669D02*
Y544685D01*
Y463189D02*
X535751D01*
X736539D02*
X787917D01*
Y487205D01*
X484570Y463189D02*
Y487205D01*
X413386Y378346D02*
Y388189D01*
X408465Y383268D02*
X418307D01*
X454134Y365551D02*
Y416732D01*
Y113386D02*
Y164764D01*
X430118Y113386D02*
X454134D01*
X430118Y416732D02*
X454134D01*
X372638Y365551D02*
Y416732D01*
Y113386D02*
Y164764D01*
Y113386D02*
X396654D01*
X372638Y416732D02*
X396654D01*
X787795Y249016D02*
Y273031D01*
X484449Y249016D02*
Y273031D01*
X535827D01*
X736614D02*
X787795D01*
Y191535D02*
Y215551D01*
X484449Y191535D02*
Y215551D01*
Y191535D02*
X535827D01*
X736614D02*
X787795D01*
X754331Y227362D02*
Y237205D01*
X749409Y232283D02*
X759252D01*
X340551Y156527D02*
Y180543D01*
X37205Y156527D02*
Y180543D01*
X88583D01*
X289370D02*
X340551D01*
Y99047D02*
Y123063D01*
X37205Y99047D02*
Y123063D01*
Y99047D02*
X88583D01*
X289370D02*
X340551D01*
X307087Y134874D02*
Y144717D01*
X302165Y139795D02*
X312008D01*
X65945Y228346D02*
X75787D01*
X70866Y223425D02*
Y233268D01*
X37402Y269094D02*
X88583D01*
X289370D02*
X340748D01*
Y245079D02*
Y269094D01*
X37402Y245079D02*
Y269094D01*
Y187598D02*
X88583D01*
X289370D02*
X340748D01*
Y211614D01*
X37402Y187598D02*
Y211614D01*
X484570Y100984D02*
Y125000D01*
X787917Y100984D02*
Y125000D01*
X736539Y100984D02*
X787917D01*
X484570D02*
X535751D01*
X484570Y158465D02*
Y182480D01*
X787917Y158465D02*
Y182480D01*
X736539D02*
X787917D01*
X484570D02*
X535751D01*
X518035Y136811D02*
Y146653D01*
X513114Y141732D02*
X522956D01*
X512795Y322835D02*
X522638D01*
X517717Y317913D02*
Y327756D01*
X484252Y363583D02*
X535433D01*
X736221D02*
X787598D01*
Y339567D02*
Y363583D01*
X484252Y339567D02*
Y363583D01*
Y282087D02*
X535433D01*
X736221D02*
X787598D01*
Y306102D01*
X484252Y282087D02*
Y306102D01*
X749334Y413386D02*
X759177D01*
X754255Y408465D02*
Y418307D01*
X736539Y372638D02*
X787720D01*
X484373D02*
X535751D01*
X484373D02*
Y396654D01*
X787720Y372638D02*
Y396654D01*
X736539Y454134D02*
X787720D01*
X484373D02*
X535751D01*
X484373Y430118D02*
Y454134D01*
X787720Y430118D02*
Y454134D01*
X302165Y318898D02*
X312008D01*
X307087Y313976D02*
Y323819D01*
X289370Y278150D02*
X340551D01*
X37205D02*
X88583D01*
X37205D02*
Y302165D01*
X340551Y278150D02*
Y302165D01*
X289370Y359646D02*
X340551D01*
X37205D02*
X88583D01*
X37205Y335630D02*
Y359646D01*
X340551Y335630D02*
Y359646D01*
D12*
X452087Y541339D02*
X451496Y541929D01*
X450906Y541339D01*
X451496Y540748D01*
X452087Y541339D01*
X788189Y9764D02*
X787645Y10513D01*
X786764Y10227D01*
Y9301D01*
X787645Y9015D01*
X788189Y9764D01*
D13*
X430118Y473425D02*
X434055Y469488D01*
X448819Y499016D02*
X451772Y501968D01*
X430118Y473425D02*
Y499016D01*
X448819D01*
X411417D02*
X430118D01*
X408465Y501968D02*
X411417Y499016D01*
X434252Y469488D02*
X463189D01*
Y433983D02*
Y469488D01*
X434449Y433983D02*
X463189D01*
X434252Y457409D02*
Y469488D01*
X434449Y433983D02*
Y446976D01*
X448819Y435952D02*
Y467645D01*
X665139Y78740D02*
Y91240D01*
X671639D01*
X685039D02*
X691639D01*
Y78740D02*
Y91240D01*
Y13240D02*
Y25740D01*
X685039Y13240D02*
X691639D01*
X665139D02*
X671639D01*
X665139D02*
Y25740D01*
X798545Y75325D02*
Y79261D01*
X800513D01*
X801169Y78605D01*
Y77293D01*
X800513Y76637D01*
X798545D01*
X802481Y79261D02*
Y75325D01*
X805105D01*
X806417Y79261D02*
Y75981D01*
X807072Y75325D01*
X808384D01*
X809040Y75981D01*
Y79261D01*
X812976Y78605D02*
X812320Y79261D01*
X811008D01*
X810352Y78605D01*
Y77949D01*
X811008Y77293D01*
X812320D01*
X812976Y76637D01*
Y75981D01*
X812320Y75325D01*
X811008D01*
X810352Y75981D01*
X763124Y21821D02*
X762304Y21001D01*
Y19361D01*
X763124Y18541D01*
X766404D01*
X767224Y19361D01*
Y21001D01*
X766404Y21821D01*
X762304Y23461D02*
X767224D01*
X764764D01*
Y26741D01*
X762304D01*
X767224D01*
Y28381D02*
X763944D01*
X762304Y30020D01*
X763944Y31660D01*
X767224D01*
X764764D01*
Y28381D01*
X767224Y33300D02*
X762304D01*
Y35760D01*
X763124Y36580D01*
X764764D01*
X765584Y35760D01*
Y33300D01*
Y34940D02*
X767224Y36580D01*
X763124Y41500D02*
X762304Y40680D01*
Y39040D01*
X763124Y38220D01*
X766404D01*
X767224Y39040D01*
Y40680D01*
X766404Y41500D01*
X764764D01*
Y39860D01*
X762304Y46419D02*
Y43140D01*
X767224D01*
Y46419D01*
X764764Y43140D02*
Y44780D01*
X797247Y14764D02*
Y18700D01*
X798559Y17388D01*
X799871Y18700D01*
Y14764D01*
X801183Y18700D02*
X802495D01*
X801839D01*
Y14764D01*
X801183D01*
X802495D01*
X804463D02*
Y18700D01*
X807086Y14764D01*
Y18700D01*
X808398D02*
Y15420D01*
X809054Y14764D01*
X810366D01*
X811022Y15420D01*
Y18700D01*
X814958Y18044D02*
X814302Y18700D01*
X812990D01*
X812334Y18044D01*
Y17388D01*
X812990Y16732D01*
X814302D01*
X814958Y16076D01*
Y15420D01*
X814302Y14764D01*
X812990D01*
X812334Y15420D01*
X799543Y38713D02*
X798887Y39369D01*
X797575D01*
X796919Y38713D01*
Y36090D01*
X797575Y35434D01*
X798887D01*
X799543Y36090D01*
X803479Y39369D02*
X800855D01*
Y35434D01*
X803479D01*
X800855Y37402D02*
X802167D01*
X804790Y39369D02*
Y35434D01*
X807414D01*
X808726Y39369D02*
Y35434D01*
X811350D01*
X815286D02*
X812662D01*
X815286Y38058D01*
Y38713D01*
X814630Y39369D01*
X813318D01*
X812662Y38713D01*
X799543Y58398D02*
X798887Y59054D01*
X797575D01*
X796919Y58398D01*
Y55775D01*
X797575Y55119D01*
X798887D01*
X799543Y55775D01*
X803479Y59054D02*
X800855D01*
Y55119D01*
X803479D01*
X800855Y57087D02*
X802167D01*
X804790Y59054D02*
Y55119D01*
X807414D01*
X808726Y59054D02*
Y55119D01*
X811350D01*
X814630D02*
Y59054D01*
X812662Y57087D01*
X815286D01*
X375005Y487206D02*
Y493109D01*
X377956D01*
X378940Y492125D01*
Y490158D01*
X377956Y489174D01*
X375005D01*
X376972D02*
X378940Y487206D01*
X384844Y493109D02*
X380908D01*
Y487206D01*
X384844D01*
X380908Y490158D02*
X382876D01*
X390747Y492125D02*
X389763Y493109D01*
X387796D01*
X386812Y492125D01*
Y491141D01*
X387796Y490158D01*
X389763D01*
X390747Y489174D01*
Y488190D01*
X389763Y487206D01*
X387796D01*
X386812Y488190D01*
X396651Y493109D02*
X392715D01*
Y487206D01*
X396651D01*
X392715Y490158D02*
X394683D01*
X398619Y493109D02*
X402555D01*
X400587D01*
Y487206D01*
X800199Y27887D02*
X799543Y28543D01*
X798231D01*
X797575Y27887D01*
Y25263D01*
X798231Y24607D01*
X799543D01*
X800199Y25263D01*
X804134Y28543D02*
X801511D01*
Y24607D01*
X804134D01*
X801511Y26575D02*
X802823D01*
X805446Y28543D02*
Y24607D01*
X808070D01*
X809382Y28543D02*
Y24607D01*
X812006D01*
X813318D02*
X814630D01*
X813974D01*
Y28543D01*
X813318Y27887D01*
X751311Y55290D02*
X740815D01*
X746063Y50043D02*
Y60538D01*
X731626Y55118D02*
X721130D01*
X799543Y68241D02*
X798887Y68897D01*
X797575D01*
X796919Y68241D01*
Y65617D01*
X797575Y64961D01*
X798887D01*
X799543Y65617D01*
X803479Y68897D02*
X800855D01*
Y64961D01*
X803479D01*
X800855Y66929D02*
X802167D01*
X804790Y68897D02*
Y64961D01*
X807414D01*
X808726Y68897D02*
Y64961D01*
X811350D01*
X815286Y68897D02*
X812662D01*
Y66929D01*
X813974Y67585D01*
X814630D01*
X815286Y66929D01*
Y65617D01*
X814630Y64961D01*
X813318D01*
X812662Y65617D01*
X367456Y464192D02*
X368767D01*
X368111D01*
Y468128D01*
X367456Y467472D01*
X370735D02*
X371391Y468128D01*
X372703D01*
X373359Y467472D01*
Y464848D01*
X372703Y464192D01*
X371391D01*
X370735Y464848D01*
Y467472D01*
X374671Y464192D02*
Y468128D01*
Y465504D02*
X376639Y466816D01*
X374671Y465504D02*
X376639Y464192D01*
X354008Y461005D02*
X356632D01*
X355320D01*
Y457069D01*
X357944Y461005D02*
Y457069D01*
Y459037D01*
X358600Y459693D01*
X359912D01*
X360568Y459037D01*
Y457069D01*
X363848D02*
X362536D01*
X361880Y457725D01*
Y459037D01*
X362536Y459693D01*
X363848D01*
X364504Y459037D01*
Y458381D01*
X361880D01*
X365816Y459693D02*
Y457069D01*
Y458381D01*
X366472Y459037D01*
X367128Y459693D01*
X367783D01*
X369751Y457069D02*
Y459693D01*
X370407D01*
X371063Y459037D01*
Y457069D01*
Y459037D01*
X371719Y459693D01*
X372375Y459037D01*
Y457069D01*
X373687D02*
X374999D01*
X374343D01*
Y459693D01*
X373687D01*
X376967Y457069D02*
X378935D01*
X379591Y457725D01*
X378935Y458381D01*
X377623D01*
X376967Y459037D01*
X377623Y459693D01*
X379591D01*
X381559Y460349D02*
Y459693D01*
X380903D01*
X382215D01*
X381559D01*
Y457725D01*
X382215Y457069D01*
X384838D02*
X386150D01*
X386806Y457725D01*
Y459037D01*
X386150Y459693D01*
X384838D01*
X384182Y459037D01*
Y457725D01*
X384838Y457069D01*
X388118Y459693D02*
Y457069D01*
Y458381D01*
X388774Y459037D01*
X389430Y459693D01*
X390086D01*
X799543Y48556D02*
X798887Y49212D01*
X797575D01*
X796919Y48556D01*
Y45932D01*
X797575Y45276D01*
X798887D01*
X799543Y45932D01*
X803479Y49212D02*
X800855D01*
Y45276D01*
X803479D01*
X800855Y47244D02*
X802167D01*
X804790Y49212D02*
Y45276D01*
X807414D01*
X808726Y49212D02*
Y45276D01*
X811350D01*
X812662Y48556D02*
X813318Y49212D01*
X814630D01*
X815286Y48556D01*
Y47900D01*
X814630Y47244D01*
X813974D01*
X814630D01*
X815286Y46588D01*
Y45932D01*
X814630Y45276D01*
X813318D01*
X812662Y45932D01*
X450787Y436024D02*
Y439959D01*
X453411Y436024D01*
Y439959D01*
X457347Y439303D02*
X456691Y439959D01*
X455379D01*
X454723Y439303D01*
Y436680D01*
X455379Y436024D01*
X456691D01*
X457347Y436680D01*
X450787Y446849D02*
Y444225D01*
X452099Y442913D01*
X453411Y444225D01*
Y446849D01*
X457347Y446193D02*
X456691Y446849D01*
X455379D01*
X454723Y446193D01*
Y443569D01*
X455379Y442913D01*
X456691D01*
X457347Y443569D01*
X461283Y446193D02*
X460627Y446849D01*
X459315D01*
X458659Y446193D01*
Y443569D01*
X459315Y442913D01*
X460627D01*
X461283Y443569D01*
X450787Y449803D02*
Y453739D01*
X452755D01*
X453411Y453083D01*
Y451771D01*
X452755Y451115D01*
X450787D01*
X452099D02*
X453411Y449803D01*
X457347Y453083D02*
X456691Y453739D01*
X455379D01*
X454723Y453083D01*
Y452427D01*
X455379Y451771D01*
X456691D01*
X457347Y451115D01*
Y450459D01*
X456691Y449803D01*
X455379D01*
X454723Y450459D01*
X458659Y453739D02*
X461283D01*
X459971D01*
Y449803D01*
X450787Y456693D02*
Y460629D01*
X453411Y456693D01*
Y460629D01*
X457347Y459973D02*
X456691Y460629D01*
X455379D01*
X454723Y459973D01*
Y457349D01*
X455379Y456693D01*
X456691D01*
X457347Y457349D01*
X453411Y466862D02*
X452755Y467518D01*
X451443D01*
X450787Y466862D01*
Y464239D01*
X451443Y463583D01*
X452755D01*
X453411Y464239D01*
Y465551D01*
X452099D01*
X454723Y463583D02*
Y467518D01*
X457347Y463583D01*
Y467518D01*
X458659D02*
Y463583D01*
X460627D01*
X461283Y464239D01*
Y466862D01*
X460627Y467518D01*
X458659D01*
X436024D02*
X438648D01*
X437335D01*
Y463583D01*
X439959Y467518D02*
Y463583D01*
X441927D01*
X442583Y464239D01*
Y466862D01*
X441927Y467518D01*
X439959D01*
X443895D02*
X445207D01*
X444551D01*
Y463583D01*
X443895D01*
X445207D01*
X437008Y456693D02*
Y460629D01*
X439632Y456693D01*
Y460629D01*
X443567Y459973D02*
X442911Y460629D01*
X441600D01*
X440944Y459973D01*
Y457349D01*
X441600Y456693D01*
X442911D01*
X443567Y457349D01*
X436024Y453739D02*
X438648D01*
X437335D01*
Y449803D01*
X439959D02*
Y453739D01*
X441271Y452427D01*
X442583Y453739D01*
Y449803D01*
X446519Y453083D02*
X445863Y453739D01*
X444551D01*
X443895Y453083D01*
Y452427D01*
X444551Y451771D01*
X445863D01*
X446519Y451115D01*
Y450459D01*
X445863Y449803D01*
X444551D01*
X443895Y450459D01*
X436024Y446849D02*
X438648D01*
X437335D01*
Y442913D01*
X439959Y446849D02*
Y442913D01*
X441927D01*
X442583Y443569D01*
Y446193D01*
X441927Y446849D01*
X439959D01*
X445863D02*
X444551D01*
X443895Y446193D01*
Y443569D01*
X444551Y442913D01*
X445863D01*
X446519Y443569D01*
Y446193D01*
X445863Y446849D01*
X439632Y439303D02*
X438976Y439959D01*
X437664D01*
X437008Y439303D01*
Y436680D01*
X437664Y436024D01*
X438976D01*
X439632Y436680D01*
X440944Y439959D02*
Y436024D01*
X443567D01*
X444879Y439959D02*
Y436024D01*
Y437335D01*
X447503Y439959D01*
X445535Y437992D01*
X447503Y436024D01*
X26528Y460506D02*
X32527D01*
Y463506D01*
X31527Y464505D01*
X30527D01*
X29528Y463506D01*
Y460506D01*
Y463506D01*
X28528Y464505D01*
X27528D01*
X26528Y463506D01*
Y460506D01*
Y466505D02*
Y470503D01*
Y468504D01*
X32527D01*
X26528Y472503D02*
Y476501D01*
X27528D01*
X31527Y472503D01*
X32527D01*
X26528Y429010D02*
X32527D01*
Y432010D01*
X31527Y433009D01*
X30527D01*
X29528Y432010D01*
Y429010D01*
Y432010D01*
X28528Y433009D01*
X27528D01*
X26528Y432010D01*
Y429010D01*
Y435008D02*
Y439007D01*
Y437008D01*
X32527D01*
X27528Y441007D02*
X26528Y442006D01*
Y444006D01*
X27528Y445005D01*
X28528D01*
X29528Y444006D01*
X30527Y445005D01*
X31527D01*
X32527Y444006D01*
Y442006D01*
X31527Y441007D01*
X30527D01*
X29528Y442006D01*
X28528Y441007D01*
X27528D01*
X29528Y442006D02*
Y444006D01*
X385781Y484283D02*
X384781Y485283D01*
X382782D01*
X381782Y484283D01*
Y483283D01*
X382782Y482283D01*
X384781D01*
X385781Y481284D01*
Y480284D01*
X384781Y479284D01*
X382782D01*
X381782Y480284D01*
X387780Y485283D02*
Y479284D01*
X389779Y481284D01*
X391779Y479284D01*
Y485283D01*
X393778Y479284D02*
X395777D01*
X394778D01*
Y485283D01*
X393778Y484283D01*
X22684Y336491D02*
X16686D01*
Y339490D01*
X17686Y340490D01*
X19685D01*
X20685Y339490D01*
Y336491D01*
Y338490D02*
X22684Y340490D01*
Y345488D02*
X16686D01*
X19685Y342489D01*
Y346488D01*
X17686Y348487D02*
X16686Y349487D01*
Y351486D01*
X17686Y352486D01*
X21684D01*
X22684Y351486D01*
Y349487D01*
X21684Y348487D01*
X17686D01*
X790700Y537200D02*
Y543198D01*
X793699D01*
X794699Y542198D01*
Y540199D01*
X793699Y539199D01*
X790700D01*
X792699D02*
X794699Y537200D01*
X796698Y542198D02*
X797698Y543198D01*
X799697D01*
X800697Y542198D01*
Y541199D01*
X799697Y540199D01*
X798697D01*
X799697D01*
X800697Y539199D01*
Y538200D01*
X799697Y537200D01*
X797698D01*
X796698Y538200D01*
X802696Y542198D02*
X803696Y543198D01*
X805695D01*
X806695Y542198D01*
Y541199D01*
X805695Y540199D01*
X804696D01*
X805695D01*
X806695Y539199D01*
Y538200D01*
X805695Y537200D01*
X803696D01*
X802696Y538200D01*
X380184Y57868D02*
Y63866D01*
X383183D01*
X384183Y62866D01*
Y60867D01*
X383183Y59867D01*
X380184D01*
X382184D02*
X384183Y57868D01*
X390181D02*
X386182D01*
X390181Y61866D01*
Y62866D01*
X389181Y63866D01*
X387182D01*
X386182Y62866D01*
X392180D02*
X393180Y63866D01*
X395179D01*
X396179Y62866D01*
Y61866D01*
X395179Y60867D01*
X394180D01*
X395179D01*
X396179Y59867D01*
Y58867D01*
X395179Y57868D01*
X393180D01*
X392180Y58867D01*
X356346Y106222D02*
X350347D01*
Y109221D01*
X351347Y110221D01*
X353346D01*
X354346Y109221D01*
Y106222D01*
Y108221D02*
X356346Y110221D01*
X350347Y112220D02*
Y116219D01*
X351347D01*
X355346Y112220D01*
X356346D01*
X18747Y185947D02*
X12749D01*
Y188945D01*
X13749Y189945D01*
X15748D01*
X16748Y188945D01*
Y185947D01*
Y187946D02*
X18747Y189945D01*
X12749Y195943D02*
X13749Y193944D01*
X15748Y191945D01*
X17747D01*
X18747Y192944D01*
Y194944D01*
X17747Y195943D01*
X16748D01*
X15748Y194944D01*
Y191945D01*
X362251Y272561D02*
X356253D01*
Y275560D01*
X357253Y276559D01*
X359252D01*
X360252Y275560D01*
Y272561D01*
Y274560D02*
X362251Y276559D01*
X356253Y282558D02*
Y278559D01*
X359252D01*
X358252Y280558D01*
Y281558D01*
X359252Y282558D01*
X361251D01*
X362251Y281558D01*
Y279558D01*
X361251Y278559D01*
X18747Y201694D02*
X12749D01*
Y204694D01*
X13749Y205693D01*
X15748D01*
X16748Y204694D01*
Y201694D01*
Y203694D02*
X18747Y205693D01*
Y210692D02*
X12749D01*
X15748Y207693D01*
Y211691D01*
X351737Y286537D02*
X345739D01*
Y289536D01*
X346738Y290536D01*
X348738D01*
X349737Y289536D01*
Y286537D01*
Y288536D02*
X351737Y290536D01*
X346738Y292535D02*
X345739Y293535D01*
Y295534D01*
X346738Y296534D01*
X347738D01*
X348738Y295534D01*
Y294534D01*
Y295534D01*
X349737Y296534D01*
X350737D01*
X351737Y295534D01*
Y293535D01*
X350737Y292535D01*
X22684Y374923D02*
X16686D01*
Y377922D01*
X17686Y378922D01*
X19685D01*
X20685Y377922D01*
Y374923D01*
Y376922D02*
X22684Y378922D01*
Y384920D02*
Y380921D01*
X18685Y384920D01*
X17686D01*
X16686Y383920D01*
Y381921D01*
X17686Y380921D01*
X415277Y491095D02*
Y497093D01*
X418276D01*
X419276Y496094D01*
Y494095D01*
X418276Y493095D01*
X415277D01*
X421275Y496094D02*
X422275Y497093D01*
X424274D01*
X425274Y496094D01*
Y495094D01*
X424274Y494095D01*
X423275D01*
X424274D01*
X425274Y493095D01*
Y492095D01*
X424274Y491095D01*
X422275D01*
X421275Y492095D01*
X783100Y85700D02*
Y91698D01*
X786099D01*
X787099Y90698D01*
Y88699D01*
X786099Y87699D01*
X783100D01*
X793097Y85700D02*
X789098D01*
X793097Y89699D01*
Y90698D01*
X792097Y91698D01*
X790098D01*
X789098Y90698D01*
X664585Y95881D02*
Y101879D01*
X667584D01*
X668584Y100880D01*
Y98880D01*
X667584Y97880D01*
X664585D01*
X670583Y95881D02*
X672582D01*
X671583D01*
Y101879D01*
X670583Y100880D01*
X475505Y540339D02*
Y538340D01*
Y539339D01*
X480503D01*
X481503Y538340D01*
Y537340D01*
X480503Y536340D01*
X481503Y545337D02*
X475505D01*
X478504Y542338D01*
Y546337D01*
X355269Y443882D02*
Y441883D01*
Y442882D01*
X360267D01*
X361267Y441883D01*
Y440883D01*
X360267Y439884D01*
X356268Y445882D02*
X355269Y446881D01*
Y448881D01*
X356268Y449880D01*
X357268D01*
X358268Y448881D01*
Y447881D01*
Y448881D01*
X359267Y449880D01*
X360267D01*
X361267Y448881D01*
Y446881D01*
X360267Y445882D01*
X379875Y73742D02*
X385873D01*
Y76741D01*
X384873Y77741D01*
X380875D01*
X379875Y76741D01*
Y73742D01*
Y79740D02*
Y83738D01*
X380875D01*
X384873Y79740D01*
X385873D01*
X463536Y94411D02*
X469534D01*
Y97410D01*
X468535Y98410D01*
X464536D01*
X463536Y97410D01*
Y94411D01*
Y104408D02*
X464536Y102409D01*
X466535Y100409D01*
X468535D01*
X469534Y101409D01*
Y103408D01*
X468535Y104408D01*
X467535D01*
X466535Y103408D01*
Y100409D01*
X18747Y157357D02*
X12749D01*
Y160356D01*
X13749Y161356D01*
X15748D01*
X16748Y160356D01*
Y157357D01*
Y159356D02*
X18747Y161356D01*
Y166354D02*
X12749D01*
X15748Y163355D01*
Y167354D01*
X18747Y173352D02*
Y169353D01*
X14748Y173352D01*
X13749D01*
X12749Y172352D01*
Y170353D01*
X13749Y169353D01*
X348317Y255367D02*
Y261365D01*
X351316D01*
X352316Y260366D01*
Y258366D01*
X351316Y257366D01*
X348317D01*
X350317D02*
X352316Y255367D01*
X357314D02*
Y261365D01*
X354315Y258366D01*
X358314D01*
X360313Y255367D02*
X362313D01*
X361313D01*
Y261365D01*
X360313Y260366D01*
X466743Y285345D02*
X460745D01*
Y288344D01*
X461745Y289344D01*
X463744D01*
X464744Y288344D01*
Y285345D01*
Y287345D02*
X466743Y289344D01*
X461745Y291343D02*
X460745Y292343D01*
Y294342D01*
X461745Y295342D01*
X462744D01*
X463744Y294342D01*
Y293343D01*
Y294342D01*
X464744Y295342D01*
X465743D01*
X466743Y294342D01*
Y292343D01*
X465743Y291343D01*
Y297341D02*
X466743Y298341D01*
Y300340D01*
X465743Y301340D01*
X461745D01*
X460745Y300340D01*
Y298341D01*
X461745Y297341D01*
X462744D01*
X463744Y298341D01*
Y301340D01*
X704678Y38370D02*
Y36371D01*
Y37371D01*
X709677D01*
X710676Y36371D01*
Y35371D01*
X709677Y34372D01*
X710676Y44368D02*
Y40370D01*
X706677Y44368D01*
X705678D01*
X704678Y43369D01*
Y41369D01*
X705678Y40370D01*
X414499Y60298D02*
X412499D01*
X413499D01*
Y55300D01*
X412499Y54300D01*
X411500D01*
X410500Y55300D01*
X416498Y54300D02*
X418497D01*
X417498D01*
Y60298D01*
X416498Y59298D01*
X26528Y66275D02*
X32527D01*
Y69274D01*
X31527Y70274D01*
X30527D01*
X29528Y69274D01*
Y66275D01*
Y69274D01*
X28528Y70274D01*
X27528D01*
X26528Y69274D01*
Y66275D01*
Y72273D02*
Y76272D01*
Y74273D01*
X32527D01*
Y78271D02*
Y80270D01*
Y79271D01*
X26528D01*
X27528Y78271D01*
X32527Y87268D02*
Y83270D01*
X28528Y87268D01*
X27528D01*
X26528Y86269D01*
Y84269D01*
X27528Y83270D01*
X26528Y102708D02*
X32527D01*
Y105707D01*
X31527Y106707D01*
X30527D01*
X29528Y105707D01*
Y102708D01*
Y105707D01*
X28528Y106707D01*
X27528D01*
X26528Y105707D01*
Y102708D01*
Y108706D02*
Y112705D01*
Y110705D01*
X32527D01*
Y114704D02*
Y116703D01*
Y115704D01*
X26528D01*
X27528Y114704D01*
X32527Y119702D02*
Y121702D01*
Y120702D01*
X26528D01*
X27528Y119702D01*
X26528Y247377D02*
X32527D01*
Y250377D01*
X31527Y251376D01*
X30527D01*
X29528Y250377D01*
Y247377D01*
Y250377D01*
X28528Y251376D01*
X27528D01*
X26528Y250377D01*
Y247377D01*
Y253376D02*
Y257374D01*
Y255375D01*
X32527D01*
Y259373D02*
Y261373D01*
Y260373D01*
X26528D01*
X27528Y259373D01*
Y264372D02*
X26528Y265372D01*
Y267371D01*
X27528Y268371D01*
X31527D01*
X32527Y267371D01*
Y265372D01*
X31527Y264372D01*
X27528D01*
X26528Y281373D02*
X32527D01*
Y284372D01*
X31527Y285371D01*
X30527D01*
X29528Y284372D01*
Y281373D01*
Y284372D01*
X28528Y285371D01*
X27528D01*
X26528Y284372D01*
Y281373D01*
Y287371D02*
Y291369D01*
Y289370D01*
X32527D01*
X31527Y293369D02*
X32527Y294369D01*
Y296368D01*
X31527Y297368D01*
X27528D01*
X26528Y296368D01*
Y294369D01*
X27528Y293369D01*
X28528D01*
X29528Y294369D01*
Y297368D01*
X372908Y424259D02*
Y418261D01*
X375907D01*
X376907Y419261D01*
Y420260D01*
X375907Y421260D01*
X372908D01*
X375907D01*
X376907Y422260D01*
Y423259D01*
X375907Y424259D01*
X372908D01*
X378906D02*
X382905D01*
X380906D01*
Y418261D01*
X388903Y424259D02*
X386904Y423259D01*
X384904Y421260D01*
Y419261D01*
X385904Y418261D01*
X387903D01*
X388903Y419261D01*
Y420260D01*
X387903Y421260D01*
X384904D01*
X474363Y162278D02*
X480361D01*
Y165277D01*
X479361Y166277D01*
X478362D01*
X477362Y165277D01*
Y162278D01*
Y165277D01*
X476363Y166277D01*
X475363D01*
X474363Y165277D01*
Y162278D01*
Y168276D02*
Y172275D01*
Y170276D01*
X480361D01*
X474363Y178273D02*
Y174274D01*
X477362D01*
X476363Y176274D01*
Y177273D01*
X477362Y178273D01*
X479361D01*
X480361Y177273D01*
Y175274D01*
X479361Y174274D01*
X473379Y194758D02*
X479377D01*
Y197757D01*
X478377Y198757D01*
X477378D01*
X476378Y197757D01*
Y194758D01*
Y197757D01*
X475378Y198757D01*
X474379D01*
X473379Y197757D01*
Y194758D01*
Y200757D02*
Y204755D01*
Y202756D01*
X479377D01*
Y209754D02*
X473379D01*
X476378Y206755D01*
Y210753D01*
X474363Y343380D02*
X480361D01*
Y346380D01*
X479361Y347379D01*
X478362D01*
X477362Y346380D01*
Y343380D01*
Y346380D01*
X476363Y347379D01*
X475363D01*
X474363Y346380D01*
Y343380D01*
Y349379D02*
Y353377D01*
Y351378D01*
X480361D01*
X475363Y355377D02*
X474363Y356376D01*
Y358376D01*
X475363Y359375D01*
X476363D01*
X477362Y358376D01*
Y357376D01*
Y358376D01*
X478362Y359375D01*
X479361D01*
X480361Y358376D01*
Y356376D01*
X479361Y355377D01*
X473529Y434227D02*
X479528D01*
Y437226D01*
X478528Y438226D01*
X477528D01*
X476529Y437226D01*
Y434227D01*
Y437226D01*
X475529Y438226D01*
X474529D01*
X473529Y437226D01*
Y434227D01*
Y440225D02*
Y444224D01*
Y442224D01*
X479528D01*
Y450222D02*
Y446223D01*
X475529Y450222D01*
X474529D01*
X473529Y449222D01*
Y447223D01*
X474529Y446223D01*
X792277Y467412D02*
X798275D01*
Y470411D01*
X797275Y471410D01*
X796275D01*
X795276Y470411D01*
Y467412D01*
Y470411D01*
X794276Y471410D01*
X793276D01*
X792277Y470411D01*
Y467412D01*
Y473410D02*
Y477409D01*
Y475409D01*
X798275D01*
Y479408D02*
Y481407D01*
Y480407D01*
X792277D01*
X793276Y479408D01*
D14*
X712402Y-0D02*
Y47244D01*
Y-0D02*
X760236D01*
Y47244D01*
X712402D02*
X760236D01*
X362992Y452559D02*
X371063D01*
X380906Y443898D02*
Y452559D01*
X362992Y429134D02*
X371063D01*
X375984D02*
X380906D01*
Y437992D01*
X375984Y452559D02*
X380906D01*
X362992Y429134D02*
Y452559D01*
X382856Y532128D02*
X383856D01*
X382856Y526928D02*
X383856D01*
X367108D02*
X368108D01*
X367108Y532128D02*
X368108D01*
X351360D02*
X352360D01*
X351360Y526928D02*
X352360D01*
X398604Y532128D02*
X399604D01*
X398604Y526928D02*
X399604D01*
X358949Y288216D02*
X359949D01*
X358949Y293416D02*
X359949D01*
X352600Y277059D02*
Y278059D01*
X347400Y277059D02*
Y278059D01*
X354815Y262951D02*
X355815D01*
X354815Y268151D02*
X355815D01*
X364805Y109736D02*
Y110736D01*
X359605Y109736D02*
Y110736D01*
X393976Y87815D02*
Y90236D01*
X420984Y87815D02*
Y90236D01*
X393976D02*
X420984D01*
Y67244D02*
Y69665D01*
X393976Y67244D02*
Y69665D01*
Y67244D02*
X420984D01*
X435335Y74035D02*
Y77035D01*
X460335Y74035D02*
Y77035D01*
X435335Y74035D02*
X460335D01*
X469841Y292807D02*
Y293807D01*
X475041Y292807D02*
Y293807D01*
X453661Y546339D02*
X473740D01*
Y536299D02*
Y546339D01*
X453661Y536299D02*
X473740D01*
X453661D02*
Y546339D01*
X24959Y379421D02*
Y380421D01*
X30159Y379421D02*
Y380421D01*
Y343299D02*
Y344299D01*
X24959Y343299D02*
Y344299D01*
X26075Y202124D02*
X27075D01*
X26075Y207324D02*
X27075D01*
X25654Y164854D02*
Y165854D01*
X30854Y164854D02*
Y165854D01*
X26075Y197482D02*
X27075D01*
X26075Y192282D02*
X27075D01*
X373622Y41142D02*
X390158D01*
X373622Y53347D02*
X390158D01*
X409941Y50886D02*
X430020D01*
X593602D02*
X613681D01*
X409941Y98D02*
X613681D01*
Y50886D01*
X409941Y98D02*
Y50886D01*
X782480Y82284D02*
X792323D01*
X782480Y12323D02*
X792323D01*
Y82284D01*
X782480Y12323D02*
Y82284D01*
X795760Y527912D02*
X796760D01*
X795760Y533112D02*
X796760D01*
D15*
X365639Y536417D02*
X369576D01*
X366427Y540354D02*
X368789D01*
X381387Y536417D02*
X385324D01*
X382175Y540354D02*
X384537D01*
X349891Y536417D02*
X353828D01*
X350679Y540354D02*
X353041D01*
X397135Y536417D02*
X401072D01*
X397923Y540354D02*
X400285D01*
D16*
X375640Y545276D02*
D03*
M02*
