%FSTAX23Y23*%
%MOIN*%
%SFA1B1*%

%IPPOS*%
%ADD28R,0.342650X0.297370*%
%ADD29R,0.297370X0.342650*%
%ADD30R,0.070990X0.063120*%
%ADD31R,0.043430X0.047370*%
%ADD32R,0.045400X0.059180*%
%ADD33R,0.059180X0.045400*%
%ADD34R,0.118000X0.158000*%
%ADD35R,0.263910X0.263910*%
%ADD36R,0.070990X0.126110*%
%ADD37R,0.145800X0.047370*%
%ADD38R,0.051310X0.137920*%
%ADD39C,0.165480*%
%ADD40C,0.114300*%
%ADD41R,0.112330X0.112330*%
%ADD42C,0.112330*%
%ADD43R,0.058000X0.058000*%
%ADD44C,0.058000*%
%ADD45C,0.068000*%
%ADD46R,0.068000X0.068000*%
%ADD47C,0.063120*%
%ADD48R,0.078870X0.070990*%
%ADD49C,0.008000*%
%ADD50O,0.108000X0.138000*%
%ADD51C,0.070990*%
%ADD52R,0.070990X0.070990*%
%ADD53C,0.067060*%
%ADD54C,0.039370*%
%LNpcb1-1*%
%LPD*%
G36*
X0685Y00326D02*
X06851Y00326D01*
X06851Y00326*
X06852Y00325*
X06852Y00325*
X06853Y00325*
X06853Y00324*
X06853Y00324*
X06854Y00323*
X06854Y00323*
X06854Y00322*
X06854Y00322*
Y00192*
X06854Y00191*
X06854Y00191*
X06854Y0019*
X06853Y0019*
X06853Y00189*
X06853Y00189*
X06852Y00189*
X06852Y00188*
X06851Y00188*
X06851Y00188*
X0685Y00188*
X0685Y00188*
X06716*
X06715Y00188*
X06715Y00188*
X06714Y00188*
X06714Y00188*
X06713Y00189*
X06713Y00189*
X06713Y00189*
X06712Y0019*
X06712Y0019*
X06712Y00191*
X06712Y00191*
X06712Y00192*
Y00193*
Y00322*
X06712Y00322*
X06712Y00323*
X06712Y00323*
X06712Y00324*
X06713Y00324*
X06713Y00325*
X06713Y00325*
X06714Y00325*
X06714Y00326*
X06715Y00326*
X06715Y00326*
X06716Y00326*
X0685*
X0685Y00326*
G37*
G36*
Y00856D02*
X06851Y00856D01*
X06851Y00856*
X06852Y00855*
X06852Y00855*
X06853Y00855*
X06853Y00854*
X06853Y00854*
X06854Y00853*
X06854Y00853*
X06854Y00852*
X06854Y00852*
Y00722*
X06854Y00721*
X06854Y00721*
X06854Y0072*
X06853Y0072*
X06853Y00719*
X06853Y00719*
X06852Y00719*
X06852Y00718*
X06851Y00718*
X06851Y00718*
X0685Y00718*
X0685Y00718*
X06716*
X06715Y00718*
X06715Y00718*
X06714Y00718*
X06714Y00718*
X06713Y00719*
X06713Y00719*
X06713Y00719*
X06712Y0072*
X06712Y0072*
X06712Y00721*
X06712Y00721*
X06712Y00722*
Y00723*
Y00852*
X06712Y00852*
X06712Y00853*
X06712Y00853*
X06712Y00854*
X06713Y00854*
X06713Y00855*
X06713Y00855*
X06714Y00855*
X06714Y00856*
X06715Y00856*
X06715Y00856*
X06716Y00856*
X0685*
X0685Y00856*
G37*
G54D28*
X03444Y05D03*
X00334D03*
Y04094D03*
X03444D03*
X00334Y00472D03*
X03444D03*
X04806Y05039D03*
X07916D03*
X04807Y02322D03*
X07917D03*
X00334Y01397D03*
X03444D03*
Y02283D03*
X00334D03*
X07916Y01417D03*
X04806D03*
X04803Y03228D03*
X07913D03*
X07916Y04133D03*
X04806D03*
X03444Y03188D03*
X00334D03*
G54D29*
X04133Y04206D03*
Y01096D03*
G54D30*
X0372Y05187D03*
X04035D03*
X0372Y05009D03*
X04035D03*
G54D31*
X03723Y05374D03*
X03628D03*
X0388D03*
X03786D03*
X03565D03*
X03471D03*
X04038D03*
X03943D03*
G54D32*
X03797Y05295D03*
X03869D03*
X03712D03*
X03639D03*
X03482D03*
X03555D03*
X03954D03*
X04027D03*
X0363Y02908D03*
X03558D03*
X03589Y02655D03*
X03516D03*
X00302Y02047D03*
X00229D03*
Y01948D03*
X00302D03*
X07999Y05305D03*
X07926D03*
G54D33*
X035Y02812D03*
Y02739D03*
X03622Y01138D03*
Y01065D03*
X04724Y02896D03*
Y02969D03*
X00275Y03762D03*
Y03835D03*
Y03474D03*
Y03401D03*
X00282Y01617D03*
Y01689D03*
G54D34*
X04215Y00787D03*
X03934D03*
G54D35*
X04478Y00915D03*
G54D36*
X04568Y00653D03*
X04387D03*
G54D37*
X04409Y05046D03*
Y05146D03*
Y05246D03*
Y05346D03*
Y05446D03*
X04192Y05046D03*
Y05146D03*
Y05246D03*
Y05346D03*
Y05446D03*
G54D38*
X03938Y00472D03*
X03698D03*
G54D39*
X00803Y04685D03*
X02976Y05314D03*
Y04409D03*
X00803Y03779D03*
X02976Y00787D03*
X00803Y00157D03*
X07448Y05354D03*
X05274Y04724D03*
X04448Y01564D03*
X03818Y03738D03*
X07448Y02637D03*
X05275Y02007D03*
X02976Y01712D03*
X00803Y01082D03*
Y01968D03*
X02976Y02598D03*
X05274Y01102D03*
X07448Y01732D03*
X07444Y03543D03*
X05271Y02913D03*
X05274Y03818D03*
X07448Y04448D03*
X00803Y02874D03*
X02976Y03503D03*
G54D40*
X033Y04706D03*
X00479Y04387D03*
Y00765D03*
X04951Y05332D03*
X04427Y04061D03*
X07772Y02029D03*
X033Y01104D03*
X00479Y02576D03*
X04951Y0171D03*
X04948Y03521D03*
X07771Y0384D03*
X033Y02895D03*
G54D41*
X07262Y00393D03*
G54D42*
X07462Y00393D03*
G54D43*
X0374Y0437D03*
G54D44*
X0374Y04448D03*
G54D45*
X04686Y05413D03*
G54D46*
X04586Y05413D03*
G54D47*
X04399Y00375D03*
Y00296D03*
Y00217D03*
Y00138D03*
Y0006D03*
X04478Y00375D03*
Y00296D03*
Y00217D03*
Y00138D03*
Y0006D03*
X04557Y00375D03*
Y00296D03*
Y00217D03*
Y00138D03*
Y0006D03*
X04635Y00375D03*
Y00296D03*
Y00217D03*
Y00138D03*
Y0006D03*
X04714Y00375D03*
Y00296D03*
Y00217D03*
Y00138D03*
Y0006D03*
G54D48*
X05644Y0006D03*
X05752D03*
X05644Y00119D03*
X05752D03*
X05644Y00178D03*
X05752D03*
X05644Y00237D03*
X05752D03*
X05644Y00296D03*
X05752D03*
X05319Y0006D03*
X05428D03*
X05319Y00119D03*
X05428D03*
X05319Y00178D03*
X05428D03*
X05319Y00237D03*
X05428D03*
X05319Y00296D03*
X05428D03*
X04995Y0006D03*
X05103D03*
X04995Y00119D03*
X05103D03*
X04995Y00178D03*
X05103D03*
X04995Y00237D03*
X05103D03*
X04995Y00296D03*
X04886Y0006D03*
Y00119D03*
Y00178D03*
Y00237D03*
Y00296D03*
X05644Y00355D03*
X05752D03*
X05319D03*
X05428D03*
X04995D03*
X05103D03*
X04886D03*
X05211Y0006D03*
X05536D03*
X05861D03*
X05211Y00119D03*
X05536D03*
X05861D03*
X05211Y00178D03*
X05536D03*
X05861D03*
X05211Y00237D03*
X05536D03*
X05861D03*
X05211Y00296D03*
X05536D03*
X05861D03*
X05211Y00355D03*
X05536D03*
X05861D03*
X05103Y00296D03*
G54D49*
X042Y00432D03*
X06035D03*
G54D50*
X06716Y00787D03*
X0685D03*
X06716Y00257D03*
X0685D03*
G54D51*
X07874Y00772D03*
Y00572D03*
Y00672D03*
Y00472D03*
Y00272D03*
Y00372D03*
G54D52*
X07874Y00172D03*
G54D53*
X03218Y00551D03*
Y00472D03*
G54D54*
X04557Y05304D03*
X03051Y05184D03*
X03503Y05216D03*
X03346D03*
X03425D03*
X03129Y05184D03*
X03208D03*
X03129Y0498D03*
X03208Y05059D03*
X03051Y05059D03*
X03175Y04895D03*
X03051Y0498D03*
X03129Y05059D03*
X03208Y04803D03*
X03159Y04744D03*
X03051D03*
Y04891D03*
X03116Y04836D03*
X03228Y04251D03*
X03917Y04527D03*
X00216Y01791D03*
X00295D03*
X00826Y025D03*
X00748Y02421D03*
X0059Y02263D03*
X00905Y02578D03*
X00669Y02342D03*
X0059Y02185D03*
X00905Y025D03*
X00984Y02578D03*
X00826Y02421D03*
X00748Y02342D03*
X00826Y02578D03*
X0059Y02342D03*
X00748Y025D03*
X00669Y02421D03*
X04547Y05236D03*
X04625Y05314D03*
X05217Y01417D03*
X05078Y01437D03*
X05216Y01496D03*
X04409Y01259D03*
X04271Y01397D03*
X04488Y01181D03*
X04566Y01102D03*
X04409Y01181D03*
X04488Y01102D03*
X0433Y01259D03*
X04488D03*
X04566Y01181D03*
X04645Y01102D03*
X04724Y01181D03*
X04566Y01259D03*
X04645Y01181D03*
X04803D03*
X03484Y04798D03*
X03562D03*
X0311Y02106D03*
X0498Y05236D03*
X04251Y00138D03*
X04133D03*
X04488Y02957D03*
X04567Y02957D03*
X04409Y03031D03*
X0311Y01929D03*
X03208Y02155D03*
X0311Y02007D03*
X0494Y04763D03*
X04862D03*
X04783D03*
X04704D03*
X04625D03*
X04468D03*
X04338Y01109D03*
X07578Y01043D03*
X07657D03*
X07736D03*
X07657Y01122D03*
X07893Y01043D03*
X07814Y01122D03*
X07736Y012D03*
X07893Y01122D03*
X07814Y012D03*
X07893D03*
X07736Y01614D03*
Y01692D03*
X07814Y01614D03*
X07519Y02125D03*
X07736Y0185D03*
X07362Y02204D03*
X07893Y01614D03*
X07814Y01771D03*
X07893Y01692D03*
X0744Y02125D03*
X07362Y02283D03*
X07598Y02047D03*
X07519D03*
X0744Y02204D03*
X07814Y01692D03*
X07736Y01771D03*
X07362Y02125D03*
X0744Y02047D03*
X07736Y01122D03*
X07814Y01043D03*
X07736Y01929D03*
X07814Y0185D03*
X07893Y01771D03*
X07972Y01692D03*
Y01614D03*
X08051D03*
Y01122D03*
Y012D03*
Y01043D03*
X0687Y03031D03*
Y02952D03*
X06948D03*
Y03031D03*
X07185D03*
X07106D03*
X07027D03*
Y02952D03*
X07106D03*
X07185D03*
Y02874D03*
X07106D03*
X07027D03*
Y02795D03*
X07106D03*
X07185D03*
Y02716D03*
X07106D03*
X07027D03*
X06535Y02874D03*
X06456D03*
X06377D03*
X06299D03*
X0622D03*
X06535Y02795D03*
Y02716D03*
X06456D03*
Y02795D03*
X06377D03*
Y02716D03*
X06299D03*
Y02795D03*
X0622D03*
Y02716D03*
X06141Y02795D03*
Y02716D03*
X00157Y03799D03*
Y03877D03*
Y0372D03*
X00078Y04271D03*
Y04192D03*
Y04114D03*
Y04035D03*
Y03956D03*
Y03877D03*
Y03799D03*
Y0372D03*
X00964Y04271D03*
X00885D03*
X00807D03*
X00728D03*
X00885Y04192D03*
X00807D03*
X00728D03*
X00649D03*
X00807Y04114D03*
X00728D03*
X00649D03*
X0057D03*
X00728Y04035D03*
X00649D03*
X0057D03*
X00649Y03956D03*
X0057D03*
X00492Y03799D03*
X00413Y0372D03*
Y03799D03*
X0057Y03877D03*
X00492D03*
X00413D03*
X00649Y05118D03*
X00728D03*
X00807D03*
Y05196D03*
X00728D03*
X00649D03*
X00807Y05275D03*
X00728D03*
X00649D03*
X00334D03*
X0057D03*
X00492D03*
X00413D03*
Y05354D03*
X00492D03*
X0057D03*
X00649D03*
X00728D03*
X00807D03*
Y05433D03*
X00728D03*
X00649D03*
X0057D03*
X00492D03*
X00413D03*
X00334Y05354D03*
Y05433D03*
X00255D03*
Y05354D03*
Y05275D03*
X00177Y05196D03*
Y05275D03*
Y05354D03*
Y05433D03*
X00078Y05039D03*
Y05118D03*
Y05196D03*
Y05275D03*
Y05354D03*
Y05433D03*
X00826Y0309D03*
X00748D03*
X00669D03*
Y03169D03*
X00748D03*
X00826D03*
Y03248D03*
X00748D03*
X00669D03*
Y03326D03*
X00748D03*
X00826D03*
Y03405D03*
Y03484D03*
Y03562D03*
X00748D03*
Y03484D03*
Y03405D03*
X00669D03*
Y03484D03*
Y03562D03*
X0059D03*
Y03484D03*
Y03405D03*
X00511D03*
Y03484D03*
Y03562D03*
X00433Y03484D03*
Y03405D03*
X00748Y02578D03*
X00669Y025D03*
X0059Y02421D03*
X00137Y02559D03*
Y02637D03*
Y02716D03*
Y02795D03*
Y02874D03*
Y02952D03*
X00885Y01692D03*
X00807D03*
X00728D03*
X00649Y01614D03*
Y01692D03*
X0057D03*
Y01614D03*
X00492D03*
Y01692D03*
X00413D03*
Y01614D03*
X00728Y01614D03*
X00807D03*
X00885D03*
Y01535D03*
X00807D03*
X00728D03*
Y01457D03*
X00807D03*
X00885D03*
Y01378D03*
X00807D03*
X00728D03*
Y01299D03*
X00807D03*
X00885D03*
Y0122D03*
X00807D03*
X00728D03*
X00885Y00649D03*
X00807D03*
X00728D03*
Y0057D03*
X00807D03*
X00885D03*
Y00492D03*
X00807D03*
X00728D03*
Y00413D03*
X00807D03*
X00885D03*
Y00334D03*
X00807D03*
X00728D03*
X00649Y00236D03*
Y00157D03*
Y00078D03*
X0057D03*
Y00157D03*
Y00236D03*
X00492Y00078D03*
X00413D03*
Y00157D03*
X00492D03*
Y00236D03*
X00413D03*
X00334Y00078D03*
X00255D03*
X00177D03*
Y00157D03*
X00255D03*
X00334D03*
Y00236D03*
X00255D03*
X00177D03*
X00059Y01555D03*
Y01633D03*
Y01712D03*
X00137Y01791D03*
X00059D03*
X03779Y00984D03*
X03681D03*
X03897Y01043D03*
X03818D03*
X0374D03*
X03818Y01122D03*
X03897D03*
Y012D03*
X03759Y0061D03*
X03681D03*
Y00354D03*
X02982Y00944D03*
X03061D03*
X03139D03*
X03218D03*
X03139Y00866D03*
X03218Y00787D03*
Y00708D03*
Y00629D03*
Y00866D03*
X03139Y00787D03*
X03218Y00324D03*
Y00393D03*
X03139Y00708D03*
Y00629D03*
X03061D03*
X02982D03*
Y00551D03*
X03061Y00472D03*
Y00551D03*
X03139D03*
Y00472D03*
Y00393D03*
X02982Y00324D03*
X0433Y01181D03*
X04409Y01102D03*
X04476Y00692D03*
X04566Y00539D03*
X04384Y00539D03*
X04291Y0059D03*
Y00669D03*
X04476Y0061D03*
X04251Y00216D03*
X04192Y00177D03*
Y00255D03*
X04133Y00216D03*
Y00295D03*
X04015Y00354D03*
X03937D03*
X03858D03*
X07972Y012D03*
Y01122D03*
Y01043D03*
X04488Y04271D03*
X04409D03*
Y04192D03*
X0433D03*
Y04114D03*
X04187Y04425D03*
X04232Y04566D03*
Y04488D03*
X04153Y04566D03*
Y04488D03*
X04114Y04429D03*
X04035D03*
X04074Y04566D03*
Y04488D03*
X03996D03*
Y04566D03*
X03917Y04448D03*
Y0437D03*
Y04291D03*
X03681Y04173D03*
X03917Y04212D03*
Y04033D03*
Y04117D03*
X05059Y01574D03*
X05137D03*
X05216D03*
X05137Y01496D03*
X05019D03*
X04586Y01555D03*
Y01476D03*
Y01397D03*
X04507D03*
X04429D03*
X0435D03*
Y01476D03*
X04271Y01653D03*
X04192D03*
Y01555D03*
X04271D03*
Y01476D03*
X04192D03*
Y01397D03*
X04271Y01318D03*
X05137Y02027D03*
X05059D03*
X05216Y02125D03*
X05137D03*
X05059D03*
Y02204D03*
X05137D03*
X05216D03*
Y02283D03*
X05137D03*
X05059D03*
Y02362D03*
X05137D03*
X05216D03*
Y0244D03*
X05137D03*
X05059D03*
X05216Y02598D03*
Y02519D03*
X05137D03*
Y02598D03*
X05059D03*
Y02519D03*
X0498D03*
Y02598D03*
X04901D03*
Y02519D03*
X04822Y02598D03*
Y02519D03*
X04744Y02598D03*
Y02519D03*
X04665Y02598D03*
Y02519D03*
X03799Y04763D03*
X0372D03*
X03641D03*
X03287Y05255D03*
X03129D03*
X03208D03*
X03838Y01437D03*
Y01358D03*
X03759Y01279D03*
Y01358D03*
Y01437D03*
X03838Y01515D03*
X03759D03*
X03681D03*
Y01437D03*
Y01358D03*
Y01279D03*
Y012D03*
X03523Y01181D03*
X03444D03*
X03208Y01062D03*
Y0122D03*
Y01141D03*
X03129D03*
Y0122D03*
Y01299D03*
X03208Y01437D03*
Y01515D03*
X03129D03*
X03346Y01929D03*
X03267D03*
X03188D03*
X03346Y02007D03*
X03267D03*
X03188D03*
X03661D03*
X0374D03*
X03818D03*
X03661Y02145D03*
X03208Y02283D03*
Y02362D03*
X03129D03*
X03759Y03622D03*
X03818Y03582D03*
Y03503D03*
X03759Y03543D03*
Y03464D03*
Y03385D03*
X03681D03*
Y03307D03*
X0374Y03149D03*
X03681D03*
X03759Y03011D03*
X03681D03*
X03385Y02992D03*
X03307D03*
X03228D03*
X03149D03*
Y02913D03*
X0307D03*
Y02992D03*
Y0307D03*
X03149D03*
X03228D03*
X0307Y0315D03*
X03149Y03149D03*
X03228D03*
X0307Y03228D03*
X03149Y03228D03*
X03228D03*
X0307Y03307D03*
X03149D03*
X03228D03*
X03681Y03937D03*
Y04015D03*
Y04094D03*
X03228Y03937D03*
X03149D03*
X0307D03*
Y04015D03*
X03149D03*
X03228D03*
X03503Y04311D03*
X03425D03*
X03346D03*
X03267D03*
X03149Y04173D03*
X03228D03*
Y04094D03*
X03149D03*
X0307D03*
X05295Y05236D03*
Y05314D03*
X05216D03*
Y05236D03*
X05137D03*
Y05314D03*
X05059D03*
Y05236D03*
X04881D03*
X04783Y05314D03*
Y05236D03*
X04704Y05314D03*
Y05236D03*
X04625D03*
X04547Y05157D03*
Y05078D03*
Y05D03*
Y04921D03*
X04468D03*
X04389D03*
Y04763D03*
Y04842D03*
X04468D03*
X04547Y04763D03*
Y04842D03*
X05275Y04173D03*
Y04094D03*
Y04015D03*
X05196Y03346D03*
X05275D03*
Y03267D03*
X05196D03*
Y03188D03*
X05275D03*
Y03031D03*
Y0311D03*
X05196D03*
Y03031D03*
X05118D03*
Y0311D03*
Y03188D03*
Y03267D03*
Y03346D03*
X05039D03*
Y03267D03*
Y03188D03*
Y0311D03*
X05118Y02874D03*
Y02952D03*
X05039Y02874D03*
Y02952D03*
Y03031D03*
X0496D03*
Y02952D03*
Y02874D03*
X04803D03*
X04881D03*
Y02952D03*
Y03031D03*
X04803D03*
X04645D03*
X04488D03*
X04566D03*
Y0311D03*
X04488D03*
X04409D03*
Y03188D03*
X04488D03*
X04566D03*
Y03267D03*
X04488D03*
X04409D03*
Y03346D03*
X04488D03*
X04566D03*
X04507Y04114D03*
Y04015D03*
X04586D03*
Y04114D03*
X05196Y04015D03*
X05118D03*
X05039D03*
Y04094D03*
X05118D03*
X05196D03*
Y04173D03*
X05118D03*
X05039D03*
X05196Y04251D03*
X05118D03*
X05039D03*
X04571Y04207D03*
X07677Y03051D03*
Y03129D03*
Y03208D03*
Y03287D03*
X07519Y03444D03*
X0744Y02362D03*
Y0244D03*
X07519Y02283D03*
X0744D03*
X07598Y02125D03*
Y02204D03*
X07519D03*
X07362Y02362D03*
X07519D03*
X07362Y0244D03*
X08149D03*
Y02362D03*
Y02283D03*
Y02204D03*
Y02125D03*
Y02047D03*
X0807D03*
Y02125D03*
X07992D03*
Y02047D03*
X07913D03*
Y02125D03*
X07834D03*
X07755D03*
X07677Y02047D03*
Y02125D03*
Y02204D03*
X07598Y02283D03*
X07677D03*
Y02362D03*
X07598D03*
X07519Y0244D03*
X07598D03*
X07677D03*
Y03366D03*
X07598D03*
X07519D03*
X0744D03*
X07362Y03444D03*
Y03366D03*
X07598Y03444D03*
X07596Y03522D03*
X07598Y03602D03*
Y03681D03*
X07519D03*
X0744D03*
X07362D03*
X07677D03*
Y03602D03*
Y03523D03*
Y03444D03*
X07755D03*
Y03523D03*
Y03602D03*
Y03681D03*
X08149Y03051D03*
Y03129D03*
Y03208D03*
Y03287D03*
Y03366D03*
X07834Y03444D03*
X07913D03*
X07992D03*
X0807D03*
X08149D03*
Y03523D03*
X0807D03*
X07992D03*
X07913D03*
X07834D03*
Y03602D03*
X07913D03*
X07992D03*
X0807D03*
X08149D03*
Y03681D03*
X0807D03*
X07992D03*
X07913D03*
X07834D03*
X07362Y04842D03*
Y04763D03*
X0744D03*
X07519D03*
X07598D03*
X07677D03*
Y04842D03*
X07598D03*
X07519D03*
X0744D03*
Y04921D03*
X07519Y05D03*
Y04921D03*
X07598D03*
Y05D03*
Y05078D03*
X07362Y04251D03*
Y04173D03*
Y04094D03*
Y04015D03*
Y03937D03*
X0744D03*
Y04015D03*
Y04094D03*
Y04173D03*
Y04251D03*
X07519D03*
Y04173D03*
Y04094D03*
Y04015D03*
Y03937D03*
X07598D03*
Y04015D03*
Y04094D03*
Y04173D03*
Y04251D03*
X08169Y04921D03*
Y05D03*
Y05078D03*
Y05157D03*
Y05236D03*
Y05314D03*
X0809D03*
Y05236D03*
X08011D03*
X07933D03*
X07854D03*
X07775D03*
X07677Y05157D03*
Y05078D03*
Y05D03*
Y04921D03*
X08169Y04222D03*
Y04143D03*
Y04064D03*
Y03986D03*
Y03828D03*
Y03907D03*
X0809D03*
Y03828D03*
X07933D03*
X08011D03*
Y03907D03*
X07933D03*
X07854D03*
X07677Y04251D03*
Y04173D03*
Y04094D03*
Y04015D03*
Y03937D03*
X04625Y04842D03*
X04704D03*
X04783D03*
X04862D03*
X0494D03*
X05295Y05157D03*
Y05078D03*
Y05D03*
X05216D03*
Y05078D03*
Y05157D03*
X05137Y04921D03*
Y05D03*
Y05078D03*
Y05157D03*
X05059Y04921D03*
Y05D03*
Y05078D03*
Y05157D03*
X06456Y00952D03*
X06299Y00956D03*
X06141D03*
X05984Y0096D03*
X05511Y00976D03*
X05354D03*
X05196D03*
X05039D03*
X04881D03*
X04728D03*
X04035Y00718D03*
Y00787D03*
Y00856D03*
X05984Y00649D03*
X05826D03*
X05669D03*
X05511D03*
X05354D03*
X05196D03*
X05039D03*
X04881D03*
X04724D03*
M02*