%FSTAX23Y23*%
%MOIN*%
%SFA1B1*%

%IPPOS*%
%ADD10C,0.015000*%
%ADD13C,0.010000*%
%ADD17R,0.334650X0.289370*%
%ADD18R,0.289370X0.334650*%
%ADD19R,0.062990X0.055120*%
%ADD20R,0.035430X0.039370*%
%ADD21R,0.037400X0.051180*%
%ADD22R,0.051180X0.037400*%
%ADD23R,0.110000X0.150000*%
%ADD24R,0.255910X0.255910*%
%ADD25R,0.062990X0.118110*%
%ADD26R,0.137800X0.039370*%
%ADD27R,0.043310X0.129920*%
%ADD55C,0.019680*%
%ADD56C,0.039370*%
%ADD57C,0.275590*%
%ADD58C,0.029530*%
%ADD59C,0.157480*%
%ADD60C,0.106300*%
%ADD61R,0.104330X0.104330*%
%ADD62C,0.104330*%
%ADD63R,0.050000X0.050000*%
%ADD64C,0.050000*%
%ADD65C,0.060000*%
%ADD66R,0.060000X0.060000*%
%ADD67C,0.055120*%
%ADD68R,0.070870X0.062990*%
%ADD69O,0.100000X0.130000*%
%ADD70C,0.062990*%
%ADD71R,0.062990X0.062990*%
%ADD72C,0.031500*%
%ADD73C,0.059060*%
%LNpcb1-1*%
%LPD*%
G36*
X08247Y03779D02*
X07787D01*
X0779Y03779*
X07801Y03784*
X07811Y03791*
X0782Y038*
X07827Y0381*
X07832Y03822*
X07834Y03834*
Y03846*
X07832Y03858*
X07827Y0387*
X0782Y0388*
X07811Y03889*
X07801Y03896*
X0779Y03901*
X07777Y03903*
X07765*
X07753Y03901*
X07741Y03896*
X07731Y03889*
X07722Y0388*
X07715Y0387*
X07711Y03858*
X07708Y03846*
Y03834*
X07711Y03822*
X07715Y0381*
X07722Y038*
X07731Y03791*
X07741Y03784*
X07753Y03779*
X07755Y03779*
X07242*
X0724Y03784*
X07235Y0379*
X07204Y03821*
Y0388*
Y04517*
Y04844*
X07304*
X07312Y04845*
X07317Y04847*
X07319Y04848*
X07325Y04852*
X07748Y05275*
X07897*
Y05269*
X07954*
Y05296*
X07954Y05297*
X07955Y05305*
X07954Y05312*
X07954Y05313*
Y0534*
X07897*
Y05334*
X07735*
X07728Y05333*
X0772Y0533*
X07714Y05326*
X07292Y04903*
X07204*
Y05492*
X08247*
Y03779*
G37*
G36*
X05334Y05354D02*
Y04903D01*
X05212*
X05205Y04902*
X05197Y04899*
X05191Y04895*
X05017Y0472*
X03395*
X03387Y04719*
X0338Y04716*
X03374Y04712*
X03362Y047*
X03362Y047*
Y04712*
X0336Y04725*
X03355Y04736*
X03348Y04746*
X0334Y04755*
X03329Y04762*
X03318Y04767*
X03306Y04769*
X03293*
X03281Y04767*
X0327Y04762*
X03259Y04755*
X03251Y04746*
X03244Y04736*
X03239Y04725*
X03237Y04712*
Y047*
X03239Y04688*
X03244Y04676*
X03251Y04666*
X03259Y04657*
X03259Y04657*
X0297*
Y04661*
Y05226*
X02985*
X03002Y05229*
X03018Y05236*
X03032Y05246*
X03045Y05258*
X03054Y05273*
X03061Y05289*
X03064Y05306*
Y05323*
X03061Y0534*
X03055Y05354*
X03401*
X03399Y05347*
Y05341*
X03401Y05334*
X03404Y05328*
X03409Y05324*
X03415Y0532*
X03421Y05318*
X03428*
X03435Y0532*
X03439Y05323*
X03453Y05309*
Y05259*
X0351*
Y05327*
X03526Y05312*
Y05259*
X03575*
X03572Y05256*
X03568Y0525*
X03566Y05243*
Y05237*
X03568Y0523*
X03572Y05224*
X03576Y0522*
X03582Y05216*
X03589Y05215*
X03595*
X036Y05216*
X03596Y05212*
X03595Y05212*
X03589*
X03582Y0521*
X03576Y05207*
X03572Y05202*
X03568Y05196*
X03566Y0519*
Y05183*
X03568Y05177*
X03572Y05171*
X03576Y05166*
X03582Y05163*
X03589Y05161*
X03595*
X03602Y05163*
X03608Y05166*
X03613Y05171*
X03616Y05177*
X03618Y05183*
Y0519*
X03617Y05191*
X03632Y05205*
X03633Y05205*
X03631Y05202*
X03627Y05196*
X03625Y0519*
Y05183*
X03627Y05177*
X03631Y05171*
X03635Y05166*
X03641Y05163*
X03648Y05161*
X03654*
X03661Y05163*
X03667Y05166*
X03672Y05171*
X03675Y05177*
X03675Y05177*
X03679*
Y05149*
X03761*
Y05169*
X03809*
X03812Y05166*
X03817Y05163*
X03824Y05161*
X03831*
X03837Y05163*
X03843Y05166*
X03846Y05169*
X03964*
X04114Y05019*
Y05016*
X04271*
Y05019*
X0433*
Y05016*
X04488*
Y05075*
X04486*
Y05116*
X04488*
Y05175*
X04486*
Y05216*
X04488*
Y05254*
X04522Y05288*
X04526Y05293*
X04527Y05299*
Y0531*
X04557Y0534*
X04628*
X04633Y05341*
X04634Y05341*
X04639Y05344*
X04668Y05374*
X04679*
X04681Y05373*
X04691*
X04693Y05374*
X04903*
X04902Y05372*
X04895Y05362*
X0489Y05351*
X04888Y05338*
Y05326*
X0489Y05314*
X04895Y05302*
X04902Y05292*
X04911Y05283*
X04921Y05276*
X04932Y05272*
X04945Y05269*
X04957*
X04969Y05272*
X04981Y05276*
X04991Y05283*
X05Y05292*
X05007Y05302*
X05011Y05314*
X05014Y05326*
Y05338*
X05011Y05351*
X05007Y05362*
X05Y05372*
X04998Y05374*
X05334*
Y05354*
G37*
G36*
X01456Y046D02*
X01376D01*
X01369Y04599*
X01362Y04596*
X01355Y04591*
X00425Y03661*
X00295*
Y03734*
X00311*
Y03791*
X0024*
Y03734*
X00255*
Y03661*
X0002*
Y05491*
X01456*
Y046*
G37*
G36*
X05314Y04212D02*
Y04203D01*
Y03907*
Y03898*
X053Y03904*
X05283Y03907*
X05266*
X05249Y03904*
X05232Y03897*
X05218Y03887*
X05206Y03875*
X05196Y0386*
X05189Y03844*
X05186Y03827*
Y0381*
X05189Y03793*
X05196Y03776*
X05206Y03762*
X05218Y0375*
X05232Y0374*
X05249Y03733*
X05266Y0373*
X05283*
X053Y03733*
X05314Y03739*
Y0299*
X05313Y02991*
X05297Y02998*
X0528Y03001*
X05262*
X05245Y02998*
X05229Y02991*
X05215Y02982*
X05202Y02969*
X05193Y02955*
X05186Y02939*
X05183Y02922*
Y02904*
X05186Y02887*
X05193Y02871*
X05202Y02856*
X05215Y02844*
X05229Y02834*
X05245Y02828*
X05262Y02824*
X0528*
X05297Y02828*
X05313Y02834*
X05314Y02835*
Y02791*
Y02778*
Y02733*
X05139*
X0514Y02734*
X05143Y0274*
X05145Y02746*
Y02753*
X05143Y02759*
X0514Y02765*
X05135Y0277*
X05129Y02773*
X05123Y02775*
X05116*
X05109Y02773*
X05104Y0277*
X05099Y02765*
X05095Y02759*
X05094Y02753*
Y02749*
X05078Y02733*
X04311*
Y02866*
X04724*
X04732Y02867*
X04732Y02868*
X04759*
Y02925*
X04732*
X04732Y02925*
X04724Y02926*
X04311*
Y02989*
X04314Y02991*
X04318Y02996*
X04322Y03001*
X04323Y03008*
Y03015*
X04322Y03021*
X04318Y03027*
X04314Y03032*
X04311Y03034*
Y04015*
X04364Y04069*
X04364Y04068*
Y04055*
X04366Y04043*
X04371Y04031*
X04378Y04021*
X04387Y04012*
X04397Y04005*
X04408Y04001*
X0442Y03998*
X04433*
X04445Y04001*
X04457Y04005*
X04467Y04012*
X04476Y04021*
X04482Y04031*
X04487Y04043*
X0449Y04055*
Y04068*
X04487Y0408*
X04482Y04091*
X04476Y04101*
X04467Y0411*
X04457Y04117*
X04445Y04122*
X04433Y04124*
X0442*
X04419Y04124*
X04606Y04311*
X05216*
X05314Y04212*
G37*
G36*
X01454Y03203D02*
X01422Y03171D01*
X01417Y03164*
X01414Y03157*
X01413Y0315*
Y02858*
X00561Y02006*
X00518*
X00597Y02084*
X00597*
X00604Y02086*
X0061Y02089*
X00614Y02094*
X00618Y021*
X0062Y02106*
Y02113*
X00618Y0212*
X00614Y02125*
X0061Y0213*
X00604Y02134*
X00597Y02135*
X00591*
X00584Y02134*
X00578Y0213*
X00574Y02125*
X0057Y0212*
X00568Y02113*
Y02113*
X00461Y02006*
X00267*
X00262Y0201*
X00258Y02013*
Y02037*
X00229*
Y02047*
X00219*
Y02082*
X002*
Y02037*
X00098Y02139*
Y03335*
X0024Y03477*
Y03445*
X00267*
X00267Y03445*
X00275Y03444*
X0028*
X00288Y03445*
X00288Y03445*
X00311*
Y03462*
X00507Y03659*
X01454*
Y03203*
G37*
G36*
X07193Y03748D02*
X07194Y03747D01*
Y03069*
X0719Y0307*
X07179*
X07169Y03068*
X0716Y03063*
X07153Y03055*
X07148Y03046*
X07145Y03036*
Y03026*
X07148Y03016*
X07153Y03007*
X0716Y02999*
X07169Y02994*
X07179Y02992*
X0719*
X07194Y02993*
Y0299*
X0719Y02992*
X07179*
X07169Y02989*
X0716Y02984*
X07153Y02976*
X07148Y02967*
X07145Y02957*
Y02947*
X07148Y02937*
X07153Y02928*
X0716Y02921*
X07169Y02916*
X07179Y02913*
X0719*
X07194Y02914*
Y02912*
X0719Y02913*
X07179*
X07169Y0291*
X0716Y02905*
X07153Y02898*
X07148Y02889*
X07145Y02879*
Y02868*
X07148Y02858*
X07153Y02849*
X0716Y02842*
X07169Y02837*
X07179Y02834*
X0719*
X07194Y02835*
Y02833*
X0719Y02834*
X07179*
X07169Y02831*
X0716Y02826*
X07153Y02819*
X07148Y0281*
X07145Y028*
Y0279*
X07148Y0278*
X07153Y02771*
X0716Y02763*
X07169Y02758*
X07179Y02755*
X0719*
X07194Y02757*
Y02754*
X0719Y02755*
X07179*
X07169Y02753*
X0716Y02748*
X07153Y0274*
X07148Y02731*
X07145Y02721*
Y02711*
X07148Y02701*
X07153Y02692*
X0716Y02685*
X07169Y02679*
X07179Y02677*
X0719*
X07194Y02678*
Y01968*
X07195Y01964*
X07197Y01961*
X072Y01959*
X07204Y01958*
X07756*
X07757Y01958*
X07758*
X07759Y01959*
X0776Y01959*
X07761Y01959*
X07761Y0196*
X07762Y0196*
X07763Y01961*
X07763Y01962*
X07764Y01962*
X07765Y01963*
X07765Y01964*
X07765Y01965*
X07766Y01966*
X07766Y01966*
X07778*
X07778Y01966*
X07779Y01965*
X07779Y01964*
X07779Y01963*
X0778Y01962*
X0778Y01962*
X07781Y01961*
X07782Y0196*
X07782Y0196*
X07783Y01959*
X07784Y01959*
X07785Y01959*
X07786Y01958*
X07787*
X07788Y01958*
X07887*
Y01872*
X07888Y01864*
X0789Y01859*
X07891Y01857*
X07896Y01851*
X08109Y01638*
Y0105*
X08063Y01003*
X07484*
X06694Y01794*
X06688Y01799*
X06686Y01799*
X0668Y01801*
X06673Y01803*
X0627*
X05325Y02748*
Y02778*
Y02791*
Y02835*
X05324Y02836*
Y02837*
X05324Y02838*
X05324Y02839*
X05323Y0284*
X05323Y02841*
X05328Y02844*
X0534Y02856*
X0535Y02871*
X05356Y02887*
X0536Y02904*
Y02922*
X05356Y02939*
X0535Y02955*
X0534Y02969*
X05328Y02982*
X05323Y02985*
X05323Y02986*
X05324Y02987*
X05324Y02988*
X05324Y02989*
Y0299*
X05325Y0299*
Y03739*
X05324Y03743*
X05323Y03744*
X05331Y0375*
X05343Y03762*
X05353Y03776*
X0536Y03793*
X05363Y0381*
Y03827*
X0536Y03844*
X05353Y0386*
X05343Y03875*
X05331Y03887*
X05323Y03893*
X05324Y03894*
X05325Y03898*
Y03907*
Y04203*
Y04212*
X05324Y04216*
X05322Y04219*
X05223Y04318*
X0522Y0432*
X05216Y04321*
X04606*
X04602Y0432*
X04599Y04318*
X04412Y04131*
X04412Y0413*
X04411Y0413*
X04411Y04129*
X0441Y04128*
X0441Y04127*
X0441Y04126*
Y04125*
X04409Y04124*
X0441Y04123*
Y04122*
X04408Y04122*
X04397Y04117*
X04387Y0411*
X04378Y04101*
X04371Y04091*
X04366Y0408*
X04366Y04078*
X04365*
X04364Y04079*
X04363Y04078*
X04362*
X04361Y04078*
X0436Y04078*
X04359Y04077*
X04358Y04077*
X04358Y04076*
X04357Y04076*
X04303Y04022*
X04301Y04019*
X043Y04015*
Y03976*
X03858*
Y04615*
X05048*
X05056Y04616*
X05063Y04619*
X06318Y04623*
X07193Y03748*
G37*
G36*
X03848Y03976D02*
X03849Y03972D01*
X03851Y03969*
X03854Y03967*
X03858Y03966*
X03907*
X03901Y03963*
X03896Y03958*
X03893Y03952*
X03891Y03945*
Y03939*
X03893Y03932*
X03896Y03926*
X03901Y03922*
X03907Y03918*
X03913Y03916*
X0392*
X03921Y03917*
X04077Y03761*
Y0329*
X04078Y03285*
X04078Y03284*
X04081Y03279*
X04236Y03124*
X04236Y03123*
Y03117*
X04238Y0311*
X04241Y03104*
X04246Y03099*
X04252Y03096*
X04258Y03094*
X04265*
X04272Y03096*
X04277Y03099*
X04282Y03104*
X04286Y0311*
X04287Y03117*
Y03123*
X04286Y0313*
X04282Y03136*
X04277Y0314*
X04272Y03144*
X04265Y03146*
X04258*
X04258Y03145*
X04107Y03296*
Y03767*
X04106Y03772*
X04106Y03773*
X04103Y03778*
X03942Y03938*
X03942Y03939*
Y03945*
X03941Y03952*
X03937Y03958*
X03933Y03963*
X03927Y03966*
X043*
Y03037*
X04297*
X04074Y0326*
Y0363*
X04072Y03637*
X04068Y03643*
X03757Y03954*
Y04335*
X03775*
Y04404*
X03705*
Y04335*
X03722*
Y03947*
X03723Y0394*
X03727Y03934*
X03837Y03824*
X03827Y03826*
X0381*
X03793Y03823*
X03776Y03816*
X03762Y03807*
X0375Y03794*
X0374Y0378*
X03733Y03764*
X0373Y03746*
Y03729*
X03733Y03712*
X0374Y03696*
X0375Y03681*
X03762Y03669*
X03776Y03659*
X03793Y03653*
X0381Y03649*
X03827*
X03844Y03653*
X0386Y03659*
X03875Y03669*
X03887Y03681*
X03897Y03696*
X03904Y03712*
X03907Y03729*
Y03746*
X03905Y03756*
X04038Y03623*
Y03253*
X0404Y03246*
X04043Y03241*
X04272Y03012*
Y03008*
X04274Y03001*
X04277Y02996*
X04282Y02991*
X04288Y02987*
X04294Y02986*
X043*
Y02926*
X04301Y02922*
X04303Y02919*
X04307Y02917*
X04311Y02916*
Y02876*
X04307Y02876*
X04303Y02873*
X04301Y0287*
X043Y02866*
Y02854*
X03671*
X03679Y02861*
X03683Y02868*
X03685Y02876*
Y0294*
X03684Y02946*
X03683Y02947*
X03679Y02954*
X03645Y02988*
X03639Y02992*
X03631Y02994*
X03612*
X0361Y02996*
X03604Y03*
X03597Y03001*
X03591*
X03584Y03*
X03578Y02996*
X03574Y02992*
X0357Y02986*
X03568Y02979*
Y02973*
X0357Y02966*
X03574Y0296*
X03578Y02955*
X03584Y02952*
X03591Y0295*
X03597*
X03604Y02952*
X03606Y02954*
X03623*
X03633Y02943*
X03602*
Y02901*
X03586Y02885*
Y02898*
X03558*
X03529*
Y0288*
X03366*
X0336Y02879*
X03362Y02889*
Y02901*
X0336Y02914*
X03355Y02925*
X03348Y02935*
X0334Y02944*
X03329Y02951*
X03318Y02956*
X03306Y02958*
X03293*
X03281Y02956*
X0327Y02951*
X03259Y02944*
X03251Y02935*
X03244Y02925*
X03239Y02914*
X03237Y02901*
Y02889*
X03239Y02877*
X03244Y02865*
X03251Y02855*
X03252Y02854*
X03011*
X03011Y02854*
Y03422*
X03018Y03425*
X03032Y03435*
X03045Y03447*
X03054Y03461*
X03061Y03478*
X03064Y03495*
Y03512*
X03061Y03529*
X03054Y03545*
X03045Y0356*
X03032Y03572*
X03018Y03582*
X03011Y03585*
Y04275*
X03019*
X03027Y04276*
X03032Y04278*
X03034Y04279*
X0304Y04284*
X03116Y04359*
X03412*
X0342Y04361*
X03427Y04363*
X03433Y04368*
X03582Y04517*
X03848*
Y03976*
G37*
G36*
X03927Y0259D02*
X0393Y02583D01*
X03935Y02577*
X03937Y02575*
Y02557*
X03935Y02555*
X0393Y02549*
X03927Y02542*
X03926Y02534*
X03927Y02527*
X0393Y0252*
X03934Y02514*
Y01463*
X03935Y01455*
X03937Y01452*
Y01417*
X03657Y01137*
Y01167*
X03586*
Y01131*
X03586Y01131*
X03478Y01024*
X03197*
X0309Y0113*
Y01712*
X0309Y01713*
X03089Y0173*
X03085Y01748*
X03078Y01764*
X03071Y01776*
Y02363*
X03085Y02377*
X03305Y02598*
X03535*
Y02572*
X03536Y02566*
X0354Y0256*
X03592Y02508*
Y02504*
X03594Y02498*
X03597Y02492*
X03602Y02487*
X03608Y02484*
X03614Y02482*
X03621*
X03627Y02484*
X03633Y02487*
X03638Y02492*
X03641Y02498*
X03643Y02504*
Y02511*
X03641Y02517*
X03638Y02523*
X03633Y02528*
X03627Y02531*
X03621Y02533*
X03617*
X0357Y0258*
Y02598*
X03926*
X03927Y0259*
G37*
G36*
X07228Y03784D02*
X07231Y03779D01*
X07233Y03775*
X07235Y03772*
X07238Y0377*
X07241Y03769*
X07242Y03769*
X07755*
X07756Y03769*
X07757*
X07758Y0377*
X07759Y0377*
X0776Y0377*
X07761Y03771*
X07761Y03771*
X07762Y03772*
X07763Y03773*
X07763Y03773*
X07764Y03774*
X07764Y03775*
X07765Y03776*
X07765Y03777*
X07765Y03777*
X07777*
X07777Y03777*
X07778Y03776*
X07778Y03775*
X07779Y03774*
X07779Y03773*
X0778Y03773*
X0778Y03772*
X07781Y03771*
X07782Y03771*
X07783Y0377*
X07783Y0377*
X07784Y0377*
X07785Y03769*
X07786*
X07787Y03769*
X08198*
Y01968*
X07788*
X0779Y01968*
X07802Y01973*
X07812Y0198*
X07821Y01989*
X07828Y01999*
X07833Y02011*
X07835Y02023*
Y02035*
X07833Y02047*
X07828Y02059*
X07821Y02069*
X07812Y02078*
X07802Y02085*
X0779Y0209*
X07778Y02092*
X07766*
X07754Y0209*
X07742Y02085*
X07732Y02078*
X07723Y02069*
X07716Y02059*
X07711Y02047*
X07709Y02035*
Y02023*
X07711Y02011*
X07716Y01999*
X07723Y01989*
X07732Y0198*
X07742Y01973*
X07754Y01968*
X07756Y01968*
X07204*
Y02682*
X07209Y02685*
X07216Y02692*
X07221Y02701*
X07224Y02711*
Y02721*
X07221Y02731*
X07216Y0274*
X07209Y02748*
X07204Y0275*
Y02761*
X07209Y02763*
X07216Y02771*
X07221Y0278*
X07224Y0279*
Y028*
X07221Y0281*
X07216Y02819*
X07209Y02826*
X07204Y02829*
Y02839*
X07209Y02842*
X07216Y02849*
X07221Y02858*
X07224Y02868*
Y02879*
X07221Y02889*
X07216Y02898*
X07209Y02905*
X07204Y02908*
Y02918*
X07209Y02921*
X07216Y02928*
X07221Y02937*
X07224Y02947*
Y02957*
X07221Y02967*
X07216Y02976*
X07209Y02984*
X07204Y02986*
Y02997*
X07209Y02999*
X07216Y03007*
X07221Y03016*
X07224Y03026*
Y03036*
X07221Y03046*
X07216Y03055*
X07209Y03063*
X07204Y03065*
Y03799*
X07212*
X07228Y03784*
G37*
G36*
X01456Y00016D02*
X00016D01*
Y02007*
X00173*
X00199Y01981*
X002Y01981*
Y01958*
X00229*
Y01948*
X00239*
Y01913*
X00248*
X00249Y01909*
X00253Y01902*
X00294Y01861*
X003Y01857*
X00308Y01855*
X00393*
X00394Y01855*
X00399Y01852*
X00405Y0185*
X00273Y01718*
X00247*
Y01661*
X00286*
X00288Y01661*
X0029Y01661*
X00317*
Y01678*
X00647Y02007*
X00723*
X00717Y01994*
X00714Y01977*
Y01959*
X00717Y01942*
X00724Y01926*
X00734Y01912*
X00746Y01899*
X00761Y0189*
X00777Y01883*
X00794Y01879*
X00811*
X00828Y01883*
X00845Y0189*
X00859Y01899*
X00871Y01912*
X00881Y01926*
X00888Y01942*
X00891Y01959*
Y01977*
X00888Y01994*
X00882Y02007*
X01456*
Y00016*
G37*
G36*
X04123Y01397D02*
X04124Y01395D01*
X04124Y01393*
X04124Y01393*
X04124Y01393*
X04125Y01392*
X04126Y0139*
X04166Y0135*
X04242Y01273*
X04143*
Y01096*
X04133*
Y01086*
X03979*
Y00945*
X03838*
X03834Y00944*
X03831Y00942*
X03829Y00938*
X03828Y00935*
Y00418*
X03698Y00287*
X03409*
X03405Y00287*
X03402Y00284*
X034Y00281*
X03399Y00277*
Y00016*
X02696*
Y01003*
X0316*
X03174Y00989*
X03181Y00985*
X03182Y00985*
X03188Y00983*
X03487*
X03494Y00985*
X03501Y00989*
X03515Y01003*
X03523*
X03586Y01066*
Y01037*
X03612*
Y01065*
X03622*
Y01075*
X03657*
Y01094*
X03614*
X03629Y0111*
X03657*
Y01127*
X03661Y01128*
X03664Y0113*
X037Y01166*
X03705Y01169*
X03712Y01176*
X03715Y01181*
X03779Y01245*
X03784Y01248*
X03791Y01255*
X03794Y0126*
X03857Y01323*
X03862Y01326*
X0387Y01334*
X03872Y01339*
X03944Y0141*
X03946Y01413*
X03947Y01417*
Y01427*
X03954Y01434*
X03958Y01432*
X03966Y01431*
X03974Y01432*
X03981Y01435*
X03987Y0144*
X03992Y01446*
X03995Y01453*
X03996Y01461*
X03995Y01468*
X03994Y01471*
Y01474*
X03996Y01476*
X04123*
Y01397*
G37*
G36*
X05374Y02615D02*
Y02567D01*
Y02563*
Y02543*
Y02537*
Y02065*
Y02064*
Y02045*
Y02041*
Y02039*
Y02036*
Y0168*
Y0167*
Y01661*
Y01653*
Y01383*
Y01382*
Y01382*
Y01378*
Y01377*
Y01371*
Y0136*
Y01358*
X05356*
X05352Y01357*
X05349Y01355*
X05325Y01378*
X0532Y01382*
X05319Y01382*
X05314Y01383*
X0504*
X0504Y01383*
X05035Y01388*
X05029Y01391*
X05023Y01393*
X05016*
X05009Y01391*
X05003Y01388*
X04999Y01383*
X04995Y01377*
X04994Y01371*
Y01364*
X04995Y0136*
X04983*
Y01407*
X04806*
X04629*
Y0136*
X04374*
X04372Y01359*
X0437Y01359*
X0437Y01359*
X0437Y01359*
X04368Y01358*
X04367Y01357*
X04281Y01278*
X04281Y01278*
X04281Y01278*
X0428Y01276*
X04279Y01275*
X04279Y01274*
X04279Y01274*
X04278Y01273*
X04256*
X04173Y01357*
X04133Y01397*
Y02689*
X05076*
X05083Y0269*
X05089Y02694*
X05091Y02696*
X05292*
X05374Y02615*
G37*
G36*
X05634Y01027D02*
X05633Y01026D01*
Y0102*
X05635Y01013*
X05638Y01007*
X05643Y01003*
X05649Y00999*
X05656Y00998*
X05662*
X05669Y00999*
X05675Y01003*
X05679Y01007*
X05683Y01013*
X05685Y0102*
Y01026*
X05683Y01033*
X05679Y01039*
X05675Y01044*
X05669Y01047*
X05662Y01049*
X05656*
X05655Y01049*
X05356Y01348*
X06992*
X07578Y00761*
Y00157*
X07391*
Y00324*
Y00531*
X07391Y00535*
X07388Y00538*
X07251Y00676*
X07247Y00678*
X07244Y00679*
X06628*
X06627Y00679*
X06626*
X06625Y00678*
X06625Y00678*
X06624Y00678*
X06623Y00677*
X06622Y00676*
X06621Y00676*
X06621Y00675*
X0662Y00674*
X0662Y00673*
X06619Y00673*
X06619Y00672*
X06619Y00671*
X06618Y00669*
X06603*
X06588Y00684*
Y00685*
X06587Y00688*
X06585Y00692*
X06573Y00704*
X06572Y00705*
X06571Y00705*
X06574Y0071*
X06575Y00718*
X06574Y00726*
X06571Y00733*
X06566Y00739*
X06458Y00847*
X06451Y00852*
X06449Y00853*
X06444Y00855*
X06437Y00856*
X04681*
X04674Y00855*
X04666Y00852*
X0466Y00847*
X04639Y00826*
X04616*
Y00905*
X04478*
X0434*
Y00904*
X04337Y0091*
X04333Y00916*
X04288Y00961*
Y0127*
X04374Y0135*
X04629*
Y01262*
X04983*
Y0135*
X05001*
X05003Y01347*
X05009Y01344*
X05016Y01342*
X05023*
X05029Y01344*
X05035Y01347*
X05037Y0135*
X05311*
X05634Y01027*
G37*
G36*
X03979Y00919D02*
X04203D01*
X04199Y00917*
X04194Y00912*
X04191Y00906*
X04189Y009*
Y00893*
X0419Y00891*
Y00872*
X0415*
Y00702*
X0428*
Y00872*
X0424*
Y00891*
X0424Y00893*
Y009*
X04239Y00906*
X04235Y00912*
X04231Y00917*
X04227Y00919*
X04246*
X04282Y00883*
Y00789*
X04283Y00781*
X04285Y00776*
X04286Y00774*
X0429Y00768*
X04318Y0074*
X04324Y00736*
X04332Y00733*
X04339Y00732*
X04616*
X04624Y00733*
X04631Y00736*
X04637Y0074*
X04694Y00796*
X06424*
X06524Y00697*
X0653Y00692*
X06537Y00689*
X06545Y00688*
X06552Y00689*
X0656Y00692*
X06566Y00697*
X06578Y00685*
Y00679*
X06564Y00665*
X06559Y00657*
X06557Y00648*
Y006*
X06479Y00522*
X06477Y00521*
X06472Y00516*
X06469Y0051*
X06467Y00504*
Y00497*
X06469Y00491*
X06472Y00485*
X06477Y0048*
X06483Y00477*
X06489Y00475*
X06496*
X06502Y00477*
X06508Y0048*
X06513Y00485*
X06514Y00486*
X066Y00572*
X06605Y0058*
X06607Y0059*
Y00637*
X06621Y00651*
X06626Y00659*
X06628Y00669*
X07244*
X07381Y00531*
Y00324*
Y00157*
X07145*
Y00324*
X06879*
X06873Y00327*
X06862Y00331*
X0685Y00332*
X06849Y00332*
X06717*
X06716Y00332*
X06704Y00331*
X06693Y00327*
X06687Y00324*
X06013*
X05921Y00417*
X05374*
Y00016*
X03409*
Y00277*
X03702*
X03838Y00413*
Y00935*
X03979*
Y00919*
G37*
G36*
X06006Y00317D02*
X06009Y00315D01*
X06013Y00314*
X06673*
X06666Y00305*
X0666Y00295*
X06657Y00284*
X06656Y00272*
Y00267*
X06716*
Y00247*
X06656*
Y00242*
X06657Y0023*
X0666Y00219*
X06666Y00208*
X06673Y00199*
X06682Y00192*
X06693Y00186*
X06704Y00183*
X06716Y00182*
X06718Y00182*
X06847*
X0685Y00182*
X06862Y00183*
X06873Y00186*
X06883Y00192*
X06893Y00199*
X069Y00208*
X06906Y00219*
X06909Y0023*
X0691Y00242*
Y00247*
X0685*
Y00192*
X06716*
Y00193*
Y00322*
X0685*
Y00267*
X0691*
Y00272*
X06909Y00284*
X06906Y00295*
X069Y00305*
X06893Y00314*
X07135*
Y00157*
X07136Y00153*
X07137Y00151*
Y00016*
X05384*
Y00018*
X05418*
Y0006*
X05428*
Y0007*
X05473*
Y00077*
Y00109*
X05428*
Y00129*
X05473*
Y00136*
Y00168*
X05428*
Y00188*
X05473*
Y00195*
Y00227*
X05428*
Y00247*
X05473*
Y00254*
Y00286*
X05428*
Y00306*
X05473*
Y00313*
Y00345*
X05428*
Y00355*
X05418*
Y00396*
X05384*
Y00407*
X05917*
X06006Y00317*
G37*
%LNpcb1-2*%
%LPC*%
G36*
X08027Y0534D02*
X08009D01*
Y05315*
X08027*
Y0534*
G37*
G36*
X07989D02*
X0797D01*
Y05315*
X07989*
Y0534*
G37*
G36*
X08027Y05295D02*
X08009D01*
Y05269*
X08027*
Y05295*
G37*
G36*
X07989D02*
X0797D01*
Y05269*
X07989*
Y05295*
G37*
G36*
X07456Y05442D02*
X07439D01*
X07422Y05439*
X07406Y05432*
X07391Y05423*
X07379Y0541*
X07369Y05396*
X07362Y0538*
X07359Y05363*
Y05345*
X07362Y05328*
X07369Y05312*
X07379Y05297*
X07391Y05285*
X07406Y05275*
X07422Y05269*
X07439Y05265*
X07456*
X07473Y05269*
X0749Y05275*
X07504Y05285*
X07516Y05297*
X07526Y05312*
X07533Y05328*
X07536Y05345*
Y05363*
X07533Y0538*
X07526Y05396*
X07516Y0541*
X07504Y05423*
X0749Y05432*
X07473Y05439*
X07456Y05442*
G37*
G36*
X08093Y05194D02*
X07926D01*
Y05049*
X08093*
Y05194*
G37*
G36*
X07906D02*
X07739D01*
Y05049*
X07906*
Y05194*
G37*
G36*
X08093Y05029D02*
X07926D01*
Y04884*
X08093*
Y05029*
G37*
G36*
X07906D02*
X07739D01*
Y04884*
X07906*
Y05029*
G37*
G36*
X07456Y04537D02*
X07439D01*
X07422Y04534*
X07406Y04527*
X07391Y04517*
X07379Y04505*
X07369Y0449*
X07362Y04474*
X07359Y04457*
Y0444*
X07362Y04422*
X07369Y04406*
X07379Y04392*
X07391Y0438*
X07406Y0437*
X07422Y04363*
X07439Y0436*
X07456*
X07473Y04363*
X0749Y0437*
X07504Y0438*
X07516Y04392*
X07526Y04406*
X07533Y04422*
X07536Y0444*
Y04457*
X07533Y04474*
X07526Y0449*
X07516Y04505*
X07504Y04517*
X0749Y04527*
X07473Y04534*
X07456Y04537*
G37*
G36*
X08093Y04288D02*
X07926D01*
Y04143*
X08093*
Y04288*
G37*
G36*
X07906D02*
X07739D01*
Y04143*
X07906*
Y04288*
G37*
G36*
X08093Y04123D02*
X07926D01*
Y03979*
X08093*
Y04123*
G37*
G36*
X07906D02*
X07739D01*
Y03979*
X07906*
Y04123*
G37*
G36*
X04983Y05194D02*
X04816D01*
Y05049*
X04983*
Y05194*
G37*
G36*
X04796D02*
X04629D01*
Y05049*
X04796*
Y05194*
G37*
G36*
X03622Y05154D02*
X03454D01*
Y0501*
X03622*
Y05154*
G37*
G36*
X03434D02*
X03267D01*
Y0501*
X03434*
Y05154*
G37*
G36*
X03722Y05125D02*
X03715D01*
X03709Y05123*
X03703Y0512*
X03698Y05115*
X03695Y05109*
X03693Y05102*
Y05096*
X03695Y05089*
X03698Y05083*
X03703Y05079*
X03705Y05078*
Y05047*
X03679*
Y04972*
X03761*
Y04994*
X03994*
Y04972*
X04076*
Y05047*
X03994*
Y05024*
X03761*
Y05047*
X03735*
Y05079*
X03739Y05083*
X03743Y05089*
X03744Y05096*
Y05102*
X03743Y05109*
X03739Y05115*
X03735Y0512*
X03729Y05123*
X03722Y05125*
G37*
G36*
X04983Y05029D02*
X04816D01*
Y04884*
X04983*
Y05029*
G37*
G36*
X04796D02*
X04629D01*
Y04884*
X04796*
Y05029*
G37*
G36*
X03622Y0499D02*
X03454D01*
Y04845*
X03622*
Y0499*
G37*
G36*
X03434D02*
X03267D01*
Y04845*
X03434*
Y0499*
G37*
G36*
X00511Y05154D02*
X00344D01*
Y0501*
X00511*
Y05154*
G37*
G36*
X00324D02*
X00157D01*
Y0501*
X00324*
Y05154*
G37*
G36*
X00511Y0499D02*
X00344D01*
Y04845*
X00511*
Y0499*
G37*
G36*
X00324D02*
X00157D01*
Y04845*
X00324*
Y0499*
G37*
G36*
X00811Y04773D02*
X00794D01*
X00777Y0477*
X00761Y04763*
X00746Y04753*
X00734Y04741*
X00724Y04727*
X00717Y0471*
X00714Y04693*
Y04676*
X00717Y04659*
X00724Y04643*
X00734Y04628*
X00746Y04616*
X00761Y04606*
X00777Y04599*
X00794Y04596*
X00811*
X00828Y04599*
X00845Y04606*
X00859Y04616*
X00871Y04628*
X00881Y04643*
X00888Y04659*
X00891Y04676*
Y04693*
X00888Y0471*
X00881Y04727*
X00871Y04741*
X00859Y04753*
X00845Y04763*
X00828Y0477*
X00811Y04773*
G37*
G36*
X00485Y0445D02*
X00473D01*
X00461Y04448*
X00449Y04443*
X00439Y04436*
X0043Y04427*
X00423Y04417*
X00418Y04406*
X00416Y04394*
Y04381*
X00418Y04369*
X00423Y04357*
X0043Y04347*
X00439Y04338*
X00449Y04331*
X00461Y04327*
X00473Y04324*
X00485*
X00497Y04327*
X00509Y04331*
X00519Y04338*
X00528Y04347*
X00535Y04357*
X0054Y04369*
X00542Y04381*
Y04394*
X0054Y04406*
X00535Y04417*
X00528Y04427*
X00519Y04436*
X00509Y04443*
X00497Y04448*
X00485Y0445*
G37*
G36*
X00511Y04249D02*
X00344D01*
Y04104*
X00511*
Y04249*
G37*
G36*
X00324D02*
X00157D01*
Y04104*
X00324*
Y04249*
G37*
G36*
X00511Y04084D02*
X00344D01*
Y03939*
X00511*
Y04084*
G37*
G36*
X00324D02*
X00157D01*
Y03939*
X00324*
Y04084*
G37*
G36*
X00311Y03864D02*
X00285D01*
Y03845*
X00311*
Y03864*
G37*
G36*
X00265D02*
X0024D01*
Y03845*
X00265*
Y03864*
G37*
G36*
X00311Y03825D02*
X00285D01*
Y03806*
X00311*
Y03825*
G37*
G36*
X00265D02*
X0024D01*
Y03806*
X00265*
Y03825*
G37*
G36*
X04983Y04288D02*
X04816D01*
Y04143*
X04983*
Y04288*
G37*
G36*
X04796D02*
X04629D01*
Y04143*
X04796*
Y04288*
G37*
G36*
X04983Y04123D02*
X04816D01*
Y03979*
X04983*
Y04123*
G37*
G36*
X04796D02*
X04629D01*
Y03979*
X04796*
Y04123*
G37*
G36*
X04954Y03584D02*
X04941D01*
X04929Y03582*
X04918Y03577*
X04907Y0357*
X04899Y03561*
X04892Y03551*
X04887Y0354*
X04885Y03527*
Y03515*
X04887Y03503*
X04892Y03491*
X04899Y03481*
X04907Y03472*
X04918Y03465*
X04929Y03461*
X04941Y03458*
X04954*
X04966Y03461*
X04977Y03465*
X04988Y03472*
X04996Y03481*
X05003Y03491*
X05008Y03503*
X05011Y03515*
Y03527*
X05008Y0354*
X05003Y03551*
X04996Y03561*
X04988Y0357*
X04977Y03577*
X04966Y03582*
X04954Y03584*
G37*
G36*
X0498Y03383D02*
X04813D01*
Y03238*
X0498*
Y03383*
G37*
G36*
X04793D02*
X04625D01*
Y03238*
X04793*
Y03383*
G37*
G36*
X0498Y03218D02*
X04813D01*
Y03073*
X0498*
Y03218*
G37*
G36*
X04793D02*
X04625D01*
Y03073*
X04793*
Y03218*
G37*
G36*
X0476Y02998D02*
X04734D01*
Y02979*
X0476*
Y02998*
G37*
G36*
X04714D02*
X04688D01*
Y02979*
X04714*
Y02998*
G37*
G36*
X0476Y02959D02*
X04734D01*
Y0294*
X0476*
Y02959*
G37*
G36*
X04714D02*
X04688D01*
Y0294*
X04714*
Y02959*
G37*
G36*
X04568Y02844D02*
X04562D01*
X04555Y02842*
X04549Y02839*
X04544Y02834*
X04541Y02828*
X04539Y02822*
Y02815*
X04541Y02809*
X04544Y02803*
X04549Y02798*
X04555Y02795*
X04562Y02793*
X04568*
X04575Y02795*
X04581Y02798*
X04585Y02803*
X04589Y02809*
X04591Y02815*
Y02822*
X04589Y02828*
X04585Y02834*
X04581Y02839*
X04575Y02842*
X04568Y02844*
G37*
G36*
X04684Y0284D02*
X04677D01*
X04671Y02838*
X04665Y02835*
X0466Y0283*
X04657Y02824*
X04655Y02818*
Y02811*
X04657Y02805*
X0466Y02799*
X04665Y02794*
X04671Y02791*
X04677Y02789*
X04684*
X0469Y02791*
X04696Y02794*
X04701Y02799*
X04704Y02805*
X04706Y02811*
Y02818*
X04704Y02824*
X04701Y0283*
X04696Y02835*
X0469Y02838*
X04684Y0284*
G37*
G36*
X00311Y0343D02*
X00285D01*
Y03411*
X00311*
Y0343*
G37*
G36*
X00265D02*
X0024D01*
Y03411*
X00265*
Y0343*
G37*
G36*
X00311Y03391D02*
X00285D01*
Y03372*
X00311*
Y03391*
G37*
G36*
X00265D02*
X0024D01*
Y03372*
X00265*
Y03391*
G37*
G36*
X00511Y03343D02*
X00344D01*
Y03198*
X00511*
Y03343*
G37*
G36*
X00324D02*
X00157D01*
Y03198*
X00324*
Y03343*
G37*
G36*
X00511Y03178D02*
X00344D01*
Y03034*
X00511*
Y03178*
G37*
G36*
X00324D02*
X00157D01*
Y03034*
X00324*
Y03178*
G37*
G36*
X00811Y02962D02*
X00794D01*
X00777Y02959*
X00761Y02952*
X00746Y02942*
X00734Y0293*
X00724Y02915*
X00717Y02899*
X00714Y02882*
Y02865*
X00717Y02848*
X00724Y02832*
X00734Y02817*
X00746Y02805*
X00761Y02795*
X00777Y02788*
X00794Y02785*
X00811*
X00828Y02788*
X00845Y02795*
X00859Y02805*
X00871Y02817*
X00881Y02832*
X00888Y02848*
X00891Y02865*
Y02882*
X00888Y02899*
X00881Y02915*
X00871Y0293*
X00859Y02942*
X00845Y02952*
X00828Y02959*
X00811Y02962*
G37*
G36*
X00485Y02639D02*
X00473D01*
X00461Y02637*
X00449Y02632*
X00439Y02625*
X0043Y02616*
X00423Y02606*
X00418Y02595*
X00416Y02582*
Y0257*
X00418Y02558*
X00423Y02546*
X0043Y02536*
X00439Y02527*
X00449Y0252*
X00461Y02516*
X00473Y02513*
X00485*
X00497Y02516*
X00509Y0252*
X00519Y02527*
X00528Y02536*
X00535Y02546*
X0054Y02558*
X00542Y0257*
Y02582*
X0054Y02595*
X00535Y02606*
X00528Y02616*
X00519Y02625*
X00509Y02632*
X00497Y02637*
X00485Y02639*
G37*
G36*
X00511Y02438D02*
X00344D01*
Y02293*
X00511*
Y02438*
G37*
G36*
X00324D02*
X00157D01*
Y02293*
X00324*
Y02438*
G37*
G36*
X00511Y02273D02*
X00344D01*
Y02128*
X00511*
Y02273*
G37*
G36*
X00324D02*
X00157D01*
Y02128*
X00324*
Y02273*
G37*
G36*
X00258Y02082D02*
X00239D01*
Y02057*
X00258*
Y02082*
G37*
G36*
X0033Y02082D02*
X00273D01*
Y02011*
X0033*
Y02027*
X00393*
X00393Y02026*
X00399Y02023*
X00406Y02021*
X00412*
X00419Y02023*
X00425Y02026*
X00429Y02031*
X00433Y02037*
X00435Y02043*
Y0205*
X00433Y02057*
X00429Y02062*
X00425Y02067*
X00419Y02071*
X00412Y02072*
X00406*
X00399Y02071*
X00393Y02067*
X00393Y02067*
X0033*
Y02082*
G37*
G36*
X04288Y04384D02*
X04143D01*
Y04216*
X04288*
Y04384*
G37*
G36*
X04123D02*
X03979D01*
Y04216*
X04123*
Y04384*
G37*
G36*
X04288Y04196D02*
X04143D01*
Y04029*
X04288*
Y04196*
G37*
G36*
X04123D02*
X03979D01*
Y04029*
X04123*
Y04196*
G37*
G36*
X06066Y03391D02*
X06059D01*
X06053Y03389*
X06047Y03386*
X06044Y03383*
X05964*
X05957Y03382*
X05952Y03378*
X05817Y03244*
X05813*
X05807Y03242*
X05801Y03238*
X05796Y03234*
X05793Y03228*
X05791Y03221*
Y03215*
X05793Y03208*
X05796Y03202*
X05801Y03198*
X05807Y03194*
X05813Y03192*
X0582*
X05826Y03194*
X05832Y03198*
X05837Y03202*
X0584Y03208*
X05842Y03215*
Y03219*
X05971Y03348*
X06044*
X06047Y03345*
X06053Y03342*
X06059Y0334*
X06066*
X06072Y03342*
X06078Y03345*
X06083Y0335*
X06086Y03356*
X06088Y03362*
Y03369*
X06086Y03376*
X06083Y03381*
X06078Y03386*
X06072Y03389*
X06066Y03391*
G37*
G36*
X07111Y0307D02*
X07101D01*
X07091Y03068*
X07082Y03063*
X07074Y03055*
X07069Y03046*
X07066Y03036*
Y03026*
X07069Y03016*
X07074Y03007*
X07082Y02999*
X07091Y02994*
X07101Y02992*
X07111*
X07121Y02994*
X0713Y02999*
X07137Y03007*
X07142Y03016*
X07145Y03026*
Y03036*
X07142Y03046*
X07137Y03055*
X0713Y03063*
X07121Y03068*
X07111Y0307*
G37*
G36*
X07032D02*
X07022D01*
X07012Y03068*
X07003Y03063*
X06996Y03055*
X0699Y03046*
X06988Y03036*
Y03026*
X0699Y03016*
X06996Y03007*
X07003Y02999*
X07012Y02994*
X07022Y02992*
X07032*
X07042Y02994*
X07051Y02999*
X07059Y03007*
X07064Y03016*
X07066Y03026*
Y03036*
X07064Y03046*
X07059Y03055*
X07051Y03063*
X07042Y03068*
X07032Y0307*
G37*
G36*
X06954D02*
X06943D01*
X06933Y03068*
X06924Y03063*
X06917Y03055*
X06912Y03046*
X06909Y03036*
Y03026*
X06912Y03016*
X06917Y03007*
X06924Y02999*
X06933Y02994*
X06943Y02992*
X06954*
X06964Y02994*
X06972Y02999*
X0698Y03007*
X06985Y03016*
X06988Y03026*
Y03036*
X06985Y03046*
X0698Y03055*
X06972Y03063*
X06964Y03068*
X06954Y0307*
G37*
G36*
X06875D02*
X06864D01*
X06854Y03068*
X06845Y03063*
X06838Y03055*
X06833Y03046*
X0683Y03036*
Y03026*
X06833Y03016*
X06838Y03007*
X06845Y02999*
X06854Y02994*
X06864Y02992*
X06875*
X06885Y02994*
X06894Y02999*
X06901Y03007*
X06906Y03016*
X06909Y03026*
Y03036*
X06906Y03046*
X06901Y03055*
X06894Y03063*
X06885Y03068*
X06875Y0307*
G37*
G36*
X07111Y02992D02*
X07101D01*
X07091Y02989*
X07082Y02984*
X07074Y02976*
X07069Y02967*
X07066Y02957*
Y02947*
X07069Y02937*
X07074Y02928*
X07082Y02921*
X07091Y02916*
X07101Y02913*
X07111*
X07121Y02916*
X0713Y02921*
X07137Y02928*
X07142Y02937*
X07145Y02947*
Y02957*
X07142Y02967*
X07137Y02976*
X0713Y02984*
X07121Y02989*
X07111Y02992*
G37*
G36*
X07032D02*
X07022D01*
X07012Y02989*
X07003Y02984*
X06996Y02976*
X0699Y02967*
X06988Y02957*
Y02947*
X0699Y02937*
X06996Y02928*
X07003Y02921*
X07012Y02916*
X07022Y02913*
X07032*
X07042Y02916*
X07051Y02921*
X07059Y02928*
X07064Y02937*
X07066Y02947*
Y02957*
X07064Y02967*
X07059Y02976*
X07051Y02984*
X07042Y02989*
X07032Y02992*
G37*
G36*
X06954D02*
X06943D01*
X06933Y02989*
X06924Y02984*
X06917Y02976*
X06912Y02967*
X06909Y02957*
Y02947*
X06912Y02937*
X06917Y02928*
X06924Y02921*
X06933Y02916*
X06943Y02913*
X06954*
X06964Y02916*
X06972Y02921*
X0698Y02928*
X06985Y02937*
X06988Y02947*
Y02957*
X06985Y02967*
X0698Y02976*
X06972Y02984*
X06964Y02989*
X06954Y02992*
G37*
G36*
X06875D02*
X06864D01*
X06854Y02989*
X06845Y02984*
X06838Y02976*
X06833Y02967*
X0683Y02957*
Y02947*
X06833Y02937*
X06838Y02928*
X06845Y02921*
X06854Y02916*
X06864Y02913*
X06875*
X06885Y02916*
X06894Y02921*
X06901Y02928*
X06906Y02937*
X06909Y02947*
Y02957*
X06906Y02967*
X06901Y02976*
X06894Y02984*
X06885Y02989*
X06875Y02992*
G37*
G36*
X07111Y02913D02*
X07101D01*
X07091Y0291*
X07082Y02905*
X07074Y02898*
X07069Y02889*
X07066Y02879*
Y02868*
X07069Y02858*
X07074Y02849*
X07082Y02842*
X07091Y02837*
X07101Y02834*
X07111*
X07121Y02837*
X0713Y02842*
X07137Y02849*
X07142Y02858*
X07145Y02868*
Y02879*
X07142Y02889*
X07137Y02898*
X0713Y02905*
X07121Y0291*
X07111Y02913*
G37*
G36*
X07032D02*
X07022D01*
X07012Y0291*
X07003Y02905*
X06996Y02898*
X0699Y02889*
X06988Y02879*
Y02868*
X0699Y02858*
X06996Y02849*
X07003Y02842*
X07012Y02837*
X07022Y02834*
X07032*
X07042Y02837*
X07051Y02842*
X07059Y02849*
X07064Y02858*
X07066Y02868*
Y02879*
X07064Y02889*
X07059Y02898*
X07051Y02905*
X07042Y0291*
X07032Y02913*
G37*
G36*
X0654D02*
X0653D01*
X0652Y0291*
X06511Y02905*
X06503Y02898*
X06498Y02889*
X06496Y02879*
Y02868*
X06498Y02858*
X06503Y02849*
X06511Y02842*
X0652Y02837*
X0653Y02834*
X0654*
X0655Y02837*
X06559Y02842*
X06566Y02849*
X06572Y02858*
X06574Y02868*
Y02879*
X06572Y02889*
X06566Y02898*
X06559Y02905*
X0655Y0291*
X0654Y02913*
G37*
G36*
X06461D02*
X06451D01*
X06441Y0291*
X06432Y02905*
X06425Y02898*
X0642Y02889*
X06417Y02879*
Y02868*
X0642Y02858*
X06425Y02849*
X06432Y02842*
X06441Y02837*
X06451Y02834*
X06461*
X06471Y02837*
X0648Y02842*
X06488Y02849*
X06493Y02858*
X06496Y02868*
Y02879*
X06493Y02889*
X06488Y02898*
X0648Y02905*
X06471Y0291*
X06461Y02913*
G37*
G36*
X06383D02*
X06372D01*
X06362Y0291*
X06353Y02905*
X06346Y02898*
X06341Y02889*
X06338Y02879*
Y02868*
X06341Y02858*
X06346Y02849*
X06353Y02842*
X06362Y02837*
X06372Y02834*
X06383*
X06393Y02837*
X06402Y02842*
X06409Y02849*
X06414Y02858*
X06417Y02868*
Y02879*
X06414Y02889*
X06409Y02898*
X06402Y02905*
X06393Y0291*
X06383Y02913*
G37*
G36*
X06304D02*
X06294D01*
X06284Y0291*
X06275Y02905*
X06267Y02898*
X06262Y02889*
X06259Y02879*
Y02868*
X06262Y02858*
X06267Y02849*
X06275Y02842*
X06284Y02837*
X06294Y02834*
X06304*
X06314Y02837*
X06323Y02842*
X0633Y02849*
X06335Y02858*
X06338Y02868*
Y02879*
X06335Y02889*
X0633Y02898*
X06323Y02905*
X06314Y0291*
X06304Y02913*
G37*
G36*
X06225D02*
X06215D01*
X06205Y0291*
X06196Y02905*
X06188Y02898*
X06183Y02889*
X06181Y02879*
Y02868*
X06183Y02858*
X06188Y02849*
X06196Y02842*
X06205Y02837*
X06215Y02834*
X06225*
X06235Y02837*
X06244Y02842*
X06251Y02849*
X06257Y02858*
X06259Y02868*
Y02879*
X06257Y02889*
X06251Y02898*
X06244Y02905*
X06235Y0291*
X06225Y02913*
G37*
G36*
X07111Y02834D02*
X07101D01*
X07091Y02831*
X07082Y02826*
X07074Y02819*
X07069Y0281*
X07066Y028*
Y0279*
X07069Y0278*
X07074Y02771*
X07082Y02763*
X07091Y02758*
X07101Y02755*
X07111*
X07121Y02758*
X0713Y02763*
X07137Y02771*
X07142Y0278*
X07145Y0279*
Y028*
X07142Y0281*
X07137Y02819*
X0713Y02826*
X07121Y02831*
X07111Y02834*
G37*
G36*
X07032D02*
X07022D01*
X07012Y02831*
X07003Y02826*
X06996Y02819*
X0699Y0281*
X06988Y028*
Y0279*
X0699Y0278*
X06996Y02771*
X07003Y02763*
X07012Y02758*
X07022Y02755*
X07032*
X07042Y02758*
X07051Y02763*
X07059Y02771*
X07064Y0278*
X07066Y0279*
Y028*
X07064Y0281*
X07059Y02819*
X07051Y02826*
X07042Y02831*
X07032Y02834*
G37*
G36*
X0654D02*
X0653D01*
X0652Y02831*
X06511Y02826*
X06503Y02819*
X06498Y0281*
X06496Y028*
Y0279*
X06498Y0278*
X06503Y02771*
X06511Y02763*
X0652Y02758*
X0653Y02755*
X0654*
X0655Y02758*
X06559Y02763*
X06566Y02771*
X06572Y0278*
X06574Y0279*
Y028*
X06572Y0281*
X06566Y02819*
X06559Y02826*
X0655Y02831*
X0654Y02834*
G37*
G36*
X06461D02*
X06451D01*
X06441Y02831*
X06432Y02826*
X06425Y02819*
X0642Y0281*
X06417Y028*
Y0279*
X0642Y0278*
X06425Y02771*
X06432Y02763*
X06441Y02758*
X06451Y02755*
X06461*
X06471Y02758*
X0648Y02763*
X06488Y02771*
X06493Y0278*
X06496Y0279*
Y028*
X06493Y0281*
X06488Y02819*
X0648Y02826*
X06471Y02831*
X06461Y02834*
G37*
G36*
X06383D02*
X06372D01*
X06362Y02831*
X06353Y02826*
X06346Y02819*
X06341Y0281*
X06338Y028*
Y0279*
X06341Y0278*
X06346Y02771*
X06353Y02763*
X06362Y02758*
X06372Y02755*
X06383*
X06393Y02758*
X06402Y02763*
X06409Y02771*
X06414Y0278*
X06417Y0279*
Y028*
X06414Y0281*
X06409Y02819*
X06402Y02826*
X06393Y02831*
X06383Y02834*
G37*
G36*
X06304D02*
X06294D01*
X06284Y02831*
X06275Y02826*
X06267Y02819*
X06262Y0281*
X06259Y028*
Y0279*
X06262Y0278*
X06267Y02771*
X06275Y02763*
X06284Y02758*
X06294Y02755*
X06304*
X06314Y02758*
X06323Y02763*
X0633Y02771*
X06335Y0278*
X06338Y0279*
Y028*
X06335Y0281*
X0633Y02819*
X06323Y02826*
X06314Y02831*
X06304Y02834*
G37*
G36*
X06225D02*
X06215D01*
X06205Y02831*
X06196Y02826*
X06188Y02819*
X06183Y0281*
X06181Y028*
Y0279*
X06183Y0278*
X06188Y02771*
X06196Y02763*
X06205Y02758*
X06215Y02755*
X06225*
X06235Y02758*
X06244Y02763*
X06251Y02771*
X06257Y0278*
X06259Y0279*
Y028*
X06257Y0281*
X06251Y02819*
X06244Y02826*
X06235Y02831*
X06225Y02834*
G37*
G36*
X06146D02*
X06136D01*
X06126Y02831*
X06117Y02826*
X0611Y02819*
X06105Y0281*
X06102Y028*
Y0279*
X06105Y0278*
X0611Y02771*
X06117Y02763*
X06126Y02758*
X06136Y02755*
X06146*
X06156Y02758*
X06165Y02763*
X06173Y02771*
X06178Y0278*
X06181Y0279*
Y028*
X06178Y0281*
X06173Y02819*
X06165Y02826*
X06156Y02831*
X06146Y02834*
G37*
G36*
X07111Y02755D02*
X07101D01*
X07091Y02753*
X07082Y02748*
X07074Y0274*
X07069Y02731*
X07066Y02721*
Y02711*
X07069Y02701*
X07074Y02692*
X07082Y02685*
X07091Y02679*
X07101Y02677*
X07111*
X07121Y02679*
X0713Y02685*
X07137Y02692*
X07142Y02701*
X07145Y02711*
Y02721*
X07142Y02731*
X07137Y0274*
X0713Y02748*
X07121Y02753*
X07111Y02755*
G37*
G36*
X07032D02*
X07022D01*
X07012Y02753*
X07003Y02748*
X06996Y0274*
X0699Y02731*
X06988Y02721*
Y02711*
X0699Y02701*
X06996Y02692*
X07003Y02685*
X07012Y02679*
X07022Y02677*
X07032*
X07042Y02679*
X07051Y02685*
X07059Y02692*
X07064Y02701*
X07066Y02711*
Y02721*
X07064Y02731*
X07059Y0274*
X07051Y02748*
X07042Y02753*
X07032Y02755*
G37*
G36*
X0654D02*
X0653D01*
X0652Y02753*
X06511Y02748*
X06503Y0274*
X06498Y02731*
X06496Y02721*
Y02711*
X06498Y02701*
X06503Y02692*
X06511Y02685*
X0652Y02679*
X0653Y02677*
X0654*
X0655Y02679*
X06559Y02685*
X06566Y02692*
X06572Y02701*
X06574Y02711*
Y02721*
X06572Y02731*
X06566Y0274*
X06559Y02748*
X0655Y02753*
X0654Y02755*
G37*
G36*
X06461D02*
X06451D01*
X06441Y02753*
X06432Y02748*
X06425Y0274*
X0642Y02731*
X06417Y02721*
Y02711*
X0642Y02701*
X06425Y02692*
X06432Y02685*
X06441Y02679*
X06451Y02677*
X06461*
X06471Y02679*
X0648Y02685*
X06488Y02692*
X06493Y02701*
X06496Y02711*
Y02721*
X06493Y02731*
X06488Y0274*
X0648Y02748*
X06471Y02753*
X06461Y02755*
G37*
G36*
X06383D02*
X06372D01*
X06362Y02753*
X06353Y02748*
X06346Y0274*
X06341Y02731*
X06338Y02721*
Y02711*
X06341Y02701*
X06346Y02692*
X06353Y02685*
X06362Y02679*
X06372Y02677*
X06383*
X06393Y02679*
X06402Y02685*
X06409Y02692*
X06414Y02701*
X06417Y02711*
Y02721*
X06414Y02731*
X06409Y0274*
X06402Y02748*
X06393Y02753*
X06383Y02755*
G37*
G36*
X06304D02*
X06294D01*
X06284Y02753*
X06275Y02748*
X06267Y0274*
X06262Y02731*
X06259Y02721*
Y02711*
X06262Y02701*
X06267Y02692*
X06275Y02685*
X06284Y02679*
X06294Y02677*
X06304*
X06314Y02679*
X06323Y02685*
X0633Y02692*
X06335Y02701*
X06338Y02711*
Y02721*
X06335Y02731*
X0633Y0274*
X06323Y02748*
X06314Y02753*
X06304Y02755*
G37*
G36*
X06225D02*
X06215D01*
X06205Y02753*
X06196Y02748*
X06188Y0274*
X06183Y02731*
X06181Y02721*
Y02711*
X06183Y02701*
X06188Y02692*
X06196Y02685*
X06205Y02679*
X06215Y02677*
X06225*
X06235Y02679*
X06244Y02685*
X06251Y02692*
X06257Y02701*
X06259Y02711*
Y02721*
X06257Y02731*
X06251Y0274*
X06244Y02748*
X06235Y02753*
X06225Y02755*
G37*
G36*
X06146D02*
X06136D01*
X06126Y02753*
X06117Y02748*
X0611Y0274*
X06105Y02731*
X06102Y02721*
Y02711*
X06105Y02701*
X0611Y02692*
X06117Y02685*
X06126Y02679*
X06136Y02677*
X06146*
X06156Y02679*
X06165Y02685*
X06173Y02692*
X06178Y02701*
X06181Y02711*
Y02721*
X06178Y02731*
X06173Y0274*
X06165Y02748*
X06156Y02753*
X06146Y02755*
G37*
G36*
X07456Y0182D02*
X07439D01*
X07422Y01817*
X07406Y0181*
X07391Y01801*
X07379Y01788*
X07369Y01774*
X07362Y01758*
X07359Y01741*
Y01723*
X07362Y01706*
X07369Y0169*
X07379Y01675*
X07391Y01663*
X07406Y01653*
X07422Y01647*
X07439Y01643*
X07456*
X07473Y01647*
X0749Y01653*
X07504Y01663*
X07516Y01675*
X07526Y0169*
X07533Y01706*
X07536Y01723*
Y01741*
X07533Y01758*
X07526Y01774*
X07516Y01788*
X07504Y01801*
X0749Y0181*
X07473Y01817*
X07456Y0182*
G37*
G36*
X08093Y01572D02*
X07926D01*
Y01427*
X08093*
Y01572*
G37*
G36*
X07906D02*
X07739D01*
Y01427*
X07906*
Y01572*
G37*
G36*
X08093Y01407D02*
X07926D01*
Y01262*
X08093*
Y01407*
G37*
G36*
X07906D02*
X07739D01*
Y01262*
X07906*
Y01407*
G37*
G36*
X03744Y04483D02*
X03735D01*
X03726Y04481*
X03718Y04476*
X03712Y0447*
X03707Y04462*
X03705Y04453*
Y04444*
X03707Y04435*
X03712Y04427*
X03718Y0442*
X03726Y04416*
X03735Y04413*
X03744*
X03753Y04416*
X03761Y0442*
X03768Y04427*
X03772Y04435*
X03775Y04444*
Y04453*
X03772Y04462*
X03768Y0447*
X03761Y04476*
X03753Y04481*
X03744Y04483*
G37*
G36*
X03622Y04249D02*
X03454D01*
Y04104*
X03622*
Y04249*
G37*
G36*
X03434D02*
X03267D01*
Y04104*
X03434*
Y04249*
G37*
G36*
X03622Y04084D02*
X03454D01*
Y03939*
X03622*
Y04084*
G37*
G36*
X03434D02*
X03267D01*
Y03939*
X03434*
Y04084*
G37*
G36*
X03999Y03254D02*
X03992D01*
X03986Y03253*
X0398Y03249*
X03975Y03245*
X03972Y03239*
X0397Y03232*
Y03225*
X03972Y03219*
X03975Y03213*
X0398Y03208*
X03986Y03205*
X03992Y03203*
X03999*
X04005Y03205*
X04011Y03208*
X04016Y03213*
X04019Y03219*
X04021Y03225*
Y03232*
X04019Y03239*
X04016Y03245*
X04011Y03249*
X04005Y03253*
X03999Y03254*
G37*
G36*
X03622Y03343D02*
X03454D01*
Y03198*
X03622*
Y03343*
G37*
G36*
X03434D02*
X03267D01*
Y03198*
X03434*
Y03343*
G37*
G36*
X03622Y03178D02*
X03454D01*
Y03034*
X03622*
Y03178*
G37*
G36*
X03434D02*
X03267D01*
Y03034*
X03434*
Y03178*
G37*
G36*
X03586Y02943D02*
X03568D01*
Y02918*
X03586*
Y02943*
G37*
G36*
X03548D02*
X03529D01*
Y02918*
X03548*
Y02943*
G37*
G36*
X03622Y02438D02*
X03454D01*
Y02293*
X03622*
Y02438*
G37*
G36*
X03434D02*
X03267D01*
Y02293*
X03434*
Y02438*
G37*
G36*
X03655Y02308D02*
X03649D01*
X03642Y02306*
X03636Y02302*
X03632Y02298*
X03628Y02292*
X03626Y02285*
Y02279*
X03628Y02272*
X03632Y02266*
X03636Y02262*
X03642Y02258*
X03649Y02256*
X03655*
X03662Y02258*
X03668Y02262*
X03673Y02266*
X03676Y02272*
X03678Y02279*
Y02285*
X03676Y02292*
X03673Y02298*
X03668Y02302*
X03662Y02306*
X03655Y02308*
G37*
G36*
X03622Y02273D02*
X03454D01*
Y02128*
X03622*
Y02273*
G37*
G36*
X03434D02*
X03267D01*
Y02128*
X03434*
Y02273*
G37*
G36*
X03622Y01552D02*
X03454D01*
Y01407*
X03622*
Y01552*
G37*
G36*
X03434D02*
X03267D01*
Y01407*
X03434*
Y01552*
G37*
G36*
X03622Y01387D02*
X03454D01*
Y01243*
X03622*
Y01387*
G37*
G36*
X03434D02*
X03267D01*
Y01243*
X03434*
Y01387*
G37*
G36*
X03306Y01167D02*
X03293D01*
X03281Y01165*
X0327Y0116*
X03259Y01153*
X03251Y01144*
X03244Y01134*
X03239Y01123*
X03237Y0111*
Y01098*
X03239Y01086*
X03244Y01074*
X03251Y01064*
X03259Y01055*
X0327Y01048*
X03281Y01044*
X03293Y01041*
X03306*
X03318Y01044*
X03329Y01048*
X0334Y01055*
X03348Y01064*
X03355Y01074*
X0336Y01086*
X03362Y01098*
Y0111*
X0336Y01123*
X03355Y01134*
X03348Y01144*
X0334Y01153*
X03329Y0116*
X03318Y01165*
X03306Y01167*
G37*
G36*
X07453Y03631D02*
X07436D01*
X07419Y03628*
X07402Y03621*
X07388Y03612*
X07376Y03599*
X07366Y03585*
X07359Y03569*
X07356Y03552*
Y03534*
X07359Y03517*
X07366Y03501*
X07376Y03486*
X07388Y03474*
X07402Y03464*
X07419Y03458*
X07436Y03454*
X07453*
X0747Y03458*
X07486Y03464*
X07501Y03474*
X07513Y03486*
X07523Y03501*
X0753Y03517*
X07533Y03534*
Y03552*
X0753Y03569*
X07523Y03585*
X07513Y03599*
X07501Y03612*
X07486Y03621*
X0747Y03628*
X07453Y03631*
G37*
G36*
X0809Y03383D02*
X07923D01*
Y03238*
X0809*
Y03383*
G37*
G36*
X07903D02*
X07736D01*
Y03238*
X07903*
Y03383*
G37*
G36*
X0809Y03218D02*
X07923D01*
Y03073*
X0809*
Y03218*
G37*
G36*
X07903D02*
X07736D01*
Y03073*
X07903*
Y03218*
G37*
G36*
X07457Y02726D02*
X0744D01*
X07422Y02722*
X07406Y02716*
X07392Y02706*
X0738Y02694*
X0737Y02679*
X07363Y02663*
X0736Y02646*
Y02629*
X07363Y02611*
X0737Y02595*
X0738Y02581*
X07392Y02568*
X07406Y02559*
X07422Y02552*
X0744Y02549*
X07457*
X07474Y02552*
X0749Y02559*
X07505Y02568*
X07517Y02581*
X07527Y02595*
X07534Y02611*
X07537Y02629*
Y02646*
X07534Y02663*
X07527Y02679*
X07517Y02694*
X07505Y02706*
X0749Y02716*
X07474Y02722*
X07457Y02726*
G37*
G36*
X08094Y02477D02*
X07927D01*
Y02332*
X08094*
Y02477*
G37*
G36*
X07907D02*
X0774D01*
Y02332*
X07907*
Y02477*
G37*
G36*
X08094Y02312D02*
X07927D01*
Y02168*
X08094*
Y02312*
G37*
G36*
X07907D02*
X0774D01*
Y02168*
X07907*
Y02312*
G37*
G36*
X00219Y01938D02*
X002D01*
Y01913*
X00219*
Y01938*
G37*
G36*
X00318Y01645D02*
X00292D01*
Y01627*
X00318*
Y01645*
G37*
G36*
X00272D02*
X00246D01*
Y01627*
X00272*
Y01645*
G37*
G36*
X00318Y01607D02*
X00292D01*
Y01588*
X00318*
Y01607*
G37*
G36*
X00272D02*
X00246D01*
Y01588*
X00272*
Y01607*
G37*
G36*
X00511Y01552D02*
X00344D01*
Y01407*
X00511*
Y01552*
G37*
G36*
X00324D02*
X00157D01*
Y01407*
X00324*
Y01552*
G37*
G36*
X00511Y01387D02*
X00344D01*
Y01243*
X00511*
Y01387*
G37*
G36*
X00324D02*
X00157D01*
Y01243*
X00324*
Y01387*
G37*
G36*
X00811Y01171D02*
X00794D01*
X00777Y01168*
X00761Y01161*
X00746Y01151*
X00734Y01139*
X00724Y01124*
X00717Y01108*
X00714Y01091*
Y01074*
X00717Y01057*
X00724Y01041*
X00734Y01026*
X00746Y01014*
X00761Y01004*
X00777Y00997*
X00794Y00994*
X00811*
X00828Y00997*
X00845Y01004*
X00859Y01014*
X00871Y01026*
X00881Y01041*
X00888Y01057*
X00891Y01074*
Y01091*
X00888Y01108*
X00881Y01124*
X00871Y01139*
X00859Y01151*
X00845Y01161*
X00828Y01168*
X00811Y01171*
G37*
G36*
X00485Y00828D02*
X00473D01*
X00461Y00826*
X00449Y00821*
X00439Y00814*
X0043Y00805*
X00423Y00795*
X00418Y00784*
X00416Y00771*
Y00759*
X00418Y00747*
X00423Y00735*
X0043Y00725*
X00439Y00716*
X00449Y00709*
X00461Y00705*
X00473Y00702*
X00485*
X00497Y00705*
X00509Y00709*
X00519Y00716*
X00528Y00725*
X00535Y00735*
X0054Y00747*
X00542Y00759*
Y00771*
X0054Y00784*
X00535Y00795*
X00528Y00805*
X00519Y00814*
X00509Y00821*
X00497Y00826*
X00485Y00828*
G37*
G36*
X00511Y00627D02*
X00344D01*
Y00482*
X00511*
Y00627*
G37*
G36*
X00324D02*
X00157D01*
Y00482*
X00324*
Y00627*
G37*
G36*
X00511Y00462D02*
X00344D01*
Y00317*
X00511*
Y00462*
G37*
G36*
X00324D02*
X00157D01*
Y00317*
X00324*
Y00462*
G37*
G36*
X00811Y00246D02*
X00794D01*
X00777Y00242*
X00761Y00235*
X00746Y00226*
X00734Y00213*
X00724Y00199*
X00717Y00183*
X00714Y00166*
Y00148*
X00717Y00131*
X00724Y00115*
X00734Y00101*
X00746Y00088*
X00761Y00078*
X00777Y00072*
X00794Y00068*
X00811*
X00828Y00072*
X00845Y00078*
X00859Y00088*
X00871Y00101*
X00881Y00115*
X00888Y00131*
X00891Y00148*
Y00166*
X00888Y00183*
X00881Y00199*
X00871Y00213*
X00859Y00226*
X00845Y00235*
X00828Y00242*
X00811Y00246*
G37*
G36*
X04123Y01273D02*
X03979D01*
Y01106*
X04123*
Y01273*
G37*
G36*
X03657Y01055D02*
X03632D01*
Y01037*
X03657*
Y01055*
G37*
G36*
X02985Y00875D02*
X02967D01*
X0295Y00872*
X02934Y00865*
X02919Y00856*
X02907Y00843*
X02897Y00829*
X02891Y00813*
X02887Y00796*
Y00778*
X02891Y00761*
X02897Y00745*
X02907Y0073*
X02919Y00718*
X02934Y00708*
X0295Y00702*
X02967Y00698*
X02985*
X03002Y00702*
X03018Y00708*
X03032Y00718*
X03045Y0073*
X03054Y00745*
X03061Y00761*
X03064Y00778*
Y00796*
X03061Y00813*
X03054Y00829*
X03045Y00843*
X03032Y00856*
X03018Y00865*
X03002Y00872*
X02985Y00875*
G37*
G36*
X03622Y00627D02*
X03454D01*
Y00482*
X03622*
Y00627*
G37*
G36*
X0373Y00547D02*
X03708D01*
Y00482*
X0373*
Y00547*
G37*
G36*
X03688D02*
X03667D01*
Y00482*
X03688*
Y00547*
G37*
G36*
X03434Y00627D02*
X03267D01*
Y00482*
X03434*
Y00627*
G37*
G36*
X0373Y00462D02*
X03708D01*
Y00397*
X0373*
Y00462*
G37*
G36*
X03688D02*
X03667D01*
Y00397*
X03688*
Y00462*
G37*
G36*
X03622D02*
X03454D01*
Y00317*
X03622*
Y00462*
G37*
G36*
X03434D02*
X03267D01*
Y00317*
X03434*
Y00462*
G37*
G36*
X04196Y02604D02*
X04189D01*
X04183Y02602*
X04177Y02599*
X04172Y02594*
X04169Y02588*
X04167Y02582*
Y02575*
X04169Y02568*
X04172Y02563*
X04177Y02558*
X04183Y02554*
X04189Y02553*
X04196*
X04202Y02554*
X04208Y02558*
X04213Y02563*
X04216Y02568*
X04218Y02575*
Y02582*
X04216Y02588*
X04213Y02594*
X04208Y02599*
X04202Y02602*
X04196Y02604*
G37*
G36*
X04334Y02572D02*
X04327D01*
X0432Y02571*
X04315Y02567*
X0431Y02562*
X04306Y02557*
X04305Y0255*
Y02543*
X04306Y02537*
X0431Y02531*
X04315Y02526*
X0432Y02523*
X04327Y02521*
X04334*
X0434Y02523*
X04346Y02526*
X04351Y02531*
X04354Y02537*
X04356Y02543*
Y0255*
X04354Y02557*
X04351Y02562*
X04346Y02567*
X0434Y02571*
X04334Y02572*
G37*
G36*
X04393Y02517D02*
X04386D01*
X04379Y02515*
X04374Y02512*
X04369Y02507*
X04365Y02502*
X04364Y02495*
Y02488*
X04365Y02482*
X04369Y02476*
X04374Y02471*
X04379Y02468*
X04386Y02466*
X04393*
X04399Y02468*
X04405Y02471*
X0441Y02476*
X04413Y02482*
X04415Y02488*
Y02495*
X04413Y02502*
X0441Y02507*
X04405Y02512*
X04399Y02515*
X04393Y02517*
G37*
G36*
X0455Y02417D02*
X04543D01*
X04537Y02415*
X04531Y02412*
X04526Y02407*
X04523Y02401*
X04521Y02395*
Y02388*
X04523Y02381*
X04526Y02375*
X04531Y02371*
X04537Y02367*
X04543Y02366*
X0455*
X04557Y02367*
X04562Y02371*
X04567Y02375*
X04571Y02381*
X04572Y02388*
Y02395*
X04571Y02401*
X04567Y02407*
X04562Y02412*
X04557Y02415*
X0455Y02417*
G37*
G36*
X0442Y02415D02*
X04413D01*
X04407Y02413*
X04401Y02409*
X04396Y02405*
X04393Y02399*
X04391Y02392*
Y02386*
X04393Y02379*
X04396Y02373*
X04401Y02368*
X04407Y02365*
X04413Y02363*
X0442*
X04426Y02365*
X04432Y02368*
X04437Y02373*
X0444Y02379*
X04442Y02386*
Y02392*
X0444Y02399*
X04437Y02405*
X04432Y02409*
X04426Y02413*
X0442Y02415*
G37*
G36*
X04984Y02477D02*
X04817D01*
Y02332*
X04984*
Y02477*
G37*
G36*
X04797D02*
X04629D01*
Y02332*
X04797*
Y02477*
G37*
G36*
X04984Y02312D02*
X04817D01*
Y02168*
X04984*
Y02312*
G37*
G36*
X04797D02*
X04629D01*
Y02168*
X04797*
Y02312*
G37*
G36*
X04452Y0208D02*
X04445D01*
X04438Y02078*
X04433Y02075*
X04428Y0207*
X04424Y02065*
X04423Y02058*
Y02051*
X04424Y02045*
X04428Y02039*
X04433Y02034*
X04438Y02031*
X04445Y02029*
X04452*
X04458Y02031*
X04464Y02034*
X04469Y02039*
X04472Y02045*
X04474Y02051*
Y02058*
X04472Y02065*
X04469Y0207*
X04464Y02075*
X04458Y02078*
X04452Y0208*
G37*
G36*
X04294Y02041D02*
X04287D01*
X04281Y02039*
X04275Y02036*
X0427Y02031*
X04267Y02025*
X04265Y02019*
Y02012*
X04267Y02005*
X0427Y02*
X04275Y01995*
X04281Y01991*
X04287Y0199*
X04294*
X04301Y01991*
X04307Y01995*
X04311Y02*
X04315Y02005*
X04316Y02012*
Y02019*
X04315Y02025*
X04311Y02031*
X04307Y02036*
X04301Y02039*
X04294Y02041*
G37*
G36*
X05284Y02096D02*
X05266D01*
X05249Y02093*
X05233Y02086*
X05219Y02076*
X05206Y02064*
X05197Y02049*
X0519Y02033*
X05187Y02016*
Y01999*
X0519Y01982*
X05197Y01965*
X05206Y01951*
X05219Y01939*
X05233Y01929*
X05249Y01922*
X05266Y01919*
X05284*
X05301Y01922*
X05317Y01929*
X05332Y01939*
X05344Y01951*
X05354Y01965*
X0536Y01982*
X05364Y01999*
Y02016*
X0536Y02033*
X05354Y02049*
X05344Y02064*
X05332Y02076*
X05317Y02086*
X05301Y02093*
X05284Y02096*
G37*
G36*
X04957Y01773D02*
X04945D01*
X04932Y01771*
X04921Y01766*
X04911Y01759*
X04902Y0175*
X04895Y0174*
X0489Y01729*
X04888Y01716*
Y01704*
X0489Y01692*
X04895Y0168*
X04902Y0167*
X04911Y01661*
X04921Y01654*
X04932Y0165*
X04945Y01647*
X04957*
X04969Y0165*
X04981Y01654*
X04991Y01661*
X05Y0167*
X05007Y0168*
X05011Y01692*
X05014Y01704*
Y01716*
X05011Y01729*
X05007Y0174*
X05Y0175*
X04991Y01759*
X04981Y01766*
X04969Y01771*
X04957Y01773*
G37*
G36*
X04457Y01653D02*
X0444D01*
X04422Y0165*
X04406Y01643*
X04392Y01633*
X0438Y01621*
X0437Y01606*
X04363Y0159*
X0436Y01573*
Y01556*
X04363Y01539*
X0437Y01523*
X0438Y01508*
X04392Y01496*
X04406Y01486*
X04422Y01479*
X0444Y01476*
X04457*
X04474Y01479*
X0449Y01486*
X04505Y01496*
X04517Y01508*
X04527Y01523*
X04534Y01539*
X04537Y01556*
Y01573*
X04534Y0159*
X04527Y01606*
X04517Y01621*
X04505Y01633*
X0449Y01643*
X04474Y0165*
X04457Y01653*
G37*
G36*
X04983Y01572D02*
X04816D01*
Y01427*
X04983*
Y01572*
G37*
G36*
X04796D02*
X04629D01*
Y01427*
X04796*
Y01572*
G37*
G36*
X06824Y01265D02*
X06817D01*
X0681Y01264*
X06805Y0126*
X068Y01255*
X06797Y0125*
X06795Y01243*
Y01236*
X06797Y0123*
X068Y01224*
X06805Y01219*
X0681Y01216*
X06817Y01214*
X06824*
X0683Y01216*
X06836Y01219*
X06841Y01224*
X06844Y0123*
X06846Y01236*
Y01243*
X06844Y0125*
X06841Y01255*
X06836Y0126*
X0683Y01264*
X06824Y01265*
G37*
G36*
X06095D02*
X06089D01*
X06082Y01264*
X06076Y0126*
X06072Y01255*
X06068Y0125*
X06066Y01243*
Y01236*
X06068Y0123*
X06072Y01224*
X06076Y01219*
X06082Y01216*
X06089Y01214*
X06095*
X06102Y01216*
X06108Y01219*
X06113Y01224*
X06116Y0123*
X06118Y01236*
Y01243*
X06116Y0125*
X06113Y01255*
X06108Y0126*
X06102Y01264*
X06095Y01265*
G37*
G36*
X05283Y0119D02*
X05266D01*
X05249Y01187*
X05232Y0118*
X05218Y01171*
X05206Y01158*
X05196Y01144*
X05189Y01128*
X05186Y01111*
Y01093*
X05189Y01076*
X05196Y0106*
X05206Y01045*
X05218Y01033*
X05232Y01023*
X05249Y01017*
X05266Y01013*
X05283*
X053Y01017*
X05316Y01023*
X05331Y01033*
X05343Y01045*
X05353Y0106*
X0536Y01076*
X05363Y01093*
Y01111*
X0536Y01128*
X05353Y01144*
X05343Y01158*
X05331Y01171*
X05316Y0118*
X053Y01187*
X05283Y0119*
G37*
G36*
X04616Y01053D02*
X04488D01*
Y00925*
X04616*
Y01053*
G37*
G36*
X04468D02*
X0434D01*
Y00925*
X04468*
Y01053*
G37*
G36*
X0684Y00861D02*
X06838Y00861D01*
X06827Y00858*
X06816Y00852*
X06816Y00852*
X0684*
Y00861*
G37*
G36*
X06726D02*
Y00852D01*
X0675*
X06749Y00852*
X06739Y00858*
X06728Y00861*
X06726Y00861*
G37*
G36*
X0686D02*
Y00797D01*
X0691*
Y00802*
X06909Y00814*
X06906Y00825*
X069Y00835*
X06893Y00845*
X06883Y00852*
X06873Y00858*
X06862Y00861*
X0686Y00861*
G37*
G36*
X06706D02*
X06704Y00861D01*
X06693Y00858*
X06682Y00852*
X06673Y00845*
X06666Y00835*
X0666Y00825*
X06657Y00814*
X06656Y00802*
Y00797*
X06706*
Y00861*
G37*
G36*
X0684Y00722D02*
X06816D01*
X06816Y00722*
X06827Y00716*
X06838Y00713*
X0684Y00713*
Y00722*
G37*
G36*
X06706Y00777D02*
X06656D01*
Y00772*
X06657Y0076*
X0666Y00749*
X06666Y00738*
X06673Y00729*
X06682Y00722*
X06693Y00716*
X06704Y00713*
X06706Y00713*
Y00777*
G37*
G36*
X0691D02*
X0686D01*
Y00713*
X06862Y00713*
X06873Y00716*
X06883Y00722*
X06893Y00729*
X069Y00738*
X06906Y00749*
X06909Y0076*
X0691Y00772*
Y00777*
G37*
G36*
X0675Y00722D02*
X06726D01*
Y00713*
X06728Y00713*
X06739Y00716*
X06749Y00722*
X0675Y00722*
G37*
G36*
X07472Y00455D02*
Y00403D01*
X07523*
X07521Y00411*
X07517Y00423*
X0751Y00433*
X07501Y00441*
X07491Y00448*
X0748Y00453*
X07472Y00455*
G37*
G36*
X07452D02*
X07444Y00453D01*
X07432Y00448*
X07422Y00441*
X07413Y00433*
X07407Y00423*
X07402Y00411*
X074Y00403*
X07452*
Y00455*
G37*
G36*
X07523Y00383D02*
X07472D01*
Y00332*
X0748Y00333*
X07491Y00338*
X07501Y00345*
X0751Y00354*
X07517Y00364*
X07521Y00375*
X07523Y00383*
G37*
G36*
X07452D02*
X074D01*
X07402Y00375*
X07407Y00364*
X07413Y00354*
X07422Y00345*
X07432Y00338*
X07444Y00333*
X07452Y00332*
Y00383*
G37*
G36*
X03999Y00872D02*
X03944D01*
Y00797*
X03999*
Y00872*
G37*
G36*
X03924D02*
X03869D01*
Y00797*
X03924*
Y00872*
G37*
G36*
X03999Y00777D02*
X03944D01*
Y00702*
X03999*
Y00777*
G37*
G36*
X03924D02*
X03869D01*
Y00702*
X03924*
Y00777*
G37*
G36*
X0461Y00722D02*
X04578D01*
Y00663*
X0461*
Y00722*
G37*
G36*
X04429D02*
X04397D01*
Y00663*
X04429*
Y00722*
G37*
G36*
X04558D02*
X04527D01*
Y00663*
X04558*
Y00722*
G37*
G36*
X04377D02*
X04346D01*
Y00663*
X04377*
Y00722*
G37*
G36*
X0461Y00643D02*
X04578D01*
Y00584*
X0461*
Y00643*
G37*
G36*
X04558D02*
X04527D01*
Y00584*
X04558*
Y00643*
G37*
G36*
X04429D02*
X04397D01*
Y00584*
X04429*
Y00643*
G37*
G36*
X04377D02*
X04346D01*
Y00584*
X04377*
Y00643*
G37*
G36*
X04389Y00578D02*
X04378D01*
X04368Y00576*
X04359Y0057*
X04352Y00563*
X04347Y00554*
X04344Y00544*
Y00534*
X04347Y00524*
X04352Y00515*
X04359Y00507*
X04368Y00502*
X04378Y00499*
X04389*
X04399Y00502*
X04408Y00507*
X04415Y00515*
X0442Y00524*
X04423Y00534*
Y00544*
X0442Y00554*
X04415Y00563*
X04408Y0057*
X04399Y00576*
X04389Y00578*
G37*
G36*
X0397Y00547D02*
X03948D01*
Y00482*
X0397*
Y00547*
G37*
G36*
X03928D02*
X03907D01*
Y00482*
X03928*
Y00547*
G37*
G36*
X07324Y00455D02*
X07272D01*
Y00403*
X07324*
Y00455*
G37*
G36*
X07252D02*
X072D01*
Y00403*
X07252*
Y00455*
G37*
G36*
X0397Y00462D02*
X03948D01*
Y00397*
X0397*
Y00462*
G37*
G36*
X03928D02*
X03907D01*
Y00397*
X03928*
Y00462*
G37*
G36*
X04645Y00411D02*
Y00385D01*
X04672*
X0467Y00389*
X04665Y00398*
X04658Y00405*
X0465Y0041*
X04645Y00411*
G37*
G36*
X04488D02*
Y00385D01*
X04514*
X04513Y00389*
X04508Y00398*
X04501Y00405*
X04492Y0041*
X04488Y00411*
G37*
G36*
X04567D02*
Y00385D01*
X04593*
X04592Y00389*
X04587Y00398*
X0458Y00405*
X04571Y0041*
X04567Y00411*
G37*
G36*
X04409D02*
Y00385D01*
X04435*
X04434Y00389*
X04429Y00398*
X04422Y00405*
X04414Y0041*
X04409Y00411*
G37*
G36*
X04724D02*
Y00385D01*
X0475*
X04749Y00389*
X04744Y00398*
X04737Y00405*
X04729Y0041*
X04724Y00411*
G37*
G36*
X04547D02*
X04542Y0041D01*
X04534Y00405*
X04527Y00398*
X04522Y00389*
X0452Y00385*
X04547*
Y00411*
G37*
G36*
X04389D02*
X04385Y0041D01*
X04376Y00405*
X04369Y00398*
X04364Y00389*
X04363Y00385*
X04389*
Y00411*
G37*
G36*
X04704D02*
X047Y0041D01*
X04691Y00405*
X04684Y00398*
X04679Y00389*
X04678Y00385*
X04704*
Y00411*
G37*
G36*
X04625D02*
X04621Y0041D01*
X04612Y00405*
X04605Y00398*
X046Y00389*
X04599Y00385*
X04625*
Y00411*
G37*
G36*
X04468D02*
X04463Y0041D01*
X04455Y00405*
X04448Y00398*
X04443Y00389*
X04442Y00385*
X04468*
Y00411*
G37*
G36*
X06041Y00491D02*
X06029D01*
X06018Y00488*
X06007Y00484*
X05997Y00477*
X05989Y00469*
X05983Y0046*
X05978Y00449*
X05976Y00437*
Y00426*
X05978Y00414*
X05983Y00404*
X05989Y00394*
X05997Y00386*
X06007Y00379*
X06018Y00375*
X06029Y00373*
X06041*
X06052Y00375*
X06063Y00379*
X06073Y00386*
X06081Y00394*
X06087Y00404*
X06092Y00414*
X06094Y00426*
Y00437*
X06092Y00449*
X06087Y0046*
X06081Y00469*
X06073Y00477*
X06063Y00484*
X06052Y00488*
X06041Y00491*
G37*
G36*
X04206D02*
X04194D01*
X04183Y00488*
X04172Y00484*
X04163Y00477*
X04154Y00469*
X04148Y0046*
X04144Y00449*
X04141Y00437*
Y00426*
X04144Y00414*
X04148Y00404*
X04154Y00394*
X04163Y00386*
X04172Y00379*
X04183Y00375*
X04194Y00373*
X04206*
X04218Y00375*
X04228Y00379*
X04238Y00386*
X04246Y00394*
X04253Y00404*
X04257Y00414*
X04259Y00426*
Y00437*
X04257Y00449*
X04253Y0046*
X04246Y00469*
X04238Y00477*
X04228Y00484*
X04218Y00488*
X04206Y00491*
G37*
G36*
X04932Y00396D02*
X04896D01*
Y00365*
X04932*
Y00396*
G37*
G36*
X05365D02*
X05329D01*
Y00365*
X05365*
Y00396*
G37*
G36*
X0504D02*
X05005D01*
Y00365*
X0504*
Y00396*
G37*
G36*
X05148D02*
X05113D01*
Y00365*
X05148*
Y00396*
G37*
G36*
X05257D02*
X05221D01*
Y00365*
X05257*
Y00396*
G37*
G36*
X05201D02*
X05166D01*
Y00365*
X05201*
Y00396*
G37*
G36*
X05093D02*
X05057D01*
Y00365*
X05093*
Y00396*
G37*
G36*
X05309D02*
X05274D01*
Y00365*
X05309*
Y00396*
G37*
G36*
X04985D02*
X04949D01*
Y00365*
X04985*
Y00396*
G37*
G36*
X04876D02*
X04841D01*
Y00365*
X04876*
Y00396*
G37*
G36*
X04672Y00365D02*
X04645D01*
Y00338*
X0465Y0034*
X04658Y00344*
X04665Y00351*
X0467Y0036*
X04672Y00365*
G37*
G36*
X04514D02*
X04488D01*
Y00338*
X04492Y0034*
X04501Y00344*
X04508Y00351*
X04513Y0036*
X04514Y00365*
G37*
G36*
X04704D02*
X04678D01*
X04679Y0036*
X04684Y00351*
X04691Y00344*
X047Y0034*
X04704Y00338*
Y00365*
G37*
G36*
X04547D02*
X0452D01*
X04522Y0036*
X04527Y00351*
X04534Y00344*
X04542Y0034*
X04547Y00338*
Y00365*
G37*
G36*
X04389D02*
X04363D01*
X04364Y0036*
X04369Y00351*
X04376Y00344*
X04385Y0034*
X04389Y00338*
Y00365*
G37*
G36*
X0475D02*
X04724D01*
Y00338*
X04729Y0034*
X04737Y00344*
X04744Y00351*
X04749Y0036*
X0475Y00365*
G37*
G36*
X04593D02*
X04567D01*
Y00338*
X04571Y0034*
X0458Y00344*
X04587Y00351*
X04592Y0036*
X04593Y00365*
G37*
G36*
X04435D02*
X04409D01*
Y00338*
X04414Y0034*
X04422Y00344*
X04429Y00351*
X04434Y0036*
X04435Y00365*
G37*
G36*
X04625D02*
X04599D01*
X046Y0036*
X04605Y00351*
X04612Y00344*
X04621Y0034*
X04625Y00338*
Y00365*
G37*
G36*
X04468D02*
X04442D01*
X04443Y0036*
X04448Y00351*
X04455Y00344*
X04463Y0034*
X04468Y00338*
Y00365*
G37*
G36*
X07324Y00383D02*
X07272D01*
Y00331*
X07324*
Y00383*
G37*
G36*
X07252D02*
X072D01*
Y00331*
X07252*
Y00383*
G37*
G36*
X05257Y00345D02*
X05211D01*
X05166*
Y00313*
Y00306*
X05211*
X05257*
Y00313*
Y00345*
G37*
G36*
X05148D02*
X05103D01*
X05057*
Y00313*
Y00306*
X05103*
X05148*
Y00313*
Y00345*
G37*
G36*
X05365D02*
X05319D01*
X05274*
Y00313*
Y00306*
X05319*
X05365*
Y00313*
Y00345*
G37*
G36*
X0504D02*
X04995D01*
X04949*
Y00313*
Y00306*
X04995*
X0504*
Y00313*
Y00345*
G37*
G36*
X04932D02*
X04886D01*
X04841*
Y00313*
Y00306*
X04886*
X04932*
Y00313*
Y00345*
G37*
G36*
X04645Y00332D02*
Y00306D01*
X04672*
X0467Y0031*
X04665Y00319*
X04658Y00326*
X0465Y00331*
X04645Y00332*
G37*
G36*
X04488D02*
Y00306D01*
X04514*
X04513Y0031*
X04508Y00319*
X04501Y00326*
X04492Y00331*
X04488Y00332*
G37*
G36*
X04567D02*
Y00306D01*
X04593*
X04592Y0031*
X04587Y00319*
X0458Y00326*
X04571Y00331*
X04567Y00332*
G37*
G36*
X04409D02*
Y00306D01*
X04435*
X04434Y0031*
X04429Y00319*
X04422Y00326*
X04414Y00331*
X04409Y00332*
G37*
G36*
X04724D02*
Y00306D01*
X0475*
X04749Y0031*
X04744Y00319*
X04737Y00326*
X04729Y00331*
X04724Y00332*
G37*
G36*
X04547D02*
X04542Y00331D01*
X04534Y00326*
X04527Y00319*
X04522Y0031*
X0452Y00306*
X04547*
Y00332*
G37*
G36*
X04389D02*
X04385Y00331D01*
X04376Y00326*
X04369Y00319*
X04364Y0031*
X04363Y00306*
X04389*
Y00332*
G37*
G36*
X04704D02*
X047Y00331D01*
X04691Y00326*
X04684Y00319*
X04679Y0031*
X04678Y00306*
X04704*
Y00332*
G37*
G36*
X04625D02*
X04621Y00331D01*
X04612Y00326*
X04605Y00319*
X046Y0031*
X04599Y00306*
X04625*
Y00332*
G37*
G36*
X04468D02*
X04463Y00331D01*
X04455Y00326*
X04448Y00319*
X04443Y0031*
X04442Y00306*
X04468*
Y00332*
G37*
G36*
X04672Y00286D02*
X04645D01*
Y0026*
X0465Y00261*
X04658Y00266*
X04665Y00273*
X0467Y00281*
X04672Y00286*
G37*
G36*
X04514D02*
X04488D01*
Y0026*
X04492Y00261*
X04501Y00266*
X04508Y00273*
X04513Y00281*
X04514Y00286*
G37*
G36*
X04704D02*
X04678D01*
X04679Y00281*
X04684Y00273*
X04691Y00266*
X047Y00261*
X04704Y0026*
Y00286*
G37*
G36*
X04547D02*
X0452D01*
X04522Y00281*
X04527Y00273*
X04534Y00266*
X04542Y00261*
X04547Y0026*
Y00286*
G37*
G36*
X04389D02*
X04363D01*
X04364Y00281*
X04369Y00273*
X04376Y00266*
X04385Y00261*
X04389Y0026*
Y00286*
G37*
G36*
X0475D02*
X04724D01*
Y0026*
X04729Y00261*
X04737Y00266*
X04744Y00273*
X04749Y00281*
X0475Y00286*
G37*
G36*
X04593D02*
X04567D01*
Y0026*
X04571Y00261*
X0458Y00266*
X04587Y00273*
X04592Y00281*
X04593Y00286*
G37*
G36*
X04435D02*
X04409D01*
Y0026*
X04414Y00261*
X04422Y00266*
X04429Y00273*
X04434Y00281*
X04435Y00286*
G37*
G36*
X04625D02*
X04599D01*
X046Y00281*
X04605Y00273*
X04612Y00266*
X04621Y00261*
X04625Y0026*
Y00286*
G37*
G36*
X04468D02*
X04442D01*
X04443Y00281*
X04448Y00273*
X04455Y00266*
X04463Y00261*
X04468Y0026*
Y00286*
G37*
G36*
X05257D02*
X05211D01*
X05166*
Y00254*
Y00247*
X05211*
X05257*
Y00254*
Y00286*
G37*
G36*
X05148D02*
X05103D01*
X05057*
Y00254*
Y00247*
X05103*
X05148*
Y00254*
Y00286*
G37*
G36*
X05365D02*
X05319D01*
X05274*
Y00254*
Y00247*
X05319*
X05365*
Y00254*
Y00286*
G37*
G36*
X0504D02*
X04995D01*
X04949*
Y00254*
Y00247*
X04995*
X0504*
Y00254*
Y00286*
G37*
G36*
X04932D02*
X04886D01*
X04841*
Y00254*
Y00247*
X04886*
X04932*
Y00254*
Y00286*
G37*
G36*
X04645Y00253D02*
Y00227D01*
X04672*
X0467Y00232*
X04665Y0024*
X04658Y00247*
X0465Y00252*
X04645Y00253*
G37*
G36*
X04488D02*
Y00227D01*
X04514*
X04513Y00232*
X04508Y0024*
X04501Y00247*
X04492Y00252*
X04488Y00253*
G37*
G36*
X04409D02*
Y00227D01*
X04435*
X04434Y00232*
X04429Y0024*
X04422Y00247*
X04414Y00252*
X04409Y00253*
G37*
G36*
X04389D02*
X04385Y00252D01*
X04376Y00247*
X04369Y0024*
X04364Y00232*
X04363Y00227*
X04389*
Y00253*
G37*
G36*
X04625D02*
X04621Y00252D01*
X04612Y00247*
X04605Y0024*
X046Y00232*
X04599Y00227*
X04625*
Y00253*
G37*
G36*
X04468D02*
X04463Y00252D01*
X04455Y00247*
X04448Y0024*
X04443Y00232*
X04442Y00227*
X04468*
Y00253*
G37*
G36*
X05257Y00227D02*
X05211D01*
X05166*
Y00195*
Y00188*
X05211*
X05257*
Y00195*
Y00227*
G37*
G36*
X05148D02*
X05103D01*
X05057*
Y00195*
Y00188*
X05103*
X05148*
Y00195*
Y00227*
G37*
G36*
X05365D02*
X05319D01*
X05274*
Y00195*
Y00188*
X05319*
X05365*
Y00195*
Y00227*
G37*
G36*
X0504D02*
X04995D01*
X04949*
Y00195*
Y00188*
X04995*
X0504*
Y00195*
Y00227*
G37*
G36*
X04932D02*
X04886D01*
X04841*
Y00195*
Y00188*
X04886*
X04932*
Y00195*
Y00227*
G37*
G36*
X04672Y00207D02*
X04645D01*
Y00181*
X0465Y00182*
X04658Y00187*
X04665Y00194*
X0467Y00203*
X04672Y00207*
G37*
G36*
X04514D02*
X04488D01*
Y00181*
X04492Y00182*
X04501Y00187*
X04508Y00194*
X04513Y00203*
X04514Y00207*
G37*
G36*
X04389D02*
X04363D01*
X04364Y00203*
X04369Y00194*
X04376Y00187*
X04385Y00182*
X04389Y00181*
Y00207*
G37*
G36*
X04435D02*
X04409D01*
Y00181*
X04414Y00182*
X04422Y00187*
X04429Y00194*
X04434Y00203*
X04435Y00207*
G37*
G36*
X04625D02*
X04599D01*
X046Y00203*
X04605Y00194*
X04612Y00187*
X04621Y00182*
X04625Y00181*
Y00207*
G37*
G36*
X04468D02*
X04442D01*
X04443Y00203*
X04448Y00194*
X04455Y00187*
X04463Y00182*
X04468Y00181*
Y00207*
G37*
G36*
X04719Y00254D02*
X04709D01*
X047Y00252*
X04691Y00247*
X04684Y0024*
X04679Y00231*
X04677Y00222*
Y00212*
X04679Y00203*
X04684Y00194*
X04691Y00187*
X047Y00182*
X04709Y0018*
X04719*
X04729Y00182*
X04737Y00187*
X04744Y00194*
X04749Y00203*
X04751Y00212*
Y00222*
X04749Y00231*
X04744Y0024*
X04737Y00247*
X04729Y00252*
X04719Y00254*
G37*
G36*
X04562D02*
X04552D01*
X04542Y00252*
X04534Y00247*
X04527Y0024*
X04522Y00231*
X04519Y00222*
Y00212*
X04522Y00203*
X04527Y00194*
X04534Y00187*
X04542Y00182*
X04552Y0018*
X04562*
X04571Y00182*
X0458Y00187*
X04587Y00194*
X04591Y00203*
X04594Y00212*
Y00222*
X04591Y00231*
X04587Y0024*
X0458Y00247*
X04571Y00252*
X04562Y00254*
G37*
G36*
X04645Y00174D02*
Y00148D01*
X04672*
X0467Y00153*
X04665Y00161*
X04658Y00168*
X0465Y00173*
X04645Y00174*
G37*
G36*
X04488D02*
Y00148D01*
X04514*
X04513Y00153*
X04508Y00161*
X04501Y00168*
X04492Y00173*
X04488Y00174*
G37*
G36*
X04625D02*
X04621Y00173D01*
X04612Y00168*
X04605Y00161*
X046Y00153*
X04599Y00148*
X04625*
Y00174*
G37*
G36*
X04468D02*
X04463Y00173D01*
X04455Y00168*
X04448Y00161*
X04443Y00153*
X04442Y00148*
X04468*
Y00174*
G37*
G36*
X05257Y00168D02*
X05211D01*
X05166*
Y00136*
Y00129*
X05211*
X05257*
Y00136*
Y00168*
G37*
G36*
X05148D02*
X05103D01*
X05057*
Y00136*
Y00129*
X05103*
X05148*
Y00136*
Y00168*
G37*
G36*
X05365D02*
X05319D01*
X05274*
Y00136*
Y00129*
X05319*
X05365*
Y00136*
Y00168*
G37*
G36*
X0504D02*
X04995D01*
X04949*
Y00136*
Y00129*
X04995*
X0504*
Y00136*
Y00168*
G37*
G36*
X04932D02*
X04886D01*
X04841*
Y00136*
Y00129*
X04886*
X04932*
Y00136*
Y00168*
G37*
G36*
X04672Y00128D02*
X04645D01*
Y00102*
X0465Y00103*
X04658Y00108*
X04665Y00115*
X0467Y00124*
X04672Y00128*
G37*
G36*
X04514D02*
X04488D01*
Y00102*
X04492Y00103*
X04501Y00108*
X04508Y00115*
X04513Y00124*
X04514Y00128*
G37*
G36*
X04625D02*
X04599D01*
X046Y00124*
X04605Y00115*
X04612Y00108*
X04621Y00103*
X04625Y00102*
Y00128*
G37*
G36*
X04468D02*
X04442D01*
X04443Y00124*
X04448Y00115*
X04455Y00108*
X04463Y00103*
X04468Y00102*
Y00128*
G37*
G36*
X04719Y00176D02*
X04709D01*
X047Y00173*
X04691Y00168*
X04684Y00161*
X04679Y00153*
X04677Y00143*
Y00133*
X04679Y00124*
X04684Y00115*
X04691Y00108*
X047Y00103*
X04709Y00101*
X04719*
X04729Y00103*
X04737Y00108*
X04744Y00115*
X04749Y00124*
X04751Y00133*
Y00143*
X04749Y00153*
X04744Y00161*
X04737Y00168*
X04729Y00173*
X04719Y00176*
G37*
G36*
X04562D02*
X04552D01*
X04542Y00173*
X04534Y00168*
X04527Y00161*
X04522Y00153*
X04519Y00143*
Y00133*
X04522Y00124*
X04527Y00115*
X04534Y00108*
X04542Y00103*
X04552Y00101*
X04562*
X04571Y00103*
X0458Y00108*
X04587Y00115*
X04591Y00124*
X04594Y00133*
Y00143*
X04591Y00153*
X04587Y00161*
X0458Y00168*
X04571Y00173*
X04562Y00176*
G37*
G36*
X04404D02*
X04394D01*
X04385Y00173*
X04376Y00168*
X04369Y00161*
X04364Y00153*
X04362Y00143*
Y00133*
X04364Y00124*
X04369Y00115*
X04376Y00108*
X04385Y00103*
X04394Y00101*
X04404*
X04414Y00103*
X04422Y00108*
X04429Y00115*
X04434Y00124*
X04437Y00133*
Y00143*
X04434Y00153*
X04429Y00161*
X04422Y00168*
X04414Y00173*
X04404Y00176*
G37*
G36*
X04645Y00096D02*
Y0007D01*
X04672*
X0467Y00074*
X04665Y00083*
X04658Y0009*
X0465Y00095*
X04645Y00096*
G37*
G36*
X04488D02*
Y0007D01*
X04514*
X04513Y00074*
X04508Y00083*
X04501Y0009*
X04492Y00095*
X04488Y00096*
G37*
G36*
X04625D02*
X04621Y00095D01*
X04612Y0009*
X04605Y00083*
X046Y00074*
X04599Y0007*
X04625*
Y00096*
G37*
G36*
X04468D02*
X04463Y00095D01*
X04455Y0009*
X04448Y00083*
X04443Y00074*
X04442Y0007*
X04468*
Y00096*
G37*
G36*
X05257Y00109D02*
X05211D01*
X05166*
Y00077*
Y0007*
X05211*
X05257*
Y00077*
Y00109*
G37*
G36*
X05148D02*
X05103D01*
X05057*
Y00077*
Y0007*
X05103*
X05148*
Y00077*
Y00109*
G37*
G36*
X05365D02*
X05319D01*
X05274*
Y00077*
Y0007*
X05319*
X05365*
Y00077*
Y00109*
G37*
G36*
X0504D02*
X04995D01*
X04949*
Y00077*
Y0007*
X04995*
X0504*
Y00077*
Y00109*
G37*
G36*
X04932D02*
X04886D01*
X04841*
Y00077*
Y0007*
X04886*
X04932*
Y00077*
Y00109*
G37*
G36*
X04672Y0005D02*
X04645D01*
Y00023*
X0465Y00025*
X04658Y00029*
X04665Y00036*
X0467Y00045*
X04672Y0005*
G37*
G36*
X04514D02*
X04488D01*
Y00023*
X04492Y00025*
X04501Y00029*
X04508Y00036*
X04513Y00045*
X04514Y0005*
G37*
G36*
X04625D02*
X04599D01*
X046Y00045*
X04605Y00036*
X04612Y00029*
X04621Y00025*
X04625Y00023*
Y0005*
G37*
G36*
X04468D02*
X04442D01*
X04443Y00045*
X04448Y00036*
X04455Y00029*
X04463Y00025*
X04468Y00023*
Y0005*
G37*
G36*
X04719Y00097D02*
X04709D01*
X047Y00094*
X04691Y00089*
X04684Y00083*
X04679Y00074*
X04677Y00064*
Y00055*
X04679Y00045*
X04684Y00037*
X04691Y0003*
X047Y00025*
X04709Y00022*
X04719*
X04729Y00025*
X04737Y0003*
X04744Y00037*
X04749Y00045*
X04751Y00055*
Y00064*
X04749Y00074*
X04744Y00083*
X04737Y00089*
X04729Y00094*
X04719Y00097*
G37*
G36*
X04562D02*
X04552D01*
X04542Y00094*
X04534Y00089*
X04527Y00083*
X04522Y00074*
X04519Y00064*
Y00055*
X04522Y00045*
X04527Y00037*
X04534Y0003*
X04542Y00025*
X04552Y00022*
X04562*
X04571Y00025*
X0458Y0003*
X04587Y00037*
X04591Y00045*
X04594Y00055*
Y00064*
X04591Y00074*
X04587Y00083*
X0458Y00089*
X04571Y00094*
X04562Y00097*
G37*
G36*
X04404D02*
X04394D01*
X04385Y00094*
X04376Y00089*
X04369Y00083*
X04364Y00074*
X04362Y00064*
Y00055*
X04364Y00045*
X04369Y00037*
X04376Y0003*
X04385Y00025*
X04394Y00022*
X04404*
X04414Y00025*
X04422Y0003*
X04429Y00037*
X04434Y00045*
X04437Y00055*
Y00064*
X04434Y00074*
X04429Y00083*
X04422Y00089*
X04414Y00094*
X04404Y00097*
G37*
G36*
X05365Y0005D02*
X05329D01*
Y00018*
X05365*
Y0005*
G37*
G36*
X05309D02*
X05274D01*
Y00018*
X05309*
Y0005*
G37*
G36*
X05257D02*
X05221D01*
Y00018*
X05257*
Y0005*
G37*
G36*
X05201D02*
X05166D01*
Y00018*
X05201*
Y0005*
G37*
G36*
X05148D02*
X05113D01*
Y00018*
X05148*
Y0005*
G37*
G36*
X05093D02*
X05057D01*
Y00018*
X05093*
Y0005*
G37*
G36*
X0504D02*
X05005D01*
Y00018*
X0504*
Y0005*
G37*
G36*
X04985D02*
X04949D01*
Y00018*
X04985*
Y0005*
G37*
G36*
X04932D02*
X04896D01*
Y00018*
X04932*
Y0005*
G37*
G36*
X04876D02*
X04841D01*
Y00018*
X04876*
Y0005*
G37*
G36*
X05906Y00396D02*
X05871D01*
Y00365*
X05906*
Y00396*
G37*
G36*
X05798D02*
X05762D01*
Y00365*
X05798*
Y00396*
G37*
G36*
X05473D02*
X05438D01*
Y00365*
X05473*
Y00396*
G37*
G36*
X05581D02*
X05546D01*
Y00365*
X05581*
Y00396*
G37*
G36*
X0569D02*
X05654D01*
Y00365*
X0569*
Y00396*
G37*
G36*
X05634D02*
X05599D01*
Y00365*
X05634*
Y00396*
G37*
G36*
X05526D02*
X0549D01*
Y00365*
X05526*
Y00396*
G37*
G36*
X05742D02*
X05707D01*
Y00365*
X05742*
Y00396*
G37*
G36*
X05851D02*
X05815D01*
Y00365*
X05851*
Y00396*
G37*
G36*
X0569Y00345D02*
X05644D01*
X05599*
Y00313*
Y00306*
X05644*
X0569*
Y00313*
Y00345*
G37*
G36*
X05581D02*
X05536D01*
X0549*
Y00313*
Y00306*
X05536*
X05581*
Y00313*
Y00345*
G37*
G36*
X05752Y00355D02*
D01*
Y00345*
X05707*
Y00313*
Y00306*
X05752*
X05798*
Y00313*
Y00345*
X05752*
Y00355*
G37*
G36*
X05906Y00345D02*
X05861D01*
X05815*
Y00313*
Y00306*
X05861*
X05906*
Y00313*
Y00345*
G37*
G36*
X0569Y00286D02*
X05644D01*
X05599*
Y00254*
Y00247*
X05644*
X0569*
Y00254*
Y00286*
G37*
G36*
X05581D02*
X05536D01*
X0549*
Y00254*
Y00247*
X05536*
X05581*
Y00254*
Y00286*
G37*
G36*
X05798D02*
X05752D01*
X05707*
Y00254*
Y00247*
X05752*
X05798*
Y00254*
Y00286*
G37*
G36*
X05906D02*
X05861D01*
X05815*
Y00254*
Y00247*
X05861*
X05906*
Y00254*
Y00286*
G37*
G36*
X0569Y00227D02*
X05644D01*
X05599*
Y00195*
Y00188*
X05644*
X0569*
Y00195*
Y00227*
G37*
G36*
X05581D02*
X05536D01*
X0549*
Y00195*
Y00188*
X05536*
X05581*
Y00195*
Y00227*
G37*
G36*
X05798D02*
X05752D01*
X05707*
Y00195*
Y00188*
X05752*
X05798*
Y00195*
Y00227*
G37*
G36*
X05906D02*
X05861D01*
X05815*
Y00195*
Y00188*
X05861*
X05906*
Y00195*
Y00227*
G37*
G36*
X0569Y00168D02*
X05644D01*
X05599*
Y00136*
Y00129*
X05644*
X0569*
Y00136*
Y00168*
G37*
G36*
X05581D02*
X05536D01*
X0549*
Y00136*
Y00129*
X05536*
X05581*
Y00136*
Y00168*
G37*
G36*
X05798D02*
X05752D01*
X05707*
Y00136*
Y00129*
X05752*
X05798*
Y00136*
Y00168*
G37*
G36*
X05906D02*
X05861D01*
X05815*
Y00136*
Y00129*
X05861*
X05906*
Y00136*
Y00168*
G37*
G36*
X0569Y00109D02*
X05644D01*
X05599*
Y00077*
Y0007*
X05644*
X0569*
Y00077*
Y00109*
G37*
G36*
X05798D02*
X05752D01*
X05707*
Y00077*
Y0007*
X05752*
X05798*
Y00077*
Y00109*
G37*
G36*
X05906D02*
X05861D01*
X05815*
Y00077*
Y0007*
X05861*
X05906*
Y00077*
Y00109*
G37*
G36*
X05581D02*
X05536D01*
X0549*
Y00077*
Y0007*
X05536*
Y0006*
Y0007*
X05581*
Y00077*
Y00109*
G37*
G36*
X05906Y0005D02*
X05871D01*
Y00018*
X05906*
Y0005*
G37*
G36*
X05851D02*
X05815D01*
Y00018*
X05851*
Y0005*
G37*
G36*
X05798D02*
X05762D01*
Y00018*
X05798*
Y0005*
G37*
G36*
X05742D02*
X05707D01*
Y00018*
X05742*
Y0005*
G37*
G36*
X0569D02*
X05654D01*
Y00018*
X0569*
Y0005*
G37*
G36*
X05634D02*
X05599D01*
Y00018*
X05634*
Y0005*
G37*
G36*
X05581D02*
X05546D01*
Y00018*
X05581*
Y0005*
G37*
G36*
X05526D02*
X0549D01*
Y00018*
X05526*
Y0005*
G37*
G36*
X05473D02*
X05438D01*
Y00018*
X05473*
Y0005*
G37*
%LNpcb1-3*%
%LPD*%
G54D10*
X03776Y05363D02*
X03786Y05374D01*
X03765Y05189D02*
X03767Y05187D01*
X03827D02*
X04035D01*
X03943Y05372D02*
X03986Y05329D01*
Y05272D02*
X04004Y05254D01*
X04017D02*
X04035Y05237D01*
X03943Y05372D02*
Y05374D01*
X03986Y05272D02*
Y05329D01*
X04004Y05254D02*
X04017D01*
X04035Y05187D02*
Y05237D01*
X03767Y05187D02*
X03827D01*
X0372D02*
X03767D01*
X04409Y05393D02*
Y05446D01*
X03569Y02707D02*
X05076D01*
X05119Y0275*
X05816Y03218D02*
X05964Y03366D01*
X06062*
X03389Y02811D02*
X03499D01*
X035Y02812*
X03389Y02811D02*
X03389Y02811D01*
X02874Y03894D02*
X02965Y03985D01*
X02874Y02787D02*
Y03894D01*
X02965Y03985D02*
Y04082D01*
X02755Y02669D02*
X02874Y02787D01*
X0374Y03947D02*
Y0437D01*
Y03947D02*
X04056Y0363D01*
Y03253D02*
Y0363D01*
Y03253D02*
X04298Y03011D01*
X03553Y0269D02*
X03569Y02707D01*
X03597Y05407D02*
X03628Y05375D01*
X03534Y05399D02*
X03542Y05407D01*
X03511Y05374D02*
X03534Y05397D01*
X03628Y05374D02*
Y05375D01*
X03542Y05407D02*
X03597D01*
X03534Y05397D02*
Y05399D01*
X03471Y05374D02*
X03511D01*
X03755Y05407D02*
X03786Y05375D01*
X03692Y05399D02*
X037Y05407D01*
X03669Y05374D02*
X03692Y05397D01*
X03786Y05374D02*
Y05375D01*
X037Y05407D02*
X03755D01*
X03692Y05397D02*
Y05399D01*
X03628Y05374D02*
X03669D01*
X03912Y05407D02*
X03943Y05375D01*
X03849Y05399D02*
X03857Y05407D01*
X03826Y05374D02*
X03849Y05397D01*
X03943Y05374D02*
Y05375D01*
X03857Y05407D02*
X03912D01*
X03849Y05397D02*
Y05399D01*
X03786Y05374D02*
X03826D01*
X03553Y02572D02*
Y0269D01*
Y02572D02*
X03618Y02507D01*
G54D13*
X03011Y02185D02*
Y02222D01*
X03592Y0524D02*
Y05241D01*
X04094Y05265D02*
X04144Y05315D01*
X04488D02*
X04586Y05413D01*
X04512Y05316D02*
X04551Y05355D01*
X04458Y05246D02*
X04512Y05299D01*
X04144Y05315D02*
X04488D01*
X04551Y05355D02*
X04628D01*
X04512Y05299D02*
Y05316D01*
X01664Y03178D02*
X02564Y04078D01*
X01664Y01741D02*
Y03178D01*
X01604Y03188D02*
X02531Y04115D01*
X03443Y0534D02*
X03482Y05302D01*
X03429Y0534D02*
X03443D01*
X03425Y05344D02*
X03429Y0534D01*
X03482Y05295D02*
Y05302D01*
X03592Y05241D02*
X03639Y05288D01*
Y05295*
X01604Y01653D02*
Y03188D01*
X03749Y05281D02*
X03763Y05295D01*
X03729Y05252D02*
X03749Y05272D01*
X03592Y05187D02*
X03657Y05252D01*
X03763Y05295D02*
X03797D01*
X03749Y05272D02*
Y05281D01*
X03657Y05252D02*
X03729D01*
X0394Y05274D02*
X03954Y05288D01*
X03895Y05236D02*
X03934Y05274D01*
X03954Y05288D02*
Y05295D01*
X03934Y05274D02*
X0394D01*
X03695Y05236D02*
X03895D01*
X03651Y05192D02*
X03695Y05236D01*
X03651Y05187D02*
Y05192D01*
X0372Y05009D02*
Y05098D01*
X03719Y05099D02*
X0372Y05098D01*
X01779Y03118D02*
X02677Y04015D01*
X02637Y04055D02*
D01*
X01749Y03166D02*
X02637Y04055D01*
X01749Y01837D02*
Y03166D01*
X01604Y01653D02*
X0183Y01427D01*
X02086*
X01722Y0181D02*
X01749Y01837D01*
X01919Y01486D02*
X02086D01*
X01664Y01741D02*
X01919Y01486D01*
X01779Y01749D02*
Y03118D01*
X01722Y01742D02*
Y0181D01*
Y01742D02*
X01919Y01545D01*
X02086*
X01924Y01604D02*
X02086D01*
X01779Y01749D02*
X01924Y01604D01*
X01846Y0174D02*
Y01938D01*
X04628Y05355D02*
X04686Y05413D01*
X04409Y05246D02*
X04458D01*
X04074Y05127D02*
X04101Y05101D01*
X04172*
X04133Y0516D02*
Y05196D01*
X02082Y01988D02*
Y02271D01*
X02119Y02308*
Y02586*
X02094Y02611D02*
Y0285D01*
Y02611D02*
X02119Y02586D01*
X0372Y05009D02*
X0372Y05009D01*
X05019Y01368D02*
X05314D01*
X05659Y01023*
X02812Y01833D02*
X02814Y0183D01*
X0282*
X02795Y0185D02*
X02812Y01833D01*
X0282Y0183D02*
X03019D01*
X04092Y0329D02*
Y03767D01*
Y0329D02*
X04262Y0312D01*
X0372Y05009D02*
X04035D01*
X04192Y05397D02*
Y05446D01*
X04409Y05146D02*
Y05196D01*
X04192Y05246D02*
X04217D01*
X04232Y05195D02*
Y05231D01*
X04217Y05246D02*
X04232Y05231D01*
X04148Y05146D02*
X04192D01*
X04133Y0516D02*
X04148Y05146D01*
X04192Y05046D02*
Y0508D01*
X04172Y05101D02*
X04192Y0508D01*
X02628Y02333D02*
X02733D01*
X02992Y02074*
X02891Y01916D02*
X02961D01*
X02831Y01857D02*
X02891Y01916D01*
X02977Y02256D02*
X03011Y02222D01*
X03917Y03942D02*
D01*
X04092Y03767*
X02938Y04001D02*
Y04126D01*
X02799Y03862D02*
X02938Y04001D01*
X02799Y02871D02*
Y03862D01*
X02922Y04024D02*
Y04164D01*
X02555Y03094D02*
Y03657D01*
X02922Y04024*
X0187Y01962D02*
Y0313D01*
X02775Y03937D02*
Y03979D01*
X02772Y03982D02*
X02775Y03979D01*
X02938Y04126D02*
X02967Y04155D01*
X0187Y0313D02*
X02879Y04139D01*
X02893Y04192D02*
X02922Y04164D01*
X01898Y03059D02*
X02775Y03937D01*
X01898Y01935D02*
Y03059D01*
X02487Y02559D02*
X02799Y02871D01*
X0209Y01665D02*
X02487Y02062D01*
Y02559*
X02271Y02811D02*
X02555Y03094D01*
X02514Y02386D02*
X02753Y02148D01*
X01984Y01818D02*
X02271Y02106D01*
Y02811*
X01846Y01938D02*
X0187Y01962D01*
X01905Y0174D02*
Y01928D01*
X01898Y01935D02*
X01905Y01928D01*
X02753Y01854D02*
Y02148D01*
Y01854D02*
X02816Y01791D01*
X03555Y05363D02*
X03565Y05374D01*
X03555Y05295D02*
Y05363D01*
X03712D02*
X03723Y05374D01*
X03712Y05295D02*
Y05363D01*
X0388Y05306D02*
Y05374D01*
X03869Y05295D02*
X0388Y05306D01*
X04038D02*
Y05374D01*
X04027Y05295D02*
X04038Y05306D01*
X02795Y0185D02*
Y01998D01*
X02816Y01791D02*
X02874D01*
X02726Y01859D02*
X02795Y01789D01*
Y01644D02*
Y01789D01*
X02726Y01859D02*
Y0186D01*
Y01643D02*
Y01801D01*
X02795Y01643D02*
X02795Y01644D01*
G54D17*
X03444Y05D03*
X00334D03*
Y04094D03*
X03444D03*
X00334Y00472D03*
X03444D03*
X04806Y05039D03*
X07916D03*
X04807Y02322D03*
X07917D03*
X00334Y01397D03*
X03444D03*
Y02283D03*
X00334D03*
X07916Y01417D03*
X04806D03*
X04803Y03228D03*
X07913D03*
X07916Y04133D03*
X04806D03*
X03444Y03188D03*
X00334D03*
G54D18*
X04133Y04206D03*
Y01096D03*
G54D19*
X0372Y05187D03*
X04035D03*
X0372Y05009D03*
X04035D03*
G54D20*
X03723Y05374D03*
X03628D03*
X0388D03*
X03786D03*
X03565D03*
X03471D03*
X04038D03*
X03943D03*
G54D21*
X03797Y05295D03*
X03869D03*
X03712D03*
X03639D03*
X03482D03*
X03555D03*
X03954D03*
X04027D03*
X0363Y02908D03*
X03558D03*
X03589Y02655D03*
X03516D03*
X00302Y02047D03*
X00229D03*
Y01948D03*
X00302D03*
X07999Y05305D03*
X07926D03*
G54D22*
X035Y02812D03*
Y02739D03*
X03622Y01138D03*
Y01065D03*
X04724Y02896D03*
Y02969D03*
X00275Y03762D03*
Y03835D03*
Y03474D03*
Y03401D03*
X00282Y01617D03*
Y01689D03*
G54D23*
X04215Y00787D03*
X03934D03*
G54D24*
X04478Y00915D03*
G54D25*
X04568Y00653D03*
X04387D03*
G54D26*
X04409Y05046D03*
Y05146D03*
Y05246D03*
Y05346D03*
Y05446D03*
X04192Y05046D03*
Y05146D03*
Y05246D03*
Y05346D03*
Y05446D03*
G54D27*
X03938Y00472D03*
X03698D03*
G54D55*
X0307Y01712D02*
X0307Y01723D01*
X03068Y01733*
X03065Y01743*
X03061Y01753*
X03057Y01762*
X03051Y0177*
X00308Y01875D02*
X00409D01*
X00433Y01948D02*
X00594Y0211D01*
X00302Y01948D02*
X00433D01*
X00267Y01916D02*
X00308Y01875D01*
X00302Y02047D02*
X00409D01*
X00078Y02131D02*
Y03344D01*
X00248Y01996D02*
X00267Y01976D01*
Y01916D02*
Y01976D01*
X00078Y02131D02*
X00213Y01996D01*
X00248*
X03051Y0177D02*
Y02372D01*
X0307Y02391D02*
D01*
X03051Y02372D02*
X0307Y02391D01*
Y01712D02*
D01*
Y01122D02*
X03188Y01003D01*
X0307Y01122D02*
Y01712D01*
Y02391D02*
X03454Y02775D01*
X03188Y01003D02*
X03487D01*
X03606Y01123*
X03615Y01138D02*
X03622D01*
X03606Y01129D02*
X03615Y01138D01*
X03606Y01123D02*
Y01129D01*
X03305Y02798D02*
X03366Y0286D01*
X03305Y02703D02*
Y02798D01*
Y02703D02*
X03307Y027D01*
X03454Y02775D02*
X03564D01*
X03366Y0286D02*
X03589D01*
X0363Y02901*
Y02908*
X03594Y02976D02*
X03596Y02974D01*
X03665Y02876D02*
Y0294D01*
X03631Y02974D02*
X03665Y0294D01*
X03596Y02974D02*
X03631D01*
X03564Y02775D02*
X03665Y02876D01*
X00275Y0354D02*
Y03762D01*
X00078Y03344D02*
X00275Y0354D01*
G54D56*
X00334Y05D02*
D01*
X00275Y04058D02*
X00312Y04094D01*
X00334D02*
X00357D01*
X02598Y04305D02*
X03019D01*
X03104Y04389D02*
X03412D01*
X01443Y0315D02*
X02598Y04305D01*
X03019D02*
X03104Y04389D01*
X03412D02*
X03569Y04547D01*
X03361Y0457D02*
X03436Y04645D01*
X01376Y0457D02*
X03361D01*
X01443Y02845D02*
Y0315D01*
X00288Y0169D02*
X01443Y02845D01*
X07916Y05039D02*
X07999Y05121D01*
X03964Y01463D02*
Y02526D01*
Y01463D02*
X03966Y01461D01*
X03956Y02534D02*
X03964Y02526D01*
X08011Y00846D02*
X08228Y01063D01*
Y0382*
X06258Y01773D02*
X06673D01*
X05236Y02795D02*
Y02795D01*
Y02795D02*
X06258Y01773D01*
X05354Y01377D02*
X07004D01*
X07803Y00579*
X03395Y0469D02*
X05029D01*
X03332Y04627D02*
X03395Y0469D01*
X01404Y04627D02*
X03332D01*
X0028Y03474D02*
X01376Y0457D01*
X01392Y04616D02*
X01404Y04627D01*
X03436Y04645D02*
X05048D01*
X08011Y00718D02*
Y00846D01*
X04133Y01073D02*
Y01096D01*
X04311Y00789D02*
Y00895D01*
X04339Y00761D02*
X04616D01*
X04133Y01073D02*
X04311Y00895D01*
Y00789D02*
X04339Y00761D01*
X04616D02*
X04681Y00826D01*
X06437*
X06545Y00718*
X07244Y02007D02*
Y02027D01*
X04031Y0144D02*
Y02523D01*
Y0144D02*
X04035Y01437D01*
X03956Y02598D02*
X04031Y02523D01*
X07775Y01008D02*
X07776Y01009D01*
X07775Y00777D02*
Y01008D01*
X07901Y01417D02*
X07916D01*
X07803Y00443D02*
Y00579D01*
Y00443D02*
X07874Y00372D01*
X035Y02595D02*
Y02739D01*
X05048Y04645D02*
X05231Y04828D01*
X05029Y0469D02*
X05212Y04874D01*
X03569Y04547D02*
X03877D01*
X07917Y01872D02*
Y01988D01*
X06673Y01773D02*
X07874Y00572D01*
X07917Y01872D02*
X08139Y0165D01*
X07966Y00865D02*
X08139Y01037D01*
Y0165*
X07966Y00564D02*
Y00865D01*
X05231Y04828D02*
X06155D01*
X07214Y03769*
X07549Y03569D02*
Y03586D01*
X07916Y04133D02*
X07934D01*
X03589Y02655D02*
X04451D01*
X04784Y02322*
X03444Y03188D02*
X03553Y0308D01*
X03444Y02283D02*
Y0254D01*
X035Y02595*
X07304Y04874D02*
X07735Y05305D01*
X05212Y04874D02*
X07304D01*
X04784Y02322D02*
X04807D01*
X00277Y01617D02*
X00282D01*
X07874Y00472D02*
X07966Y00564D01*
X07735Y05305D02*
X07926D01*
X03444Y03188D02*
X03467D01*
X03422D02*
X03444D01*
X04271Y02896D02*
X04724D01*
X00282Y0143D02*
X00334Y01377D01*
X00275Y03474D02*
X0028D01*
G54D57*
X00312Y04094D02*
X00334D01*
X00305Y04101D02*
X00312Y04094D01*
X04783Y05039D02*
X04806D01*
X00312Y03188D02*
X00334D01*
G54D58*
X06582Y0059D02*
Y00648D01*
X06603Y0071D02*
X0662Y00727D01*
X06582Y00648D02*
X06603Y00669D01*
Y0071*
X04215Y00787D02*
Y00896D01*
X06493Y005D02*
X06582Y0059D01*
G54D59*
X00803Y04685D03*
X02976Y05314D03*
Y04409D03*
X00803Y03779D03*
X02976Y00787D03*
X00803Y00157D03*
X07448Y05354D03*
X05274Y04724D03*
X04448Y01564D03*
X03818Y03738D03*
X07448Y02637D03*
X05275Y02007D03*
X02976Y01712D03*
X00803Y01082D03*
Y01968D03*
X02976Y02598D03*
X05274Y01102D03*
X07448Y01732D03*
X07444Y03543D03*
X05271Y02913D03*
X05274Y03818D03*
X07448Y04448D03*
X00803Y02874D03*
X02976Y03503D03*
G54D60*
X033Y04706D03*
X00479Y04387D03*
Y00765D03*
X04951Y05332D03*
X04427Y04061D03*
X07772Y02029D03*
X033Y01104D03*
X00479Y02576D03*
X04951Y0171D03*
X04948Y03521D03*
X07771Y0384D03*
X033Y02895D03*
G54D61*
X07262Y00393D03*
G54D62*
X07462Y00393D03*
G54D63*
X0374Y0437D03*
G54D64*
X0374Y04448D03*
G54D65*
X04686Y05413D03*
G54D66*
X04586Y05413D03*
G54D67*
X04399Y00375D03*
Y00296D03*
Y00217D03*
Y00138D03*
Y0006D03*
X04478Y00375D03*
Y00296D03*
Y00217D03*
Y00138D03*
Y0006D03*
X04557Y00375D03*
Y00296D03*
Y00217D03*
Y00138D03*
Y0006D03*
X04635Y00375D03*
Y00296D03*
Y00217D03*
Y00138D03*
Y0006D03*
X04714Y00375D03*
Y00296D03*
Y00217D03*
Y00138D03*
Y0006D03*
G54D68*
X05644Y0006D03*
X05752D03*
X05644Y00119D03*
X05752D03*
X05644Y00178D03*
X05752D03*
X05644Y00237D03*
X05752D03*
X05644Y00296D03*
X05752D03*
X05319Y0006D03*
X05428D03*
X05319Y00119D03*
X05428D03*
X05319Y00178D03*
X05428D03*
X05319Y00237D03*
X05428D03*
X05319Y00296D03*
X05428D03*
X04995Y0006D03*
X05103D03*
X04995Y00119D03*
X05103D03*
X04995Y00178D03*
X05103D03*
X04995Y00237D03*
X05103D03*
X04995Y00296D03*
X04886Y0006D03*
Y00119D03*
Y00178D03*
Y00237D03*
Y00296D03*
X05644Y00355D03*
X05752D03*
X05319D03*
X05428D03*
X04995D03*
X05103D03*
X04886D03*
X05211Y0006D03*
X05536D03*
X05861D03*
X05211Y00119D03*
X05536D03*
X05861D03*
X05211Y00178D03*
X05536D03*
X05861D03*
X05211Y00237D03*
X05536D03*
X05861D03*
X05211Y00296D03*
X05536D03*
X05861D03*
X05211Y00355D03*
X05536D03*
X05861D03*
X05103Y00296D03*
G54D69*
X06716Y00787D03*
X0685D03*
X06716Y00257D03*
X0685D03*
G54D70*
X07874Y00772D03*
Y00572D03*
Y00672D03*
Y00472D03*
Y00272D03*
Y00372D03*
G54D71*
X07874Y00172D03*
G54D72*
X02661Y02173D03*
X03011Y02185D03*
X03592Y0524D03*
X02564Y04078D03*
X02531Y04115D03*
X03425Y05344D03*
X03592Y05187D03*
X02637Y04055D03*
X03651Y05187D03*
X03827D03*
X03719Y05099D03*
X02677Y04015D03*
X04094Y05265D03*
X0172Y01594D03*
X02086Y01427D03*
Y01486D03*
Y01545D03*
X00409Y01875D03*
X00594Y0211D03*
X00409Y02047D03*
X02019Y01633D03*
X02086Y01604D03*
X04074Y05127D03*
X04133Y05196D03*
X02082Y01988D03*
X02094Y0285D03*
X04409Y05393D03*
X03966Y01461D03*
X04215Y00896D03*
X05119Y0275D03*
X05816Y03218D03*
X0682Y0124D03*
X06092D03*
X05019Y01368D03*
X05659Y01023D03*
X03389Y02811D03*
X03019Y0183D03*
X04262Y0312D03*
X04409Y05196D03*
X04232Y05195D03*
X04192Y05397D03*
X08011Y00718D03*
X06545D03*
X03956Y02534D03*
X03956Y02598D03*
X02992Y02074D03*
X02961Y01916D03*
X02977Y02256D03*
X03492Y04732D03*
X03917Y03942D03*
X02965Y04082D03*
X02772Y03982D03*
X02879Y04139D03*
X02967Y04155D03*
X02893Y04192D03*
X04298Y03011D03*
X04565Y02818D03*
X06062Y03366D03*
X04192Y02578D03*
Y02736D03*
X03652Y02282D03*
X02755Y02669D03*
X02628Y02333D03*
X0209Y01665D03*
X02514Y02386D03*
X01984Y01818D03*
X01716Y01842D03*
X01843Y01976D03*
X01925Y02106D03*
X01846Y0174D03*
X01905D03*
X03996Y03229D03*
X04547Y02391D03*
X0433Y02547D03*
X02523Y01838D03*
X02239Y01728D03*
X01926Y01677D03*
X03307Y027D03*
X01722Y02135D03*
X03594Y02976D03*
X06493Y005D03*
X04681Y02814D03*
X03618Y02507D03*
X03779Y02807D03*
X04389Y02492D03*
X04416Y02389D03*
X04291Y02015D03*
X04448Y02055D03*
X02128Y02108D03*
X02685Y01913D03*
X02314Y01937D03*
X02669Y02043D03*
X02448Y02267D03*
X02092Y02364D03*
X02181Y02362D03*
X02317Y01789D03*
X07775Y00777D03*
X02795Y01998D03*
X02831Y01857D03*
X02874Y01791D03*
X02726Y0186D03*
Y01801D03*
X02795Y01643D03*
X02726D03*
G54D73*
X03218Y00551D03*
Y00472D03*
X04557Y05304D03*
X03051Y05184D03*
X03503Y05216D03*
X03346D03*
X03425D03*
X03129Y05184D03*
X03208D03*
X03129Y0498D03*
X03208Y05059D03*
X03051Y05059D03*
X03175Y04895D03*
X03051Y0498D03*
X03129Y05059D03*
X03208Y04803D03*
X03159Y04744D03*
X03051D03*
Y04891D03*
X03116Y04836D03*
X03228Y04251D03*
X03917Y04527D03*
X00216Y01791D03*
X00295D03*
X00826Y025D03*
X00748Y02421D03*
X0059Y02263D03*
X00905Y02578D03*
X00669Y02342D03*
X0059Y02185D03*
X00905Y025D03*
X00984Y02578D03*
X00826Y02421D03*
X00748Y02342D03*
X00826Y02578D03*
X0059Y02342D03*
X00748Y025D03*
X00669Y02421D03*
X04547Y05236D03*
X04625Y05314D03*
X05217Y01417D03*
X05078Y01437D03*
X05216Y01496D03*
X04409Y01259D03*
X04271Y01397D03*
X04488Y01181D03*
X04566Y01102D03*
X04409Y01181D03*
X04488Y01102D03*
X0433Y01259D03*
X04488D03*
X04566Y01181D03*
X04645Y01102D03*
X04724Y01181D03*
X04566Y01259D03*
X04645Y01181D03*
X04803D03*
X03484Y04798D03*
X03562D03*
X0311Y02106D03*
X0498Y05236D03*
X04251Y00138D03*
X04133D03*
X04488Y02957D03*
X04567Y02957D03*
X04409Y03031D03*
X0311Y01929D03*
X03208Y02155D03*
X0311Y02007D03*
X0494Y04763D03*
X04862D03*
X04783D03*
X04704D03*
X04625D03*
X04468D03*
X04338Y01109D03*
X07578Y01043D03*
X07657D03*
X07736D03*
X07657Y01122D03*
X07893Y01043D03*
X07814Y01122D03*
X07736Y012D03*
X07893Y01122D03*
X07814Y012D03*
X07893D03*
X07736Y01614D03*
Y01692D03*
X07814Y01614D03*
X07519Y02125D03*
X07736Y0185D03*
X07362Y02204D03*
X07893Y01614D03*
X07814Y01771D03*
X07893Y01692D03*
X0744Y02125D03*
X07362Y02283D03*
X07598Y02047D03*
X07519D03*
X0744Y02204D03*
X07814Y01692D03*
X07736Y01771D03*
X07362Y02125D03*
X0744Y02047D03*
X07736Y01122D03*
X07814Y01043D03*
X07736Y01929D03*
X07814Y0185D03*
X07893Y01771D03*
X07972Y01692D03*
Y01614D03*
X08051D03*
Y01122D03*
Y012D03*
Y01043D03*
X0687Y03031D03*
Y02952D03*
X06948D03*
Y03031D03*
X07185D03*
X07106D03*
X07027D03*
Y02952D03*
X07106D03*
X07185D03*
Y02874D03*
X07106D03*
X07027D03*
Y02795D03*
X07106D03*
X07185D03*
Y02716D03*
X07106D03*
X07027D03*
X06535Y02874D03*
X06456D03*
X06377D03*
X06299D03*
X0622D03*
X06535Y02795D03*
Y02716D03*
X06456D03*
Y02795D03*
X06377D03*
Y02716D03*
X06299D03*
Y02795D03*
X0622D03*
Y02716D03*
X06141Y02795D03*
Y02716D03*
X00157Y03799D03*
Y03877D03*
Y0372D03*
X00078Y04271D03*
Y04192D03*
Y04114D03*
Y04035D03*
Y03956D03*
Y03877D03*
Y03799D03*
Y0372D03*
X00964Y04271D03*
X00885D03*
X00807D03*
X00728D03*
X00885Y04192D03*
X00807D03*
X00728D03*
X00649D03*
X00807Y04114D03*
X00728D03*
X00649D03*
X0057D03*
X00728Y04035D03*
X00649D03*
X0057D03*
X00649Y03956D03*
X0057D03*
X00492Y03799D03*
X00413Y0372D03*
Y03799D03*
X0057Y03877D03*
X00492D03*
X00413D03*
X00649Y05118D03*
X00728D03*
X00807D03*
Y05196D03*
X00728D03*
X00649D03*
X00807Y05275D03*
X00728D03*
X00649D03*
X00334D03*
X0057D03*
X00492D03*
X00413D03*
Y05354D03*
X00492D03*
X0057D03*
X00649D03*
X00728D03*
X00807D03*
Y05433D03*
X00728D03*
X00649D03*
X0057D03*
X00492D03*
X00413D03*
X00334Y05354D03*
Y05433D03*
X00255D03*
Y05354D03*
Y05275D03*
X00177Y05196D03*
Y05275D03*
Y05354D03*
Y05433D03*
X00078Y05039D03*
Y05118D03*
Y05196D03*
Y05275D03*
Y05354D03*
Y05433D03*
X00826Y0309D03*
X00748D03*
X00669D03*
Y03169D03*
X00748D03*
X00826D03*
Y03248D03*
X00748D03*
X00669D03*
Y03326D03*
X00748D03*
X00826D03*
Y03405D03*
Y03484D03*
Y03562D03*
X00748D03*
Y03484D03*
Y03405D03*
X00669D03*
Y03484D03*
Y03562D03*
X0059D03*
Y03484D03*
Y03405D03*
X00511D03*
Y03484D03*
Y03562D03*
X00433Y03484D03*
Y03405D03*
X00748Y02578D03*
X00669Y025D03*
X0059Y02421D03*
X00137Y02559D03*
Y02637D03*
Y02716D03*
Y02795D03*
Y02874D03*
Y02952D03*
X00885Y01692D03*
X00807D03*
X00728D03*
X00649Y01614D03*
Y01692D03*
X0057D03*
Y01614D03*
X00492D03*
Y01692D03*
X00413D03*
Y01614D03*
X00728Y01614D03*
X00807D03*
X00885D03*
Y01535D03*
X00807D03*
X00728D03*
Y01457D03*
X00807D03*
X00885D03*
Y01378D03*
X00807D03*
X00728D03*
Y01299D03*
X00807D03*
X00885D03*
Y0122D03*
X00807D03*
X00728D03*
X00885Y00649D03*
X00807D03*
X00728D03*
Y0057D03*
X00807D03*
X00885D03*
Y00492D03*
X00807D03*
X00728D03*
Y00413D03*
X00807D03*
X00885D03*
Y00334D03*
X00807D03*
X00728D03*
X00649Y00236D03*
Y00157D03*
Y00078D03*
X0057D03*
Y00157D03*
Y00236D03*
X00492Y00078D03*
X00413D03*
Y00157D03*
X00492D03*
Y00236D03*
X00413D03*
X00334Y00078D03*
X00255D03*
X00177D03*
Y00157D03*
X00255D03*
X00334D03*
Y00236D03*
X00255D03*
X00177D03*
X00059Y01555D03*
Y01633D03*
Y01712D03*
X00137Y01791D03*
X00059D03*
X03779Y00984D03*
X03681D03*
X03897Y01043D03*
X03818D03*
X0374D03*
X03818Y01122D03*
X03897D03*
Y012D03*
X03759Y0061D03*
X03681D03*
Y00354D03*
X02982Y00944D03*
X03061D03*
X03139D03*
X03218D03*
X03139Y00866D03*
X03218Y00787D03*
Y00708D03*
Y00629D03*
Y00866D03*
X03139Y00787D03*
X03218Y00324D03*
Y00393D03*
X03139Y00708D03*
Y00629D03*
X03061D03*
X02982D03*
Y00551D03*
X03061Y00472D03*
Y00551D03*
X03139D03*
Y00472D03*
Y00393D03*
X02982Y00324D03*
X0433Y01181D03*
X04409Y01102D03*
X04476Y00692D03*
X04566Y00539D03*
X04384Y00539D03*
X04291Y0059D03*
Y00669D03*
X04476Y0061D03*
X04251Y00216D03*
X04192Y00177D03*
Y00255D03*
X04133Y00216D03*
Y00295D03*
X04015Y00354D03*
X03937D03*
X03858D03*
X07972Y012D03*
Y01122D03*
Y01043D03*
X04488Y04271D03*
X04409D03*
Y04192D03*
X0433D03*
Y04114D03*
X04187Y04425D03*
X04232Y04566D03*
Y04488D03*
X04153Y04566D03*
Y04488D03*
X04114Y04429D03*
X04035D03*
X04074Y04566D03*
Y04488D03*
X03996D03*
Y04566D03*
X03917Y04448D03*
Y0437D03*
Y04291D03*
X03681Y04173D03*
X03917Y04212D03*
Y04033D03*
Y04117D03*
X05059Y01574D03*
X05137D03*
X05216D03*
X05137Y01496D03*
X05019D03*
X04586Y01555D03*
Y01476D03*
Y01397D03*
X04507D03*
X04429D03*
X0435D03*
Y01476D03*
X04271Y01653D03*
X04192D03*
Y01555D03*
X04271D03*
Y01476D03*
X04192D03*
Y01397D03*
X04271Y01318D03*
X05137Y02027D03*
X05059D03*
X05216Y02125D03*
X05137D03*
X05059D03*
Y02204D03*
X05137D03*
X05216D03*
Y02283D03*
X05137D03*
X05059D03*
Y02362D03*
X05137D03*
X05216D03*
Y0244D03*
X05137D03*
X05059D03*
X05216Y02598D03*
Y02519D03*
X05137D03*
Y02598D03*
X05059D03*
Y02519D03*
X0498D03*
Y02598D03*
X04901D03*
Y02519D03*
X04822Y02598D03*
Y02519D03*
X04744Y02598D03*
Y02519D03*
X04665Y02598D03*
Y02519D03*
X03799Y04763D03*
X0372D03*
X03641D03*
X03287Y05255D03*
X03129D03*
X03208D03*
X03838Y01437D03*
Y01358D03*
X03759Y01279D03*
Y01358D03*
Y01437D03*
X03838Y01515D03*
X03759D03*
X03681D03*
Y01437D03*
Y01358D03*
Y01279D03*
Y012D03*
X03523Y01181D03*
X03444D03*
X03208Y01062D03*
Y0122D03*
Y01141D03*
X03129D03*
Y0122D03*
Y01299D03*
X03208Y01437D03*
Y01515D03*
X03129D03*
X03346Y01929D03*
X03267D03*
X03188D03*
X03346Y02007D03*
X03267D03*
X03188D03*
X03661D03*
X0374D03*
X03818D03*
X03661Y02145D03*
X03208Y02283D03*
Y02362D03*
X03129D03*
X03759Y03622D03*
X03818Y03582D03*
Y03503D03*
X03759Y03543D03*
Y03464D03*
Y03385D03*
X03681D03*
Y03307D03*
X0374Y03149D03*
X03681D03*
X03759Y03011D03*
X03681D03*
X03385Y02992D03*
X03307D03*
X03228D03*
X03149D03*
Y02913D03*
X0307D03*
Y02992D03*
Y0307D03*
X03149D03*
X03228D03*
X0307Y0315D03*
X03149Y03149D03*
X03228D03*
X0307Y03228D03*
X03149Y03228D03*
X03228D03*
X0307Y03307D03*
X03149D03*
X03228D03*
X03681Y03937D03*
Y04015D03*
Y04094D03*
X03228Y03937D03*
X03149D03*
X0307D03*
Y04015D03*
X03149D03*
X03228D03*
X03503Y04311D03*
X03425D03*
X03346D03*
X03267D03*
X03149Y04173D03*
X03228D03*
Y04094D03*
X03149D03*
X0307D03*
X05295Y05236D03*
Y05314D03*
X05216D03*
Y05236D03*
X05137D03*
Y05314D03*
X05059D03*
Y05236D03*
X04881D03*
X04783Y05314D03*
Y05236D03*
X04704Y05314D03*
Y05236D03*
X04625D03*
X04547Y05157D03*
Y05078D03*
Y05D03*
Y04921D03*
X04468D03*
X04389D03*
Y04763D03*
Y04842D03*
X04468D03*
X04547Y04763D03*
Y04842D03*
X05275Y04173D03*
Y04094D03*
Y04015D03*
X05196Y03346D03*
X05275D03*
Y03267D03*
X05196D03*
Y03188D03*
X05275D03*
Y03031D03*
Y0311D03*
X05196D03*
Y03031D03*
X05118D03*
Y0311D03*
Y03188D03*
Y03267D03*
Y03346D03*
X05039D03*
Y03267D03*
Y03188D03*
Y0311D03*
X05118Y02874D03*
Y02952D03*
X05039Y02874D03*
Y02952D03*
Y03031D03*
X0496D03*
Y02952D03*
Y02874D03*
X04803D03*
X04881D03*
Y02952D03*
Y03031D03*
X04803D03*
X04645D03*
X04488D03*
X04566D03*
Y0311D03*
X04488D03*
X04409D03*
Y03188D03*
X04488D03*
X04566D03*
Y03267D03*
X04488D03*
X04409D03*
Y03346D03*
X04488D03*
X04566D03*
X04507Y04114D03*
Y04015D03*
X04586D03*
Y04114D03*
X05196Y04015D03*
X05118D03*
X05039D03*
Y04094D03*
X05118D03*
X05196D03*
Y04173D03*
X05118D03*
X05039D03*
X05196Y04251D03*
X05118D03*
X05039D03*
X04571Y04207D03*
X07677Y03051D03*
Y03129D03*
Y03208D03*
Y03287D03*
X07519Y03444D03*
X0744Y02362D03*
Y0244D03*
X07519Y02283D03*
X0744D03*
X07598Y02125D03*
Y02204D03*
X07519D03*
X07362Y02362D03*
X07519D03*
X07362Y0244D03*
X08149D03*
Y02362D03*
Y02283D03*
Y02204D03*
Y02125D03*
Y02047D03*
X0807D03*
Y02125D03*
X07992D03*
Y02047D03*
X07913D03*
Y02125D03*
X07834D03*
X07755D03*
X07677Y02047D03*
Y02125D03*
Y02204D03*
X07598Y02283D03*
X07677D03*
Y02362D03*
X07598D03*
X07519Y0244D03*
X07598D03*
X07677D03*
Y03366D03*
X07598D03*
X07519D03*
X0744D03*
X07362Y03444D03*
Y03366D03*
X07598Y03444D03*
X07596Y03522D03*
X07598Y03602D03*
Y03681D03*
X07519D03*
X0744D03*
X07362D03*
X07677D03*
Y03602D03*
Y03523D03*
Y03444D03*
X07755D03*
Y03523D03*
Y03602D03*
Y03681D03*
X08149Y03051D03*
Y03129D03*
Y03208D03*
Y03287D03*
Y03366D03*
X07834Y03444D03*
X07913D03*
X07992D03*
X0807D03*
X08149D03*
Y03523D03*
X0807D03*
X07992D03*
X07913D03*
X07834D03*
Y03602D03*
X07913D03*
X07992D03*
X0807D03*
X08149D03*
Y03681D03*
X0807D03*
X07992D03*
X07913D03*
X07834D03*
X07362Y04842D03*
Y04763D03*
X0744D03*
X07519D03*
X07598D03*
X07677D03*
Y04842D03*
X07598D03*
X07519D03*
X0744D03*
Y04921D03*
X07519Y05D03*
Y04921D03*
X07598D03*
Y05D03*
Y05078D03*
X07362Y04251D03*
Y04173D03*
Y04094D03*
Y04015D03*
Y03937D03*
X0744D03*
Y04015D03*
Y04094D03*
Y04173D03*
Y04251D03*
X07519D03*
Y04173D03*
Y04094D03*
Y04015D03*
Y03937D03*
X07598D03*
Y04015D03*
Y04094D03*
Y04173D03*
Y04251D03*
X08169Y04921D03*
Y05D03*
Y05078D03*
Y05157D03*
Y05236D03*
Y05314D03*
X0809D03*
Y05236D03*
X08011D03*
X07933D03*
X07854D03*
X07775D03*
X07677Y05157D03*
Y05078D03*
Y05D03*
Y04921D03*
X08169Y04222D03*
Y04143D03*
Y04064D03*
Y03986D03*
Y03828D03*
Y03907D03*
X0809D03*
Y03828D03*
X07933D03*
X08011D03*
Y03907D03*
X07933D03*
X07854D03*
X07677Y04251D03*
Y04173D03*
Y04094D03*
Y04015D03*
Y03937D03*
X04625Y04842D03*
X04704D03*
X04783D03*
X04862D03*
X0494D03*
X05295Y05157D03*
Y05078D03*
Y05D03*
X05216D03*
Y05078D03*
Y05157D03*
X05137Y04921D03*
Y05D03*
Y05078D03*
Y05157D03*
X05059Y04921D03*
Y05D03*
Y05078D03*
Y05157D03*
X06456Y00952D03*
X06299Y00956D03*
X06141D03*
X05984Y0096D03*
X05511Y00976D03*
X05354D03*
X05196D03*
X05039D03*
X04881D03*
X04728D03*
X04035Y00718D03*
Y00787D03*
Y00856D03*
X05984Y00649D03*
X05826D03*
X05669D03*
X05511D03*
X05354D03*
X05196D03*
X05039D03*
X04881D03*
X04724D03*
M02*