G04*
G04 #@! TF.GenerationSoftware,Altium Limited,Altium Designer,21.0.8 (223)*
G04*
G04 Layer_Physical_Order=1*
G04 Layer_Color=255*
%FSLAX25Y25*%
%MOIN*%
G70*
G04*
G04 #@! TF.SameCoordinates,A19D7D31-63B9-40C3-BA03-758776B81FF0*
G04*
G04*
G04 #@! TF.FilePolarity,Positive*
G04*
G01*
G75*
%ADD10C,0.01500*%
%ADD13C,0.01000*%
%ADD17R,0.33465X0.28937*%
%ADD18R,0.28937X0.33465*%
%ADD19R,0.06299X0.05512*%
%ADD20R,0.03543X0.03937*%
%ADD21R,0.03740X0.05118*%
%ADD22R,0.05118X0.03740*%
%ADD23R,0.11000X0.15000*%
%ADD24R,0.25591X0.25591*%
%ADD25R,0.06299X0.11811*%
%ADD26R,0.13780X0.03937*%
%ADD27R,0.04331X0.12992*%
%ADD55C,0.01968*%
%ADD56C,0.03937*%
%ADD57C,0.27559*%
%ADD58C,0.02953*%
%ADD59C,0.15748*%
%ADD60C,0.10630*%
%ADD61R,0.10433X0.10433*%
%ADD62C,0.10433*%
%ADD63R,0.05000X0.05000*%
%ADD64C,0.05000*%
%ADD65C,0.06000*%
%ADD66R,0.06000X0.06000*%
%ADD67C,0.05512*%
%ADD68R,0.07087X0.06299*%
%ADD69O,0.10000X0.13000*%
%ADD70C,0.06299*%
%ADD71R,0.06299X0.06299*%
%ADD72C,0.05906*%
%ADD73C,0.03150*%
G36*
X824765Y377953D02*
X778779D01*
X779006Y377998D01*
X780153Y378473D01*
X781184Y379162D01*
X782062Y380040D01*
X782751Y381071D01*
X783226Y382218D01*
X783468Y383435D01*
Y384676D01*
X783226Y385893D01*
X782751Y387039D01*
X782062Y388071D01*
X781184Y388948D01*
X780153Y389637D01*
X779006Y390112D01*
X777789Y390354D01*
X776548D01*
X775331Y390112D01*
X774185Y389637D01*
X773153Y388948D01*
X772276Y388071D01*
X771586Y387039D01*
X771112Y385893D01*
X770869Y384676D01*
Y383435D01*
X771112Y382218D01*
X771586Y381071D01*
X772276Y380040D01*
X773153Y379162D01*
X774185Y378473D01*
X775331Y377998D01*
X775559Y377953D01*
X724245D01*
X724036Y378458D01*
X723563Y379074D01*
X720472Y382165D01*
Y388071D01*
X720472Y451763D01*
Y484423D01*
X730470D01*
X731240Y484525D01*
X731748Y484735D01*
X731959Y484822D01*
X732575Y485296D01*
X774813Y527534D01*
X789764D01*
Y526968D01*
X795472D01*
Y529687D01*
X795495Y529741D01*
X795596Y530512D01*
X795495Y531283D01*
X795472Y531337D01*
Y534055D01*
X789764D01*
Y533490D01*
X773580D01*
X772809Y533389D01*
X772091Y533091D01*
X771474Y532618D01*
X729236Y490380D01*
X720472D01*
X720472Y549213D01*
X824765D01*
Y377953D01*
D02*
G37*
G36*
X533465Y535433D02*
Y490380D01*
X521287D01*
X520516Y490278D01*
X519798Y489981D01*
X519181Y489507D01*
X519181Y489507D01*
X501746Y472073D01*
X339561D01*
X338790Y471971D01*
X338072Y471674D01*
X337455Y471200D01*
X336298Y470044D01*
X336299Y470049D01*
Y471290D01*
X336057Y472507D01*
X335582Y473653D01*
X334893Y474685D01*
X334015Y475562D01*
X332984Y476252D01*
X331837Y476726D01*
X330620Y476968D01*
X329380D01*
X328163Y476726D01*
X327016Y476252D01*
X325985Y475562D01*
X325107Y474685D01*
X324418Y473653D01*
X323943Y472507D01*
X323701Y471290D01*
Y470049D01*
X323943Y468832D01*
X324418Y467686D01*
X325107Y466654D01*
X325985Y465776D01*
X325989Y465773D01*
X297098D01*
Y466116D01*
X297098Y522638D01*
X298510D01*
X300222Y522978D01*
X301834Y523646D01*
X303285Y524615D01*
X304519Y525849D01*
X305488Y527300D01*
X306156Y528912D01*
X306496Y530624D01*
Y532369D01*
X306156Y534080D01*
X305595Y535433D01*
X340134Y535433D01*
X339961Y534786D01*
Y534112D01*
X340135Y533461D01*
X340472Y532877D01*
X340948Y532401D01*
X341532Y532064D01*
X342183Y531890D01*
X342857D01*
X343508Y532064D01*
X343966Y532329D01*
X345364Y530931D01*
Y525984D01*
X351072D01*
Y532786D01*
X352647Y531211D01*
Y525984D01*
X357555D01*
X357204Y525633D01*
X356867Y525049D01*
X356693Y524399D01*
Y523725D01*
X356867Y523074D01*
X357204Y522491D01*
X357681Y522014D01*
X358264Y521677D01*
X358915Y521503D01*
X359589D01*
X360033Y521622D01*
X359653Y521243D01*
X359589Y521260D01*
X358915D01*
X358264Y521085D01*
X357681Y520749D01*
X357204Y520272D01*
X356867Y519689D01*
X356693Y519038D01*
Y518364D01*
X356867Y517713D01*
X357204Y517130D01*
X357681Y516653D01*
X358264Y516316D01*
X358915Y516142D01*
X359589D01*
X360240Y516316D01*
X360823Y516653D01*
X361300Y517130D01*
X361637Y517713D01*
X361811Y518364D01*
Y519038D01*
X361794Y519102D01*
X363275Y520583D01*
X363348Y520510D01*
X363110Y520272D01*
X362773Y519689D01*
X362598Y519038D01*
Y518364D01*
X362773Y517713D01*
X363110Y517130D01*
X363586Y516653D01*
X364170Y516316D01*
X364821Y516142D01*
X365494D01*
X366145Y516316D01*
X366729Y516653D01*
X367205Y517130D01*
X367542Y517713D01*
X367543Y517717D01*
X367913D01*
Y514961D01*
X376181D01*
Y516933D01*
X380930D01*
X381210Y516653D01*
X381793Y516316D01*
X382444Y516142D01*
X383118D01*
X383769Y516316D01*
X384352Y516653D01*
X384632Y516933D01*
X396453D01*
X411417Y501968D01*
X411417D01*
Y501653D01*
X427165D01*
Y501968D01*
X433071D01*
Y501653D01*
X448819D01*
Y507559D01*
X448661D01*
Y511654D01*
X448819D01*
Y517559D01*
X448661D01*
Y521654D01*
X448819D01*
Y525419D01*
X452293Y528893D01*
X452293Y528893D01*
X452621Y529384D01*
X452736Y529963D01*
Y531024D01*
X455738Y534026D01*
X462862D01*
X462862Y534026D01*
X463345Y534122D01*
X463441Y534141D01*
X463932Y534469D01*
X466865Y537402D01*
X467961D01*
X468137Y537354D01*
X469186D01*
X469362Y537402D01*
X490347D01*
X490229Y537283D01*
X489539Y536251D01*
X489064Y535105D01*
X488822Y533888D01*
Y532647D01*
X489064Y531430D01*
X489539Y530284D01*
X490229Y529252D01*
X491106Y528375D01*
X492138Y527685D01*
X493284Y527211D01*
X494501Y526968D01*
X495742D01*
X496959Y527211D01*
X498105Y527685D01*
X499137Y528375D01*
X500014Y529252D01*
X500704Y530284D01*
X501179Y531430D01*
X501421Y532647D01*
Y533888D01*
X501179Y535105D01*
X500704Y536251D01*
X500014Y537283D01*
X499896Y537402D01*
X533465D01*
Y535433D01*
D02*
G37*
G36*
X145669Y460065D02*
X137697D01*
X137697Y460065D01*
X136926Y459963D01*
X136208Y459666D01*
X135591Y459193D01*
X42540Y366142D01*
X29566D01*
Y373425D01*
X31102D01*
Y379134D01*
X24016D01*
Y373425D01*
X25552D01*
Y366142D01*
X2007Y366142D01*
Y549174D01*
X145669D01*
Y460065D01*
D02*
G37*
G36*
X531496Y421260D02*
X531496Y420356D01*
Y390748D01*
Y389816D01*
X530067Y390408D01*
X528356Y390748D01*
X526611D01*
X524900Y390408D01*
X523288Y389740D01*
X521837Y388770D01*
X520603Y387537D01*
X519634Y386086D01*
X518966Y384474D01*
X518625Y382762D01*
Y381017D01*
X518966Y379306D01*
X519634Y377694D01*
X520603Y376243D01*
X521837Y375009D01*
X523288Y374040D01*
X524900Y373372D01*
X526611Y373031D01*
X528356D01*
X530067Y373372D01*
X531496Y373964D01*
X531496Y299099D01*
X531361Y299189D01*
X529749Y299856D01*
X528038Y300197D01*
X526293D01*
X524581Y299856D01*
X522969Y299189D01*
X521519Y298219D01*
X520285Y296985D01*
X519315Y295534D01*
X518647Y293922D01*
X518307Y292211D01*
Y290466D01*
X518647Y288755D01*
X519315Y287143D01*
X520285Y285692D01*
X521519Y284458D01*
X522969Y283488D01*
X524581Y282821D01*
X526293Y282480D01*
X528038D01*
X529749Y282821D01*
X531361Y283488D01*
X531496Y283578D01*
Y279111D01*
Y277803D01*
X531496Y273341D01*
X513933D01*
X514026Y273435D01*
X514363Y274018D01*
X514537Y274669D01*
Y275343D01*
X514363Y275994D01*
X514026Y276577D01*
X513550Y277054D01*
X512966Y277391D01*
X512315Y277565D01*
X511642D01*
X510991Y277391D01*
X510407Y277054D01*
X509931Y276577D01*
X509594Y275994D01*
X509419Y275343D01*
Y274948D01*
X507813Y273341D01*
X431102Y273341D01*
Y286687D01*
X472441D01*
X473212Y286789D01*
X473266Y286811D01*
X475984D01*
Y292520D01*
X473266D01*
X473212Y292542D01*
X472441Y292644D01*
X431102D01*
Y298960D01*
X431402Y299133D01*
X431879Y299610D01*
X432215Y300193D01*
X432390Y300844D01*
Y301518D01*
X432215Y302169D01*
X431879Y302752D01*
X431402Y303229D01*
X431102Y303402D01*
X431102Y401575D01*
X436439Y406912D01*
X436417Y406802D01*
Y405561D01*
X436659Y404344D01*
X437134Y403197D01*
X437824Y402166D01*
X438701Y401288D01*
X439733Y400599D01*
X440879Y400124D01*
X442096Y399882D01*
X443337D01*
X444554Y400124D01*
X445700Y400599D01*
X446732Y401288D01*
X447610Y402166D01*
X448299Y403197D01*
X448774Y404344D01*
X449016Y405561D01*
Y406802D01*
X448774Y408018D01*
X448299Y409165D01*
X447610Y410197D01*
X446732Y411074D01*
X445700Y411763D01*
X444554Y412238D01*
X443337Y412480D01*
X442096D01*
X441986Y412458D01*
X460630Y431102D01*
X521654D01*
X531496Y421260D01*
D02*
G37*
G36*
X145492Y320368D02*
X142240Y317116D01*
X141767Y316499D01*
X141469Y315781D01*
X141367Y315010D01*
Y285829D01*
X56148Y200610D01*
X51873D01*
X59728Y208465D01*
X59786D01*
X60437Y208639D01*
X61020Y208976D01*
X61497Y209452D01*
X61834Y210036D01*
X62008Y210687D01*
Y211361D01*
X61834Y212011D01*
X61497Y212595D01*
X61020Y213071D01*
X60437Y213408D01*
X59786Y213583D01*
X59112D01*
X58461Y213408D01*
X57877Y213071D01*
X57401Y212595D01*
X57064Y212011D01*
X56890Y211361D01*
Y211303D01*
X46197Y200610D01*
X26700D01*
X26284Y201026D01*
X25803Y201347D01*
Y203724D01*
X22933D01*
Y204724D01*
X21933D01*
Y208283D01*
X20063D01*
Y203777D01*
X9881Y213959D01*
Y333581D01*
X24016Y347715D01*
Y344587D01*
X26734D01*
X26788Y344564D01*
X27559Y344463D01*
X28051D01*
X28822Y344564D01*
X28876Y344587D01*
X31102D01*
Y346280D01*
X50786Y365964D01*
X145492D01*
Y320368D01*
D02*
G37*
G36*
X719351Y374863D02*
X719469Y374772D01*
Y306967D01*
X719022Y307087D01*
X717986D01*
X716984Y306818D01*
X716087Y306300D01*
X715354Y305567D01*
X714835Y304669D01*
X714567Y303668D01*
Y302631D01*
X714835Y301630D01*
X715354Y300732D01*
X716087Y299999D01*
X716984Y299481D01*
X717986Y299213D01*
X719022D01*
X719469Y299332D01*
Y299093D01*
X719022Y299213D01*
X717986D01*
X716984Y298944D01*
X716087Y298426D01*
X715354Y297693D01*
X714835Y296795D01*
X714567Y295794D01*
Y294757D01*
X714835Y293756D01*
X715354Y292858D01*
X716087Y292125D01*
X716984Y291607D01*
X717986Y291339D01*
X719022D01*
X719469Y291458D01*
Y291219D01*
X719022Y291339D01*
X717986D01*
X716984Y291070D01*
X716087Y290552D01*
X715354Y289819D01*
X714835Y288921D01*
X714567Y287920D01*
Y286883D01*
X714835Y285882D01*
X715354Y284984D01*
X716087Y284251D01*
X716984Y283733D01*
X717986Y283465D01*
X719022D01*
X719469Y283584D01*
Y283345D01*
X719022Y283465D01*
X717986D01*
X716984Y283196D01*
X716087Y282678D01*
X715354Y281945D01*
X714835Y281047D01*
X714567Y280046D01*
Y279009D01*
X714835Y278008D01*
X715354Y277110D01*
X716087Y276377D01*
X716984Y275859D01*
X717986Y275591D01*
X719022D01*
X719469Y275710D01*
Y275471D01*
X719022Y275590D01*
X717986D01*
X716984Y275322D01*
X716087Y274804D01*
X715354Y274071D01*
X714835Y273173D01*
X714567Y272172D01*
Y271135D01*
X714835Y270134D01*
X715354Y269236D01*
X716087Y268503D01*
X716984Y267985D01*
X717986Y267717D01*
X719022D01*
X719469Y267836D01*
Y196850D01*
X719545Y196466D01*
X719763Y196141D01*
X720088Y195923D01*
X720472Y195847D01*
X775634D01*
X775731Y195866D01*
X775830D01*
X775921Y195904D01*
X776018Y195923D01*
X776100Y195978D01*
X776192Y196016D01*
X776261Y196086D01*
X776344Y196141D01*
X776399Y196223D01*
X776468Y196293D01*
X776506Y196384D01*
X776561Y196466D01*
X776580Y196563D01*
X776618Y196655D01*
Y196655D01*
X776624Y196653D01*
X777865D01*
X777870Y196655D01*
D01*
X777908Y196563D01*
X777927Y196466D01*
X777982Y196384D01*
X778020Y196293D01*
X778090Y196223D01*
X778145Y196141D01*
X778227Y196086D01*
X778297Y196016D01*
X778388Y195978D01*
X778470Y195923D01*
X778567Y195904D01*
X778658Y195866D01*
X778757D01*
X778854Y195847D01*
X788754D01*
Y187235D01*
X788856Y186465D01*
X789066Y185957D01*
X789153Y185746D01*
X789626Y185129D01*
X810923Y163833D01*
Y105013D01*
X806304Y100394D01*
X748464D01*
X669429Y179428D01*
X668812Y179902D01*
X668602Y179989D01*
X668094Y180199D01*
X667323Y180301D01*
X627061D01*
X532500Y274862D01*
X532500Y277803D01*
Y279111D01*
Y283578D01*
X532480Y283676D01*
Y283774D01*
X532443Y283866D01*
X532423Y283963D01*
X532368Y284045D01*
X532331Y284136D01*
X532812Y284458D01*
X534046Y285692D01*
X535015Y287143D01*
X535683Y288755D01*
X536024Y290466D01*
Y292211D01*
X535683Y293922D01*
X535015Y295534D01*
X534046Y296985D01*
X532812Y298219D01*
X532331Y298541D01*
X532368Y298632D01*
X532423Y298715D01*
X532443Y298812D01*
X532480Y298903D01*
Y299002D01*
X532500Y299099D01*
X532500Y373964D01*
X532423Y374348D01*
X532336Y374478D01*
X533131Y375009D01*
X534364Y376243D01*
X535334Y377694D01*
X536001Y379306D01*
X536342Y381017D01*
Y382762D01*
X536001Y384474D01*
X535334Y386086D01*
X534364Y387537D01*
X533131Y388770D01*
X532336Y389301D01*
X532423Y389432D01*
X532500Y389816D01*
Y390748D01*
Y420356D01*
X532500Y421260D01*
D01*
Y421260D01*
X532423Y421644D01*
X532206Y421969D01*
X522363Y431812D01*
X522038Y432029D01*
X521654Y432106D01*
X460630D01*
X460246Y432029D01*
X459920Y431812D01*
X441276Y413168D01*
X441221Y413086D01*
X441152Y413016D01*
X441114Y412925D01*
X441059Y412842D01*
X441040Y412746D01*
X441002Y412654D01*
Y412555D01*
X440982Y412458D01*
X441002Y412361D01*
Y412263D01*
X441002Y412263D01*
X440879Y412238D01*
X439733Y411763D01*
X438701Y411074D01*
X437824Y410197D01*
X437134Y409165D01*
X436659Y408018D01*
X436635Y407896D01*
X436635Y407896D01*
X436536D01*
X436439Y407915D01*
X436342Y407896D01*
X436243D01*
X436152Y407858D01*
X436055Y407839D01*
X435973Y407784D01*
X435882Y407746D01*
X435812Y407676D01*
X435730Y407621D01*
X430393Y402284D01*
X430175Y401959D01*
X430099Y401575D01*
Y397638D01*
X385827D01*
X385827Y461589D01*
X504855D01*
X505626Y461690D01*
X506342Y461987D01*
X631868Y462345D01*
X719351Y374863D01*
D02*
G37*
G36*
X384823Y397638D02*
X384900Y397254D01*
X385117Y396928D01*
X385443Y396711D01*
X385827Y396634D01*
X390730D01*
X390161Y396305D01*
X389685Y395829D01*
X389348Y395246D01*
X389173Y394595D01*
Y393921D01*
X389348Y393270D01*
X389685Y392687D01*
X390161Y392210D01*
X390744Y391873D01*
X391395Y391699D01*
X392069D01*
X392134Y391716D01*
X407739Y376111D01*
Y329012D01*
X407739Y329012D01*
X407835Y328529D01*
X407854Y328433D01*
X408182Y327942D01*
X423677Y312447D01*
X423659Y312382D01*
Y311708D01*
X423834Y311057D01*
X424171Y310474D01*
X424647Y309998D01*
X425231Y309661D01*
X425882Y309486D01*
X426555D01*
X427206Y309661D01*
X427790Y309998D01*
X428266Y310474D01*
X428603Y311057D01*
X428778Y311708D01*
Y312382D01*
X428603Y313033D01*
X428266Y313617D01*
X427790Y314093D01*
X427206Y314430D01*
X426555Y314604D01*
X425882D01*
X425817Y314587D01*
X410765Y329639D01*
Y376738D01*
X410765Y376738D01*
X410669Y377221D01*
X410650Y377317D01*
X410322Y377808D01*
X394274Y393856D01*
X394291Y393921D01*
Y394595D01*
X394117Y395246D01*
X393780Y395829D01*
X393304Y396305D01*
X392734Y396634D01*
X430099D01*
D01*
X430099Y303740D01*
X429772D01*
X407416Y326096D01*
Y363092D01*
X407282Y363769D01*
X406898Y364342D01*
X375784Y395457D01*
Y433524D01*
X377500D01*
Y440492D01*
X370532D01*
Y433524D01*
X372248D01*
Y394724D01*
X372382Y394048D01*
X372765Y393474D01*
X383761Y382478D01*
X382762Y382677D01*
X381017D01*
X379306Y382337D01*
X377694Y381669D01*
X376243Y380700D01*
X375009Y379466D01*
X374040Y378015D01*
X373372Y376403D01*
X373031Y374691D01*
Y372946D01*
X373372Y371235D01*
X374040Y369623D01*
X375009Y368172D01*
X376243Y366938D01*
X377694Y365969D01*
X379306Y365301D01*
X381017Y364961D01*
X382762D01*
X384474Y365301D01*
X386086Y365969D01*
X387537Y366938D01*
X388770Y368172D01*
X389740Y369623D01*
X390408Y371235D01*
X390748Y372946D01*
Y374691D01*
X390549Y375690D01*
X403880Y362360D01*
Y325364D01*
X404014Y324687D01*
X404398Y324113D01*
X427272Y301239D01*
Y300844D01*
X427446Y300193D01*
X427783Y299610D01*
X428259Y299133D01*
X428843Y298797D01*
X429494Y298622D01*
X430099D01*
Y292644D01*
X430175Y292260D01*
X430393Y291934D01*
X430718Y291716D01*
X431102Y291640D01*
Y287691D01*
X430718Y287614D01*
X430393Y287397D01*
X430175Y287071D01*
X430099Y286687D01*
Y285427D01*
X367197D01*
X367955Y286185D01*
X368390Y286836D01*
X368543Y287604D01*
Y294027D01*
X368415Y294668D01*
X368390Y294795D01*
X367955Y295446D01*
X364570Y298831D01*
X363919Y299266D01*
X363151Y299419D01*
X361287D01*
X361020Y299686D01*
X360437Y300022D01*
X359786Y300197D01*
X359112D01*
X358461Y300022D01*
X357877Y299686D01*
X357401Y299209D01*
X357064Y298626D01*
X356890Y297975D01*
Y297301D01*
X357064Y296650D01*
X357401Y296066D01*
X357877Y295590D01*
X358461Y295253D01*
X359112Y295079D01*
X359786D01*
X360437Y295253D01*
X360699Y295405D01*
X362319D01*
X363365Y294359D01*
X360236D01*
Y290111D01*
X358677Y288552D01*
Y289816D01*
X355807D01*
X352937D01*
Y288028D01*
X336685D01*
X336093Y287910D01*
X336299Y288947D01*
Y290187D01*
X336057Y291404D01*
X335582Y292551D01*
X334893Y293582D01*
X334015Y294460D01*
X332984Y295149D01*
X331837Y295624D01*
X330620Y295866D01*
X329380D01*
X328163Y295624D01*
X327016Y295149D01*
X325985Y294460D01*
X325107Y293582D01*
X324418Y292551D01*
X323943Y291404D01*
X323701Y290187D01*
Y288947D01*
X323943Y287730D01*
X324418Y286583D01*
X325107Y285551D01*
X325231Y285427D01*
X301187D01*
X301181Y285433D01*
Y342273D01*
X301834Y342544D01*
X303285Y343513D01*
X304519Y344747D01*
X305488Y346198D01*
X306156Y347810D01*
X306496Y349521D01*
Y351266D01*
X306156Y352977D01*
X305488Y354590D01*
X304519Y356041D01*
X303285Y357274D01*
X301834Y358244D01*
X301181Y358514D01*
Y427534D01*
X301959D01*
X302730Y427635D01*
X303238Y427845D01*
X303448Y427933D01*
X304065Y428406D01*
X311658Y435998D01*
X341236D01*
X342006Y436100D01*
X342725Y436397D01*
X343341Y436870D01*
X358217Y451746D01*
X384823D01*
X384823Y397638D01*
D02*
G37*
G36*
X392793Y259072D02*
X393090Y258353D01*
X393563Y257737D01*
X393701Y257599D01*
Y255743D01*
X393512Y255597D01*
X393038Y254981D01*
X392741Y254262D01*
X392639Y253491D01*
X392741Y252721D01*
X393038Y252002D01*
X393478Y251429D01*
Y146324D01*
X393580Y145554D01*
X393701Y145262D01*
Y141732D01*
X365748Y113779D01*
Y116732D01*
X358661D01*
Y113186D01*
X358658Y113170D01*
X347889Y102401D01*
X319729D01*
X309094Y113036D01*
Y171291D01*
X309094Y171291D01*
Y171291D01*
X309088Y171318D01*
X308949Y173083D01*
X308530Y174830D01*
X307842Y176491D01*
X307125Y177661D01*
Y236373D01*
X308506Y237754D01*
X308506Y237754D01*
X330594Y259842D01*
X353547D01*
Y257283D01*
X353681Y256607D01*
X354065Y256033D01*
X359252Y250846D01*
Y250450D01*
X359426Y249800D01*
X359763Y249216D01*
X360240Y248740D01*
X360823Y248403D01*
X361474Y248228D01*
X362148D01*
X362799Y248403D01*
X363382Y248740D01*
X363859Y249216D01*
X364196Y249800D01*
X364370Y250450D01*
Y251124D01*
X364196Y251775D01*
X363859Y252359D01*
X363382Y252835D01*
X362799Y253172D01*
X362148Y253346D01*
X361753D01*
X357083Y258016D01*
Y259842D01*
X392691D01*
X392793Y259072D01*
D02*
G37*
G36*
X722807Y378411D02*
X723159Y377952D01*
X723318Y377569D01*
X723535Y377243D01*
X723535D01*
Y377243D01*
X723861Y377026D01*
X724169Y376964D01*
X724245Y376949D01*
X724245D01*
D01*
X775559D01*
X775655Y376969D01*
X775754D01*
X775846Y377006D01*
X775943Y377026D01*
X776025Y377081D01*
X776116Y377118D01*
X776186Y377188D01*
X776268Y377243D01*
X776323Y377325D01*
X776393Y377395D01*
X776431Y377487D01*
X776486Y377569D01*
X776505Y377666D01*
X776543Y377757D01*
D01*
X776548Y377756D01*
X777789D01*
X777795Y377757D01*
D01*
X777833Y377666D01*
X777852Y377569D01*
X777907Y377487D01*
X777945Y377395D01*
X778014Y377325D01*
X778069Y377243D01*
X778152Y377188D01*
X778221Y377118D01*
X778313Y377081D01*
X778395Y377026D01*
X778492Y377006D01*
X778583Y376969D01*
X778682D01*
X778779Y376949D01*
X819856D01*
Y196850D01*
X778854D01*
X779081Y196896D01*
X780228Y197371D01*
X781260Y198060D01*
X782137Y198937D01*
X782826Y199969D01*
X783301Y201115D01*
X783543Y202332D01*
Y203573D01*
X783301Y204790D01*
X782826Y205937D01*
X782137Y206968D01*
X781260Y207846D01*
X780228Y208535D01*
X779081Y209010D01*
X777865Y209252D01*
X776624D01*
X775407Y209010D01*
X774260Y208535D01*
X773229Y207846D01*
X772351Y206968D01*
X771662Y205937D01*
X771187Y204790D01*
X770945Y203573D01*
Y202332D01*
X771187Y201115D01*
X771662Y199969D01*
X772351Y198937D01*
X773229Y198060D01*
X774260Y197371D01*
X775407Y196896D01*
X775634Y196850D01*
X720472D01*
Y268244D01*
X720921Y268503D01*
X721654Y269236D01*
X722173Y270134D01*
X722441Y271135D01*
Y272172D01*
X722173Y273173D01*
X721654Y274071D01*
X720921Y274804D01*
X720472Y275063D01*
Y276118D01*
X720921Y276377D01*
X721654Y277110D01*
X722173Y278008D01*
X722441Y279009D01*
Y280046D01*
X722173Y281047D01*
X721654Y281945D01*
X720921Y282678D01*
X720472Y282937D01*
Y283992D01*
X720921Y284251D01*
X721654Y284984D01*
X722173Y285882D01*
X722441Y286883D01*
Y287920D01*
X722173Y288921D01*
X721654Y289819D01*
X720921Y290552D01*
X720472Y290811D01*
Y291866D01*
X720921Y292125D01*
X721654Y292858D01*
X722173Y293756D01*
X722441Y294757D01*
Y295794D01*
X722173Y296795D01*
X721654Y297693D01*
X720921Y298426D01*
X720472Y298685D01*
Y299740D01*
X720921Y299999D01*
X721654Y300732D01*
X722173Y301630D01*
X722441Y302631D01*
Y303668D01*
X722173Y304669D01*
X721654Y305567D01*
X720921Y306300D01*
X720472Y306559D01*
Y379921D01*
X721297D01*
X722807Y378411D01*
D02*
G37*
G36*
X145669Y1606D02*
X1606D01*
Y200787D01*
X17375D01*
X19976Y198187D01*
X20063Y198129D01*
Y195882D01*
X22933D01*
Y194882D01*
X23933D01*
Y191323D01*
X24834D01*
X24917Y190902D01*
X25352Y190251D01*
X29425Y186179D01*
X30076Y185744D01*
X30844Y185591D01*
X39367D01*
X39408Y185551D01*
X39992Y185214D01*
X40591Y185053D01*
X27388Y171850D01*
X24710D01*
Y166142D01*
X28651D01*
X28844Y166116D01*
X29038Y166142D01*
X31797D01*
Y167835D01*
X64749Y200787D01*
X72358D01*
X71797Y199434D01*
X71457Y197723D01*
Y195978D01*
X71797Y194266D01*
X72465Y192654D01*
X73434Y191204D01*
X74668Y189970D01*
X76119Y189000D01*
X77731Y188332D01*
X79443Y187992D01*
X81187D01*
X82899Y188332D01*
X84511Y189000D01*
X85962Y189970D01*
X87196Y191204D01*
X88165Y192654D01*
X88833Y194266D01*
X89173Y195978D01*
Y197723D01*
X88833Y199434D01*
X88272Y200787D01*
X145669D01*
Y1606D01*
D02*
G37*
G36*
X412382Y139764D02*
X412420Y139574D01*
X412457Y139385D01*
X412458Y139383D01*
X412459Y139380D01*
X412565Y139220D01*
X412672Y139058D01*
X416642Y135043D01*
X424221Y127378D01*
X414386D01*
Y109646D01*
X413386D01*
Y108646D01*
X397917D01*
Y94507D01*
X383858D01*
X383474Y94431D01*
X383149Y94213D01*
X382931Y93888D01*
X382855Y93504D01*
Y41801D01*
X369833Y28779D01*
X340945D01*
X340561Y28703D01*
X340235Y28485D01*
X340018Y28159D01*
X339941Y27775D01*
X339941Y1606D01*
D01*
X269685D01*
Y100394D01*
X316059D01*
X317478Y98975D01*
X318130Y98539D01*
X318257Y98514D01*
X318898Y98387D01*
X348721D01*
X349488Y98539D01*
X350140Y98975D01*
X351559Y100394D01*
X352362D01*
X358646Y106677D01*
Y103724D01*
X361205D01*
Y106595D01*
X362205D01*
Y107595D01*
X365764D01*
Y109465D01*
X361433D01*
X362992Y111024D01*
X365748D01*
Y112776D01*
X366132Y112852D01*
X366458Y113070D01*
X370027Y116639D01*
X370528Y116928D01*
X371261Y117661D01*
X371550Y118162D01*
X377901Y124513D01*
X378402Y124802D01*
X379135Y125535D01*
X379424Y126036D01*
X385775Y132387D01*
X386276Y132676D01*
X387009Y133409D01*
X387298Y133910D01*
X394410Y141023D01*
X394628Y141348D01*
X394704Y141732D01*
Y142736D01*
X395414Y143445D01*
X395883Y143251D01*
X396654Y143149D01*
X397424Y143251D01*
X398143Y143548D01*
X398760Y144022D01*
X399233Y144638D01*
X399530Y145357D01*
X399632Y146127D01*
X399530Y146898D01*
X399435Y147129D01*
Y147466D01*
X399606Y147638D01*
X412382D01*
Y139764D01*
D02*
G37*
G36*
X537402Y261536D02*
Y256772D01*
Y256303D01*
D01*
Y254387D01*
Y253737D01*
D01*
Y206500D01*
Y206434D01*
D01*
Y204524D01*
Y204134D01*
D01*
Y203941D01*
Y203623D01*
D01*
X537402Y168079D01*
Y167048D01*
D01*
Y166170D01*
Y165354D01*
D01*
Y138324D01*
Y138228D01*
D01*
Y138209D01*
Y137881D01*
D01*
Y137799D01*
Y137148D01*
D01*
Y136015D01*
Y136015D01*
D01*
Y135821D01*
X535630D01*
X535246Y135744D01*
X534921Y135527D01*
D01*
X532566Y137881D01*
X532075Y138209D01*
X531979Y138228D01*
X531496Y138324D01*
X531496Y138324D01*
X504050D01*
X504016Y138382D01*
X503540Y138859D01*
X502956Y139196D01*
X502305Y139370D01*
X501632D01*
X500981Y139196D01*
X500397Y138859D01*
X499921Y138382D01*
X499584Y137799D01*
X499409Y137148D01*
Y136474D01*
X499532Y136015D01*
X498365D01*
Y140732D01*
X480633D01*
X462901D01*
Y136015D01*
X437404D01*
X437231Y135981D01*
X437057Y135953D01*
X437040Y135943D01*
X437020Y135939D01*
X436873Y135841D01*
X436723Y135749D01*
X428158Y127833D01*
X428146Y127817D01*
X428129Y127806D01*
X428031Y127659D01*
X427927Y127517D01*
X427923Y127497D01*
X427911Y127480D01*
X427888Y127362D01*
X425648D01*
X417356Y135749D01*
X413386Y139764D01*
Y268938D01*
X507679D01*
X508356Y269073D01*
X508929Y269456D01*
X509158Y269685D01*
X529253D01*
X537402Y261536D01*
D02*
G37*
G36*
X563403Y102764D02*
X563386Y102699D01*
Y102025D01*
X563560Y101374D01*
X563897Y100791D01*
X564374Y100314D01*
X564957Y99977D01*
X565608Y99803D01*
X566282D01*
X566933Y99977D01*
X567516Y100314D01*
X567993Y100791D01*
X568329Y101374D01*
X568504Y102025D01*
Y102699D01*
X568329Y103350D01*
X567993Y103934D01*
X567516Y104410D01*
X566933Y104747D01*
X566282Y104921D01*
X565608D01*
X565543Y104904D01*
X535630Y134817D01*
X699214D01*
X757874Y76157D01*
X757874Y15748D01*
X739192D01*
Y15748D01*
Y32480D01*
X739192Y32480D01*
X739192Y53150D01*
X739116Y53534D01*
X738899Y53859D01*
X725119Y67639D01*
X724793Y67856D01*
X724409Y67933D01*
X662884Y67933D01*
X662787Y67913D01*
X662688D01*
X662597Y67875D01*
X662500Y67856D01*
X662418Y67801D01*
X662326Y67764D01*
X662257Y67694D01*
X662174Y67639D01*
X662119Y67557D01*
X662050Y67487D01*
X662012Y67395D01*
X661957Y67313D01*
X661938Y67216D01*
X661900Y67125D01*
X661861Y66929D01*
X660375D01*
X658870Y68434D01*
Y68512D01*
X658793Y68896D01*
X658576Y69221D01*
X657343Y70454D01*
X657234Y70527D01*
X657191Y70565D01*
X657404Y71080D01*
X657506Y71850D01*
X657404Y72621D01*
X657107Y73339D01*
X656634Y73956D01*
X645807Y84783D01*
X645190Y85256D01*
X644979Y85343D01*
X644472Y85554D01*
X643701Y85655D01*
X468186D01*
X468186Y85655D01*
X467415Y85554D01*
X466697Y85256D01*
X466080Y84783D01*
X463974Y82677D01*
X461630D01*
Y90535D01*
X447835D01*
X434039D01*
Y90422D01*
X433775Y91061D01*
X433301Y91678D01*
X433301Y91678D01*
X428839Y96141D01*
Y127096D01*
X437404Y135012D01*
X462917D01*
Y126279D01*
X498350D01*
Y135012D01*
X500149D01*
X500397Y134763D01*
X500981Y134426D01*
X501632Y134252D01*
X502305D01*
X502956Y134426D01*
X503540Y134763D01*
X503788Y135012D01*
X531155D01*
X563403Y102764D01*
D02*
G37*
G36*
X397933Y91929D02*
X420309D01*
X419958Y91727D01*
X419482Y91250D01*
X419145Y90667D01*
X418970Y90016D01*
Y89342D01*
X419021Y89155D01*
Y87224D01*
X415045D01*
Y70256D01*
X428014D01*
Y87224D01*
X424038D01*
Y89155D01*
X424089Y89342D01*
Y90016D01*
X423914Y90667D01*
X423577Y91250D01*
X423101Y91727D01*
X422750Y91929D01*
X424627D01*
X428217Y88339D01*
Y78965D01*
X428319Y78194D01*
X428529Y77686D01*
X428616Y77476D01*
X429090Y76859D01*
X431873Y74075D01*
X431873Y74075D01*
X432490Y73602D01*
X433209Y73304D01*
X433979Y73203D01*
X461690D01*
X462461Y73304D01*
X463179Y73602D01*
X463796Y74075D01*
X469420Y79699D01*
X642467D01*
X652422Y69744D01*
X653038Y69271D01*
X653757Y68974D01*
X654528Y68872D01*
X655298Y68974D01*
X656017Y69271D01*
X656634Y69744D01*
Y69744D01*
X657866Y68512D01*
Y67968D01*
X656494Y66596D01*
X655950Y65782D01*
X655759Y64822D01*
Y60094D01*
X647908Y52243D01*
X647740Y52146D01*
X647263Y51670D01*
X646926Y51086D01*
X646752Y50435D01*
Y49762D01*
X646926Y49111D01*
X647263Y48527D01*
X647740Y48051D01*
X648323Y47714D01*
X648974Y47539D01*
X649648D01*
X650299Y47714D01*
X650882Y48051D01*
X651359Y48527D01*
X651456Y48695D01*
X660042Y57281D01*
X660586Y58095D01*
X660777Y59055D01*
X660777Y59055D01*
Y63783D01*
X662149Y65155D01*
X662693Y65969D01*
X662884Y66929D01*
X724409Y66929D01*
X738189Y53150D01*
X738189Y32480D01*
X738189Y32480D01*
Y15748D01*
X714567D01*
Y32480D01*
X687930D01*
X687340Y32796D01*
X686212Y33138D01*
X685039Y33253D01*
X684941Y33244D01*
X671738D01*
X671639Y33253D01*
X670466Y33138D01*
X669338Y32796D01*
X668748Y32480D01*
X601378D01*
X592126Y41732D01*
X537402D01*
Y1606D01*
X340945Y1606D01*
X340945Y27775D01*
X370248D01*
X383858Y41385D01*
Y93504D01*
X397933D01*
Y91929D01*
D02*
G37*
G36*
X600668Y31771D02*
X600994Y31553D01*
X601378Y31477D01*
X667354D01*
X666626Y30590D01*
X666069Y29547D01*
X665726Y28416D01*
X665610Y27240D01*
Y26740D01*
X671639D01*
Y24740D01*
X665610D01*
Y24240D01*
X665726Y23064D01*
X666069Y21933D01*
X666626Y20891D01*
X667376Y19977D01*
X668290Y19227D01*
X669332Y18670D01*
X670463Y18327D01*
X671639Y18211D01*
X671898Y18237D01*
X684781D01*
X685039Y18211D01*
X686216Y18327D01*
X687347Y18670D01*
X688389Y19227D01*
X689302Y19977D01*
X690052Y20891D01*
X690610Y21933D01*
X690952Y23064D01*
X691068Y24240D01*
Y24740D01*
X685039D01*
Y19240D01*
X671639D01*
Y19340D01*
Y32240D01*
X685039D01*
Y26740D01*
X691068D01*
Y27240D01*
X690952Y28416D01*
X690610Y29547D01*
X690052Y30590D01*
X689324Y31477D01*
X713563D01*
Y15748D01*
X713640Y15364D01*
X713779Y15155D01*
Y1606D01*
X538405D01*
Y1854D01*
X541815D01*
Y6004D01*
X542815D01*
Y7004D01*
X547358D01*
Y7760D01*
Y10909D01*
X542815D01*
Y12910D01*
X547358D01*
Y13665D01*
Y16815D01*
X542815D01*
Y18815D01*
X547358D01*
Y19571D01*
Y22720D01*
X542815D01*
Y24721D01*
X547358D01*
Y25476D01*
Y28626D01*
X542815D01*
Y30626D01*
X547358D01*
Y31382D01*
Y34532D01*
X542815D01*
Y35531D01*
X541815D01*
Y39681D01*
X538405D01*
Y40729D01*
X591710D01*
X600668Y31771D01*
D02*
G37*
%LPC*%
G36*
X802772Y534071D02*
X800902D01*
Y531512D01*
X802772D01*
Y534071D01*
D02*
G37*
G36*
X798902D02*
X797031D01*
Y531512D01*
X798902D01*
Y534071D01*
D02*
G37*
G36*
X802772Y529512D02*
X800902D01*
Y526953D01*
X802772D01*
Y529512D01*
D02*
G37*
G36*
X798902D02*
X797031D01*
Y526953D01*
X798902D01*
Y529512D01*
D02*
G37*
G36*
X745679Y544291D02*
X743934D01*
X742223Y543951D01*
X740611Y543283D01*
X739160Y542314D01*
X737926Y541080D01*
X736956Y539629D01*
X736289Y538017D01*
X735948Y536306D01*
Y534561D01*
X736289Y532849D01*
X736956Y531237D01*
X737926Y529786D01*
X739160Y528552D01*
X740611Y527583D01*
X742223Y526915D01*
X743934Y526575D01*
X745679D01*
X747390Y526915D01*
X749003Y527583D01*
X750453Y528552D01*
X751687Y529786D01*
X752657Y531237D01*
X753324Y532849D01*
X753665Y534561D01*
Y536306D01*
X753324Y538017D01*
X752657Y539629D01*
X751687Y541080D01*
X750453Y542314D01*
X749003Y543283D01*
X747390Y543951D01*
X745679Y544291D01*
D02*
G37*
G36*
X809389Y519406D02*
X792657D01*
Y504937D01*
X809389D01*
Y519406D01*
D02*
G37*
G36*
X790657D02*
X773925D01*
Y504937D01*
X790657D01*
Y519406D01*
D02*
G37*
G36*
X809389Y502937D02*
X792657D01*
Y488469D01*
X809389D01*
Y502937D01*
D02*
G37*
G36*
X790657D02*
X773925D01*
Y488469D01*
X790657D01*
Y502937D01*
D02*
G37*
G36*
X745679Y453740D02*
X743934D01*
X742223Y453400D01*
X740611Y452732D01*
X739160Y451763D01*
X737926Y450529D01*
X736956Y449078D01*
X736289Y447466D01*
X735948Y445754D01*
Y444009D01*
X736289Y442298D01*
X736956Y440686D01*
X737926Y439235D01*
X739160Y438001D01*
X740611Y437032D01*
X742223Y436364D01*
X743934Y436024D01*
X745679D01*
X747390Y436364D01*
X749003Y437032D01*
X750453Y438001D01*
X751687Y439235D01*
X752657Y440686D01*
X753324Y442298D01*
X753665Y444009D01*
Y445754D01*
X753324Y447466D01*
X752657Y449078D01*
X751687Y450529D01*
X750453Y451763D01*
X749003Y452732D01*
X747390Y453400D01*
X745679Y453740D01*
D02*
G37*
G36*
X809389Y428854D02*
X792657D01*
Y414386D01*
X809389D01*
Y428854D01*
D02*
G37*
G36*
X790657D02*
X773925D01*
Y414386D01*
X790657D01*
Y428854D01*
D02*
G37*
G36*
X809389Y412386D02*
X792657D01*
Y397917D01*
X809389D01*
Y412386D01*
D02*
G37*
G36*
X790657D02*
X773925D01*
Y397917D01*
X790657D01*
Y412386D01*
D02*
G37*
G36*
X498365Y519406D02*
X481633D01*
Y504937D01*
X498365D01*
Y519406D01*
D02*
G37*
G36*
X479633D02*
X462901D01*
Y504937D01*
X479633D01*
Y519406D01*
D02*
G37*
G36*
X362221Y515469D02*
X345488D01*
Y501000D01*
X362221D01*
Y515469D01*
D02*
G37*
G36*
X343488D02*
X326756D01*
Y501000D01*
X343488D01*
Y515469D01*
D02*
G37*
G36*
X372270Y512514D02*
X371597D01*
X370946Y512339D01*
X370362Y512003D01*
X369886Y511526D01*
X369549Y510943D01*
X369374Y510292D01*
Y509618D01*
X369549Y508967D01*
X369886Y508384D01*
X370362Y507907D01*
X370533Y507808D01*
Y504724D01*
X367913D01*
Y497244D01*
X376181D01*
Y499471D01*
X399410D01*
Y497244D01*
X407677D01*
Y504724D01*
X399410D01*
Y502498D01*
X376181D01*
Y504724D01*
X373560D01*
Y507962D01*
X373981Y508384D01*
X374318Y508967D01*
X374493Y509618D01*
Y510292D01*
X374318Y510943D01*
X373981Y511526D01*
X373505Y512003D01*
X372921Y512339D01*
X372270Y512514D01*
D02*
G37*
G36*
X498365Y502937D02*
X481633D01*
Y488469D01*
X498365D01*
Y502937D01*
D02*
G37*
G36*
X479633D02*
X462901D01*
Y488469D01*
X479633D01*
Y502937D01*
D02*
G37*
G36*
X362221Y499000D02*
X345488D01*
Y484531D01*
X362221D01*
Y499000D01*
D02*
G37*
G36*
X343488D02*
X326756D01*
Y484531D01*
X343488D01*
Y499000D01*
D02*
G37*
G36*
X51197Y515469D02*
X34465D01*
Y501000D01*
X51197D01*
Y515469D01*
D02*
G37*
G36*
X32465D02*
X15732D01*
Y501000D01*
X32465D01*
Y515469D01*
D02*
G37*
G36*
X51197Y499000D02*
X34465D01*
Y484531D01*
X51197D01*
Y499000D01*
D02*
G37*
G36*
X32465D02*
X15732D01*
Y484531D01*
X32465D01*
Y499000D01*
D02*
G37*
G36*
X81187Y477362D02*
X79443D01*
X77731Y477022D01*
X76119Y476354D01*
X74668Y475385D01*
X73434Y474151D01*
X72465Y472700D01*
X71797Y471088D01*
X71457Y469376D01*
Y467631D01*
X71797Y465920D01*
X72465Y464308D01*
X73434Y462857D01*
X74668Y461623D01*
X76119Y460654D01*
X77731Y459986D01*
X79443Y459646D01*
X81187D01*
X82899Y459986D01*
X84511Y460654D01*
X85962Y461623D01*
X87196Y462857D01*
X88165Y464308D01*
X88833Y465920D01*
X89173Y467631D01*
Y469376D01*
X88833Y471088D01*
X88165Y472700D01*
X87196Y474151D01*
X85962Y475385D01*
X84511Y476354D01*
X82899Y477022D01*
X81187Y477362D01*
D02*
G37*
G36*
X48573Y445079D02*
X47332D01*
X46115Y444837D01*
X44969Y444362D01*
X43937Y443672D01*
X43060Y442795D01*
X42371Y441763D01*
X41896Y440617D01*
X41654Y439400D01*
Y438159D01*
X41896Y436942D01*
X42371Y435796D01*
X43060Y434764D01*
X43937Y433887D01*
X44969Y433197D01*
X46115Y432722D01*
X47332Y432480D01*
X48573D01*
X49790Y432722D01*
X50937Y433197D01*
X51968Y433887D01*
X52846Y434764D01*
X53535Y435796D01*
X54010Y436942D01*
X54252Y438159D01*
Y439400D01*
X54010Y440617D01*
X53535Y441763D01*
X52846Y442795D01*
X51968Y443672D01*
X50937Y444362D01*
X49790Y444837D01*
X48573Y445079D01*
D02*
G37*
G36*
X51197Y424917D02*
X34465D01*
Y410449D01*
X51197D01*
Y424917D01*
D02*
G37*
G36*
X32465D02*
X15732D01*
Y410449D01*
X32465D01*
Y424917D01*
D02*
G37*
G36*
X51197Y408449D02*
X34465D01*
Y393980D01*
X51197D01*
Y408449D01*
D02*
G37*
G36*
X32465D02*
X15732D01*
Y393980D01*
X32465D01*
Y408449D01*
D02*
G37*
G36*
X31118Y386433D02*
X28559D01*
Y384563D01*
X31118D01*
Y386433D01*
D02*
G37*
G36*
X26559D02*
X24000D01*
Y384563D01*
X26559D01*
Y386433D01*
D02*
G37*
G36*
X31118Y382563D02*
X28559D01*
Y380693D01*
X31118D01*
Y382563D01*
D02*
G37*
G36*
X26559D02*
X24000D01*
Y380693D01*
X26559D01*
Y382563D01*
D02*
G37*
G36*
X498365Y428854D02*
X481633D01*
Y414386D01*
X498365D01*
Y428854D01*
D02*
G37*
G36*
X479633D02*
X462901D01*
Y414386D01*
X479633D01*
Y428854D01*
D02*
G37*
G36*
X498365Y412386D02*
X481633D01*
Y397917D01*
X498365D01*
Y412386D01*
D02*
G37*
G36*
X479633D02*
X462901D01*
Y397917D01*
X479633D01*
Y412386D01*
D02*
G37*
G36*
X495424Y358465D02*
X494183D01*
X492966Y358223D01*
X491819Y357748D01*
X490788Y357058D01*
X489910Y356181D01*
X489221Y355149D01*
X488746Y354003D01*
X488504Y352786D01*
Y351545D01*
X488746Y350328D01*
X489221Y349182D01*
X489910Y348150D01*
X490788Y347272D01*
X491819Y346583D01*
X492966Y346108D01*
X494183Y345866D01*
X495424D01*
X496641Y346108D01*
X497787Y346583D01*
X498819Y347272D01*
X499696Y348150D01*
X500385Y349182D01*
X500860Y350328D01*
X501102Y351545D01*
Y352786D01*
X500860Y354003D01*
X500385Y355149D01*
X499696Y356181D01*
X498819Y357058D01*
X497787Y357748D01*
X496641Y358223D01*
X495424Y358465D01*
D02*
G37*
G36*
X498047Y338303D02*
X481315D01*
Y323835D01*
X498047D01*
Y338303D01*
D02*
G37*
G36*
X479315D02*
X462583D01*
Y323835D01*
X479315D01*
Y338303D01*
D02*
G37*
G36*
X498047Y321835D02*
X481315D01*
Y307366D01*
X498047D01*
Y321835D01*
D02*
G37*
G36*
X479315D02*
X462583D01*
Y307366D01*
X479315D01*
Y321835D01*
D02*
G37*
G36*
X476000Y299819D02*
X473441D01*
Y297949D01*
X476000D01*
Y299819D01*
D02*
G37*
G36*
X471441D02*
X468882D01*
Y297949D01*
X471441D01*
Y299819D01*
D02*
G37*
G36*
X476000Y295949D02*
X473441D01*
Y294079D01*
X476000D01*
Y295949D01*
D02*
G37*
G36*
X471441D02*
X468882D01*
Y294079D01*
X471441D01*
Y295949D01*
D02*
G37*
G36*
X456882Y284449D02*
X456208D01*
X455557Y284274D01*
X454974Y283938D01*
X454497Y283461D01*
X454161Y282877D01*
X453986Y282227D01*
Y281553D01*
X454161Y280902D01*
X454497Y280318D01*
X454974Y279842D01*
X455557Y279505D01*
X456208Y279331D01*
X456882D01*
X457533Y279505D01*
X458117Y279842D01*
X458593Y280318D01*
X458930Y280902D01*
X459104Y281553D01*
Y282227D01*
X458930Y282877D01*
X458593Y283461D01*
X458117Y283938D01*
X457533Y284274D01*
X456882Y284449D01*
D02*
G37*
G36*
X468447Y284055D02*
X467773D01*
X467123Y283881D01*
X466539Y283544D01*
X466062Y283067D01*
X465726Y282484D01*
X465551Y281833D01*
Y281159D01*
X465726Y280508D01*
X466062Y279925D01*
X466539Y279448D01*
X467123Y279111D01*
X467773Y278937D01*
X468447D01*
X469098Y279111D01*
X469682Y279448D01*
X470158Y279925D01*
X470495Y280508D01*
X470669Y281159D01*
Y281833D01*
X470495Y282484D01*
X470158Y283067D01*
X469682Y283544D01*
X469098Y283881D01*
X468447Y284055D01*
D02*
G37*
G36*
X31118Y343028D02*
X28559D01*
Y341158D01*
X31118D01*
Y343028D01*
D02*
G37*
G36*
X26559D02*
X24000D01*
Y341158D01*
X26559D01*
Y343028D01*
D02*
G37*
G36*
X31118Y339158D02*
X28559D01*
Y337287D01*
X31118D01*
Y339158D01*
D02*
G37*
G36*
X26559D02*
X24000D01*
Y337287D01*
X26559D01*
Y339158D01*
D02*
G37*
G36*
X51197Y334366D02*
X34465D01*
Y319898D01*
X51197D01*
Y334366D01*
D02*
G37*
G36*
X32465D02*
X15732D01*
Y319898D01*
X32465D01*
Y334366D01*
D02*
G37*
G36*
X51197Y317898D02*
X34465D01*
Y303429D01*
X51197D01*
Y317898D01*
D02*
G37*
G36*
X32465D02*
X15732D01*
Y303429D01*
X32465D01*
Y317898D01*
D02*
G37*
G36*
X81187Y296260D02*
X79443D01*
X77731Y295919D01*
X76119Y295252D01*
X74668Y294282D01*
X73434Y293048D01*
X72465Y291598D01*
X71797Y289985D01*
X71457Y288274D01*
Y286529D01*
X71797Y284818D01*
X72465Y283206D01*
X73434Y281755D01*
X74668Y280521D01*
X76119Y279552D01*
X77731Y278884D01*
X79443Y278543D01*
X81187D01*
X82899Y278884D01*
X84511Y279552D01*
X85962Y280521D01*
X87196Y281755D01*
X88165Y283206D01*
X88833Y284818D01*
X89173Y286529D01*
Y288274D01*
X88833Y289985D01*
X88165Y291598D01*
X87196Y293048D01*
X85962Y294282D01*
X84511Y295252D01*
X82899Y295919D01*
X81187Y296260D01*
D02*
G37*
G36*
X48573Y263976D02*
X47332D01*
X46115Y263734D01*
X44969Y263259D01*
X43937Y262570D01*
X43060Y261693D01*
X42371Y260661D01*
X41896Y259515D01*
X41654Y258298D01*
Y257057D01*
X41896Y255840D01*
X42371Y254693D01*
X43060Y253662D01*
X43937Y252784D01*
X44969Y252095D01*
X46115Y251620D01*
X47332Y251378D01*
X48573D01*
X49790Y251620D01*
X50937Y252095D01*
X51968Y252784D01*
X52846Y253662D01*
X53535Y254693D01*
X54010Y255840D01*
X54252Y257057D01*
Y258298D01*
X54010Y259515D01*
X53535Y260661D01*
X52846Y261693D01*
X51968Y262570D01*
X50937Y263259D01*
X49790Y263734D01*
X48573Y263976D01*
D02*
G37*
G36*
X51197Y243815D02*
X34465D01*
Y229346D01*
X51197D01*
Y243815D01*
D02*
G37*
G36*
X32465D02*
X15732D01*
Y229346D01*
X32465D01*
Y243815D01*
D02*
G37*
G36*
X51197Y227346D02*
X34465D01*
Y212878D01*
X51197D01*
Y227346D01*
D02*
G37*
G36*
X32465D02*
X15732D01*
Y212878D01*
X32465D01*
Y227346D01*
D02*
G37*
G36*
X25803Y208283D02*
X23933D01*
Y205724D01*
X25803D01*
Y208283D01*
D02*
G37*
G36*
X33071Y208268D02*
X27362D01*
Y201181D01*
X33071D01*
Y202717D01*
X39333D01*
X39374Y202677D01*
X39957Y202340D01*
X40608Y202165D01*
X41282D01*
X41933Y202340D01*
X42516Y202677D01*
X42993Y203153D01*
X43330Y203737D01*
X43504Y204387D01*
Y205061D01*
X43330Y205712D01*
X42993Y206296D01*
X42516Y206772D01*
X41933Y207109D01*
X41282Y207283D01*
X40608D01*
X39957Y207109D01*
X39374Y206772D01*
X39333Y206732D01*
X33071D01*
Y208268D01*
D02*
G37*
G36*
X428854Y438402D02*
X414386D01*
Y421669D01*
X428854D01*
Y438402D01*
D02*
G37*
G36*
X412386D02*
X397917D01*
Y421669D01*
X412386D01*
Y438402D01*
D02*
G37*
G36*
X428854Y419669D02*
X414386D01*
Y402937D01*
X428854D01*
Y419669D01*
D02*
G37*
G36*
X412386D02*
X397917D01*
Y402937D01*
X412386D01*
Y419669D01*
D02*
G37*
G36*
X606636Y339173D02*
X605962D01*
X605311Y338999D01*
X604728Y338662D01*
X604448Y338382D01*
X596457D01*
X596457Y338382D01*
X595780Y338248D01*
X595206Y337864D01*
X581751Y324409D01*
X581356D01*
X580705Y324235D01*
X580122Y323898D01*
X579645Y323422D01*
X579308Y322838D01*
X579134Y322187D01*
Y321514D01*
X579308Y320863D01*
X579645Y320279D01*
X580122Y319803D01*
X580705Y319466D01*
X581356Y319291D01*
X582030D01*
X582681Y319466D01*
X583264Y319803D01*
X583741Y320279D01*
X584078Y320863D01*
X584252Y321514D01*
Y321909D01*
X597189Y334846D01*
X604448D01*
X604728Y334566D01*
X605311Y334229D01*
X605962Y334055D01*
X606636D01*
X607287Y334229D01*
X607870Y334566D01*
X608347Y335043D01*
X608684Y335626D01*
X608858Y336277D01*
Y336951D01*
X608684Y337602D01*
X608347Y338186D01*
X607870Y338662D01*
X607287Y338999D01*
X606636Y339173D01*
D02*
G37*
G36*
X711148Y307087D02*
X710112D01*
X709110Y306818D01*
X708213Y306300D01*
X707479Y305567D01*
X706961Y304669D01*
X706693Y303668D01*
Y302631D01*
X706961Y301630D01*
X707479Y300732D01*
X708213Y299999D01*
X709110Y299481D01*
X710112Y299213D01*
X711148D01*
X712149Y299481D01*
X713047Y299999D01*
X713780Y300732D01*
X714299Y301630D01*
X714567Y302631D01*
Y303668D01*
X714299Y304669D01*
X713780Y305567D01*
X713047Y306300D01*
X712149Y306818D01*
X711148Y307087D01*
D02*
G37*
G36*
X703274D02*
X702238D01*
X701236Y306818D01*
X700339Y306300D01*
X699606Y305567D01*
X699087Y304669D01*
X698819Y303668D01*
Y302631D01*
X699087Y301630D01*
X699606Y300732D01*
X700339Y299999D01*
X701236Y299481D01*
X702238Y299213D01*
X703274D01*
X704276Y299481D01*
X705173Y299999D01*
X705906Y300732D01*
X706425Y301630D01*
X706693Y302631D01*
Y303668D01*
X706425Y304669D01*
X705906Y305567D01*
X705173Y306300D01*
X704276Y306818D01*
X703274Y307087D01*
D02*
G37*
G36*
X695400D02*
X694364D01*
X693362Y306818D01*
X692464Y306300D01*
X691732Y305567D01*
X691213Y304669D01*
X690945Y303668D01*
Y302631D01*
X691213Y301630D01*
X691732Y300732D01*
X692464Y299999D01*
X693362Y299481D01*
X694364Y299213D01*
X695400D01*
X696402Y299481D01*
X697299Y299999D01*
X698032Y300732D01*
X698551Y301630D01*
X698819Y302631D01*
Y303668D01*
X698551Y304669D01*
X698032Y305567D01*
X697299Y306300D01*
X696402Y306818D01*
X695400Y307087D01*
D02*
G37*
G36*
X687526D02*
X686489D01*
X685488Y306818D01*
X684590Y306300D01*
X683857Y305567D01*
X683339Y304669D01*
X683071Y303668D01*
Y302631D01*
X683339Y301630D01*
X683857Y300732D01*
X684590Y299999D01*
X685488Y299481D01*
X686489Y299213D01*
X687526D01*
X688527Y299481D01*
X689425Y299999D01*
X690158Y300732D01*
X690677Y301630D01*
X690945Y302631D01*
Y303668D01*
X690677Y304669D01*
X690158Y305567D01*
X689425Y306300D01*
X688527Y306818D01*
X687526Y307087D01*
D02*
G37*
G36*
X711148Y299213D02*
X710112D01*
X709110Y298944D01*
X708213Y298426D01*
X707479Y297693D01*
X706961Y296795D01*
X706693Y295794D01*
Y294757D01*
X706961Y293756D01*
X707479Y292858D01*
X708213Y292125D01*
X709110Y291607D01*
X710112Y291339D01*
X711148D01*
X712149Y291607D01*
X713047Y292125D01*
X713780Y292858D01*
X714299Y293756D01*
X714567Y294757D01*
Y295794D01*
X714299Y296795D01*
X713780Y297693D01*
X713047Y298426D01*
X712149Y298944D01*
X711148Y299213D01*
D02*
G37*
G36*
X703274D02*
X702238D01*
X701236Y298944D01*
X700339Y298426D01*
X699606Y297693D01*
X699087Y296795D01*
X698819Y295794D01*
Y294757D01*
X699087Y293756D01*
X699606Y292858D01*
X700339Y292125D01*
X701236Y291607D01*
X702238Y291339D01*
X703274D01*
X704276Y291607D01*
X705173Y292125D01*
X705906Y292858D01*
X706425Y293756D01*
X706693Y294757D01*
Y295794D01*
X706425Y296795D01*
X705906Y297693D01*
X705173Y298426D01*
X704276Y298944D01*
X703274Y299213D01*
D02*
G37*
G36*
X695400D02*
X694364D01*
X693362Y298944D01*
X692464Y298426D01*
X691732Y297693D01*
X691213Y296795D01*
X690945Y295794D01*
Y294757D01*
X691213Y293756D01*
X691732Y292858D01*
X692464Y292125D01*
X693362Y291607D01*
X694364Y291339D01*
X695400D01*
X696402Y291607D01*
X697299Y292125D01*
X698032Y292858D01*
X698551Y293756D01*
X698819Y294757D01*
Y295794D01*
X698551Y296795D01*
X698032Y297693D01*
X697299Y298426D01*
X696402Y298944D01*
X695400Y299213D01*
D02*
G37*
G36*
X687526D02*
X686489D01*
X685488Y298944D01*
X684590Y298426D01*
X683857Y297693D01*
X683339Y296795D01*
X683071Y295794D01*
Y294757D01*
X683339Y293756D01*
X683857Y292858D01*
X684590Y292125D01*
X685488Y291607D01*
X686489Y291339D01*
X687526D01*
X688527Y291607D01*
X689425Y292125D01*
X690158Y292858D01*
X690677Y293756D01*
X690945Y294757D01*
Y295794D01*
X690677Y296795D01*
X690158Y297693D01*
X689425Y298426D01*
X688527Y298944D01*
X687526Y299213D01*
D02*
G37*
G36*
X711148Y291339D02*
X710112D01*
X709110Y291070D01*
X708213Y290552D01*
X707479Y289819D01*
X706961Y288921D01*
X706693Y287920D01*
Y286883D01*
X706961Y285882D01*
X707479Y284984D01*
X708213Y284251D01*
X709110Y283733D01*
X710112Y283465D01*
X711148D01*
X712149Y283733D01*
X713047Y284251D01*
X713780Y284984D01*
X714299Y285882D01*
X714567Y286883D01*
Y287920D01*
X714299Y288921D01*
X713780Y289819D01*
X713047Y290552D01*
X712149Y291070D01*
X711148Y291339D01*
D02*
G37*
G36*
X703274D02*
X702238D01*
X701236Y291070D01*
X700339Y290552D01*
X699606Y289819D01*
X699087Y288921D01*
X698819Y287920D01*
Y286883D01*
X699087Y285882D01*
X699606Y284984D01*
X700339Y284251D01*
X701236Y283733D01*
X702238Y283465D01*
X703274D01*
X704276Y283733D01*
X705173Y284251D01*
X705906Y284984D01*
X706425Y285882D01*
X706693Y286883D01*
Y287920D01*
X706425Y288921D01*
X705906Y289819D01*
X705173Y290552D01*
X704276Y291070D01*
X703274Y291339D01*
D02*
G37*
G36*
X654062D02*
X653025D01*
X652024Y291070D01*
X651126Y290552D01*
X650393Y289819D01*
X649875Y288921D01*
X649606Y287920D01*
Y286883D01*
X649875Y285882D01*
X650393Y284984D01*
X651126Y284251D01*
X652024Y283733D01*
X653025Y283465D01*
X654062D01*
X655063Y283733D01*
X655961Y284251D01*
X656694Y284984D01*
X657212Y285882D01*
X657480Y286883D01*
Y287920D01*
X657212Y288921D01*
X656694Y289819D01*
X655961Y290552D01*
X655063Y291070D01*
X654062Y291339D01*
D02*
G37*
G36*
X646188D02*
X645151D01*
X644150Y291070D01*
X643252Y290552D01*
X642519Y289819D01*
X642001Y288921D01*
X641732Y287920D01*
Y286883D01*
X642001Y285882D01*
X642519Y284984D01*
X643252Y284251D01*
X644150Y283733D01*
X645151Y283465D01*
X646188D01*
X647189Y283733D01*
X648087Y284251D01*
X648820Y284984D01*
X649338Y285882D01*
X649606Y286883D01*
Y287920D01*
X649338Y288921D01*
X648820Y289819D01*
X648087Y290552D01*
X647189Y291070D01*
X646188Y291339D01*
D02*
G37*
G36*
X638314D02*
X637277D01*
X636276Y291070D01*
X635378Y290552D01*
X634645Y289819D01*
X634127Y288921D01*
X633858Y287920D01*
Y286883D01*
X634127Y285882D01*
X634645Y284984D01*
X635378Y284251D01*
X636276Y283733D01*
X637277Y283465D01*
X638314D01*
X639315Y283733D01*
X640213Y284251D01*
X640946Y284984D01*
X641464Y285882D01*
X641732Y286883D01*
Y287920D01*
X641464Y288921D01*
X640946Y289819D01*
X640213Y290552D01*
X639315Y291070D01*
X638314Y291339D01*
D02*
G37*
G36*
X630440D02*
X629403D01*
X628402Y291070D01*
X627504Y290552D01*
X626771Y289819D01*
X626253Y288921D01*
X625984Y287920D01*
Y286883D01*
X626253Y285882D01*
X626771Y284984D01*
X627504Y284251D01*
X628402Y283733D01*
X629403Y283465D01*
X630440D01*
X631441Y283733D01*
X632339Y284251D01*
X633072Y284984D01*
X633590Y285882D01*
X633858Y286883D01*
Y287920D01*
X633590Y288921D01*
X633072Y289819D01*
X632339Y290552D01*
X631441Y291070D01*
X630440Y291339D01*
D02*
G37*
G36*
X622566D02*
X621529D01*
X620528Y291070D01*
X619630Y290552D01*
X618897Y289819D01*
X618378Y288921D01*
X618110Y287920D01*
Y286883D01*
X618378Y285882D01*
X618897Y284984D01*
X619630Y284251D01*
X620528Y283733D01*
X621529Y283465D01*
X622566D01*
X623567Y283733D01*
X624465Y284251D01*
X625198Y284984D01*
X625716Y285882D01*
X625984Y286883D01*
Y287920D01*
X625716Y288921D01*
X625198Y289819D01*
X624465Y290552D01*
X623567Y291070D01*
X622566Y291339D01*
D02*
G37*
G36*
X711148Y283465D02*
X710112D01*
X709110Y283196D01*
X708213Y282678D01*
X707479Y281945D01*
X706961Y281047D01*
X706693Y280046D01*
Y279009D01*
X706961Y278008D01*
X707479Y277110D01*
X708213Y276377D01*
X709110Y275859D01*
X710112Y275591D01*
X711148D01*
X712149Y275859D01*
X713047Y276377D01*
X713780Y277110D01*
X714299Y278008D01*
X714567Y279009D01*
Y280046D01*
X714299Y281047D01*
X713780Y281945D01*
X713047Y282678D01*
X712149Y283196D01*
X711148Y283465D01*
D02*
G37*
G36*
X703274D02*
X702238D01*
X701236Y283196D01*
X700339Y282678D01*
X699606Y281945D01*
X699087Y281047D01*
X698819Y280046D01*
Y279009D01*
X699087Y278008D01*
X699606Y277110D01*
X700339Y276377D01*
X701236Y275859D01*
X702238Y275591D01*
X703274D01*
X704276Y275859D01*
X705173Y276377D01*
X705906Y277110D01*
X706425Y278008D01*
X706693Y279009D01*
Y280046D01*
X706425Y281047D01*
X705906Y281945D01*
X705173Y282678D01*
X704276Y283196D01*
X703274Y283465D01*
D02*
G37*
G36*
X654062D02*
X653025D01*
X652024Y283196D01*
X651126Y282678D01*
X650393Y281945D01*
X649875Y281047D01*
X649606Y280046D01*
Y279009D01*
X649875Y278008D01*
X650393Y277110D01*
X651126Y276377D01*
X652024Y275859D01*
X653025Y275591D01*
X654062D01*
X655063Y275859D01*
X655961Y276377D01*
X656694Y277110D01*
X657212Y278008D01*
X657480Y279009D01*
Y280046D01*
X657212Y281047D01*
X656694Y281945D01*
X655961Y282678D01*
X655063Y283196D01*
X654062Y283465D01*
D02*
G37*
G36*
X646188D02*
X645151D01*
X644150Y283196D01*
X643252Y282678D01*
X642519Y281945D01*
X642001Y281047D01*
X641732Y280046D01*
Y279009D01*
X642001Y278008D01*
X642519Y277110D01*
X643252Y276377D01*
X644150Y275859D01*
X645151Y275591D01*
X646188D01*
X647189Y275859D01*
X648087Y276377D01*
X648820Y277110D01*
X649338Y278008D01*
X649606Y279009D01*
Y280046D01*
X649338Y281047D01*
X648820Y281945D01*
X648087Y282678D01*
X647189Y283196D01*
X646188Y283465D01*
D02*
G37*
G36*
X638314D02*
X637277D01*
X636276Y283196D01*
X635378Y282678D01*
X634645Y281945D01*
X634127Y281047D01*
X633858Y280046D01*
Y279009D01*
X634127Y278008D01*
X634645Y277110D01*
X635378Y276377D01*
X636276Y275859D01*
X637277Y275591D01*
X638314D01*
X639315Y275859D01*
X640213Y276377D01*
X640946Y277110D01*
X641464Y278008D01*
X641732Y279009D01*
Y280046D01*
X641464Y281047D01*
X640946Y281945D01*
X640213Y282678D01*
X639315Y283196D01*
X638314Y283465D01*
D02*
G37*
G36*
X630440D02*
X629403D01*
X628402Y283196D01*
X627504Y282678D01*
X626771Y281945D01*
X626253Y281047D01*
X625984Y280046D01*
Y279009D01*
X626253Y278008D01*
X626771Y277110D01*
X627504Y276377D01*
X628402Y275859D01*
X629403Y275591D01*
X630440D01*
X631441Y275859D01*
X632339Y276377D01*
X633072Y277110D01*
X633590Y278008D01*
X633858Y279009D01*
Y280046D01*
X633590Y281047D01*
X633072Y281945D01*
X632339Y282678D01*
X631441Y283196D01*
X630440Y283465D01*
D02*
G37*
G36*
X622566D02*
X621529D01*
X620528Y283196D01*
X619630Y282678D01*
X618897Y281945D01*
X618378Y281047D01*
X618110Y280046D01*
Y279009D01*
X618378Y278008D01*
X618897Y277110D01*
X619630Y276377D01*
X620528Y275859D01*
X621529Y275591D01*
X622566D01*
X623567Y275859D01*
X624465Y276377D01*
X625198Y277110D01*
X625716Y278008D01*
X625984Y279009D01*
Y280046D01*
X625716Y281047D01*
X625198Y281945D01*
X624465Y282678D01*
X623567Y283196D01*
X622566Y283465D01*
D02*
G37*
G36*
X614692D02*
X613655D01*
X612654Y283196D01*
X611756Y282678D01*
X611023Y281945D01*
X610504Y281047D01*
X610236Y280046D01*
Y279009D01*
X610504Y278008D01*
X611023Y277110D01*
X611756Y276377D01*
X612654Y275859D01*
X613655Y275591D01*
X614692D01*
X615693Y275859D01*
X616591Y276377D01*
X617324Y277110D01*
X617842Y278008D01*
X618110Y279009D01*
Y280046D01*
X617842Y281047D01*
X617324Y281945D01*
X616591Y282678D01*
X615693Y283196D01*
X614692Y283465D01*
D02*
G37*
G36*
X711148Y275590D02*
X710112D01*
X709110Y275322D01*
X708213Y274804D01*
X707479Y274071D01*
X706961Y273173D01*
X706693Y272172D01*
Y271135D01*
X706961Y270134D01*
X707479Y269236D01*
X708213Y268503D01*
X709110Y267985D01*
X710112Y267717D01*
X711148D01*
X712149Y267985D01*
X713047Y268503D01*
X713780Y269236D01*
X714299Y270134D01*
X714567Y271135D01*
Y272172D01*
X714299Y273173D01*
X713780Y274071D01*
X713047Y274804D01*
X712149Y275322D01*
X711148Y275590D01*
D02*
G37*
G36*
X703274D02*
X702238D01*
X701236Y275322D01*
X700339Y274804D01*
X699606Y274071D01*
X699087Y273173D01*
X698819Y272172D01*
Y271135D01*
X699087Y270134D01*
X699606Y269236D01*
X700339Y268503D01*
X701236Y267985D01*
X702238Y267717D01*
X703274D01*
X704276Y267985D01*
X705173Y268503D01*
X705906Y269236D01*
X706425Y270134D01*
X706693Y271135D01*
Y272172D01*
X706425Y273173D01*
X705906Y274071D01*
X705173Y274804D01*
X704276Y275322D01*
X703274Y275590D01*
D02*
G37*
G36*
X654062D02*
X653025D01*
X652024Y275322D01*
X651126Y274804D01*
X650393Y274071D01*
X649875Y273173D01*
X649606Y272172D01*
Y271135D01*
X649875Y270134D01*
X650393Y269236D01*
X651126Y268503D01*
X652024Y267985D01*
X653025Y267717D01*
X654062D01*
X655063Y267985D01*
X655961Y268503D01*
X656694Y269236D01*
X657212Y270134D01*
X657480Y271135D01*
Y272172D01*
X657212Y273173D01*
X656694Y274071D01*
X655961Y274804D01*
X655063Y275322D01*
X654062Y275590D01*
D02*
G37*
G36*
X646188D02*
X645151D01*
X644150Y275322D01*
X643252Y274804D01*
X642519Y274071D01*
X642001Y273173D01*
X641732Y272172D01*
Y271135D01*
X642001Y270134D01*
X642519Y269236D01*
X643252Y268503D01*
X644150Y267985D01*
X645151Y267717D01*
X646188D01*
X647189Y267985D01*
X648087Y268503D01*
X648820Y269236D01*
X649338Y270134D01*
X649606Y271135D01*
Y272172D01*
X649338Y273173D01*
X648820Y274071D01*
X648087Y274804D01*
X647189Y275322D01*
X646188Y275590D01*
D02*
G37*
G36*
X638314D02*
X637277D01*
X636276Y275322D01*
X635378Y274804D01*
X634645Y274071D01*
X634127Y273173D01*
X633858Y272172D01*
Y271135D01*
X634127Y270134D01*
X634645Y269236D01*
X635378Y268503D01*
X636276Y267985D01*
X637277Y267717D01*
X638314D01*
X639315Y267985D01*
X640213Y268503D01*
X640946Y269236D01*
X641464Y270134D01*
X641732Y271135D01*
Y272172D01*
X641464Y273173D01*
X640946Y274071D01*
X640213Y274804D01*
X639315Y275322D01*
X638314Y275590D01*
D02*
G37*
G36*
X630440D02*
X629403D01*
X628402Y275322D01*
X627504Y274804D01*
X626771Y274071D01*
X626253Y273173D01*
X625984Y272172D01*
Y271135D01*
X626253Y270134D01*
X626771Y269236D01*
X627504Y268503D01*
X628402Y267985D01*
X629403Y267717D01*
X630440D01*
X631441Y267985D01*
X632339Y268503D01*
X633072Y269236D01*
X633590Y270134D01*
X633858Y271135D01*
Y272172D01*
X633590Y273173D01*
X633072Y274071D01*
X632339Y274804D01*
X631441Y275322D01*
X630440Y275590D01*
D02*
G37*
G36*
X622566D02*
X621529D01*
X620528Y275322D01*
X619630Y274804D01*
X618897Y274071D01*
X618378Y273173D01*
X618110Y272172D01*
Y271135D01*
X618378Y270134D01*
X618897Y269236D01*
X619630Y268503D01*
X620528Y267985D01*
X621529Y267717D01*
X622566D01*
X623567Y267985D01*
X624465Y268503D01*
X625198Y269236D01*
X625716Y270134D01*
X625984Y271135D01*
Y272172D01*
X625716Y273173D01*
X625198Y274071D01*
X624465Y274804D01*
X623567Y275322D01*
X622566Y275590D01*
D02*
G37*
G36*
X614692D02*
X613655D01*
X612654Y275322D01*
X611756Y274804D01*
X611023Y274071D01*
X610504Y273173D01*
X610236Y272172D01*
Y271135D01*
X610504Y270134D01*
X611023Y269236D01*
X611756Y268503D01*
X612654Y267985D01*
X613655Y267717D01*
X614692D01*
X615693Y267985D01*
X616591Y268503D01*
X617324Y269236D01*
X617842Y270134D01*
X618110Y271135D01*
Y272172D01*
X617842Y273173D01*
X617324Y274071D01*
X616591Y274804D01*
X615693Y275322D01*
X614692Y275590D01*
D02*
G37*
G36*
X745679Y182087D02*
X743934D01*
X742223Y181746D01*
X740611Y181078D01*
X739160Y180109D01*
X737926Y178875D01*
X736956Y177424D01*
X736289Y175812D01*
X735948Y174101D01*
Y172356D01*
X736289Y170644D01*
X736956Y169032D01*
X737926Y167581D01*
X739160Y166348D01*
X740611Y165378D01*
X742223Y164710D01*
X743934Y164370D01*
X745679D01*
X747390Y164710D01*
X749003Y165378D01*
X750453Y166348D01*
X751687Y167581D01*
X752657Y169032D01*
X753324Y170644D01*
X753665Y172356D01*
Y174101D01*
X753324Y175812D01*
X752657Y177424D01*
X751687Y178875D01*
X750453Y180109D01*
X749003Y181078D01*
X747390Y181746D01*
X745679Y182087D01*
D02*
G37*
G36*
X809389Y157201D02*
X792657D01*
Y142732D01*
X809389D01*
Y157201D01*
D02*
G37*
G36*
X790657D02*
X773925D01*
Y142732D01*
X790657D01*
Y157201D01*
D02*
G37*
G36*
X809389Y140732D02*
X792657D01*
Y126264D01*
X809389D01*
Y140732D01*
D02*
G37*
G36*
X790657D02*
X773925D01*
Y126264D01*
X790657D01*
Y140732D01*
D02*
G37*
G36*
X374475Y448366D02*
X373557D01*
X372671Y448129D01*
X371876Y447670D01*
X371228Y447021D01*
X370769Y446227D01*
X370532Y445341D01*
Y444423D01*
X370769Y443537D01*
X371228Y442742D01*
X371876Y442094D01*
X372671Y441635D01*
X373557Y441398D01*
X374475D01*
X375361Y441635D01*
X376155Y442094D01*
X376804Y442742D01*
X377263Y443537D01*
X377500Y444423D01*
Y445341D01*
X377263Y446227D01*
X376804Y447021D01*
X376155Y447670D01*
X375361Y448129D01*
X374475Y448366D01*
D02*
G37*
G36*
X362221Y424917D02*
X345488D01*
Y410449D01*
X362221D01*
Y424917D01*
D02*
G37*
G36*
X343488D02*
X326756D01*
Y410449D01*
X343488D01*
Y424917D01*
D02*
G37*
G36*
X362221Y408449D02*
X345488D01*
Y393980D01*
X362221D01*
Y408449D01*
D02*
G37*
G36*
X343488D02*
X326756D01*
Y393980D01*
X343488D01*
Y408449D01*
D02*
G37*
G36*
X399943Y325492D02*
X399269D01*
X398619Y325318D01*
X398035Y324981D01*
X397559Y324504D01*
X397222Y323921D01*
X397047Y323270D01*
Y322596D01*
X397222Y321945D01*
X397559Y321362D01*
X398035Y320885D01*
X398619Y320548D01*
X399269Y320374D01*
X399943D01*
X400594Y320548D01*
X401178Y320885D01*
X401654Y321362D01*
X401991Y321945D01*
X402165Y322596D01*
Y323270D01*
X401991Y323921D01*
X401654Y324504D01*
X401178Y324981D01*
X400594Y325318D01*
X399943Y325492D01*
D02*
G37*
G36*
X362221Y334366D02*
X345488D01*
Y319898D01*
X362221D01*
Y334366D01*
D02*
G37*
G36*
X343488D02*
X326756D01*
Y319898D01*
X343488D01*
Y334366D01*
D02*
G37*
G36*
X362221Y317898D02*
X345488D01*
Y303429D01*
X362221D01*
Y317898D01*
D02*
G37*
G36*
X343488D02*
X326756D01*
Y303429D01*
X343488D01*
Y317898D01*
D02*
G37*
G36*
X358677Y294375D02*
X356807D01*
Y291816D01*
X358677D01*
Y294375D01*
D02*
G37*
G36*
X354807D02*
X352937D01*
Y291816D01*
X354807D01*
Y294375D01*
D02*
G37*
G36*
X362221Y243815D02*
X345488D01*
Y229346D01*
X362221D01*
Y243815D01*
D02*
G37*
G36*
X343488D02*
X326756D01*
Y229346D01*
X343488D01*
Y243815D01*
D02*
G37*
G36*
X365593Y230807D02*
X364919D01*
X364268Y230633D01*
X363685Y230296D01*
X363208Y229819D01*
X362871Y229236D01*
X362697Y228585D01*
Y227911D01*
X362871Y227260D01*
X363208Y226677D01*
X363685Y226200D01*
X364268Y225863D01*
X364919Y225689D01*
X365593D01*
X366244Y225863D01*
X366827Y226200D01*
X367304Y226677D01*
X367641Y227260D01*
X367815Y227911D01*
Y228585D01*
X367641Y229236D01*
X367304Y229819D01*
X366827Y230296D01*
X366244Y230633D01*
X365593Y230807D01*
D02*
G37*
G36*
X362221Y227346D02*
X345488D01*
Y212878D01*
X362221D01*
Y227346D01*
D02*
G37*
G36*
X343488D02*
X326756D01*
Y212878D01*
X343488D01*
Y227346D01*
D02*
G37*
G36*
X362221Y155264D02*
X345488D01*
Y140795D01*
X362221D01*
Y155264D01*
D02*
G37*
G36*
X343488D02*
X326756D01*
Y140795D01*
X343488D01*
Y155264D01*
D02*
G37*
G36*
X362221Y138795D02*
X345488D01*
Y124327D01*
X362221D01*
Y138795D01*
D02*
G37*
G36*
X343488D02*
X326756D01*
Y124327D01*
X343488D01*
Y138795D01*
D02*
G37*
G36*
X330620Y116764D02*
X329380D01*
X328163Y116522D01*
X327016Y116047D01*
X325985Y115357D01*
X325107Y114480D01*
X324418Y113448D01*
X323943Y112302D01*
X323701Y111085D01*
Y109844D01*
X323943Y108627D01*
X324418Y107481D01*
X325107Y106449D01*
X325985Y105572D01*
X327016Y104882D01*
X328163Y104407D01*
X329380Y104165D01*
X330620D01*
X331837Y104407D01*
X332984Y104882D01*
X334015Y105572D01*
X334893Y106449D01*
X335582Y107481D01*
X336057Y108627D01*
X336299Y109844D01*
Y111085D01*
X336057Y112302D01*
X335582Y113448D01*
X334893Y114480D01*
X334015Y115357D01*
X332984Y116047D01*
X331837Y116522D01*
X330620Y116764D01*
D02*
G37*
G36*
X745361Y363189D02*
X743616D01*
X741904Y362848D01*
X740292Y362181D01*
X738841Y361211D01*
X737607Y359978D01*
X736638Y358527D01*
X735970Y356915D01*
X735630Y355203D01*
Y353458D01*
X735970Y351747D01*
X736638Y350135D01*
X737607Y348684D01*
X738841Y347450D01*
X740292Y346481D01*
X741904Y345813D01*
X743616Y345472D01*
X745361D01*
X747072Y345813D01*
X748684Y346481D01*
X750135Y347450D01*
X751369Y348684D01*
X752338Y350135D01*
X753006Y351747D01*
X753346Y353458D01*
Y355203D01*
X753006Y356915D01*
X752338Y358527D01*
X751369Y359978D01*
X750135Y361211D01*
X748684Y362181D01*
X747072Y362848D01*
X745361Y363189D01*
D02*
G37*
G36*
X809071Y338303D02*
X792339D01*
Y323835D01*
X809071D01*
Y338303D01*
D02*
G37*
G36*
X790339D02*
X773606D01*
Y323835D01*
X790339D01*
Y338303D01*
D02*
G37*
G36*
X809071Y321835D02*
X792339D01*
Y307366D01*
X809071D01*
Y321835D01*
D02*
G37*
G36*
X790339D02*
X773606D01*
Y307366D01*
X790339D01*
Y321835D01*
D02*
G37*
G36*
X745754Y272638D02*
X744009D01*
X742298Y272297D01*
X740686Y271630D01*
X739235Y270660D01*
X738001Y269426D01*
X737032Y267975D01*
X736364Y266363D01*
X736024Y264652D01*
Y262907D01*
X736364Y261196D01*
X737032Y259584D01*
X738001Y258133D01*
X739235Y256899D01*
X740686Y255929D01*
X742298Y255262D01*
X744009Y254921D01*
X745754D01*
X747466Y255262D01*
X749078Y255929D01*
X750529Y256899D01*
X751763Y258133D01*
X752732Y259584D01*
X753400Y261196D01*
X753740Y262907D01*
Y264652D01*
X753400Y266363D01*
X752732Y267975D01*
X751763Y269426D01*
X750529Y270660D01*
X749078Y271630D01*
X747466Y272297D01*
X745754Y272638D01*
D02*
G37*
G36*
X809465Y247752D02*
X792732D01*
Y233283D01*
X809465D01*
Y247752D01*
D02*
G37*
G36*
X790732D02*
X774000D01*
Y233283D01*
X790732D01*
Y247752D01*
D02*
G37*
G36*
X809465Y231283D02*
X792732D01*
Y216815D01*
X809465D01*
Y231283D01*
D02*
G37*
G36*
X790732D02*
X774000D01*
Y216815D01*
X790732D01*
Y231283D01*
D02*
G37*
G36*
X21933Y193882D02*
X20063D01*
Y191323D01*
X21933D01*
Y193882D01*
D02*
G37*
G36*
X31813Y164583D02*
X29254D01*
Y162713D01*
X31813D01*
Y164583D01*
D02*
G37*
G36*
X27254D02*
X24695D01*
Y162713D01*
X27254D01*
Y164583D01*
D02*
G37*
G36*
X31813Y160713D02*
X29254D01*
Y158843D01*
X31813D01*
Y160713D01*
D02*
G37*
G36*
X27254D02*
X24695D01*
Y158843D01*
X27254D01*
Y160713D01*
D02*
G37*
G36*
X51197Y155264D02*
X34465D01*
Y140795D01*
X51197D01*
Y155264D01*
D02*
G37*
G36*
X32465D02*
X15732D01*
Y140795D01*
X32465D01*
Y155264D01*
D02*
G37*
G36*
X51197Y138795D02*
X34465D01*
Y124327D01*
X51197D01*
Y138795D01*
D02*
G37*
G36*
X32465D02*
X15732D01*
Y124327D01*
X32465D01*
Y138795D01*
D02*
G37*
G36*
X81187Y117157D02*
X79443D01*
X77731Y116817D01*
X76119Y116149D01*
X74668Y115180D01*
X73434Y113946D01*
X72465Y112495D01*
X71797Y110883D01*
X71457Y109172D01*
Y107427D01*
X71797Y105715D01*
X72465Y104103D01*
X73434Y102652D01*
X74668Y101418D01*
X76119Y100449D01*
X77731Y99781D01*
X79443Y99441D01*
X81187D01*
X82899Y99781D01*
X84511Y100449D01*
X85962Y101418D01*
X87196Y102652D01*
X88165Y104103D01*
X88833Y105715D01*
X89173Y107427D01*
Y109172D01*
X88833Y110883D01*
X88165Y112495D01*
X87196Y113946D01*
X85962Y115180D01*
X84511Y116149D01*
X82899Y116817D01*
X81187Y117157D01*
D02*
G37*
G36*
X48573Y82874D02*
X47332D01*
X46115Y82632D01*
X44969Y82157D01*
X43937Y81468D01*
X43060Y80590D01*
X42371Y79559D01*
X41896Y78412D01*
X41654Y77195D01*
Y75954D01*
X41896Y74737D01*
X42371Y73591D01*
X43060Y72559D01*
X43937Y71682D01*
X44969Y70992D01*
X46115Y70518D01*
X47332Y70276D01*
X48573D01*
X49790Y70518D01*
X50937Y70992D01*
X51968Y71682D01*
X52846Y72559D01*
X53535Y73591D01*
X54010Y74737D01*
X54252Y75954D01*
Y77195D01*
X54010Y78412D01*
X53535Y79559D01*
X52846Y80590D01*
X51968Y81468D01*
X50937Y82157D01*
X49790Y82632D01*
X48573Y82874D01*
D02*
G37*
G36*
X51197Y62713D02*
X34465D01*
Y48244D01*
X51197D01*
Y62713D01*
D02*
G37*
G36*
X32465D02*
X15732D01*
Y48244D01*
X32465D01*
Y62713D01*
D02*
G37*
G36*
X51197Y46244D02*
X34465D01*
Y31776D01*
X51197D01*
Y46244D01*
D02*
G37*
G36*
X32465D02*
X15732D01*
Y31776D01*
X32465D01*
Y46244D01*
D02*
G37*
G36*
X81187Y24606D02*
X79443D01*
X77731Y24266D01*
X76119Y23598D01*
X74668Y22629D01*
X73434Y21395D01*
X72465Y19944D01*
X71797Y18332D01*
X71457Y16621D01*
Y14876D01*
X71797Y13164D01*
X72465Y11552D01*
X73434Y10101D01*
X74668Y8867D01*
X76119Y7898D01*
X77731Y7230D01*
X79443Y6890D01*
X81187D01*
X82899Y7230D01*
X84511Y7898D01*
X85962Y8867D01*
X87196Y10101D01*
X88165Y11552D01*
X88833Y13164D01*
X89173Y14876D01*
Y16621D01*
X88833Y18332D01*
X88165Y19944D01*
X87196Y21395D01*
X85962Y22629D01*
X84511Y23598D01*
X82899Y24266D01*
X81187Y24606D01*
D02*
G37*
G36*
X412386Y127378D02*
X397917D01*
Y110646D01*
X412386D01*
Y127378D01*
D02*
G37*
G36*
X365764Y105595D02*
X363205D01*
Y103724D01*
X365764D01*
Y105595D01*
D02*
G37*
G36*
X298510Y87598D02*
X296765D01*
X295054Y87258D01*
X293442Y86590D01*
X291991Y85621D01*
X290757Y84387D01*
X289788Y82936D01*
X289120Y81324D01*
X288779Y79613D01*
Y77868D01*
X289120Y76156D01*
X289788Y74544D01*
X290757Y73093D01*
X291991Y71860D01*
X293442Y70890D01*
X295054Y70222D01*
X296765Y69882D01*
X298510D01*
X300222Y70222D01*
X301834Y70890D01*
X303285Y71860D01*
X304519Y73093D01*
X305488Y74544D01*
X306156Y76156D01*
X306496Y77868D01*
Y79613D01*
X306156Y81324D01*
X305488Y82936D01*
X304519Y84387D01*
X303285Y85621D01*
X301834Y86590D01*
X300222Y87258D01*
X298510Y87598D01*
D02*
G37*
G36*
X362221Y62713D02*
X345488D01*
Y48244D01*
X362221D01*
Y62713D01*
D02*
G37*
G36*
X373047Y54740D02*
X370882D01*
Y48244D01*
X373047D01*
Y54740D01*
D02*
G37*
G36*
X368882D02*
X366717D01*
Y48244D01*
X368882D01*
Y54740D01*
D02*
G37*
G36*
X343488Y62713D02*
X326756D01*
Y48244D01*
X343488D01*
Y62713D01*
D02*
G37*
G36*
X373047Y46244D02*
X370882D01*
Y39748D01*
X373047D01*
Y46244D01*
D02*
G37*
G36*
X368882D02*
X366717D01*
Y39748D01*
X368882D01*
Y46244D01*
D02*
G37*
G36*
X362221D02*
X345488D01*
Y31776D01*
X362221D01*
Y46244D01*
D02*
G37*
G36*
X343488D02*
X326756D01*
Y31776D01*
X343488D01*
Y46244D01*
D02*
G37*
G36*
X419628Y260433D02*
X418954D01*
X418304Y260259D01*
X417720Y259922D01*
X417244Y259445D01*
X416907Y258862D01*
X416732Y258211D01*
Y257537D01*
X416907Y256886D01*
X417244Y256303D01*
X417720Y255826D01*
X418304Y255489D01*
X418954Y255315D01*
X419628D01*
X420279Y255489D01*
X420863Y255826D01*
X421339Y256303D01*
X421676Y256886D01*
X421850Y257537D01*
Y258211D01*
X421676Y258862D01*
X421339Y259445D01*
X420863Y259922D01*
X420279Y260259D01*
X419628Y260433D01*
D02*
G37*
G36*
X433408Y257283D02*
X432734D01*
X432083Y257109D01*
X431500Y256772D01*
X431023Y256296D01*
X430686Y255712D01*
X430512Y255061D01*
Y254387D01*
X430686Y253737D01*
X431023Y253153D01*
X431500Y252677D01*
X432083Y252340D01*
X432734Y252165D01*
X433408D01*
X434059Y252340D01*
X434642Y252677D01*
X435119Y253153D01*
X435456Y253737D01*
X435630Y254387D01*
Y255061D01*
X435456Y255712D01*
X435119Y256296D01*
X434642Y256772D01*
X434059Y257109D01*
X433408Y257283D01*
D02*
G37*
G36*
X439313Y251772D02*
X438639D01*
X437989Y251597D01*
X437405Y251260D01*
X436929Y250784D01*
X436592Y250200D01*
X436417Y249550D01*
Y248876D01*
X436592Y248225D01*
X436929Y247641D01*
X437405Y247165D01*
X437989Y246828D01*
X438639Y246654D01*
X439313D01*
X439964Y246828D01*
X440548Y247165D01*
X441024Y247641D01*
X441361Y248225D01*
X441535Y248876D01*
Y249550D01*
X441361Y250200D01*
X441024Y250784D01*
X440548Y251260D01*
X439964Y251597D01*
X439313Y251772D01*
D02*
G37*
G36*
X455061Y241729D02*
X454388D01*
X453737Y241554D01*
X453153Y241217D01*
X452677Y240741D01*
X452340Y240157D01*
X452165Y239506D01*
Y238833D01*
X452340Y238182D01*
X452677Y237598D01*
X453153Y237122D01*
X453737Y236785D01*
X454388Y236611D01*
X455061D01*
X455712Y236785D01*
X456296Y237122D01*
X456772Y237598D01*
X457109Y238182D01*
X457283Y238833D01*
Y239506D01*
X457109Y240157D01*
X456772Y240741D01*
X456296Y241217D01*
X455712Y241554D01*
X455061Y241729D01*
D02*
G37*
G36*
X442035Y241501D02*
X441361D01*
X440710Y241326D01*
X440126Y240989D01*
X439650Y240513D01*
X439313Y239930D01*
X439139Y239279D01*
Y238605D01*
X439313Y237954D01*
X439650Y237370D01*
X440126Y236894D01*
X440710Y236557D01*
X441361Y236383D01*
X442035D01*
X442685Y236557D01*
X443269Y236894D01*
X443745Y237370D01*
X444082Y237954D01*
X444257Y238605D01*
Y239279D01*
X444082Y239930D01*
X443745Y240513D01*
X443269Y240989D01*
X442685Y241326D01*
X442035Y241501D01*
D02*
G37*
G36*
X498441Y247752D02*
X481709D01*
Y233283D01*
X498441D01*
Y247752D01*
D02*
G37*
G36*
X479709D02*
X462976D01*
Y233283D01*
X479709D01*
Y247752D01*
D02*
G37*
G36*
X498441Y231283D02*
X481709D01*
Y216815D01*
X498441D01*
Y231283D01*
D02*
G37*
G36*
X479709D02*
X462976D01*
Y216815D01*
X479709D01*
Y231283D01*
D02*
G37*
G36*
X445219Y208071D02*
X444545D01*
X443894Y207896D01*
X443311Y207560D01*
X442834Y207083D01*
X442497Y206500D01*
X442323Y205849D01*
Y205175D01*
X442497Y204524D01*
X442834Y203941D01*
X443311Y203464D01*
X443894Y203127D01*
X444545Y202953D01*
X445219D01*
X445870Y203127D01*
X446453Y203464D01*
X446930Y203941D01*
X447266Y204524D01*
X447441Y205175D01*
Y205849D01*
X447266Y206500D01*
X446930Y207083D01*
X446453Y207560D01*
X445870Y207896D01*
X445219Y208071D01*
D02*
G37*
G36*
X429471Y204134D02*
X428797D01*
X428146Y203959D01*
X427563Y203623D01*
X427086Y203146D01*
X426749Y202563D01*
X426575Y201912D01*
Y201238D01*
X426749Y200587D01*
X427086Y200004D01*
X427563Y199527D01*
X428146Y199190D01*
X428797Y199016D01*
X429471D01*
X430122Y199190D01*
X430705Y199527D01*
X431182Y200004D01*
X431519Y200587D01*
X431693Y201238D01*
Y201912D01*
X431519Y202563D01*
X431182Y203146D01*
X430705Y203623D01*
X430122Y203959D01*
X429471Y204134D01*
D02*
G37*
G36*
X528432Y209646D02*
X526687D01*
X524975Y209305D01*
X523363Y208637D01*
X521912Y207668D01*
X520678Y206434D01*
X519709Y204983D01*
X519041Y203371D01*
X518701Y201660D01*
Y199915D01*
X519041Y198204D01*
X519709Y196591D01*
X520678Y195141D01*
X521912Y193907D01*
X523363Y192937D01*
X524975Y192270D01*
X526687Y191929D01*
X528432D01*
X530143Y192270D01*
X531755Y192937D01*
X533206Y193907D01*
X534440Y195141D01*
X535409Y196591D01*
X536077Y198204D01*
X536417Y199915D01*
Y201660D01*
X536077Y203371D01*
X535409Y204983D01*
X534440Y206434D01*
X533206Y207668D01*
X531755Y208637D01*
X530143Y209305D01*
X528432Y209646D01*
D02*
G37*
G36*
X495742Y177362D02*
X494501D01*
X493284Y177120D01*
X492138Y176645D01*
X491106Y175956D01*
X490229Y175078D01*
X489539Y174047D01*
X489064Y172900D01*
X488822Y171683D01*
Y170443D01*
X489064Y169226D01*
X489539Y168079D01*
X490229Y167048D01*
X491106Y166170D01*
X492138Y165481D01*
X493284Y165006D01*
X494501Y164764D01*
X495742D01*
X496959Y165006D01*
X498105Y165481D01*
X499137Y166170D01*
X500014Y167048D01*
X500704Y168079D01*
X501179Y169226D01*
X501421Y170443D01*
Y171683D01*
X501179Y172900D01*
X500704Y174047D01*
X500014Y175078D01*
X499137Y175956D01*
X498105Y176645D01*
X496959Y177120D01*
X495742Y177362D01*
D02*
G37*
G36*
X445754Y165354D02*
X444009D01*
X442298Y165014D01*
X440686Y164346D01*
X439235Y163377D01*
X438001Y162143D01*
X437032Y160692D01*
X436364Y159080D01*
X436024Y157369D01*
Y155624D01*
X436364Y153912D01*
X437032Y152300D01*
X438001Y150849D01*
X439235Y149615D01*
X440686Y148646D01*
X442298Y147978D01*
X444009Y147638D01*
X445754D01*
X447466Y147978D01*
X449078Y148646D01*
X450529Y149615D01*
X451763Y150849D01*
X452732Y152300D01*
X453400Y153912D01*
X453740Y155624D01*
Y157369D01*
X453400Y159080D01*
X452732Y160692D01*
X451763Y162143D01*
X450529Y163377D01*
X449078Y164346D01*
X447466Y165014D01*
X445754Y165354D01*
D02*
G37*
G36*
X498365Y157201D02*
X481633D01*
Y142732D01*
X498365D01*
Y157201D01*
D02*
G37*
G36*
X479633D02*
X462901D01*
Y142732D01*
X479633D01*
Y157201D01*
D02*
G37*
G36*
X682423Y126575D02*
X681750D01*
X681099Y126400D01*
X680515Y126064D01*
X680039Y125587D01*
X679702Y125004D01*
X679528Y124353D01*
Y123679D01*
X679702Y123028D01*
X680039Y122444D01*
X680515Y121968D01*
X681099Y121631D01*
X681750Y121457D01*
X682423D01*
X683074Y121631D01*
X683658Y121968D01*
X684134Y122444D01*
X684471Y123028D01*
X684646Y123679D01*
Y124353D01*
X684471Y125004D01*
X684134Y125587D01*
X683658Y126064D01*
X683074Y126400D01*
X682423Y126575D01*
D02*
G37*
G36*
X609589D02*
X608915D01*
X608264Y126400D01*
X607681Y126064D01*
X607204Y125587D01*
X606867Y125004D01*
X606693Y124353D01*
Y123679D01*
X606867Y123028D01*
X607204Y122444D01*
X607681Y121968D01*
X608264Y121631D01*
X608915Y121457D01*
X609589D01*
X610240Y121631D01*
X610823Y121968D01*
X611300Y122444D01*
X611637Y123028D01*
X611811Y123679D01*
Y124353D01*
X611637Y125004D01*
X611300Y125587D01*
X610823Y126064D01*
X610240Y126400D01*
X609589Y126575D01*
D02*
G37*
G36*
X528356Y119095D02*
X526611D01*
X524900Y118754D01*
X523288Y118086D01*
X521837Y117117D01*
X520603Y115883D01*
X519634Y114432D01*
X518966Y112820D01*
X518625Y111109D01*
Y109364D01*
X518966Y107652D01*
X519634Y106040D01*
X520603Y104589D01*
X521837Y103356D01*
X523288Y102386D01*
X524900Y101718D01*
X526611Y101378D01*
X528356D01*
X530067Y101718D01*
X531680Y102386D01*
X533131Y103356D01*
X534364Y104589D01*
X535334Y106040D01*
X536001Y107652D01*
X536342Y109364D01*
Y111109D01*
X536001Y112820D01*
X535334Y114432D01*
X534364Y115883D01*
X533131Y117117D01*
X531680Y118086D01*
X530067Y118754D01*
X528356Y119095D01*
D02*
G37*
G36*
X461630Y105331D02*
X448835D01*
Y92535D01*
X461630D01*
Y105331D01*
D02*
G37*
G36*
X446835D02*
X434039D01*
Y92535D01*
X446835D01*
Y105331D01*
D02*
G37*
G36*
X684039Y86171D02*
X683863Y86153D01*
X682732Y85810D01*
X681690Y85253D01*
X681674Y85240D01*
X684039D01*
Y86171D01*
D02*
G37*
G36*
X672639Y86171D02*
Y85240D01*
X675005D01*
X674989Y85253D01*
X673947Y85810D01*
X672816Y86153D01*
X672639Y86171D01*
D02*
G37*
G36*
X686039D02*
Y79740D01*
X691068D01*
Y80240D01*
X690952Y81416D01*
X690610Y82547D01*
X690052Y83590D01*
X689302Y84503D01*
X688389Y85253D01*
X687347Y85810D01*
X686216Y86153D01*
X686039Y86171D01*
D02*
G37*
G36*
X670639Y86171D02*
X670463Y86153D01*
X669332Y85810D01*
X668290Y85253D01*
X667376Y84503D01*
X666626Y83590D01*
X666069Y82547D01*
X665726Y81416D01*
X665610Y80240D01*
Y79740D01*
X670639D01*
Y86171D01*
D02*
G37*
G36*
X684039Y72240D02*
X681674D01*
X681690Y72227D01*
X682732Y71670D01*
X683863Y71327D01*
X684039Y71310D01*
Y72240D01*
D02*
G37*
G36*
X670639Y77740D02*
X665610D01*
Y77240D01*
X665726Y76064D01*
X666069Y74933D01*
X666626Y73891D01*
X667376Y72977D01*
X668290Y72227D01*
X669332Y71670D01*
X670463Y71327D01*
X670639Y71310D01*
Y77740D01*
D02*
G37*
G36*
X691068D02*
X686039D01*
Y71310D01*
X686216Y71327D01*
X687347Y71670D01*
X688389Y72227D01*
X689302Y72977D01*
X690052Y73891D01*
X690610Y74933D01*
X690952Y76064D01*
X691068Y77240D01*
Y77740D01*
D02*
G37*
G36*
X675005Y72240D02*
X672639D01*
Y71310D01*
X672816Y71327D01*
X673947Y71670D01*
X674989Y72227D01*
X675005Y72240D01*
D02*
G37*
G36*
X747221Y45509D02*
Y40370D01*
X752360D01*
X752198Y41183D01*
X751729Y42315D01*
X751049Y43333D01*
X750183Y44199D01*
X749165Y44879D01*
X748034Y45348D01*
X747221Y45509D01*
D02*
G37*
G36*
X745221D02*
X744407Y45348D01*
X743276Y44879D01*
X742258Y44199D01*
X741392Y43333D01*
X740711Y42315D01*
X740243Y41183D01*
X740081Y40370D01*
X745221D01*
Y45509D01*
D02*
G37*
G36*
X752360Y38370D02*
X747221D01*
Y33231D01*
X748034Y33392D01*
X749165Y33861D01*
X750183Y34541D01*
X751049Y35407D01*
X751729Y36425D01*
X752198Y37557D01*
X752360Y38370D01*
D02*
G37*
G36*
X745221D02*
X740081D01*
X740243Y37557D01*
X740711Y36425D01*
X741392Y35407D01*
X742258Y34541D01*
X743276Y33861D01*
X744407Y33392D01*
X745221Y33231D01*
Y38370D01*
D02*
G37*
G36*
X399931Y87240D02*
X394431D01*
Y79740D01*
X399931D01*
Y87240D01*
D02*
G37*
G36*
X392431D02*
X386931D01*
Y79740D01*
X392431D01*
Y87240D01*
D02*
G37*
G36*
X399931Y77740D02*
X394431D01*
Y70240D01*
X399931D01*
Y77740D01*
D02*
G37*
G36*
X392431D02*
X386931D01*
Y70240D01*
X392431D01*
Y77740D01*
D02*
G37*
G36*
X461039Y72260D02*
X457890D01*
Y66354D01*
X461039D01*
Y72260D01*
D02*
G37*
G36*
X442929D02*
X439780D01*
Y66354D01*
X442929D01*
Y72260D01*
D02*
G37*
G36*
X455890D02*
X452740D01*
Y66354D01*
X455890D01*
Y72260D01*
D02*
G37*
G36*
X437780D02*
X434630D01*
Y66354D01*
X437780D01*
Y72260D01*
D02*
G37*
G36*
X461039Y64354D02*
X457890D01*
Y58449D01*
X461039D01*
Y64354D01*
D02*
G37*
G36*
X455890D02*
X452740D01*
Y58449D01*
X455890D01*
Y64354D01*
D02*
G37*
G36*
X442929D02*
X439780D01*
Y58449D01*
X442929D01*
Y64354D01*
D02*
G37*
G36*
X437780D02*
X434630D01*
Y58449D01*
X437780D01*
Y64354D01*
D02*
G37*
G36*
X438929Y57873D02*
X437893D01*
X436891Y57605D01*
X435994Y57086D01*
X435261Y56353D01*
X434742Y55455D01*
X434474Y54454D01*
Y53417D01*
X434742Y52416D01*
X435261Y51518D01*
X435994Y50785D01*
X436891Y50267D01*
X437893Y49999D01*
X438929D01*
X439931Y50267D01*
X440828Y50785D01*
X441561Y51518D01*
X442080Y52416D01*
X442348Y53417D01*
Y54454D01*
X442080Y55455D01*
X441561Y56353D01*
X440828Y57086D01*
X439931Y57605D01*
X438929Y57873D01*
D02*
G37*
G36*
X397063Y54740D02*
X394898D01*
Y48244D01*
X397063D01*
Y54740D01*
D02*
G37*
G36*
X392898D02*
X390732D01*
Y48244D01*
X392898D01*
Y54740D01*
D02*
G37*
G36*
X732437Y45587D02*
X727220D01*
Y40370D01*
X732437D01*
Y45587D01*
D02*
G37*
G36*
X725220D02*
X720004D01*
Y40370D01*
X725220D01*
Y45587D01*
D02*
G37*
G36*
X397063Y46244D02*
X394898D01*
Y39748D01*
X397063D01*
Y46244D01*
D02*
G37*
G36*
X392898D02*
X390732D01*
Y39748D01*
X392898D01*
Y46244D01*
D02*
G37*
G36*
X464583Y41120D02*
Y38500D01*
X467203D01*
X467083Y38950D01*
X466588Y39806D01*
X465889Y40505D01*
X465032Y41000D01*
X464583Y41120D01*
D02*
G37*
G36*
X448835D02*
Y38500D01*
X451455D01*
X451335Y38950D01*
X450840Y39806D01*
X450141Y40505D01*
X449284Y41000D01*
X448835Y41120D01*
D02*
G37*
G36*
X456709Y41120D02*
Y38500D01*
X459329D01*
X459209Y38950D01*
X458714Y39806D01*
X458015Y40505D01*
X457158Y41000D01*
X456709Y41120D01*
D02*
G37*
G36*
X440961D02*
Y38500D01*
X443581D01*
X443461Y38950D01*
X442966Y39806D01*
X442267Y40505D01*
X441410Y41000D01*
X440961Y41120D01*
D02*
G37*
G36*
X472457D02*
Y38500D01*
X475077D01*
X474957Y38950D01*
X474462Y39806D01*
X473763Y40505D01*
X472906Y41000D01*
X472457Y41120D01*
D02*
G37*
G36*
X454709Y41120D02*
X454259Y41000D01*
X453403Y40505D01*
X452703Y39806D01*
X452209Y38950D01*
X452088Y38500D01*
X454709D01*
Y41120D01*
D02*
G37*
G36*
X438961D02*
X438511Y41000D01*
X437654Y40505D01*
X436955Y39806D01*
X436461Y38950D01*
X436340Y38500D01*
X438961D01*
Y41120D01*
D02*
G37*
G36*
X470457D02*
X470007Y41000D01*
X469150Y40505D01*
X468451Y39806D01*
X467957Y38950D01*
X467836Y38500D01*
X470457D01*
Y41120D01*
D02*
G37*
G36*
X462583Y41120D02*
X462133Y41000D01*
X461276Y40505D01*
X460577Y39806D01*
X460083Y38950D01*
X459962Y38500D01*
X462583D01*
Y41120D01*
D02*
G37*
G36*
X446835D02*
X446385Y41000D01*
X445528Y40505D01*
X444829Y39806D01*
X444335Y38950D01*
X444214Y38500D01*
X446835D01*
Y41120D01*
D02*
G37*
G36*
X604125Y49114D02*
X602962D01*
X601821Y48887D01*
X600746Y48442D01*
X599779Y47796D01*
X598956Y46973D01*
X598310Y46006D01*
X597865Y44931D01*
X597638Y43790D01*
Y42627D01*
X597865Y41486D01*
X598310Y40411D01*
X598956Y39444D01*
X599779Y38622D01*
X600746Y37975D01*
X601821Y37530D01*
X602962Y37303D01*
X604125D01*
X605266Y37530D01*
X606341Y37975D01*
X607308Y38622D01*
X608130Y39444D01*
X608777Y40411D01*
X609222Y41486D01*
X609449Y42627D01*
Y43790D01*
X609222Y44931D01*
X608777Y46006D01*
X608130Y46973D01*
X607308Y47796D01*
X606341Y48442D01*
X605266Y48887D01*
X604125Y49114D01*
D02*
G37*
G36*
X420660D02*
X419497D01*
X418356Y48887D01*
X417281Y48442D01*
X416314Y47796D01*
X415492Y46973D01*
X414845Y46006D01*
X414400Y44931D01*
X414173Y43790D01*
Y42627D01*
X414400Y41486D01*
X414845Y40411D01*
X415492Y39444D01*
X416314Y38622D01*
X417281Y37975D01*
X418356Y37530D01*
X419497Y37303D01*
X420660D01*
X421801Y37530D01*
X422876Y37975D01*
X423843Y38622D01*
X424666Y39444D01*
X425312Y40411D01*
X425757Y41486D01*
X425984Y42627D01*
Y43790D01*
X425757Y44931D01*
X425312Y46006D01*
X424666Y46973D01*
X423843Y47796D01*
X422876Y48442D01*
X421801Y48887D01*
X420660Y49114D01*
D02*
G37*
G36*
X493224Y39681D02*
X489681D01*
Y36531D01*
X493224D01*
Y39681D01*
D02*
G37*
G36*
X536531D02*
X532988D01*
Y36531D01*
X536531D01*
Y39681D01*
D02*
G37*
G36*
X504051D02*
X500508D01*
Y36531D01*
X504051D01*
Y39681D01*
D02*
G37*
G36*
X514878D02*
X511335D01*
Y36531D01*
X514878D01*
Y39681D01*
D02*
G37*
G36*
X525705D02*
X522161D01*
Y36531D01*
X525705D01*
Y39681D01*
D02*
G37*
G36*
X520161D02*
X516618D01*
Y36531D01*
X520161D01*
Y39681D01*
D02*
G37*
G36*
X509335D02*
X505791D01*
Y36531D01*
X509335D01*
Y39681D01*
D02*
G37*
G36*
X530988D02*
X527445D01*
Y36531D01*
X530988D01*
Y39681D01*
D02*
G37*
G36*
X498508D02*
X494965D01*
Y36531D01*
X498508D01*
Y39681D01*
D02*
G37*
G36*
X487681D02*
X484138D01*
Y36531D01*
X487681D01*
Y39681D01*
D02*
G37*
G36*
X467203Y36500D02*
X464583D01*
Y33880D01*
X465032Y34000D01*
X465889Y34495D01*
X466588Y35194D01*
X467083Y36050D01*
X467203Y36500D01*
D02*
G37*
G36*
X451455D02*
X448835D01*
Y33880D01*
X449284Y34000D01*
X450141Y34495D01*
X450840Y35194D01*
X451335Y36050D01*
X451455Y36500D01*
D02*
G37*
G36*
X470457D02*
X467836D01*
X467957Y36050D01*
X468451Y35194D01*
X469150Y34495D01*
X470007Y34000D01*
X470457Y33880D01*
Y36500D01*
D02*
G37*
G36*
X454709D02*
X452088D01*
X452209Y36050D01*
X452703Y35194D01*
X453403Y34495D01*
X454259Y34000D01*
X454709Y33880D01*
Y36500D01*
D02*
G37*
G36*
X438961D02*
X436340D01*
X436461Y36050D01*
X436955Y35194D01*
X437654Y34495D01*
X438511Y34000D01*
X438961Y33880D01*
Y36500D01*
D02*
G37*
G36*
X475077D02*
X472457D01*
Y33880D01*
X472906Y34000D01*
X473763Y34495D01*
X474462Y35194D01*
X474957Y36050D01*
X475077Y36500D01*
D02*
G37*
G36*
X459329D02*
X456709D01*
Y33880D01*
X457158Y34000D01*
X458015Y34495D01*
X458714Y35194D01*
X459209Y36050D01*
X459329Y36500D01*
D02*
G37*
G36*
X443581D02*
X440961D01*
Y33880D01*
X441410Y34000D01*
X442267Y34495D01*
X442966Y35194D01*
X443461Y36050D01*
X443581Y36500D01*
D02*
G37*
G36*
X462583D02*
X459962D01*
X460083Y36050D01*
X460577Y35194D01*
X461276Y34495D01*
X462133Y34000D01*
X462583Y33880D01*
Y36500D01*
D02*
G37*
G36*
X446835D02*
X444214D01*
X444335Y36050D01*
X444829Y35194D01*
X445528Y34495D01*
X446385Y34000D01*
X446835Y33880D01*
Y36500D01*
D02*
G37*
G36*
X732437Y38370D02*
X727220D01*
Y33154D01*
X732437D01*
Y38370D01*
D02*
G37*
G36*
X725220D02*
X720004D01*
Y33154D01*
X725220D01*
Y38370D01*
D02*
G37*
G36*
X525705Y34532D02*
X521161D01*
X516618D01*
Y31382D01*
Y30626D01*
X521161D01*
X525705D01*
Y31382D01*
Y34532D01*
D02*
G37*
G36*
X514878D02*
X510335D01*
X505791D01*
Y31382D01*
Y30626D01*
X510335D01*
X514878D01*
Y31382D01*
Y34532D01*
D02*
G37*
G36*
X536531D02*
X531988D01*
X527445D01*
Y31382D01*
Y30626D01*
X531988D01*
X536531D01*
Y31382D01*
Y34532D01*
D02*
G37*
G36*
X504051D02*
X499508D01*
X494965D01*
Y31382D01*
Y30626D01*
X499508D01*
X504051D01*
Y31382D01*
Y34532D01*
D02*
G37*
G36*
X493224D02*
X488681D01*
X484138D01*
Y31382D01*
Y30626D01*
X488681D01*
X493224D01*
Y31382D01*
Y34532D01*
D02*
G37*
G36*
X464583Y33246D02*
Y30626D01*
X467203D01*
X467083Y31076D01*
X466588Y31932D01*
X465889Y32631D01*
X465032Y33126D01*
X464583Y33246D01*
D02*
G37*
G36*
X448835D02*
Y30626D01*
X451455D01*
X451335Y31076D01*
X450840Y31932D01*
X450141Y32631D01*
X449284Y33126D01*
X448835Y33246D01*
D02*
G37*
G36*
X456709Y33246D02*
Y30626D01*
X459329D01*
X459209Y31076D01*
X458714Y31932D01*
X458015Y32631D01*
X457158Y33126D01*
X456709Y33246D01*
D02*
G37*
G36*
X440961D02*
Y30626D01*
X443581D01*
X443461Y31076D01*
X442966Y31932D01*
X442267Y32631D01*
X441410Y33126D01*
X440961Y33246D01*
D02*
G37*
G36*
X472457D02*
Y30626D01*
X475077D01*
X474957Y31076D01*
X474462Y31932D01*
X473763Y32631D01*
X472906Y33126D01*
X472457Y33246D01*
D02*
G37*
G36*
X454709Y33246D02*
X454259Y33126D01*
X453403Y32631D01*
X452703Y31932D01*
X452209Y31076D01*
X452088Y30626D01*
X454709D01*
Y33246D01*
D02*
G37*
G36*
X438961D02*
X438511Y33126D01*
X437654Y32631D01*
X436955Y31932D01*
X436461Y31076D01*
X436340Y30626D01*
X438961D01*
Y33246D01*
D02*
G37*
G36*
X470457D02*
X470007Y33126D01*
X469150Y32631D01*
X468451Y31932D01*
X467957Y31076D01*
X467836Y30626D01*
X470457D01*
Y33246D01*
D02*
G37*
G36*
X462583Y33246D02*
X462133Y33126D01*
X461276Y32631D01*
X460577Y31932D01*
X460083Y31076D01*
X459962Y30626D01*
X462583D01*
Y33246D01*
D02*
G37*
G36*
X446835D02*
X446385Y33126D01*
X445528Y32631D01*
X444829Y31932D01*
X444335Y31076D01*
X444214Y30626D01*
X446835D01*
Y33246D01*
D02*
G37*
G36*
X467203Y28626D02*
X464583D01*
Y26006D01*
X465032Y26126D01*
X465889Y26621D01*
X466588Y27320D01*
X467083Y28176D01*
X467203Y28626D01*
D02*
G37*
G36*
X451455D02*
X448835D01*
Y26006D01*
X449284Y26126D01*
X450141Y26621D01*
X450840Y27320D01*
X451335Y28176D01*
X451455Y28626D01*
D02*
G37*
G36*
X470457D02*
X467836D01*
X467957Y28176D01*
X468451Y27320D01*
X469150Y26621D01*
X470007Y26126D01*
X470457Y26006D01*
Y28626D01*
D02*
G37*
G36*
X454709D02*
X452088D01*
X452209Y28176D01*
X452703Y27320D01*
X453403Y26621D01*
X454259Y26126D01*
X454709Y26006D01*
Y28626D01*
D02*
G37*
G36*
X438961D02*
X436340D01*
X436461Y28176D01*
X436955Y27320D01*
X437654Y26621D01*
X438511Y26126D01*
X438961Y26006D01*
Y28626D01*
D02*
G37*
G36*
X475077D02*
X472457D01*
Y26006D01*
X472906Y26126D01*
X473763Y26621D01*
X474462Y27320D01*
X474957Y28176D01*
X475077Y28626D01*
D02*
G37*
G36*
X459329D02*
X456709D01*
Y26006D01*
X457158Y26126D01*
X458015Y26621D01*
X458714Y27320D01*
X459209Y28176D01*
X459329Y28626D01*
D02*
G37*
G36*
X443581D02*
X440961D01*
Y26006D01*
X441410Y26126D01*
X442267Y26621D01*
X442966Y27320D01*
X443461Y28176D01*
X443581Y28626D01*
D02*
G37*
G36*
X462583D02*
X459962D01*
X460083Y28176D01*
X460577Y27320D01*
X461276Y26621D01*
X462133Y26126D01*
X462583Y26006D01*
Y28626D01*
D02*
G37*
G36*
X446835D02*
X444214D01*
X444335Y28176D01*
X444829Y27320D01*
X445528Y26621D01*
X446385Y26126D01*
X446835Y26006D01*
Y28626D01*
D02*
G37*
G36*
X525705Y28626D02*
X521161D01*
X516618D01*
Y25476D01*
Y24721D01*
X521161D01*
X525705D01*
Y25476D01*
Y28626D01*
D02*
G37*
G36*
X514878D02*
X510335D01*
X505791D01*
Y25476D01*
Y24721D01*
X510335D01*
X514878D01*
Y25476D01*
Y28626D01*
D02*
G37*
G36*
X536531D02*
X531988D01*
X527445D01*
Y25476D01*
Y24721D01*
X531988D01*
X536531D01*
Y25476D01*
Y28626D01*
D02*
G37*
G36*
X504051D02*
X499508D01*
X494965D01*
Y25476D01*
Y24721D01*
X499508D01*
X504051D01*
Y25476D01*
Y28626D01*
D02*
G37*
G36*
X493224D02*
X488681D01*
X484138D01*
Y25476D01*
Y24721D01*
X488681D01*
X493224D01*
Y25476D01*
Y28626D01*
D02*
G37*
G36*
X464583Y25372D02*
Y22752D01*
X467203D01*
X467083Y23202D01*
X466588Y24058D01*
X465889Y24757D01*
X465032Y25252D01*
X464583Y25372D01*
D02*
G37*
G36*
X448835D02*
Y22752D01*
X451455D01*
X451335Y23202D01*
X450840Y24058D01*
X450141Y24757D01*
X449284Y25252D01*
X448835Y25372D01*
D02*
G37*
G36*
X440961Y25372D02*
Y22752D01*
X443581D01*
X443461Y23202D01*
X442966Y24058D01*
X442267Y24757D01*
X441410Y25252D01*
X440961Y25372D01*
D02*
G37*
G36*
X438961Y25372D02*
X438511Y25252D01*
X437654Y24757D01*
X436955Y24058D01*
X436461Y23202D01*
X436340Y22752D01*
X438961D01*
Y25372D01*
D02*
G37*
G36*
X462583Y25372D02*
X462133Y25252D01*
X461276Y24757D01*
X460577Y24058D01*
X460083Y23202D01*
X459962Y22752D01*
X462583D01*
Y25372D01*
D02*
G37*
G36*
X446835D02*
X446385Y25252D01*
X445528Y24757D01*
X444829Y24058D01*
X444335Y23202D01*
X444214Y22752D01*
X446835D01*
Y25372D01*
D02*
G37*
G36*
X525705Y22720D02*
X521161D01*
X516618D01*
Y19571D01*
Y18815D01*
X521161D01*
X525705D01*
Y19571D01*
Y22720D01*
D02*
G37*
G36*
X514878D02*
X510335D01*
X505791D01*
Y19571D01*
Y18815D01*
X510335D01*
X514878D01*
Y19571D01*
Y22720D01*
D02*
G37*
G36*
X536531D02*
X531988D01*
X527445D01*
Y19571D01*
Y18815D01*
X531988D01*
X536531D01*
Y19571D01*
Y22720D01*
D02*
G37*
G36*
X504051D02*
X499508D01*
X494965D01*
Y19571D01*
Y18815D01*
X499508D01*
X504051D01*
Y19571D01*
Y22720D01*
D02*
G37*
G36*
X493224D02*
X488681D01*
X484138D01*
Y19571D01*
Y18815D01*
X488681D01*
X493224D01*
Y19571D01*
Y22720D01*
D02*
G37*
G36*
X467203Y20752D02*
X464583D01*
Y18132D01*
X465032Y18252D01*
X465889Y18746D01*
X466588Y19446D01*
X467083Y20302D01*
X467203Y20752D01*
D02*
G37*
G36*
X451455D02*
X448835D01*
Y18132D01*
X449284Y18252D01*
X450141Y18746D01*
X450840Y19446D01*
X451335Y20302D01*
X451455Y20752D01*
D02*
G37*
G36*
X438961D02*
X436340D01*
X436461Y20302D01*
X436955Y19446D01*
X437654Y18746D01*
X438511Y18252D01*
X438961Y18132D01*
Y20752D01*
D02*
G37*
G36*
X443581D02*
X440961D01*
Y18132D01*
X441410Y18252D01*
X442267Y18746D01*
X442966Y19446D01*
X443461Y20302D01*
X443581Y20752D01*
D02*
G37*
G36*
X462583D02*
X459962D01*
X460083Y20302D01*
X460577Y19446D01*
X461276Y18746D01*
X462133Y18252D01*
X462583Y18132D01*
Y20752D01*
D02*
G37*
G36*
X446835D02*
X444214D01*
X444335Y20302D01*
X444829Y19446D01*
X445528Y18746D01*
X446385Y18252D01*
X446835Y18132D01*
Y20752D01*
D02*
G37*
G36*
X471949Y25492D02*
X470964D01*
X470013Y25237D01*
X469160Y24745D01*
X468464Y24048D01*
X467971Y23196D01*
X467717Y22244D01*
Y21260D01*
X467971Y20308D01*
X468464Y19455D01*
X469160Y18759D01*
X470013Y18267D01*
X470964Y18012D01*
X471949D01*
X472900Y18267D01*
X473753Y18759D01*
X474449Y19455D01*
X474942Y20308D01*
X475197Y21260D01*
Y22244D01*
X474942Y23196D01*
X474449Y24048D01*
X473753Y24745D01*
X472900Y25237D01*
X471949Y25492D01*
D02*
G37*
G36*
X456201D02*
X455216D01*
X454265Y25237D01*
X453412Y24745D01*
X452716Y24048D01*
X452223Y23196D01*
X451968Y22244D01*
Y21260D01*
X452223Y20308D01*
X452716Y19455D01*
X453412Y18759D01*
X454265Y18267D01*
X455216Y18012D01*
X456201D01*
X457152Y18267D01*
X458005Y18759D01*
X458702Y19455D01*
X459194Y20308D01*
X459449Y21260D01*
Y22244D01*
X459194Y23196D01*
X458702Y24048D01*
X458005Y24745D01*
X457152Y25237D01*
X456201Y25492D01*
D02*
G37*
G36*
X464583Y17498D02*
Y14878D01*
X467203D01*
X467083Y15328D01*
X466588Y16184D01*
X465889Y16883D01*
X465032Y17378D01*
X464583Y17498D01*
D02*
G37*
G36*
X448835D02*
Y14878D01*
X451455D01*
X451335Y15328D01*
X450840Y16184D01*
X450141Y16883D01*
X449284Y17378D01*
X448835Y17498D01*
D02*
G37*
G36*
X462583Y17498D02*
X462133Y17378D01*
X461276Y16883D01*
X460577Y16184D01*
X460083Y15328D01*
X459962Y14878D01*
X462583D01*
Y17498D01*
D02*
G37*
G36*
X446835D02*
X446385Y17378D01*
X445528Y16883D01*
X444829Y16184D01*
X444335Y15328D01*
X444214Y14878D01*
X446835D01*
Y17498D01*
D02*
G37*
G36*
X525705Y16815D02*
X521161D01*
X516618D01*
Y13665D01*
Y12910D01*
X521161D01*
X525705D01*
Y13665D01*
Y16815D01*
D02*
G37*
G36*
X514878D02*
X510335D01*
X505791D01*
Y13665D01*
Y12910D01*
X510335D01*
X514878D01*
Y13665D01*
Y16815D01*
D02*
G37*
G36*
X536531D02*
X531988D01*
X527445D01*
Y13665D01*
Y12910D01*
X531988D01*
X536531D01*
Y13665D01*
Y16815D01*
D02*
G37*
G36*
X504051D02*
X499508D01*
X494965D01*
Y13665D01*
Y12910D01*
X499508D01*
X504051D01*
Y13665D01*
Y16815D01*
D02*
G37*
G36*
X493224D02*
X488681D01*
X484138D01*
Y13665D01*
Y12910D01*
X488681D01*
X493224D01*
Y13665D01*
Y16815D01*
D02*
G37*
G36*
X467203Y12878D02*
X464583D01*
Y10257D01*
X465032Y10378D01*
X465889Y10872D01*
X466588Y11572D01*
X467083Y12428D01*
X467203Y12878D01*
D02*
G37*
G36*
X451455D02*
X448835D01*
Y10257D01*
X449284Y10378D01*
X450141Y10872D01*
X450840Y11572D01*
X451335Y12428D01*
X451455Y12878D01*
D02*
G37*
G36*
X462583D02*
X459962D01*
X460083Y12428D01*
X460577Y11572D01*
X461276Y10872D01*
X462133Y10378D01*
X462583Y10257D01*
Y12878D01*
D02*
G37*
G36*
X446835D02*
X444214D01*
X444335Y12428D01*
X444829Y11572D01*
X445528Y10872D01*
X446385Y10378D01*
X446835Y10257D01*
Y12878D01*
D02*
G37*
G36*
X471949Y17618D02*
X470964D01*
X470013Y17363D01*
X469160Y16871D01*
X468464Y16174D01*
X467971Y15322D01*
X467717Y14370D01*
Y13386D01*
X467971Y12434D01*
X468464Y11581D01*
X469160Y10885D01*
X470013Y10393D01*
X470964Y10138D01*
X471949D01*
X472900Y10393D01*
X473753Y10885D01*
X474449Y11581D01*
X474942Y12434D01*
X475197Y13386D01*
Y14370D01*
X474942Y15322D01*
X474449Y16174D01*
X473753Y16871D01*
X472900Y17363D01*
X471949Y17618D01*
D02*
G37*
G36*
X456201D02*
X455216D01*
X454265Y17363D01*
X453412Y16871D01*
X452716Y16174D01*
X452223Y15322D01*
X451968Y14370D01*
Y13386D01*
X452223Y12434D01*
X452716Y11581D01*
X453412Y10885D01*
X454265Y10393D01*
X455216Y10138D01*
X456201D01*
X457152Y10393D01*
X458005Y10885D01*
X458702Y11581D01*
X459194Y12434D01*
X459449Y13386D01*
Y14370D01*
X459194Y15322D01*
X458702Y16174D01*
X458005Y16871D01*
X457152Y17363D01*
X456201Y17618D01*
D02*
G37*
G36*
X440453D02*
X439468D01*
X438517Y17363D01*
X437664Y16871D01*
X436968Y16174D01*
X436475Y15322D01*
X436221Y14370D01*
Y13386D01*
X436475Y12434D01*
X436968Y11581D01*
X437664Y10885D01*
X438517Y10393D01*
X439468Y10138D01*
X440453D01*
X441404Y10393D01*
X442257Y10885D01*
X442953Y11581D01*
X443446Y12434D01*
X443701Y13386D01*
Y14370D01*
X443446Y15322D01*
X442953Y16174D01*
X442257Y16871D01*
X441404Y17363D01*
X440453Y17618D01*
D02*
G37*
G36*
X464583Y9624D02*
Y7004D01*
X467203D01*
X467083Y7454D01*
X466588Y8310D01*
X465889Y9009D01*
X465032Y9504D01*
X464583Y9624D01*
D02*
G37*
G36*
X448835D02*
Y7004D01*
X451455D01*
X451335Y7454D01*
X450840Y8310D01*
X450141Y9009D01*
X449284Y9504D01*
X448835Y9624D01*
D02*
G37*
G36*
X462583Y9624D02*
X462133Y9504D01*
X461276Y9009D01*
X460577Y8310D01*
X460083Y7454D01*
X459962Y7004D01*
X462583D01*
Y9624D01*
D02*
G37*
G36*
X446835D02*
X446385Y9504D01*
X445528Y9009D01*
X444829Y8310D01*
X444335Y7454D01*
X444214Y7004D01*
X446835D01*
Y9624D01*
D02*
G37*
G36*
X525705Y10909D02*
X521161D01*
X516618D01*
Y7760D01*
Y7004D01*
X521161D01*
X525705D01*
Y7760D01*
Y10909D01*
D02*
G37*
G36*
X514878D02*
X510335D01*
X505791D01*
Y7760D01*
Y7004D01*
X510335D01*
X514878D01*
Y7760D01*
Y10909D01*
D02*
G37*
G36*
X536531D02*
X531988D01*
X527445D01*
Y7760D01*
Y7004D01*
X531988D01*
X536531D01*
Y7760D01*
Y10909D01*
D02*
G37*
G36*
X504051D02*
X499508D01*
X494965D01*
Y7760D01*
Y7004D01*
X499508D01*
X504051D01*
Y7760D01*
Y10909D01*
D02*
G37*
G36*
X493224D02*
X488681D01*
X484138D01*
Y7760D01*
Y7004D01*
X488681D01*
X493224D01*
Y7760D01*
Y10909D01*
D02*
G37*
G36*
X467203Y5004D02*
X464583D01*
Y2383D01*
X465032Y2504D01*
X465889Y2998D01*
X466588Y3698D01*
X467083Y4554D01*
X467203Y5004D01*
D02*
G37*
G36*
X451455D02*
X448835D01*
Y2383D01*
X449284Y2504D01*
X450141Y2998D01*
X450840Y3698D01*
X451335Y4554D01*
X451455Y5004D01*
D02*
G37*
G36*
X462583D02*
X459962D01*
X460083Y4554D01*
X460577Y3698D01*
X461276Y2998D01*
X462133Y2504D01*
X462583Y2383D01*
Y5004D01*
D02*
G37*
G36*
X446835D02*
X444214D01*
X444335Y4554D01*
X444829Y3698D01*
X445528Y2998D01*
X446385Y2504D01*
X446835Y2383D01*
Y5004D01*
D02*
G37*
G36*
X471949Y9744D02*
X470964D01*
X470013Y9489D01*
X469160Y8997D01*
X468464Y8300D01*
X467971Y7448D01*
X467717Y6496D01*
Y5511D01*
X467971Y4560D01*
X468464Y3707D01*
X469160Y3011D01*
X470013Y2519D01*
X470964Y2264D01*
X471949D01*
X472900Y2519D01*
X473753Y3011D01*
X474449Y3707D01*
X474942Y4560D01*
X475197Y5511D01*
Y6496D01*
X474942Y7448D01*
X474449Y8300D01*
X473753Y8997D01*
X472900Y9489D01*
X471949Y9744D01*
D02*
G37*
G36*
X456201D02*
X455216D01*
X454265Y9489D01*
X453412Y8997D01*
X452716Y8300D01*
X452223Y7448D01*
X451968Y6496D01*
Y5511D01*
X452223Y4560D01*
X452716Y3707D01*
X453412Y3011D01*
X454265Y2519D01*
X455216Y2264D01*
X456201D01*
X457152Y2519D01*
X458005Y3011D01*
X458702Y3707D01*
X459194Y4560D01*
X459449Y5511D01*
Y6496D01*
X459194Y7448D01*
X458702Y8300D01*
X458005Y8997D01*
X457152Y9489D01*
X456201Y9744D01*
D02*
G37*
G36*
X440453D02*
X439468D01*
X438517Y9489D01*
X437664Y8997D01*
X436968Y8300D01*
X436475Y7448D01*
X436221Y6496D01*
Y5511D01*
X436475Y4560D01*
X436968Y3707D01*
X437664Y3011D01*
X438517Y2519D01*
X439468Y2264D01*
X440453D01*
X441404Y2519D01*
X442257Y3011D01*
X442953Y3707D01*
X443446Y4560D01*
X443701Y5511D01*
Y6496D01*
X443446Y7448D01*
X442953Y8300D01*
X442257Y8997D01*
X441404Y9489D01*
X440453Y9744D01*
D02*
G37*
G36*
X536531Y5004D02*
X532988D01*
Y1854D01*
X536531D01*
Y5004D01*
D02*
G37*
G36*
X530988D02*
X527445D01*
Y1854D01*
X530988D01*
Y5004D01*
D02*
G37*
G36*
X525705D02*
X522161D01*
Y1854D01*
X525705D01*
Y5004D01*
D02*
G37*
G36*
X520161D02*
X516618D01*
Y1854D01*
X520161D01*
Y5004D01*
D02*
G37*
G36*
X514878D02*
X511335D01*
Y1854D01*
X514878D01*
Y5004D01*
D02*
G37*
G36*
X509335D02*
X505791D01*
Y1854D01*
X509335D01*
Y5004D01*
D02*
G37*
G36*
X504051D02*
X500508D01*
Y1854D01*
X504051D01*
Y5004D01*
D02*
G37*
G36*
X498508D02*
X494965D01*
Y1854D01*
X498508D01*
Y5004D01*
D02*
G37*
G36*
X493224D02*
X489681D01*
Y1854D01*
X493224D01*
Y5004D01*
D02*
G37*
G36*
X487681D02*
X484138D01*
Y1854D01*
X487681D01*
Y5004D01*
D02*
G37*
G36*
X590665Y39681D02*
X587122D01*
Y36531D01*
X590665D01*
Y39681D01*
D02*
G37*
G36*
X579839D02*
X576295D01*
Y36531D01*
X579839D01*
Y39681D01*
D02*
G37*
G36*
X547358D02*
X543815D01*
Y36531D01*
X547358D01*
Y39681D01*
D02*
G37*
G36*
X558185D02*
X554642D01*
Y36531D01*
X558185D01*
Y39681D01*
D02*
G37*
G36*
X569012D02*
X565469D01*
Y36531D01*
X569012D01*
Y39681D01*
D02*
G37*
G36*
X563469D02*
X559925D01*
Y36531D01*
X563469D01*
Y39681D01*
D02*
G37*
G36*
X552642D02*
X549098D01*
Y36531D01*
X552642D01*
Y39681D01*
D02*
G37*
G36*
X574295D02*
X570752D01*
Y36531D01*
X574295D01*
Y39681D01*
D02*
G37*
G36*
X585122D02*
X581579D01*
Y36531D01*
X585122D01*
Y39681D01*
D02*
G37*
G36*
X569012Y34532D02*
X564468D01*
X559925D01*
Y31382D01*
Y30626D01*
X564468D01*
X569012D01*
Y31382D01*
Y34532D01*
D02*
G37*
G36*
X558185D02*
X553642D01*
X549098D01*
Y31382D01*
Y30626D01*
X553642D01*
X558185D01*
Y31382D01*
Y34532D01*
D02*
G37*
G36*
X575295Y35531D02*
D01*
Y34532D01*
X570752D01*
Y31382D01*
Y30626D01*
X575295D01*
X579839D01*
Y31382D01*
Y34532D01*
X575295D01*
Y35531D01*
D02*
G37*
G36*
X590665Y34532D02*
X586122D01*
X581579D01*
Y31382D01*
Y30626D01*
X586122D01*
X590665D01*
Y31382D01*
Y34532D01*
D02*
G37*
G36*
X569012Y28626D02*
X564468D01*
X559925D01*
Y25476D01*
Y24721D01*
X564468D01*
X569012D01*
Y25476D01*
Y28626D01*
D02*
G37*
G36*
X558185D02*
X553642D01*
X549098D01*
Y25476D01*
Y24721D01*
X553642D01*
X558185D01*
Y25476D01*
Y28626D01*
D02*
G37*
G36*
X579839D02*
X575295D01*
X570752D01*
Y25476D01*
Y24721D01*
X575295D01*
X579839D01*
Y25476D01*
Y28626D01*
D02*
G37*
G36*
X590665D02*
X586122D01*
X581579D01*
Y25476D01*
Y24721D01*
X586122D01*
X590665D01*
Y25476D01*
Y28626D01*
D02*
G37*
G36*
X569012Y22720D02*
X564468D01*
X559925D01*
Y19571D01*
Y18815D01*
X564468D01*
X569012D01*
Y19571D01*
Y22720D01*
D02*
G37*
G36*
X558185D02*
X553642D01*
X549098D01*
Y19571D01*
Y18815D01*
X553642D01*
X558185D01*
Y19571D01*
Y22720D01*
D02*
G37*
G36*
X579839D02*
X575295D01*
X570752D01*
Y19571D01*
Y18815D01*
X575295D01*
X579839D01*
Y19571D01*
Y22720D01*
D02*
G37*
G36*
X590665D02*
X586122D01*
X581579D01*
Y19571D01*
Y18815D01*
X586122D01*
X590665D01*
Y19571D01*
Y22720D01*
D02*
G37*
G36*
X569012Y16815D02*
X564468D01*
X559925D01*
Y13665D01*
Y12910D01*
X564468D01*
X569012D01*
Y13665D01*
Y16815D01*
D02*
G37*
G36*
X558185D02*
X553642D01*
X549098D01*
Y13665D01*
Y12910D01*
X553642D01*
X558185D01*
Y13665D01*
Y16815D01*
D02*
G37*
G36*
X579839D02*
X575295D01*
X570752D01*
Y13665D01*
Y12910D01*
X575295D01*
X579839D01*
Y13665D01*
Y16815D01*
D02*
G37*
G36*
X590665D02*
X586122D01*
X581579D01*
Y13665D01*
Y12910D01*
X586122D01*
X590665D01*
Y13665D01*
Y16815D01*
D02*
G37*
G36*
X569012Y10909D02*
X564468D01*
X559925D01*
Y7760D01*
Y7004D01*
X564468D01*
X569012D01*
Y7760D01*
Y10909D01*
D02*
G37*
G36*
X579839D02*
X575295D01*
X570752D01*
Y7760D01*
Y7004D01*
X575295D01*
X579839D01*
Y7760D01*
Y10909D01*
D02*
G37*
G36*
X590665D02*
X586122D01*
X581579D01*
Y7760D01*
Y7004D01*
X586122D01*
X590665D01*
Y7760D01*
Y10909D01*
D02*
G37*
G36*
X558185D02*
X553642D01*
X549098D01*
Y7760D01*
Y7004D01*
X553642D01*
Y6004D01*
D01*
Y7004D01*
X558185D01*
Y7760D01*
Y10909D01*
D02*
G37*
G36*
X590665Y5004D02*
X587122D01*
Y1854D01*
X590665D01*
Y5004D01*
D02*
G37*
G36*
X585122D02*
X581579D01*
Y1854D01*
X585122D01*
Y5004D01*
D02*
G37*
G36*
X579839D02*
X576295D01*
Y1854D01*
X579839D01*
Y5004D01*
D02*
G37*
G36*
X574295D02*
X570752D01*
Y1854D01*
X574295D01*
Y5004D01*
D02*
G37*
G36*
X569012D02*
X565469D01*
Y1854D01*
X569012D01*
Y5004D01*
D02*
G37*
G36*
X563469D02*
X559925D01*
Y1854D01*
X563469D01*
Y5004D01*
D02*
G37*
G36*
X558185D02*
X554642D01*
Y1854D01*
X558185D01*
Y5004D01*
D02*
G37*
G36*
X552642D02*
X549098D01*
Y1854D01*
X552642D01*
Y5004D01*
D02*
G37*
G36*
X547358D02*
X543815D01*
Y1854D01*
X547358D01*
Y5004D01*
D02*
G37*
%LPD*%
D10*
X377610Y536380D02*
X378631Y537402D01*
X376503Y518966D02*
X376769Y518701D01*
X382781D02*
X403543D01*
X394379Y537205D02*
X398673Y532911D01*
Y527275D02*
X400457Y525491D01*
X401759D02*
X403543Y523707D01*
X394379Y537205D02*
Y537402D01*
X398673Y527275D02*
Y532911D01*
X400457Y525491D02*
X401759D01*
X403543Y518701D02*
Y523707D01*
X376769Y518701D02*
X382781D01*
X372047D02*
X376769D01*
X440945Y539370D02*
Y544606D01*
X356927Y270707D02*
X507679D01*
X511978Y275006D01*
X581693Y321850D02*
X596457Y336614D01*
X606299D01*
X338909Y281194D02*
X349994D01*
X350000Y281201D01*
X338902Y281188D02*
X338909Y281194D01*
X287402Y389483D02*
X296504Y398585D01*
X287402Y278740D02*
Y389483D01*
X296504Y398585D02*
Y408255D01*
X275590Y266929D02*
X287402Y278740D01*
X374016Y394724D02*
Y437008D01*
Y394724D02*
X405648Y363092D01*
Y325364D02*
Y363092D01*
Y325364D02*
X429831Y301181D01*
X355315Y269094D02*
X356927Y270707D01*
X359771Y540711D02*
X362883Y537598D01*
X353472Y539925D02*
X354257Y540711D01*
X351157Y537402D02*
X353472Y539716D01*
X362883Y537402D02*
Y537598D01*
X354257Y540711D02*
X359771D01*
X353472Y539716D02*
Y539925D01*
X347135Y537402D02*
X351157D01*
X375519Y540711D02*
X378631Y537598D01*
X369220Y539925D02*
X370005Y540711D01*
X366905Y537402D02*
X369220Y539716D01*
X378631Y537402D02*
Y537598D01*
X370005Y540711D02*
X375519D01*
X369220Y539716D02*
Y539925D01*
X362883Y537402D02*
X366905D01*
X391267Y540711D02*
X394379Y537598D01*
X384968Y539925D02*
X385753Y540711D01*
X382653Y537402D02*
X384968Y539716D01*
X394379Y537402D02*
Y537598D01*
X385753Y540711D02*
X391267D01*
X384968Y539716D02*
Y539925D01*
X378631Y537402D02*
X382653D01*
X355315Y257283D02*
Y269094D01*
Y257283D02*
X361811Y250787D01*
D13*
X359252Y524062D02*
Y524125D01*
X409449Y526575D02*
X414421Y531547D01*
X448870D02*
X458661Y541339D01*
X451223Y531651D02*
X455112Y535539D01*
X445866Y524606D02*
X451223Y529963D01*
X414421Y531547D02*
X448870D01*
X455112Y535539D02*
X462862D01*
X451223Y529963D02*
Y531651D01*
X166416Y317804D02*
X256448Y407836D01*
X166416Y174166D02*
Y317804D01*
X160433Y318898D02*
X253120Y411584D01*
X344397Y534037D02*
X348218Y530217D01*
X342931Y534037D02*
X344397D01*
X342520Y534449D02*
X342931Y534037D01*
X348218Y529528D02*
Y530217D01*
X359252Y524125D02*
X363966Y528839D01*
Y529528D01*
X160433Y165354D02*
Y318898D01*
X374958Y528141D02*
X376344Y529528D01*
X372906Y525213D02*
X374958Y527264D01*
X359252Y518701D02*
X365764Y525213D01*
X376344Y529528D02*
X379714D01*
X374958Y527264D02*
Y528141D01*
X365764Y525213D02*
X372906D01*
X394092Y527468D02*
X395462Y528839D01*
X389557Y523622D02*
X393403Y527468D01*
X395462Y528839D02*
Y529528D01*
X393403Y527468D02*
X394092D01*
X369521Y523622D02*
X389557D01*
X365158Y519259D02*
X369521Y523622D01*
X365158Y518701D02*
Y519259D01*
X372046Y500985D02*
Y509842D01*
X371934Y509955D02*
X372046Y509842D01*
X177953Y311811D02*
X267717Y401575D01*
X267717D01*
X263779Y405512D02*
X263779D01*
X174909Y316642D02*
X263779Y405512D01*
X174909Y183739D02*
Y316642D01*
X160433Y165354D02*
X183071Y142717D01*
X208661D01*
X172244Y181073D02*
X174909Y183739D01*
X191960Y148622D02*
X208661D01*
X166416Y174166D02*
X191960Y148622D01*
X177953Y174918D02*
Y311811D01*
X172244Y174213D02*
Y181073D01*
Y174213D02*
X191929Y154528D01*
X208661D01*
X192438Y160433D02*
X208661D01*
X177953Y174918D02*
X192438Y160433D01*
X184646Y174016D02*
Y193868D01*
X462862Y535539D02*
X468661Y541339D01*
X440945Y524606D02*
X445866D01*
X407480Y512795D02*
X410145Y510130D01*
X417236D01*
X413386Y516075D02*
Y519685D01*
X208268Y198819D02*
Y227197D01*
X211917Y230847D01*
Y258643D01*
X209449Y261112D02*
Y285039D01*
Y261112D02*
X211917Y258643D01*
X372046Y500985D02*
X372047Y500984D01*
X501968Y136811D02*
X531496D01*
X565945Y102362D01*
X281203Y183364D02*
X281496Y183071D01*
X282073Y183071D01*
X279528Y185039D02*
X281203Y183364D01*
X282073Y183071D02*
X301969D01*
X301181Y218504D02*
Y222202D01*
X409252Y329012D02*
Y376738D01*
Y329012D02*
X426219Y312045D01*
X372047Y500984D02*
X403543D01*
X419291Y539797D02*
Y544606D01*
X440945Y514606D02*
Y519685D01*
X419291Y524606D02*
X421760D01*
X423228Y519538D02*
Y523138D01*
X421760Y524606D02*
X423228Y523138D01*
X414854Y514606D02*
X419291D01*
X413386Y516075D02*
X414854Y514606D01*
X419291Y504606D02*
Y508075D01*
X417236Y510130D02*
X419291Y508075D01*
X262852Y233324D02*
X273323D01*
X299213Y207435D01*
X289129Y191688D02*
X296157D01*
X283177Y185736D02*
X289129Y191688D01*
X297758Y225626D02*
X301181Y222202D01*
X391732Y394258D02*
X391732D01*
X409252Y376738D01*
X293839Y400138D02*
Y412628D01*
X279921Y386221D02*
X293839Y400138D01*
X279921Y287102D02*
Y386221D01*
X292248Y402484D02*
Y416413D01*
X255512Y309449D02*
Y365748D01*
X292248Y402484D01*
X187031Y196254D02*
Y313014D01*
X277559Y393701D02*
Y397934D01*
X277256Y398237D02*
X277559Y397934D01*
X293839Y412628D02*
X296771Y415560D01*
X187031Y313014D02*
X287992Y413975D01*
X289370Y419291D02*
X292248Y416413D01*
X189854Y305996D02*
X277559Y393701D01*
X189854Y193514D02*
Y305996D01*
X248796Y255977D02*
X279921Y287102D01*
X209055Y166535D02*
X248796Y206277D01*
Y255977D01*
X227174Y281111D02*
X255512Y309449D01*
X251462Y238696D02*
X275303Y214854D01*
X198425Y181890D02*
X227174Y210639D01*
Y281111D01*
X184646Y193868D02*
X187031Y196254D01*
X190551Y174016D02*
Y192817D01*
X189854Y193514D02*
X190551Y192817D01*
X275303Y185494D02*
Y214854D01*
Y185494D02*
X281664Y179134D01*
X355502Y536319D02*
X356584Y537402D01*
X355502Y529528D02*
Y536319D01*
X371249Y536319D02*
X372332Y537402D01*
X371249Y529528D02*
Y536319D01*
X388080Y530610D02*
Y537402D01*
X386998Y529528D02*
X388080Y530610D01*
X403828D02*
Y537402D01*
X402745Y529528D02*
X403828Y530610D01*
X279528Y185039D02*
Y199803D01*
X281664Y179134D02*
X287402D01*
X272638Y185910D02*
X279561Y178988D01*
Y164403D02*
Y178988D01*
X272638Y185910D02*
Y186024D01*
Y164370D02*
Y180118D01*
X279528Y164370D02*
X279561Y164403D01*
D17*
X344488Y500000D02*
D03*
X33465D02*
D03*
Y409449D02*
D03*
X344488D02*
D03*
X33465Y47244D02*
D03*
X344488D02*
D03*
X480633Y503937D02*
D03*
X791657D02*
D03*
X480709Y232283D02*
D03*
X791732D02*
D03*
X33465Y139795D02*
D03*
X344488D02*
D03*
Y228346D02*
D03*
X33465D02*
D03*
X791657Y141732D02*
D03*
X480633D02*
D03*
X480315Y322835D02*
D03*
X791339D02*
D03*
X791657Y413386D02*
D03*
X480633D02*
D03*
X344488Y318898D02*
D03*
X33465D02*
D03*
D18*
X413386Y420669D02*
D03*
Y109646D02*
D03*
D19*
X372047Y518701D02*
D03*
X403543D02*
D03*
X372047Y500984D02*
D03*
X403543D02*
D03*
D20*
X372332Y537402D02*
D03*
X362883D02*
D03*
X388080D02*
D03*
X378631D02*
D03*
X356584D02*
D03*
X347135D02*
D03*
X403828D02*
D03*
X394379D02*
D03*
D21*
X379714Y529528D02*
D03*
X386998D02*
D03*
X371249D02*
D03*
X363966D02*
D03*
X348218D02*
D03*
X355502D02*
D03*
X395462D02*
D03*
X402745D02*
D03*
X363090Y290816D02*
D03*
X355807D02*
D03*
X358957Y265551D02*
D03*
X351673D02*
D03*
X30217Y204724D02*
D03*
X22933D02*
D03*
Y194882D02*
D03*
X30217D02*
D03*
X799902Y530512D02*
D03*
X792618D02*
D03*
D22*
X350000Y281201D02*
D03*
Y273917D02*
D03*
X362205Y113878D02*
D03*
Y106595D02*
D03*
X472441Y289665D02*
D03*
Y296949D02*
D03*
X27559Y376279D02*
D03*
Y383563D02*
D03*
Y347441D02*
D03*
Y340158D02*
D03*
X28254Y161713D02*
D03*
Y168996D02*
D03*
D23*
X421529Y78740D02*
D03*
X393431D02*
D03*
D24*
X447835Y91535D02*
D03*
D25*
X456890Y65354D02*
D03*
X438779D02*
D03*
D26*
X440945Y504606D02*
D03*
Y514606D02*
D03*
Y524606D02*
D03*
Y534606D02*
D03*
Y544606D02*
D03*
X419291Y504606D02*
D03*
Y514606D02*
D03*
Y524606D02*
D03*
Y534606D02*
D03*
Y544606D02*
D03*
D27*
X393898Y47244D02*
D03*
X369882D02*
D03*
D55*
X307087Y171291D02*
X307030Y172324D01*
X306861Y173345D01*
X306581Y174341D01*
X306194Y175300D01*
X305704Y176212D01*
X305118Y177064D01*
X30844Y187598D02*
X40979D01*
X43307Y194882D02*
X59449Y211024D01*
X30217Y194882D02*
X43307D01*
X26772Y191671D02*
X30844Y187598D01*
X30217Y204724D02*
X40945D01*
X7874Y213127D02*
Y334412D01*
X24865Y199606D02*
X26772Y197699D01*
Y191671D02*
Y197699D01*
X7874Y213127D02*
X21395Y199606D01*
X24865D01*
X305118Y177064D02*
Y237205D01*
X307087Y239173D02*
Y239173D01*
X305118Y237205D02*
X307087Y239173D01*
X307087Y171291D02*
Y171291D01*
X307087Y112205D02*
X318898Y100394D01*
X307087Y112205D02*
Y171291D01*
X307087Y171291D01*
X307087Y239173D02*
X345472Y277559D01*
X318898Y100394D02*
X348721D01*
X360630Y112303D01*
X361516Y113878D02*
X362205D01*
X360630Y112992D02*
X361516Y113878D01*
X360630Y112303D02*
Y112992D01*
X330503Y279839D02*
X336685Y286021D01*
X330503Y270305D02*
Y279839D01*
Y270305D02*
X330729Y270079D01*
X345472Y277559D02*
X356490D01*
X336685Y286021D02*
X358985D01*
X363090Y290127D01*
Y290816D01*
X359449Y297638D02*
X359675Y297412D01*
X366535Y287604D02*
Y294027D01*
X363151Y297412D02*
X366535Y294027D01*
X359675Y297412D02*
X363151D01*
X356490Y277559D02*
X366535Y287604D01*
X27559Y354097D02*
Y376279D01*
X7874Y334412D02*
X27559Y354097D01*
D56*
X33465Y500000D02*
X33465Y500000D01*
X27559Y405807D02*
X31201Y409449D01*
X33465D02*
X35728D01*
X259847Y430512D02*
X301959D01*
X310424Y438976D02*
X341236D01*
X144346Y315010D02*
X259847Y430512D01*
X301959D02*
X310424Y438976D01*
X341236D02*
X356984Y454724D01*
X336151Y457087D02*
X343632Y464567D01*
X137697Y457087D02*
X336151D01*
X144346Y284596D02*
Y315010D01*
X28844Y169095D02*
X144346Y284596D01*
X791657Y503937D02*
X799902Y512182D01*
X396457Y146324D02*
Y252652D01*
Y146324D02*
X396654Y146127D01*
X395617Y253491D02*
X396457Y252652D01*
X801181Y84656D02*
X822835Y106310D01*
Y382096D01*
X625827Y177322D02*
X667323D01*
X523622Y279527D02*
Y279528D01*
Y279527D02*
X625827Y177322D01*
X535433Y137795D02*
X700447D01*
X780342Y57901D01*
X339561Y469095D02*
X502980D01*
X333261Y462795D02*
X339561Y469095D01*
X140421Y462795D02*
X333261D01*
X28051Y347441D02*
X137697Y457087D01*
X139240Y461614D02*
X140421Y462795D01*
X343632Y464567D02*
X504855D01*
X801181Y71850D02*
Y84656D01*
X413386Y107382D02*
Y109646D01*
X431195Y78965D02*
Y89572D01*
X433979Y76181D02*
X461690D01*
X413386Y107382D02*
X431195Y89572D01*
Y78965D02*
X433979Y76181D01*
X461690D02*
X468186Y82677D01*
X643701D01*
X654528Y71850D01*
X724409Y200787D02*
Y202756D01*
X403150Y144095D02*
Y252362D01*
Y144095D02*
X403543Y143701D01*
X395669Y259842D02*
X403150Y252362D01*
X777559Y100859D02*
X777684Y100984D01*
X777559Y77756D02*
Y100859D01*
X790184Y141732D02*
X791657D01*
X780342Y44304D02*
Y57901D01*
Y44304D02*
X787402Y37244D01*
X350000Y259547D02*
Y273917D01*
X504855Y464567D02*
X523162Y482874D01*
X502980Y469095D02*
X521287Y487402D01*
X356984Y454724D02*
X387795D01*
X791732Y187235D02*
Y198819D01*
X667323Y177322D02*
X787402Y57244D01*
X791732Y187235D02*
X813901Y165067D01*
X796654Y86532D02*
X813901Y103779D01*
Y165067D01*
X796654Y56496D02*
Y86532D01*
X523162Y482874D02*
X615551D01*
X721457Y376969D01*
X754921Y356988D02*
Y358652D01*
X791657Y413386D02*
X793460D01*
X358957Y265551D02*
X445177D01*
X478445Y232283D01*
X344488Y318898D02*
X355315Y308071D01*
X344488Y228346D02*
Y254035D01*
X350000Y259547D01*
X730470Y487402D02*
X773580Y530512D01*
X521287Y487402D02*
X730470D01*
X478445Y232283D02*
X480709D01*
X27762Y161713D02*
X28254D01*
X787402Y47244D02*
X796654Y56496D01*
X773580Y530512D02*
X792618D01*
X344488Y318898D02*
X346752D01*
X342224D02*
X344488D01*
X427165Y289665D02*
X472441D01*
X28254Y143006D02*
X33465Y137795D01*
X27559Y347441D02*
X28051D01*
D57*
X31201Y409449D02*
X33465D01*
X30512Y410138D02*
X31201Y409449D01*
X478370Y503937D02*
X480633D01*
X31201Y318898D02*
X33465D01*
D58*
X658268Y59055D02*
Y64822D01*
X660375Y71024D02*
X662073Y72722D01*
X658268Y64822D02*
X660375Y66929D01*
Y71024D01*
X421529Y78740D02*
Y89679D01*
X649311Y50098D02*
X658268Y59055D01*
D59*
X80315Y468504D02*
D03*
X297638Y531496D02*
D03*
Y440945D02*
D03*
X80315Y377953D02*
D03*
X297638Y78740D02*
D03*
X80315Y15748D02*
D03*
X744806Y535433D02*
D03*
X527484Y472441D02*
D03*
X444882Y156496D02*
D03*
X381890Y373819D02*
D03*
X744882Y263779D02*
D03*
X527559Y200787D02*
D03*
X297638Y171291D02*
D03*
X80315Y108299D02*
D03*
Y196850D02*
D03*
X297638Y259842D02*
D03*
X527484Y110236D02*
D03*
X744806Y173228D02*
D03*
X744488Y354331D02*
D03*
X527165Y291339D02*
D03*
X527484Y381890D02*
D03*
X744806Y444882D02*
D03*
X80315Y287402D02*
D03*
X297638Y350394D02*
D03*
D60*
X330000Y470669D02*
D03*
X47953Y438779D02*
D03*
Y76575D02*
D03*
X495121Y533268D02*
D03*
X442717Y406181D02*
D03*
X777244Y202953D02*
D03*
X330000Y110465D02*
D03*
X47953Y257677D02*
D03*
X495121Y171063D02*
D03*
X494803Y352165D02*
D03*
X777169Y384055D02*
D03*
X330000Y289567D02*
D03*
D61*
X726221Y39370D02*
D03*
D62*
X746220D02*
D03*
D63*
X374016Y437008D02*
D03*
D64*
Y444882D02*
D03*
D65*
X468661Y541339D02*
D03*
D66*
X458661D02*
D03*
D67*
X439961Y37500D02*
D03*
Y29626D02*
D03*
Y21752D02*
D03*
Y13878D02*
D03*
Y6004D02*
D03*
X447835Y37500D02*
D03*
Y29626D02*
D03*
Y21752D02*
D03*
Y13878D02*
D03*
Y6004D02*
D03*
X455709Y37500D02*
D03*
Y29626D02*
D03*
Y21752D02*
D03*
Y13878D02*
D03*
Y6004D02*
D03*
X463583Y37500D02*
D03*
Y29626D02*
D03*
Y21752D02*
D03*
Y13878D02*
D03*
Y6004D02*
D03*
X471457Y37500D02*
D03*
Y29626D02*
D03*
Y21752D02*
D03*
Y13878D02*
D03*
Y6004D02*
D03*
D68*
X564468D02*
D03*
X575295D02*
D03*
X564468Y11909D02*
D03*
X575295D02*
D03*
X564468Y17815D02*
D03*
X575295D02*
D03*
X564468Y23720D02*
D03*
X575295D02*
D03*
X564468Y29626D02*
D03*
X575295D02*
D03*
X531988Y6004D02*
D03*
X542815D02*
D03*
X531988Y11909D02*
D03*
X542815D02*
D03*
X531988Y17815D02*
D03*
X542815D02*
D03*
X531988Y23720D02*
D03*
X542815D02*
D03*
X531988Y29626D02*
D03*
X542815D02*
D03*
X499508Y6004D02*
D03*
X510335D02*
D03*
X499508Y11909D02*
D03*
X510335D02*
D03*
X499508Y17815D02*
D03*
X510335D02*
D03*
X499508Y23720D02*
D03*
X510335D02*
D03*
X499508Y29626D02*
D03*
X488681Y6004D02*
D03*
Y11909D02*
D03*
Y17815D02*
D03*
Y23720D02*
D03*
Y29626D02*
D03*
X564468Y35531D02*
D03*
X575295D02*
D03*
X531988D02*
D03*
X542815D02*
D03*
X499508D02*
D03*
X510335D02*
D03*
X488681D02*
D03*
X521161Y6004D02*
D03*
X553642D02*
D03*
X586122D02*
D03*
X521161Y11909D02*
D03*
X553642D02*
D03*
X586122D02*
D03*
X521161Y17815D02*
D03*
X553642D02*
D03*
X586122D02*
D03*
X521161Y23720D02*
D03*
X553642D02*
D03*
X586122D02*
D03*
X521161Y29626D02*
D03*
X553642D02*
D03*
X586122D02*
D03*
X521161Y35531D02*
D03*
X553642D02*
D03*
X586122D02*
D03*
X510335Y29626D02*
D03*
D69*
X671639Y78740D02*
D03*
X685039D02*
D03*
X671639Y25740D02*
D03*
X685039D02*
D03*
D70*
X787402Y77244D02*
D03*
Y57244D02*
D03*
Y67244D02*
D03*
Y47244D02*
D03*
Y27244D02*
D03*
Y37244D02*
D03*
D71*
Y17244D02*
D03*
D72*
X321850Y55118D02*
D03*
Y47244D02*
D03*
X455755Y530465D02*
D03*
X305118Y518429D02*
D03*
X350394Y521654D02*
D03*
X334646D02*
D03*
X342520D02*
D03*
X312992Y518429D02*
D03*
X320866D02*
D03*
X312992Y498032D02*
D03*
X320866Y505905D02*
D03*
X305118Y505911D02*
D03*
X317515Y489572D02*
D03*
X305118Y498032D02*
D03*
X312992Y505911D02*
D03*
X320866Y480315D02*
D03*
X315945Y474409D02*
D03*
X305118D02*
D03*
Y489173D02*
D03*
X311610Y483666D02*
D03*
X322835Y425197D02*
D03*
X391732Y452756D02*
D03*
X21654Y179134D02*
D03*
X29528D02*
D03*
X82677Y250000D02*
D03*
X74803Y242126D02*
D03*
X59055Y226378D02*
D03*
X90551Y257874D02*
D03*
X66929Y234252D02*
D03*
X59055Y218504D02*
D03*
X90551Y250000D02*
D03*
X98425Y257874D02*
D03*
X82677Y242126D02*
D03*
X74803Y234252D02*
D03*
X82677Y257874D02*
D03*
X59055Y234252D02*
D03*
X74803Y250000D02*
D03*
X66929Y242126D02*
D03*
X454724Y523622D02*
D03*
X462598Y531496D02*
D03*
X521708Y141732D02*
D03*
X507874Y143701D02*
D03*
X521654Y149606D02*
D03*
X440945Y125984D02*
D03*
X427165Y139764D02*
D03*
X448819Y118110D02*
D03*
X456693Y110236D02*
D03*
X440945Y118110D02*
D03*
X448819Y110236D02*
D03*
X433071Y125984D02*
D03*
X448819D02*
D03*
X456693Y118110D02*
D03*
X464567Y110236D02*
D03*
X472441Y118110D02*
D03*
X456693Y125984D02*
D03*
X464567Y118110D02*
D03*
X480315D02*
D03*
X348425Y479815D02*
D03*
X356299D02*
D03*
X311024Y210630D02*
D03*
X498032Y523622D02*
D03*
X425197Y13886D02*
D03*
X413386D02*
D03*
X448819Y295717D02*
D03*
X456703Y295715D02*
D03*
X440945Y303150D02*
D03*
X311024Y192913D02*
D03*
X320866Y215551D02*
D03*
X311024Y200787D02*
D03*
X494095Y476378D02*
D03*
X486221D02*
D03*
X478346D02*
D03*
X470472D02*
D03*
X462598D02*
D03*
X446850D02*
D03*
X433812Y110977D02*
D03*
X757874Y104331D02*
D03*
X765748D02*
D03*
X773622D02*
D03*
X765748Y112205D02*
D03*
X789370Y104331D02*
D03*
X781496Y112205D02*
D03*
X773622Y120079D02*
D03*
X789370Y112205D02*
D03*
X781496Y120079D02*
D03*
X789370D02*
D03*
X773622Y161417D02*
D03*
Y169291D02*
D03*
X781496Y161417D02*
D03*
X751968Y212598D02*
D03*
X773622Y185039D02*
D03*
X736221Y220472D02*
D03*
X789370Y161417D02*
D03*
X781496Y177165D02*
D03*
X789370Y169291D02*
D03*
X744095Y212598D02*
D03*
X736221Y228346D02*
D03*
X759842Y204724D02*
D03*
X751968D02*
D03*
X744095Y220472D02*
D03*
X781496Y169291D02*
D03*
X773622Y177165D02*
D03*
X736221Y212598D02*
D03*
X744095Y204724D02*
D03*
X773622Y112205D02*
D03*
X781496Y104331D02*
D03*
X773622Y192913D02*
D03*
X781496Y185039D02*
D03*
X789370Y177165D02*
D03*
X797244Y169291D02*
D03*
Y161417D02*
D03*
X805118D02*
D03*
Y112205D02*
D03*
Y120079D02*
D03*
Y104331D02*
D03*
X687008Y303150D02*
D03*
Y295276D02*
D03*
X694882D02*
D03*
Y303150D02*
D03*
X718504D02*
D03*
X710630D02*
D03*
X702756D02*
D03*
Y295276D02*
D03*
X710630D02*
D03*
X718504D02*
D03*
Y287402D02*
D03*
X710630D02*
D03*
X702756D02*
D03*
Y279528D02*
D03*
X710630D02*
D03*
X718504D02*
D03*
Y271654D02*
D03*
X710630D02*
D03*
X702756D02*
D03*
X653543Y287402D02*
D03*
X645669D02*
D03*
X637795D02*
D03*
X629921D02*
D03*
X622047D02*
D03*
X653543Y279528D02*
D03*
Y271654D02*
D03*
X645669D02*
D03*
Y279528D02*
D03*
X637795D02*
D03*
Y271654D02*
D03*
X629921D02*
D03*
Y279528D02*
D03*
X622047D02*
D03*
Y271654D02*
D03*
X614173Y279528D02*
D03*
Y271654D02*
D03*
X15748Y379921D02*
D03*
Y387795D02*
D03*
Y372047D02*
D03*
X7874Y427165D02*
D03*
Y419291D02*
D03*
Y411417D02*
D03*
Y403543D02*
D03*
Y395669D02*
D03*
Y387795D02*
D03*
Y379921D02*
D03*
Y372047D02*
D03*
X96457Y427165D02*
D03*
X88583D02*
D03*
X80709D02*
D03*
X72835D02*
D03*
X88583Y419291D02*
D03*
X80709D02*
D03*
X72835D02*
D03*
X64961D02*
D03*
X80709Y411417D02*
D03*
X72835D02*
D03*
X64961D02*
D03*
X57087D02*
D03*
X72835Y403543D02*
D03*
X64961D02*
D03*
X57087D02*
D03*
X64961Y395669D02*
D03*
X57087D02*
D03*
X49213Y379921D02*
D03*
X41339Y372047D02*
D03*
Y379921D02*
D03*
X57087Y387795D02*
D03*
X49213D02*
D03*
X41339D02*
D03*
X64961Y511811D02*
D03*
X72835D02*
D03*
X80709D02*
D03*
Y519685D02*
D03*
X72835D02*
D03*
X64961D02*
D03*
X80709Y527559D02*
D03*
X72835D02*
D03*
X64961D02*
D03*
X33465D02*
D03*
X57087D02*
D03*
X49213D02*
D03*
X41339D02*
D03*
Y535433D02*
D03*
X49213D02*
D03*
X57087D02*
D03*
X64961D02*
D03*
X72835D02*
D03*
X80709D02*
D03*
Y543307D02*
D03*
X72835D02*
D03*
X64961D02*
D03*
X57087D02*
D03*
X49213D02*
D03*
X41339D02*
D03*
X33465Y535433D02*
D03*
Y543307D02*
D03*
X25591D02*
D03*
Y535433D02*
D03*
Y527559D02*
D03*
X17717Y519685D02*
D03*
Y527559D02*
D03*
Y535433D02*
D03*
Y543307D02*
D03*
X7874Y503937D02*
D03*
Y511811D02*
D03*
Y519685D02*
D03*
Y527559D02*
D03*
Y535433D02*
D03*
Y543307D02*
D03*
X82677Y309055D02*
D03*
X74803D02*
D03*
X66929D02*
D03*
Y316929D02*
D03*
X74803D02*
D03*
X82677D02*
D03*
Y324803D02*
D03*
X74803D02*
D03*
X66929D02*
D03*
Y332677D02*
D03*
X74803D02*
D03*
X82677D02*
D03*
Y340551D02*
D03*
Y348425D02*
D03*
Y356299D02*
D03*
X74803D02*
D03*
Y348425D02*
D03*
Y340551D02*
D03*
X66929D02*
D03*
Y348425D02*
D03*
Y356299D02*
D03*
X59055D02*
D03*
Y348425D02*
D03*
Y340551D02*
D03*
X51181D02*
D03*
Y348425D02*
D03*
Y356299D02*
D03*
X43307Y348425D02*
D03*
Y340551D02*
D03*
X74803Y257874D02*
D03*
X66929Y250000D02*
D03*
X59055Y242126D02*
D03*
X13780Y255906D02*
D03*
Y263779D02*
D03*
Y271654D02*
D03*
Y279528D02*
D03*
Y287402D02*
D03*
Y295276D02*
D03*
X88583Y169291D02*
D03*
X80709D02*
D03*
X72835D02*
D03*
X64961Y161417D02*
D03*
Y169291D02*
D03*
X57087D02*
D03*
Y161417D02*
D03*
X49213D02*
D03*
Y169291D02*
D03*
X41339D02*
D03*
Y161417D02*
D03*
X72835Y161449D02*
D03*
X80709D02*
D03*
X88583D02*
D03*
Y153575D02*
D03*
X80709D02*
D03*
X72835D02*
D03*
Y145701D02*
D03*
X80709D02*
D03*
X88583D02*
D03*
Y137827D02*
D03*
X80709D02*
D03*
X72835D02*
D03*
Y129953D02*
D03*
X80709D02*
D03*
X88583D02*
D03*
Y122079D02*
D03*
X80709D02*
D03*
X72835D02*
D03*
X88583Y64961D02*
D03*
X80709D02*
D03*
X72835D02*
D03*
Y57087D02*
D03*
X80709D02*
D03*
X88583D02*
D03*
Y49213D02*
D03*
X80709D02*
D03*
X72835D02*
D03*
Y41339D02*
D03*
X80709D02*
D03*
X88583D02*
D03*
Y33465D02*
D03*
X80709D02*
D03*
X72835D02*
D03*
X64961Y23622D02*
D03*
Y15748D02*
D03*
Y7874D02*
D03*
X57087D02*
D03*
Y15748D02*
D03*
Y23622D02*
D03*
X49213Y7874D02*
D03*
X41339D02*
D03*
Y15748D02*
D03*
X49213D02*
D03*
Y23622D02*
D03*
X41339D02*
D03*
X33465Y7874D02*
D03*
X25591D02*
D03*
X17717D02*
D03*
Y15748D02*
D03*
X25591D02*
D03*
X33465D02*
D03*
Y23622D02*
D03*
X25591D02*
D03*
X17717D02*
D03*
X5906Y155512D02*
D03*
Y163386D02*
D03*
Y171260D02*
D03*
X13780Y179134D02*
D03*
X5906D02*
D03*
X377953Y98425D02*
D03*
X368110D02*
D03*
X389764Y104331D02*
D03*
X381890D02*
D03*
X374016D02*
D03*
X381890Y112205D02*
D03*
X389764D02*
D03*
Y120079D02*
D03*
X375984Y61024D02*
D03*
X368110D02*
D03*
Y35433D02*
D03*
X298228Y94488D02*
D03*
X306102D02*
D03*
X313976D02*
D03*
X321850D02*
D03*
X313976Y86614D02*
D03*
X321850Y78740D02*
D03*
Y70866D02*
D03*
Y62992D02*
D03*
Y86614D02*
D03*
X313976Y78740D02*
D03*
X321850Y32480D02*
D03*
Y39370D02*
D03*
X313976Y70866D02*
D03*
Y62992D02*
D03*
X306102D02*
D03*
X298228D02*
D03*
Y55118D02*
D03*
X306102Y47244D02*
D03*
Y55118D02*
D03*
X313976D02*
D03*
Y47244D02*
D03*
Y39370D02*
D03*
X298228Y32480D02*
D03*
X433071Y118110D02*
D03*
X440945Y110236D02*
D03*
X447638Y69291D02*
D03*
X456693Y53937D02*
D03*
X438411Y53936D02*
D03*
X429134Y59055D02*
D03*
Y66929D02*
D03*
X447638Y61024D02*
D03*
X425197Y21654D02*
D03*
X419291Y17717D02*
D03*
Y25591D02*
D03*
X413386Y21654D02*
D03*
Y29528D02*
D03*
X401575Y35433D02*
D03*
X393701D02*
D03*
X385827D02*
D03*
X797244Y120079D02*
D03*
Y112205D02*
D03*
Y104331D02*
D03*
X448819Y427165D02*
D03*
X440945D02*
D03*
Y419291D02*
D03*
X433071D02*
D03*
Y411417D02*
D03*
X418701Y442577D02*
D03*
X423228Y456693D02*
D03*
Y448819D02*
D03*
X415354Y456693D02*
D03*
Y448819D02*
D03*
X411417Y442913D02*
D03*
X403543D02*
D03*
X407480Y456693D02*
D03*
Y448819D02*
D03*
X399606D02*
D03*
Y456693D02*
D03*
X391732Y444882D02*
D03*
Y437008D02*
D03*
Y429134D02*
D03*
X368110Y417323D02*
D03*
X391732Y421260D02*
D03*
Y403344D02*
D03*
Y411702D02*
D03*
X505905Y157480D02*
D03*
X513779D02*
D03*
X521654D02*
D03*
X513779Y149606D02*
D03*
X501968D02*
D03*
X458661Y155512D02*
D03*
Y147638D02*
D03*
Y139764D02*
D03*
X450787D02*
D03*
X442913D02*
D03*
X435039D02*
D03*
Y147638D02*
D03*
X427165Y165354D02*
D03*
X419291D02*
D03*
Y155512D02*
D03*
X427165D02*
D03*
Y147638D02*
D03*
X419291D02*
D03*
Y139764D02*
D03*
X427165Y131890D02*
D03*
X513779Y202756D02*
D03*
X505905D02*
D03*
X521654Y212598D02*
D03*
X513779D02*
D03*
X505905D02*
D03*
Y220472D02*
D03*
X513779D02*
D03*
X521654D02*
D03*
Y228346D02*
D03*
X513779D02*
D03*
X505905D02*
D03*
Y236221D02*
D03*
X513779D02*
D03*
X521654D02*
D03*
Y244094D02*
D03*
X513779D02*
D03*
X505905D02*
D03*
X521654Y259842D02*
D03*
Y251969D02*
D03*
X513779D02*
D03*
Y259842D02*
D03*
X505905D02*
D03*
Y251969D02*
D03*
X498032D02*
D03*
Y259842D02*
D03*
X490158D02*
D03*
Y251969D02*
D03*
X482283Y259842D02*
D03*
Y251969D02*
D03*
X474409Y259842D02*
D03*
Y251969D02*
D03*
X466535Y259842D02*
D03*
Y251969D02*
D03*
X379921Y476378D02*
D03*
X372047D02*
D03*
X364173D02*
D03*
X328740Y525591D02*
D03*
X312992D02*
D03*
X320866D02*
D03*
X383858Y143701D02*
D03*
Y135827D02*
D03*
X375984Y127953D02*
D03*
Y135827D02*
D03*
Y143701D02*
D03*
X383858Y151575D02*
D03*
X375984D02*
D03*
X368110D02*
D03*
Y143701D02*
D03*
Y135827D02*
D03*
Y127953D02*
D03*
Y120079D02*
D03*
X352362Y118110D02*
D03*
X344488D02*
D03*
X320866Y106299D02*
D03*
Y122047D02*
D03*
Y114173D02*
D03*
X312992D02*
D03*
Y122047D02*
D03*
Y129921D02*
D03*
X320866Y143701D02*
D03*
Y151575D02*
D03*
X312992D02*
D03*
X334646Y192913D02*
D03*
X326772D02*
D03*
X318898D02*
D03*
X334646Y200787D02*
D03*
X326772D02*
D03*
X318898D02*
D03*
X366142D02*
D03*
X374016D02*
D03*
X381890D02*
D03*
X366142Y214567D02*
D03*
X320866Y228346D02*
D03*
Y236221D02*
D03*
X312992D02*
D03*
X375984Y362205D02*
D03*
X381890Y358268D02*
D03*
Y350394D02*
D03*
X375984Y354331D02*
D03*
Y346457D02*
D03*
Y338583D02*
D03*
X368110D02*
D03*
Y330709D02*
D03*
X374016Y314961D02*
D03*
X368110D02*
D03*
X375984Y301181D02*
D03*
X368110D02*
D03*
X338583Y299213D02*
D03*
X330709D02*
D03*
X322835D02*
D03*
X314961D02*
D03*
Y291339D02*
D03*
X307087D02*
D03*
Y299213D02*
D03*
Y307087D02*
D03*
X314961D02*
D03*
X322835D02*
D03*
X307087Y315024D02*
D03*
X314961Y314961D02*
D03*
X322835D02*
D03*
X307087Y322886D02*
D03*
X314961Y322835D02*
D03*
X322835D02*
D03*
X307087Y330709D02*
D03*
X314961D02*
D03*
X322835D02*
D03*
X368110Y393701D02*
D03*
Y401575D02*
D03*
Y409449D02*
D03*
X322835Y393701D02*
D03*
X314961D02*
D03*
X307087D02*
D03*
Y401575D02*
D03*
X314961D02*
D03*
X322835D02*
D03*
X350394Y431102D02*
D03*
X342520D02*
D03*
X334646D02*
D03*
X326772D02*
D03*
X314961Y417323D02*
D03*
X322835D02*
D03*
Y409449D02*
D03*
X314961D02*
D03*
X307087D02*
D03*
X529528Y523622D02*
D03*
Y531496D02*
D03*
X521654D02*
D03*
Y523622D02*
D03*
X513779D02*
D03*
Y531496D02*
D03*
X505905D02*
D03*
Y523622D02*
D03*
X488189D02*
D03*
X478346Y531496D02*
D03*
Y523622D02*
D03*
X470472Y531496D02*
D03*
Y523622D02*
D03*
X462598D02*
D03*
X454724Y515748D02*
D03*
Y507874D02*
D03*
Y500000D02*
D03*
Y492126D02*
D03*
X446850D02*
D03*
X438976D02*
D03*
Y476378D02*
D03*
Y484252D02*
D03*
X446850D02*
D03*
X454724Y476378D02*
D03*
Y484252D02*
D03*
X527559Y417323D02*
D03*
Y409449D02*
D03*
Y401575D02*
D03*
X519685Y334646D02*
D03*
X527559D02*
D03*
Y326772D02*
D03*
X519685D02*
D03*
Y318898D02*
D03*
X527559D02*
D03*
Y303150D02*
D03*
Y311024D02*
D03*
X519685D02*
D03*
Y303150D02*
D03*
X511811D02*
D03*
Y311024D02*
D03*
Y318898D02*
D03*
Y326772D02*
D03*
Y334646D02*
D03*
X503937D02*
D03*
Y326772D02*
D03*
Y318898D02*
D03*
Y311024D02*
D03*
X511811Y287402D02*
D03*
Y295276D02*
D03*
X503937Y287402D02*
D03*
Y295276D02*
D03*
Y303150D02*
D03*
X496063D02*
D03*
Y295276D02*
D03*
Y287402D02*
D03*
X480315D02*
D03*
X488189D02*
D03*
Y295276D02*
D03*
Y303150D02*
D03*
X480315D02*
D03*
X464567D02*
D03*
X448819D02*
D03*
X456693D02*
D03*
Y311024D02*
D03*
X448819D02*
D03*
X440945D02*
D03*
Y318898D02*
D03*
X448819D02*
D03*
X456693D02*
D03*
Y326772D02*
D03*
X448819D02*
D03*
X440945D02*
D03*
Y334646D02*
D03*
X448819D02*
D03*
X456693D02*
D03*
X450787Y411417D02*
D03*
Y401575D02*
D03*
X458661D02*
D03*
Y411417D02*
D03*
X519685Y401575D02*
D03*
X511811D02*
D03*
X503937D02*
D03*
Y409449D02*
D03*
X511811D02*
D03*
X519685D02*
D03*
Y417323D02*
D03*
X511811D02*
D03*
X503937D02*
D03*
X519685Y425197D02*
D03*
X511811D02*
D03*
X503937D02*
D03*
X457161Y420760D02*
D03*
X767717Y305118D02*
D03*
Y312992D02*
D03*
Y320866D02*
D03*
Y328740D02*
D03*
X751968Y344488D02*
D03*
X744095Y236221D02*
D03*
Y244094D02*
D03*
X751968Y228346D02*
D03*
X744095D02*
D03*
X759842Y212598D02*
D03*
Y220472D02*
D03*
X751968D02*
D03*
X736221Y236221D02*
D03*
X751968D02*
D03*
X736221Y244094D02*
D03*
X814961D02*
D03*
Y236221D02*
D03*
Y228346D02*
D03*
Y220472D02*
D03*
Y212598D02*
D03*
Y204724D02*
D03*
X807087D02*
D03*
Y212598D02*
D03*
X799213D02*
D03*
Y204724D02*
D03*
X791339D02*
D03*
Y212598D02*
D03*
X783465D02*
D03*
X775591D02*
D03*
X767717Y204724D02*
D03*
Y212598D02*
D03*
Y220472D02*
D03*
X759842Y228346D02*
D03*
X767717D02*
D03*
Y236221D02*
D03*
X759842D02*
D03*
X751968Y244094D02*
D03*
X759842D02*
D03*
X767717D02*
D03*
Y336614D02*
D03*
X759842D02*
D03*
X751968D02*
D03*
X744095D02*
D03*
X736221Y344488D02*
D03*
Y336614D02*
D03*
X759842Y344488D02*
D03*
X759687Y352222D02*
D03*
X759842Y360236D02*
D03*
Y368110D02*
D03*
X751968D02*
D03*
X744095D02*
D03*
X736221D02*
D03*
X767717D02*
D03*
Y360236D02*
D03*
Y352362D02*
D03*
Y344488D02*
D03*
X775591D02*
D03*
Y352362D02*
D03*
Y360236D02*
D03*
Y368110D02*
D03*
X814961Y305118D02*
D03*
Y312992D02*
D03*
Y320866D02*
D03*
Y328740D02*
D03*
Y336614D02*
D03*
X783465Y344488D02*
D03*
X791339D02*
D03*
X799213D02*
D03*
X807087D02*
D03*
X814961D02*
D03*
Y352362D02*
D03*
X807087D02*
D03*
X799213D02*
D03*
X791339D02*
D03*
X783465D02*
D03*
Y360236D02*
D03*
X791339D02*
D03*
X799213D02*
D03*
X807087D02*
D03*
X814961D02*
D03*
Y368110D02*
D03*
X807087D02*
D03*
X799213D02*
D03*
X791339D02*
D03*
X783465D02*
D03*
X736221Y484252D02*
D03*
Y476378D02*
D03*
X744095D02*
D03*
X751968D02*
D03*
X759842D02*
D03*
X767717D02*
D03*
Y484252D02*
D03*
X759842D02*
D03*
X751968D02*
D03*
X744095D02*
D03*
Y492126D02*
D03*
X751968Y500000D02*
D03*
Y492126D02*
D03*
X759842D02*
D03*
Y500000D02*
D03*
Y507874D02*
D03*
X736221Y425197D02*
D03*
Y417323D02*
D03*
Y409449D02*
D03*
Y401575D02*
D03*
Y393701D02*
D03*
X744095D02*
D03*
Y401575D02*
D03*
Y409449D02*
D03*
Y417323D02*
D03*
Y425197D02*
D03*
X751968D02*
D03*
Y417323D02*
D03*
Y409449D02*
D03*
Y401575D02*
D03*
Y393701D02*
D03*
X759842D02*
D03*
Y401575D02*
D03*
Y409449D02*
D03*
Y417323D02*
D03*
Y425197D02*
D03*
X816929Y492126D02*
D03*
Y500000D02*
D03*
Y507874D02*
D03*
Y515748D02*
D03*
Y523622D02*
D03*
Y531496D02*
D03*
X809055D02*
D03*
Y523622D02*
D03*
X801181D02*
D03*
X793307D02*
D03*
X785433D02*
D03*
X777559D02*
D03*
X767717Y515748D02*
D03*
Y507874D02*
D03*
Y500000D02*
D03*
Y492126D02*
D03*
X816929Y422244D02*
D03*
Y414370D02*
D03*
Y406496D02*
D03*
Y398622D02*
D03*
Y382874D02*
D03*
Y390748D02*
D03*
X809055D02*
D03*
Y382874D02*
D03*
X793307D02*
D03*
X801181D02*
D03*
Y390748D02*
D03*
X793307D02*
D03*
X785433D02*
D03*
X767717Y425197D02*
D03*
Y417323D02*
D03*
Y409449D02*
D03*
Y401575D02*
D03*
Y393701D02*
D03*
X462598Y484252D02*
D03*
X470472D02*
D03*
X478346D02*
D03*
X486221D02*
D03*
X494095D02*
D03*
X529528Y515748D02*
D03*
Y507874D02*
D03*
Y500000D02*
D03*
X521654D02*
D03*
Y507874D02*
D03*
Y515748D02*
D03*
X513779Y492126D02*
D03*
Y500000D02*
D03*
Y507874D02*
D03*
Y515748D02*
D03*
X505905Y492126D02*
D03*
Y500000D02*
D03*
Y507874D02*
D03*
Y515748D02*
D03*
X645669Y95276D02*
D03*
X629921Y95669D02*
D03*
X614173D02*
D03*
X598425Y96063D02*
D03*
X551181Y97638D02*
D03*
X535433D02*
D03*
X519685D02*
D03*
X503937D02*
D03*
X488189D02*
D03*
X472835D02*
D03*
X403543Y71850D02*
D03*
Y78740D02*
D03*
Y85630D02*
D03*
X598425Y64961D02*
D03*
X582677D02*
D03*
X566929D02*
D03*
X551181D02*
D03*
X535433D02*
D03*
X519685D02*
D03*
X503937D02*
D03*
X488189D02*
D03*
X472441D02*
D03*
D73*
X359252Y524062D02*
D03*
X256448Y407836D02*
D03*
X253120Y411584D02*
D03*
X342520Y534449D02*
D03*
X359252Y518701D02*
D03*
X263779Y405512D02*
D03*
X365158Y518701D02*
D03*
X382781D02*
D03*
X371934Y509955D02*
D03*
X267717Y401575D02*
D03*
X409449Y526575D02*
D03*
X172047Y159449D02*
D03*
X208661Y142717D02*
D03*
Y148622D02*
D03*
Y154528D02*
D03*
X40979Y187598D02*
D03*
X59449Y211024D02*
D03*
X40945Y204724D02*
D03*
X201969Y163386D02*
D03*
X208661Y160433D02*
D03*
X407480Y512795D02*
D03*
X413386Y519685D02*
D03*
X208268Y198819D02*
D03*
X209449Y285039D02*
D03*
X440945Y539370D02*
D03*
X396654Y146127D02*
D03*
X421529Y89679D02*
D03*
X511978Y275006D02*
D03*
X581693Y321850D02*
D03*
X682087Y124016D02*
D03*
X609252D02*
D03*
X501968Y136811D02*
D03*
X565945Y102362D02*
D03*
X338902Y281188D02*
D03*
X301969Y183071D02*
D03*
X301181Y218504D02*
D03*
X426219Y312045D02*
D03*
X440945Y519685D02*
D03*
X423228Y519538D02*
D03*
X419291Y539797D02*
D03*
X801181Y71850D02*
D03*
X654528D02*
D03*
X395617Y253491D02*
D03*
X395669Y259842D02*
D03*
X299213Y207435D02*
D03*
X296157Y191688D02*
D03*
X297758Y225626D02*
D03*
X349213Y473228D02*
D03*
X391732Y394258D02*
D03*
X296504Y408255D02*
D03*
X277256Y398237D02*
D03*
X287992Y413975D02*
D03*
X296771Y415560D02*
D03*
X289370Y419291D02*
D03*
X429831Y301181D02*
D03*
X456545Y281890D02*
D03*
X606299Y336614D02*
D03*
X419291Y257874D02*
D03*
Y273622D02*
D03*
X365256Y228248D02*
D03*
X275590Y266929D02*
D03*
X262852Y233324D02*
D03*
X209055Y166535D02*
D03*
X251462Y238696D02*
D03*
X198425Y181890D02*
D03*
X171653Y184252D02*
D03*
X184366Y197638D02*
D03*
X192520Y210630D02*
D03*
X184646Y174016D02*
D03*
X190551D02*
D03*
X399606Y322933D02*
D03*
X454724Y239170D02*
D03*
X433071Y254724D02*
D03*
X266142Y217323D02*
D03*
X252362Y183858D02*
D03*
X223917Y172851D02*
D03*
X192641Y167757D02*
D03*
X330729Y270079D02*
D03*
X172244Y213583D02*
D03*
X359449Y297638D02*
D03*
X649311Y50098D02*
D03*
X468110Y281496D02*
D03*
X361811Y250787D02*
D03*
X377953Y280709D02*
D03*
X438976Y249213D02*
D03*
X441698Y238942D02*
D03*
X429134Y201575D02*
D03*
X444882Y205512D02*
D03*
X212802Y210820D02*
D03*
X268504Y191339D02*
D03*
X231496Y193701D02*
D03*
X266929Y204331D02*
D03*
X244882Y226772D02*
D03*
X209252Y236402D02*
D03*
X218110Y236221D02*
D03*
X231751Y178961D02*
D03*
X777559Y77756D02*
D03*
X279528Y199803D02*
D03*
X283177Y185736D02*
D03*
X287402Y179134D02*
D03*
X272638Y186024D02*
D03*
Y180118D02*
D03*
X279528Y164370D02*
D03*
X272638D02*
D03*
M02*
