M48
;Layer_Color=9474304
;FILE_FORMAT=2:5
INCH,TZ
;TYPE=PLATED
T1F00S00C0.01575
T2F00S00C0.03000
T3F00S00C0.03543
T4F00S00C0.03937
T5F00S00C0.04000
T6F00S00C0.05512
T7F00S00C0.06500
T8F00S00C0.09449
T9F00S00C0.13780
%
T01
X649311Y50098
X682087Y124016
X777559Y77756
X801181Y71850
X654528
X609252Y124016
X565945Y102362
X501968Y136811
X396654Y146127
X421529Y89679
X429134Y201575
X444882Y205512
X299213Y207435
X296157Y191688
X301969Y183071
X287402Y179134
X283177Y185736
X272638Y186024
Y180118
X268504Y191339
X266929Y204331
X279528Y199803
Y164370
X272638
X252362Y183858
X231751Y178961
X223917Y172851
X231496Y193701
X212802Y210820
X208268Y198819
X184366Y197638
X192520Y210630
X198425Y181890
X190551Y174016
X184646
X192641Y167757
X201969Y163386
X208661Y160433
Y154528
Y148622
Y142717
X209055Y166535
X172047Y159449
X171653Y184252
X59449Y211024
X40945Y204724
X40979Y187598
X172244Y213583
X209252Y236402
X209449Y285039
X218110Y236221
X251462Y238696
X262852Y233324
X266142Y217323
X244882Y226772
X297758Y225626
X301181Y218504
X365256Y228248
X361811Y250787
X359449Y297638
X338902Y281188
X330729Y270079
X275590Y266929
X377953Y280709
X395669Y259842
X395617Y253491
X419291Y257874
Y273622
X433071Y254724
X438976Y249213
X441698Y238942
X454724Y239170
X456545Y281890
X468110Y281496
X511978Y275006
X429831Y301181
X426219Y312045
X399606Y322933
X581693Y321850
X606299Y336614
X391732Y394258
X382781Y518701
X371934Y509955
X407480Y512795
X413386Y519685
X423228Y519538
X440945Y519685
X365158Y518701
X359252
Y524062
X349213Y473228
X296771Y415560
X296504Y408255
X287992Y413975
X289370Y419291
X277256Y398237
X267717Y401575
X263779Y405512
X256448Y407836
X253120Y411584
X342520Y534449
X409449Y526575
X419291Y539797
X440945Y539370
T02
X374016Y437008
Y444882
T03
X439961Y6004
Y13878
Y21752
Y29626
Y37500
X447835
Y29626
Y21752
Y13878
Y6004
X455709
Y13878
Y21752
Y29626
Y37500
X463583
Y29626
Y21752
Y13878
Y6004
X471457
Y13878
Y21752
Y29626
Y37500
T04
X17717Y7874
X25591
Y15748
X17717
Y23622
X25591
X33465
X41339
Y15748
Y7874
X33465
Y15748
X49213
Y7874
Y23622
X57087
X64961
Y15748
Y7874
X57087
Y15748
X72835Y33465
Y41339
X80709
Y33465
X88583
Y41339
Y49213
X80709
X72835
X298228Y55118
X306102
Y47244
X313976
X321850
Y39370
Y32480
X313976Y39370
Y55118
X321850
X298228Y32480
X368110Y35433
X385827
X393701
X401575
X413386Y29528
Y21654
Y13886
X419291Y17717
Y25591
X425197Y21654
Y13886
X438411Y53936
X456693Y53937
X488681Y35531
Y29626
Y23720
Y17815
Y11909
Y6004
X499508
Y11909
Y17815
Y23720
Y29626
Y35531
X510335
Y29626
Y23720
Y17815
Y11909
Y6004
X521161
Y11909
Y17815
Y23720
Y29626
Y35531
X531988
Y29626
Y23720
Y17815
Y11909
Y6004
X542815
Y11909
Y17815
Y23720
Y29626
Y35531
X553642
Y29626
Y23720
Y17815
Y11909
Y6004
X564468
Y11909
Y17815
Y23720
Y29626
Y35531
X575295
Y29626
Y23720
Y17815
Y11909
Y6004
X586122
Y11909
Y17815
Y23720
Y29626
Y35531
X757874Y104331
X765748
Y112205
X773622
Y104331
X781496
Y112205
X789370
Y104331
X797244
Y112205
X805118
Y104331
Y120079
X797244
X789370
X781496
X773622
Y161417
X781496
X789370
X797244
Y169291
X789370
Y177165
X781496
Y169291
X773622
Y177165
Y185039
X781496
X773622Y192913
X767717Y204724
X759842
X751968
X744095
X791339
X799213
X807087
X814961
X805118Y161417
X645669Y95276
X629921Y95669
X614173
X598425Y96063
Y64961
X582677
X566929
X551181
X535433
Y97638
X551181
X519685
X503937
X488189
X472835
X464567Y110236
X456693
X448819
Y118110
Y125984
X456693
Y118110
X464567
X472441
X480315
X440945
Y125984
X433071
Y118110
X433812Y110977
X440945Y110236
X442913Y139764
X450787
X458661
Y147638
Y155512
X435039Y147638
Y139764
X427165
X419291
Y147638
Y155512
X427165
Y147638
Y131890
Y165354
X419291
X383858Y151575
Y143701
Y135827
X375984
Y127953
Y143701
Y151575
X381890Y112205
Y104331
X374016
X377953Y98425
X389764Y104331
Y112205
Y120079
X403543Y85630
Y78740
Y71850
X429134Y66929
Y59055
X447638Y61024
Y69291
X472441Y64961
X488189
X503937
X519685
X521708Y141732
X521654Y149606
Y157480
X513779
Y149606
X507874Y143701
X501968Y149606
X505905Y157480
Y202756
X513779
X381890Y200787
X374016
X375984Y61024
X368110
Y98425
Y120079
Y127953
Y135827
Y143701
Y151575
X320866
Y143701
X312992Y151575
Y129921
Y122047
X320866
Y114173
X312992
X320866Y106299
X321850Y94488
X313976
X306102
X298228
X313976Y86614
X321850
Y78740
Y70866
X313976
Y78740
Y62992
X321850
X306102
X298228
X344488Y118110
X352362
X334646Y192913
Y200787
X326772
Y192913
X318898
Y200787
X311024
Y192913
Y210630
X366142Y200787
X88583Y169291
Y161449
X80709
Y169291
X72835
Y161449
Y153575
X80709
Y145701
X72835
Y137827
X80709
Y129953
X72835
Y122079
X80709
X88583
Y129953
Y137827
Y145701
Y153575
X64961Y161417
Y169291
X57087
Y161417
X72835Y64961
X80709
X88583
Y57087
X80709
X72835
X49213Y161417
Y169291
X41339
Y161417
X29528Y179134
X21654
X13780
X5906
Y171260
Y163386
Y155512
X13780Y255906
Y263779
Y271654
Y279528
Y287402
Y295276
X43307Y340551
X51181
Y348425
Y356299
X43307Y348425
X59055
X66929
Y356299
X59055
X74803
Y348425
X82677
Y356299
Y340551
Y332677
Y324803
Y316929
Y309055
X74803
Y316929
X66929
Y309055
Y324803
X74803
Y332677
Y340551
X66929
Y332677
X59055Y340551
X74803Y257874
X82677
X90551
Y250000
X82677
Y242126
X74803
Y234252
X66929
X59055
Y242126
X66929
Y250000
X74803
X98425Y257874
X59055Y226378
Y218504
X320866Y215551
Y228346
Y236221
X312992
X314961Y291339
Y299213
Y307087
X307087
Y299213
Y291339
X322835Y299213
X330709
X338583
X322835Y307087
Y314961
X314961
Y322835
Y330709
X307087
X307087Y322886
Y315024
X322835Y322835
Y330709
X368110
Y338583
Y314961
Y301181
X366142Y214567
X375984Y301181
X374016Y314961
X375984Y338583
Y346457
Y354331
Y362205
X381890Y358268
Y350394
X440945Y334646
Y326772
Y318898
Y311024
Y303150
X448819
Y295717
X456703Y295715
X456693Y303150
Y311024
X448819
Y318898
X456693
Y326772
X448819
Y334646
X456693
X464567Y303150
X480315
X488189
X496063
X503937
X511811
Y311024
X503937
Y318898
X511811
Y326772
X503937
Y334646
X511811
X519685
Y326772
Y318898
Y311024
Y303150
X511811Y295276
X503937
Y287402
X511811
X496063
X488189
X480315
X488189Y295276
X496063
X498032Y259842
X505905
X513779
X521654
Y251969
Y244094
X513779
Y251969
X505905
Y244094
Y236221
Y228346
Y220472
Y212598
X513779
X521654
Y220472
X513779
Y228346
X521654
Y236221
X513779
X498032Y251969
X490158
Y259842
X482283
X474409
Y251969
X482283
X466535
Y259842
X527559Y303150
Y311024
Y318898
Y326772
Y334646
X622047Y287402
Y279528
X614173
Y271654
X622047
X629921
X637795
X645669
X653543
Y279528
Y287402
X645669
X637795
Y279528
X645669
X629921
Y287402
X687008Y295276
Y303150
X694882
Y295276
X702756
X710630
Y303150
X702756
X718504
Y295276
Y287402
Y279528
X710630
Y287402
X702756
Y279528
Y271654
X710630
X718504
X736221Y244094
X744095
X751968
Y236221
X744095
Y228346
X751968
Y220472
Y212598
X744095
Y220472
X736221
Y212598
Y228346
Y236221
X759842
Y228346
Y220472
Y212598
X767717
X775591
X783465
X791339
X799213
X807087
X814961
Y220472
Y228346
Y236221
Y244094
X767717
Y236221
Y228346
Y220472
X759842Y244094
X767717Y305118
Y312992
Y320866
Y328740
Y336614
X759842
X751968
X744095
X736221
Y344488
X751968
X759842
X767717
Y352362
X775591
Y344488
X783465
X791339
Y352362
X783465
Y360236
X791339
X799213
X807087
Y352362
Y344488
X799213
Y352362
X814961
Y344488
Y336614
Y328740
Y320866
Y312992
Y305118
Y360236
Y368110
X807087
X799213
X791339
X783465
X775591
X767717
X759842
Y360236
X767717
X775591
X759687Y352222
X751968Y368110
X744095
X736221
Y393701
Y401575
Y409449
Y417323
Y425197
X744095
X751968
Y417323
X744095
Y409449
X751968
Y401575
X744095
Y393701
X751968
X759842
Y401575
Y409449
Y417323
Y425197
X767717
Y417323
Y409449
Y401575
Y393701
X785433Y390748
X793307
Y382874
X801181
X809055
X816929
Y390748
Y398622
Y406496
Y414370
Y422244
X809055Y390748
X801181
X816929Y492126
Y500000
Y507874
Y515748
Y523622
X809055
X801181
X793307
X785433
X777559
X767717Y515748
Y507874
X759842
Y500000
X751968
Y492126
Y484252
X744095
Y492126
X736221Y484252
Y476378
X744095
X751968
X759842
X767717
Y484252
Y492126
X759842
Y484252
X767717Y500000
X529528
Y507874
Y515748
Y523622
X527559Y417323
Y409449
Y401575
X519685
X511811
X503937
Y409449
X511811
Y417323
X503937
Y425197
X511811
X519685
Y417323
Y409449
X458661Y411417
X450787
Y401575
X458661
X457161Y420760
X448819Y427165
X440945
Y419291
X433071
Y411417
X391732Y411702
Y403344
Y421260
Y429134
Y437008
Y444882
Y452756
X399606Y456693
X407480
Y448819
X399606
X403543Y442913
X411417
X418701Y442577
X415354Y448819
Y456693
X423228
Y448819
X438976Y476378
X446850
Y484252
Y492126
X438976
Y484252
X454724
Y492126
Y500000
Y507874
Y515748
Y523622
X462598
X470472
X478346
X488189
X498032
X505905
X513779
X521654
Y515748
Y507874
X513779
Y515748
X505905
Y507874
Y500000
X513779
X521654
X513779Y492126
X505905
X494095Y484252
Y476378
X486221
X478346
X470472
X462598
X454724
X462598Y484252
X470472
X478346
X486221
X379921Y476378
X372047
X364173
X356299Y479815
X348425
X320866Y480315
X315945Y474409
X305118
Y489173
Y498032
X312992
Y505911
X305118
Y518429
X312992
X320866
Y505905
X317515Y489572
X311610Y483666
X334646Y521654
X342520
X350394
Y431102
X342520
X334646
X326772
X322835Y425197
Y417323
Y409449
Y401575
Y393701
X314961
Y401575
X307087
Y393701
Y409449
X314961
Y417323
X368110
Y409449
Y401575
Y393701
X96457Y427165
X88583
Y419291
X80709
Y427165
X72835
Y419291
X64961
Y411417
Y403543
X72835
Y411417
X80709
X57087
Y403543
Y395669
Y387795
X64961Y395669
Y511811
X72835
X80709
Y519685
X72835
X64961
X17717
X7874
Y511811
Y503937
Y427165
Y419291
Y411417
Y403543
Y395669
Y387795
X15748
Y379921
X7874
Y372047
X15748
X41339
Y379921
X49213
Y387795
X41339
Y527559
X33465
Y535433
X41339
X49213
Y527559
Y543307
X41339
X33465
X25591
X17717
Y535433
X25591
Y527559
X17717
X7874
Y535433
Y543307
X57087
Y535433
Y527559
X64961
Y535433
X72835
Y527559
X80709
Y535433
Y543307
X72835
X64961
X312992Y525591
X320866
X328740
X455755Y530465
X462598Y531496
X470472
X478346
X505905
X513779
X521654
X529528
X809055
X816929
T05
X787402Y17244
Y27244
Y37244
Y47244
Y57244
Y67244
Y77244
X468661Y541339
X458661
T06
X726221Y39370
X746220
T07
X671639Y25740
X685039
Y78740
X671639
T08
X777244Y202953
X495121Y171063
X330000Y110465
X47953Y76575
Y257677
X330000Y289567
X494803Y352165
X777169Y384055
X442717Y406181
X330000Y470669
X47953Y438779
X495121Y533268
T09
X80315Y15748
X744806Y173228
X527559Y200787
X527484Y110236
X444882Y156496
X297638Y171291
Y78740
X80315Y108299
Y196850
Y287402
X297638Y259842
Y350394
X527165Y291339
X744882Y263779
X744488Y354331
X744806Y444882
X527484Y472441
Y381890
X381890Y373819
X297638Y440945
X80315Y468504
Y377953
X297638Y531496
X744806Y535433
M30
