%FSTAX23Y23*%
%MOIN*%
%SFA1B1*%

%IPPOS*%
%ADD17R,0.334650X0.289370*%
%ADD18R,0.289370X0.334650*%
%ADD19R,0.062990X0.055120*%
%ADD20R,0.035430X0.039370*%
%ADD21R,0.037400X0.051180*%
%ADD22R,0.051180X0.037400*%
%ADD23R,0.110000X0.150000*%
%ADD24R,0.255910X0.255910*%
%ADD25R,0.062990X0.118110*%
%ADD26R,0.137800X0.039370*%
%ADD27R,0.043310X0.129920*%
%LNpcb1-1*%
%LPD*%
G54D17*
X03444Y05D03*
X00334D03*
Y04094D03*
X03444D03*
X00334Y00472D03*
X03444D03*
X04806Y05039D03*
X07916D03*
X04807Y02322D03*
X07917D03*
X00334Y01397D03*
X03444D03*
Y02283D03*
X00334D03*
X07916Y01417D03*
X04806D03*
X04803Y03228D03*
X07913D03*
X07916Y04133D03*
X04806D03*
X03444Y03188D03*
X00334D03*
G54D18*
X04133Y04206D03*
Y01096D03*
G54D19*
X0372Y05187D03*
X04035D03*
X0372Y05009D03*
X04035D03*
G54D20*
X03723Y05374D03*
X03628D03*
X0388D03*
X03786D03*
X03565D03*
X03471D03*
X04038D03*
X03943D03*
G54D21*
X03797Y05295D03*
X03869D03*
X03712D03*
X03639D03*
X03482D03*
X03555D03*
X03954D03*
X04027D03*
X0363Y02908D03*
X03558D03*
X03589Y02655D03*
X03516D03*
X00302Y02047D03*
X00229D03*
Y01948D03*
X00302D03*
X07999Y05305D03*
X07926D03*
G54D22*
X035Y02812D03*
Y02739D03*
X03622Y01138D03*
Y01065D03*
X04724Y02896D03*
Y02969D03*
X00275Y03762D03*
Y03835D03*
Y03474D03*
Y03401D03*
X00282Y01617D03*
Y01689D03*
G54D23*
X04215Y00787D03*
X03934D03*
G54D24*
X04478Y00915D03*
G54D25*
X04568Y00653D03*
X04387D03*
G54D26*
X04409Y05046D03*
Y05146D03*
Y05246D03*
Y05346D03*
Y05446D03*
X04192Y05046D03*
Y05146D03*
Y05246D03*
Y05346D03*
Y05446D03*
G54D27*
X03938Y00472D03*
X03698D03*
M02*