G04*
G04 #@! TF.GenerationSoftware,Altium Limited,Altium Designer,21.0.8 (223)*
G04*
G04 Layer_Color=16711935*
%FSLAX25Y25*%
%MOIN*%
G70*
G04*
G04 #@! TF.SameCoordinates,A19D7D31-63B9-40C3-BA03-758776B81FF0*
G04*
G04*
G04 #@! TF.FilePolarity,Negative*
G04*
G01*
G75*
%ADD32R,0.04540X0.05918*%
%ADD33R,0.05918X0.04540*%
%ADD39C,0.16548*%
%ADD40C,0.11430*%
%ADD41R,0.11233X0.11233*%
%ADD42C,0.11233*%
%ADD43R,0.05800X0.05800*%
%ADD44C,0.05800*%
%ADD45C,0.06800*%
%ADD46R,0.06800X0.06800*%
%ADD47C,0.06312*%
%ADD48R,0.07887X0.07099*%
%ADD49C,0.00800*%
%ADD50O,0.10800X0.13800*%
%ADD51C,0.07099*%
%ADD52R,0.07099X0.07099*%
%ADD53C,0.06706*%
%ADD54C,0.03937*%
%ADD96R,0.06706X0.01981*%
%ADD97O,0.06706X0.01981*%
%ADD98R,0.06902X0.05721*%
%ADD99R,0.06115X0.06902*%
%ADD100R,0.11036X0.04934*%
%ADD101O,0.06509X0.03162*%
%ADD102R,0.04343X0.03950*%
%ADD103R,0.05315X0.06693*%
%ADD104O,0.06509X0.01981*%
%ADD105O,0.01981X0.06509*%
%ADD106R,0.04343X0.03556*%
%ADD107R,0.08300X0.05800*%
%ADD108R,0.04934X0.11036*%
%ADD109R,0.04737X0.06115*%
%ADD110R,0.03162X0.03753*%
%ADD111R,0.03753X0.03162*%
%ADD112O,0.03162X0.06509*%
%ADD113R,0.13595X0.04934*%
%ADD114R,0.43792X0.36312*%
%ADD115R,0.07808X0.14595*%
G36*
X685092Y32638D02*
X685143Y32627D01*
X685193Y32610D01*
X685240Y32587D01*
X685283Y32558D01*
X685323Y32524D01*
X685357Y32484D01*
X685387Y32441D01*
X685410Y32394D01*
X685427Y32344D01*
X685437Y32293D01*
X685440Y32240D01*
Y19240D01*
X685437Y19188D01*
X685427Y19136D01*
X685410Y19087D01*
X685387Y19040D01*
X685357Y18996D01*
X685323Y18957D01*
X685283Y18922D01*
X685240Y18893D01*
X685193Y18870D01*
X685143Y18853D01*
X685092Y18843D01*
X685039Y18839D01*
X671639D01*
X671587Y18843D01*
X671536Y18853D01*
X671486Y18870D01*
X671439Y18893D01*
X671395Y18922D01*
X671356Y18957D01*
X671321Y18996D01*
X671292Y19040D01*
X671269Y19087D01*
X671252Y19136D01*
X671242Y19188D01*
X671239Y19240D01*
Y19340D01*
Y32240D01*
X671242Y32293D01*
X671252Y32344D01*
X671269Y32394D01*
X671292Y32441D01*
X671321Y32484D01*
X671356Y32524D01*
X671395Y32558D01*
X671439Y32587D01*
X671486Y32610D01*
X671536Y32627D01*
X671587Y32638D01*
X671639Y32641D01*
X685039D01*
X685092Y32638D01*
D02*
G37*
G36*
Y85638D02*
X685143Y85627D01*
X685193Y85611D01*
X685240Y85587D01*
X685283Y85558D01*
X685323Y85524D01*
X685357Y85484D01*
X685387Y85441D01*
X685410Y85394D01*
X685427Y85344D01*
X685437Y85293D01*
X685440Y85240D01*
Y72240D01*
X685437Y72188D01*
X685427Y72136D01*
X685410Y72087D01*
X685387Y72040D01*
X685357Y71996D01*
X685323Y71957D01*
X685283Y71922D01*
X685240Y71893D01*
X685193Y71870D01*
X685143Y71853D01*
X685092Y71843D01*
X685039Y71839D01*
X671639D01*
X671587Y71843D01*
X671536Y71853D01*
X671486Y71870D01*
X671439Y71893D01*
X671395Y71922D01*
X671356Y71957D01*
X671321Y71996D01*
X671292Y72040D01*
X671269Y72087D01*
X671252Y72136D01*
X671242Y72188D01*
X671239Y72240D01*
Y72340D01*
Y85240D01*
X671242Y85293D01*
X671252Y85344D01*
X671269Y85394D01*
X671292Y85441D01*
X671321Y85484D01*
X671356Y85524D01*
X671395Y85558D01*
X671439Y85587D01*
X671486Y85611D01*
X671536Y85627D01*
X671587Y85638D01*
X671639Y85641D01*
X685039D01*
X685092Y85638D01*
D02*
G37*
D32*
X373721Y255906D02*
D03*
X366437D02*
D03*
X373721Y246063D02*
D03*
X366437D02*
D03*
X377953Y236221D02*
D03*
X370669D02*
D03*
X377953Y228346D02*
D03*
X370669D02*
D03*
X395965Y301181D02*
D03*
X403248D02*
D03*
X468209Y275591D02*
D03*
X460925D02*
D03*
X450492Y285433D02*
D03*
X443209D02*
D03*
X450492Y277559D02*
D03*
X443209D02*
D03*
X458366Y265748D02*
D03*
X451083D02*
D03*
X428839Y208661D02*
D03*
X421555D02*
D03*
X409154D02*
D03*
X401870D02*
D03*
X246358Y183973D02*
D03*
X239075D02*
D03*
X180020Y213501D02*
D03*
X187303D02*
D03*
X179429Y205627D02*
D03*
X172146D02*
D03*
X172146Y197753D02*
D03*
X179429D02*
D03*
X172146Y189879D02*
D03*
X179429D02*
D03*
X172146Y166257D02*
D03*
X179429D02*
D03*
X196161Y163304D02*
D03*
X188878D02*
D03*
X594193Y307087D02*
D03*
X586909D02*
D03*
X594193Y295276D02*
D03*
X586909D02*
D03*
X546654Y143701D02*
D03*
X539370D02*
D03*
X586909Y102362D02*
D03*
X594193D02*
D03*
X586909Y110236D02*
D03*
X594193D02*
D03*
X633563Y57087D02*
D03*
X626279D02*
D03*
X649311D02*
D03*
X642028D02*
D03*
X392551Y512192D02*
D03*
X399834D02*
D03*
X392279Y522035D02*
D03*
X399563D02*
D03*
X376310Y512192D02*
D03*
X383594D02*
D03*
D33*
X387795Y322933D02*
D03*
Y315650D02*
D03*
X355315Y288779D02*
D03*
Y281496D02*
D03*
Y273327D02*
D03*
Y266043D02*
D03*
Y257874D02*
D03*
Y250591D02*
D03*
X347441Y265748D02*
D03*
Y258465D02*
D03*
Y281201D02*
D03*
Y273917D02*
D03*
Y296949D02*
D03*
Y289665D02*
D03*
X387795Y308760D02*
D03*
Y301476D02*
D03*
X411417Y322933D02*
D03*
Y315650D02*
D03*
Y308760D02*
D03*
Y301476D02*
D03*
X452756Y224114D02*
D03*
Y216831D02*
D03*
X427165Y224114D02*
D03*
Y216831D02*
D03*
X415354Y224114D02*
D03*
Y216831D02*
D03*
X227953Y228560D02*
D03*
Y235843D02*
D03*
Y221080D02*
D03*
Y213796D02*
D03*
X282087Y210253D02*
D03*
Y217536D02*
D03*
X249606Y172851D02*
D03*
Y165568D02*
D03*
X240748Y172851D02*
D03*
Y165568D02*
D03*
X231890Y172851D02*
D03*
Y165568D02*
D03*
X235827Y213796D02*
D03*
Y221080D02*
D03*
X243701Y221080D02*
D03*
Y213796D02*
D03*
X235827Y235843D02*
D03*
Y228560D02*
D03*
X227953Y250607D02*
D03*
Y243324D02*
D03*
X722441Y239862D02*
D03*
Y232579D02*
D03*
Y170965D02*
D03*
Y163681D02*
D03*
X606299Y323130D02*
D03*
Y330413D02*
D03*
X558071Y130610D02*
D03*
Y123327D02*
D03*
X348819Y451279D02*
D03*
Y443996D02*
D03*
X377953Y293012D02*
D03*
Y285728D02*
D03*
D39*
X80315Y468504D02*
D03*
X297638Y531496D02*
D03*
Y440945D02*
D03*
X80315Y377953D02*
D03*
X297638Y78740D02*
D03*
X80315Y15748D02*
D03*
X744806Y535433D02*
D03*
X527484Y472441D02*
D03*
X444882Y156496D02*
D03*
X381890Y373819D02*
D03*
X744882Y263779D02*
D03*
X527559Y200787D02*
D03*
X297638Y171291D02*
D03*
X80315Y108299D02*
D03*
Y196850D02*
D03*
X297638Y259842D02*
D03*
X527484Y110236D02*
D03*
X744806Y173228D02*
D03*
X744488Y354331D02*
D03*
X527165Y291339D02*
D03*
X527484Y381890D02*
D03*
X744806Y444882D02*
D03*
X80315Y287402D02*
D03*
X297638Y350394D02*
D03*
D40*
X330000Y470669D02*
D03*
X47953Y438779D02*
D03*
Y76575D02*
D03*
X495121Y533268D02*
D03*
X442717Y406181D02*
D03*
X777244Y202953D02*
D03*
X330000Y110465D02*
D03*
X47953Y257677D02*
D03*
X495121Y171063D02*
D03*
X494803Y352165D02*
D03*
X777169Y384055D02*
D03*
X330000Y289567D02*
D03*
D41*
X726221Y39370D02*
D03*
D42*
X746220D02*
D03*
D43*
X374016Y437008D02*
D03*
D44*
Y444882D02*
D03*
D45*
X468661Y541339D02*
D03*
D46*
X458661D02*
D03*
D47*
X439961Y37500D02*
D03*
Y29626D02*
D03*
Y21752D02*
D03*
Y13878D02*
D03*
Y6004D02*
D03*
X447835Y37500D02*
D03*
Y29626D02*
D03*
Y21752D02*
D03*
Y13878D02*
D03*
Y6004D02*
D03*
X455709Y37500D02*
D03*
Y29626D02*
D03*
Y21752D02*
D03*
Y13878D02*
D03*
Y6004D02*
D03*
X463583Y37500D02*
D03*
Y29626D02*
D03*
Y21752D02*
D03*
Y13878D02*
D03*
Y6004D02*
D03*
X471457Y37500D02*
D03*
Y29626D02*
D03*
Y21752D02*
D03*
Y13878D02*
D03*
Y6004D02*
D03*
D48*
X564468D02*
D03*
X575295D02*
D03*
X564468Y11909D02*
D03*
X575295D02*
D03*
X564468Y17815D02*
D03*
X575295D02*
D03*
X564468Y23720D02*
D03*
X575295D02*
D03*
X564468Y29626D02*
D03*
X575295D02*
D03*
X531988Y6004D02*
D03*
X542815D02*
D03*
X531988Y11909D02*
D03*
X542815D02*
D03*
X531988Y17815D02*
D03*
X542815D02*
D03*
X531988Y23720D02*
D03*
X542815D02*
D03*
X531988Y29626D02*
D03*
X542815D02*
D03*
X499508Y6004D02*
D03*
X510335D02*
D03*
X499508Y11909D02*
D03*
X510335D02*
D03*
X499508Y17815D02*
D03*
X510335D02*
D03*
X499508Y23720D02*
D03*
X510335D02*
D03*
X499508Y29626D02*
D03*
X488681Y6004D02*
D03*
Y11909D02*
D03*
Y17815D02*
D03*
Y23720D02*
D03*
Y29626D02*
D03*
X564468Y35531D02*
D03*
X575295D02*
D03*
X531988D02*
D03*
X542815D02*
D03*
X499508D02*
D03*
X510335D02*
D03*
X488681D02*
D03*
X521161Y6004D02*
D03*
X553642D02*
D03*
X586122D02*
D03*
X521161Y11909D02*
D03*
X553642D02*
D03*
X586122D02*
D03*
X521161Y17815D02*
D03*
X553642D02*
D03*
X586122D02*
D03*
X521161Y23720D02*
D03*
X553642D02*
D03*
X586122D02*
D03*
X521161Y29626D02*
D03*
X553642D02*
D03*
X586122D02*
D03*
X521161Y35531D02*
D03*
X553642D02*
D03*
X586122D02*
D03*
X510335Y29626D02*
D03*
D49*
X420079Y43209D02*
D03*
X603543D02*
D03*
D50*
X671639Y78740D02*
D03*
X685039D02*
D03*
X671639Y25740D02*
D03*
X685039D02*
D03*
D51*
X787402Y77244D02*
D03*
Y57244D02*
D03*
Y67244D02*
D03*
Y47244D02*
D03*
Y27244D02*
D03*
Y37244D02*
D03*
D52*
Y17244D02*
D03*
D53*
X321850Y55118D02*
D03*
Y47244D02*
D03*
D54*
X455755Y530465D02*
D03*
X305118Y518429D02*
D03*
X350394Y521654D02*
D03*
X334646D02*
D03*
X342520D02*
D03*
X312992Y518429D02*
D03*
X320866D02*
D03*
X312992Y498032D02*
D03*
X320866Y505905D02*
D03*
X305118Y505911D02*
D03*
X317515Y489572D02*
D03*
X305118Y498032D02*
D03*
X312992Y505911D02*
D03*
X320866Y480315D02*
D03*
X315945Y474409D02*
D03*
X305118D02*
D03*
Y489173D02*
D03*
X311610Y483666D02*
D03*
X322835Y425197D02*
D03*
X391732Y452756D02*
D03*
X21654Y179134D02*
D03*
X29528D02*
D03*
X82677Y250000D02*
D03*
X74803Y242126D02*
D03*
X59055Y226378D02*
D03*
X90551Y257874D02*
D03*
X66929Y234252D02*
D03*
X59055Y218504D02*
D03*
X90551Y250000D02*
D03*
X98425Y257874D02*
D03*
X82677Y242126D02*
D03*
X74803Y234252D02*
D03*
X82677Y257874D02*
D03*
X59055Y234252D02*
D03*
X74803Y250000D02*
D03*
X66929Y242126D02*
D03*
X454724Y523622D02*
D03*
X462598Y531496D02*
D03*
X521708Y141732D02*
D03*
X507874Y143701D02*
D03*
X521654Y149606D02*
D03*
X440945Y125984D02*
D03*
X427165Y139764D02*
D03*
X448819Y118110D02*
D03*
X456693Y110236D02*
D03*
X440945Y118110D02*
D03*
X448819Y110236D02*
D03*
X433071Y125984D02*
D03*
X448819D02*
D03*
X456693Y118110D02*
D03*
X464567Y110236D02*
D03*
X472441Y118110D02*
D03*
X456693Y125984D02*
D03*
X464567Y118110D02*
D03*
X480315D02*
D03*
X348425Y479815D02*
D03*
X356299D02*
D03*
X311024Y210630D02*
D03*
X498032Y523622D02*
D03*
X425197Y13886D02*
D03*
X413386D02*
D03*
X448819Y295717D02*
D03*
X456703Y295715D02*
D03*
X440945Y303150D02*
D03*
X311024Y192913D02*
D03*
X320866Y215551D02*
D03*
X311024Y200787D02*
D03*
X494095Y476378D02*
D03*
X486221D02*
D03*
X478346D02*
D03*
X470472D02*
D03*
X462598D02*
D03*
X446850D02*
D03*
X433812Y110977D02*
D03*
X757874Y104331D02*
D03*
X765748D02*
D03*
X773622D02*
D03*
X765748Y112205D02*
D03*
X789370Y104331D02*
D03*
X781496Y112205D02*
D03*
X773622Y120079D02*
D03*
X789370Y112205D02*
D03*
X781496Y120079D02*
D03*
X789370D02*
D03*
X773622Y161417D02*
D03*
Y169291D02*
D03*
X781496Y161417D02*
D03*
X751968Y212598D02*
D03*
X773622Y185039D02*
D03*
X736221Y220472D02*
D03*
X789370Y161417D02*
D03*
X781496Y177165D02*
D03*
X789370Y169291D02*
D03*
X744095Y212598D02*
D03*
X736221Y228346D02*
D03*
X759842Y204724D02*
D03*
X751968D02*
D03*
X744095Y220472D02*
D03*
X781496Y169291D02*
D03*
X773622Y177165D02*
D03*
X736221Y212598D02*
D03*
X744095Y204724D02*
D03*
X773622Y112205D02*
D03*
X781496Y104331D02*
D03*
X773622Y192913D02*
D03*
X781496Y185039D02*
D03*
X789370Y177165D02*
D03*
X797244Y169291D02*
D03*
Y161417D02*
D03*
X805118D02*
D03*
Y112205D02*
D03*
Y120079D02*
D03*
Y104331D02*
D03*
X687008Y303150D02*
D03*
Y295276D02*
D03*
X694882D02*
D03*
Y303150D02*
D03*
X718504D02*
D03*
X710630D02*
D03*
X702756D02*
D03*
Y295276D02*
D03*
X710630D02*
D03*
X718504D02*
D03*
Y287402D02*
D03*
X710630D02*
D03*
X702756D02*
D03*
Y279528D02*
D03*
X710630D02*
D03*
X718504D02*
D03*
Y271654D02*
D03*
X710630D02*
D03*
X702756D02*
D03*
X653543Y287402D02*
D03*
X645669D02*
D03*
X637795D02*
D03*
X629921D02*
D03*
X622047D02*
D03*
X653543Y279528D02*
D03*
Y271654D02*
D03*
X645669D02*
D03*
Y279528D02*
D03*
X637795D02*
D03*
Y271654D02*
D03*
X629921D02*
D03*
Y279528D02*
D03*
X622047D02*
D03*
Y271654D02*
D03*
X614173Y279528D02*
D03*
Y271654D02*
D03*
X15748Y379921D02*
D03*
Y387795D02*
D03*
Y372047D02*
D03*
X7874Y427165D02*
D03*
Y419291D02*
D03*
Y411417D02*
D03*
Y403543D02*
D03*
Y395669D02*
D03*
Y387795D02*
D03*
Y379921D02*
D03*
Y372047D02*
D03*
X96457Y427165D02*
D03*
X88583D02*
D03*
X80709D02*
D03*
X72835D02*
D03*
X88583Y419291D02*
D03*
X80709D02*
D03*
X72835D02*
D03*
X64961D02*
D03*
X80709Y411417D02*
D03*
X72835D02*
D03*
X64961D02*
D03*
X57087D02*
D03*
X72835Y403543D02*
D03*
X64961D02*
D03*
X57087D02*
D03*
X64961Y395669D02*
D03*
X57087D02*
D03*
X49213Y379921D02*
D03*
X41339Y372047D02*
D03*
Y379921D02*
D03*
X57087Y387795D02*
D03*
X49213D02*
D03*
X41339D02*
D03*
X64961Y511811D02*
D03*
X72835D02*
D03*
X80709D02*
D03*
Y519685D02*
D03*
X72835D02*
D03*
X64961D02*
D03*
X80709Y527559D02*
D03*
X72835D02*
D03*
X64961D02*
D03*
X33465D02*
D03*
X57087D02*
D03*
X49213D02*
D03*
X41339D02*
D03*
Y535433D02*
D03*
X49213D02*
D03*
X57087D02*
D03*
X64961D02*
D03*
X72835D02*
D03*
X80709D02*
D03*
Y543307D02*
D03*
X72835D02*
D03*
X64961D02*
D03*
X57087D02*
D03*
X49213D02*
D03*
X41339D02*
D03*
X33465Y535433D02*
D03*
Y543307D02*
D03*
X25591D02*
D03*
Y535433D02*
D03*
Y527559D02*
D03*
X17717Y519685D02*
D03*
Y527559D02*
D03*
Y535433D02*
D03*
Y543307D02*
D03*
X7874Y503937D02*
D03*
Y511811D02*
D03*
Y519685D02*
D03*
Y527559D02*
D03*
Y535433D02*
D03*
Y543307D02*
D03*
X82677Y309055D02*
D03*
X74803D02*
D03*
X66929D02*
D03*
Y316929D02*
D03*
X74803D02*
D03*
X82677D02*
D03*
Y324803D02*
D03*
X74803D02*
D03*
X66929D02*
D03*
Y332677D02*
D03*
X74803D02*
D03*
X82677D02*
D03*
Y340551D02*
D03*
Y348425D02*
D03*
Y356299D02*
D03*
X74803D02*
D03*
Y348425D02*
D03*
Y340551D02*
D03*
X66929D02*
D03*
Y348425D02*
D03*
Y356299D02*
D03*
X59055D02*
D03*
Y348425D02*
D03*
Y340551D02*
D03*
X51181D02*
D03*
Y348425D02*
D03*
Y356299D02*
D03*
X43307Y348425D02*
D03*
Y340551D02*
D03*
X74803Y257874D02*
D03*
X66929Y250000D02*
D03*
X59055Y242126D02*
D03*
X13780Y255906D02*
D03*
Y263779D02*
D03*
Y271654D02*
D03*
Y279528D02*
D03*
Y287402D02*
D03*
Y295276D02*
D03*
X88583Y169291D02*
D03*
X80709D02*
D03*
X72835D02*
D03*
X64961Y161417D02*
D03*
Y169291D02*
D03*
X57087D02*
D03*
Y161417D02*
D03*
X49213D02*
D03*
Y169291D02*
D03*
X41339D02*
D03*
Y161417D02*
D03*
X72835Y161449D02*
D03*
X80709D02*
D03*
X88583D02*
D03*
Y153575D02*
D03*
X80709D02*
D03*
X72835D02*
D03*
Y145701D02*
D03*
X80709D02*
D03*
X88583D02*
D03*
Y137827D02*
D03*
X80709D02*
D03*
X72835D02*
D03*
Y129953D02*
D03*
X80709D02*
D03*
X88583D02*
D03*
Y122079D02*
D03*
X80709D02*
D03*
X72835D02*
D03*
X88583Y64961D02*
D03*
X80709D02*
D03*
X72835D02*
D03*
Y57087D02*
D03*
X80709D02*
D03*
X88583D02*
D03*
Y49213D02*
D03*
X80709D02*
D03*
X72835D02*
D03*
Y41339D02*
D03*
X80709D02*
D03*
X88583D02*
D03*
Y33465D02*
D03*
X80709D02*
D03*
X72835D02*
D03*
X64961Y23622D02*
D03*
Y15748D02*
D03*
Y7874D02*
D03*
X57087D02*
D03*
Y15748D02*
D03*
Y23622D02*
D03*
X49213Y7874D02*
D03*
X41339D02*
D03*
Y15748D02*
D03*
X49213D02*
D03*
Y23622D02*
D03*
X41339D02*
D03*
X33465Y7874D02*
D03*
X25591D02*
D03*
X17717D02*
D03*
Y15748D02*
D03*
X25591D02*
D03*
X33465D02*
D03*
Y23622D02*
D03*
X25591D02*
D03*
X17717D02*
D03*
X5906Y155512D02*
D03*
Y163386D02*
D03*
Y171260D02*
D03*
X13780Y179134D02*
D03*
X5906D02*
D03*
X377953Y98425D02*
D03*
X368110D02*
D03*
X389764Y104331D02*
D03*
X381890D02*
D03*
X374016D02*
D03*
X381890Y112205D02*
D03*
X389764D02*
D03*
Y120079D02*
D03*
X375984Y61024D02*
D03*
X368110D02*
D03*
Y35433D02*
D03*
X298228Y94488D02*
D03*
X306102D02*
D03*
X313976D02*
D03*
X321850D02*
D03*
X313976Y86614D02*
D03*
X321850Y78740D02*
D03*
Y70866D02*
D03*
Y62992D02*
D03*
Y86614D02*
D03*
X313976Y78740D02*
D03*
X321850Y32480D02*
D03*
Y39370D02*
D03*
X313976Y70866D02*
D03*
Y62992D02*
D03*
X306102D02*
D03*
X298228D02*
D03*
Y55118D02*
D03*
X306102Y47244D02*
D03*
Y55118D02*
D03*
X313976D02*
D03*
Y47244D02*
D03*
Y39370D02*
D03*
X298228Y32480D02*
D03*
X433071Y118110D02*
D03*
X440945Y110236D02*
D03*
X447638Y69291D02*
D03*
X456693Y53937D02*
D03*
X438411Y53936D02*
D03*
X429134Y59055D02*
D03*
Y66929D02*
D03*
X447638Y61024D02*
D03*
X425197Y21654D02*
D03*
X419291Y17717D02*
D03*
Y25591D02*
D03*
X413386Y21654D02*
D03*
Y29528D02*
D03*
X401575Y35433D02*
D03*
X393701D02*
D03*
X385827D02*
D03*
X797244Y120079D02*
D03*
Y112205D02*
D03*
Y104331D02*
D03*
X448819Y427165D02*
D03*
X440945D02*
D03*
Y419291D02*
D03*
X433071D02*
D03*
Y411417D02*
D03*
X418701Y442577D02*
D03*
X423228Y456693D02*
D03*
Y448819D02*
D03*
X415354Y456693D02*
D03*
Y448819D02*
D03*
X411417Y442913D02*
D03*
X403543D02*
D03*
X407480Y456693D02*
D03*
Y448819D02*
D03*
X399606D02*
D03*
Y456693D02*
D03*
X391732Y444882D02*
D03*
Y437008D02*
D03*
Y429134D02*
D03*
X368110Y417323D02*
D03*
X391732Y421260D02*
D03*
Y403344D02*
D03*
Y411702D02*
D03*
X505905Y157480D02*
D03*
X513779D02*
D03*
X521654D02*
D03*
X513779Y149606D02*
D03*
X501968D02*
D03*
X458661Y155512D02*
D03*
Y147638D02*
D03*
Y139764D02*
D03*
X450787D02*
D03*
X442913D02*
D03*
X435039D02*
D03*
Y147638D02*
D03*
X427165Y165354D02*
D03*
X419291D02*
D03*
Y155512D02*
D03*
X427165D02*
D03*
Y147638D02*
D03*
X419291D02*
D03*
Y139764D02*
D03*
X427165Y131890D02*
D03*
X513779Y202756D02*
D03*
X505905D02*
D03*
X521654Y212598D02*
D03*
X513779D02*
D03*
X505905D02*
D03*
Y220472D02*
D03*
X513779D02*
D03*
X521654D02*
D03*
Y228346D02*
D03*
X513779D02*
D03*
X505905D02*
D03*
Y236221D02*
D03*
X513779D02*
D03*
X521654D02*
D03*
Y244094D02*
D03*
X513779D02*
D03*
X505905D02*
D03*
X521654Y259842D02*
D03*
Y251969D02*
D03*
X513779D02*
D03*
Y259842D02*
D03*
X505905D02*
D03*
Y251969D02*
D03*
X498032D02*
D03*
Y259842D02*
D03*
X490158D02*
D03*
Y251969D02*
D03*
X482283Y259842D02*
D03*
Y251969D02*
D03*
X474409Y259842D02*
D03*
Y251969D02*
D03*
X466535Y259842D02*
D03*
Y251969D02*
D03*
X379921Y476378D02*
D03*
X372047D02*
D03*
X364173D02*
D03*
X328740Y525591D02*
D03*
X312992D02*
D03*
X320866D02*
D03*
X383858Y143701D02*
D03*
Y135827D02*
D03*
X375984Y127953D02*
D03*
Y135827D02*
D03*
Y143701D02*
D03*
X383858Y151575D02*
D03*
X375984D02*
D03*
X368110D02*
D03*
Y143701D02*
D03*
Y135827D02*
D03*
Y127953D02*
D03*
Y120079D02*
D03*
X352362Y118110D02*
D03*
X344488D02*
D03*
X320866Y106299D02*
D03*
Y122047D02*
D03*
Y114173D02*
D03*
X312992D02*
D03*
Y122047D02*
D03*
Y129921D02*
D03*
X320866Y143701D02*
D03*
Y151575D02*
D03*
X312992D02*
D03*
X334646Y192913D02*
D03*
X326772D02*
D03*
X318898D02*
D03*
X334646Y200787D02*
D03*
X326772D02*
D03*
X318898D02*
D03*
X366142D02*
D03*
X374016D02*
D03*
X381890D02*
D03*
X366142Y214567D02*
D03*
X320866Y228346D02*
D03*
Y236221D02*
D03*
X312992D02*
D03*
X375984Y362205D02*
D03*
X381890Y358268D02*
D03*
Y350394D02*
D03*
X375984Y354331D02*
D03*
Y346457D02*
D03*
Y338583D02*
D03*
X368110D02*
D03*
Y330709D02*
D03*
X374016Y314961D02*
D03*
X368110D02*
D03*
X375984Y301181D02*
D03*
X368110D02*
D03*
X338583Y299213D02*
D03*
X330709D02*
D03*
X322835D02*
D03*
X314961D02*
D03*
Y291339D02*
D03*
X307087D02*
D03*
Y299213D02*
D03*
Y307087D02*
D03*
X314961D02*
D03*
X322835D02*
D03*
X307087Y315024D02*
D03*
X314961Y314961D02*
D03*
X322835D02*
D03*
X307087Y322886D02*
D03*
X314961Y322835D02*
D03*
X322835D02*
D03*
X307087Y330709D02*
D03*
X314961D02*
D03*
X322835D02*
D03*
X368110Y393701D02*
D03*
Y401575D02*
D03*
Y409449D02*
D03*
X322835Y393701D02*
D03*
X314961D02*
D03*
X307087D02*
D03*
Y401575D02*
D03*
X314961D02*
D03*
X322835D02*
D03*
X350394Y431102D02*
D03*
X342520D02*
D03*
X334646D02*
D03*
X326772D02*
D03*
X314961Y417323D02*
D03*
X322835D02*
D03*
Y409449D02*
D03*
X314961D02*
D03*
X307087D02*
D03*
X529528Y523622D02*
D03*
Y531496D02*
D03*
X521654D02*
D03*
Y523622D02*
D03*
X513779D02*
D03*
Y531496D02*
D03*
X505905D02*
D03*
Y523622D02*
D03*
X488189D02*
D03*
X478346Y531496D02*
D03*
Y523622D02*
D03*
X470472Y531496D02*
D03*
Y523622D02*
D03*
X462598D02*
D03*
X454724Y515748D02*
D03*
Y507874D02*
D03*
Y500000D02*
D03*
Y492126D02*
D03*
X446850D02*
D03*
X438976D02*
D03*
Y476378D02*
D03*
Y484252D02*
D03*
X446850D02*
D03*
X454724Y476378D02*
D03*
Y484252D02*
D03*
X527559Y417323D02*
D03*
Y409449D02*
D03*
Y401575D02*
D03*
X519685Y334646D02*
D03*
X527559D02*
D03*
Y326772D02*
D03*
X519685D02*
D03*
Y318898D02*
D03*
X527559D02*
D03*
Y303150D02*
D03*
Y311024D02*
D03*
X519685D02*
D03*
Y303150D02*
D03*
X511811D02*
D03*
Y311024D02*
D03*
Y318898D02*
D03*
Y326772D02*
D03*
Y334646D02*
D03*
X503937D02*
D03*
Y326772D02*
D03*
Y318898D02*
D03*
Y311024D02*
D03*
X511811Y287402D02*
D03*
Y295276D02*
D03*
X503937Y287402D02*
D03*
Y295276D02*
D03*
Y303150D02*
D03*
X496063D02*
D03*
Y295276D02*
D03*
Y287402D02*
D03*
X480315D02*
D03*
X488189D02*
D03*
Y295276D02*
D03*
Y303150D02*
D03*
X480315D02*
D03*
X464567D02*
D03*
X448819D02*
D03*
X456693D02*
D03*
Y311024D02*
D03*
X448819D02*
D03*
X440945D02*
D03*
Y318898D02*
D03*
X448819D02*
D03*
X456693D02*
D03*
Y326772D02*
D03*
X448819D02*
D03*
X440945D02*
D03*
Y334646D02*
D03*
X448819D02*
D03*
X456693D02*
D03*
X450787Y411417D02*
D03*
Y401575D02*
D03*
X458661D02*
D03*
Y411417D02*
D03*
X519685Y401575D02*
D03*
X511811D02*
D03*
X503937D02*
D03*
Y409449D02*
D03*
X511811D02*
D03*
X519685D02*
D03*
Y417323D02*
D03*
X511811D02*
D03*
X503937D02*
D03*
X519685Y425197D02*
D03*
X511811D02*
D03*
X503937D02*
D03*
X457161Y420760D02*
D03*
X767717Y305118D02*
D03*
Y312992D02*
D03*
Y320866D02*
D03*
Y328740D02*
D03*
X751968Y344488D02*
D03*
X744095Y236221D02*
D03*
Y244094D02*
D03*
X751968Y228346D02*
D03*
X744095D02*
D03*
X759842Y212598D02*
D03*
Y220472D02*
D03*
X751968D02*
D03*
X736221Y236221D02*
D03*
X751968D02*
D03*
X736221Y244094D02*
D03*
X814961D02*
D03*
Y236221D02*
D03*
Y228346D02*
D03*
Y220472D02*
D03*
Y212598D02*
D03*
Y204724D02*
D03*
X807087D02*
D03*
Y212598D02*
D03*
X799213D02*
D03*
Y204724D02*
D03*
X791339D02*
D03*
Y212598D02*
D03*
X783465D02*
D03*
X775591D02*
D03*
X767717Y204724D02*
D03*
Y212598D02*
D03*
Y220472D02*
D03*
X759842Y228346D02*
D03*
X767717D02*
D03*
Y236221D02*
D03*
X759842D02*
D03*
X751968Y244094D02*
D03*
X759842D02*
D03*
X767717D02*
D03*
Y336614D02*
D03*
X759842D02*
D03*
X751968D02*
D03*
X744095D02*
D03*
X736221Y344488D02*
D03*
Y336614D02*
D03*
X759842Y344488D02*
D03*
X759687Y352222D02*
D03*
X759842Y360236D02*
D03*
Y368110D02*
D03*
X751968D02*
D03*
X744095D02*
D03*
X736221D02*
D03*
X767717D02*
D03*
Y360236D02*
D03*
Y352362D02*
D03*
Y344488D02*
D03*
X775591D02*
D03*
Y352362D02*
D03*
Y360236D02*
D03*
Y368110D02*
D03*
X814961Y305118D02*
D03*
Y312992D02*
D03*
Y320866D02*
D03*
Y328740D02*
D03*
Y336614D02*
D03*
X783465Y344488D02*
D03*
X791339D02*
D03*
X799213D02*
D03*
X807087D02*
D03*
X814961D02*
D03*
Y352362D02*
D03*
X807087D02*
D03*
X799213D02*
D03*
X791339D02*
D03*
X783465D02*
D03*
Y360236D02*
D03*
X791339D02*
D03*
X799213D02*
D03*
X807087D02*
D03*
X814961D02*
D03*
Y368110D02*
D03*
X807087D02*
D03*
X799213D02*
D03*
X791339D02*
D03*
X783465D02*
D03*
X736221Y484252D02*
D03*
Y476378D02*
D03*
X744095D02*
D03*
X751968D02*
D03*
X759842D02*
D03*
X767717D02*
D03*
Y484252D02*
D03*
X759842D02*
D03*
X751968D02*
D03*
X744095D02*
D03*
Y492126D02*
D03*
X751968Y500000D02*
D03*
Y492126D02*
D03*
X759842D02*
D03*
Y500000D02*
D03*
Y507874D02*
D03*
X736221Y425197D02*
D03*
Y417323D02*
D03*
Y409449D02*
D03*
Y401575D02*
D03*
Y393701D02*
D03*
X744095D02*
D03*
Y401575D02*
D03*
Y409449D02*
D03*
Y417323D02*
D03*
Y425197D02*
D03*
X751968D02*
D03*
Y417323D02*
D03*
Y409449D02*
D03*
Y401575D02*
D03*
Y393701D02*
D03*
X759842D02*
D03*
Y401575D02*
D03*
Y409449D02*
D03*
Y417323D02*
D03*
Y425197D02*
D03*
X816929Y492126D02*
D03*
Y500000D02*
D03*
Y507874D02*
D03*
Y515748D02*
D03*
Y523622D02*
D03*
Y531496D02*
D03*
X809055D02*
D03*
Y523622D02*
D03*
X801181D02*
D03*
X793307D02*
D03*
X785433D02*
D03*
X777559D02*
D03*
X767717Y515748D02*
D03*
Y507874D02*
D03*
Y500000D02*
D03*
Y492126D02*
D03*
X816929Y422244D02*
D03*
Y414370D02*
D03*
Y406496D02*
D03*
Y398622D02*
D03*
Y382874D02*
D03*
Y390748D02*
D03*
X809055D02*
D03*
Y382874D02*
D03*
X793307D02*
D03*
X801181D02*
D03*
Y390748D02*
D03*
X793307D02*
D03*
X785433D02*
D03*
X767717Y425197D02*
D03*
Y417323D02*
D03*
Y409449D02*
D03*
Y401575D02*
D03*
Y393701D02*
D03*
X462598Y484252D02*
D03*
X470472D02*
D03*
X478346D02*
D03*
X486221D02*
D03*
X494095D02*
D03*
X529528Y515748D02*
D03*
Y507874D02*
D03*
Y500000D02*
D03*
X521654D02*
D03*
Y507874D02*
D03*
Y515748D02*
D03*
X513779Y492126D02*
D03*
Y500000D02*
D03*
Y507874D02*
D03*
Y515748D02*
D03*
X505905Y492126D02*
D03*
Y500000D02*
D03*
Y507874D02*
D03*
Y515748D02*
D03*
X645669Y95276D02*
D03*
X629921Y95669D02*
D03*
X614173D02*
D03*
X598425Y96063D02*
D03*
X551181Y97638D02*
D03*
X535433D02*
D03*
X519685D02*
D03*
X503937D02*
D03*
X488189D02*
D03*
X472835D02*
D03*
X403543Y71850D02*
D03*
Y78740D02*
D03*
Y85630D02*
D03*
X598425Y64961D02*
D03*
X582677D02*
D03*
X566929D02*
D03*
X551181D02*
D03*
X535433D02*
D03*
X519685D02*
D03*
X503937D02*
D03*
X488189D02*
D03*
X472441D02*
D03*
D96*
X387795Y234685D02*
D03*
D97*
Y237185D02*
D03*
Y239685D02*
D03*
Y242185D02*
D03*
Y244685D02*
D03*
Y247185D02*
D03*
Y249685D02*
D03*
Y252185D02*
D03*
Y254685D02*
D03*
Y257185D02*
D03*
Y259685D02*
D03*
Y262185D02*
D03*
Y264685D02*
D03*
Y267185D02*
D03*
Y269685D02*
D03*
Y272185D02*
D03*
Y274685D02*
D03*
Y277185D02*
D03*
Y279685D02*
D03*
Y282185D02*
D03*
Y284685D02*
D03*
Y287185D02*
D03*
Y289685D02*
D03*
Y292185D02*
D03*
X427165Y234685D02*
D03*
Y237185D02*
D03*
Y239685D02*
D03*
Y242185D02*
D03*
Y244685D02*
D03*
Y247185D02*
D03*
Y249685D02*
D03*
Y252185D02*
D03*
Y254685D02*
D03*
Y257185D02*
D03*
Y259685D02*
D03*
Y262185D02*
D03*
Y264685D02*
D03*
Y267185D02*
D03*
Y269685D02*
D03*
Y272185D02*
D03*
Y274685D02*
D03*
Y277185D02*
D03*
Y279685D02*
D03*
Y282185D02*
D03*
Y284685D02*
D03*
Y287185D02*
D03*
Y289685D02*
D03*
Y292185D02*
D03*
D98*
X438976Y255807D02*
D03*
Y263878D02*
D03*
D99*
X450886Y255906D02*
D03*
X458563D02*
D03*
D100*
X440945Y243996D02*
D03*
Y232382D02*
D03*
X454724Y243996D02*
D03*
Y232382D02*
D03*
X440945Y224311D02*
D03*
Y212697D02*
D03*
X472441Y88484D02*
D03*
Y76870D02*
D03*
X488189D02*
D03*
Y88484D02*
D03*
X503937Y76870D02*
D03*
Y88484D02*
D03*
X519685Y76870D02*
D03*
Y88484D02*
D03*
X535433Y76870D02*
D03*
Y88484D02*
D03*
X551181Y76870D02*
D03*
Y88484D02*
D03*
X566929Y76870D02*
D03*
Y88484D02*
D03*
X582677Y76870D02*
D03*
Y88484D02*
D03*
X598425Y76870D02*
D03*
Y88484D02*
D03*
X614173Y76870D02*
D03*
Y88484D02*
D03*
X629921Y76870D02*
D03*
Y88484D02*
D03*
X645669Y76870D02*
D03*
Y88484D02*
D03*
D101*
X251673Y208954D02*
D03*
Y213954D02*
D03*
Y218954D02*
D03*
Y223954D02*
D03*
X273130Y208954D02*
D03*
Y213954D02*
D03*
Y218954D02*
D03*
Y223954D02*
D03*
D102*
X266339Y183973D02*
D03*
X258465Y187714D02*
D03*
Y180233D02*
D03*
X238779Y195784D02*
D03*
X246654Y192044D02*
D03*
Y199525D02*
D03*
X171850Y177084D02*
D03*
X179724Y173344D02*
D03*
Y180824D02*
D03*
D103*
X209252Y243816D02*
D03*
X217913D02*
D03*
Y229249D02*
D03*
X209252D02*
D03*
D104*
X190650Y199606D02*
D03*
Y197638D02*
D03*
Y195669D02*
D03*
Y193701D02*
D03*
Y191732D02*
D03*
Y189764D02*
D03*
Y187795D02*
D03*
Y185827D02*
D03*
Y183858D02*
D03*
Y181890D02*
D03*
Y179921D02*
D03*
Y177953D02*
D03*
X223917D02*
D03*
Y179921D02*
D03*
Y181890D02*
D03*
Y183858D02*
D03*
Y185827D02*
D03*
Y187795D02*
D03*
Y189764D02*
D03*
Y191732D02*
D03*
Y193701D02*
D03*
Y195669D02*
D03*
Y197638D02*
D03*
Y199606D02*
D03*
D105*
X196457Y172146D02*
D03*
X198425D02*
D03*
X200394D02*
D03*
X202362D02*
D03*
X204331D02*
D03*
X206299D02*
D03*
X208268D02*
D03*
X210236D02*
D03*
X212205D02*
D03*
X214173D02*
D03*
X216142D02*
D03*
X218110D02*
D03*
Y205413D02*
D03*
X216142D02*
D03*
X214173D02*
D03*
X212205D02*
D03*
X210236D02*
D03*
X208268D02*
D03*
X206299D02*
D03*
X204331D02*
D03*
X202362D02*
D03*
X200394D02*
D03*
X198425D02*
D03*
X196457D02*
D03*
D106*
X217520Y221260D02*
D03*
Y215748D02*
D03*
X201378Y214682D02*
D03*
Y220194D02*
D03*
X207283Y220194D02*
D03*
Y214682D02*
D03*
X177756Y223540D02*
D03*
Y229052D02*
D03*
D107*
X185925Y230233D02*
D03*
Y252233D02*
D03*
X198425D02*
D03*
Y230233D02*
D03*
D108*
X606201Y346457D02*
D03*
X594587D02*
D03*
X643602Y43307D02*
D03*
X631988D02*
D03*
D109*
X594488Y321161D02*
D03*
Y332382D02*
D03*
X546260Y132579D02*
D03*
Y121358D02*
D03*
D110*
X616142Y314173D02*
D03*
Y319685D02*
D03*
D111*
X607087Y307087D02*
D03*
X601575D02*
D03*
X572047Y110236D02*
D03*
X577559D02*
D03*
X572047Y102362D02*
D03*
X577559D02*
D03*
D112*
X554744Y154626D02*
D03*
X549744D02*
D03*
X544744D02*
D03*
X539744D02*
D03*
X554744Y176083D02*
D03*
X549744D02*
D03*
X544744D02*
D03*
X539744D02*
D03*
D113*
X555118Y197244D02*
D03*
Y220079D02*
D03*
D114*
X590551Y167323D02*
D03*
Y236221D02*
D03*
X679134Y167323D02*
D03*
Y236221D02*
D03*
D115*
X580551Y127114D02*
D03*
X600551D02*
D03*
Y276429D02*
D03*
X580551D02*
D03*
X669134Y127114D02*
D03*
X689134D02*
D03*
X669134Y276429D02*
D03*
X689134D02*
D03*
M02*
