M48
;Layer_Color=9474304
;FILE_FORMAT=2:5
INCH,TZ
;TYPE=PLATED
T1F00S00C0.01575
T2F00S00C0.03000
T3F00S00C0.03543
T4F00S00C0.03937
T5F00S00C0.04000
T6F00S00C0.05512
T7F00S00C0.06500
T8F00S00C0.09449
T9F00S00C0.13780
%
T01
X6.49311Y0.50098
X6.82087Y1.24016
X7.77559Y0.77756
X8.01181Y0.71850
X6.54528
X6.09252Y1.24016
X5.65945Y1.02362
X5.01968Y1.36811
X3.96654Y1.46127
X4.21529Y0.89679
X4.29134Y2.01575
X4.44882Y2.05512
X2.99213Y2.07435
X2.96157Y1.91688
X3.01969Y1.83071
X2.87402Y1.79134
X2.83177Y1.85736
X2.72638Y1.86024
Y1.80118
X2.68504Y1.91339
X2.66929Y2.04331
X2.79528Y1.99803
Y1.64370
X2.72638
X2.52362Y1.83858
X2.31751Y1.78961
X2.23917Y1.72851
X2.31496Y1.93701
X2.12802Y2.10820
X2.08268Y1.98819
X1.84366Y1.97638
X1.92520Y2.10630
X1.98425Y1.81890
X1.90551Y1.74016
X1.84646
X1.92641Y1.67757
X2.01969Y1.63386
X2.08661Y1.60433
Y1.54528
Y1.48622
Y1.42717
X2.09055Y1.66535
X1.72047Y1.59449
X1.71653Y1.84252
X0.59449Y2.11024
X0.40945Y2.04724
X0.40979Y1.87598
X1.72244Y2.13583
X2.09252Y2.36402
X2.09449Y2.85039
X2.18110Y2.36221
X2.51462Y2.38696
X2.62852Y2.33324
X2.66142Y2.17323
X2.44882Y2.26772
X2.97758Y2.25626
X3.01181Y2.18504
X3.65256Y2.28248
X3.61811Y2.50787
X3.59449Y2.97638
X3.38902Y2.81188
X3.30729Y2.70079
X2.75590Y2.66929
X3.77953Y2.80709
X3.95669Y2.59842
X3.95617Y2.53491
X4.19291Y2.57874
Y2.73622
X4.33071Y2.54724
X4.38976Y2.49213
X4.41698Y2.38942
X4.54724Y2.39170
X4.56545Y2.81890
X4.68110Y2.81496
X5.11978Y2.75006
X4.29831Y3.01181
X4.26219Y3.12045
X3.99606Y3.22933
X5.81693Y3.21850
X6.06299Y3.36614
X3.91732Y3.94258
X3.82781Y5.18701
X3.71934Y5.09955
X4.07480Y5.12795
X4.13386Y5.19685
X4.23228Y5.19538
X4.40945Y5.19685
X3.65158Y5.18701
X3.59252
Y5.24062
X3.49213Y4.73228
X2.96771Y4.15560
X2.96504Y4.08255
X2.87992Y4.13975
X2.89370Y4.19291
X2.77256Y3.98237
X2.67717Y4.01575
X2.63779Y4.05512
X2.56448Y4.07836
X2.53120Y4.11584
X3.42520Y5.34449
X4.09449Y5.26575
X4.19291Y5.39797
X4.40945Y5.39370
T02
X3.74016Y4.37008
Y4.44882
T03
X4.39961Y0.06004
Y0.13878
Y0.21752
Y0.29626
Y0.37500
X4.47835
Y0.29626
Y0.21752
Y0.13878
Y0.06004
X4.55709
Y0.13878
Y0.21752
Y0.29626
Y0.37500
X4.63583
Y0.29626
Y0.21752
Y0.13878
Y0.06004
X4.71457
Y0.13878
Y0.21752
Y0.29626
Y0.37500
T04
X0.17717Y0.07874
X0.25591
Y0.15748
X0.17717
Y0.23622
X0.25591
X0.33465
X0.41339
Y0.15748
Y0.07874
X0.33465
Y0.15748
X0.49213
Y0.07874
Y0.23622
X0.57087
X0.64961
Y0.15748
Y0.07874
X0.57087
Y0.15748
X0.72835Y0.33465
Y0.41339
X0.80709
Y0.33465
X0.88583
Y0.41339
Y0.49213
X0.80709
X0.72835
X2.98228Y0.55118
X3.06102
Y0.47244
X3.13976
X3.21850
Y0.39370
Y0.32480
X3.13976Y0.39370
Y0.55118
X3.21850
X2.98228Y0.32480
X3.68110Y0.35433
X3.85827
X3.93701
X4.01575
X4.13386Y0.29528
Y0.21654
Y0.13886
X4.19291Y0.17717
Y0.25591
X4.25197Y0.21654
Y0.13886
X4.38411Y0.53936
X4.56693Y0.53937
X4.88681Y0.35531
Y0.29626
Y0.23720
Y0.17815
Y0.11909
Y0.06004
X4.99508
Y0.11909
Y0.17815
Y0.23720
Y0.29626
Y0.35531
X5.10335
Y0.29626
Y0.23720
Y0.17815
Y0.11909
Y0.06004
X5.21161
Y0.11909
Y0.17815
Y0.23720
Y0.29626
Y0.35531
X5.31988
Y0.29626
Y0.23720
Y0.17815
Y0.11909
Y0.06004
X5.42815
Y0.11909
Y0.17815
Y0.23720
Y0.29626
Y0.35531
X5.53642
Y0.29626
Y0.23720
Y0.17815
Y0.11909
Y0.06004
X5.64468
Y0.11909
Y0.17815
Y0.23720
Y0.29626
Y0.35531
X5.75295
Y0.29626
Y0.23720
Y0.17815
Y0.11909
Y0.06004
X5.86122
Y0.11909
Y0.17815
Y0.23720
Y0.29626
Y0.35531
X7.57874Y1.04331
X7.65748
Y1.12205
X7.73622
Y1.04331
X7.81496
Y1.12205
X7.89370
Y1.04331
X7.97244
Y1.12205
X8.05118
Y1.04331
Y1.20079
X7.97244
X7.89370
X7.81496
X7.73622
Y1.61417
X7.81496
X7.89370
X7.97244
Y1.69291
X7.89370
Y1.77165
X7.81496
Y1.69291
X7.73622
Y1.77165
Y1.85039
X7.81496
X7.73622Y1.92913
X7.67717Y2.04724
X7.59842
X7.51968
X7.44095
X7.91339
X7.99213
X8.07087
X8.14961
X8.05118Y1.61417
X6.45669Y0.95276
X6.29921Y0.95669
X6.14173
X5.98425Y0.96063
Y0.64961
X5.82677
X5.66929
X5.51181
X5.35433
Y0.97638
X5.51181
X5.19685
X5.03937
X4.88189
X4.72835
X4.64567Y1.10236
X4.56693
X4.48819
Y1.18110
Y1.25984
X4.56693
Y1.18110
X4.64567
X4.72441
X4.80315
X4.40945
Y1.25984
X4.33071
Y1.18110
X4.33812Y1.10977
X4.40945Y1.10236
X4.42913Y1.39764
X4.50787
X4.58661
Y1.47638
Y1.55512
X4.35039Y1.47638
Y1.39764
X4.27165
X4.19291
Y1.47638
Y1.55512
X4.27165
Y1.47638
Y1.31890
Y1.65354
X4.19291
X3.83858Y1.51575
Y1.43701
Y1.35827
X3.75984
Y1.27953
Y1.43701
Y1.51575
X3.81890Y1.12205
Y1.04331
X3.74016
X3.77953Y0.98425
X3.89764Y1.04331
Y1.12205
Y1.20079
X4.03543Y0.85630
Y0.78740
Y0.71850
X4.29134Y0.66929
Y0.59055
X4.47638Y0.61024
Y0.69291
X4.72441Y0.64961
X4.88189
X5.03937
X5.19685
X5.21708Y1.41732
X5.21654Y1.49606
Y1.57480
X5.13779
Y1.49606
X5.07874Y1.43701
X5.01968Y1.49606
X5.05905Y1.57480
Y2.02756
X5.13779
X3.81890Y2.00787
X3.74016
X3.75984Y0.61024
X3.68110
Y0.98425
Y1.20079
Y1.27953
Y1.35827
Y1.43701
Y1.51575
X3.20866
Y1.43701
X3.12992Y1.51575
Y1.29921
Y1.22047
X3.20866
Y1.14173
X3.12992
X3.20866Y1.06299
X3.21850Y0.94488
X3.13976
X3.06102
X2.98228
X3.13976Y0.86614
X3.21850
Y0.78740
Y0.70866
X3.13976
Y0.78740
Y0.62992
X3.21850
X3.06102
X2.98228
X3.44488Y1.18110
X3.52362
X3.34646Y1.92913
Y2.00787
X3.26772
Y1.92913
X3.18898
Y2.00787
X3.11024
Y1.92913
Y2.10630
X3.66142Y2.00787
X0.88583Y1.69291
Y1.61449
X0.80709
Y1.69291
X0.72835
Y1.61449
Y1.53575
X0.80709
Y1.45701
X0.72835
Y1.37827
X0.80709
Y1.29953
X0.72835
Y1.22079
X0.80709
X0.88583
Y1.29953
Y1.37827
Y1.45701
Y1.53575
X0.64961Y1.61417
Y1.69291
X0.57087
Y1.61417
X0.72835Y0.64961
X0.80709
X0.88583
Y0.57087
X0.80709
X0.72835
X0.49213Y1.61417
Y1.69291
X0.41339
Y1.61417
X0.29528Y1.79134
X0.21654
X0.13780
X0.05906
Y1.71260
Y1.63386
Y1.55512
X0.13780Y2.55906
Y2.63779
Y2.71654
Y2.79528
Y2.87402
Y2.95276
X0.43307Y3.40551
X0.51181
Y3.48425
Y3.56299
X0.43307Y3.48425
X0.59055
X0.66929
Y3.56299
X0.59055
X0.74803
Y3.48425
X0.82677
Y3.56299
Y3.40551
Y3.32677
Y3.24803
Y3.16929
Y3.09055
X0.74803
Y3.16929
X0.66929
Y3.09055
Y3.24803
X0.74803
Y3.32677
Y3.40551
X0.66929
Y3.32677
X0.59055Y3.40551
X0.74803Y2.57874
X0.82677
X0.90551
Y2.50000
X0.82677
Y2.42126
X0.74803
Y2.34252
X0.66929
X0.59055
Y2.42126
X0.66929
Y2.50000
X0.74803
X0.98425Y2.57874
X0.59055Y2.26378
Y2.18504
X3.20866Y2.15551
Y2.28346
Y2.36221
X3.12992
X3.14961Y2.91339
Y2.99213
Y3.07087
X3.07087
Y2.99213
Y2.91339
X3.22835Y2.99213
X3.30709
X3.38583
X3.22835Y3.07087
Y3.14961
X3.14961
Y3.22835
Y3.30709
X3.07087
X3.07087Y3.22886
Y3.15024
X3.22835Y3.22835
Y3.30709
X3.68110
Y3.38583
Y3.14961
Y3.01181
X3.66142Y2.14567
X3.75984Y3.01181
X3.74016Y3.14961
X3.75984Y3.38583
Y3.46457
Y3.54331
Y3.62205
X3.81890Y3.58268
Y3.50394
X4.40945Y3.34646
Y3.26772
Y3.18898
Y3.11024
Y3.03150
X4.48819
Y2.95717
X4.56703Y2.95715
X4.56693Y3.03150
Y3.11024
X4.48819
Y3.18898
X4.56693
Y3.26772
X4.48819
Y3.34646
X4.56693
X4.64567Y3.03150
X4.80315
X4.88189
X4.96063
X5.03937
X5.11811
Y3.11024
X5.03937
Y3.18898
X5.11811
Y3.26772
X5.03937
Y3.34646
X5.11811
X5.19685
Y3.26772
Y3.18898
Y3.11024
Y3.03150
X5.11811Y2.95276
X5.03937
Y2.87402
X5.11811
X4.96063
X4.88189
X4.80315
X4.88189Y2.95276
X4.96063
X4.98032Y2.59842
X5.05905
X5.13779
X5.21654
Y2.51969
Y2.44094
X5.13779
Y2.51969
X5.05905
Y2.44094
Y2.36221
Y2.28346
Y2.20472
Y2.12598
X5.13779
X5.21654
Y2.20472
X5.13779
Y2.28346
X5.21654
Y2.36221
X5.13779
X4.98032Y2.51969
X4.90158
Y2.59842
X4.82283
X4.74409
Y2.51969
X4.82283
X4.66535
Y2.59842
X5.27559Y3.03150
Y3.11024
Y3.18898
Y3.26772
Y3.34646
X6.22047Y2.87402
Y2.79528
X6.14173
Y2.71654
X6.22047
X6.29921
X6.37795
X6.45669
X6.53543
Y2.79528
Y2.87402
X6.45669
X6.37795
Y2.79528
X6.45669
X6.29921
Y2.87402
X6.87008Y2.95276
Y3.03150
X6.94882
Y2.95276
X7.02756
X7.10630
Y3.03150
X7.02756
X7.18504
Y2.95276
Y2.87402
Y2.79528
X7.10630
Y2.87402
X7.02756
Y2.79528
Y2.71654
X7.10630
X7.18504
X7.36221Y2.44094
X7.44095
X7.51968
Y2.36221
X7.44095
Y2.28346
X7.51968
Y2.20472
Y2.12598
X7.44095
Y2.20472
X7.36221
Y2.12598
Y2.28346
Y2.36221
X7.59842
Y2.28346
Y2.20472
Y2.12598
X7.67717
X7.75591
X7.83465
X7.91339
X7.99213
X8.07087
X8.14961
Y2.20472
Y2.28346
Y2.36221
Y2.44094
X7.67717
Y2.36221
Y2.28346
Y2.20472
X7.59842Y2.44094
X7.67717Y3.05118
Y3.12992
Y3.20866
Y3.28740
Y3.36614
X7.59842
X7.51968
X7.44095
X7.36221
Y3.44488
X7.51968
X7.59842
X7.67717
Y3.52362
X7.75591
Y3.44488
X7.83465
X7.91339
Y3.52362
X7.83465
Y3.60236
X7.91339
X7.99213
X8.07087
Y3.52362
Y3.44488
X7.99213
Y3.52362
X8.14961
Y3.44488
Y3.36614
Y3.28740
Y3.20866
Y3.12992
Y3.05118
Y3.60236
Y3.68110
X8.07087
X7.99213
X7.91339
X7.83465
X7.75591
X7.67717
X7.59842
Y3.60236
X7.67717
X7.75591
X7.59687Y3.52222
X7.51968Y3.68110
X7.44095
X7.36221
Y3.93701
Y4.01575
Y4.09449
Y4.17323
Y4.25197
X7.44095
X7.51968
Y4.17323
X7.44095
Y4.09449
X7.51968
Y4.01575
X7.44095
Y3.93701
X7.51968
X7.59842
Y4.01575
Y4.09449
Y4.17323
Y4.25197
X7.67717
Y4.17323
Y4.09449
Y4.01575
Y3.93701
X7.85433Y3.90748
X7.93307
Y3.82874
X8.01181
X8.09055
X8.16929
Y3.90748
Y3.98622
Y4.06496
Y4.14370
Y4.22244
X8.09055Y3.90748
X8.01181
X8.16929Y4.92126
Y5.00000
Y5.07874
Y5.15748
Y5.23622
X8.09055
X8.01181
X7.93307
X7.85433
X7.77559
X7.67717Y5.15748
Y5.07874
X7.59842
Y5.00000
X7.51968
Y4.92126
Y4.84252
X7.44095
Y4.92126
X7.36221Y4.84252
Y4.76378
X7.44095
X7.51968
X7.59842
X7.67717
Y4.84252
Y4.92126
X7.59842
Y4.84252
X7.67717Y5.00000
X5.29528
Y5.07874
Y5.15748
Y5.23622
X5.27559Y4.17323
Y4.09449
Y4.01575
X5.19685
X5.11811
X5.03937
Y4.09449
X5.11811
Y4.17323
X5.03937
Y4.25197
X5.11811
X5.19685
Y4.17323
Y4.09449
X4.58661Y4.11417
X4.50787
Y4.01575
X4.58661
X4.57161Y4.20760
X4.48819Y4.27165
X4.40945
Y4.19291
X4.33071
Y4.11417
X3.91732Y4.11702
Y4.03344
Y4.21260
Y4.29134
Y4.37008
Y4.44882
Y4.52756
X3.99606Y4.56693
X4.07480
Y4.48819
X3.99606
X4.03543Y4.42913
X4.11417
X4.18701Y4.42577
X4.15354Y4.48819
Y4.56693
X4.23228
Y4.48819
X4.38976Y4.76378
X4.46850
Y4.84252
Y4.92126
X4.38976
Y4.84252
X4.54724
Y4.92126
Y5.00000
Y5.07874
Y5.15748
Y5.23622
X4.62598
X4.70472
X4.78346
X4.88189
X4.98032
X5.05905
X5.13779
X5.21654
Y5.15748
Y5.07874
X5.13779
Y5.15748
X5.05905
Y5.07874
Y5.00000
X5.13779
X5.21654
X5.13779Y4.92126
X5.05905
X4.94095Y4.84252
Y4.76378
X4.86221
X4.78346
X4.70472
X4.62598
X4.54724
X4.62598Y4.84252
X4.70472
X4.78346
X4.86221
X3.79921Y4.76378
X3.72047
X3.64173
X3.56299Y4.79815
X3.48425
X3.20866Y4.80315
X3.15945Y4.74409
X3.05118
Y4.89173
Y4.98032
X3.12992
Y5.05911
X3.05118
Y5.18429
X3.12992
X3.20866
Y5.05905
X3.17515Y4.89572
X3.11610Y4.83666
X3.34646Y5.21654
X3.42520
X3.50394
Y4.31102
X3.42520
X3.34646
X3.26772
X3.22835Y4.25197
Y4.17323
Y4.09449
Y4.01575
Y3.93701
X3.14961
Y4.01575
X3.07087
Y3.93701
Y4.09449
X3.14961
Y4.17323
X3.68110
Y4.09449
Y4.01575
Y3.93701
X0.96457Y4.27165
X0.88583
Y4.19291
X0.80709
Y4.27165
X0.72835
Y4.19291
X0.64961
Y4.11417
Y4.03543
X0.72835
Y4.11417
X0.80709
X0.57087
Y4.03543
Y3.95669
Y3.87795
X0.64961Y3.95669
Y5.11811
X0.72835
X0.80709
Y5.19685
X0.72835
X0.64961
X0.17717
X0.07874
Y5.11811
Y5.03937
Y4.27165
Y4.19291
Y4.11417
Y4.03543
Y3.95669
Y3.87795
X0.15748
Y3.79921
X0.07874
Y3.72047
X0.15748
X0.41339
Y3.79921
X0.49213
Y3.87795
X0.41339
Y5.27559
X0.33465
Y5.35433
X0.41339
X0.49213
Y5.27559
Y5.43307
X0.41339
X0.33465
X0.25591
X0.17717
Y5.35433
X0.25591
Y5.27559
X0.17717
X0.07874
Y5.35433
Y5.43307
X0.57087
Y5.35433
Y5.27559
X0.64961
Y5.35433
X0.72835
Y5.27559
X0.80709
Y5.35433
Y5.43307
X0.72835
X0.64961
X3.12992Y5.25591
X3.20866
X3.28740
X4.55755Y5.30465
X4.62598Y5.31496
X4.70472
X4.78346
X5.05905
X5.13779
X5.21654
X5.29528
X8.09055
X8.16929
T05
X7.87402Y0.17244
Y0.27244
Y0.37244
Y0.47244
Y0.57244
Y0.67244
Y0.77244
X4.68661Y5.41339
X4.58661
T06
X7.26221Y0.39370
X7.46220
T07
X6.71639Y0.25740
X6.85039
Y0.78740
X6.71639
T08
X7.77244Y2.02953
X4.95121Y1.71063
X3.30000Y1.10465
X0.47953Y0.76575
Y2.57677
X3.30000Y2.89567
X4.94803Y3.52165
X7.77169Y3.84055
X4.42717Y4.06181
X3.30000Y4.70669
X0.47953Y4.38779
X4.95121Y5.33268
T09
X0.80315Y0.15748
X7.44806Y1.73228
X5.27559Y2.00787
X5.27484Y1.10236
X4.44882Y1.56496
X2.97638Y1.71291
Y0.78740
X0.80315Y1.08299
Y1.96850
Y2.87402
X2.97638Y2.59842
Y3.50394
X5.27165Y2.91339
X7.44882Y2.63779
X7.44488Y3.54331
X7.44806Y4.44882
X5.27484Y4.72441
Y3.81890
X3.81890Y3.73819
X2.97638Y4.40945
X0.80315Y4.68504
Y3.77953
X2.97638Y5.31496
X7.44806Y5.35433
M30
