G04*
G04 #@! TF.GenerationSoftware,Altium Limited,Altium Designer,21.0.8 (223)*
G04*
G04 Layer_Color=255*
%FSLAX25Y25*%
%MOIN*%
G70*
G04*
G04 #@! TF.SameCoordinates,A19D7D31-63B9-40C3-BA03-758776B81FF0*
G04*
G04*
G04 #@! TF.FilePolarity,Positive*
G04*
G01*
G75*
%ADD17R,0.33465X0.28937*%
%ADD18R,0.28937X0.33465*%
%ADD19R,0.06299X0.05512*%
%ADD20R,0.03543X0.03937*%
%ADD21R,0.03740X0.05118*%
%ADD22R,0.05118X0.03740*%
%ADD23R,0.11000X0.15000*%
%ADD24R,0.25591X0.25591*%
%ADD25R,0.06299X0.11811*%
%ADD26R,0.13780X0.03937*%
%ADD27R,0.04331X0.12992*%
%ADD59C,0.15748*%
%ADD60C,0.10630*%
%ADD61R,0.10433X0.10433*%
%ADD62C,0.10433*%
%ADD63R,0.05000X0.05000*%
%ADD64C,0.05000*%
%ADD65C,0.06000*%
%ADD66R,0.06000X0.06000*%
%ADD67C,0.05512*%
%ADD68R,0.07087X0.06299*%
%ADD69O,0.10000X0.13000*%
%ADD70C,0.06299*%
%ADD71R,0.06299X0.06299*%
D17*
X344488Y500000D02*
D03*
X33465D02*
D03*
Y409449D02*
D03*
X344488D02*
D03*
X33465Y47244D02*
D03*
X344488D02*
D03*
X480633Y503937D02*
D03*
X791657D02*
D03*
X480709Y232283D02*
D03*
X791732D02*
D03*
X33465Y139795D02*
D03*
X344488D02*
D03*
Y228346D02*
D03*
X33465D02*
D03*
X791657Y141732D02*
D03*
X480633D02*
D03*
X480315Y322835D02*
D03*
X791339D02*
D03*
X791657Y413386D02*
D03*
X480633D02*
D03*
X344488Y318898D02*
D03*
X33465D02*
D03*
D18*
X413386Y420669D02*
D03*
Y109646D02*
D03*
D19*
X372047Y518701D02*
D03*
X403543D02*
D03*
X372047Y500984D02*
D03*
X403543D02*
D03*
D20*
X372332Y537402D02*
D03*
X362883D02*
D03*
X388080D02*
D03*
X378631D02*
D03*
X356584D02*
D03*
X347135D02*
D03*
X403828D02*
D03*
X394379D02*
D03*
D21*
X379714Y529528D02*
D03*
X386998D02*
D03*
X371249D02*
D03*
X363966D02*
D03*
X348218D02*
D03*
X355502D02*
D03*
X395462D02*
D03*
X402745D02*
D03*
X363090Y290816D02*
D03*
X355807D02*
D03*
X358957Y265551D02*
D03*
X351673D02*
D03*
X30217Y204724D02*
D03*
X22933D02*
D03*
Y194882D02*
D03*
X30217D02*
D03*
X799902Y530512D02*
D03*
X792618D02*
D03*
D22*
X350000Y281201D02*
D03*
Y273917D02*
D03*
X362205Y113878D02*
D03*
Y106595D02*
D03*
X472441Y289665D02*
D03*
Y296949D02*
D03*
X27559Y376279D02*
D03*
Y383563D02*
D03*
Y347441D02*
D03*
Y340158D02*
D03*
X28254Y161713D02*
D03*
Y168996D02*
D03*
D23*
X421529Y78740D02*
D03*
X393431D02*
D03*
D24*
X447835Y91535D02*
D03*
D25*
X456890Y65354D02*
D03*
X438779D02*
D03*
D26*
X440945Y504606D02*
D03*
Y514606D02*
D03*
Y524606D02*
D03*
Y534606D02*
D03*
Y544606D02*
D03*
X419291Y504606D02*
D03*
Y514606D02*
D03*
Y524606D02*
D03*
Y534606D02*
D03*
Y544606D02*
D03*
D27*
X393898Y47244D02*
D03*
X369882D02*
D03*
D59*
X80315Y468504D02*
D03*
X297638Y531496D02*
D03*
Y440945D02*
D03*
X80315Y377953D02*
D03*
X297638Y78740D02*
D03*
X80315Y15748D02*
D03*
X744806Y535433D02*
D03*
X527484Y472441D02*
D03*
X444882Y156496D02*
D03*
X381890Y373819D02*
D03*
X744882Y263779D02*
D03*
X527559Y200787D02*
D03*
X297638Y171291D02*
D03*
X80315Y108299D02*
D03*
Y196850D02*
D03*
X297638Y259842D02*
D03*
X527484Y110236D02*
D03*
X744806Y173228D02*
D03*
X744488Y354331D02*
D03*
X527165Y291339D02*
D03*
X527484Y381890D02*
D03*
X744806Y444882D02*
D03*
X80315Y287402D02*
D03*
X297638Y350394D02*
D03*
D60*
X330000Y470669D02*
D03*
X47953Y438779D02*
D03*
Y76575D02*
D03*
X495121Y533268D02*
D03*
X442717Y406181D02*
D03*
X777244Y202953D02*
D03*
X330000Y110465D02*
D03*
X47953Y257677D02*
D03*
X495121Y171063D02*
D03*
X494803Y352165D02*
D03*
X777169Y384055D02*
D03*
X330000Y289567D02*
D03*
D61*
X726221Y39370D02*
D03*
D62*
X746220D02*
D03*
D63*
X374016Y437008D02*
D03*
D64*
Y444882D02*
D03*
D65*
X468661Y541339D02*
D03*
D66*
X458661D02*
D03*
D67*
X439961Y37500D02*
D03*
Y29626D02*
D03*
Y21752D02*
D03*
Y13878D02*
D03*
Y6004D02*
D03*
X447835Y37500D02*
D03*
Y29626D02*
D03*
Y21752D02*
D03*
Y13878D02*
D03*
Y6004D02*
D03*
X455709Y37500D02*
D03*
Y29626D02*
D03*
Y21752D02*
D03*
Y13878D02*
D03*
Y6004D02*
D03*
X463583Y37500D02*
D03*
Y29626D02*
D03*
Y21752D02*
D03*
Y13878D02*
D03*
Y6004D02*
D03*
X471457Y37500D02*
D03*
Y29626D02*
D03*
Y21752D02*
D03*
Y13878D02*
D03*
Y6004D02*
D03*
D68*
X564468D02*
D03*
X575295D02*
D03*
X564468Y11909D02*
D03*
X575295D02*
D03*
X564468Y17815D02*
D03*
X575295D02*
D03*
X564468Y23720D02*
D03*
X575295D02*
D03*
X564468Y29626D02*
D03*
X575295D02*
D03*
X531988Y6004D02*
D03*
X542815D02*
D03*
X531988Y11909D02*
D03*
X542815D02*
D03*
X531988Y17815D02*
D03*
X542815D02*
D03*
X531988Y23720D02*
D03*
X542815D02*
D03*
X531988Y29626D02*
D03*
X542815D02*
D03*
X499508Y6004D02*
D03*
X510335D02*
D03*
X499508Y11909D02*
D03*
X510335D02*
D03*
X499508Y17815D02*
D03*
X510335D02*
D03*
X499508Y23720D02*
D03*
X510335D02*
D03*
X499508Y29626D02*
D03*
X488681Y6004D02*
D03*
Y11909D02*
D03*
Y17815D02*
D03*
Y23720D02*
D03*
Y29626D02*
D03*
X564468Y35531D02*
D03*
X575295D02*
D03*
X531988D02*
D03*
X542815D02*
D03*
X499508D02*
D03*
X510335D02*
D03*
X488681D02*
D03*
X521161Y6004D02*
D03*
X553642D02*
D03*
X586122D02*
D03*
X521161Y11909D02*
D03*
X553642D02*
D03*
X586122D02*
D03*
X521161Y17815D02*
D03*
X553642D02*
D03*
X586122D02*
D03*
X521161Y23720D02*
D03*
X553642D02*
D03*
X586122D02*
D03*
X521161Y29626D02*
D03*
X553642D02*
D03*
X586122D02*
D03*
X521161Y35531D02*
D03*
X553642D02*
D03*
X586122D02*
D03*
X510335Y29626D02*
D03*
D69*
X671639Y78740D02*
D03*
X685039D02*
D03*
X671639Y25740D02*
D03*
X685039D02*
D03*
D70*
X787402Y77244D02*
D03*
Y57244D02*
D03*
Y67244D02*
D03*
Y47244D02*
D03*
Y27244D02*
D03*
Y37244D02*
D03*
D71*
Y17244D02*
D03*
M02*
